<svg width="16" height="16" viewBox="0 0 16 16" fill="none" xmlns="http://www.w3.org/2000/svg">
<path d="M8 2C11.3 2 14 4.7 14 8C14 11.3 11.3 14 8 14C4.7 14 2 11.3 2 8C2 4.7 4.7 2 8 2ZM8 1C4.15 1 1 4.15 1 8C1 11.85 4.15 15 8 15C11.85 15 15 11.85 15 8C15 4.15 11.85 1 8 1Z" fill="#6939FF"/>
<path d="M12 7.9C12 7.67909 11.8209 7.5 11.6 7.5H8.5V4.4C8.5 4.17909 8.32091 4 8.1 4H7.9C7.67909 4 7.5 4.17909 7.5 4.4V7.5H4.4C4.17909 7.5 4 7.67909 4 7.9V8.1C4 8.32091 4.17909 8.5 4.4 8.5H7.5V11.6C7.5 11.8209 7.67909 12 7.9 12H8.1C8.32091 12 8.5 11.8209 8.5 11.6V8.5H11.6C11.8209 8.5 12 8.32091 12 8.1V7.9Z" fill="#6939FF"/>
</svg>
