<svg
  width="17"
  height="16"
  viewBox="0 0 17 16"
  fill="none"
  xmlns="http://www.w3.org/2000/svg"
>
<path
    d="M8.5 2C11.8 2 14.5 4.7 14.5 8C14.5 11.3 11.8 14 8.5 14C5.2 14 2.5 11.3 2.5 8C2.5 4.7 5.2 2 8.5 2ZM8.5 1C4.65 1 1.5 4.15 1.5 8C1.5 11.85 4.65 15 8.5 15C12.35 15 15.5 11.85 15.5 8C15.5 4.15 12.35 1 8.5 1Z"
    fill="#6939FF"
  />
<path
    d="M12.5 7.9C12.5 7.67909 12.3209 7.5 12.1 7.5H9V4.4C9 4.17909 8.82091 4 8.6 4H8.4C8.17909 4 8 4.17909 8 4.4V7.5H4.9C4.67909 7.5 4.5 7.67909 4.5 7.9V8.1C4.5 8.32091 4.67909 8.5 4.9 8.5H8V11.6C8 11.8209 8.17909 12 8.4 12H8.6C8.82091 12 9 11.8209 9 11.6V8.5H12.1C12.3209 8.5 12.5 8.32091 12.5 8.1V7.9Z"
    fill="#6939FF"
  />
</svg>
