<svg
  width="17"
  height="16"
  viewBox="0 0 17 16"
  fill="none"
  xmlns="http://www.w3.org/2000/svg"
>
<path
    d="M11.9999 14L11.9999 9L14.4999 9C14.5988 8.99998 14.6954 8.97064 14.7776 8.9157C14.8598 8.86076 14.9239 8.78267 14.9617 8.69132C14.9996 8.59997 15.0095 8.49946 14.9902 8.40248C14.9709 8.30551 14.9233 8.21642 14.8534 8.1465L8.85339 2.1465C8.75963 2.05276 8.63247 2.00011 8.49989 2.00011C8.36731 2.00011 8.24016 2.05276 8.14639 2.1465L2.14639 8.1465C2.07649 8.21643 2.02888 8.30551 2.0096 8.40248C1.99032 8.49946 2.00022 8.59998 2.03805 8.69133C2.07589 8.78268 2.13996 8.86076 2.22216 8.9157C2.30437 8.97064 2.40102 8.99998 2.49989 9L4.99989 9L4.99989 14C5.00016 14.2651 5.1056 14.5193 5.29308 14.7068C5.48056 14.8943 5.73476 14.9997 5.99989 15L10.9999 15C11.265 14.9996 11.5191 14.8941 11.7066 14.7067C11.894 14.5192 11.9995 14.2651 11.9999 14ZM8.49989 3.207L13.2929 8L10.9999 8L10.9999 14L5.99989 14L5.99989 8L3.70689 8L8.49989 3.207Z"
    fill="#6939FF"
  />
</svg>
