<svg width="45" height="51" viewBox="0 0 45 51" fill="none" xmlns="http://www.w3.org/2000/svg">
<path d="M44.25 22.7698C44.25 34.8383 30.4219 50.0846 22.125 50.0846C13.8281 50.0846 0 34.8383 0 22.7698C0 10.7014 9.9057 0.917969 22.125 0.917969C34.3443 0.917969 44.25 10.7014 44.25 22.7698Z" fill="#6A00FF"/>
<path d="M9.772 27.6992L10.444 25.9912H14.462L15.134 27.6992H17.78L13.944 17.8992H10.976L7.126 27.6992H9.772ZM12.432 20.7132H12.488L13.65 23.8912H11.27L12.432 20.7132ZM22.2771 27.6992L22.2911 19.9992H24.9791L24.9651 17.8992H16.9151L16.9431 19.9992H19.6451L19.6311 27.6992H22.2771ZM28.3076 27.6852V20.8672H28.3636L30.1556 27.6852H32.7036L34.4956 20.8672H34.5516V27.6852H37.0576V17.8852H33.3056L31.4576 24.8432H31.4016L29.5536 17.8852H25.8156V27.6852H28.3076Z" fill="white"/>
</svg>
