<svg width="24" height="25" viewBox="0 0 24 25" fill="none" xmlns="http://www.w3.org/2000/svg">
<path d="M23.0336 24.2644H0.966406C0.745606 24.2644 0.566406 24.0852 0.566406 23.8644V20.65C0.566406 20.4292 0.745606 20.25 0.966406 20.25H23.032C23.2528 20.25 23.432 20.4292 23.432 20.65V23.8644C23.4336 24.0852 23.2544 24.2644 23.0336 24.2644ZM1.36641 23.4644H22.632V21.05H1.36641V23.4644Z" fill="#6A00FF"/>
<path d="M23.0336 9.34436H0.966406C0.745606 9.34436 0.566406 9.16516 0.566406 8.94436V5.98436C0.566406 5.82436 0.662406 5.67876 0.809606 5.61636L11.8432 0.917166C11.944 0.873966 12.056 0.873966 12.1568 0.917166L23.1904 5.61636C23.3376 5.67876 23.4336 5.82436 23.4336 5.98436V8.94436C23.4336 9.16516 23.2544 9.34436 23.0336 9.34436ZM1.36641 8.54436H22.632V6.24996L12 1.72037L1.36641 6.24996V8.54436Z" fill="#6A00FF"/>
<path d="M20.6335 10.2832H19.8335V19.3072H20.6335V10.2832Z" fill="#6A00FF"/>
<path d="M15.216 10.2832H14.416V19.3072H15.216V10.2832Z" fill="#6A00FF"/>
<path d="M9.79658 10.2832H8.99658V19.3072H9.79658V10.2832Z" fill="#6A00FF"/>
<path d="M4.37764 10.2832H3.57764V19.3072H4.37764V10.2832Z" fill="#6A00FF"/>
</svg>
