<svg
  width="21"
  height="21"
  viewBox="0 0 21 21"
  fill="none"
  xmlns="http://www.w3.org/2000/svg"
>
<path d="M1.75 14.25H19.25V15.5H1.75V14.25Z" fill="#4A476F" />
<path d="M1.75 16.75H19.25V18H1.75V16.75Z" fill="#4A476F" />
<path
    d="M15.5 6.75C15.2528 6.75 15.0111 6.82331 14.8055 6.96066C14.6 7.09801 14.4398 7.29324 14.3452 7.52165C14.2505 7.75005 14.2258 8.00139 14.274 8.24386C14.3223 8.48634 14.4413 8.70907 14.6161 8.88388C14.7909 9.0587 15.0137 9.17775 15.2561 9.22598C15.4986 9.27421 15.7499 9.24946 15.9784 9.15485C16.2068 9.06024 16.402 8.90002 16.5393 8.69446C16.6767 8.4889 16.75 8.24723 16.75 8C16.75 7.66848 16.6183 7.35054 16.3839 7.11612C16.1495 6.8817 15.8315 6.75 15.5 6.75Z"
    fill="#4A476F"
  />
<path
    d="M10.5 10.5C10.0055 10.5 9.5222 10.3534 9.11108 10.0787C8.69995 9.80397 8.37952 9.41353 8.1903 8.95671C8.00108 8.49989 7.95157 7.99723 8.04804 7.51228C8.1445 7.02732 8.3826 6.58187 8.73223 6.23223C9.08187 5.8826 9.52732 5.6445 10.0123 5.54804C10.4972 5.45157 10.9999 5.50108 11.4567 5.6903C11.9135 5.87952 12.304 6.19995 12.5787 6.61108C12.8534 7.0222 13 7.50555 13 8C12.9992 8.66279 12.7355 9.29819 12.2669 9.76685C11.7982 10.2355 11.1628 10.4992 10.5 10.5V10.5ZM10.5 6.75C10.2528 6.75 10.0111 6.82331 9.80554 6.96066C9.59998 7.09802 9.43976 7.29324 9.34515 7.52165C9.25054 7.75005 9.22579 8.00139 9.27402 8.24386C9.32225 8.48634 9.4413 8.70907 9.61612 8.88388C9.79093 9.0587 10.0137 9.17775 10.2561 9.22598C10.4986 9.27421 10.7499 9.24946 10.9784 9.15485C11.2068 9.06024 11.402 8.90003 11.5393 8.69446C11.6767 8.4889 11.75 8.24723 11.75 8C11.7497 7.66858 11.6179 7.35083 11.3835 7.11648C11.1492 6.88213 10.8314 6.75033 10.5 6.75Z"
    fill="#4A476F"
  />
<path
    d="M5.5 6.75C5.25277 6.75 5.0111 6.82331 4.80554 6.96066C4.59998 7.09801 4.43976 7.29324 4.34515 7.52165C4.25054 7.75005 4.22579 8.00139 4.27402 8.24386C4.32225 8.48634 4.4413 8.70907 4.61612 8.88388C4.79093 9.0587 5.01366 9.17775 5.25614 9.22598C5.49861 9.27421 5.74995 9.24946 5.97835 9.15485C6.20676 9.06024 6.40199 8.90002 6.53934 8.69446C6.67669 8.4889 6.75 8.24723 6.75 8C6.75 7.66848 6.6183 7.35054 6.38388 7.11612C6.14946 6.8817 5.83152 6.75 5.5 6.75Z"
    fill="#4A476F"
  />
<path
    d="M18 13H3C2.66873 12.9992 2.35127 12.8672 2.11703 12.633C1.88279 12.3987 1.75083 12.0813 1.75 11.75V4.25C1.75083 3.91873 1.88279 3.60127 2.11703 3.36703C2.35127 3.13279 2.66873 3.00083 3 3H18C18.3313 3.00083 18.6487 3.13279 18.883 3.36703C19.1172 3.60127 19.2492 3.91873 19.25 4.25V11.75C19.2495 12.0814 19.1176 12.399 18.8833 12.6333C18.649 12.8676 18.3314 12.9995 18 13V13ZM18 4.25H3V11.75H18V4.25Z"
    fill="#4A476F"
  />
</svg>
