<svg width="133" height="128" viewBox="0 0 133 128" fill="none" xmlns="http://www.w3.org/2000/svg">
<path d="M0 4C0 1.79086 1.79086 0 4 0H129C131.209 0 133 1.79086 133 4V124C133 126.209 131.209 128 129 128H4C1.79086 128 0 126.209 0 124V4Z" fill="#F9E1B8"/>
<path d="M66.5001 19.1992C51.8093 19.1992 39.9001 30.6607 39.9001 44.7992C39.9001 58.9377 51.8093 70.3992 66.5001 70.3992C81.1909 70.3992 93.1001 58.9377 93.1001 44.7992V29.4392C93.1001 25.8549 93.1001 24.0627 92.3753 22.6937C91.7377 21.4894 90.7204 20.5104 89.4691 19.8968C88.0466 19.1992 86.1844 19.1992 82.4601 19.1992H66.5001Z" fill="white"/>
<path d="M12.8967 79.611C9.9751 82.4228 9.9751 86.9483 9.9751 95.9992V127.999H123.025C123.025 116.096 123.025 110.144 121.666 105.261C117.976 92.009 107.221 81.6584 93.452 78.1077C88.378 76.7992 82.1937 76.7992 69.8251 76.7992H29.9251C20.5206 76.7992 15.8183 76.7992 12.8967 79.611Z" fill="white"/>
</svg>
