<svg width="48" height="48" viewBox="0 0 48 48" fill="none" xmlns="http://www.w3.org/2000/svg">
<path d="M0 6C0 2.68629 2.68629 0 6 0H42C45.3137 0 48 2.68629 48 6V42C48 45.3137 45.3137 48 42 48H6C2.68629 48 0 45.3137 0 42V6Z" fill="#CFBEFF"/>
<path d="M24.0001 7.19922C18.6982 7.19922 14.4001 11.4973 14.4001 16.7992C14.4001 22.1012 18.6982 26.3992 24.0001 26.3992C29.302 26.3992 33.6001 22.1012 33.6001 16.7992V11.0392C33.6001 9.69509 33.6001 9.02303 33.3385 8.50964C33.1084 8.05805 32.7413 7.6909 32.2897 7.4608C31.7763 7.19922 31.1042 7.19922 29.7601 7.19922H24.0001Z" fill="white"/>
<path d="M4.65451 29.8536C3.6001 30.908 3.6001 32.6051 3.6001 35.9992V47.9992H44.4001C44.4001 43.5354 44.4001 41.3034 43.9094 39.4722C42.5779 34.5029 38.6964 30.6214 33.7271 29.2899C31.8959 28.7992 29.664 28.7992 25.2001 28.7992H10.8001C7.40599 28.7992 5.70893 28.7992 4.65451 29.8536Z" fill="white"/>
</svg>
