<svg width="110" height="106" viewBox="0 0 110 106" fill="none" xmlns="http://www.w3.org/2000/svg">
<path d="M1 4.99999C1 2.79086 2.79086 1 5 1H105C107.209 1 109 2.79086 109 5V100.94C109 103.149 107.209 104.94 105 104.94H5C2.79086 104.94 1 103.149 1 100.94V4.99999Z" fill="#C3C1CF"/>
<path d="M55.0001 16.5898C43.0707 16.5898 33.4001 25.8969 33.4001 37.3778C33.4001 48.8587 43.0707 58.1658 55.0001 58.1658C66.9294 58.1658 76.6001 48.8587 76.6001 37.3778V24.905C76.6001 21.9944 76.6001 20.5391 76.0115 19.4275C75.4938 18.4496 74.6677 17.6545 73.6516 17.1563C72.4965 16.5898 70.9844 16.5898 67.9601 16.5898H55.0001Z" fill="white"/>
<path d="M11.4725 65.646C9.1001 67.9293 9.1001 71.6041 9.1001 78.9538V104.939H100.9C100.9 95.2726 100.9 90.4396 99.7961 86.4743C96.8002 75.7136 88.0668 67.3086 76.8858 64.4253C72.7656 63.3628 67.7438 63.3628 57.7001 63.3628H25.3001C17.6633 63.3628 13.845 63.3628 11.4725 65.646Z" fill="white"/>
<path d="M5 1.25H105V0.75H5V1.25ZM108.75 5V100.94H109.25V5H108.75ZM105 104.69H5V105.19H105V104.69ZM1.25 100.94V4.99999H0.75V100.94H1.25ZM5 104.69C2.92893 104.69 1.25 103.011 1.25 100.94H0.75C0.75 103.287 2.65279 105.19 5 105.19V104.69ZM108.75 100.94C108.75 103.011 107.071 104.69 105 104.69V105.19C107.347 105.19 109.25 103.287 109.25 100.94H108.75ZM105 1.25C107.071 1.25 108.75 2.92893 108.75 5H109.25C109.25 2.65279 107.347 0.75 105 0.75V1.25ZM5 0.75C2.65279 0.75 0.75 2.65278 0.75 4.99999H1.25C1.25 2.92893 2.92893 1.25 5 1.25V0.75Z" fill="#C3C1CF"/>
</svg>
