<svg width="40" height="40" viewBox="0 0 40 40" fill="none" xmlns="http://www.w3.org/2000/svg">
<path d="M0 4C0 1.79086 1.79086 0 4 0H36C38.2091 0 40 1.79086 40 4V36C40 38.2091 38.2091 40 36 40H4C1.79086 40 0 38.2091 0 36V4Z" fill="#F9E1B8"/>
<path d="M20 6C15.5817 6 12 9.58172 12 14C12 18.4183 15.5817 22 20 22C24.4183 22 28 18.4183 28 14V9.2C28 8.0799 28 7.51984 27.782 7.09202C27.5903 6.71569 27.2843 6.40973 26.908 6.21799C26.4802 6 25.9201 6 24.8 6H20Z" fill="white"/>
<path d="M3.87868 24.8787C3 25.7574 3 27.1716 3 30V40H37C37 36.2801 37 34.4202 36.5911 32.8942C35.4815 28.7531 32.2469 25.5185 28.1058 24.4089C26.5798 24 24.7199 24 21 24H9C6.17157 24 4.75736 24 3.87868 24.8787Z" fill="white"/>
</svg>
