<svg width="160" height="160" viewBox="0 0 160 160" fill="none" xmlns="http://www.w3.org/2000/svg">
<rect width="160" height="160" fill="#F9E1B8"/>
<path d="M48 56C48 38.3269 62.3269 24 80 24H99.2C103.68 24 105.921 24 107.632 24.8719C109.137 25.6389 110.361 26.8628 111.128 28.3681C112 30.0794 112 32.3196 112 36.8V56C112 73.6731 97.6731 88 80 88C62.3269 88 48 73.6731 48 56Z" fill="white"/>
<path d="M12 120C12 108.686 12 103.029 15.5147 99.5147C19.0294 96 24.6863 96 36 96H84C98.8795 96 106.319 96 112.423 97.6356C128.988 102.074 141.926 115.012 146.364 131.577C148 137.681 148 145.12 148 160H12V120Z" fill="white"/>
</svg>
