<svg width="17" height="16" viewBox="0 0 17 16" fill="none" xmlns="http://www.w3.org/2000/svg">
<path d="M8.72949 2C12.0295 2 14.7295 4.7 14.7295 8C14.7295 11.3 12.0295 14 8.72949 14C5.42949 14 2.72949 11.3 2.72949 8C2.72949 4.7 5.42949 2 8.72949 2ZM8.72949 1C4.87949 1 1.72949 4.15 1.72949 8C1.72949 11.85 4.87949 15 8.72949 15C12.5795 15 15.7295 11.85 15.7295 8C15.7295 4.15 12.5795 1 8.72949 1Z" fill="#6939FF"/>
<path d="M12.7295 7.9C12.7295 7.67909 12.5504 7.5 12.3295 7.5H9.22949V4.4C9.22949 4.17909 9.05041 4 8.82949 4H8.62949C8.40858 4 8.22949 4.17909 8.22949 4.4V7.5H5.12949C4.90858 7.5 4.72949 7.67909 4.72949 7.9V8.1C4.72949 8.32091 4.90858 8.5 5.12949 8.5H8.22949V11.6C8.22949 11.8209 8.40858 12 8.62949 12H8.82949C9.05041 12 9.22949 11.8209 9.22949 11.6V8.5H12.3295C12.5504 8.5 12.7295 8.32091 12.7295 8.1V7.9Z" fill="#6939FF"/>
</svg>
