<svg width="24" height="24" viewBox="0 0 24 24" fill="none" xmlns="http://www.w3.org/2000/svg">
<path d="M20.2499 12.5715V12.0015V11.424L21.6899 10.164C21.9554 9.93006 22.1296 9.6098 22.1817 9.25983C22.2339 8.90986 22.1606 8.55272 21.9749 8.25153L20.2049 5.25153C20.0734 5.02372 19.8843 4.83451 19.6566 4.70287C19.4288 4.57123 19.1705 4.5018 18.9074 4.50153C18.7444 4.50028 18.5823 4.52561 18.4274 4.57653L16.6049 5.19153C16.2903 4.98243 15.9621 4.79452 15.6224 4.62903L15.2399 2.73903C15.1714 2.39373 14.9835 2.08356 14.7093 1.8628C14.4351 1.64205 14.0919 1.52478 13.7399 1.53153H10.2299C9.87797 1.52478 9.53483 1.64205 9.2606 1.8628C8.98638 2.08356 8.79853 2.39373 8.72995 2.73903L8.34745 4.62903C8.0054 4.79448 7.67467 4.98239 7.35745 5.19153L5.57245 4.54653C5.41592 4.50574 5.25383 4.49055 5.09245 4.50153C4.8294 4.5018 4.57105 4.57123 4.34332 4.70287C4.11558 4.83451 3.92647 5.02372 3.79495 5.25153L2.02495 8.25153C1.84989 8.55227 1.78483 8.90452 1.84093 9.24795C1.89703 9.59138 2.07079 9.90462 2.33245 10.134L3.74995 11.4315V12.579L2.33245 13.839C2.0634 14.07 1.88489 14.3889 1.82859 14.739C1.7723 15.0891 1.84187 15.4478 2.02495 15.7515L3.79495 18.7515C3.92647 18.9793 4.11558 19.1685 4.34332 19.3002C4.57105 19.4318 4.8294 19.5013 5.09245 19.5015C5.25546 19.5028 5.41758 19.4774 5.57245 19.4265L7.39495 18.8115C7.7096 19.0206 8.03783 19.2085 8.37745 19.374L8.75995 21.264C8.82853 21.6093 9.01638 21.9195 9.2906 22.1402C9.56483 22.361 9.90797 22.4783 10.2599 22.4715H13.7999C14.1519 22.4783 14.4951 22.361 14.7693 22.1402C15.0435 21.9195 15.2314 21.6093 15.2999 21.264L15.6824 19.374C16.0245 19.2086 16.3552 19.0207 16.6724 18.8115L18.4874 19.4265C18.6423 19.4774 18.8044 19.5028 18.9674 19.5015C19.2305 19.5013 19.4888 19.4318 19.7166 19.3002C19.9443 19.1685 20.1334 18.9793 20.2649 18.7515L21.9749 15.7515C22.15 15.4508 22.2151 15.0985 22.159 14.7551C22.1029 14.4117 21.9291 14.0984 21.6674 13.869L20.2499 12.5715ZM18.9074 18.0015L16.3349 17.1315C15.7327 17.6416 15.0445 18.0403 14.3024 18.309L13.7699 21.0015H10.2299L9.69745 18.339C8.96126 18.0627 8.27673 17.6647 7.67245 17.1615L5.09245 18.0015L3.32245 15.0015L5.36245 13.2015C5.22377 12.4252 5.22377 11.6304 5.36245 10.854L3.32245 9.00153L5.09245 6.00153L7.66495 6.87153C8.26715 6.36144 8.9554 5.96272 9.69745 5.69403L10.2299 3.00153H13.7699L14.3024 5.66403C15.0386 5.94034 15.7232 6.33838 16.3274 6.84153L18.9074 6.00153L20.6774 9.00153L18.6374 10.8015C18.7761 11.5779 18.7761 12.3727 18.6374 13.149L20.6774 15.0015L18.9074 18.0015Z" fill="#4A476F"/>
<path d="M12 16.5C11.11 16.5 10.24 16.2361 9.49994 15.7416C8.75991 15.2471 8.18314 14.5443 7.84254 13.7221C7.50195 12.8998 7.41283 11.995 7.58647 11.1221C7.7601 10.2492 8.18869 9.44736 8.81802 8.81802C9.44736 8.18869 10.2492 7.7601 11.1221 7.58647C11.995 7.41283 12.8998 7.50195 13.7221 7.84254C14.5443 8.18314 15.2471 8.75991 15.7416 9.49994C16.2361 10.24 16.5 11.11 16.5 12C16.506 12.5926 16.3937 13.1805 16.1697 13.7292C15.9457 14.2779 15.6145 14.7763 15.1954 15.1954C14.7763 15.6145 14.2779 15.9457 13.7292 16.1697C13.1805 16.3937 12.5926 16.506 12 16.5V16.5ZM12 9C11.6035 8.99077 11.2093 9.06205 10.8411 9.20954C10.473 9.35704 10.1386 9.57768 9.85812 9.85812C9.57768 10.1386 9.35704 10.473 9.20954 10.8411C9.06205 11.2093 8.99077 11.6035 9 12C8.99077 12.3965 9.06205 12.7907 9.20954 13.1589C9.35704 13.527 9.57768 13.8615 9.85812 14.1419C10.1386 14.4223 10.473 14.643 10.8411 14.7905C11.2093 14.938 11.6035 15.0092 12 15C12.3965 15.0092 12.7907 14.938 13.1589 14.7905C13.527 14.643 13.8615 14.4223 14.1419 14.1419C14.4223 13.8615 14.643 13.527 14.7905 13.1589C14.938 12.7907 15.0092 12.3965 15 12C15.0092 11.6035 14.938 11.2093 14.7905 10.8411C14.643 10.473 14.4223 10.1386 14.1419 9.85812C13.8615 9.57768 13.527 9.35704 13.1589 9.20954C12.7907 9.06205 12.3965 8.99077 12 9Z" fill="#4A476F"/>
</svg>
