<svg width="24" height="16" viewBox="0 0 24 16" fill="none" xmlns="http://www.w3.org/2000/svg">
<path d="M21.2617 16H2.73833C1.22864 16 0 14.8369 0 13.4078V2.5922C0 1.16308 1.22864 0 2.73833 0H21.2617C22.7714 0 24 1.16308 24 2.5922V13.4078C24 14.8369 22.7714 16 21.2617 16ZM2.73833 0.852697C1.72587 0.852697 0.900766 1.63377 0.900766 2.5922V13.4078C0.900766 14.3662 1.72587 15.1473 2.73833 15.1473H21.2617C22.2741 15.1473 23.0992 14.3662 23.0992 13.4078V2.5922C23.0992 1.63377 22.2741 0.852697 21.2617 0.852697H2.73833Z" fill="#6A00FF"/>
<path d="M23.5494 11.3086H0.450195V12.1613H23.5494V11.3086Z" fill="#6A00FF"/>
<path d="M6.6118 7.97138H2.77094C2.371 7.97138 2.04492 7.66271 2.04492 7.28411V3.64821C2.04492 3.26961 2.371 2.96094 2.77094 2.96094H6.6118C7.01174 2.96094 7.33782 3.26961 7.33782 3.64821V7.28411C7.33782 7.66271 7.01174 7.97138 6.6118 7.97138ZM2.94569 7.11869H6.43705V3.81363H2.94569V7.11869Z" fill="#6A00FF"/>
</svg>
