<svg width="16" height="16" viewBox="0 0 16 16" fill="none" xmlns="http://www.w3.org/2000/svg">
<path d="M15 12.5L14.293 11.793L13 13.086V9H12V13.086L10.707 11.793L10 12.5L12.5 15L15 12.5Z" fill="#6939FF"/>
<path d="M9 14.0002H4V2.00017H8V5.00017C8.00079 5.26514 8.1064 5.51904 8.29377 5.7064C8.48113 5.89377 8.73503 5.99938 9 6.00017H12V7.50017H13V5.00017C13.0018 4.93446 12.9893 4.86914 12.9634 4.80872C12.9375 4.7483 12.8988 4.69421 12.85 4.65017L9.35 1.15017C9.30598 1.10134 9.25189 1.06265 9.19147 1.03675C9.13104 1.01085 9.06572 0.998372 9 1.00017H4C3.73503 1.00096 3.48113 1.10657 3.29377 1.29394C3.1064 1.4813 3.00079 1.7352 3 2.00017V14.0002C3.00079 14.2651 3.1064 14.519 3.29377 14.7064C3.48113 14.8938 3.73503 14.9994 4 15.0002H9V14.0002ZM9 2.20017L11.8 5.00017H9V2.20017Z" fill="#6939FF"/>
</svg>
