<svg width="24" height="24" viewBox="0 0 24 24" fill="none" xmlns="http://www.w3.org/2000/svg">
<path d="M19.275 6.97526L14.025 1.72526C13.959 1.65198 13.8779 1.59391 13.7872 1.55506C13.6966 1.51621 13.5986 1.49752 13.5 1.50026H6C5.60254 1.50145 5.2217 1.65987 4.94065 1.94092C4.6596 2.22196 4.50119 2.6028 4.5 3.00026V21.0003C4.50119 21.3977 4.6596 21.7786 4.94065 22.0596C5.2217 22.3407 5.60254 22.4991 6 22.5003H18C18.3975 22.4991 18.7783 22.3407 19.0593 22.0596C19.3404 21.7786 19.4988 21.3977 19.5 21.0003V7.50026C19.5027 7.40168 19.484 7.30368 19.4452 7.21303C19.4064 7.12239 19.3483 7.04126 19.275 6.97526ZM13.5 3.30026L17.7 7.50026H13.5V3.30026ZM18 21.0003H6V3.00026H12V7.50026C12.0012 7.89772 12.1596 8.27857 12.4407 8.55961C12.7217 8.84066 13.1025 8.99908 13.5 9.00026H18V21.0003Z" fill="#0E093F"/>
</svg>
