<svg width="48" height="48" viewBox="0 0 48 48" fill="none" xmlns="http://www.w3.org/2000/svg">
<g id="carbon:email">
<path id="Vector" d="M42 9.00024H6C5.20435 9.00024 4.44129 9.31631 3.87868 9.87892C3.31607 10.4415 3 11.2046 3 12.0002V36.0002C3 36.7959 3.31607 37.559 3.87868 38.1216C4.44129 38.6842 5.20435 39.0002 6 39.0002H42C42.7957 39.0002 43.5587 38.6842 44.1213 38.1216C44.6839 37.559 45 36.7959 45 36.0002V12.0002C45 11.2046 44.6839 10.4415 44.1213 9.87892C43.5587 9.31631 42.7957 9.00024 42 9.00024ZM38.7 12.0002L24 22.1702L9.3 12.0002H38.7ZM6 36.0002V13.3652L23.145 25.2302C23.3961 25.4044 23.6944 25.4978 24 25.4978C24.3056 25.4978 24.6039 25.4044 24.855 25.2302L42 13.3652V36.0002H6Z" fill="white"/>
</g>
</svg>
