<svg width="148" height="148" viewBox="0 0 148 148" fill="none" xmlns="http://www.w3.org/2000/svg">
<path opacity="0.57" d="M133.999 102.508V106.095C133.999 107.697 132.709 109.001 131.108 109.001H121.656L123.855 105.11L129.486 95.1387C132.161 96.4937 133.999 99.2836 133.999 102.508Z" fill="#F9E1B8"/>
<path opacity="0.57" d="M89.5663 106.021L94.2311 108.993H75.5C80.5036 109 85.2621 107.935 89.5663 106.021Z" fill="#E28813"/>
<path opacity="0.57" d="M129.487 95.1296L123.856 105.101L107.555 94.2528V94.2383H125.781C127.115 94.2455 128.369 94.5644 129.487 95.1296Z" fill="#F2AB55"/>
<path opacity="0.57" d="M123.855 105.108L123.718 105.348L123.192 106.282L121.743 108.84L121.656 108.992H99.7168L99.7312 108.775L99.8249 107.188L99.897 105.956L100.012 103.985L100.027 103.768L100.322 98.5577C101.635 97.2243 102.839 95.7751 103.92 94.2461H107.568V94.2606L122.42 104.145L123.322 104.746L123.855 105.108Z" fill="#E28813"/>
<path opacity="0.57" d="M73.0766 39.087C73.8769 39.029 74.6844 39 75.4991 39C94.7349 39 110.323 54.6666 110.323 73.9999C110.323 81.5434 107.95 88.5289 103.906 94.2463C102.824 95.7825 101.62 97.2245 100.308 98.5578C97.2511 101.681 93.6102 104.225 89.5655 106.022C85.2612 107.935 80.5027 108.993 75.4991 108.993C74.6844 108.993 73.8769 108.964 73.0766 108.906C54.9728 107.667 40.6758 92.5071 40.6758 73.9999C40.6758 55.4927 54.9728 40.3333 73.0766 39.087Z" fill="#F9E1B8"/>
<path opacity="0.57" d="M100.309 98.5586L99.7178 108.993H94.2312L89.5664 106.022C93.6111 104.232 97.2521 101.682 100.309 98.5586Z" fill="#F2AB55"/>
<path opacity="0.57" d="M42.2195 94.2463C39.1841 89.9492 37.0861 84.9347 36.2353 79.5072C35.9541 77.7101 35.8027 75.8695 35.8027 73.9999C35.8027 54.6666 51.3903 39 70.6261 39C71.448 39 72.27 39.029 73.0774 39.087C54.9736 40.3333 40.6766 55.4927 40.6766 73.9999C40.6766 92.5071 54.9736 107.667 73.0774 108.913C72.27 108.971 71.448 109 70.6261 109C70.1142 109 69.5951 108.985 69.0904 108.964C58.0017 108.478 48.2613 102.79 42.2339 94.2608C42.2267 94.2535 42.2195 94.2535 42.2195 94.2463Z" fill="#F2AB55"/>
<path opacity="0.57" d="M69.0907 108.964V109H17.0503C16.4591 109 15.9184 108.805 15.4786 108.479C14.8369 108 14.4115 107.232 14.4043 106.37V102.594C14.4043 101.812 14.5124 101.058 14.7143 100.341C14.7359 100.261 14.7576 100.181 14.7864 100.102C14.9883 99.4495 15.2695 98.8336 15.6155 98.2611C16.2861 97.1597 17.1945 96.2249 18.2832 95.5365C18.4995 95.3988 18.7158 95.2756 18.9465 95.1597C20.0784 94.58 21.3618 94.2539 22.7172 94.2539H28.6365V94.2684H42.2342C45.046 98.2394 48.6581 101.602 52.8398 104.102C53.7338 104.638 54.6494 105.131 55.5867 105.58C55.6011 105.587 55.6156 105.594 55.63 105.602C56.6394 106.087 57.6776 106.522 58.7374 106.913C61.989 108.094 65.4642 108.805 69.0907 108.964Z" fill="#F9E1B8"/>
<path opacity="0.57" d="M42.2194 94.2455H28.6289V84.9412C28.6289 81.9412 31.0514 79.5137 34.0363 79.5137H36.2352C36.3001 79.934 36.3722 80.3543 36.4588 80.7673C36.4876 80.9195 36.5164 81.0716 36.5525 81.2238C37.0644 83.6876 37.8358 86.0571 38.838 88.3035C39.2201 89.1658 39.6455 90.0136 40.0925 90.8397C40.7342 92.0136 41.4479 93.1513 42.2194 94.2455Z" fill="#E28813"/>
<g opacity="0.57">
<path opacity="0.57" d="M23.9276 100.19L25.831 97.9868C26.5447 97.1607 26.4582 95.9071 25.6363 95.1897L24.4611 94.168L23.3868 95.4433L24.7855 96.6607L22.6875 99.1535L23.9276 100.19Z" fill="#F7C992"/>
<path opacity="0.57" d="M28.665 93.8848L26.7616 96.0152C26.0334 96.834 26.0983 98.0877 26.913 98.8195L28.0738 99.863L29.1624 98.6021L27.7854 97.363L29.8834 94.9427L28.665 93.8848Z" fill="#F7C992"/>
<path opacity="0.57" d="M32.9321 109.002L32.9609 106.813L31.1152 106.77L31.1297 105.096L32.687 105.132C33.3358 105.146 33.9126 105.48 34.2587 105.98C34.3236 106.074 34.3813 106.175 34.4317 106.277C34.5543 106.545 34.6264 106.849 34.6192 107.168L34.5759 109.002H32.9321Z" fill="#F7C992"/>
<path opacity="0.57" d="M34.1945 102.195L34.0719 105.058C34.0286 106.152 34.8722 107.079 35.9609 107.123L37.5182 107.188L37.5614 105.521L35.7157 105.442L35.8095 102.232L34.1945 102.195Z" fill="#F7C992"/>
<path opacity="0.57" d="M23.7903 109H21.923L21.3822 108.022L19.7528 108.899L18.9453 107.435L20.3152 106.696C20.892 106.384 21.5481 106.391 22.096 106.652C22.1969 106.703 22.2979 106.761 22.3916 106.826C22.6295 107 22.8386 107.225 22.9828 107.5L23.7903 109Z" fill="#F7C992"/>
<path opacity="0.57" d="M20.1787 103.4L21.4837 105.95C21.9812 106.921 23.178 107.305 24.1441 106.805L25.5284 106.088L24.7425 104.617L23.0987 105.472L21.599 102.639L20.1787 103.4Z" fill="#F7C992"/>
<path opacity="0.57" d="M14.2956 99.9426C14.1947 99.8921 14.0937 99.8344 14 99.7695C14.1081 99.82 14.2019 99.8777 14.2956 99.9426Z" fill="#F7C992"/>
<path opacity="0.57" d="M16.2713 103.195L14.8654 103.993L14.4111 103.174V102.601C14.4111 101.819 14.5193 101.065 14.7212 100.348C14.786 100.435 14.8509 100.529 14.9014 100.63L16.2713 103.195Z" fill="#F7C992"/>
<path opacity="0.57" d="M14 99.7695C14.1009 99.82 14.2019 99.8777 14.2956 99.9426C14.1947 99.8921 14.0937 99.8344 14 99.7695Z" fill="#F7C992"/>
<path opacity="0.57" d="M17.4325 99.1956L16.0482 99.913C15.6445 100.123 15.1975 100.181 14.7793 100.101C14.9812 99.4492 15.2624 98.8333 15.6084 98.2608L16.6394 97.7246L17.4325 99.1956Z" fill="#F7C992"/>
<path opacity="0.57" d="M45.2831 104.565L43.906 101.993C43.3869 101.029 42.1901 100.667 41.2312 101.181L39.8613 101.92L40.6688 103.384L42.2982 102.507L43.87 105.362L45.2831 104.565Z" fill="#F7C992"/>
<path opacity="0.57" d="M41.1016 97.8859L42.4065 100.437C42.904 101.408 44.1008 101.792 45.067 101.292L46.4512 100.574L45.6654 99.1033L44.0215 99.9583L42.5219 97.125L41.1016 97.8859Z" fill="#F7C992"/>
<path opacity="0.57" d="M47.6547 106.436L49.0174 109.001H47.1572L46.2344 107.211L47.6547 106.436Z" fill="#F7C992"/>
<path opacity="0.57" d="M51.1164 109.002H49.6816L50.8064 108.422L51.1164 109.002Z" fill="#F7C992"/>
<path opacity="0.57" d="M53.43 109L54.1871 106.203L52.4062 105.696L52.8316 104.095V104.08L54.3313 104.508C54.9081 104.674 55.3479 105.073 55.5786 105.58C55.6002 105.631 55.6218 105.674 55.6363 105.725C55.6795 105.834 55.7084 105.942 55.73 106.051C55.7877 106.341 55.7733 106.653 55.6867 106.957L55.1099 109H53.43Z" fill="#F7C992"/>
<path opacity="0.57" d="M58.7367 106.906L58.506 107.71L57.0136 107.261C56.4007 107.073 55.9465 106.616 55.7374 106.058C55.7014 105.949 55.6653 105.841 55.6437 105.732C55.6365 105.689 55.6293 105.645 55.6221 105.602C56.6387 106.08 57.6769 106.522 58.7367 106.906Z" fill="#F7C992"/>
<path opacity="0.57" d="M36.7895 94.2617C36.7029 94.4646 36.5804 94.6458 36.429 94.8124C36.3497 94.8994 36.2703 94.9719 36.1766 95.0371C35.9387 95.2182 35.6575 95.3487 35.3475 95.4066L32.4924 95.9429L32.168 94.3559L32.6294 94.2617H36.7895Z" fill="#F7C992"/>
<path opacity="0.57" d="M40.1567 94.2617L40.4018 95.5516L37.2584 96.1313L37.5684 97.9646L35.9318 98.269L35.665 96.7255C35.5569 96.0878 35.7659 95.4719 36.1697 95.0371C36.249 94.9574 36.3283 94.8777 36.422 94.8124C36.6672 94.624 36.9556 94.4936 37.28 94.4429L38.311 94.269H40.1567V94.2617Z" fill="#F7C992"/>
<path opacity="0.57" d="M15.6444 106.473L15.4786 108.48C14.8369 108.002 14.4115 107.233 14.4043 106.371L15.6444 106.473Z" fill="#F7C992"/>
<path opacity="0.57" d="M18.9465 95.5152L18.2832 95.537C18.4995 95.3993 18.7158 95.2761 18.9465 95.1602V95.5152Z" fill="#F7C992"/>
</g>
<g opacity="0.57">
<path opacity="0.57" d="M102.277 101.811L103.474 100.427C103.921 99.9055 103.87 99.1157 103.351 98.6664L102.608 98.0215L101.938 98.8258L102.817 99.5939L101.498 101.159L102.277 101.811Z" fill="#F2AB55"/>
<path opacity="0.57" d="M105.247 97.8477L104.05 99.1882C103.589 99.7027 103.632 100.493 104.144 100.949L104.872 101.609L105.557 100.819L104.692 100.036L106.011 98.5143L105.247 97.8477Z" fill="#F2AB55"/>
<path opacity="0.57" d="M106.365 94.0508C106.358 94.116 106.35 94.1812 106.336 94.2464C106.336 94.2464 106.336 94.2537 106.336 94.2609C106.293 94.4421 106.199 94.616 106.069 94.7682L104.872 96.1522L104.094 95.5001L105.139 94.2537H106.336C106.336 94.1812 106.343 94.116 106.365 94.0508Z" fill="#F2AB55"/>
<path opacity="0.57" d="M108.152 95.1517L107.467 95.9415L106.739 95.2821C106.436 95.014 106.299 94.6299 106.328 94.2531C106.328 94.2459 106.328 94.2459 106.328 94.2386C106.335 94.1734 106.342 94.1082 106.364 94.043C106.357 94.1082 106.35 94.1734 106.335 94.2386H107.402L107.294 94.3618L108.152 95.1517Z" fill="#F2AB55"/>
<path opacity="0.57" d="M108.938 108.021L108.981 106.188C108.996 105.499 108.455 104.927 107.77 104.912L106.789 104.891L106.782 105.941L107.943 105.97L107.921 108.021H108.938Z" fill="#F2AB55"/>
<path opacity="0.57" d="M108.722 103.064L108.643 104.862C108.614 105.55 109.147 106.13 109.832 106.159L110.813 106.195L110.842 105.144L109.681 105.093L109.739 103.079L108.722 103.064Z" fill="#F2AB55"/>
<path opacity="0.57" d="M99.8891 105.964L100.004 105.899C100.365 105.703 100.783 105.71 101.129 105.877C101.187 105.906 101.252 105.942 101.302 105.978C101.454 106.087 101.591 106.232 101.684 106.406L102.55 108.022L101.663 108.522L100.675 106.725L99.8242 107.189L99.8891 105.964Z" fill="#F2AB55"/>
<path opacity="0.57" d="M99.918 103.825L100.74 105.427C101.057 106.035 101.8 106.282 102.413 105.963L103.285 105.514L102.795 104.586L101.764 105.122L100.819 103.34L99.918 103.825Z" fill="#F2AB55"/>
<path opacity="0.57" d="M112.161 109.001H111.001L110.82 108.646L111.714 108.16L112.161 109.001Z" fill="#F2AB55"/>
<path opacity="0.57" d="M115.693 104.558L114.828 102.942C114.504 102.333 113.754 102.109 113.148 102.435L112.283 102.898L112.788 103.819L113.812 103.268L114.799 105.065L115.693 104.558Z" fill="#F2AB55"/>
<path opacity="0.57" d="M113.062 100.355L113.884 101.956C114.202 102.565 114.944 102.811 115.557 102.492L116.429 102.043L115.939 101.116L114.908 101.652L113.964 99.8691L113.062 100.355Z" fill="#F2AB55"/>
<path opacity="0.57" d="M117.049 108.999H118.167L118.059 108.803C117.965 108.622 117.828 108.477 117.677 108.368C117.619 108.332 117.561 108.296 117.504 108.267C117.158 108.1 116.739 108.1 116.379 108.289L115.514 108.752L115.643 108.992H117.049V108.999Z" fill="#F2AB55"/>
<path opacity="0.57" d="M116.292 106.218L117.114 107.819C117.431 108.428 118.174 108.674 118.787 108.356L119.659 107.906L119.169 106.979L118.138 107.515L117.193 105.732L116.292 106.218Z" fill="#F2AB55"/>
<path opacity="0.57" d="M121.743 107.826L122.24 106.058C122.428 105.398 122.046 104.703 121.389 104.514L120.445 104.246L120.171 105.261L121.288 105.579L120.755 107.558L121.743 107.826Z" fill="#F2AB55"/>
<path opacity="0.57" d="M123.719 105.347L123.185 105.188L123.315 104.746L122.414 104.145L122.248 104.695C122.19 104.891 122.183 105.094 122.212 105.282C122.226 105.355 122.241 105.42 122.269 105.485C122.399 105.84 122.688 106.123 123.07 106.246L123.185 106.282L123.719 105.347Z" fill="#F2AB55"/>
<path opacity="0.57" d="M121.455 108.76L121.743 108.847L121.657 108.999H121.383L121.455 108.76Z" fill="#F2AB55"/>
<path opacity="0.57" d="M107.655 99.1378L109.45 98.7972C110.121 98.6668 110.568 98.0219 110.438 97.3407L110.258 96.377L109.234 96.5871L109.45 97.732L107.453 98.1378L107.655 99.1378Z" fill="#F2AB55"/>
<path opacity="0.57" d="M112.435 97.8906L110.668 98.195C109.991 98.3109 109.536 98.9558 109.652 99.637L109.818 100.608L110.841 100.412L110.647 99.2602L112.622 98.8979L112.435 97.8906Z" fill="#F2AB55"/>
<path opacity="0.57" d="M106.731 109H106.393L106.421 108.906L106.731 109Z" fill="#F2AB55"/>
<path opacity="0.57" d="M99.7312 108.775L99.8466 109H99.7168L99.7312 108.775Z" fill="#F2AB55"/>
</g>
<g opacity="0.57">
<path opacity="0.57" d="M32.4714 84.7608L33.834 83.1811C34.3459 82.5869 34.2811 81.6883 33.6971 81.1811L32.8535 80.4492L32.0893 81.3623L33.0914 82.2318L31.5918 84.0144L32.4714 84.7608Z" fill="#F9E1B8"/>
<path opacity="0.57" d="M35.8609 80.2461L34.4983 81.7751C33.9791 82.362 34.0224 83.2533 34.6064 83.7823L35.4355 84.5287L36.2142 83.6301L35.2264 82.7461L36.7333 81.0142L35.8609 80.2461Z" fill="#F9E1B8"/>
<path opacity="0.57" d="M40.0927 90.8328L40.0711 91.8328L38.9175 91.8255L38.9463 89.4922L37.627 89.4632L37.6414 88.2676L38.7589 88.2966C38.7877 88.2966 38.8238 88.2966 38.8526 88.3038C39.2203 89.1661 39.6385 90.0067 40.0927 90.8328Z" fill="#F9E1B8"/>
<path opacity="0.57" d="M32.7887 91.8402L31.8081 89.9996C31.4404 89.3112 30.5825 89.0504 29.8975 89.4199L28.917 89.9489L29.4938 90.9924L30.6618 90.3619L31.7865 92.4054L32.7887 91.8402Z" fill="#F9E1B8"/>
<path opacity="0.57" d="M29.7891 87.0585L30.7263 88.8846C31.0868 89.5802 31.9376 89.8556 32.6297 89.4932L33.6175 88.9788L33.0551 87.9281L31.8799 88.5367L30.8056 86.5078L29.7891 87.0585Z" fill="#F9E1B8"/>
<path opacity="0.57" d="M38.3404 93.1877L38.0087 94.2456H34.375L34.6129 93.434L36.7975 94.108L37.2012 92.8398L38.3404 93.1877Z" fill="#F9E1B8"/>
<path opacity="0.57" d="M29.4004 92.3613L30.4025 94.2454H29.0687L28.6289 93.3976L28.3838 92.9121L28.6289 92.7816L29.4004 92.3613Z" fill="#F9E1B8"/>
<path opacity="0.57" d="M31.9022 94.247H30.7559L31.6499 93.7832L31.9022 94.247Z" fill="#F9E1B8"/>
</g>
<path opacity="0.57" d="M87.8214 82.8764C87.8214 87.9127 84.1228 91.4416 79.2778 92.688V96.9634H71.7292V92.8329C67.7638 92.0431 64.4833 89.9416 63.1855 87.0793L68.5208 81.8185C69.8979 83.8692 72.479 85.1083 75.2548 85.1083C77.1293 85.1083 78.9606 84.4272 78.9606 83.0576C78.9606 81.3402 75.5648 79.8257 72.3059 78.3764C68.1026 76.5576 64.4977 73.7823 64.4977 68.7533C64.4977 64.362 67.6484 60.9272 71.931 59.5359V53.9707H79.4797V59.2026C82.962 59.9779 85.572 61.9924 86.5814 64.5504L81.4912 69.4779C80.5035 67.717 77.9512 66.9489 76.3651 66.9489C74.5554 66.9489 73.2576 67.8765 73.2576 69.0214C73.2576 70.5504 75.608 71.0504 79.1913 72.5649C84.3752 74.7533 87.8214 77.9489 87.8214 82.8764Z" fill="#E28813"/>
<path d="M102.744 64.5119C104.504 64.5119 105.93 63.0856 105.93 61.3263C105.93 59.5669 104.504 58.1406 102.744 58.1406C100.985 58.1406 99.5586 59.5669 99.5586 61.3263C99.5586 63.0856 100.985 64.5119 102.744 64.5119Z" fill="#CFBEFF"/>
<path d="M102.744 54.219C100.923 54.219 99.4512 52.7473 99.4512 50.9256V35.805C99.4512 33.9834 100.923 32.5117 102.744 32.5117C104.566 32.5117 106.038 33.9834 106.038 35.805V50.9167C106.038 52.7383 104.566 54.219 102.744 54.219Z" fill="#CFBEFF"/>
</svg>
