<svg width="148" height="148" viewBox="0 0 148 148" fill="none" xmlns="http://www.w3.org/2000/svg">
<path d="M0 32C0 16.9151 0 9.37258 4.68629 4.68629C9.37258 0 16.9151 0 32 0H116C131.085 0 138.627 0 143.314 4.68629C148 9.37258 148 16.9151 148 32V116C148 131.085 148 138.627 143.314 143.314C138.627 148 131.085 148 116 148H32C16.9151 148 9.37258 148 4.68629 143.314C0 138.627 0 131.085 0 116V32Z" fill="#F5F9E4"/>
<path d="M80.6397 32.7764L92.0075 43.1077H54.6533L65.8175 32.824C69.8826 29.0786 76.5417 29.0548 80.6397 32.7764Z" fill="#5C6303"/>
<path d="M103.697 64.7314H98.0755H55.2574H42.7075V52.1255V41.1094H54.6532H92.0074H103.697V51.7325V64.7314Z" fill="#A2C60C"/>
<path d="M103.697 66.7314H98.0755H55.2574H42.7075V54.1255V43.1094H54.6532H92.0074H103.697V53.7325V66.7314Z" fill="white"/>
<path d="M103.697 53.7305L117.994 66.7294H103.697V53.7305Z" fill="#5C6303"/>
<path d="M117.994 66.7305V112.724C117.994 114.26 117.271 115.648 116.109 116.612C116.056 116.654 116.01 116.696 115.958 116.732L113.613 115.046L106.639 110.039L105.293 109.074L104.761 108.693L102.909 107.365L100.781 105.835L95.8491 102.298L94.4372 101.279L91.6921 99.3083L89.5578 97.772L83.181 93.1929L82.9118 92.9964L80.8365 91.5077L81.664 90.9539L83.6736 89.6142L96.3482 81.1586L97.8324 80.1701L102.975 76.7402L107.237 73.8999L109.292 72.5303L117.994 66.7305Z" fill="#DCF995"/>
<path d="M117.994 66.7305L102.982 76.7462L98.0759 66.7305H103.697H117.994Z" fill="#A2C60C"/>
<path d="M105.299 109.074L115.964 116.732C114.946 117.524 113.62 118 112.175 118H90.858L105.299 109.074Z" fill="#BEEA34"/>
<path d="M105.299 109.074L102.712 110.67L102.488 110.807L101.076 111.683L99.6381 112.576L93.3533 116.458L92.2172 117.161L90.8577 118H63.6499L63.6762 117.953L67.9383 111.427L68.3651 110.772L69.8822 108.437L69.9478 108.342L71.3598 106.175L72.1741 104.93L73.6583 102.649L75.2935 100.148L76.0159 100.22L76.075 100.226L77.6314 100.387L83.9688 101.036L85.407 101.185L88.5592 101.506L90.1879 101.673L95.7831 102.244L100.761 105.817L101.93 106.657L102.705 107.217L103.237 107.592L105.299 109.074Z" fill="#5C6303"/>
<path d="M98.0757 66.7305L102.981 76.7463L97.7605 80.2297L52.6373 73.2151L55.2576 66.7305H98.0757Z" fill="#DCF995"/>
<path d="M97.7598 80.2275L80.8361 91.5116L79.1549 90.3028C76.1209 88.1234 71.8456 88.0996 68.7788 90.2313L66.5722 91.7676L49.7799 80.2692L52.6301 73.207L97.7598 80.2275Z" fill="#BEEA34"/>
<path d="M80.837 91.514L95.7839 102.244L75.2943 100.148L57.2148 98.2963L66.5796 91.776L68.7862 90.2397C71.8531 88.1019 76.1283 88.1317 79.1624 90.3111L80.837 91.514Z" fill="#A2C60C"/>
<path d="M75.2942 100.149L63.6506 118.001H45.5514C41.3222 118.001 37.4869 116.47 34.6827 113.987L57.2147 98.2969L75.2942 100.149Z" fill="#BEEA34"/>
<path d="M66.579 91.7757L64.9504 92.913L64.9438 92.919L62.0608 94.9317L58.3503 97.516L55.7169 99.35L54.8303 99.9633L52.8339 101.351L43.364 107.949L41.407 109.312L36.5145 112.718L34.6888 113.987C34.4524 113.778 34.2291 113.564 34.0124 113.343C32.4231 111.748 31.2344 109.818 30.5777 107.686C30.3347 106.895 30.164 106.073 30.0786 105.233C30.0326 104.798 30.0129 104.352 30.0129 103.905V66.7305L30.7091 67.2068L49.7933 80.2773L65.0292 90.7158L66.579 91.7757Z" fill="#DCF995"/>
<path d="M55.2574 66.7305L52.6371 73.2151L49.7869 80.2773L30 66.7305H42.7075H55.2574Z" fill="#A2C60C"/>
<path d="M42.7075 66.731H30L42.7075 54.125V66.731Z" fill="#5C6303"/>
<path d="M76.01 100.399C76.0035 100.482 75.9903 100.571 75.9641 100.655C75.905 100.875 75.7867 101.077 75.616 101.262L74.0201 102.923L73.6589 102.649L75.2876 100.148L76.01 100.226C76.0166 100.279 76.0166 100.339 76.01 100.399Z" fill="#A2C60C"/>
<path d="M77.6319 100.385L77.2444 100.79L78.3937 101.725L77.4809 102.672L76.5089 101.886C76.1083 101.564 75.9244 101.1 75.9638 100.653C75.9704 100.57 75.9835 100.487 76.0098 100.403C76.0295 100.344 76.0492 100.29 76.0689 100.23L77.6319 100.385Z" fill="#A2C60C"/>
<path d="M82.8857 110.379L82.9448 108.175C82.9645 107.348 82.2487 106.663 81.3359 106.639L80.0356 106.609L80.0225 107.872L81.5657 107.907L81.5329 110.367L82.8857 110.379Z" fill="#A2C60C"/>
<path d="M82.5971 104.43L82.4986 106.591C82.4592 107.419 83.1685 108.116 84.0813 108.151L85.3817 108.199L85.4211 106.943L83.8778 106.883L83.95 104.465L82.5971 104.43Z" fill="#A2C60C"/>
<path d="M74.3876 110.379L73.2383 108.437C72.8049 107.711 71.8067 107.437 71.0055 107.824L69.8562 108.384L70.5326 109.485L71.892 108.824L73.2055 110.974L74.3876 110.379Z" fill="#A2C60C"/>
<path d="M70.887 105.341L71.9771 107.265C72.3974 107.997 73.3891 108.289 74.2034 107.908L75.3593 107.366L74.7025 106.252L73.33 106.895L72.0756 104.758L70.887 105.341Z" fill="#A2C60C"/>
<path d="M88.8815 116.16L87.7322 114.219C87.2988 113.492 86.3006 113.218 85.4994 113.605L84.3501 114.165L85.0265 115.267L86.3859 114.606L87.6994 116.755L88.8815 116.16Z" fill="#A2C60C"/>
<path d="M85.3876 111.115L86.4777 113.038C86.898 113.771 87.8897 114.062 88.704 113.681L89.8598 113.139L89.2031 112.026L87.8306 112.669L86.5762 110.531L85.3876 111.115Z" fill="#A2C60C"/>
<path d="M91.8696 106.222L90.7204 104.281C90.2869 103.555 89.2887 103.281 88.4875 103.668L87.3383 104.228L88.0147 105.329L89.3741 104.668L90.6875 106.818L91.8696 106.222Z" fill="#A2C60C"/>
<path d="M90.1882 101.675L90.8121 102.734L92.1846 102.091L92.8414 103.205L91.6855 103.747C91.2127 103.967 90.6742 103.961 90.221 103.771C90.1357 103.735 90.0503 103.687 89.9715 103.64C89.7613 103.503 89.584 103.324 89.4593 103.104L88.553 101.508L90.1882 101.675Z" fill="#A2C60C"/>
<path d="M96.1642 113.254L95.0149 111.312C94.5815 110.586 93.5833 110.312 92.7821 110.699L91.6328 111.259L92.3092 112.36L93.6686 111.699L94.9821 113.849L96.1642 113.254Z" fill="#A2C60C"/>
<path d="M92.6641 108.212L93.7542 110.136C94.1745 110.868 95.1662 111.16 95.9805 110.779L97.1363 110.237L96.4796 109.124L95.1071 109.767L93.8527 107.629L92.6641 108.212Z" fill="#A2C60C"/>
<path d="M99.9079 110.141L100.571 108.021C100.821 107.229 100.315 106.395 99.4351 106.169L98.1808 105.848L97.8196 107.062L99.3038 107.444L98.5945 109.819L99.9079 110.141Z" fill="#A2C60C"/>
<path d="M101.931 106.658L101.832 106.973L102.712 107.218L103.31 107.384L103.244 107.599L102.929 108.593L101.681 108.254C101.169 108.117 100.788 107.771 100.611 107.349C100.578 107.265 100.552 107.182 100.532 107.093C100.486 106.866 100.499 106.622 100.578 106.39L100.768 105.824L101.931 106.658Z" fill="#A2C60C"/>
<path d="M99.5271 111.258L101.077 111.681L99.6388 112.574L99.1462 112.431L99.5271 111.258Z" fill="#A2C60C"/>
<path d="M102.712 110.671L102.489 110.808L102.555 110.629L102.712 110.671Z" fill="#A2C60C"/>
<path d="M93.3544 116.458L92.2182 117.161L91.6929 116.238L92.8815 115.66L93.3544 116.458Z" fill="#A2C60C"/>
<path d="M85.4206 101.244L84.0546 101.47L83.9692 101.035L85.4074 101.184L85.4206 101.244Z" fill="#A2C60C"/>
<path d="M82.5374 114.561L80.2126 113.923C79.3391 113.685 78.4197 114.132 78.157 114.924L77.7827 116.055L79.1224 116.4L79.569 115.061L82.1762 115.74L82.5374 114.561Z" fill="#A2C60C"/>
<path d="M76.135 113.236L78.4073 113.897C79.2741 114.147 80.2067 113.712 80.4825 112.926L80.8765 111.801L79.5499 111.438L79.0837 112.771L76.529 112.069L76.135 113.236Z" fill="#A2C60C"/>
<path d="M72.7395 116.555L71.5902 114.613C71.1568 113.887 70.1586 113.613 69.3574 114L68.2081 114.56L68.8845 115.661L70.244 115L71.5574 117.15L72.7395 116.555Z" fill="#A2C60C"/>
<path d="M69.2454 111.517L70.3355 113.441C70.7558 114.173 71.7475 114.465 72.5618 114.084L73.7176 113.542L73.0609 112.428L71.6884 113.071L70.434 110.934L69.2454 111.517Z" fill="#A2C60C"/>
<path d="M68.3663 110.773L68.3005 111.458L67.9387 111.428L68.3663 110.773Z" fill="#A2C60C"/>
<path d="M84.8096 117.77V118.003H83.4174V117.781L84.8096 117.77Z" fill="#A2C60C"/>
<path d="M67.1179 116.523L67.1113 117.703C67.1113 117.804 67.0982 117.905 67.0785 118H63.6504L63.6832 117.953L65.7256 117.935L65.7322 116.535L67.1179 116.523Z" fill="#A2C60C"/>
<path d="M30.7027 67.2068L30 67.9333V66.7305L30.7027 67.2068Z" fill="#BEEA34"/>
<path d="M31.1558 70.5638L30 71.7666V69.6289L31.1558 70.5638Z" fill="#BEEA34"/>
<path d="M33.1588 94.3958L33.0472 98.3556L30.6173 98.3437L30.6764 93.9194L30 93.9015V91.6328L30.2627 91.6388C31.2412 91.6626 32.1015 92.1092 32.6203 92.788C32.7188 92.9131 32.8042 93.05 32.8764 93.1929C33.0735 93.5562 33.172 93.967 33.1588 94.3958Z" fill="#BEEA34"/>
<path d="M32.5349 87.6562L32.3511 91.5446C32.2854 93.0333 33.5594 94.2838 35.1947 94.3493L37.5326 94.4326L37.5982 92.1639L34.8203 92.0627L34.9582 87.7098L32.5349 87.6562Z" fill="#BEEA34"/>
<path d="M43.8441 108.757L41.7754 105.267C41.0005 103.957 39.2011 103.463 37.7563 104.171L35.6942 105.178L36.9091 107.161L39.3587 105.97L41.7229 109.84L43.8441 108.757Z" fill="#BEEA34"/>
<path d="M37.5459 99.6886L39.5095 103.148C40.2647 104.47 42.051 104.988 43.5089 104.304L45.5907 103.327L44.4086 101.326L41.9393 102.481L39.6802 98.6406L37.5459 99.6886Z" fill="#BEEA34"/>
<path d="M49.2162 90.8698L47.1475 87.3804C46.3726 86.0703 44.5732 85.5761 43.1284 86.2847L41.0663 87.291L42.2812 89.274L44.7308 88.083L47.095 91.9536L49.2162 90.8698Z" fill="#BEEA34"/>
<path d="M42.9175 81.8019L44.8811 85.2616C45.6363 86.5835 47.4226 87.1016 48.8805 86.4168L50.9623 85.4402L49.7802 83.4395L47.3109 84.5946L45.0518 80.7539L42.9175 81.8019Z" fill="#BEEA34"/>
<path d="M54.8238 99.9578L52.8274 101.345L52.4531 100.732L50.0035 101.923L48.7886 99.9399L50.8507 98.9336C51.7175 98.5108 52.7092 98.5228 53.5301 98.8741C53.6811 98.9396 53.8322 99.017 53.9701 99.1063C54.3116 99.3326 54.6071 99.6124 54.8238 99.9578Z" fill="#BEEA34"/>
<path d="M55.7106 99.3448C55.113 99.4282 54.5088 99.3448 53.9769 99.1185C53.8259 99.053 53.6748 98.9756 53.5369 98.8863C53.1626 98.6481 52.8408 98.3206 52.6109 97.9217L50.6473 94.4621L52.7817 93.4141L55.0408 97.2548L57.51 96.0996L58.3441 97.5108L55.7106 99.3448Z" fill="#BEEA34"/>
<path d="M62.0546 94.9271L62.5997 93.093L59.9269 92.4023L60.577 90.2109L62.8296 90.7885C63.7753 91.0327 64.4845 91.6639 64.7997 92.444C64.8588 92.5869 64.9048 92.7358 64.9376 92.8846C64.9376 92.8965 64.9442 92.9025 64.9442 92.9144L62.0546 94.9271Z" fill="#BEEA34"/>
<path d="M66.5794 91.7766L64.9507 92.914C64.9442 92.908 64.9442 92.8961 64.9376 92.8901C64.8785 92.7472 64.8325 92.6043 64.8063 92.4495C64.7209 92.0386 64.7406 91.6039 64.8851 91.1752L65.0361 90.7227L66.5794 91.7766Z" fill="#BEEA34"/>
<path d="M30 76.9246L34.2621 76.1445L33.7499 73.6674L36.1994 73.2148L36.6329 75.299C36.8167 76.1743 36.5081 77.0258 35.8842 77.6332C35.766 77.7463 35.6412 77.8535 35.5033 77.9487C35.1487 78.1929 34.7284 78.3656 34.2621 78.443L30 79.1694V76.9246Z" fill="#BEEA34"/>
<path d="M41.4074 76.4766L37.1781 77.1256C35.5626 77.3757 34.4724 78.7691 34.7482 80.2339L35.1488 82.324L37.605 81.9072L37.1387 79.4241L41.8605 78.6321L41.4074 76.4766Z" fill="#BEEA34"/>
<path d="M32.4173 105.877L31.7606 107.997L30.5654 107.688C30.3224 106.896 30.1517 106.074 30.0663 105.234L32.4173 105.877Z" fill="#BEEA34"/>
<path d="M36.5081 111.652V112.712L34.6824 113.981C34.446 113.772 34.2227 113.558 34.006 113.338L34.0125 111.67L36.5081 111.652Z" fill="#BEEA34"/>
<path d="M100.288 83.5658C100.275 83.7207 100.248 83.8755 100.202 84.0243C100.091 84.4114 99.8806 84.7865 99.5719 85.114L96.7086 88.1033L94.8435 86.692L97.9958 83.3098L95.8943 81.6603L96.3474 81.1721L97.8316 80.1836L99.2764 81.3209C100.018 81.8985 100.36 82.7381 100.288 83.5658Z" fill="#BEEA34"/>
<path d="M103.821 79.5469L100.951 82.4408C99.8543 83.5483 99.9594 85.2514 101.174 86.2458L102.921 87.663L104.563 85.954L102.494 84.2688L105.653 80.9879L103.821 79.5469Z" fill="#BEEA34"/>
<path d="M110.762 73.7281L109.12 75.4371L107.374 74.0199C107.328 73.9782 107.282 73.9425 107.236 73.9008L109.291 72.5312L110.762 73.7281Z" fill="#BEEA34"/>
<path d="M112.661 101.524L112.772 97.5645C112.812 96.0759 111.518 94.8432 109.876 94.8075L107.532 94.7539L107.505 97.0227L110.283 97.0822L110.224 101.507L112.661 101.524Z" fill="#BEEA34"/>
<path d="M112.141 90.8164L111.958 94.7048C111.892 96.1935 113.166 97.4439 114.801 97.5094L117.139 97.5928L117.205 95.3241L114.427 95.2228L114.565 90.87L112.141 90.8164Z" fill="#BEEA34"/>
<path d="M97.3594 101.525L95.849 102.293L94.437 101.275L92.8806 98.7264L91.692 99.304L89.5576 97.7677L91.2782 96.9281C92.1451 96.5053 93.1367 96.5113 93.9576 96.8686C94.1152 96.9341 94.2597 97.0115 94.4042 97.1068C94.7654 97.339 95.0741 97.6486 95.2973 98.0297L97.3594 101.525Z" fill="#BEEA34"/>
<path d="M91.0676 92.4543L93.0312 95.9139C93.7864 97.2359 95.5727 97.7539 97.0306 97.0691L99.1124 96.0926L97.9303 94.0918L95.4611 95.247L93.202 91.4062L91.0676 92.4543Z" fill="#BEEA34"/>
<path d="M85.1833 92.1756L83.1738 93.1939L83.0621 93.2534L82.9111 93.0033H82.9045L81.6633 90.9609L83.6663 89.6211L85.1833 92.1756Z" fill="#BEEA34"/>
<path d="M117.363 107.332C117.566 107.231 117.783 107.153 118 107.105V109.6L116.522 110.321L115.307 108.338L117.363 107.332Z" fill="#BEEA34"/>
<path d="M117.152 102.852L117.993 102.441V104.329L117.152 102.852Z" fill="#BEEA34"/>
<path d="M109.58 82.3395L113.875 81.6071C115.484 81.3332 116.548 79.9279 116.246 78.463L115.812 76.3789L113.363 76.8315L113.875 79.3086L109.088 80.1839L109.58 82.3395Z" fill="#BEEA34"/>
<path d="M117.993 82.3879L116.745 82.5964L117.218 85.0795L114.762 85.4963L114.361 83.4062C114.197 82.5428 114.506 81.7091 115.116 81.1196C115.235 81.0065 115.359 80.8993 115.497 80.804C115.865 80.5539 116.298 80.3753 116.784 80.2979L117.993 80.1133V82.3879Z" fill="#BEEA34"/>
<path d="M112.03 109.037L111.373 111.157L106.678 109.936L106.645 110.038L105.299 109.073L104.767 108.692C105.102 108.346 105.528 108.09 105.995 107.942C106.159 107.888 106.323 107.846 106.494 107.822C106.934 107.757 107.393 107.775 107.847 107.9L112.03 109.037Z" fill="#BEEA34"/>
<path d="M100.781 105.828L101.201 104.553L105.798 105.822L106.638 103.422L109.029 104.077L108.32 106.101C108.024 106.935 107.328 107.548 106.487 107.816C106.33 107.87 106.159 107.906 105.995 107.935C105.542 108.007 105.062 107.983 104.589 107.846L102.908 107.358L100.781 105.828Z" fill="#BEEA34"/>
<path d="M116.121 114.816L116.115 116.609C116.062 116.65 116.016 116.692 115.964 116.728L113.619 115.043V114.834L116.121 114.816Z" fill="#BEEA34"/>
<path d="M95.0019 51.5703H50.9296V52.7612H95.0019V51.5703Z" fill="#C3C1CF"/>
<path d="M95.0019 59.6211H50.9296V60.812H95.0019V59.6211Z" fill="#C3C1CF"/>
</svg>
