<svg width="148" height="148" viewBox="0 0 148 148" fill="none" xmlns="http://www.w3.org/2000/svg">
<path d="M0 32C0 16.9151 0 9.37258 4.68629 4.68629C9.37258 0 16.9151 0 32 0H116C131.085 0 138.627 0 143.314 4.68629C148 9.37258 148 16.9151 148 32V116C148 131.085 148 138.627 143.314 143.314C138.627 148 131.085 148 116 148H32C16.9151 148 9.37258 148 4.68629 143.314C0 138.627 0 131.085 0 116V32Z" fill="#E6F4FF"/>
<path d="M98.6717 89.8299L95.5131 90.5822L95.0115 90.6999L92.9103 91.1971L78.3779 94.6509V98.3532C78.3779 100.538 76.541 102.311 74.2771 102.311C73.8365 102.311 73.4162 102.245 73.0231 102.121C72.6977 102.023 72.386 101.879 72.1013 101.709C70.949 101.009 70.183 99.7727 70.183 98.3532V96.6002L61.873 98.5756L57.1757 99.6942L57.1147 100.165L56.5182 104.692L56.1522 107.472L56.1454 107.55L55.8811 109.565L54.9796 116.433L54.9321 116.518C55.332 116.728 55.732 116.93 56.1454 117.12C56.7148 117.382 57.2909 117.617 57.8806 117.833C58.0433 117.892 58.206 117.951 58.3754 118.01C58.8567 118.18 59.3447 118.324 59.8395 118.461C61.9069 119.024 64.0827 119.331 66.333 119.331H85.9152C84.912 117.316 84.3494 115.053 84.3494 112.666C84.3494 111.796 84.424 110.945 84.5663 110.114C84.5867 110.01 84.607 109.905 84.6273 109.8C84.8917 108.453 85.3323 107.164 85.9355 105.967C86.0169 105.797 86.105 105.634 86.1931 105.47C88.274 101.67 91.9478 98.8046 96.3604 97.7056C96.9501 97.5617 97.5533 97.444 98.1634 97.3655C98.8819 97.2739 99.6071 97.2216 100.353 97.2216C102.332 97.2216 104.23 97.5683 105.985 98.2028V88.103L98.6717 89.8299Z" fill="#0E81FF"/>
<path d="M102.495 53.1202V70.2322C102.495 72.8487 100.299 74.9681 97.5877 74.9681C94.8765 74.9681 92.6803 72.8487 92.6803 70.2322V53.1202C92.6803 43.3868 84.472 35.4718 74.3928 35.4718C64.3137 35.4718 56.0985 43.3868 56.0985 53.1202V68.1717H55.3122C51.774 68.1717 48.5747 69.5781 46.2837 71.8348V53.1202C46.2837 38.1668 58.8911 26 74.386 26C89.8877 26 102.495 38.1668 102.495 53.1202Z" fill="#A9D6FF"/>
<path d="M105.993 78.5003V88.0898L78.3784 94.6507V92.7603C79.4019 91.7595 80.0323 90.3792 80.0323 88.8682C80.0323 85.7938 77.4566 83.3081 74.2776 83.3081C71.0986 83.3081 68.5229 85.7938 68.5229 88.8682C68.5229 90.3858 69.1533 91.766 70.1836 92.7668V96.6L57.1763 99.6875L59.691 80.5346L93.06 66.2942H93.3514C100.333 66.3007 105.993 71.7627 105.993 78.5003Z" fill="#0E45FB"/>
<path d="M93.0604 66.3007L84.3911 70.0031L82.9134 70.6311L80.5953 71.6188L80.2564 71.7627L76.6097 73.3196L59.6846 80.5412L55.8211 82.1896L52.859 83.452L46.257 86.2713L44.7794 86.8993L42.5562 87.8478V78.4937C42.5562 75.1707 43.9321 72.1552 46.1689 69.9573L47.6533 69.4013L48.8938 68.9434L50.8188 68.2239L52.4997 67.5959L55.9837 66.2942H93.0604V66.3007Z" fill="white"/>
<path d="M47.6592 69.408L48.8996 68.9436L48.1337 69.7874L47.6592 69.408Z" fill="#A9D6FF"/>
<path d="M53.2987 68.2892L52.221 69.4862L51.0755 68.4985C50.9806 68.4135 50.8993 68.3284 50.8247 68.2368L52.5057 67.6089L53.2987 68.2892Z" fill="#A9D6FF"/>
<path d="M58.6134 79.1675L58.6879 76.4006C58.715 75.3605 57.861 74.4971 56.79 74.4709L55.2514 74.4316L55.2378 76.0146L57.0611 76.0604L57.0205 79.1544L58.6134 79.1675Z" fill="#A9D6FF"/>
<path d="M58.2743 71.6909L58.1523 74.4056C58.1049 75.4456 58.9454 76.3222 60.0231 76.3614L61.5617 76.4203L61.6024 74.8373L59.7791 74.7653L59.8672 71.7236L58.2743 71.6909Z" fill="#A9D6FF"/>
<path d="M48.5677 79.1739L47.212 76.734C46.7037 75.8183 45.5175 75.4716 44.5685 75.9687L43.2129 76.6752L44.0127 78.0619L45.6191 77.2246L47.1713 79.9327L48.5677 79.1739Z" fill="#A9D6FF"/>
<path d="M44.4331 72.8357L45.721 75.2494C46.2158 76.1717 47.3884 76.5381 48.3509 76.0605L49.7133 75.3802L48.9406 73.9804L47.3206 74.7915L45.8362 72.103L44.4331 72.8357Z" fill="#A9D6FF"/>
<path d="M69.2278 73.9413L67.8722 71.5014C67.3638 70.5856 66.1776 70.2389 65.2287 70.736L63.873 71.4425L64.6729 72.8292L66.2793 71.992L67.8315 74.7L69.2278 73.9413Z" fill="#A9D6FF"/>
<path d="M65.0928 67.6027L66.3806 70.0165C66.8754 70.9388 68.0481 71.3051 69.0106 70.8276L70.373 70.1473L69.6003 68.7475L67.9803 69.5586L66.4959 66.8701L65.0928 67.6027Z" fill="#A9D6FF"/>
<path d="M80.601 71.619L80.2627 71.7629L80.3304 71.5405L80.601 71.619Z" fill="#A9D6FF"/>
<path d="M84.3909 69.9967L82.9132 70.6246L81.8965 68.8519L80.2901 69.6892L79.4902 68.3025L80.8459 67.6026C81.4152 67.3082 82.0659 67.3147 82.6082 67.5633C82.7031 67.6091 82.798 67.6614 82.8861 67.7203C83.1233 67.8838 83.3335 68.0997 83.4826 68.3679L84.3909 69.9967Z" fill="#A9D6FF"/>
<path d="M83.8618 66.3007L83.5974 66.4316L83.5229 66.3007H81.6792L81.9978 66.8895C82.1469 67.1707 82.357 67.3997 82.6078 67.5632C82.6959 67.6221 82.7908 67.681 82.8857 67.7202C83.4144 67.9688 84.0583 67.9753 84.6209 67.694L85.9833 67.0137L85.5834 66.2942H83.8618V66.3007Z" fill="#A9D6FF"/>
<path d="M61.6025 67.681L59.9893 67.9688L59.7317 66.5035C59.7181 66.4316 59.7114 66.3661 59.7046 66.2942H61.3585L61.6025 67.681Z" fill="#A9D6FF"/>
<path d="M56.2272 80.9598L55.8273 82.1896L52.8652 83.4521L50.6284 82.7652L51.0893 81.2934L54.1056 82.1765L54.6614 80.502L56.2272 80.9598Z" fill="#A9D6FF"/>
<path d="M42.5625 85.5649L43.6809 84.9828L44.7857 86.9059L45.2399 87.6909L46.6294 86.9386L46.2634 86.2779L45.2738 84.4987C45.1247 84.2305 44.9213 84.0146 44.6773 83.8511C44.5892 83.7857 44.4875 83.7334 44.3926 83.6876C43.8504 83.439 43.1996 83.4325 42.6303 83.7268L42.5625 83.7595V85.5649Z" fill="#A9D6FF"/>
<path d="M42.4878 80.6001L43.7756 83.0138C44.2705 83.9361 45.4431 84.3024 46.4056 83.8249L47.768 83.1446L46.9953 81.7448L45.3753 82.5559L43.8909 79.8674L42.4878 80.6001Z" fill="#A9D6FF"/>
<path d="M67.1473 108.08L69.2146 105.784C69.9941 104.921 69.8924 103.612 69.0045 102.867L67.7302 101.801L66.5643 103.135L68.0826 104.404L65.8052 107.001L67.1473 108.08Z" fill="#A9D6FF"/>
<path d="M72.2849 101.506L70.2176 103.73C69.4246 104.581 69.4991 105.889 70.3803 106.654L71.641 107.74L72.8272 106.425L71.336 105.13L73.6203 102.612L72.2849 101.506Z" fill="#A9D6FF"/>
<path d="M85.1097 99.7662L87.1771 97.4702C87.9566 96.6068 87.8549 95.2985 86.9669 94.5528L85.6926 93.4866L84.5267 94.821L86.0451 96.09L83.7676 98.6869L85.1097 99.7662Z" fill="#A9D6FF"/>
<path d="M90.2478 93.1987L88.1805 95.4227C87.3875 96.2731 87.462 97.5813 88.3432 98.3466L89.6039 99.4325L90.7901 98.1177L89.2989 96.8225L91.5831 94.3042L90.2478 93.1987Z" fill="#A9D6FF"/>
<path d="M78.6636 118.389L78.7449 115.348C78.772 114.203 77.8367 113.254 76.6573 113.228L74.9696 113.189L74.9492 114.929L76.9555 114.975L76.9149 118.376L78.6636 118.389Z" fill="#A9D6FF"/>
<path d="M78.2907 110.167L78.1619 113.15C78.1145 114.288 79.0295 115.256 80.2157 115.302L81.9034 115.367L81.9509 113.627L79.9446 113.549L80.0395 110.206L78.2907 110.167Z" fill="#A9D6FF"/>
<path d="M67.6217 118.389L66.1305 115.707C65.568 114.7 64.2733 114.321 63.2295 114.864L61.7383 115.635L62.6194 117.16L64.3885 116.244L66.0967 119.22L67.6217 118.389Z" fill="#A9D6FF"/>
<path d="M63.0806 111.423L64.4972 114.079C65.0395 115.092 66.3341 115.492 67.3847 114.968L68.8827 114.216L68.0286 112.679L66.246 113.568L64.6124 110.618L63.0806 111.423Z" fill="#A9D6FF"/>
<path d="M92.9115 91.1973L95.0128 90.7002L94.4366 92.2701L92.7285 91.7141L92.9115 91.1973Z" fill="#A9D6FF"/>
<path d="M98.9981 89.941L98.4423 91.5436L95.5142 90.5821L98.6728 89.8298L98.9981 89.941Z" fill="#A9D6FF"/>
<path d="M58.8308 111.207L57.2989 112.038L55.8755 109.565L56.1398 107.55C56.2212 107.576 56.2957 107.609 56.3703 107.642C56.4787 107.688 56.5804 107.747 56.6821 107.818C56.9464 107.995 57.1701 108.237 57.3328 108.532L58.8308 111.207Z" fill="#A9D6FF"/>
<path d="M60.0983 107.04L58.5935 107.792C57.9767 108.1 57.2718 108.093 56.6889 107.819C56.5804 107.773 56.4787 107.714 56.3838 107.648C56.3093 107.596 56.2347 107.537 56.1602 107.478L56.5262 104.698L57.4683 106.399L59.251 105.509L60.0983 107.04Z" fill="#A9D6FF"/>
<path d="M83.4561 118.605L83.8492 119.325H82.0801L83.4561 118.605Z" fill="#A9D6FF"/>
<path d="M84.6348 109.787C84.6145 109.892 84.5942 109.997 84.5739 110.101L84.4453 109.879L84.6348 109.787Z" fill="#A9D6FF"/>
<path d="M86.2004 105.457C86.1124 105.621 86.0245 105.784 85.9433 105.954L85.7944 105.673L86.2004 105.457Z" fill="#A9D6FF"/>
<path d="M76.4408 103.652L79.5384 103.089C80.7043 102.88 81.4702 101.801 81.2465 100.676L80.9347 99.073L79.1656 99.4197L79.5384 101.323L76.0815 101.997L76.4408 103.652Z" fill="#A9D6FF"/>
<path d="M84.6962 101.578L81.646 102.082C80.4802 102.271 79.6939 103.344 79.8973 104.469L80.1819 106.079L81.9578 105.758L81.6189 103.848L85.0283 103.24L84.6962 101.578Z" fill="#A9D6FF"/>
<path d="M56.4108 114.491L58.1596 114.622L57.8817 117.827C57.292 117.611 56.7091 117.369 56.1465 117.114L56.4108 114.491Z" fill="#A9D6FF"/>
<path d="M59.8677 118.141L59.8406 118.455C59.3457 118.317 58.8577 118.167 58.3765 118.003L59.8677 118.141Z" fill="#A9D6FF"/>
<path d="M65.182 99.4912L62.0302 99.5305C60.844 99.5435 59.895 100.479 59.9154 101.624L59.9357 103.252L61.7387 103.207L61.7116 101.27L65.2363 101.185L65.182 99.4912Z" fill="#A9D6FF"/>
<path d="M61.8735 98.5757C61.7583 99.0532 61.4736 99.4718 61.0805 99.7531C60.9856 99.8251 60.8771 99.8839 60.7687 99.9428C60.4704 100.093 60.1315 100.172 59.7791 100.172L57.1152 100.159L57.1762 99.6877L61.8735 98.5757Z" fill="#A9D6FF"/>
<path d="M98.1775 97.3V97.3524C97.5607 97.4309 96.9642 97.5486 96.3745 97.6925V97.3197L98.1775 97.3Z" fill="#A9D6FF"/>
<path d="M105.993 95.2983L105.769 95.3049L105.797 97.2411L103.994 97.2869L103.973 95.6516C103.966 94.9647 104.305 94.3564 104.834 93.9704C104.929 93.8985 105.037 93.8396 105.146 93.7808C105.403 93.6499 105.695 93.5714 106 93.5583V95.2983H105.993Z" fill="#A9D6FF"/>
<path d="M100.74 94.193L103.838 94.2061C105.024 94.2126 105.986 93.2903 105.993 92.1456L106 90.5168L104.197 90.5365L104.19 92.4727L100.727 92.4988L100.74 94.193Z" fill="#A9D6FF"/>
<path d="M80.0323 88.8682C80.0323 90.3793 79.4019 91.7595 78.3784 92.7603V98.3532C78.3784 100.538 76.5415 102.311 74.2776 102.311C72.0137 102.311 70.1836 100.538 70.1836 98.3532V92.7669C69.1533 91.766 68.5229 90.3858 68.5229 88.8682C68.5229 85.7938 71.0987 83.3081 74.2776 83.3081C77.4566 83.3081 80.0323 85.7938 80.0323 88.8682Z" fill="#021544"/>
<path d="M95.3513 114.674C95.3513 112.757 96.4155 111.527 98.4692 110.154C98.8759 109.879 99.2894 109.434 99.2894 108.891C99.2894 108.001 98.6726 107.465 97.5474 107.465C96.1986 107.465 95.0463 108.283 94.565 109.297L92.9111 105.961C93.1958 105.529 94.138 103.599 97.8253 103.599C101.336 103.599 103.56 106.131 103.56 108.067C103.56 109.741 103.255 110.651 102.001 111.743C100.977 112.652 99.73 113.11 99.73 114.536C99.73 115.131 99.7435 115.275 99.7842 115.445L95.3716 115.459C95.3513 115.328 95.3513 115.203 95.3513 114.674ZM94.8565 119.501C94.8565 118.147 96.0969 117.055 97.5745 117.055C99.0861 117.055 100.34 118.206 100.34 119.553C100.34 120.921 99.0861 122 97.5949 122C96.063 122 94.8565 120.855 94.8565 119.501Z" fill="#CFBEFF"/>
<path d="M59.691 80.5413L57.1763 99.6941L54.9801 116.433L54.9327 116.518C47.558 112.62 42.5625 105.064 42.5625 96.3777V87.8544L59.691 80.5413Z" fill="#A9D6FF"/>
</svg>
