<svg width="62" height="30" viewBox="0 0 62 30" fill="none" xmlns="http://www.w3.org/2000/svg">
<path d="M52.5837 4.40786L50.0101 2.3074L47.8021 4.98999L50.9607 7.56906L46.5371 12.9418L49.231 15.1487L53.1733 10.3477C53.5256 9.91906 53.7898 9.42541 53.9508 8.89493C54.1119 8.36445 54.1666 7.80753 54.1118 7.25596C54.0571 6.70439 53.8939 6.16898 53.6317 5.6803C53.3695 5.19162 53.0134 4.75925 52.5837 4.40786ZM55.622 11.5299L58.1955 13.6304L60.4021 10.9463L57.2434 8.36874L61.661 2.99155L58.9747 0.789062L55.0369 5.59013C54.3256 6.45552 53.9877 7.5671 54.0974 8.68078C54.2072 9.79446 54.7555 10.8192 55.622 11.5299Z" fill="#8960FF"/>
<path d="M0.879244 25.1893L4.31315 24.6282C4.78694 25.7505 6.14968 26.4886 7.74856 26.4886C9.73249 26.4886 11.208 25.1893 11.208 23.476V20.2277H11.0907C10.0829 21.9111 8.18776 22.7093 6.47005 22.7093C2.59695 22.7093 0.286621 19.6666 0.286621 15.3832V14.9106C0.286621 10.6571 2.59695 7.58594 6.47457 7.58594C8.19227 7.58594 10.1175 8.41262 11.1238 10.096H11.2426L11.4502 8.02854H15.0029V23.3319C15.0029 26.7587 12.0428 29.1202 7.80722 29.1202C4.10708 29.1172 1.44178 27.3168 0.879244 25.1893ZM11.1539 15.8558V14.441C11.1539 11.8124 9.64976 10.2775 7.57107 10.2775C5.61722 10.2745 4.04692 11.8694 4.04692 14.741V15.5977C4.04692 18.4333 5.61722 20.0282 7.57107 20.0282C9.64374 20.0207 11.1539 18.4919 11.1539 15.8558Z" fill="#0E093F"/>
<path d="M15.6543 15.857V14.9118C15.6543 10.7184 18.7874 7.64569 23.1493 7.61719C27.591 7.64569 30.6699 10.6299 30.6699 14.9118V16.1226H19.4447V16.3926C19.4447 18.6956 20.8962 20.5275 23.1463 20.5275C24.7753 20.5275 26.0478 19.5523 26.6404 17.8104H30.4308C29.6907 21.1772 26.9367 23.2116 23.1463 23.2116C18.6746 23.2116 15.6543 20.229 15.6543 15.857ZM26.848 13.8196C26.5471 11.6921 25.1302 10.3043 23.205 10.3043C21.2797 10.3043 19.7996 11.6636 19.4748 13.8196H26.848Z" fill="#0E093F"/>
<path d="M31.3184 22.8002V8.03097H34.8711L35.0787 10.1314H35.1975C36.2338 8.53659 37.9214 7.62138 39.5805 7.62138C43.222 7.59138 45.236 9.89589 45.236 14.1193V22.8002H41.4757V13.6137C41.4757 11.6348 40.4995 10.313 38.4855 10.313C36.5301 10.313 35.1102 12.1134 35.1102 14.1238V22.8002H31.3184Z" fill="#0E093F"/>
</svg>
