<svg width="64" height="64" viewBox="0 0 64 64" fill="none" xmlns="http://www.w3.org/2000/svg">
<circle cx="32" cy="32" r="32" fill="#E4E4E4"/>
<g opacity="0.5">
<path d="M52.5832 23.9453C52.4616 22.6046 51.8777 19.8623 51.6101 18.6313C51.3425 17.4004 50.3086 15.7306 49.4936 14.1584C48.6787 12.5861 48.1556 12.2449 47.6813 12.1596C46.8055 12.0011 46.027 13.0737 45.9297 14.3046C45.8445 15.5478 47.6934 19.4601 47.6934 19.4601L47.5231 21.4589C47.4623 19.972 46.623 18.1682 45.8324 16.34C45.0417 14.5118 43.5821 11.4892 42.6333 10.3923C41.6845 9.28322 39.5437 6.39468 38.8382 5.93154C38.1206 5.4684 36.3933 5.61466 36.5028 7.83286C36.5879 9.42947 39.4586 13.5612 39.4586 13.5612C39.5194 14.2071 39.8965 15.755 39.8965 15.755C39.8965 15.755 37.0988 11.4039 36.8312 10.6604C36.5636 9.91699 34.885 8.296 33.8146 7.17471C32.7442 6.05342 31.5278 5.05401 30.8467 5.30996C30.1533 5.56591 29.3749 6.5775 29.9101 8.36912C30.4453 10.1607 32.9997 13.2077 32.9997 13.2077C33.2064 14.9384 35.8581 19.7161 35.8581 19.7161C35.8581 19.7161 35.8338 21.9586 36.1136 24.0306C36.3933 26.1025 36.6731 27.0897 36.0163 27.2116C35.031 27.3823 33.7052 20.0939 32.1482 19.0823C28.195 16.4985 26.0785 16.5228 25.3608 17.6197C24.6067 18.7654 23.4755 20.1792 22.8551 21.3858C22.3686 20.6423 21.6752 20.1914 20.763 20.3133C18.8289 20.5814 19.4614 25.7247 18.4884 28.8935C17.8437 30.9899 18.2694 32.1233 19.3033 36.2185C19.7169 37.876 20.0696 39.6798 20.4224 41.374C20.6413 42.3977 20.8481 43.385 21.0792 44.2747C21.2617 44.9694 21.4563 45.6032 21.6631 46.1516C21.7482 46.3954 21.8455 46.6148 21.9428 46.822C22.1253 47.1998 22.2834 47.6142 22.4172 48.0529C22.6483 48.8086 22.8065 49.6252 22.9403 50.4418V50.4539C23.1835 52.0384 23.2809 53.5619 23.3782 54.3541C23.5485 55.7922 28.791 58.3761 33.7052 58.9733C37.1718 59.3877 39.2275 57.4864 40.2006 56.1823C40.6506 55.5972 40.8088 54.8294 40.6263 54.1103C40.2979 52.7818 40.4195 50.3564 41.344 48.8817C41.3926 48.8086 41.4413 48.7355 41.4899 48.6745C44.02 45.2253 44.7985 43.1534 46.6838 40.4964C46.9028 40.1917 47.1217 39.887 47.3772 39.558C48.1921 38.4976 49.9315 35.1459 50.4181 33.0374C50.7222 31.7577 51.5858 28.8082 52.0602 27.1263C52.5224 25.42 52.717 25.2859 52.5832 23.9453ZM23.7431 24.5912C23.7309 24.3597 23.7066 24.1159 23.6823 23.8843C25.0932 23.9331 27.1003 21.7271 27.1003 21.7271C28.0125 22.5802 28.937 23.3602 28.937 23.3602C29.1316 24.7131 29.6546 26.6632 30.1655 28.3207C28.9491 30.807 30.275 31.3311 28.6329 33.6225C26.9908 35.9138 25.5798 35.7066 24.5945 32.7937C23.6214 29.8686 23.3052 28.0404 23.3052 28.0404C23.3052 28.0404 23.8647 26.8582 23.7431 24.5912Z" fill="#4F28FE"/>
<path d="M30.4937 27.8492C31.5032 27.3739 32.5736 27.1911 33.7535 27.4105" stroke="#060001" stroke-width="1.5" stroke-miterlimit="10" stroke-linecap="round" stroke-linejoin="round"/>
<path opacity="0.27" d="M32.7816 26.5792C32.5991 26.1161 32.368 25.653 32.2099 25.1776C32.0274 24.6292 31.9058 24.0563 31.7233 23.5079C31.6382 23.2641 31.553 23.0082 31.4314 22.7766C31.3706 22.6426 31.2976 22.5207 31.1881 22.4232C31.0057 22.2647 30.7381 22.2282 30.5191 22.155C30.1055 22.021 29.7041 21.8382 29.3271 21.631C29.023 21.4725 28.7311 21.2775 28.427 21.1434C28.1958 21.0459 27.9526 20.9972 27.7093 21.0581C27.3322 21.1556 27.0038 21.4238 26.7119 21.6797C26.0185 22.2647 25.3617 22.8376 24.4738 23.0935C23.8656 23.2641 23.2331 23.2641 22.6127 23.1788C22.3451 23.3738 22.1505 23.642 22.1626 23.9954C22.1748 24.3489 22.3816 24.6779 22.5884 24.9339C22.8681 25.2873 23.2087 25.5798 23.5493 25.8602C23.6101 25.9089 23.6709 25.9577 23.7439 26.0064C23.7683 25.6042 23.7804 25.1411 23.7561 24.617C23.7439 24.3854 23.7196 24.1417 23.6953 23.9101C25.1063 23.9588 27.1133 21.7528 27.1133 21.7528C28.0256 22.606 28.95 23.386 28.95 23.386C29.1446 24.7389 29.6677 26.6889 30.1785 28.3465C29.2054 30.3209 29.8623 31.0644 29.3271 32.4416C29.5217 32.5269 29.7406 32.5757 29.9596 32.5879C30.3488 32.6001 30.7381 32.5147 31.0786 32.3441C31.4192 32.1735 31.6747 31.9054 31.8815 31.5885C32.3315 30.9181 32.6356 30.1381 32.891 29.3703C33.0492 28.8706 33.1586 28.3831 33.1222 27.859C33.0735 27.3836 32.9397 26.9814 32.7816 26.5792Z" fill="#060001"/>
<path d="M41.9278 32.7969C39.5802 34.1741 37.5854 36.1607 36.1987 38.513" stroke="#060001" stroke-width="1.5" stroke-miterlimit="10" stroke-linecap="round" stroke-linejoin="round"/>
<path d="M38.6803 39.9688C36.9652 42.2966 33.5594 42.7842 31.6618 44.9658C30.263 46.5746 29.9346 49.0244 30.859 50.95" stroke="#060001" stroke-width="1.5" stroke-miterlimit="10" stroke-linecap="round" stroke-linejoin="round"/>
<path opacity="0.27" d="M46.6711 40.4768C44.7857 43.1338 44.0194 45.2057 41.4772 48.6549C41.4285 48.728 41.3799 48.789 41.3312 48.8621C40.4798 48.6062 39.4337 48.4233 38.2051 48.3868C33.8992 48.2405 32.099 49.4959 28.4863 49.9103C26.1509 50.1784 24.2898 49.8737 22.9153 50.3978C22.7937 49.5934 22.6234 48.7646 22.3923 48.0089C22.2585 47.5702 22.1004 47.1436 21.9179 46.778C21.8206 46.5708 21.7233 46.3514 21.6382 46.1076C21.4314 45.5592 21.2368 44.9254 21.0543 44.2307C20.8232 43.341 20.6042 42.3538 20.3975 41.33C32.695 38.5755 43.8248 40.0259 46.6711 40.4768Z" fill="#060001"/>
<path d="M47.6332 21.8027C47.548 23.2775 47.4872 25.0935 47.4872 25.0935C46.7574 26.7023 46.9642 26.361 46.2222 29.2495C46.0519 29.8833 45.1274 29.9199 45.1274 29.9199" stroke="#060001" stroke-width="1.5" stroke-miterlimit="10" stroke-linecap="round" stroke-linejoin="round"/>
<path d="M40.2002 16.4414C40.7111 18.5865 41.5747 20.439 41.5747 20.439C41.5747 20.439 41.6356 25.1314 41.6599 26.338C41.7207 28.9584 40.0178 27.3618 39.1177 27.4227" stroke="#060001" stroke-width="1.5" stroke-miterlimit="10" stroke-linecap="round" stroke-linejoin="round"/>
<path d="M43.4842 19.752C43.0585 19.8007 42.6328 19.8373 42.207 19.886" stroke="#060001" stroke-width="1.5" stroke-miterlimit="10" stroke-linecap="round" stroke-linejoin="round"/>
<path d="M37.9268 18.4961C37.5497 18.9958 36.9172 19.3005 36.2847 19.2761" stroke="#060001" stroke-width="1.5" stroke-miterlimit="10" stroke-linecap="round" stroke-linejoin="round"/>
<path d="M34.3499 12.6602C34.1067 12.9527 33.8634 13.2452 33.6201 13.5377" stroke="#060001" stroke-width="1.5" stroke-miterlimit="10" stroke-linecap="round" stroke-linejoin="round"/>
<path d="M49.3116 24.207C48.9954 24.2558 48.6791 24.3045 48.375 24.3533" stroke="#060001" stroke-width="1.5" stroke-miterlimit="10" stroke-linecap="round" stroke-linejoin="round"/>
<path d="M48.7285 19.9188C48.9231 19.8945 49.1056 19.8701 49.3002 19.8457" stroke="#060001" stroke-width="1.5" stroke-miterlimit="10" stroke-linecap="round" stroke-linejoin="round"/>
<path d="M40.5763 13.4043C40.2843 13.4652 40.0167 13.6846 39.9194 13.9771" stroke="#060001" stroke-width="1.5" stroke-miterlimit="10" stroke-linecap="round" stroke-linejoin="round"/>
<path d="M27.6833 20.6152C27.4765 20.9443 27.2697 21.2734 27.0508 21.6025" stroke="#060001" stroke-width="1.5" stroke-miterlimit="10" stroke-linecap="round" stroke-linejoin="round"/>
<path d="M25.1188 20.6152C24.8998 21.2368 24.6322 21.9072 24.0727 22.2728C23.7078 22.5044 23.2334 22.5653 22.8198 22.4434" stroke="#060001" stroke-width="1.5" stroke-miterlimit="10" stroke-linecap="round" stroke-linejoin="round"/>
<path d="M22.8185 21.4668C22.5631 21.9299 22.2955 22.4784 22.3442 22.8684C22.3806 23.1731 22.6118 23.429 22.8794 23.5753C23.147 23.7216 23.4511 23.7703 23.7551 23.8312" stroke="#060001" stroke-width="1.5" stroke-miterlimit="10" stroke-linecap="round" stroke-linejoin="round"/>
<path d="M24.2417 35.7676C22.7699 36.9742 21.7724 38.7414 21.4927 40.6305" stroke="#060001" stroke-width="1.5" stroke-miterlimit="10" stroke-linecap="round" stroke-linejoin="round"/>
<path d="M36.4425 27.7734C35.8465 27.9563 35.3113 28.3463 34.9707 28.8825" stroke="#060001" stroke-width="1.5" stroke-miterlimit="10" stroke-linecap="round" stroke-linejoin="round"/>
<path d="M3.4292 41.1993C6.93235 41.1993 7.04182 37.7988 7.04182 37.7988C7.04182 37.7988 7.52837 40.7361 9.60836 41.1749C9.60836 41.1749 7.62568 42.1012 7.29726 45.5016C7.29726 45.5138 6.60393 41.1993 3.4292 41.1993Z" fill="#EFEFEF"/>
<path d="M18.1948 17.9467C19.1801 17.8858 19.3869 16.0332 19.3869 16.0332C19.3869 16.0332 19.8126 18.0076 20.5789 18.1417C20.5789 18.1417 19.472 18.2636 19.399 20.4452C19.399 20.4452 19.1922 18.2148 18.1948 17.9467Z" fill="#EFEFEF"/>
<path d="M13.3433 14.3836C17.114 14.5908 17.3451 10.8613 17.3451 10.8613C17.3451 10.8613 17.6614 14.2618 20.0576 14.5177C20.0576 14.5177 17.4668 15.0905 17.3451 19.1979C17.3451 19.21 16.5788 14.6518 13.3433 14.3836Z" fill="#EFEFEF"/>
<path d="M17.7314 46.7324H13.6079V47.8537H17.7314V46.7324Z" fill="#EFEFEF"/>
<path d="M45.9279 42.2815H17.1243C15.9444 42.2815 14.9956 41.3308 14.9956 40.1486V35.8341C14.9956 34.6518 15.9444 33.7012 17.1243 33.7012H45.9279C47.1078 33.7012 48.0566 34.6518 48.0566 35.8341V40.1486C48.0566 41.3308 47.1078 42.2815 45.9279 42.2815Z" fill="white"/>
<path d="M45.1972 41.2031H25.2366C24.0567 41.2031 23.1079 40.2524 23.1079 39.0702V37.4005C23.1079 36.2182 24.0567 35.2676 25.2366 35.2676H45.1972C46.3771 35.2676 47.3259 36.2182 47.3259 37.4005V39.0702C47.3259 40.2402 46.3771 41.2031 45.1972 41.2031Z" fill="#EFEFEF"/>
<path opacity="0.44" d="M29.1659 38.4324C29.0929 39.3709 28.4482 40.029 27.5238 40.029C26.5993 40.029 25.833 39.2734 25.833 38.3349C25.833 37.3964 26.5628 36.592 27.5238 36.6408C28.4482 36.6652 29.251 37.3233 29.1659 38.4324Z" fill="#060001"/>
<path opacity="0.44" d="M34.2254 38.4324C34.1525 39.3709 33.5078 40.029 32.5833 40.029C31.6467 40.029 30.8926 39.2734 30.8926 38.3349C30.8926 37.3964 31.6224 36.592 32.5833 36.6408C33.5199 36.6652 34.3106 37.3233 34.2254 38.4324Z" fill="#060001"/>
<path opacity="0.44" d="M39.2992 38.4324C39.2262 39.3709 38.5815 40.029 37.6571 40.029C36.7326 40.029 35.9663 39.2734 35.9663 38.3349C35.9663 37.3964 36.6961 36.592 37.6571 36.6408C38.5815 36.6652 39.3843 37.3233 39.2992 38.4324Z" fill="#060001"/>
<path opacity="0.44" d="M44.369 38.4324C44.296 39.3709 43.6513 40.029 42.7269 40.029C41.7903 40.029 41.0361 39.2734 41.0361 38.3349C41.0361 37.3964 41.766 36.592 42.7269 36.6408C43.6513 36.6652 44.442 37.3233 44.369 38.4324Z" fill="#060001"/>
<path d="M29.8094 37.9324C29.7364 38.8709 29.0918 39.529 28.1673 39.529C27.2307 39.529 26.4766 38.7734 26.4766 37.8349C26.4766 36.8964 27.2064 36.092 28.1673 36.1408C29.0918 36.1652 29.8946 36.8233 29.8094 37.9324Z" fill="#060001"/>
<path d="M34.8695 37.9324C34.7965 38.8709 34.1518 39.529 33.2274 39.529C32.3029 39.529 31.5366 38.7734 31.5366 37.8349C31.5366 36.8964 32.2664 36.092 33.2274 36.1408C34.1518 36.1652 34.9546 36.8233 34.8695 37.9324Z" fill="#060001"/>
<path d="M39.9427 37.9324C39.8697 38.8709 39.2251 39.529 38.3006 39.529C37.364 39.529 36.6099 38.7734 36.6099 37.8349C36.6099 36.8964 37.3397 36.092 38.3006 36.1408C39.2251 36.1652 40.0279 36.8233 39.9427 37.9324Z" fill="#060001"/>
<path d="M45.0023 37.9324C44.9293 38.8709 44.2846 39.529 43.3602 39.529C42.4357 39.529 41.6694 38.7734 41.6694 37.8349C41.6694 36.8964 42.3993 36.092 43.3602 36.1408C44.2968 36.1652 45.0874 36.8233 45.0023 37.9324Z" fill="#060001"/>
<path d="M43.2378 43.3574H36.0977V44.4787H43.2378V43.3574Z" fill="white"/>
<path d="M21.2367 28.2988C20.4704 29.2861 19.2905 29.9442 18.0498 30.0661" stroke="#94F700" stroke-width="1.5" stroke-miterlimit="10" stroke-linecap="round" stroke-linejoin="round"/>
<path d="M26.8095 30.1211H7.04346V31.7055H26.8095V30.1211Z" fill="#4F28FE"/>
<path d="M26.8088 31.7084C26.6507 31.7571 20.7513 29.9289 17.3455 27.0282C17.1995 26.9063 17.0657 26.7845 16.9198 26.6504C16.7859 26.7723 16.64 26.9063 16.5062 27.0282C13.1003 29.9411 7.18878 31.7693 7.04281 31.7084C6.88468 31.6474 9.14714 42.6409 16.5062 46.8457C16.64 46.9189 16.7859 47.0042 16.9319 47.0773C17.0779 47.0042 17.2117 46.9311 17.3455 46.8457C24.7167 42.6287 26.9791 31.6474 26.8088 31.7084Z" fill="#060001"/>
<path d="M17.3451 45.2657C17.2113 45.351 17.0654 45.4241 16.9316 45.4972C16.7856 45.4241 16.6518 45.351 16.5059 45.2657C9.36575 41.1827 7.01816 30.7255 7.03032 30.1527C7.03032 30.1405 7.03032 30.1283 7.04248 30.1283C7.20061 30.177 13.1 28.3489 16.5059 25.4481C16.6518 25.3263 16.7856 25.2044 16.9194 25.0703C17.0532 25.1922 17.1992 25.3263 17.3451 25.4481C20.751 28.361 26.6625 30.1892 26.8085 30.1283C26.918 30.3355 24.619 41.0974 17.3451 45.2657Z" fill="#94F700"/>
<path d="M17.2489 43.0077C17.1394 43.0686 17.03 43.1296 16.9205 43.1783C16.811 43.1174 16.7016 43.0686 16.5921 43.0077C10.8995 39.7413 9.14789 31.2464 9.26953 31.2951C9.28169 31.2951 9.33034 31.2829 9.42765 31.2708C10.2669 31.0514 14.2202 29.7107 16.5921 27.6753C16.7016 27.5778 16.811 27.4803 16.9205 27.3828C17.03 27.4803 17.1394 27.5778 17.2489 27.6753C19.6208 29.7107 23.574 31.0514 24.4133 31.2708C24.5107 31.2951 24.5593 31.3073 24.5715 31.2951C24.7053 31.2464 22.9537 39.7413 17.2489 43.0077Z" fill="#060001"/>
<path d="M24.4247 31.2668C23.8773 33.4972 21.846 39.5059 17.2602 42.1385C17.1508 42.1994 17.0413 42.2603 16.9318 42.3213C16.8223 42.2603 16.7129 42.1994 16.6034 42.1385C12.0177 39.5181 9.98633 33.4972 9.43896 31.2668C10.2783 31.0475 14.2315 29.7068 16.6034 27.6714C16.7129 27.5739 16.8223 27.4764 16.9318 27.3789C17.0413 27.4764 17.1508 27.5739 17.2602 27.6714C19.6322 29.6946 23.5854 31.0475 24.4247 31.2668Z" fill="#4F28FE"/>
<path d="M17.5752 35.4503L20.6526 32.2936L19.6187 31.1602L19.1078 31.6355L19.6795 32.2693L19.3025 32.6105L18.7308 32.0133L18.305 32.4521L18.8524 32.9762L16.9305 34.8775C16.4805 34.6337 15.9331 34.5728 15.3979 34.7068C14.2667 34.975 13.695 36.145 14.0112 37.2175C14.3153 38.3023 15.4466 38.9239 16.517 38.607C17.5995 38.3023 18.1226 37.3272 17.8915 36.2303C17.8306 35.9256 17.7212 35.6697 17.5752 35.4503ZM16.3223 37.9366C15.6168 38.1438 14.887 37.7294 14.6802 37.0225C14.4735 36.3156 14.8505 35.56 15.5925 35.3772C16.298 35.2065 17.04 35.5356 17.2225 36.3766C17.3563 37.1079 17.0157 37.7294 16.3223 37.9366Z" fill="white"/>
<path opacity="0.44" d="M16.9316 45.4972C16.7856 45.4241 16.6518 45.351 16.5059 45.2657C9.36575 41.1827 7.01816 30.7255 7.03032 30.1527C7.03032 30.1405 7.03032 30.1283 7.04248 30.1283C7.20061 30.177 13.1 28.3489 16.5059 25.4481C16.6518 25.3263 16.7856 25.2044 16.9194 25.0703C17.0654 25.1922 17.0654 45.4241 16.9316 45.4972Z" fill="#D2ECF9"/>
</g>
<g style="mix-blend-mode:color">
<circle cx="32" cy="32" r="32" fill="white"/>
</g>
</svg>
