<svg width="26" height="26" viewBox="0 0 26 26" fill="none" xmlns="http://www.w3.org/2000/svg">
<path d="M13.2017 20.8279C12.1057 20.8279 11.0417 20.6135 10.0401 20.1895C9.07368 19.7799 8.20488 19.1943 7.45928 18.4487C6.71368 17.7031 6.12808 16.8343 5.71848 15.8679C5.29448 14.8663 5.08008 13.8023 5.08008 12.7063C5.08008 11.6103 5.29448 10.5463 5.71848 9.54469C6.12808 8.57829 6.71368 7.70949 7.45928 6.96389C8.20488 6.21829 9.07368 5.63429 10.0401 5.22629C11.0417 4.80229 12.1057 4.58789 13.2017 4.58789C14.2977 4.58789 15.3617 4.80229 16.3633 5.22629C17.3297 5.63589 18.1985 6.22149 18.9441 6.96709C19.6897 7.71269 20.2753 8.58149 20.6849 9.54789C21.1089 10.5495 21.3233 11.6135 21.3233 12.7095C21.3233 13.8055 21.1089 14.8695 20.6849 15.8711C20.2753 16.8375 19.6897 17.7063 18.9441 18.4519C18.1985 19.1975 17.3297 19.7831 16.3633 20.1927C15.3617 20.6135 14.2977 20.8279 13.2017 20.8279ZM13.2017 5.38789C9.16488 5.38789 5.88168 8.67269 5.88168 12.7079C5.88168 16.7431 9.16648 20.0279 13.2017 20.0279C17.2369 20.0279 20.5217 16.7431 20.5217 12.7079C20.5217 8.67269 17.2385 5.38789 13.2017 5.38789Z" fill="#6A00FF"/>
<path d="M24.5994 7.98058C24.449 7.98058 24.3034 7.89418 24.2362 7.74858C22.4122 3.81737 18.433 1.27656 14.1002 1.27656C13.8794 1.27656 13.7002 1.09736 13.7002 0.876563C13.7002 0.655763 13.8794 0.476562 14.1002 0.476562C16.4266 0.476562 18.6826 1.14536 20.6234 2.40937C22.5146 3.64137 24.0138 5.37097 24.961 7.41257C25.0538 7.61258 24.9674 7.85098 24.7658 7.94378C24.713 7.96778 24.6554 7.98058 24.5994 7.98058Z" fill="#6A00FF"/>
<path d="M13.2013 20.8292C12.7341 20.8292 12.3005 20.5764 11.9133 20.0772C11.5869 19.658 11.2989 19.0692 11.0557 18.3268C10.5709 16.85 10.3037 14.8964 10.3037 12.8228C10.3037 10.7492 10.5709 8.79401 11.0557 7.31881C11.2989 6.57641 11.5885 5.98761 11.9133 5.56841C12.3005 5.06921 12.7341 4.81641 13.2013 4.81641C13.6685 4.81641 14.1021 5.06921 14.4893 5.56841C14.8157 5.98761 15.1037 6.57641 15.3469 7.31881C15.8317 8.79561 16.0989 10.7492 16.0989 12.8228C16.0989 14.8964 15.8317 16.8516 15.3469 18.3268C15.1037 19.0692 14.8141 19.658 14.4893 20.0772C14.1021 20.5764 13.6685 20.8292 13.2013 20.8292ZM13.2013 5.61321C12.3245 5.61321 11.1021 8.35561 11.1021 12.8212C11.1021 17.2868 12.3245 20.0292 13.2013 20.0292C14.0781 20.0292 15.3005 17.2868 15.3005 12.8212C15.3005 8.35561 14.0781 5.61321 13.2013 5.61321Z" fill="#6A00FF"/>
<path d="M20.9051 13.1085H5.48105C5.26025 13.1085 5.08105 12.9294 5.08105 12.7086C5.08105 12.4878 5.26025 12.3086 5.48105 12.3086H20.9051C21.1259 12.3086 21.3051 12.4878 21.3051 12.7086C21.3051 12.9294 21.1259 13.1085 20.9051 13.1085Z" fill="#6A00FF"/>
<path d="M13.1214 9.7034C12.3262 9.7034 11.5198 9.5946 10.7134 9.377C8.56618 8.7962 7.16618 7.6554 7.10698 7.6074C6.93578 7.4666 6.91178 7.2154 7.05258 7.0442C7.19338 6.8746 7.44458 6.849 7.61578 6.9898C7.62858 7.001 8.96298 8.0826 10.9502 8.6122C13.5822 9.3146 16.0702 8.7658 18.3438 6.9834C18.5182 6.8474 18.7694 6.8778 18.9054 7.0522C19.0414 7.2266 19.011 7.4778 18.8366 7.6138C17.4686 8.6858 15.9998 9.353 14.4686 9.5978C14.0254 9.6682 13.5758 9.7034 13.1214 9.7034Z" fill="#6A00FF"/>
<path d="M7.3611 18.2475C7.2427 18.2475 7.1243 18.1947 7.0459 18.0939C6.9099 17.9195 6.9403 17.6683 7.1147 17.5323C8.4827 16.4604 9.9515 15.7932 11.4827 15.5484C12.7083 15.3516 13.9739 15.4268 15.2411 15.7692C17.3883 16.3484 18.7883 17.4907 18.8475 17.5387C19.0187 17.6795 19.0427 17.9307 18.9019 18.1019C18.7611 18.2715 18.5099 18.2971 18.3387 18.1563C18.3179 18.1387 16.9867 17.062 15.0043 16.534C12.3723 15.8316 9.8843 16.3804 7.6107 18.1627C7.5355 18.2187 7.4475 18.2475 7.3611 18.2475Z" fill="#6A00FF"/>
<path d="M24.9114 8.70134C24.8538 8.70134 24.7962 8.68854 24.7418 8.66294L21.433 7.11574C21.233 7.02294 21.1466 6.78454 21.2394 6.58454C21.3338 6.38454 21.5706 6.29814 21.7706 6.39094L24.569 7.69974L24.889 4.53014C24.9114 4.31094 25.1082 4.15094 25.3274 4.17174C25.5466 4.19414 25.7066 4.38934 25.6858 4.61014L25.3098 8.34134C25.297 8.47094 25.2218 8.58454 25.1098 8.64854C25.049 8.68374 24.9802 8.70134 24.9114 8.70134Z" fill="#6A00FF"/>
<path d="M8.03345 24.7393C7.98546 24.7393 7.93586 24.7297 7.88786 24.7121C5.79346 23.8897 3.97586 22.4961 2.63186 20.6832C1.25266 18.8224 0.451056 16.6112 0.310256 14.288C0.297456 14.0672 0.465456 13.8784 0.686256 13.864C0.907056 13.8512 1.09586 14.0192 1.11026 14.24C1.37106 18.5648 4.14706 22.3825 8.18066 23.9681C8.38706 24.0481 8.48786 24.2817 8.40626 24.4865C8.34386 24.6433 8.19346 24.7393 8.03345 24.7393Z" fill="#6A00FF"/>
<path d="M5.12341 25.522C4.93141 25.522 4.76021 25.3828 4.72981 25.186C4.69461 24.9684 4.84181 24.762 5.06101 24.7268L8.20661 24.2164L6.73141 21.5012C6.62581 21.3076 6.69781 21.0644 6.89141 20.9588C7.08501 20.8532 7.32821 20.9252 7.43381 21.1188L9.17781 24.3284C9.24021 24.442 9.24181 24.5796 9.18581 24.6948C9.12981 24.81 9.01941 24.8932 8.89141 24.914L5.18901 25.514C5.16661 25.5204 5.14581 25.522 5.12341 25.522Z" fill="#6A00FF"/>
</svg>
