<svg
  width="21"
  height="21"
  viewBox="0 0 21 21"
  fill="none"
  xmlns="http://www.w3.org/2000/svg"
>
<path
    d="M10.8825 1.88342C10.7716 1.79696 10.635 1.75 10.4944 1.75C10.3538 1.75 10.2172 1.79696 10.1062 1.88342L1.125 8.88654L1.90188 9.86905L3 9.01279V16.7497C3.00066 17.081 3.13257 17.3985 3.36685 17.6328C3.60112 17.8671 3.91868 17.999 4.25 17.9997H16.75C17.0813 17.999 17.3989 17.8671 17.6332 17.6328C17.8674 17.3985 17.9993 17.081 18 16.7497V9.01842L19.0981 9.87467L19.875 8.89217L10.8825 1.88342ZM11.75 16.7497H9.25V11.7497H11.75V16.7497ZM13 16.7497V11.7497C12.9997 11.4183 12.8679 11.1005 12.6335 10.8662C12.3992 10.6318 12.0814 10.5 11.75 10.4997H9.25C8.91858 10.5 8.60083 10.6318 8.36648 10.8662C8.13213 11.1005 8.00033 11.4183 8 11.7497V16.7497H4.25V8.03842L10.5 3.16967L16.75 8.04467V16.7497H13Z"
    fill="#4A476F"
  />
</svg>
