<svg width="83" height="96" viewBox="0 0 83 96" fill="none" xmlns="http://www.w3.org/2000/svg">
<path d="M40.5864 0.121387C41.0838 1.03854 32.4697 7.03824 21.3304 13.522C10.1786 20.0185 0.720604 24.5469 0.204257 23.6425C-0.31209 22.7381 8.4784 16.6301 19.4602 10.2355C30.6121 3.73904 40.07 -0.789396 40.5864 0.121387Z" fill="#F7C57C"/>
<path d="M41.4106 1.57372C41.4736 1.68836 41.398 1.88581 41.1839 2.15331C39.7104 4.00672 31.9023 9.30582 22.1546 14.9807C12.4133 20.6556 3.96287 24.8337 1.63931 25.1904C1.30557 25.2413 1.09778 25.2159 1.02851 25.1012L0.990727 25.0375L0.505866 24.1841L0.203613 23.6491C0.71996 24.5598 10.1779 20.025 21.3298 13.5285C32.469 7.03841 41.0832 1.04508 40.5857 0.12793L40.8691 0.624721L41.3539 1.47818L41.4106 1.57372Z" fill="#F9E1B8"/>
<path d="M43.2241 1.29933C43.476 1.7388 42.0088 3.12727 39.3515 5.10806C38.747 5.5539 38.0858 6.03796 37.368 6.54112C33.678 9.12698 28.5145 12.4007 22.7088 15.7827C19.9507 17.3877 17.2808 18.8845 14.8124 20.2156C6.58867 24.6358 0.486951 27.2726 0.0272759 26.4701C-0.104959 26.2408 0.247668 25.744 0.997001 25.037L1.03478 25.1007C1.09775 25.2154 1.30555 25.2408 1.64558 25.1899C3.96915 24.8332 12.4196 20.6551 22.1609 14.9802C31.9023 9.30531 39.7167 4.00621 41.1902 2.15279C41.4043 1.88529 41.4862 1.68785 41.4169 1.5732L41.3602 1.4713C42.4307 1.12737 43.0856 1.05731 43.2241 1.29933Z" fill="#F7C57C"/>
<path d="M14.8823 20.3437L13.5914 21.764L12.968 22.4455L12.9617 22.4582L12.8609 22.5729L12.3887 23.0951L10.1533 25.5536L9.84472 25.8912L8.78054 27.0631L8.23901 27.6554L8.18863 27.7064L7.86749 28.063L5.37391 30.8017L5.06536 31.1393L4.12712 32.1711L3.59818 32.7571L2.96219 31.6425L2.73551 31.2412L0.027832 26.4708C0.141176 26.6682 0.588258 26.6618 1.325 26.4708C1.64614 26.388 2.02395 26.2669 2.45214 26.1205C2.46474 26.1141 2.47733 26.1141 2.48993 26.1077L3.38409 25.7702C4.32233 25.4007 5.43688 24.9167 6.69626 24.3307C6.8348 24.267 6.97333 24.2033 7.11186 24.1333C8.16974 23.6365 9.32208 23.0696 10.55 22.4455C10.9152 22.2608 11.293 22.0697 11.6708 21.8723C11.8975 21.7576 12.1242 21.6366 12.3509 21.522C13.1443 21.108 13.9629 20.6749 14.8004 20.2227L14.8823 20.3437Z" fill="#F2AB55"/>
<path d="M12.8539 22.5723L20.3032 25.4511C15.1964 28.2599 10.7508 30.47 7.72824 31.7311C5.32282 32.731 3.81785 33.1323 3.60376 32.7501L12.8539 22.5723Z" fill="#F7C57C"/>
<path d="M43.2245 1.2998L46.8012 7.57975L39.3519 5.10216C42.0155 3.12774 43.4764 1.73927 43.2245 1.2998Z" fill="#F7C57C"/>
<path d="M46.8006 7.58012C47.0209 7.97501 45.8749 9.12782 43.7214 10.7902C40.1258 13.5543 33.7407 17.7197 26.2852 22.0635C24.585 23.0507 22.9226 23.9997 21.3169 24.8914L21.3043 24.8659L37.3678 6.53559C38.0856 6.03243 38.7531 5.55475 39.3513 5.10254L46.8006 7.58012Z" fill="#F9E1B8"/>
<path d="M37.3673 6.53516L34.2314 10.1082L33.7465 10.6623L33.2302 11.2547L33.205 11.2801L31.8952 12.7705L31.8323 12.8469L30.3525 14.5348L29.7228 15.2608L29.1813 15.8786L27.0781 18.2798L26.524 18.9167L26.1273 19.3753L25.592 19.9867L23.4133 22.477L22.8781 23.0885L21.9461 24.1521L21.902 24.1967L21.3101 24.8718L21.3227 24.8973C20.9827 25.0884 20.6427 25.2731 20.3089 25.4578L19.0369 24.9674L18.7536 24.8591L15.4666 23.5853L13.842 22.9547L12.866 22.579L14.8873 20.3561L14.818 20.2287C14.9439 20.1587 15.0762 20.0886 15.2021 20.0186C15.5485 19.8339 15.9011 19.6428 16.2537 19.4453C16.2852 19.4262 16.3167 19.4135 16.3482 19.3944C16.5497 19.2797 16.7575 19.1715 16.9653 19.0568C18.8103 18.0378 20.7434 16.9487 22.7206 15.7958C22.771 15.764 22.8151 15.7385 22.8655 15.713C23.111 15.5729 23.3566 15.4264 23.5959 15.2863C24.0808 14.9997 24.5593 14.7195 25.0316 14.4329C25.5228 14.1399 26.0076 13.8533 26.4862 13.5667L26.4925 13.5603C26.9899 13.2609 27.4811 12.9616 27.966 12.6622C28.3123 12.4521 28.6523 12.2419 28.9924 12.0317C29.2631 11.8661 29.5276 11.7005 29.7921 11.5349C30.0188 11.3948 30.2455 11.2483 30.4658 11.1145C31.2781 10.605 32.0653 10.1019 32.8209 9.61144C33.0476 9.46495 33.2743 9.31846 33.4947 9.17197C33.6017 9.10191 33.7088 9.03185 33.8158 8.96179C33.9606 8.86625 34.1055 8.77071 34.2503 8.67518C35.3711 7.91725 36.4164 7.20391 37.3673 6.53516Z" fill="#F23C3C"/>
<path d="M82.7312 70.6846C83.109 71.347 79.5638 74.194 73.884 77.9518L71.762 70.0605L74.9608 66.2199C77.2592 64.4684 78.4996 63.2455 78.2667 62.8379L82.7312 70.6846Z" fill="#F23C3C"/>
<path d="M73.2674 74.4555L72.984 74.602L72.814 73.9715L72.9714 73.8887L73.2674 74.4555Z" fill="#F23C3C"/>
<path d="M73.0524 71.8696L73.5751 72.8504L73.0398 73.1561L72.4416 72.067L72.322 72.1307L72.1519 71.5065C72.3409 71.4429 72.5361 71.4556 72.7124 71.5384C72.6179 71.4683 72.5361 71.3792 72.4794 71.2645L71.9819 70.29L72.5235 69.9971L73.0965 71.0798L73.7199 70.755L74.0158 71.3155L73.4932 71.5893C73.2791 71.704 73.0272 71.6976 72.8257 71.5957C72.9139 71.6721 72.9957 71.7613 73.0524 71.8696Z" fill="#F23C3C"/>
<path d="M74.8727 67.9909L75.3953 68.4686L74.9798 68.9527L74.539 68.5514C74.3564 68.3858 74.2745 68.1501 74.2934 67.9208C74.2682 68.0355 74.2116 68.1374 74.1297 68.2329L73.4056 69.0737L72.9333 68.6724L73.7267 67.717L73.7141 67.7043L74.1171 67.2202C74.2556 67.3794 74.3186 67.5832 74.306 67.7871C74.3375 67.6724 74.3879 67.5641 74.476 67.4686L75.2002 66.6533L75.6661 67.061L74.8727 67.9909Z" fill="#F23C3C"/>
<path d="M73.8898 77.9516L73.8395 77.7605C73.8773 77.6968 73.9213 77.6395 73.9717 77.5821L74.7525 76.8242L75.0736 77.1554C74.6895 77.4166 74.2928 77.6841 73.8898 77.9516Z" fill="#F23C3C"/>
<path d="M76.9565 65.0222L76.5409 65.5064L76.2261 65.2197C76.4024 65.0732 76.5661 64.9394 76.7172 64.8057L76.9565 65.0222Z" fill="#F23C3C"/>
<path d="M76.2198 74.6459L77.2777 74.9707L77.114 75.5695L75.9301 75.2255L75.7286 75.907L75.1241 75.7287L75.2941 75.1554C75.3634 74.9134 75.546 74.7351 75.7601 74.6586C75.6467 74.6777 75.5208 74.6714 75.4011 74.6332L74.3684 74.2956L74.5447 73.7032L75.7034 74.0599L75.9175 73.3848L76.522 73.5695L76.3457 74.1364C76.2701 74.372 76.0938 74.544 75.8797 74.6204C75.9931 74.6077 76.1064 74.6141 76.2198 74.6459Z" fill="#F23C3C"/>
<path d="M77.7438 66.5897L77.6116 65.8891L78.2287 65.7617L78.3357 66.3477C78.3798 66.5961 78.3042 66.8381 78.1468 67.0037C78.2413 66.9336 78.3483 66.8827 78.4743 66.8636L79.5447 66.6789L79.6581 67.2903L78.4617 67.5132L78.5813 68.2138L77.9579 68.3285L77.8572 67.7361C77.8131 67.4941 77.8949 67.2585 78.0461 67.0929C77.9579 67.1629 77.8509 67.2139 77.7312 67.233L76.6482 67.4368L76.5222 66.8317L77.7438 66.5897Z" fill="#F23C3C"/>
<path d="M78.5685 71.7422L77.9766 71.7168C77.7311 71.704 77.5233 71.583 77.391 71.3919C77.4414 71.4939 77.4666 71.6085 77.4603 71.7359L77.4351 72.8504L76.8243 72.8441L76.8369 71.5957L76.1379 71.5766L76.1442 70.9398L76.7361 70.9525C76.988 70.9589 77.2021 71.0862 77.3344 71.2773C77.284 71.169 77.2588 71.048 77.2651 70.9206L77.3092 69.8252L77.92 69.8379L77.8885 71.0671L78.5874 71.099L78.5685 71.7422Z" fill="#F23C3C"/>
<path d="M78.6255 74.4866C78.7389 74.4229 78.8648 74.3975 78.9845 74.3975C78.7389 74.5822 78.4807 74.7732 78.2162 74.9643L78.1091 74.7732L78.6255 74.4866Z" fill="#F23C3C"/>
<path d="M79.1166 72.9336L79.633 73.9081C79.4692 74.0355 79.3055 74.1628 79.1292 74.2902C79.1103 74.2647 79.0914 74.2329 79.0725 74.201L78.5751 73.2266L79.1166 72.9336Z" fill="#F23C3C"/>
<path d="M79.923 65.7554L79.6963 66.0229L79.2241 65.6216L79.5956 65.1758L79.923 65.7554Z" fill="#F23C3C"/>
<path d="M80.9985 69.7611L81.5211 70.742L80.9859 71.0477L80.3877 69.9586L79.7706 70.2962L79.462 69.7357L79.9847 69.4554C80.2051 69.3344 80.4569 69.3408 80.6647 69.4427C80.5703 69.3726 80.4884 69.2835 80.4255 69.1688L79.928 68.1943L80.4695 67.9014L81.0426 68.9841L81.5967 68.6975L81.9115 69.2516L81.4393 69.5C81.2252 69.6147 80.9733 69.6083 80.7718 69.5128C80.86 69.5637 80.9418 69.6529 80.9985 69.7611Z" fill="#F23C3C"/>
<path d="M82.3902 71.4746C82.2769 71.6084 82.1384 71.7612 81.9746 71.9204L81.8865 71.7485L82.3902 71.4746Z" fill="#F23C3C"/>
<path d="M73.8902 77.9523C70.5969 80.1306 66.5921 82.6209 62.2158 85.1685L58.8218 85.6144L71.7619 70.0674L73.8902 77.9523Z" fill="#F7C57C"/>
<path d="M74.9608 66.2197L71.762 70.0603L58.8219 85.6073L44.1942 87.5308L46.4296 83.5437C49.7859 81.8177 53.6647 79.6968 57.7451 77.3147C65.0558 73.0665 71.3275 68.9839 74.9608 66.2197Z" fill="#F2AB55"/>
<path d="M58.8209 85.6138L62.2149 85.168C50.2886 92.1167 40.1317 96.8999 39.5334 95.849L44.1995 87.5373L58.8209 85.6138Z" fill="#F9E1B8"/>
<path d="M40.8055 95.8557C40.6795 95.8875 40.5662 95.913 40.4591 95.9321C40.0939 96.0022 39.8231 96.0149 39.6657 95.9512C39.6027 95.9257 39.5586 95.8939 39.5334 95.8493L39.8798 95.2315L40.7866 95.2188L40.8055 95.8557Z" fill="#F9E1B8"/>
<path d="M41.8008 92.8807L42.3927 93.9953L41.7882 94.3392L41.1145 93.1036L41.0641 93.1291L41.4167 92.5049L41.7819 91.8553L41.8575 91.9954L42.5627 91.626L42.9028 92.2629L42.3109 92.575C42.0653 92.7024 41.7882 92.696 41.5552 92.5877C41.6497 92.6578 41.7379 92.7533 41.8008 92.8807Z" fill="#F9E1B8"/>
<path d="M42.9534 95.1169C42.7456 95.1996 42.5441 95.2761 42.3552 95.3461L42.7645 94.9258L42.9534 95.1169Z" fill="#F9E1B8"/>
<path d="M43.237 90.4479L42.6325 90.7918L42.5002 90.5562L42.9095 89.8301L43.237 90.4479Z" fill="#F9E1B8"/>
<path d="M43.7413 88.7213L43.4446 88.8742L43.6403 88.5303L43.7413 88.7213Z" fill="#F9E1B8"/>
<path d="M46.2338 92.4799L47.4302 92.8429L47.342 93.1614C47.172 93.2442 47.0083 93.3206 46.8383 93.4034C46.4416 93.5945 46.0575 93.7728 45.686 93.9384L45.6671 93.9002L44.9807 93.7027L45.1759 93.0531C45.2578 92.7792 45.4593 92.5818 45.7048 92.4926C45.5726 92.5181 45.4404 92.5054 45.3019 92.4671L44.137 92.0914L44.3385 91.4162L45.6482 91.8239L45.8875 91.0596L46.5675 91.2698L46.366 91.913C46.2841 92.1805 46.0826 92.3716 45.8434 92.4608C45.9693 92.4353 46.1015 92.4417 46.2338 92.4799Z" fill="#F9E1B8"/>
<path d="M48.8918 89.2006L48.2243 89.1751C47.9473 89.1623 47.708 89.0222 47.5632 88.8057C47.6198 88.9203 47.645 89.0541 47.645 89.1942L47.6135 90.4553L46.9209 90.4489L46.9398 89.0413L46.1464 89.0222L46.1527 88.3025L46.8201 88.3216C47.1035 88.328 47.3491 88.4745 47.4939 88.691C47.4372 88.57 47.4057 88.4363 47.412 88.2898L47.4624 87.1179L47.8969 87.0605L48.1551 87.0669L48.1173 88.4554L48.9107 88.4872L48.8918 89.2006Z" fill="#F9E1B8"/>
<path d="M49.3075 92.2002C48.9926 92.3595 48.6841 92.5123 48.3818 92.6589L48.3629 92.6206L48.9548 92.3021C49.0619 92.2384 49.1878 92.2066 49.3075 92.2002Z" fill="#F9E1B8"/>
<path d="M50.8621 91.4092C50.4087 91.6448 49.9616 91.8678 49.5272 92.0907C49.502 92.0525 49.4768 92.0142 49.4579 91.976L48.8975 90.8742L49.5083 90.543L50.1568 91.7658L50.8621 91.3964V91.4092Z" fill="#F9E1B8"/>
<path d="M51.637 86.9514L52.2289 88.066L51.6244 88.4099L50.9506 87.1743L50.2516 87.5565L49.9053 86.9259L50.239 86.7476L51.2906 86.6075H51.297L52.5312 86.4482L52.1408 86.6521C51.8952 86.7794 51.6181 86.7731 51.3851 86.6648C51.4796 86.7285 51.5677 86.8304 51.637 86.9514Z" fill="#F9E1B8"/>
<path d="M53.777 89.8818C53.5692 89.9965 53.3551 90.1048 53.1473 90.213L52.631 89.2003L53.2418 88.8691L53.777 89.8818Z" fill="#F9E1B8"/>
<path d="M56.5736 88.3655C56.3532 88.4865 56.1265 88.6075 55.9061 88.7284L55.2827 88.5501L55.4653 87.8496L56.1076 88.0343C56.3091 88.098 56.4665 88.2126 56.5736 88.3655Z" fill="#F9E1B8"/>
<path d="M57.7263 87.1618L57.5374 87.8305C57.2477 87.9898 56.958 88.149 56.6747 88.3082C56.681 88.2573 56.6936 88.2063 56.7062 88.1554L57.0651 86.9707L57.7263 87.1618Z" fill="#F9E1B8"/>
<path d="M57.7256 85.7539L57.0393 86.1297L56.8945 85.8685L57.7256 85.7539Z" fill="#F9E1B8"/>
<path d="M59.0228 86.6386L58.4121 86.9825L57.7446 85.7533L58.5002 85.6514L59.0228 86.6386Z" fill="#F9E1B8"/>
<path d="M46.4296 83.5508L44.1942 87.5378L39.5345 95.8495L35.0637 88.0092C35.4604 88.697 39.9879 86.8627 46.4296 83.5508Z" fill="#F23C3C"/>
<path d="M38.1925 84.7668C41.8196 81.9771 48.2361 77.799 55.5846 73.5189C62.889 69.2644 69.5323 65.8187 73.7197 64.029C74.5383 63.6787 75.2562 63.392 75.8733 63.1755C77.2586 62.6914 78.1087 62.5513 78.2661 62.8316C78.4991 63.2392 77.2586 64.4621 74.9602 66.2136C71.3269 68.9778 65.0552 73.0604 57.7508 77.3149C53.6641 79.697 49.7915 81.8179 46.4352 83.5439C39.9872 86.8558 35.466 88.6901 35.0693 87.9959C34.9119 87.7157 35.4597 87.0405 36.5742 86.0788C37.0213 85.6903 37.5629 85.2508 38.1925 84.7668Z" fill="#F7C57C"/>
<path d="M73.7198 64.0353C70.7477 65.3028 66.5476 67.4046 61.7494 70.035C61.4345 70.207 61.1197 70.379 60.7985 70.5573C60.0492 70.9713 59.2873 71.398 58.5191 71.8375C58.1413 72.054 57.7571 72.2706 57.3667 72.4935C56.7811 72.8311 56.1829 73.175 55.5847 73.5253C54.086 74.3979 52.6314 75.2641 51.2272 76.1175C49.4893 77.1748 47.8269 78.213 46.2842 79.2002C46.026 79.3658 45.7741 79.5314 45.5222 79.6906C44.4329 80.3976 43.4128 81.0727 42.4556 81.7224C42.1156 81.9516 41.7819 82.1809 41.4607 82.4038C40.2139 83.27 39.112 84.0662 38.1926 84.7732L38.6586 79.7225L38.879 77.3213L38.9105 76.9774L39.0238 75.7418L40.0817 64.1882L40.195 62.9717L40.2139 62.7424L41.8322 62.2201L43.1357 61.7998L45.1948 61.1374L45.2704 61.1119L47.405 60.424L48.614 60.0292L51.5169 59.0929L51.6239 59.0611C51.9262 58.9655 52.2284 58.8764 52.5307 58.7936C55.7484 57.9401 59.0921 58.0038 62.1713 58.9783C62.5365 59.0929 62.8891 59.2203 63.248 59.3604C63.2543 59.3604 63.2606 59.3668 63.2669 59.3668C63.4999 59.4559 63.7329 59.5578 63.9596 59.6598L64.4004 59.8572L67.4796 61.2393L67.5362 61.2648L73.7198 64.0353Z" fill="#F9E1B8"/>
<path d="M41.0898 28.4062L40.8127 32.2787L40.7812 32.7181L40.5357 36.1447L40.4601 37.1765L40.4223 37.737L40.3656 38.5204L40.0571 42.8514L40.0004 43.6539L39.9563 44.2845L39.8871 45.2462L39.8493 45.8131L36.9716 44.4437L35.4351 43.7113L35.4288 43.7049L33.8798 42.9661L32.7904 42.4438C32.5826 42.3483 32.3937 42.2336 32.2174 42.1062C32.1922 42.0871 32.167 42.068 32.1418 42.0489C31.7514 41.7559 31.4429 41.3993 31.2036 41.0044C31.0777 40.7942 30.9769 40.5777 30.895 40.3547C30.385 38.9472 30.7061 37.2593 31.9844 36.1766L32.7023 35.5651L33.2564 35.0938L35.7752 32.9474L36.3293 32.4761L38.974 30.2215L39.5156 29.7565L41.0898 28.4062Z" fill="#F9E1B8"/>
<path d="M41.2528 46.4688L75.8732 63.1878C75.2561 63.4043 74.532 63.6909 73.7197 64.0412L63.9594 59.6593C60.1435 57.946 55.742 57.7358 51.6238 59.067L40.2138 62.7483L38.1925 84.7791C37.5628 85.2631 37.0213 85.7026 36.5679 86.0975C36.5679 86.0593 36.5616 86.0211 36.5679 85.9828L39.5022 47.4879L7.72803 31.7307C10.7505 30.4696 15.1962 28.2595 20.303 25.4508C20.6367 25.2661 20.9767 25.0814 21.3168 24.8903C22.9225 23.9986 24.5849 23.056 26.285 22.0624C33.7406 17.7187 40.1319 13.5533 43.7212 10.7891L41.2528 46.4688ZM39.8486 45.8128L41.0891 28.406L31.9774 36.17C29.9058 37.9342 30.3402 41.278 32.7897 42.4436L39.8486 45.8128Z" fill="white"/>
<path d="M33.2501 35.0879L33.4264 35.2408C33.6405 35.4255 33.735 35.6993 33.7161 35.9605C33.7098 36.0114 33.7035 36.056 33.6909 36.1069C33.6594 36.2343 33.5964 36.349 33.5083 36.4572L32.6897 37.4126L32.1544 36.9604L33.0549 35.884L32.696 35.5656L33.2501 35.0879Z" fill="#FAF2EB"/>
<path d="M34.7233 34.6797L33.9047 35.6032C33.5899 35.9535 33.6214 36.5012 33.9677 36.8133L34.4652 37.2655L34.9311 36.7178L34.3392 36.1828L35.2397 35.1383L34.7233 34.6797Z" fill="#FAF2EB"/>
<path d="M36.7078 32.8264L36.2418 33.3678L35.7695 32.941L36.3237 32.4697L36.7078 32.8264Z" fill="#FAF2EB"/>
<path d="M40.8255 32.5088L40.8003 32.6617C40.794 32.6808 40.7877 32.6999 40.7814 32.7253C40.7499 32.8272 40.6932 32.9228 40.624 33.0056L39.8054 33.9609L39.2701 33.5087L40.1706 32.4324L39.5724 31.9037L40.0321 31.3496L40.5358 31.7954C40.6869 31.9292 40.7814 32.1012 40.8129 32.2795L40.8255 32.5088Z" fill="#FAF2EB"/>
<path d="M40.8246 32.5078C40.8123 32.5586 40.8062 32.6093 40.8 32.6601L40.8246 32.5078Z" fill="#FAF2EB"/>
<path d="M37.2492 41.6787L37.2806 40.4176C37.2932 39.9463 36.9217 39.5514 36.4557 39.5386L35.7883 39.5195L35.782 40.2392L36.5754 40.2583L36.5565 41.6723L37.2492 41.6787Z" fill="#FAF2EB"/>
<path d="M37.1047 38.2656L37.0543 39.5012C37.0354 39.9725 37.4006 40.3737 37.8666 40.3929L38.534 40.4183L38.5529 39.6986L37.7595 39.6668L37.7973 38.2784L37.1047 38.2656Z" fill="#FAF2EB"/>
<path d="M31.204 41.0039L31.6007 40.7874L32.2556 41.9848L32.2745 42.023L32.879 41.679L32.2871 40.5645C32.2241 40.4435 32.1297 40.3415 32.0289 40.2651C31.9911 40.2396 31.947 40.2142 31.9093 40.1951C31.6763 40.0804 31.3866 40.0804 31.141 40.2142L30.8892 40.3479L31.204 41.0039Z" fill="#FAF2EB"/>
<path d="M31.0847 38.7882L31.6451 39.8901C31.8592 40.3105 32.3693 40.4761 32.7912 40.2595L33.3831 39.9474L33.0431 39.3105L32.3378 39.6799L31.6955 38.457L31.0847 38.7882Z" fill="#FAF2EB"/>
<path d="M39.6611 30.0434L39.0566 30.3874L38.9622 30.2154L39.51 29.7568L39.6611 30.0434Z" fill="#FAF2EB"/>
<path d="M39.8873 45.2458L39.7236 45.335L39.0498 44.0994L38.3508 44.4815L38.0045 43.851L38.5901 43.5325C38.8357 43.3988 39.1191 43.3988 39.3584 43.5134C39.4024 43.5325 39.4402 43.558 39.478 43.5835C39.585 43.6599 39.6732 43.7554 39.7362 43.8828L39.9503 44.2841L39.8873 45.2458Z" fill="#FAF2EB"/>
<path d="M40.0573 42.8576L40.0006 43.6601C39.8243 43.692 39.6417 43.6665 39.478 43.5901C39.4339 43.571 39.3961 43.5455 39.3583 43.52C39.2513 43.4436 39.1568 43.3417 39.0939 43.2143L38.5334 42.1124L39.1442 41.7812L39.7928 43.0041L40.0573 42.8576Z" fill="#FAF2EB"/>
<path d="M40.1264 37.8328C40.2208 37.7819 40.3216 37.75 40.4223 37.7373L40.3657 38.5207L39.8871 38.7819L39.5408 38.1513L40.1264 37.8328Z" fill="#FAF2EB"/>
<path d="M40.0698 36.4052L40.5358 36.1504L40.4665 37.1759L40.0698 36.4052Z" fill="#FAF2EB"/>
<path d="M36.3735 35.565L37.6014 35.3293C38.0611 35.2402 38.3634 34.7943 38.2815 34.3294L38.1556 33.667L37.4566 33.8135L37.6014 34.6033L36.235 34.8835L36.3735 35.565Z" fill="#FAF2EB"/>
<path d="M39.6358 34.7051L38.4268 34.9153C37.9671 34.9981 37.6523 35.4375 37.7342 35.9025L37.8475 36.5712L38.5527 36.4375L38.4205 35.6477L39.7681 35.3929L39.6358 34.7051Z" fill="#FAF2EB"/>
<path d="M37.0725 44.0737L36.9718 44.4368L35.4353 43.7043C35.4038 43.7107 35.3787 43.7171 35.3472 43.7235C35.3724 43.7171 35.3975 43.7043 35.429 43.698C35.4479 43.6916 35.4731 43.6852 35.492 43.6852C35.6179 43.6661 35.7502 43.6725 35.8761 43.7107L37.0725 44.0737Z" fill="#FAF2EB"/>
<path d="M35.3471 43.7235C35.3786 43.7172 35.4038 43.7108 35.4353 43.7044C35.4542 43.6981 35.4731 43.6917 35.4919 43.6853C35.7312 43.5962 35.9327 43.4051 36.0146 43.1376L36.2161 42.4944L35.5297 42.2842L35.2904 43.0484L33.9807 42.6408L33.8862 42.9593L35.3471 43.7235Z" fill="#FAF2EB"/>
<path d="M4.7809 27.4251L4.96981 26.6481C5.03907 26.3551 4.86276 26.0621 4.5731 25.9857L4.15751 25.8838L4.05676 26.3296L4.54792 26.4506L4.34642 27.3232L4.7809 27.4251Z" fill="#F9E1B9"/>
<path d="M5.14496 25.2852L4.94346 26.0494C4.8679 26.3424 5.03792 26.6418 5.32757 26.7182L5.73688 26.8265L5.84392 26.3806L5.35276 26.2533L5.56686 25.3934L5.14496 25.2852Z" fill="#F9E1B9"/>
<path d="M8.18689 27.6987L7.86575 28.0553L7.79648 27.9088L7.3431 28.1318L7.1416 27.7178L7.52571 27.5331C7.68943 27.4566 7.86575 27.463 8.01687 27.5458C8.04206 27.5585 8.06725 27.5776 8.09244 27.5967C8.12392 27.6222 8.1617 27.6604 8.18689 27.6987Z" fill="#F9E1B9"/>
<path d="M8.77945 27.0553L8.23792 27.6476C8.18754 27.6349 8.13087 27.6158 8.08679 27.5903C8.0616 27.5776 8.03642 27.5585 8.01123 27.5394C7.94826 27.4884 7.89159 27.4183 7.85381 27.3355L7.52637 26.6159L7.92307 26.4248L8.30089 27.2209L8.76056 27.0044L8.77945 27.0553Z" fill="#F9E1B9"/>
<path d="M6.10919 29.7946L5.45431 29.336C5.20873 29.164 4.875 29.2277 4.70498 29.4761L4.4657 29.8328L4.84351 30.0876L5.13317 29.6672L5.86991 30.1704L6.10919 29.7946Z" fill="#F9E1B9"/>
<path d="M4.26404 28.6858L4.90003 29.1444C5.14561 29.3228 5.47934 29.2654 5.65566 29.017L5.90124 28.6667L5.52972 28.4056L5.23376 28.8196L4.51591 28.3164L4.26404 28.6858Z" fill="#F9E1B9"/>
<path d="M3.28168 29.1256L2.6268 28.6671C2.38122 28.4951 2.04748 28.5588 1.87747 28.8072L1.63818 29.1638L2.016 29.4186L2.30566 28.9982L3.04239 29.5014L3.28168 29.1256Z" fill="#F9E1B9"/>
<path d="M1.43652 28.0169L2.07251 28.4755C2.31809 28.6538 2.65183 28.5965 2.82814 28.3481L3.07372 27.9978L2.7022 27.7366L2.40625 28.1506L1.6884 27.6475L1.43652 28.0169Z" fill="#F9E1B9"/>
<path d="M10.1452 25.5459L9.83667 25.8834L9.53442 25.6796L9.24476 26.1L8.86694 25.8452L9.10623 25.4886C9.20698 25.3421 9.3707 25.2593 9.54071 25.2529C9.5722 25.2529 9.59738 25.2529 9.62887 25.2593C9.71073 25.272 9.78629 25.3039 9.86186 25.3485L10.1452 25.5459Z" fill="#F9E1B9"/>
<path d="M8.67151 24.6995L9.3075 25.158C9.55308 25.3364 9.88681 25.2791 10.0631 25.0307L10.3087 24.6804L9.93719 24.4192L9.64123 24.8332L8.92339 24.3301L8.67151 24.6995Z" fill="#F9E1B9"/>
<path d="M12.9595 22.457L12.8588 22.5717L12.3865 23.094L12.3173 23.0494L12.5565 22.6927C12.651 22.5462 12.8021 22.4698 12.9595 22.457Z" fill="#F9E1B9"/>
<path d="M13.5833 21.7694L12.9599 22.4509C12.8844 22.4381 12.8088 22.4063 12.7458 22.3553L12.1099 21.8968L12.3617 21.5273L13.0796 22.0305L13.3755 21.6165L13.5833 21.7694Z" fill="#F9E1B9"/>
<path d="M7.1539 24.5336C7.1476 24.5655 7.13501 24.591 7.12241 24.6164C7.08463 24.6929 7.03426 24.7566 6.96499 24.8075L6.33529 25.2979L6.05823 24.9476L6.75089 24.3872L6.69422 24.3107C6.83275 24.247 6.97129 24.1833 7.10982 24.1133C7.17909 24.2534 7.19168 24.3999 7.1539 24.5336Z" fill="#F9E1B9"/>
<path d="M7.94093 23.8652L7.31754 24.3366C7.07826 24.5149 7.02789 24.8588 7.2105 25.1008L7.46867 25.4448L7.82759 25.1645L7.52534 24.7569L8.21799 24.2155L7.94093 23.8652Z" fill="#F9E1B9"/>
<path d="M5.05095 30.5713L5.37209 30.8006L5.06984 31.1318L4.79907 30.9407L5.05095 30.5713Z" fill="#F9E1B9"/>
<path d="M2.96643 31.6352L3.33165 31.4823L3.68428 32.3103L4.08728 32.1319L3.78503 31.3868C3.75355 31.304 3.69687 31.2339 3.63391 31.1766C3.61501 31.1575 3.58983 31.1448 3.57094 31.1257C3.42611 31.0365 3.2498 31.0174 3.07978 31.0874L2.73975 31.2339L2.96643 31.6352Z" fill="#F9E1B9"/>
<path d="M3.13098 30.1827L3.41434 30.9152C3.52139 31.1954 3.83624 31.3356 4.1133 31.2209L4.51001 31.0617L4.33369 30.6349L3.86142 30.826L3.52769 30.0107L3.13098 30.1827Z" fill="#F9E1B9"/>
<path d="M3.3828 25.7627L3.52763 26.0302L2.74681 26.4569L2.98609 26.9091L2.58939 27.1321L2.38789 26.7499C2.30603 26.5907 2.30603 26.406 2.38159 26.2531C2.39419 26.2213 2.41308 26.1958 2.43197 26.1703C2.45086 26.1448 2.46975 26.1194 2.49494 26.0939L3.3828 25.7627Z" fill="#F9E1B9"/>
<path d="M2.45034 26.1133C2.44404 26.1324 2.43774 26.1515 2.42515 26.177C2.41256 26.2088 2.39367 26.2343 2.37477 26.2598C2.3244 26.3298 2.26143 26.3872 2.17957 26.4254L1.48061 26.782L1.31689 26.47C1.64433 26.3808 2.02215 26.2661 2.45034 26.1133Z" fill="#F9E1B9"/>
<path d="M10.9768 22.4443L11.2161 22.8965L10.8194 23.1194L10.6178 22.7373C10.5675 22.6418 10.5486 22.5399 10.5549 22.4443C10.9201 22.2596 11.2979 22.0685 11.6757 21.8711L11.7576 22.0176L10.9768 22.4443Z" fill="#F9E1B9"/>
<path d="M26.4812 13.5479C26.0026 13.8345 25.5178 14.1274 25.0266 14.4141L25.2722 14.7007L26.2356 13.8982C26.3427 13.809 26.4182 13.7007 26.4686 13.5861C26.4749 13.5733 26.4812 13.5606 26.4812 13.5479Z" fill="#F9E1B9"/>
<path d="M26.4874 13.5475C26.9849 13.2481 27.476 12.9488 27.9609 12.6494L28.1624 12.8978L27.1045 13.7767L27.602 14.4009L27.0479 14.8595L26.6323 14.3309C26.4622 14.1143 26.4119 13.8341 26.4748 13.5857C26.4748 13.5729 26.4811 13.5602 26.4874 13.5475Z" fill="#F9E1B9"/>
<path d="M21.4946 21.8972L21.7339 20.6552C21.8221 20.1902 21.5198 19.738 21.0601 19.6489L20.4052 19.5215L20.2793 20.2348L21.0601 20.3877L20.8145 21.7761L21.4946 21.8972Z" fill="#F9E1B9"/>
<path d="M21.9036 18.5088L21.6518 19.7189C21.5573 20.1839 21.847 20.6361 22.3066 20.738L22.9615 20.8781L23.1 20.1648L22.3255 19.9992L22.59 18.6362L21.9036 18.5088Z" fill="#F9E1B9"/>
<path d="M17.181 21.1714L16.5262 21.407L16.0602 20.0759L15.3109 20.337L15.1975 20.0058C15.5438 19.8211 15.8965 19.6301 16.2491 19.4326C16.3247 19.4581 16.4002 19.4963 16.4695 19.5409C16.5073 19.5664 16.5451 19.5982 16.5828 19.6364C16.671 19.7256 16.7466 19.8402 16.7906 19.974L17.181 21.1714Z" fill="#F9E1B9"/>
<path d="M17.9611 19.5472L17.3251 19.7574C17.0607 19.8402 16.7899 19.7892 16.5821 19.6427C16.5443 19.6172 16.5065 19.5854 16.4751 19.5536C16.4247 19.5026 16.3869 19.4517 16.3491 19.3943C16.5506 19.2797 16.7584 19.1714 16.9662 19.0568L16.9851 19.1205L17.7407 18.8721L17.9611 19.5472Z" fill="#F9E1B9"/>
<path d="M31.3615 11.6057L31.034 12.2235L29.8061 11.5547L29.422 12.2553L28.9875 12.0197C29.2583 11.8541 29.5228 11.6885 29.7873 11.5229C30.0139 11.3828 30.2406 11.2363 30.461 11.1025L31.3615 11.6057Z" fill="#F9E1B9"/>
<path d="M34.239 10.1149L33.7541 10.6691L33.603 10.5863L33.2315 11.255L33.2126 11.2869L33.2063 11.2805L32.5829 10.9429L32.9103 10.3506C33.0489 10.1022 33.2881 9.94935 33.5463 9.9175C33.5967 9.91113 33.6408 9.91113 33.6911 9.91113C33.8171 9.9175 33.943 9.94935 34.0627 10.0194L34.239 10.1149Z" fill="#F9E1B9"/>
<path d="M33.8052 8.94919L33.6352 9.24853L33.4841 9.15937C33.2637 9.30586 33.037 9.45235 32.8103 9.59884L33.1629 9.80265C33.2889 9.87271 33.4211 9.91092 33.5533 9.91729C33.6037 9.91729 33.6478 9.91729 33.6982 9.91092C33.95 9.87908 34.1893 9.72622 34.3216 9.49056L34.6553 8.9046L34.2334 8.66895L33.8052 8.94919Z" fill="#F9E1B9"/>
<path d="M21.8845 24.1646L21.9335 24.1523L21.8906 24.1952L21.8845 24.1646Z" fill="#F9E1B9"/>
<path d="M23.4017 22.4713L22.8665 23.0891L22.6902 22.535L23.3514 22.3057L23.4017 22.4713Z" fill="#F9E1B9"/>
<path d="M26.1223 19.3754L25.5871 19.9869L25.3226 19.2289L24.5733 19.4837L24.334 18.8022L24.97 18.5856C25.2344 18.4964 25.5115 18.541 25.7256 18.6939C25.7697 18.7257 25.8075 18.7576 25.8389 18.7894C25.9271 18.8786 26.0027 18.9932 26.0404 19.1206L26.1223 19.3754Z" fill="#F9E1B9"/>
<path d="M26.5193 18.9168C26.2737 18.9805 26.0281 18.9232 25.8329 18.7894C25.7888 18.7576 25.7511 18.7257 25.7196 18.6939C25.6251 18.5984 25.5559 18.4837 25.5118 18.35L25.1403 17.1717L25.7951 16.9424L26.2296 18.2608L26.9853 18.0124L27.0797 18.2863L26.5193 18.9168Z" fill="#F9E1B9"/>
<path d="M23.5908 15.2666C23.5341 15.3621 23.4586 15.4513 23.3704 15.5214C23.3326 15.5532 23.2948 15.5787 23.2508 15.5978C23.1374 15.6551 23.0115 15.6933 22.8729 15.6933H22.8604C23.0996 15.5532 23.3452 15.4131 23.5908 15.2666Z" fill="#F9E1B9"/>
<path d="M24.989 15.4199H23.7611C23.2951 15.4199 22.911 15.8084 22.9173 16.2798L22.9236 16.9549L23.6352 16.9421V16.1396L25.0079 16.1142L24.989 15.4199Z" fill="#F9E1B9"/>
<path d="M20.9276 24.235L19.8067 23.6745C19.3848 23.4643 18.8748 23.6363 18.6733 24.063L18.3773 24.6681L19.0259 24.9802L19.3785 24.2605L20.6379 24.8656L20.9276 24.235Z" fill="#F9E1B9"/>
<path d="M17.8038 22.9361L18.8932 23.5029C19.3088 23.7195 19.8188 23.5539 20.0329 23.1335L20.3352 22.5284L19.6929 22.21L19.3277 22.9233L18.0998 22.3055L17.8038 22.9361Z" fill="#F9E1B9"/>
<path d="M15.4554 23.5727L13.8308 22.9421L14.2968 22.7829C14.5613 22.6937 14.8383 22.7383 15.0524 22.8912C15.0902 22.9166 15.128 22.9485 15.1658 22.9867C15.2539 23.0759 15.3295 23.1905 15.3736 23.3243L15.4554 23.5727Z" fill="#F9E1B9"/>
<path d="M14.4733 21.3689L14.8448 22.5472C14.9896 22.9994 15.4682 23.2478 15.909 23.1014L16.545 22.8912L16.3183 22.2097L15.5626 22.4581L15.1281 21.1396L14.4733 21.3689Z" fill="#F9E1B9"/>
<path d="M30.3669 14.5349L29.7246 15.261L29.1831 15.8852L28.2385 15.7196L28.3456 15.0254L29.6994 15.2419L29.8316 14.4521L30.3669 14.5349Z" fill="#F9E1B9"/>
<path d="M31.8527 12.7646L31.9078 12.7708L31.8405 12.8443L31.8527 12.7646Z" fill="#F9E1B9"/>
<path d="M47.6384 89.1876L47.6069 90.4487L46.9142 90.4423L46.9331 89.0347L46.1396 89.0156L46.1459 88.2959L46.8134 88.315C47.0968 88.3214 47.3424 88.4679 47.4872 88.6844C47.5124 88.7226 47.5376 88.7672 47.5565 88.8054C47.6132 88.9201 47.6446 89.0538 47.6384 89.1876Z" fill="#F7C57C"/>
<path d="M48.9094 88.4736L48.8905 89.1933L48.223 89.1678C47.946 89.1551 47.7067 89.015 47.5618 88.7984C47.5366 88.7602 47.5115 88.7156 47.4926 88.6774C47.4359 88.5564 47.4044 88.4226 47.4107 88.2762L47.4611 87.1042V87.0342L47.8956 87.0469L48.1538 87.0533L48.116 88.4418L48.9094 88.4736Z" fill="#F7C57C"/>
<path d="M43.2365 90.4479L42.632 90.7918L42.4998 90.5562L42.9091 89.8301L43.2365 90.4479Z" fill="#F7C57C"/>
<path d="M43.7411 88.7223L43.4443 88.8752L43.6401 88.5312L43.7411 88.7223Z" fill="#F7C57C"/>
<path d="M48.948 92.3011C49.0614 92.2374 49.181 92.2056 49.307 92.1992C48.9921 92.3585 48.6836 92.5114 48.3813 92.6579L48.3624 92.6197L48.948 92.3011Z" fill="#F7C57C"/>
<path d="M50.8621 91.4101C50.4087 91.6458 49.9616 91.8687 49.5272 92.0916C49.502 92.0534 49.4768 92.0152 49.4579 91.977L48.8975 90.8751L49.5083 90.5439L50.1568 91.7668L50.8621 91.3974V91.4101Z" fill="#F7C57C"/>
<path d="M52.2224 88.0665L51.6179 88.4104L50.9441 87.1748L50.2451 87.557L49.8988 86.9264L50.2325 86.7481L51.2589 86.5889C51.2715 86.5952 51.2841 86.6016 51.2967 86.608C51.3282 86.6271 51.3597 86.6398 51.3849 86.6653C51.4919 86.7417 51.5801 86.8373 51.6431 86.9583L52.2224 88.0665Z" fill="#F7C57C"/>
<path d="M52.5242 86.4424L52.1338 86.6461C51.8882 86.7734 51.6111 86.767 51.3781 86.6588C51.3467 86.6461 51.3152 86.627 51.2837 86.6079C51.2711 86.6015 51.2648 86.5952 51.2522 86.5888C51.2648 86.5952 51.2774 86.6015 51.29 86.6079L52.5242 86.4424Z" fill="#F7C57C"/>
<path d="M53.777 89.8809C53.5692 89.9955 53.3551 90.1038 53.1473 90.2121L52.631 89.1994L53.2418 88.8682L53.777 89.8809Z" fill="#F7C57C"/>
<path d="M56.5731 88.3655C56.3527 88.4865 56.126 88.6075 55.9056 88.7284L55.2822 88.5501L55.4648 87.8496L56.1071 88.0343C56.3086 88.098 56.4661 88.2126 56.5731 88.3655Z" fill="#F7C57C"/>
<path d="M57.7255 87.1618L57.5366 87.8305C57.247 87.9898 56.9573 88.149 56.674 88.3082C56.6802 88.2573 56.6928 88.2063 56.7054 88.1554L57.0644 86.9707L57.7255 87.1618Z" fill="#F7C57C"/>
<path d="M56.8945 85.8685L57.7256 85.7539L57.0393 86.1297L56.8945 85.8685Z" fill="#F7C57C"/>
<path d="M59.0228 86.6396L58.4121 86.9835L57.7446 85.7543L58.5002 85.6523L59.0228 86.6396Z" fill="#F7C57C"/>
<path d="M47.4235 92.8491L47.3354 93.1676L47.2346 93.5243L46.8316 93.4096L45.8933 93.1357L45.6666 93.9064L44.9802 93.709L45.1754 93.0593C45.2573 92.7855 45.4588 92.588 45.7044 92.4988C45.7485 92.4797 45.7989 92.467 45.8492 92.4606C45.9752 92.4415 46.1074 92.4479 46.2334 92.4861L47.4235 92.8491Z" fill="#F7C57C"/>
<path d="M46.5738 91.2644L46.3723 91.9076C46.2904 92.1751 46.0889 92.3662 45.8497 92.4554C45.8056 92.4745 45.7552 92.4872 45.7048 92.4936C45.5726 92.519 45.4404 92.5063 45.3018 92.4681L44.137 92.0923L44.3385 91.4172L45.6482 91.8248L45.8874 91.0605L46.5738 91.2644Z" fill="#F7C57C"/>
<path d="M42.3925 93.9894L41.7879 94.3333L41.1141 93.0977L41.0637 93.1232L41.4164 92.499C41.4164 92.499 41.4227 92.499 41.429 92.5054C41.473 92.5245 41.5108 92.55 41.5549 92.5818C41.662 92.6583 41.7501 92.7538 41.8131 92.8748L42.3925 93.9894Z" fill="#F7C57C"/>
<path d="M42.8902 92.2638L42.2983 92.5759C42.0527 92.7033 41.7756 92.6969 41.5426 92.5886C41.4986 92.5695 41.4545 92.5441 41.4167 92.5122L41.4104 92.5059L41.7756 91.8562L41.8512 91.9963L42.5564 91.627L42.8902 92.2638Z" fill="#F7C57C"/>
<path d="M40.8057 95.9257L40.453 95.9321L39.6596 95.9512C39.5966 95.9257 39.5525 95.8939 39.5273 95.8493L39.8737 95.2315L40.7805 95.2188L40.7994 95.8493L40.8057 95.9257Z" fill="#F7C57C"/>
<path d="M42.764 94.9258L42.9529 95.1169C42.7451 95.1996 42.5436 95.2761 42.3547 95.3461L42.764 94.9258Z" fill="#F7C57C"/>
<path d="M74.3134 67.793C74.3071 67.8376 74.3008 67.8758 74.2945 67.9204C74.2693 68.035 74.2126 68.1369 74.1308 68.2325L73.4067 69.0732L72.9344 68.672L73.7278 67.7165L73.7152 67.7038L74.1182 67.2197C74.2693 67.3853 74.3323 67.5892 74.3134 67.793Z" fill="#F7C57C"/>
<path d="M74.873 67.9903L75.3957 68.468L74.9801 68.9521L74.5393 68.5508C74.3566 68.3852 74.2748 68.1496 74.2937 67.9203C74.3 67.8757 74.3063 67.8375 74.3126 67.7929C74.3441 67.6782 74.3944 67.57 74.4826 67.4744L75.2068 66.6592L75.6728 67.0668L74.873 67.9903Z" fill="#F7C57C"/>
<path d="M76.9575 65.0222L76.5419 65.5064L76.2271 65.2197C76.4034 65.0732 76.5671 64.9394 76.7182 64.8057L76.9575 65.0222Z" fill="#F7C57C"/>
<path d="M79.5956 65.1758L79.923 65.7554L79.6963 66.0229L79.2241 65.6216L79.5956 65.1758Z" fill="#F7C57C"/>
<path d="M77.4676 71.7356L77.4424 72.8502L76.8317 72.8438L76.8443 71.5955L76.1454 71.5764L76.1517 70.9395L76.7435 70.9522C76.9954 70.9586 77.2095 71.0859 77.3417 71.277C77.3669 71.3089 77.3858 71.3471 77.4047 71.3853C77.4424 71.4999 77.4676 71.6146 77.4676 71.7356Z" fill="#F7C57C"/>
<path d="M78.5887 71.1039L78.5698 71.7408L77.9779 71.7153C77.7324 71.7026 77.5246 71.5816 77.3923 71.3905C77.3672 71.3587 77.3483 71.3204 77.3294 71.2822C77.279 71.174 77.2538 71.0529 77.2601 70.9256L77.3042 69.8301L77.915 69.8428L77.8835 71.0721L78.5887 71.1039Z" fill="#F7C57C"/>
<path d="M73.5755 72.85L73.0403 73.1557L72.4421 72.0666L72.3225 72.1303L72.1525 71.5061C72.3414 71.4424 72.5366 71.4551 72.7129 71.5379C72.7506 71.5571 72.7884 71.5762 72.8262 71.6016C72.9206 71.6653 72.9962 71.7545 73.0529 71.8628L73.5755 72.85Z" fill="#F7C57C"/>
<path d="M74.0167 71.3219L73.494 71.5957C73.28 71.7104 73.0281 71.704 72.8266 71.6021C72.7888 71.583 72.751 71.5639 72.7132 71.5384C72.6188 71.4684 72.5369 71.3792 72.4802 71.2645L71.9828 70.2901L72.5243 69.9971L73.0973 71.0798L73.7207 70.755L74.0167 71.3219Z" fill="#F7C57C"/>
<path d="M78.9855 74.3975C78.7399 74.5822 78.4817 74.7732 78.2172 74.9643L78.1101 74.7732L78.6328 74.4866C78.7399 74.4293 78.8658 74.3975 78.9855 74.3975Z" fill="#F7C57C"/>
<path d="M79.627 73.9071C79.4632 74.0345 79.2995 74.1619 79.1232 74.2892C79.1043 74.2638 79.0854 74.2319 79.0665 74.2001L78.5691 73.2256L79.1106 72.9326L79.627 73.9071Z" fill="#F7C57C"/>
<path d="M81.5221 70.7418L80.9869 71.0475L80.3887 69.9584L79.7716 70.2959L79.463 69.7355L79.9857 69.4552C80.2061 69.3342 80.4579 69.3406 80.6657 69.4425C80.7035 69.4616 80.7413 69.4807 80.7728 69.5062C80.8672 69.5699 80.9428 69.659 80.9995 69.7673L81.5221 70.7418Z" fill="#F7C57C"/>
<path d="M81.5988 68.6848L81.0447 68.9714L80.4717 67.8887L79.9302 68.1816L80.4276 69.1561C80.4843 69.2707 80.5661 69.3599 80.6669 69.43C80.6984 69.4555 80.7361 69.4746 80.7739 69.4937C80.9817 69.5956 81.2273 69.5956 81.4414 69.4809L81.9136 69.2325L81.5988 68.6848Z" fill="#F7C57C"/>
<path d="M82.3913 71.4746C82.278 71.6084 82.1394 71.7612 81.9757 71.9204L81.8876 71.7485L82.3913 71.4746Z" fill="#F7C57C"/>
<path d="M78.1541 67.0101C78.1226 67.0419 78.0911 67.0738 78.0596 67.0992C77.9714 67.1693 77.8644 67.2202 77.7448 67.2393L76.6617 67.4432L76.5358 66.8381L77.7448 66.5897L77.6125 65.8891L78.2296 65.7617L78.3367 66.3477C78.3933 66.6024 78.3115 66.8445 78.1541 67.0101Z" fill="#F7C57C"/>
<path d="M78.4682 67.5189L78.5879 68.2195L77.9645 68.3342L77.8637 67.7418C77.8196 67.4998 77.9015 67.2642 78.0526 67.0986C78.0841 67.0667 78.1156 67.0349 78.1471 67.0094C78.2415 66.9393 78.3486 66.8884 78.4745 66.8693L79.545 66.6846L79.6583 67.296L78.4682 67.5189Z" fill="#F7C57C"/>
<path d="M77.279 74.9709L77.1153 75.5696L75.9315 75.2257L75.73 75.9072L75.1255 75.7288L75.2955 75.1556C75.3648 74.9136 75.5474 74.7352 75.7615 74.6588C75.7993 74.6461 75.8433 74.6333 75.8874 74.627C76.0008 74.6079 76.1141 74.6142 76.2274 74.6461L77.279 74.9709Z" fill="#F7C57C"/>
<path d="M76.523 73.57L76.3467 74.1369C76.2712 74.3726 76.0949 74.5445 75.8808 74.621C75.843 74.6337 75.7989 74.6465 75.7548 74.6528C75.6415 74.6719 75.5156 74.6656 75.3959 74.6273L74.3633 74.2898L74.5396 73.6974L75.6982 74.0541L75.9122 73.3789L76.523 73.57Z" fill="#F7C57C"/>
<path d="M73.2679 74.4555L72.9845 74.602L72.8145 73.9715L72.9719 73.8887L73.2679 74.4555Z" fill="#F7C57C"/>
<path d="M73.8908 77.9516L73.8405 77.7605C73.8782 77.6968 73.9223 77.6395 73.9727 77.5821L74.7534 76.8242L75.0745 77.1554C74.6905 77.4166 74.2938 77.6841 73.8908 77.9516Z" fill="#F7C57C"/>
</svg>
