<svg width="148" height="148" viewBox="0 0 148 148" fill="none" xmlns="http://www.w3.org/2000/svg">
<path d="M0 32C0 16.9151 0 9.37258 4.68629 4.68629C9.37258 0 16.9151 0 32 0H116C131.085 0 138.627 0 143.314 4.68629C148 9.37258 148 16.9151 148 32V116C148 131.085 148 138.627 143.314 143.314C138.627 148 131.085 148 116 148H32C16.9151 148 9.37258 148 4.68629 143.314C0 138.627 0 131.085 0 116V32Z" fill="#FAF2EB"/>
<path d="M73.5864 26.1214C74.0839 27.0385 65.4697 33.0382 54.3305 39.522C43.1786 46.0185 33.7207 50.5469 33.2043 49.6425C32.688 48.7381 41.4785 42.6301 52.4603 36.2355C63.6121 29.739 73.0701 25.2106 73.5864 26.1214Z" fill="#F7C57C"/>
<path d="M74.4107 27.5737C74.4736 27.6884 74.3981 27.8858 74.184 28.1533C72.7105 30.0067 64.9023 35.3058 55.1547 40.9807C45.4134 46.6556 36.9629 50.8337 34.6394 51.1904C34.3056 51.2413 34.0978 51.2159 34.0286 51.1012L33.9908 51.0375L33.5059 50.1841L33.2037 49.6491C33.72 50.5598 43.178 46.025 54.3298 39.5285C65.469 33.0384 74.0832 27.0451 73.5858 26.1279L73.8691 26.6247L74.354 27.4782L74.4107 27.5737Z" fill="#F9E1B8"/>
<path d="M76.2241 27.2993C76.476 27.7388 75.0088 29.1273 72.3515 31.1081C71.747 31.5539 71.0858 32.038 70.368 32.5411C66.678 35.127 61.5145 38.4007 55.7088 41.7827C52.9507 43.3877 50.2808 44.8845 47.8124 46.2156C39.5887 50.6358 33.487 53.2726 33.0273 52.4701C32.895 52.2408 33.2477 51.744 33.997 51.037L34.0348 51.1007C34.0978 51.2154 34.3055 51.2408 34.6456 51.1899C36.9691 50.8332 45.4196 46.6551 55.1609 40.9802C64.9023 35.3053 72.7167 30.0062 74.1902 28.1528C74.4043 27.8853 74.4862 27.6878 74.4169 27.5732L74.3602 27.4713C75.4307 27.1274 76.0856 27.0573 76.2241 27.2993Z" fill="#F7C57C"/>
<path d="M47.8823 46.3437L46.5914 47.764L45.9681 48.4455L45.9618 48.4582L45.861 48.5729L45.3887 49.0951L43.1533 51.5536L42.8448 51.8912L41.7806 53.0631L41.2391 53.6554L41.1887 53.7064L40.8676 54.063L38.374 56.8017L38.0654 57.1393L37.1272 58.1711L36.5982 58.7571L35.9623 57.6425L35.7356 57.2412L33.0279 52.4708C33.1412 52.6682 33.5883 52.6618 34.3251 52.4708C34.6462 52.388 35.024 52.2669 35.4522 52.1205C35.4648 52.1141 35.4774 52.1141 35.49 52.1077L36.3841 51.7702C37.3224 51.4007 38.4369 50.9167 39.6963 50.3307C39.8349 50.267 39.9734 50.2033 40.1119 50.1333C41.1698 49.6365 42.3221 49.0696 43.55 48.4455C43.9153 48.2608 44.2931 48.0697 44.6709 47.8723C44.8976 47.7576 45.1243 47.6366 45.351 47.522C46.1444 47.108 46.963 46.6749 47.8005 46.2227L47.8823 46.3437Z" fill="#F2AB55"/>
<path d="M45.8539 48.5723L53.3031 51.4511C48.1963 54.2599 43.7507 56.47 40.7282 57.7311C38.3228 58.731 36.8178 59.1323 36.6037 58.7501L45.8539 48.5723Z" fill="#F7C57C"/>
<path d="M76.2246 27.2998L79.8012 33.5797L72.352 31.1022C75.0156 29.1277 76.4765 27.7393 76.2246 27.2998Z" fill="#F7C57C"/>
<path d="M79.8005 33.5801C80.0209 33.975 78.8748 35.1278 76.7213 36.7902C73.1258 39.5543 66.7407 43.7197 59.2851 48.0635C57.585 49.0507 55.9226 49.9997 54.3169 50.8914L54.3043 50.8659L70.3677 32.5356C71.0856 32.0324 71.753 31.5547 72.3512 31.1025L79.8005 33.5801Z" fill="#F9E1B8"/>
<path d="M70.3673 32.5352L67.2314 36.1082L66.7465 36.6623L66.2302 37.2547L66.205 37.2801L64.8952 38.7705L64.8323 38.8469L63.3525 40.5348L62.7228 41.2608L62.1813 41.8786L60.0781 44.2798L59.524 44.9167L59.1273 45.3753L58.592 45.9867L56.4133 48.477L55.8781 49.0885L54.9461 50.1521L54.902 50.1967L54.3101 50.8718L54.3227 50.8973C53.9827 51.0884 53.6427 51.2731 53.3089 51.4578L52.0369 50.9674L51.7536 50.8591L48.4666 49.5853L46.842 48.9547L45.866 48.579L47.8873 46.3561L47.818 46.2287C47.9439 46.1587 48.0762 46.0886 48.2021 46.0186C48.5485 45.8339 48.9011 45.6428 49.2537 45.4453C49.2852 45.4262 49.3167 45.4135 49.3482 45.3944C49.5497 45.2797 49.7575 45.1715 49.9653 45.0568C51.8103 44.0378 53.7434 42.9487 55.7206 41.7958C55.771 41.764 55.8151 41.7385 55.8655 41.713C56.111 41.5729 56.3566 41.4264 56.5959 41.2863C57.0808 40.9997 57.5593 40.7195 58.0316 40.4329C58.5228 40.1399 59.0076 39.8533 59.4862 39.5667L59.4925 39.5603C59.9899 39.2609 60.4811 38.9616 60.966 38.6622C61.3123 38.4521 61.6523 38.2419 61.9924 38.0317C62.2631 37.8661 62.5276 37.7005 62.7921 37.5349C63.0188 37.3948 63.2455 37.2483 63.4658 37.1145C64.2781 36.605 65.0653 36.1019 65.8209 35.6114C66.0476 35.4649 66.2743 35.3185 66.4947 35.172C66.6017 35.1019 66.7088 35.0318 66.8158 34.9618C66.9606 34.8663 67.1055 34.7707 67.2503 34.6752C68.3711 33.9173 69.4164 33.2039 70.3673 32.5352Z" fill="#F23C3C"/>
<path d="M115.731 96.6846C116.109 97.347 112.564 100.194 106.884 103.952L104.762 96.0605L107.961 92.2199C110.259 90.4684 111.5 89.2455 111.267 88.8379L115.731 96.6846Z" fill="#F23C3C"/>
<path d="M106.267 100.456L105.984 100.602L105.814 99.9715L105.971 99.8887L106.267 100.456Z" fill="#F23C3C"/>
<path d="M106.052 97.8696L106.575 98.8504L106.04 99.1561L105.442 98.067L105.322 98.1307L105.152 97.5065C105.341 97.4429 105.536 97.4556 105.712 97.5384C105.618 97.4683 105.536 97.3792 105.479 97.2645L104.982 96.29L105.523 95.9971L106.096 97.0798L106.72 96.755L107.016 97.3155L106.493 97.5893C106.279 97.704 106.027 97.6976 105.826 97.5957C105.914 97.6721 105.996 97.7613 106.052 97.8696Z" fill="#F23C3C"/>
<path d="M107.873 93.9909L108.395 94.4686L107.98 94.9527L107.539 94.5514C107.356 94.3858 107.275 94.1501 107.293 93.9208C107.268 94.0355 107.212 94.1374 107.13 94.2329L106.406 95.0737L105.933 94.6724L106.727 93.717L106.714 93.7043L107.117 93.2202C107.256 93.3794 107.319 93.5832 107.306 93.7871C107.338 93.6724 107.388 93.5641 107.476 93.4686L108.2 92.6533L108.666 93.061L107.873 93.9909Z" fill="#F23C3C"/>
<path d="M106.89 103.952L106.839 103.76C106.877 103.697 106.921 103.639 106.972 103.582L107.752 102.824L108.074 103.155C107.689 103.417 107.293 103.684 106.89 103.952Z" fill="#F23C3C"/>
<path d="M109.956 91.0222L109.541 91.5064L109.226 91.2197C109.402 91.0732 109.566 90.9394 109.717 90.8057L109.956 91.0222Z" fill="#F23C3C"/>
<path d="M109.22 100.646L110.278 100.971L110.114 101.569L108.93 101.226L108.729 101.907L108.124 101.729L108.294 101.155C108.363 100.913 108.546 100.735 108.76 100.659C108.647 100.678 108.521 100.671 108.401 100.633L107.368 100.296L107.545 99.7032L108.703 100.06L108.918 99.3848L109.522 99.5695L109.346 100.136C109.27 100.372 109.094 100.544 108.88 100.62C108.993 100.608 109.106 100.614 109.22 100.646Z" fill="#F23C3C"/>
<path d="M110.744 92.5897L110.612 91.8891L111.229 91.7617L111.336 92.3477C111.38 92.5961 111.304 92.8381 111.147 93.0037C111.241 92.9336 111.348 92.8827 111.474 92.8636L112.545 92.6789L112.658 93.2903L111.462 93.5132L111.581 94.2138L110.958 94.3285L110.857 93.7361C110.813 93.4941 110.895 93.2585 111.046 93.0929C110.958 93.1629 110.851 93.2139 110.731 93.233L109.648 93.4368L109.522 92.8317L110.744 92.5897Z" fill="#F23C3C"/>
<path d="M111.569 97.7422L110.977 97.7168C110.731 97.704 110.523 97.583 110.391 97.3919C110.441 97.4939 110.467 97.6085 110.46 97.7359L110.435 98.8504L109.824 98.8441L109.837 97.5957L109.138 97.5766L109.144 96.9398L109.736 96.9525C109.988 96.9589 110.202 97.0862 110.334 97.2773C110.284 97.169 110.259 97.048 110.265 96.9206L110.309 95.8252L110.92 95.8379L110.888 97.0671L111.587 97.099L111.569 97.7422Z" fill="#F23C3C"/>
<path d="M111.626 100.487C111.739 100.423 111.865 100.397 111.985 100.397C111.739 100.582 111.481 100.773 111.216 100.964L111.109 100.773L111.626 100.487Z" fill="#F23C3C"/>
<path d="M112.117 98.9336L112.633 99.9081C112.469 100.035 112.305 100.163 112.129 100.29C112.11 100.265 112.091 100.233 112.072 100.201L111.575 99.2266L112.117 98.9336Z" fill="#F23C3C"/>
<path d="M112.923 91.7554L112.696 92.0229L112.224 91.6216L112.596 91.1758L112.923 91.7554Z" fill="#F23C3C"/>
<path d="M113.998 95.7611L114.521 96.742L113.986 97.0477L113.388 95.9586L112.771 96.2962L112.462 95.7357L112.985 95.4554C113.205 95.3344 113.457 95.3408 113.665 95.4427C113.57 95.3726 113.488 95.2835 113.425 95.1688L112.928 94.1943L113.47 93.9014L114.043 94.9841L114.597 94.6975L114.912 95.2516L114.439 95.5C114.225 95.6147 113.973 95.6083 113.772 95.5128C113.86 95.5637 113.942 95.6529 113.998 95.7611Z" fill="#F23C3C"/>
<path d="M115.39 97.4746C115.277 97.6084 115.138 97.7612 114.975 97.9204L114.886 97.7485L115.39 97.4746Z" fill="#F23C3C"/>
<path d="M106.89 103.952C103.597 106.131 99.5921 108.621 95.2158 111.169L91.8218 111.614L104.762 96.0674L106.89 103.952Z" fill="#F7C57C"/>
<path d="M107.961 92.2197L104.762 96.0603L91.8219 111.607L77.1942 113.531L79.4296 109.544C82.7859 107.818 86.6647 105.697 90.7451 103.315C98.0558 99.0665 104.328 94.9839 107.961 92.2197Z" fill="#F2AB55"/>
<path d="M91.8208 111.614L95.2149 111.168C83.2885 118.117 73.1316 122.9 72.5334 121.849L77.1994 113.537L91.8208 111.614Z" fill="#F9E1B8"/>
<path d="M73.8054 121.856C73.6795 121.888 73.5661 121.913 73.4591 121.932C73.0938 122.002 72.8231 122.015 72.6656 121.951C72.6027 121.926 72.5586 121.894 72.5334 121.849L72.8797 121.231L73.7865 121.219L73.8054 121.856Z" fill="#F9E1B8"/>
<path d="M74.8008 118.881L75.3927 119.995L74.7882 120.339L74.1145 119.104L74.0641 119.129L74.4167 118.505L74.7819 117.855L74.8575 117.995L75.5627 117.626L75.9028 118.263L75.3109 118.575C75.0653 118.702 74.7882 118.696 74.5552 118.588C74.6497 118.658 74.7379 118.753 74.8008 118.881Z" fill="#F9E1B8"/>
<path d="M75.9534 121.117C75.7456 121.2 75.5441 121.276 75.3552 121.346L75.7645 120.926L75.9534 121.117Z" fill="#F9E1B8"/>
<path d="M76.237 116.448L75.6325 116.792L75.5002 116.556L75.9095 115.83L76.237 116.448Z" fill="#F9E1B8"/>
<path d="M76.7414 114.721L76.4446 114.874L76.6404 114.53L76.7414 114.721Z" fill="#F9E1B8"/>
<path d="M79.2338 118.48L80.4302 118.843L80.342 119.161C80.172 119.244 80.0083 119.321 79.8383 119.403C79.4416 119.594 79.0575 119.773 78.686 119.938L78.6671 119.9L77.9807 119.703L78.1759 119.053C78.2578 118.779 78.4593 118.582 78.7048 118.493C78.5726 118.518 78.4404 118.505 78.3019 118.467L77.137 118.091L77.3385 117.416L78.6482 117.824L78.8875 117.06L79.5675 117.27L79.366 117.913C79.2841 118.181 79.0826 118.372 78.8434 118.461C78.9693 118.435 79.1015 118.442 79.2338 118.48Z" fill="#F9E1B8"/>
<path d="M81.8919 115.201L81.2244 115.175C80.9473 115.162 80.7081 115.022 80.5632 114.806C80.6199 114.92 80.6451 115.054 80.6451 115.194L80.6136 116.455L79.9209 116.449L79.9398 115.041L79.1464 115.022L79.1527 114.303L79.8202 114.322C80.1036 114.328 80.3491 114.474 80.494 114.691C80.4373 114.57 80.4058 114.436 80.4121 114.29L80.4625 113.118L80.897 113.061L81.1551 113.067L81.1174 114.455L81.9108 114.487L81.8919 115.201Z" fill="#F9E1B8"/>
<path d="M82.3074 118.2C81.9925 118.359 81.684 118.512 81.3817 118.659L81.3629 118.621L81.9548 118.302C82.0618 118.238 82.1878 118.207 82.3074 118.2Z" fill="#F9E1B8"/>
<path d="M83.8622 117.409C83.4088 117.645 82.9617 117.868 82.5272 118.091C82.502 118.052 82.4768 118.014 82.4579 117.976L81.8975 116.874L82.5083 116.543L83.1569 117.766L83.8622 117.396V117.409Z" fill="#F9E1B8"/>
<path d="M84.6371 112.951L85.229 114.066L84.6245 114.41L83.9507 113.174L83.2517 113.556L82.9053 112.926L83.2391 112.748L84.2907 112.607H84.297L85.5313 112.448L85.1408 112.652C84.8952 112.779 84.6182 112.773 84.3852 112.665C84.4796 112.728 84.5678 112.83 84.6371 112.951Z" fill="#F9E1B8"/>
<path d="M86.777 115.882C86.5692 115.996 86.3551 116.105 86.1473 116.213L85.6309 115.2L86.2417 114.869L86.777 115.882Z" fill="#F9E1B8"/>
<path d="M89.5736 114.365C89.3532 114.486 89.1265 114.607 88.9061 114.728L88.2827 114.55L88.4653 113.85L89.1076 114.034C89.3091 114.098 89.4665 114.213 89.5736 114.365Z" fill="#F9E1B8"/>
<path d="M90.7263 113.162L90.5374 113.831C90.2477 113.99 89.958 114.149 89.6747 114.308C89.681 114.257 89.6936 114.206 89.7062 114.155L90.0651 112.971L90.7263 113.162Z" fill="#F9E1B8"/>
<path d="M90.7256 111.754L90.0393 112.13L89.8945 111.869L90.7256 111.754Z" fill="#F9E1B8"/>
<path d="M92.0228 112.639L91.4121 112.983L90.7446 111.753L91.5002 111.651L92.0228 112.639Z" fill="#F9E1B8"/>
<path d="M79.4296 109.551L77.1942 113.538L72.5345 121.85L68.0637 114.009C68.4604 114.697 72.9879 112.863 79.4296 109.551Z" fill="#F23C3C"/>
<path d="M71.1925 110.767C74.8196 107.977 81.2361 103.799 88.5846 99.5189C95.889 95.2644 102.532 91.8187 106.72 90.029C107.538 89.6787 108.256 89.392 108.873 89.1755C110.259 88.6914 111.109 88.5513 111.266 88.8316C111.499 89.2392 110.259 90.4621 107.96 92.2136C104.327 94.9778 98.0552 99.0604 90.7508 103.315C86.6641 105.697 82.7915 107.818 79.4352 109.544C72.9872 112.856 68.466 114.69 68.0693 113.996C67.9119 113.716 68.4597 113.041 69.5742 112.079C70.0213 111.69 70.5629 111.251 71.1925 110.767Z" fill="#F7C57C"/>
<path d="M106.72 90.0353C103.748 91.3028 99.5476 93.4046 94.7494 96.035C94.4345 96.207 94.1197 96.379 93.7985 96.5573C93.0492 96.9713 92.2873 97.398 91.5191 97.8375C91.1413 98.054 90.7571 98.2706 90.3667 98.4935C89.7811 98.8311 89.1829 99.175 88.5847 99.5253C87.086 100.398 85.6314 101.264 84.2272 102.118C82.4893 103.175 80.8269 104.213 79.2842 105.2C79.026 105.366 78.7741 105.531 78.5222 105.691C77.4329 106.398 76.4128 107.073 75.4556 107.722C75.1156 107.952 74.7819 108.181 74.4607 108.404C73.2139 109.27 72.112 110.066 71.1926 110.773L71.6586 105.722L71.879 103.321L71.9105 102.977L72.0238 101.742L73.0817 90.1882L73.195 88.9717L73.2139 88.7424L74.8322 88.2201L76.1357 87.7998L78.1948 87.1374L78.2704 87.1119L80.405 86.424L81.614 86.0292L84.5169 85.0929L84.6239 85.0611C84.9262 84.9655 85.2284 84.8764 85.5307 84.7936C88.7484 83.9401 92.0921 84.0038 95.1713 84.9783C95.5365 85.0929 95.8891 85.2203 96.248 85.3604C96.2543 85.3604 96.2606 85.3668 96.2669 85.3668C96.4999 85.4559 96.7329 85.5578 96.9596 85.6598L97.4004 85.8572L100.48 87.2393L100.536 87.2648L106.72 90.0353Z" fill="#F9E1B8"/>
<path d="M74.0898 54.4062L73.8127 58.2787L73.7812 58.7181L73.5357 62.1447L73.4601 63.1765L73.4223 63.737L73.3656 64.5204L73.0571 68.8514L73.0004 69.6539L72.9563 70.2845L72.8871 71.2462L72.8493 71.8131L69.9716 70.4437L68.4351 69.7113L68.4288 69.7049L66.8798 68.9661L65.7904 68.4438C65.5826 68.3483 65.3937 68.2336 65.2174 68.1062C65.1922 68.0871 65.167 68.068 65.1418 68.0489C64.7514 67.7559 64.4429 67.3993 64.2036 67.0044C64.0777 66.7942 63.9769 66.5777 63.895 66.3547C63.385 64.9472 63.7061 63.2593 64.9844 62.1766L65.7023 61.5651L66.2564 61.0938L68.7752 58.9474L69.3293 58.4761L71.974 56.2215L72.5156 55.7565L74.0898 54.4062Z" fill="#F9E1B8"/>
<path d="M74.2528 72.4688L108.873 89.1878C108.256 89.4043 107.532 89.6909 106.72 90.0412L96.9594 85.6593C93.1435 83.946 88.742 83.7358 84.6238 85.067L73.2138 88.7483L71.1925 110.779C70.5628 111.263 70.0213 111.703 69.5679 112.097C69.5679 112.059 69.5616 112.021 69.5679 111.983L72.5022 73.4879L40.728 57.7307C43.7505 56.4696 48.1962 54.2595 53.303 51.4508C53.6367 51.2661 53.9767 51.0814 54.3168 50.8903C55.9225 49.9986 57.5849 49.056 59.285 48.0624C66.7406 43.7187 73.1319 39.5533 76.7212 36.7891L74.2528 72.4688ZM72.8486 71.8128L74.0891 54.406L64.9774 62.17C62.9058 63.9342 63.3402 67.278 65.7897 68.4436L72.8486 71.8128Z" fill="white"/>
<path d="M66.25 61.0879L66.4264 61.2408C66.6405 61.4255 66.7349 61.6993 66.716 61.9605C66.7097 62.0114 66.7034 62.056 66.6908 62.1069C66.6594 62.2343 66.5964 62.349 66.5082 62.4572L65.6896 63.4126L65.1544 62.9604L66.0548 61.884L65.6959 61.5656L66.25 61.0879Z" fill="#FAF2EB"/>
<path d="M67.7233 60.6797L66.9047 61.6032C66.5899 61.9535 66.6214 62.5012 66.9677 62.8133L67.4652 63.2655L67.9311 62.7178L67.3392 62.1828L68.2397 61.1383L67.7233 60.6797Z" fill="#FAF2EB"/>
<path d="M69.7078 58.8264L69.2418 59.3678L68.7695 58.941L69.3237 58.4697L69.7078 58.8264Z" fill="#FAF2EB"/>
<path d="M73.8254 58.5088L73.8002 58.6617C73.7939 58.6808 73.7876 58.6999 73.7813 58.7253C73.7499 58.8272 73.6932 58.9228 73.6239 59.0056L72.8053 59.9609L72.2701 59.5087L73.1705 58.4324L72.5723 57.9037L73.032 57.3496L73.5358 57.7954C73.6869 57.9292 73.7813 58.1012 73.8128 58.2795L73.8254 58.5088Z" fill="#FAF2EB"/>
<path d="M73.8245 58.5078C73.8123 58.5586 73.8061 58.6093 73.8 58.6601L73.8245 58.5078Z" fill="#FAF2EB"/>
<path d="M70.2491 67.6787L70.2806 66.4176C70.2932 65.9463 69.9217 65.5514 69.4557 65.5386L68.7882 65.5195L68.7819 66.2392L69.5753 66.2583L69.5564 67.6723L70.2491 67.6787Z" fill="#FAF2EB"/>
<path d="M70.1047 64.2656L70.0544 65.5012C70.0355 65.9725 70.4007 66.3737 70.8666 66.3929L71.5341 66.4183L71.553 65.6986L70.7596 65.6668L70.7974 64.2784L70.1047 64.2656Z" fill="#FAF2EB"/>
<path d="M64.204 67.0039L64.6007 66.7874L65.2556 67.9848L65.2745 68.023L65.879 67.679L65.2871 66.5645C65.2241 66.4435 65.1297 66.3415 65.0289 66.2651C64.9911 66.2396 64.947 66.2142 64.9093 66.1951C64.6763 66.0804 64.3866 66.0804 64.141 66.2142L63.8892 66.3479L64.204 67.0039Z" fill="#FAF2EB"/>
<path d="M64.0847 64.7882L64.6451 65.8901C64.8592 66.3105 65.3693 66.4761 65.7912 66.2595L66.3831 65.9474L66.0431 65.3105L65.3378 65.6799L64.6955 64.457L64.0847 64.7882Z" fill="#FAF2EB"/>
<path d="M72.6611 56.0434L72.0566 56.3874L71.9622 56.2154L72.51 55.7568L72.6611 56.0434Z" fill="#FAF2EB"/>
<path d="M72.8872 71.2458L72.7235 71.335L72.0497 70.0994L71.3508 70.4815L71.0045 69.851L71.5901 69.5325C71.8357 69.3988 72.119 69.3988 72.3583 69.5134C72.4024 69.5325 72.4402 69.558 72.4779 69.5835C72.585 69.6599 72.6731 69.7554 72.7361 69.8828L72.9502 70.2841L72.8872 71.2458Z" fill="#FAF2EB"/>
<path d="M73.0573 68.8576L73.0006 69.6601C72.8243 69.692 72.6417 69.6665 72.478 69.5901C72.4339 69.571 72.3961 69.5455 72.3583 69.52C72.2513 69.4436 72.1568 69.3417 72.0939 69.2143L71.5334 68.1124L72.1442 67.7812L72.7928 69.0041L73.0573 68.8576Z" fill="#FAF2EB"/>
<path d="M73.1264 63.8328C73.2209 63.7819 73.3216 63.75 73.4224 63.7373L73.3657 64.5207L72.8872 64.7819L72.5408 64.1513L73.1264 63.8328Z" fill="#FAF2EB"/>
<path d="M73.0698 62.4052L73.5357 62.1504L73.4665 63.1759L73.0698 62.4052Z" fill="#FAF2EB"/>
<path d="M69.3735 61.565L70.6014 61.3293C71.061 61.2402 71.3633 60.7943 71.2814 60.3294L71.1555 59.667L70.4565 59.8135L70.6014 60.6033L69.2349 60.8835L69.3735 61.565Z" fill="#FAF2EB"/>
<path d="M72.6358 60.7051L71.4268 60.9153C70.9671 60.9981 70.6523 61.4375 70.7342 61.9025L70.8475 62.5712L71.5527 62.4375L71.4205 61.6477L72.7681 61.3929L72.6358 60.7051Z" fill="#FAF2EB"/>
<path d="M70.0725 70.0737L69.9717 70.4368L68.4353 69.7043C68.4038 69.7107 68.3786 69.7171 68.3471 69.7235C68.3723 69.7171 68.3975 69.7043 68.429 69.698C68.4479 69.6916 68.473 69.6852 68.4919 69.6852C68.6179 69.6661 68.7501 69.6725 68.876 69.7107L70.0725 70.0737Z" fill="#FAF2EB"/>
<path d="M68.3471 69.7235C68.3786 69.7172 68.4038 69.7108 68.4353 69.7044C68.4542 69.6981 68.4731 69.6917 68.4919 69.6853C68.7312 69.5962 68.9327 69.4051 69.0146 69.1376L69.2161 68.4944L68.5297 68.2842L68.2904 69.0484L66.9807 68.6408L66.8862 68.9593L68.3471 69.7235Z" fill="#FAF2EB"/>
<path d="M37.7809 53.4251L37.9698 52.6481C38.0391 52.3551 37.8628 52.0621 37.5731 51.9857L37.1575 51.8838L37.0568 52.3296L37.5479 52.4506L37.3464 53.3232L37.7809 53.4251Z" fill="#F9E1B9"/>
<path d="M38.145 51.2852L37.9435 52.0494C37.868 52.3424 38.038 52.6418 38.3276 52.7182L38.7369 52.8265L38.844 52.3806L38.3528 52.2533L38.5669 51.3934L38.145 51.2852Z" fill="#F9E1B9"/>
<path d="M41.1869 53.6987L40.8657 54.0553L40.7965 53.9088L40.3431 54.1318L40.1416 53.7178L40.5257 53.5331C40.6894 53.4566 40.8657 53.463 41.0169 53.5458C41.0421 53.5585 41.0672 53.5776 41.0924 53.5967C41.1239 53.6222 41.1617 53.6604 41.1869 53.6987Z" fill="#F9E1B9"/>
<path d="M41.7795 53.0553L41.238 53.6476C41.1876 53.6349 41.1309 53.6158 41.0869 53.5903C41.0617 53.5776 41.0365 53.5585 41.0113 53.5394C40.9483 53.4884 40.8916 53.4183 40.8539 53.3355L40.5264 52.6159L40.9231 52.4248L41.3009 53.2209L41.7606 53.0044L41.7795 53.0553Z" fill="#F9E1B9"/>
<path d="M39.1092 55.7946L38.4543 55.336C38.2087 55.164 37.875 55.2277 37.705 55.4761L37.4657 55.8328L37.8435 56.0876L38.1332 55.6672L38.8699 56.1704L39.1092 55.7946Z" fill="#F9E1B9"/>
<path d="M37.2641 54.6858L37.9001 55.1444C38.1457 55.3228 38.4794 55.2654 38.6557 55.017L38.9013 54.6667L38.5298 54.4056L38.2338 54.8196L37.516 54.3164L37.2641 54.6858Z" fill="#F9E1B9"/>
<path d="M36.2817 55.1256L35.6269 54.6671C35.3813 54.4951 35.0475 54.5588 34.8775 54.8072L34.6382 55.1638L35.0161 55.4186L35.3057 54.9982L36.0425 55.5014L36.2817 55.1256Z" fill="#F9E1B9"/>
<path d="M34.4366 54.0169L35.0726 54.4755C35.3182 54.6538 35.652 54.5965 35.8283 54.3481L36.0738 53.9978L35.7023 53.7366L35.4064 54.1506L34.6885 53.6475L34.4366 54.0169Z" fill="#F9E1B9"/>
<path d="M43.1453 51.5459L42.8367 51.8834L42.5345 51.6796L42.2448 52.1L41.867 51.8452L42.1063 51.4886C42.207 51.3421 42.3708 51.2593 42.5408 51.2529C42.5723 51.2529 42.5974 51.2529 42.6289 51.2593C42.7108 51.272 42.7864 51.3039 42.8619 51.3485L43.1453 51.5459Z" fill="#F9E1B9"/>
<path d="M41.6715 50.6995L42.3075 51.158C42.5531 51.3364 42.8868 51.2791 43.0631 51.0307L43.3087 50.6804L42.9372 50.4192L42.6412 50.8332L41.9234 50.3301L41.6715 50.6995Z" fill="#F9E1B9"/>
<path d="M45.9595 48.457L45.8588 48.5717L45.3865 49.094L45.3173 49.0494L45.5565 48.6927C45.651 48.5462 45.8021 48.4698 45.9595 48.457Z" fill="#F9E1B9"/>
<path d="M46.5835 47.7694L45.9601 48.4509C45.8845 48.4381 45.8089 48.4063 45.746 48.3553L45.11 47.8968L45.3619 47.5273L46.0797 48.0305L46.3757 47.6165L46.5835 47.7694Z" fill="#F9E1B9"/>
<path d="M40.1539 50.5336C40.1476 50.5655 40.135 50.591 40.1224 50.6164C40.0846 50.6929 40.0343 50.7566 39.965 50.8075L39.3353 51.2979L39.0582 50.9476L39.7509 50.3872L39.6942 50.3107C39.8328 50.247 39.9713 50.1833 40.1098 50.1133C40.1791 50.2534 40.1917 50.3999 40.1539 50.5336Z" fill="#F9E1B9"/>
<path d="M40.941 49.8652L40.3176 50.3366C40.0783 50.5149 40.028 50.8588 40.2106 51.1008L40.4687 51.4448L40.8276 51.1645L40.5254 50.7569L41.218 50.2155L40.941 49.8652Z" fill="#F9E1B9"/>
<path d="M38.0509 56.5713L38.3721 56.8006L38.0698 57.1318L37.7991 56.9407L38.0509 56.5713Z" fill="#F9E1B9"/>
<path d="M35.9665 57.6352L36.3317 57.4823L36.6843 58.3103L37.0873 58.1319L36.7851 57.3868C36.7536 57.304 36.6969 57.2339 36.634 57.1766C36.6151 57.1575 36.5899 57.1448 36.571 57.1257C36.4262 57.0365 36.2499 57.0174 36.0798 57.0874L35.7398 57.2339L35.9665 57.6352Z" fill="#F9E1B9"/>
<path d="M36.131 56.1827L36.4143 56.9152C36.5214 57.1954 36.8362 57.3356 37.1133 57.2209L37.51 57.0617L37.3337 56.6349L36.8614 56.826L36.5277 56.0107L36.131 56.1827Z" fill="#F9E1B9"/>
<path d="M36.3829 51.7627L36.5277 52.0302L35.7469 52.4569L35.9862 52.9091L35.5894 53.1321L35.388 52.7499C35.3061 52.5907 35.3061 52.406 35.3817 52.2531C35.3942 52.2213 35.4131 52.1958 35.432 52.1703C35.4509 52.1448 35.4698 52.1194 35.495 52.0939L36.3829 51.7627Z" fill="#F9E1B9"/>
<path d="M35.4505 52.1133C35.4442 52.1324 35.4379 52.1515 35.4253 52.177C35.4127 52.2088 35.3938 52.2343 35.3749 52.2598C35.3245 52.3298 35.2616 52.3872 35.1797 52.4254L34.4807 52.782L34.317 52.47C34.6445 52.3808 35.0223 52.2661 35.4505 52.1133Z" fill="#F9E1B9"/>
<path d="M43.9769 48.4443L44.2162 48.8965L43.8195 49.1194L43.618 48.7373C43.5676 48.6418 43.5487 48.5399 43.555 48.4443C43.9202 48.2596 44.298 48.0685 44.6759 47.8711L44.7577 48.0176L43.9769 48.4443Z" fill="#F9E1B9"/>
<path d="M59.4813 39.5479C59.0028 39.8345 58.5179 40.1274 58.0267 40.4141L58.2723 40.7007L59.2357 39.8982C59.3428 39.809 59.4184 39.7007 59.4687 39.5861C59.475 39.5733 59.4813 39.5606 59.4813 39.5479Z" fill="#F9E1B9"/>
<path d="M59.4874 39.5475C59.9849 39.2481 60.476 38.9488 60.9609 38.6494L61.1624 38.8978L60.1045 39.7767L60.602 40.4009L60.0479 40.8595L59.6323 40.3309C59.4622 40.1143 59.4119 39.8341 59.4748 39.5857C59.4748 39.5729 59.4811 39.5602 59.4874 39.5475Z" fill="#F9E1B9"/>
<path d="M54.4947 47.8972L54.734 46.6552C54.8222 46.1902 54.5199 45.738 54.0603 45.6489L53.4054 45.5215L53.2794 46.2348L54.0603 46.3877L53.8147 47.7761L54.4947 47.8972Z" fill="#F9E1B9"/>
<path d="M54.9037 44.5088L54.6518 45.7189C54.5574 46.1839 54.847 46.6361 55.3067 46.738L55.9616 46.8781L56.1001 46.1648L55.3256 45.9992L55.59 44.6362L54.9037 44.5088Z" fill="#F9E1B9"/>
<path d="M50.181 47.1714L49.5262 47.407L49.0602 46.0759L48.3109 46.337L48.1975 46.0058C48.5438 45.8211 48.8965 45.6301 49.2491 45.4326C49.3247 45.4581 49.4002 45.4963 49.4695 45.5409C49.5073 45.5664 49.5451 45.5982 49.5828 45.6364C49.671 45.7256 49.7466 45.8402 49.7906 45.974L50.181 47.1714Z" fill="#F9E1B9"/>
<path d="M50.9612 45.5472L50.3252 45.7574C50.0607 45.8402 49.79 45.7892 49.5822 45.6427C49.5444 45.6172 49.5066 45.5854 49.4751 45.5536C49.4247 45.5026 49.387 45.4517 49.3492 45.3943C49.5507 45.2797 49.7585 45.1714 49.9663 45.0568L49.9852 45.1205L50.7408 44.8721L50.9612 45.5472Z" fill="#F9E1B9"/>
<path d="M64.3616 37.6057L64.0342 38.2235L62.8063 37.5547L62.4222 38.2553L61.9877 38.0197C62.2584 37.8541 62.5229 37.6885 62.7874 37.5229C63.0141 37.3828 63.2408 37.2363 63.4611 37.1025L64.3616 37.6057Z" fill="#F9E1B9"/>
<path d="M67.239 36.1149L66.7541 36.6691L66.603 36.5863L66.2315 37.255L66.2126 37.2869L66.2063 37.2805L65.5829 36.9429L65.9103 36.3506C66.0489 36.1022 66.2881 35.9493 66.5463 35.9175C66.5967 35.9111 66.6408 35.9111 66.6911 35.9111C66.8171 35.9175 66.943 35.9493 67.0627 36.0194L67.239 36.1149Z" fill="#F9E1B9"/>
<path d="M66.8053 34.9492L66.6353 35.2485L66.4842 35.1594C66.2638 35.3059 66.0371 35.4523 65.8104 35.5988L66.1631 35.8026C66.289 35.8727 66.4212 35.9109 66.5535 35.9173C66.6038 35.9173 66.6479 35.9173 66.6983 35.9109C66.9502 35.8791 67.1894 35.7262 67.3217 35.4906L67.6554 34.9046L67.2335 34.6689L66.8053 34.9492Z" fill="#F9E1B9"/>
<path d="M54.8846 50.1646L54.9336 50.1523L54.8907 50.1952L54.8846 50.1646Z" fill="#F9E1B9"/>
<path d="M56.4018 48.4713L55.8666 49.0891L55.6902 48.535L56.3514 48.3057L56.4018 48.4713Z" fill="#F9E1B9"/>
<path d="M59.1224 45.3754L58.5872 45.9869L58.3227 45.2289L57.5734 45.4837L57.3341 44.8022L57.9701 44.5856C58.2346 44.4964 58.5116 44.541 58.7257 44.6939C58.7698 44.7257 58.8076 44.7576 58.8391 44.7894C58.9272 44.8786 59.0028 44.9932 59.0406 45.1206L59.1224 45.3754Z" fill="#F9E1B9"/>
<path d="M59.5193 44.9168C59.2737 44.9805 59.0281 44.9232 58.8329 44.7894C58.7888 44.7576 58.7511 44.7257 58.7196 44.6939C58.6251 44.5984 58.5559 44.4837 58.5118 44.35L58.1403 43.1717L58.7951 42.9424L59.2296 44.2608L59.9853 44.0124L60.0797 44.2863L59.5193 44.9168Z" fill="#F9E1B9"/>
<path d="M56.5908 41.2666C56.5341 41.3621 56.4586 41.4513 56.3704 41.5214C56.3326 41.5532 56.2948 41.5787 56.2508 41.5978C56.1374 41.6551 56.0115 41.6933 55.8729 41.6933H55.8604C56.0996 41.5532 56.3452 41.4131 56.5908 41.2666Z" fill="#F9E1B9"/>
<path d="M57.9891 41.4199H56.7612C56.2952 41.4199 55.9111 41.8084 55.9174 42.2798L55.9237 42.9549L56.6353 42.9421V42.1396L58.008 42.1142L57.9891 41.4199Z" fill="#F9E1B9"/>
<path d="M53.9276 50.235L52.8067 49.6745C52.3848 49.4643 51.8748 49.6363 51.6733 50.063L51.3773 50.6681L52.0259 50.9802L52.3785 50.2605L53.6379 50.8656L53.9276 50.235Z" fill="#F9E1B9"/>
<path d="M50.804 48.9361L51.8933 49.5029C52.3089 49.7195 52.819 49.5539 53.0331 49.1335L53.3353 48.5284L52.693 48.21L52.3278 48.9233L51.0999 48.3055L50.804 48.9361Z" fill="#F9E1B9"/>
<path d="M48.4555 49.5727L46.8309 48.9421L47.2968 48.7829C47.5613 48.6937 47.8384 48.7383 48.0525 48.8912C48.0903 48.9166 48.128 48.9485 48.1658 48.9867C48.254 49.0759 48.3295 49.1905 48.3736 49.3243L48.4555 49.5727Z" fill="#F9E1B9"/>
<path d="M47.4734 47.3689L47.8449 48.5472C47.9897 48.9994 48.4683 49.2478 48.9091 49.1014L49.5451 48.8912L49.3184 48.2097L48.5628 48.4581L48.1283 47.1396L47.4734 47.3689Z" fill="#F9E1B9"/>
<path d="M63.3669 40.5349L62.7247 41.261L62.1831 41.8852L61.2386 41.7196L61.3456 41.0254L62.6995 41.2419L62.8317 40.4521L63.3669 40.5349Z" fill="#F9E1B9"/>
<path d="M64.8528 38.7646L64.9079 38.7708L64.8406 38.8443L64.8528 38.7646Z" fill="#F9E1B9"/>
<path d="M80.6384 115.188L80.6069 116.449L79.9142 116.442L79.9331 115.035L79.1396 115.016L79.1459 114.296L79.8134 114.315C80.0968 114.321 80.3424 114.468 80.4872 114.684C80.5124 114.723 80.5376 114.767 80.5565 114.805C80.6132 114.92 80.6446 115.054 80.6384 115.188Z" fill="#F7C57C"/>
<path d="M81.9094 114.474L81.8905 115.193L81.223 115.168C80.946 115.155 80.7067 115.015 80.5618 114.798C80.5366 114.76 80.5115 114.716 80.4926 114.677C80.4359 114.556 80.4044 114.423 80.4107 114.276L80.4611 113.104V113.034L80.8956 113.047L81.1538 113.053L81.116 114.442L81.9094 114.474Z" fill="#F7C57C"/>
<path d="M76.2365 116.448L75.632 116.792L75.4998 116.556L75.9091 115.83L76.2365 116.448Z" fill="#F7C57C"/>
<path d="M76.7411 114.722L76.4443 114.875L76.6401 114.531L76.7411 114.722Z" fill="#F7C57C"/>
<path d="M81.9481 118.301C82.0614 118.237 82.1811 118.206 82.307 118.199C81.9922 118.358 81.6836 118.511 81.3814 118.658L81.3625 118.62L81.9481 118.301Z" fill="#F7C57C"/>
<path d="M83.8622 117.41C83.4088 117.646 82.9617 117.869 82.5272 118.092C82.502 118.053 82.4768 118.015 82.4579 117.977L81.8975 116.875L82.5083 116.544L83.1569 117.767L83.8622 117.397V117.41Z" fill="#F7C57C"/>
<path d="M85.2224 114.066L84.6179 114.41L83.9441 113.175L83.2452 113.557L82.8989 112.926L83.2326 112.748L84.259 112.589C84.2716 112.595 84.2842 112.602 84.2968 112.608C84.3283 112.627 84.3597 112.64 84.3849 112.665C84.492 112.742 84.5801 112.837 84.6431 112.958L85.2224 114.066Z" fill="#F7C57C"/>
<path d="M85.5241 112.442L85.1337 112.646C84.8881 112.773 84.6111 112.767 84.3781 112.659C84.3466 112.646 84.3151 112.627 84.2836 112.608C84.271 112.602 84.2647 112.595 84.2521 112.589C84.2647 112.595 84.2773 112.602 84.2899 112.608L85.5241 112.442Z" fill="#F7C57C"/>
<path d="M86.777 115.881C86.5692 115.995 86.3551 116.104 86.1473 116.212L85.6309 115.199L86.2417 114.868L86.777 115.881Z" fill="#F7C57C"/>
<path d="M89.573 114.365C89.3526 114.486 89.126 114.607 88.9056 114.728L88.2822 114.55L88.4648 113.85L89.1071 114.034C89.3086 114.098 89.466 114.213 89.573 114.365Z" fill="#F7C57C"/>
<path d="M90.7255 113.162L90.5366 113.831C90.2469 113.99 89.9573 114.149 89.6739 114.308C89.6802 114.257 89.6928 114.206 89.7054 114.155L90.0643 112.971L90.7255 113.162Z" fill="#F7C57C"/>
<path d="M89.8945 111.869L90.7256 111.754L90.0393 112.13L89.8945 111.869Z" fill="#F7C57C"/>
<path d="M92.0228 112.64L91.4121 112.983L90.7446 111.754L91.5002 111.652L92.0228 112.64Z" fill="#F7C57C"/>
<path d="M80.4235 118.849L80.3354 119.168L80.2346 119.524L79.8316 119.41L78.8933 119.136L78.6666 119.906L77.9802 119.709L78.1754 119.059C78.2573 118.785 78.4588 118.588 78.7044 118.499C78.7485 118.48 78.7989 118.467 78.8492 118.461C78.9752 118.442 79.1074 118.448 79.2334 118.486L80.4235 118.849Z" fill="#F7C57C"/>
<path d="M79.5738 117.264L79.3723 117.908C79.2904 118.175 79.0889 118.366 78.8497 118.455C78.8056 118.474 78.7552 118.487 78.7048 118.494C78.5726 118.519 78.4404 118.506 78.3018 118.468L77.137 118.092L77.3385 117.417L78.6482 117.825L78.8874 117.061L79.5738 117.264Z" fill="#F7C57C"/>
<path d="M75.3925 119.989L74.7879 120.333L74.1141 119.098L74.0637 119.123L74.4164 118.499C74.4164 118.499 74.4227 118.499 74.429 118.505C74.473 118.525 74.5108 118.55 74.5549 118.582C74.662 118.658 74.7501 118.754 74.8131 118.875L75.3925 119.989Z" fill="#F7C57C"/>
<path d="M75.8902 118.264L75.2983 118.576C75.0527 118.703 74.7756 118.697 74.5426 118.589C74.4986 118.57 74.4545 118.544 74.4167 118.512L74.4104 118.506L74.7756 117.856L74.8512 117.996L75.5564 117.627L75.8902 118.264Z" fill="#F7C57C"/>
<path d="M73.8057 121.926L73.453 121.932L72.6596 121.951C72.5966 121.926 72.5525 121.894 72.5273 121.849L72.8737 121.231L73.7805 121.219L73.7994 121.849L73.8057 121.926Z" fill="#F7C57C"/>
<path d="M75.7641 120.926L75.953 121.117C75.7452 121.2 75.5437 121.276 75.3548 121.346L75.7641 120.926Z" fill="#F7C57C"/>
<path d="M107.313 93.793C107.307 93.8376 107.301 93.8758 107.294 93.9204C107.269 94.035 107.213 94.1369 107.131 94.2325L106.407 95.0732L105.934 94.672L106.728 93.7165L106.715 93.7038L107.118 93.2197C107.269 93.3853 107.332 93.5892 107.313 93.793Z" fill="#F7C57C"/>
<path d="M107.873 93.9903L108.396 94.468L107.98 94.9521L107.539 94.5508C107.357 94.3852 107.275 94.1496 107.294 93.9203C107.3 93.8757 107.306 93.8375 107.313 93.7929C107.344 93.6782 107.394 93.57 107.483 93.4744L108.207 92.6592L108.673 93.0668L107.873 93.9903Z" fill="#F7C57C"/>
<path d="M109.957 91.0222L109.542 91.5064L109.227 91.2197C109.403 91.0732 109.567 90.9394 109.718 90.8057L109.957 91.0222Z" fill="#F7C57C"/>
<path d="M112.596 91.1758L112.923 91.7554L112.696 92.0229L112.224 91.6216L112.596 91.1758Z" fill="#F7C57C"/>
<path d="M110.468 97.7356L110.442 98.8502L109.832 98.8438L109.844 97.5955L109.145 97.5764L109.152 96.9395L109.744 96.9522C109.995 96.9586 110.209 97.0859 110.342 97.277C110.367 97.3089 110.386 97.3471 110.405 97.3853C110.442 97.4999 110.468 97.6146 110.468 97.7356Z" fill="#F7C57C"/>
<path d="M111.589 97.1039L111.57 97.7408L110.978 97.7153C110.732 97.7026 110.525 97.5816 110.392 97.3905C110.367 97.3587 110.348 97.3204 110.329 97.2822C110.279 97.174 110.254 97.0529 110.26 96.9256L110.304 95.8301L110.915 95.8428L110.883 97.0721L111.589 97.1039Z" fill="#F7C57C"/>
<path d="M106.576 98.85L106.04 99.1557L105.442 98.0666L105.323 98.1303L105.153 97.5061C105.341 97.4424 105.537 97.4551 105.713 97.5379C105.751 97.5571 105.788 97.5762 105.826 97.6016C105.921 97.6653 105.996 97.7545 106.053 97.8628L106.576 98.85Z" fill="#F7C57C"/>
<path d="M107.017 97.3219L106.494 97.5957C106.28 97.7104 106.028 97.704 105.827 97.6021C105.789 97.583 105.751 97.5639 105.713 97.5384C105.619 97.4684 105.537 97.3792 105.48 97.2645L104.983 96.2901L105.524 95.9971L106.097 97.0798L106.721 96.755L107.017 97.3219Z" fill="#F7C57C"/>
<path d="M111.985 100.397C111.74 100.582 111.482 100.773 111.217 100.964L111.11 100.773L111.633 100.487C111.74 100.429 111.866 100.397 111.985 100.397Z" fill="#F7C57C"/>
<path d="M112.627 99.9071C112.463 100.034 112.3 100.162 112.123 100.289C112.104 100.264 112.086 100.232 112.067 100.2L111.569 99.2256L112.111 98.9326L112.627 99.9071Z" fill="#F7C57C"/>
<path d="M114.522 96.7418L113.987 97.0475L113.389 95.9584L112.772 96.2959L112.463 95.7355L112.986 95.4552C113.206 95.3342 113.458 95.3406 113.666 95.4425C113.704 95.4616 113.741 95.4807 113.773 95.5062C113.867 95.5699 113.943 95.659 113.999 95.7673L114.522 96.7418Z" fill="#F7C57C"/>
<path d="M114.599 94.6848L114.045 94.9714L113.472 93.8887L112.93 94.1816L113.428 95.1561C113.484 95.2707 113.566 95.3599 113.667 95.43C113.698 95.4555 113.736 95.4746 113.774 95.4937C113.982 95.5956 114.227 95.5956 114.441 95.4809L114.914 95.2325L114.599 94.6848Z" fill="#F7C57C"/>
<path d="M115.391 97.4746C115.278 97.6084 115.139 97.7612 114.976 97.9204L114.888 97.7485L115.391 97.4746Z" fill="#F7C57C"/>
<path d="M111.154 93.0101C111.123 93.0419 111.091 93.0738 111.06 93.0992C110.971 93.1693 110.864 93.2202 110.745 93.2393L109.662 93.4432L109.536 92.8381L110.745 92.5897L110.612 91.8891L111.23 91.7617L111.337 92.3477C111.393 92.6024 111.311 92.8445 111.154 93.0101Z" fill="#F7C57C"/>
<path d="M111.468 93.5189L111.588 94.2195L110.965 94.3342L110.864 93.7418C110.82 93.4998 110.902 93.2642 111.053 93.0986C111.084 93.0667 111.116 93.0349 111.147 93.0094C111.242 92.9393 111.349 92.8884 111.475 92.8693L112.545 92.6846L112.658 93.296L111.468 93.5189Z" fill="#F7C57C"/>
<path d="M110.279 100.971L110.115 101.57L108.931 101.226L108.73 101.907L108.125 101.729L108.295 101.156C108.365 100.914 108.547 100.735 108.761 100.659C108.799 100.646 108.843 100.633 108.887 100.627C109.001 100.608 109.114 100.614 109.227 100.646L110.279 100.971Z" fill="#F7C57C"/>
<path d="M109.523 99.57L109.347 100.137C109.271 100.373 109.095 100.545 108.881 100.621C108.843 100.634 108.799 100.646 108.755 100.653C108.641 100.672 108.516 100.666 108.396 100.627L107.363 100.29L107.54 99.6974L108.698 100.054L108.912 99.3789L109.523 99.57Z" fill="#F7C57C"/>
<path d="M106.268 100.456L105.984 100.602L105.814 99.9715L105.972 99.8887L106.268 100.456Z" fill="#F7C57C"/>
<path d="M106.891 103.952L106.84 103.76C106.878 103.697 106.922 103.639 106.973 103.582L107.753 102.824L108.074 103.155C107.69 103.417 107.294 103.684 106.891 103.952Z" fill="#F7C57C"/>
</svg>
