<svg width="31" height="41" viewBox="0 0 31 41" fill="none" xmlns="http://www.w3.org/2000/svg">
<path d="M16.1102 39.4679C15.7907 39.8447 15.2093 39.8447 14.8898 39.4679L3.63689 26.1967C3.47205 25.9866 3.30892 25.7752 3.14752 25.5625C1.12108 22.8931 0.0263546 19.6327 0.0312665 16.2812C0.0312665 12.1787 1.66101 8.24415 4.56196 5.34319C7.46291 2.44224 11.3974 0.8125 15.5 0.8125C19.6026 0.8125 23.5371 2.44224 26.4381 5.34319C29.339 8.24415 30.9688 12.1787 30.9688 16.2812C30.9737 19.6311 29.8794 22.8901 27.8539 25.5583L27.8525 25.5625C27.8525 25.5625 27.4306 26.1166 27.3674 26.1911L16.1102 39.4679ZM5.39189 23.868C5.39189 23.868 5.72095 24.3011 5.79549 24.3939L15.5 35.8394L25.2172 24.3784C25.2791 24.3011 25.6095 23.8638 25.6095 23.8638C27.2649 21.6828 28.1595 19.0193 28.1563 16.2812C28.1563 12.9246 26.8228 9.70544 24.4493 7.33193C22.0758 4.95842 18.8567 3.625 15.5 3.625C12.1434 3.625 8.9242 4.95842 6.5507 7.33193C4.17719 9.70544 2.84377 12.9246 2.84377 16.2812C2.84082 19.021 3.73502 21.686 5.39189 23.868Z" fill="#6A00FF"/>
<path d="M8.4301 20.6289L8.81088 19.6611H11.0876L11.4684 20.6289H12.9677L10.7941 15.0758H9.11233L6.93077 20.6289H8.4301ZM9.93736 16.6704H9.96909L10.6275 18.4711H9.27892L9.93736 16.6704ZM15.516 20.6289L15.5239 16.2658H17.047L17.0391 15.0758H12.4776L12.4935 16.2658H14.0246L14.0166 20.6289H15.516ZM18.9331 20.621V16.7576H18.9648L19.9802 20.621H21.424L22.4394 16.7576H22.4712V20.621H23.8912V15.0679H21.7651L20.718 19.0106H20.6862L19.6391 15.0679H17.521V20.621H18.9331Z" fill="#6A00FF"/>
</svg>
