<svg width="49" height="30" viewBox="0 0 49 30" fill="none" xmlns="http://www.w3.org/2000/svg">
<path d="M18.1504 3.3125H31.0007V26.3431H18.1504V3.3125Z" fill="#FF5F00"/>
<path d="M18.9663 14.8281C18.9663 10.1488 21.1691 5.99836 24.555 3.31275C22.0667 1.35966 18.9256 0.179688 15.4988 0.179688C7.38037 0.179688 0.8125 6.7307 0.8125 14.8281C0.8125 22.9254 7.38037 29.4766 15.4986 29.4766C18.9254 29.4766 22.0665 28.2966 24.555 26.3433C21.1691 23.6985 18.9663 19.5074 18.9663 14.8281Z" fill="#EB001B"/>
<path d="M48.3382 14.8281C48.3382 22.9254 41.7703 29.4766 33.6521 29.4766C30.2253 29.4766 27.0842 28.2966 24.5957 26.3433C28.0225 23.6579 30.1846 19.5074 30.1846 14.8281C30.1846 10.1488 27.9816 5.99836 24.5957 3.31275C27.084 1.35966 30.2253 0.179688 33.6521 0.179688C41.7703 0.179688 48.3384 6.77147 48.3384 14.8281H48.3382Z" fill="#F79E1B"/>
</svg>
