<svg width="15" height="15" viewBox="0 0 15 15" fill="none" xmlns="http://www.w3.org/2000/svg">
<path d="M1.47021 12.0964C1.47021 11.9094 1.62179 11.7578 1.80876 11.7578H12.9807C13.1677 11.7578 13.3193 11.9094 13.3193 12.0964V12.2656C13.3193 12.4526 13.1677 12.6042 12.9807 12.6042H1.80876C1.62179 12.6042 1.47021 12.4526 1.47021 12.2656V12.0964Z" fill="white"/>
<path d="M11.3725 4.56383C11.711 4.22529 11.711 3.71747 11.3725 3.37892L9.84903 1.85547C9.51048 1.51693 9.00267 1.51693 8.66412 1.85547L2.51472 8.00487C2.38774 8.13185 2.31641 8.30407 2.31641 8.48365V10.573C2.31641 10.76 2.46798 10.9115 2.65495 10.9115H4.74431C4.92388 10.9115 5.0961 10.8402 5.22308 10.7132L11.3725 4.56383ZM9.25658 2.44792L10.78 3.97138L9.51049 5.24092L7.98703 3.71747L9.25658 2.44792ZM3.16277 10.0652V8.54173L7.39458 4.30992L8.91803 5.83337L4.68622 10.0652H3.16277Z" fill="white"/>
</svg>
