<svg width="17" height="16" viewBox="0 0 17 16" fill="none" xmlns="http://www.w3.org/2000/svg">
<path d="M13.8695 7C14.0904 7 14.2695 6.82091 14.2695 6.6L14.2695 6.4C14.2695 6.17909 14.0904 6 13.8695 6L11.9765 6L14.9867 2.98984C15.1429 2.83363 15.1429 2.58037 14.9867 2.42416L14.8454 2.28284C14.6892 2.12663 14.4359 2.12663 14.2797 2.28284L11.2695 5.293L11.2695 3.4C11.2695 3.17909 11.0904 3 10.8695 3L10.6695 3C10.4486 3 10.2695 3.17909 10.2695 3.4L10.2695 6C10.2695 6.55228 10.7172 7 11.2695 7L13.8695 7Z" fill="#6939FF"/>
<path d="M14.6695 8C14.4486 8 14.2695 8.17909 14.2695 8.4V10C14.2698 10.1314 14.2441 10.2616 14.1939 10.383C14.1438 10.5044 14.0701 10.6148 13.9772 10.7077C13.8843 10.8006 13.774 10.8743 13.6525 10.9244C13.5311 10.9746 13.4009 11.0003 13.2695 11H10.8499C10.491 11 10.1597 11.1923 9.98161 11.5039L8.4673 14.1539C8.35796 14.3452 8.42398 14.589 8.61494 14.699L8.78974 14.7997C8.98163 14.9102 9.22681 14.8438 9.33668 14.6515L10.852 12H13.2695C13.8 12 14.3087 11.7893 14.6837 11.4142C15.0588 11.0391 15.2695 10.5304 15.2695 10V8.4C15.2695 8.17909 15.0904 8 14.8695 8H14.6695Z" fill="#6939FF"/>
<path d="M2.26953 10V4C2.26927 3.8686 2.29495 3.73845 2.34512 3.61701C2.39528 3.49556 2.46893 3.38522 2.56184 3.29231C2.65475 3.19939 2.76509 3.12575 2.88654 3.07558C3.00798 3.02542 3.13814 2.99974 3.26953 3H8.86953C9.09045 3 9.26953 2.82091 9.26953 2.6V2.4C9.26953 2.17909 9.09045 2 8.86953 2H3.26953C3.00687 1.99993 2.74677 2.05162 2.50409 2.15211C2.26141 2.25259 2.0409 2.39991 1.85517 2.58564C1.66944 2.77137 1.52212 2.99187 1.42164 3.23456C1.32115 3.47724 1.26947 3.73734 1.26953 4V10C1.26953 10.5304 1.48025 11.0391 1.85532 11.4142C2.23039 11.7893 2.7391 12 3.26953 12H7.36953C7.59045 12 7.76953 11.8209 7.76953 11.6V11.4C7.76953 11.1791 7.59045 11 7.36953 11H3.26953C3.13814 11.0003 3.00798 10.9746 2.88654 10.9244C2.76509 10.8743 2.65475 10.8006 2.56184 10.7077C2.46893 10.6148 2.39528 10.5044 2.34512 10.383C2.29495 10.2616 2.26927 10.1314 2.26953 10Z" fill="#6939FF"/>
</svg>
