<svg width="27" height="20" viewBox="0 0 27 20" fill="none" xmlns="http://www.w3.org/2000/svg">
<path d="M26.301 14.4173H15.7154C15.4946 14.4173 15.3154 14.2381 15.3154 14.0173C15.3154 13.7965 15.4946 13.6173 15.7154 13.6173H25.501V1.19648H1.49141V13.6173H11.2754C11.4962 13.6173 11.6754 13.7965 11.6754 14.0173C11.6754 14.2381 11.4962 14.4173 11.2754 14.4173H0.691406V0.396484H26.3026V14.4173H26.301Z" fill="#6A00FF"/>
<path d="M21.632 3.04805H5.27842C5.05762 3.04805 4.87842 2.86885 4.87842 2.64805C4.87842 2.42725 5.05762 2.24805 5.27842 2.24805H21.632C21.8528 2.24805 22.032 2.42725 22.032 2.64805C22.032 2.86885 21.8528 3.04805 21.632 3.04805Z" fill="#6A00FF"/>
<path d="M23.8273 10.029C23.6065 10.029 23.4272 9.84981 23.4272 9.62901V4.84336C23.4272 4.62256 23.6065 4.44336 23.8273 4.44336C24.0481 4.44336 24.2274 4.62256 24.2274 4.84336V9.63061C24.2274 9.85141 24.0481 10.029 23.8273 10.029Z" fill="#6A00FF"/>
<path d="M3.08506 10.029C2.86426 10.029 2.68506 9.84981 2.68506 9.62901V4.84336C2.68506 4.62256 2.86426 4.44336 3.08506 4.44336C3.30586 4.44336 3.48506 4.62256 3.48506 4.84336V9.63061C3.48506 9.85141 3.30586 10.029 3.08506 10.029Z" fill="#6A00FF"/>
<path d="M11.2594 12.5656H5.25303C5.03223 12.5656 4.85303 12.3864 4.85303 12.1656C4.85303 11.9448 5.03223 11.7656 5.25303 11.7656H11.2594C11.4802 11.7656 11.6594 11.9448 11.6594 12.1656C11.6594 12.3864 11.4802 12.5656 11.2594 12.5656Z" fill="#6A00FF"/>
<path d="M21.6593 12.5656H15.7345C15.5137 12.5656 15.3345 12.3864 15.3345 12.1656C15.3345 11.9448 15.5137 11.7656 15.7345 11.7656H21.6593C21.8801 11.7656 22.0593 11.9448 22.0593 12.1656C22.0593 12.3864 21.8801 12.5656 21.6593 12.5656Z" fill="#6A00FF"/>
<path d="M3.08506 5.2436C2.86426 5.2436 2.68506 5.0644 2.68506 4.8436C2.68506 4.6228 2.86426 4.4436 3.08506 4.4436C4.07386 4.4436 4.87866 3.6388 4.87866 2.65C4.87866 2.4292 5.05786 2.25 5.27866 2.25C5.49946 2.25 5.67866 2.4292 5.67866 2.65C5.67866 4.0788 4.51546 5.2436 3.08506 5.2436Z" fill="#6A00FF"/>
<path d="M23.8276 5.2436C22.3971 5.2436 21.2339 4.0804 21.2339 2.65C21.2339 2.4292 21.4131 2.25 21.6339 2.25C21.8547 2.25 22.0339 2.4292 22.0339 2.65C22.0339 3.6388 22.8387 4.4436 23.8276 4.4436C24.0484 4.4436 24.2276 4.6228 24.2276 4.8436C24.2276 5.0644 24.0484 5.2436 23.8276 5.2436Z" fill="#6A00FF"/>
<path d="M21.658 12.5665C21.4644 12.5665 21.2948 12.4257 21.2628 12.2289C21.242 12.0977 21.2324 11.9617 21.2324 11.8241C21.2324 10.3937 22.3956 9.23047 23.8259 9.23047C24.0467 9.23047 24.2259 9.40967 24.2259 9.63047C24.2259 9.85127 24.0467 10.0305 23.8259 10.0305C22.8372 10.0305 22.0324 10.8353 22.0324 11.8241C22.0324 11.9201 22.0388 12.0145 22.0532 12.1041C22.0868 12.3217 21.938 12.5265 21.7204 12.5617C21.6996 12.5649 21.6788 12.5665 21.658 12.5665Z" fill="#6A00FF"/>
<path d="M5.25306 12.5665C5.23226 12.5665 5.21146 12.5649 5.19066 12.5617C4.97306 12.5281 4.82266 12.3233 4.85786 12.1041C4.87226 12.0145 4.87866 11.9201 4.87866 11.8241C4.87866 10.8353 4.07386 10.0305 3.08506 10.0305C2.86426 10.0305 2.68506 9.85127 2.68506 9.63047C2.68506 9.40967 2.86426 9.23047 3.08506 9.23047C4.51546 9.23047 5.67866 10.3937 5.67866 11.8241C5.67866 11.9617 5.66746 12.0977 5.64826 12.2289C5.61626 12.4257 5.44666 12.5665 5.25306 12.5665Z" fill="#6A00FF"/>
<path d="M14.7425 9.6561C14.6145 9.6561 14.4881 9.5937 14.4113 9.4801C14.2881 9.2977 14.3361 9.0481 14.5185 8.9249C15.0241 8.5841 15.3249 8.0161 15.3249 7.4081C15.3249 6.4001 14.5041 5.5793 13.496 5.5793C12.488 5.5793 11.6672 6.4001 11.6672 7.4081C11.6672 8.0161 11.968 8.5841 12.4736 8.9249C12.656 9.0481 12.704 9.2977 12.5808 9.4801C12.4576 9.6625 12.208 9.7105 12.0256 9.5873C11.3008 9.0977 10.8672 8.2817 10.8672 7.4081C10.8672 5.9585 12.0464 4.7793 13.496 4.7793C14.9457 4.7793 16.1249 5.9585 16.1249 7.4081C16.1249 8.2833 15.6913 9.0977 14.9665 9.5873C14.8977 9.6337 14.8193 9.6561 14.7425 9.6561Z" fill="#6A00FF"/>
<path d="M7.25931 8.9317C6.41771 8.9317 5.73291 8.24691 5.73291 7.40531C5.73291 6.56371 6.41771 5.87891 7.25931 5.87891C8.10091 5.87891 8.78571 6.56371 8.78571 7.40531C8.78571 8.24691 8.10091 8.9317 7.25931 8.9317ZM7.25931 6.68051C6.85931 6.68051 6.53291 7.00691 6.53291 7.40691C6.53291 7.80691 6.85931 8.13331 7.25931 8.13331C7.65931 8.13331 7.98571 7.80691 7.98571 7.40691C7.98571 7.00531 7.66091 6.68051 7.25931 6.68051Z" fill="#6A00FF"/>
<path d="M19.4624 8.9317C18.6208 8.9317 17.936 8.24691 17.936 7.40531C17.936 6.56371 18.6208 5.87891 19.4624 5.87891C20.3039 5.87891 20.9887 6.56371 20.9887 7.40531C20.9887 8.24691 20.3039 8.9317 19.4624 8.9317ZM19.4624 6.68051C19.0624 6.68051 18.736 7.00691 18.736 7.40691C18.736 7.80691 19.0624 8.13331 19.4624 8.13331C19.8624 8.13331 20.1888 7.80691 20.1888 7.40691C20.1888 7.00531 19.8624 6.68051 19.4624 6.68051Z" fill="#6A00FF"/>
<path d="M13.4962 18.9356C13.2754 18.9356 13.0962 18.7564 13.0962 18.5356V7.73398C13.0962 7.51318 13.2754 7.33398 13.4962 7.33398C13.717 7.33398 13.8962 7.51318 13.8962 7.73398V18.5356C13.8962 18.7564 13.717 18.9356 13.4962 18.9356Z" fill="#6A00FF"/>
<path d="M13.4965 19.6029C13.3877 19.6029 13.2853 19.5597 13.21 19.4813L10.9812 17.1853C10.8276 17.0269 10.8308 16.7741 10.9892 16.6189C11.1476 16.4653 11.4004 16.4685 11.5556 16.6269L13.4965 18.6269L15.4373 16.6269C15.5909 16.4685 15.8437 16.4653 16.0037 16.6189C16.1621 16.7725 16.1653 17.0253 16.0117 17.1853L13.7829 19.4813C13.7077 19.5597 13.6053 19.6029 13.4965 19.6029Z" fill="#6A00FF"/>
</svg>
