<svg width="10" height="10" viewBox="0 0 10 10" fill="none" xmlns="http://www.w3.org/2000/svg">
<path d="M2.94995 0.561013C2.72988 0.541758 2.53586 0.704555 2.51661 0.924628L2.49941 1.12116C2.48017 1.34113 2.64281 1.53509 2.86277 1.55448L7.80726 1.99035L0.388123 8.21575C0.218893 8.35775 0.196819 8.61005 0.33882 8.77928L0.467378 8.93249C0.609378 9.10172 0.86168 9.12379 1.03091 8.98179L8.45005 2.75639L8.0207 7.70146C8.0016 7.92144 8.16437 8.11529 8.38434 8.13454L8.58087 8.15173C8.80094 8.17099 8.99496 8.00819 9.01421 7.78812L9.50848 2.13863C9.55661 1.58844 9.14962 1.10341 8.59944 1.05528L2.94995 0.561013Z" fill="#6939FF"/>
</svg>
