<svg
  width="20"
  height="20"
  viewBox="0 0 20 20"
  fill="none"
  xmlns="http://www.w3.org/2000/svg"
>
<path
    d="M18.1249 17.2402L13.4049 12.5202C14.5391 11.1585 15.1047 9.41193 14.9841 7.64385C14.8634 5.87577 14.0657 4.22228 12.7569 3.02736C11.4482 1.83244 9.7291 1.18808 7.95736 1.22834C6.18562 1.2686 4.49761 1.99037 3.24448 3.2435C1.99134 4.49663 1.26958 6.18465 1.22932 7.95639C1.18906 9.72813 1.83341 11.4472 3.02834 12.7559C4.22326 14.0647 5.87675 14.8624 7.64483 14.9831C9.41291 15.1038 11.1595 14.5382 12.5211 13.4039L17.2411 18.1239L18.1249 17.2402ZM2.49989 8.12391C2.49989 7.01139 2.82979 5.92386 3.44787 4.99883C4.06596 4.0738 4.94446 3.35283 5.97229 2.92709C7.00013 2.50135 8.13113 2.38995 9.22227 2.607C10.3134 2.82404 11.3157 3.35977 12.1024 4.14644C12.889 4.93311 13.4248 5.93539 13.6418 7.02653C13.8588 8.11767 13.7475 9.24867 13.3217 10.2765C12.896 11.3043 12.175 12.1828 11.25 12.8009C10.3249 13.419 9.23741 13.7489 8.12489 13.7489C6.63355 13.7473 5.20377 13.1541 4.14924 12.0996C3.09471 11.045 2.50154 9.61525 2.49989 8.12391Z"
    fill="#0E093F"
  />
</svg>
