<svg width="22" height="22" viewBox="0 0 22 22" fill="none" xmlns="http://www.w3.org/2000/svg">
<path d="M19.7077 8.75C19.8972 9.48515 19.9954 10.2408 20.0002 11C20.0002 12.78 19.4723 14.5201 18.4834 16.0001C17.4945 17.4802 16.0889 18.6337 14.4443 19.3149C12.7998 19.9961 10.9902 20.1743 9.24437 19.8271C7.49854 19.4798 5.89489 18.6226 4.63622 17.364C3.37754 16.1053 2.52038 14.5016 2.17311 12.7558C1.82584 11.01 2.00407 9.20039 2.68526 7.55585C3.36645 5.91131 4.52 4.50571 6.00005 3.51677C7.48009 2.52784 9.22015 2 11.0002 2V0.500001C8.82666 0.499256 6.70648 1.17304 4.93214 2.42839C3.1578 3.68374 1.81676 5.45878 1.09404 7.50863C0.371322 9.55847 0.302541 11.7821 0.897187 13.8727C1.49183 15.9633 2.7206 17.8178 4.41396 19.1804C6.10732 20.543 8.1818 21.3466 10.3512 21.4801C12.5206 21.6137 14.678 21.0708 16.5258 19.9263C18.3735 18.7817 19.8205 17.0919 20.6672 15.0901C21.5139 13.0883 21.7184 10.873 21.2527 8.75H19.7077Z" fill="#6939FF"/>
</svg>
