<svg width="48" height="48" viewBox="0 0 48 48" fill="none" xmlns="http://www.w3.org/2000/svg">
<path d="M26.61 45L24 43.5L30 33H39C39.7957 33 40.5587 32.6839 41.1213 32.1213C41.6839 31.5587 42 30.7956 42 30V12C42 11.2043 41.6839 10.4413 41.1213 9.87868C40.5587 9.31607 39.7957 9 39 9H9C8.20435 9 7.44129 9.31607 6.87868 9.87868C6.31607 10.4413 6 11.2043 6 12V30C6 30.7956 6.31607 31.5587 6.87868 32.1213C7.44129 32.6839 8.20435 33 9 33H22.5V36H9C7.4087 36 5.88258 35.3679 4.75736 34.2426C3.63214 33.1174 3 31.5913 3 30V12C3 10.4087 3.63214 8.88258 4.75736 7.75736C5.88258 6.63214 7.4087 6 9 6H39C40.5913 6 42.1174 6.63214 43.2426 7.75736C44.3679 8.88258 45 10.4087 45 12V30C45 31.5913 44.3679 33.1174 43.2426 34.2426C42.1174 35.3679 40.5913 36 39 36H31.74L26.61 45Z" fill="white"/>
<path d="M12 15H36V18H12V15ZM12 24H27V27H12V24Z" fill="white"/>
</svg>
