<svg width="148" height="148" viewBox="0 0 148 148" fill="none" xmlns="http://www.w3.org/2000/svg">
<path d="M0 32C0 16.9151 0 9.37258 4.68629 4.68629C9.37258 0 16.9151 0 32 0H116C131.085 0 138.627 0 143.314 4.68629C148 9.37258 148 16.9151 148 32V116C148 131.085 148 138.627 143.314 143.314C138.627 148 131.085 148 116 148H32C16.9151 148 9.37258 148 4.68629 143.314C0 138.627 0 131.085 0 116V32Z" fill="#F8F5FF"/>
<path d="M48.4203 30.0547H56.8699C54.6049 30.0547 52.7611 31.8685 52.7611 34.1101V39.925V104.715V113.922C52.7611 116.158 54.5988 117.978 56.8699 117.978H48.4203C46.1553 117.978 44.3115 116.164 44.3115 113.922V34.1101C44.3176 31.8685 46.1553 30.0547 48.4203 30.0547Z" fill="#CFBEFF"/>
<path d="M56.0579 117.893C56.3204 117.947 56.5952 117.972 56.876 117.972H48.4203C48.3837 117.972 48.3471 117.972 48.3043 117.972C48.109 117.966 47.9197 117.947 47.7304 117.917C46.717 117.749 45.8317 117.212 45.2151 116.453C45.0075 116.2 44.8305 115.917 44.69 115.622C44.4458 115.103 44.3115 114.531 44.3115 113.922V34.1101C44.3115 32.0553 45.8622 30.356 47.8709 30.0908C48.0479 30.0667 48.2311 30.0547 48.4203 30.0547H56.8699C56.3204 30.0547 55.7954 30.1632 55.3192 30.356C54.4461 30.7055 53.7257 31.3442 53.274 32.1517C53.1213 32.4168 53.0053 32.7 52.9199 33.0013C52.8161 33.3508 52.7672 33.7244 52.7672 34.1101V113.922C52.7672 115.881 54.1836 117.52 56.0579 117.893Z" fill="#CFBEFF"/>
<path d="M91.0404 108.118L81.8337 112.227C81.8765 112.016 81.8948 111.805 81.8948 111.583C81.8948 109.708 80.3563 108.19 78.4575 108.19L77.4746 105.834L79.3062 104.707H83.9766L91.0404 108.118Z" fill="#F8F5FF"/>
<path d="M104.133 104.5V38.25H99.7306H78.1917H54.8275H52.25V106.083H61.6721H79.0488H83.766H104.053C104.109 105.56 104.133 105.036 104.133 104.5Z" fill="white"/>
<path d="M104.136 35.6133V39.9218H99.7764L93.9644 36.3484L104.136 35.6133Z" fill="#170872"/>
<path d="M104.137 34.108V35.6205L93.9653 36.3556L85.998 31.4626L91.9811 30.0586H100.034C102.299 30.0526 104.137 31.8664 104.137 34.108Z" fill="#CFBEFF"/>
<path d="M91.0408 108.118L83.9771 104.707H104.063C103.752 107.75 102.5 110.522 100.602 112.733L91.0408 108.118Z" fill="#CFBEFF"/>
<path d="M91.0411 108.117L100.602 112.733C97.8545 115.933 93.7579 117.963 89.1729 117.963H79.3069V117.909L78.4521 114.975C80.1311 114.975 81.5231 113.787 81.8283 112.221L91.0411 108.117Z" fill="#8960FF"/>
<path d="M100.602 112.74C100.541 112.813 100.474 112.885 100.413 112.957C100.223 113.168 100.028 113.379 99.8204 113.584C99.6067 113.801 99.3808 114.012 99.1488 114.211C98.8374 114.488 98.52 114.747 98.1842 114.994C98.0132 115.127 97.8362 115.247 97.6591 115.374C97.3661 115.573 97.073 115.759 96.7678 115.934C96.0352 116.362 95.2659 116.724 94.4661 117.025C94.2036 117.121 93.9472 117.212 93.6785 117.296C92.256 117.736 90.748 117.977 89.179 117.977H79.3069V117.923L78.4521 114.988C79.0566 114.988 79.6182 114.837 80.1128 114.566C80.821 114.181 81.3827 113.548 81.6696 112.789C81.7368 112.614 81.7917 112.427 81.8283 112.24L83.2508 111.608H83.257L84.6917 110.969L86.2302 110.282L86.395 110.21L87.7626 109.601L88.5502 109.251L89.8078 108.691L91.0472 108.137L91.2487 108.233L92.0118 108.601L92.6101 108.89L94.0265 109.577L94.4112 109.764L95.5345 110.306L96.3648 110.71L98.8924 111.933L100.187 112.554L100.602 112.74Z" fill="#8960FF"/>
<path d="M99.777 39.9212H78.4516L71.6382 36.1189L71.6504 36.1008C71.8336 36.1972 72.0411 36.2515 72.2609 36.2515H84.6484C85.0025 36.2515 85.326 36.1069 85.558 35.8839C85.79 35.6549 85.9305 35.3416 85.9305 34.9921C85.9305 34.2931 85.3566 33.7266 84.6484 33.7266H76.3209L86.0037 31.4609L93.971 36.3539L99.777 39.9212Z" fill="#8960FF"/>
<path d="M91.9803 30.0529L85.9972 31.4569L76.3144 33.7226H72.2544C71.9003 33.7226 71.5829 33.8612 71.3509 34.0902C71.1189 34.3192 70.9784 34.6265 70.9784 34.97L71.882 36.2475L63.292 31.4509L64.6107 30.0469H91.9803V30.0529Z" fill="#170872"/>
<path d="M66.0522 31.0589C66.1621 31.1312 66.2537 31.2336 66.3208 31.3541L66.9435 32.481L66.3208 32.8365L65.6065 31.5892L64.88 31.9808L64.5137 31.3421L65.1242 31.0107C65.3806 30.8721 65.6737 30.8721 65.924 30.9866C65.8141 30.9082 65.7164 30.8058 65.6492 30.6793L65.3196 30.0586H67.1023V30.0827L67.4564 30.7275L66.8398 31.0468C66.5833 31.1734 66.2964 31.1734 66.0522 31.0589Z" fill="#021544"/>
<path d="M69.0379 34.6631L67.9878 34.0782L68.1282 33.8672L68.7082 34.2471C68.8669 34.3556 68.9768 34.5003 69.0379 34.6631Z" fill="#021544"/>
<path d="M69.9775 33.5156L70.5758 33.9133L69.7822 35.0763L69.1533 34.7268C69.1777 34.6666 69.2083 34.6063 69.251 34.5521L69.9775 33.5156Z" fill="#021544"/>
<path d="M70.869 30.7455L71.5467 31.2095L71.1315 31.8181L70.5576 31.4265C70.3195 31.2638 70.1913 31.0107 70.1791 30.7455C70.1608 30.8781 70.1181 31.0046 70.0387 31.1252L69.3122 32.1857L68.7017 31.8001L69.4953 30.6009L68.8054 30.149L68.8665 30.0586H71.333L70.869 30.7455Z" fill="#021544"/>
<path d="M75.0091 32.1807L74.2093 33.3498L74.7527 33.7234H72.4999L72.8417 33.2051L72.1519 32.7532L72.5548 32.1386L73.1348 32.5242C73.379 32.6869 73.5133 32.946 73.5255 33.2112C73.5438 33.0786 73.5927 32.946 73.6782 32.8255L74.4047 31.7891L75.0091 32.1807Z" fill="#021544"/>
<path d="M75.8021 30.0547L75.2465 30.8687L74.6421 30.4828L74.9229 30.0547H75.8021Z" fill="#021544"/>
<path d="M77.3708 30.0547L77.0656 30.5009L76.4917 30.109C76.4673 30.0909 76.4429 30.0728 76.4185 30.0547H77.3708Z" fill="#021544"/>
<path d="M91.9809 30.0547L89.783 30.5669L88.5071 30.8682L87.7866 31.0369L85.9978 31.4587L85.3751 31.6033L84.6364 31.7781L82.0112 32.3927L81.2785 32.5614L80.6924 31.531L79.9659 31.9227L79.5996 31.284L80.2101 30.9525C80.4665 30.8139 80.7596 30.8139 81.0038 30.9284C80.8939 30.8501 80.7962 30.7477 80.7291 30.6211L80.4299 30.0607H91.9809V30.0547Z" fill="#021544"/>
<path d="M91.1015 79.2539H85.9365V84.3518H91.1015V79.2539Z" fill="#CFBEFF"/>
<path d="M91.1015 71.2109H85.9365V76.3087H91.1015V71.2109Z" fill="#CFBEFF"/>
<path d="M91.1015 63.1719H85.9365V68.2697H91.1015V63.1719Z" fill="#CFBEFF"/>
<path d="M84.6485 33.7227C85.3567 33.7227 85.9306 34.2891 85.9306 34.9881C85.9306 35.3376 85.7902 35.6509 85.5582 35.8799C85.3262 36.1089 85.0026 36.2475 84.6485 36.2475H72.2611C72.0413 36.2475 71.8337 36.1932 71.6506 36.0968C71.2476 35.8799 70.979 35.4641 70.979 34.9821C70.979 34.976 70.979 34.97 70.979 34.97C70.9851 34.6265 71.1255 34.3132 71.3514 34.0902C71.5834 33.8612 71.9009 33.7227 72.255 33.7227H76.3149H84.6485Z" fill="#6645EF"/>
<path d="M81.8887 87.293H76.7236V92.3908H81.8887V87.293Z" fill="#CFBEFF"/>
<path d="M81.8887 79.2539H76.7236V84.3518H81.8887V79.2539Z" fill="#CFBEFF"/>
<path d="M81.8887 71.2109H76.7236V76.3087H81.8887V71.2109Z" fill="#CFBEFF"/>
<path d="M81.8887 63.1719H76.7236V68.2697H81.8887V63.1719Z" fill="#CFBEFF"/>
<path d="M81.895 111.59C81.895 111.807 81.8705 112.023 81.8339 112.234C81.5286 113.801 80.1367 114.988 78.4577 114.988C76.559 114.988 75.0205 113.47 75.0205 111.596C75.0205 109.722 76.559 108.203 78.4577 108.203C80.3503 108.197 81.895 109.716 81.895 111.59Z" fill="#CFBEFF"/>
<path d="M79.3061 117.914V117.968H73.2375V117.914L66.2227 112.738L77.4745 105.832L78.4575 108.188C76.5588 108.188 75.0202 109.707 75.0202 111.581C75.0202 113.455 76.5588 114.973 78.4575 114.973L79.3061 117.914Z" fill="#6645EF"/>
<path d="M79.3063 104.711L77.4748 105.832L66.2229 112.737L59.208 107.561L62.0958 104.711H79.3063Z" fill="#170872"/>
<path d="M78.4519 39.9233H55.3193L63.2927 31.457L70.0023 35.2051L71.6385 36.115L78.4519 39.9233Z" fill="#CFBEFF"/>
<path d="M73.2373 117.917V117.971H56.8754C54.6104 117.971 52.7666 116.157 52.7666 113.916L59.2076 107.559L66.2225 112.735L73.2373 117.917Z" fill="#CFBEFF"/>
<path d="M72.6767 79.2539H67.5117V84.3518H72.6767V79.2539Z" fill="#CFBEFF"/>
<path d="M72.6767 71.2109H67.5117V76.3087H72.6767V71.2109Z" fill="#CFBEFF"/>
<path d="M72.6767 63.1719H67.5117V68.2697H72.6767V63.1719Z" fill="#CFBEFF"/>
<path d="M64.6107 30.0547L63.292 31.4587L55.3186 39.925H52.7666V34.1101C52.7666 31.8745 54.6043 30.0547 56.8754 30.0547H64.6107Z" fill="#8960FF"/>
<path d="M62.0953 104.711L59.2076 107.561L52.7666 113.918V104.711H62.0953Z" fill="#8960FF"/>
<path d="M83.274 111.457C83.2679 111.505 83.2618 111.547 83.2557 111.59C83.2557 111.602 83.2496 111.614 83.2496 111.626C83.2129 111.77 83.1397 111.903 83.0359 112.023L82.0773 113.114L81.6743 112.783C81.7415 112.608 81.7964 112.421 81.8331 112.234L83.2557 111.602C83.2557 111.553 83.2618 111.505 83.274 111.457Z" fill="#6645EF"/>
<path d="M84.7084 112.329L84.159 112.95L83.5729 112.432C83.3348 112.221 83.2249 111.919 83.2432 111.624C83.2432 111.612 83.2432 111.6 83.2493 111.594C83.2554 111.546 83.2615 111.504 83.2737 111.455C83.2676 111.504 83.2615 111.546 83.2554 111.588L84.6901 110.949L84.0124 111.714L84.7084 112.329Z" fill="#6645EF"/>
<path d="M91.0401 108.117L91.2416 108.22L90.4052 109.172L89.8008 108.672L91.0401 108.117Z" fill="#6645EF"/>
<path d="M92.6032 108.875L92.4872 109.008L92.0049 108.586L92.6032 108.875Z" fill="#6645EF"/>
<path d="M87.4135 118L87.4502 116.56C87.4624 116.017 87.0289 115.565 86.4794 115.553L85.698 115.535L85.6919 116.361L86.6199 116.385L86.6016 118H87.4135Z" fill="#6645EF"/>
<path d="M87.2432 114.102L87.1821 115.518C87.1577 116.06 87.5851 116.518 88.1346 116.536L88.9161 116.566L88.9405 115.741L88.0125 115.704L88.0552 114.12L87.2432 114.102Z" fill="#6645EF"/>
<path d="M81.351 117.967L80.7955 116.979L79.9774 117.413L79.5684 116.69L80.2582 116.322C80.5513 116.172 80.881 116.172 81.1557 116.304C81.2045 116.328 81.2534 116.353 81.2961 116.389C81.4182 116.473 81.522 116.588 81.6014 116.726L82.279 117.967H81.351Z" fill="#6645EF"/>
<path d="M80.1909 114.696L80.8503 115.955C81.1006 116.437 81.6989 116.624 82.1873 116.377L82.8833 116.022L82.4864 115.293L81.6622 115.714L80.9052 114.316L80.1909 114.696Z" fill="#6645EF"/>
<path d="M92.8225 115.276L92.1326 114.004C91.8701 113.528 91.2718 113.348 90.7895 113.607L90.0996 113.974L90.5087 114.698L91.3268 114.264L92.1204 115.674L92.8225 115.276Z" fill="#6645EF"/>
<path d="M90.7163 111.973L91.3757 113.233C91.626 113.715 92.2243 113.902 92.7127 113.655L93.4087 113.299L93.0119 112.57L92.1877 112.992L91.4306 111.594L90.7163 111.973Z" fill="#6645EF"/>
<path d="M94.4592 117.023C94.1967 117.12 93.9403 117.21 93.6717 117.294L93.2993 116.583L94.0136 116.203L94.4592 117.023Z" fill="#6645EF"/>
<path d="M97.3775 115.246C97.4813 115.276 97.5729 115.319 97.6523 115.373C97.3592 115.572 97.0661 115.759 96.7609 115.934L96.4067 115.831L96.6265 115.035L97.3775 115.246Z" fill="#6645EF"/>
<path d="M99.1473 114.21C98.8359 114.488 98.5184 114.747 98.1826 114.994L98.4818 114.023L99.1473 114.21Z" fill="#6645EF"/>
<path d="M100.405 112.957C100.216 113.167 100.021 113.378 99.8132 113.583L99.276 112.631L98.4579 113.065L98.0488 112.342L98.7387 111.974C98.7876 111.95 98.8303 111.926 98.8791 111.914L100.173 112.535L100.405 112.957Z" fill="#6645EF"/>
<path d="M88.5426 109.23L88.6158 109.598C88.6769 109.917 88.5731 110.231 88.3655 110.448C88.3289 110.49 88.2862 110.526 88.2373 110.562C88.1213 110.653 87.9809 110.713 87.8222 110.743L86.3875 111.008L86.2288 110.261L86.2227 110.225L86.3936 110.189L87.8222 109.905L87.7611 109.58L88.5426 109.23Z" fill="#6645EF"/>
<path d="M90.2094 110.035L88.793 110.27C88.2496 110.361 87.8894 110.867 87.981 111.403L88.1153 112.168L88.9395 112.018L88.7808 111.114L90.3621 110.825L90.2094 110.035Z" fill="#6645EF"/>
<path d="M96.3696 111.191L95.5332 111.215L95.521 110.444C95.521 110.395 95.521 110.341 95.5332 110.293L96.3635 110.697L96.3696 111.191Z" fill="#6645EF"/>
<path d="M94.019 109.562L94.4104 109.749L94.0252 109.743L94.019 109.562Z" fill="#6645EF"/>
<path d="M88.5129 30.8667L87.7925 31.0355L87.7437 30.7159L86.9256 30.8365L86.8096 30.113L87.182 30.0587L87.4995 30.0105C87.6521 29.9864 87.7986 30.0045 87.939 30.0587C88.0611 30.1009 88.171 30.1733 88.2565 30.2637C88.2931 30.2999 88.3237 30.3361 88.3542 30.3783C88.4336 30.4868 88.4824 30.6134 88.5007 30.7521L88.5129 30.8667Z" fill="#F8F5FF"/>
<path d="M89.7761 30.5371L89.0862 30.6275C88.7993 30.6637 88.5306 30.5612 88.3414 30.3743C88.3047 30.3381 88.2742 30.3019 88.2437 30.2597C88.2009 30.1994 88.1643 30.127 88.1338 30.0547H89.6967L89.7761 30.5371Z" fill="#F8F5FF"/>
<path d="M68.8724 30.0529L68.8113 30.1433L69.5012 30.5952L68.7075 31.7944L69.318 32.18L70.0446 31.1134C70.1239 30.999 70.1728 30.8664 70.185 30.7338C70.1911 30.6856 70.1911 30.6374 70.1911 30.5952C70.185 30.3964 70.1056 30.1975 69.9652 30.0469H68.8724V30.0529Z" fill="#F8F5FF"/>
<path d="M70.4537 30.0547L70.3438 30.2114C70.2583 30.3319 70.2095 30.4644 70.1912 30.603C70.1851 30.6512 70.1851 30.6995 70.1851 30.7416C70.1973 31.0068 70.3255 31.2599 70.5636 31.4226L71.1375 31.8142L71.5526 31.2056L70.8749 30.7416L71.345 30.0547H70.4537Z" fill="#F8F5FF"/>
<path d="M74.922 30.0547H75.8011L75.2455 30.8687L74.6411 30.4828L74.922 30.0547Z" fill="#F8F5FF"/>
<path d="M77.3704 30.0547L77.0651 30.5009L76.4912 30.109C76.4668 30.0909 76.4424 30.0728 76.418 30.0547H77.3704Z" fill="#F8F5FF"/>
<path d="M73.5245 33.3539C73.5062 33.4805 73.4635 33.607 73.3841 33.7215H72.4989L72.8408 33.2033L72.1509 32.7514L72.5538 32.1367L73.1338 32.5224C73.378 32.6851 73.5123 32.9442 73.5245 33.2093C73.5306 33.2515 73.5306 33.2997 73.5245 33.3539Z" fill="#F8F5FF"/>
<path d="M74.2075 33.3498L74.7508 33.7234H73.6214C73.5603 33.6089 73.5237 33.4823 73.5176 33.3558C73.5176 33.3076 73.5176 33.2594 73.5237 33.2112C73.542 33.0786 73.5908 32.946 73.6763 32.8255L74.4028 31.7891L75.0011 32.1868L74.2075 33.3498Z" fill="#F8F5FF"/>
<path d="M69.0369 34.6631L67.9868 34.0782L68.1272 33.8672L68.7072 34.2471C68.866 34.3556 68.9759 34.5003 69.0369 34.6631Z" fill="#F8F5FF"/>
<path d="M69.0918 35.0843C69.0918 35.0361 69.0918 34.9879 69.0981 34.9336C69.0981 34.9879 69.0981 35.0361 69.0918 35.0843Z" fill="#F8F5FF"/>
<path d="M69.0918 35.0843C69.0918 35.0361 69.0918 34.9879 69.0981 34.9336C69.0981 34.9879 69.0981 35.0361 69.0918 35.0843Z" fill="#F8F5FF"/>
<path d="M70.5753 33.9133L69.7817 35.0763L69.1528 34.7268C69.1773 34.6666 69.2078 34.6063 69.2505 34.5521L69.977 33.5156L70.5753 33.9133Z" fill="#F8F5FF"/>
<path d="M66.9431 32.4798L66.3203 32.8353L65.606 31.588L64.8795 31.9797L64.5132 31.3409L65.1237 31.0095C65.3801 30.8709 65.6732 30.8709 65.9235 30.9854C65.9662 31.0035 66.0151 31.0336 66.0517 31.0577C66.1616 31.13 66.2532 31.2325 66.3203 31.353L66.9431 32.4798Z" fill="#F8F5FF"/>
<path d="M66.1496 30.0547L66.3694 30.4587L67.1021 30.0788L67.4562 30.724L66.8395 31.0435C66.5831 31.1762 66.2962 31.1702 66.052 31.0616C66.0031 31.0435 65.9604 31.0134 65.9238 30.9893C65.8139 30.9109 65.7162 30.8084 65.649 30.6818L65.3193 30.0607H66.1496V30.0547Z" fill="#F8F5FF"/>
<path d="M82.0353 32.4251L81.4065 32.7807L81.2844 32.5637L80.6983 31.5333L79.9718 31.925L79.6055 31.2863L80.216 30.9548C80.4724 30.8162 80.7654 30.8162 81.0096 30.9307C81.0524 30.9488 81.1012 30.9789 81.1378 31.003C81.2477 31.0753 81.3393 31.1778 81.4065 31.2983L82.0109 32.389L82.0353 32.4251Z" fill="#F8F5FF"/>
<path d="M82.5477 30.6626L81.931 30.9822C81.6746 31.1148 81.3877 31.1088 81.1435 31.0002C81.1008 30.9822 81.058 30.952 81.0153 30.9279C80.9054 30.8495 80.8077 30.747 80.7406 30.6204L80.4414 30.0596H81.2717L81.461 30.4033L82.1264 30.0596L82.1936 30.0234L82.2119 30.0596L82.5477 30.6626Z" fill="#F8F5FF"/>
<path d="M85.3809 31.6036L84.6422 31.7724L84.2148 30.9705L84.8498 30.6328L85.3809 31.6036Z" fill="#F8F5FF"/>
<path d="M96.1381 36.9211C96.2541 36.9994 96.3517 37.1079 96.425 37.2404L96.9439 38.1865L95.6985 37.4212L94.9659 36.9693L93.9585 36.3486L95.552 36.2341L96.4067 36.1739L96.7242 36.1498L97.3713 36.1016L97.6277 36.5656L96.9745 36.903C96.7058 37.0416 96.4006 37.0416 96.1381 36.9211Z" fill="#021544"/>
<path d="M100.894 39.925H100.04L100.314 39.5391L100.894 39.925Z" fill="#021544"/>
<path d="M101.261 36.5846L101.981 37.0787L101.541 37.7235L100.931 37.3077C100.681 37.1329 100.54 36.8618 100.528 36.5846C100.51 36.7232 100.461 36.8618 100.375 36.9883L99.6061 38.1212L98.959 37.7114L99.8015 36.4339L99.1116 35.982L100.327 35.8916L100.809 35.8555H100.845H101.755L101.261 36.5846Z" fill="#021544"/>
<path d="M104.136 38.9944V39.6452C104.099 39.5548 104.081 39.4584 104.075 39.362C104.057 39.5006 104.008 39.6331 103.928 39.7536H102.988L103.355 39.2053L102.622 38.7232L103.056 38.0664L103.672 38.4762C103.929 38.6449 104.075 38.9221 104.087 39.2053C104.099 39.133 104.112 39.0607 104.136 38.9944Z" fill="#021544"/>
<path d="M49.4091 50.8259L51.4726 48.4758C52.248 47.596 52.1503 46.2583 51.2589 45.493L49.9829 44.4023L48.823 45.7642L50.337 47.0597L48.0659 49.7111L49.4091 50.8259Z" fill="#8960FF"/>
<path d="M52.7675 46.0508V49.4795L52.6332 49.359C52.1142 48.901 51.8761 48.2502 51.9311 47.6175C51.9433 47.497 51.9616 47.3765 51.9921 47.2559C52.0776 46.9366 52.2363 46.6353 52.4683 46.3762L52.7675 46.0508Z" fill="#8960FF"/>
<path d="M52.5352 40.1229L52.7676 39.8516V40.3158L52.5352 40.1229Z" fill="#8960FF"/>
<path d="M49.8793 61.3567L48.3896 58.615C47.828 57.5846 46.5337 57.199 45.4897 57.7534L44 58.5427L44.8791 60.0974L46.6436 59.1634L48.353 62.2003L49.8793 61.3567Z" fill="#8960FF"/>
<path d="M45.3428 54.2414L46.7592 56.953C47.3025 57.9894 48.5907 58.3992 49.6408 57.8629L51.1427 57.0976L50.2941 55.5309L48.5114 56.4408L46.8813 53.4219L45.3428 54.2414Z" fill="#8960FF"/>
<path d="M52.6513 63.7383L52.7673 63.7684V65.5882L52.1445 65.3894L52.6513 63.7383Z" fill="#8960FF"/>
<path d="M47.749 70.0757L46.2227 70.9193L44.5132 67.8823L44.3179 67.9847V66.2191C44.6537 66.2131 44.9894 66.2794 45.2947 66.424C45.4046 66.4722 45.5145 66.5385 45.6122 66.6048C45.8747 66.7856 46.1006 67.0326 46.2654 67.3279L47.749 70.0757Z" fill="#8960FF"/>
<path d="M49.0125 65.8182L47.5106 66.5835C46.894 66.8968 46.1919 66.8847 45.6058 66.6136C45.4959 66.5593 45.3921 66.4991 45.2884 66.4328C45.0197 66.246 44.7877 65.9869 44.6229 65.6796L44.3115 65.083V62.3774L44.745 62.1484L46.3751 65.1674L48.1578 64.2575L49.0125 65.8182Z" fill="#8960FF"/>
<path d="M47.4987 43.7802L44.3179 43.8585V42.0869L47.4437 42.0508L47.4987 43.7802Z" fill="#8960FF"/>
<path d="M55.3247 30.3555C54.4517 30.705 53.7313 31.3437 53.2795 32.1512L52.9132 32.1572L52.9254 32.9948L52.9376 34.1337L52.7667 34.1397L51.1305 34.1819L51.106 32.5127C51.0999 31.8137 51.4357 31.1931 51.9547 30.8014C52.0523 30.7291 52.1561 30.6628 52.2721 30.6086C52.5591 30.4639 52.8827 30.3796 53.2245 30.3796L55.3247 30.3555Z" fill="#8960FF"/>
<path d="M52.7973 30.0529C52.6568 30.2639 52.4859 30.4569 52.2783 30.6076C52.1806 30.68 52.0768 30.7463 51.9608 30.8006C51.6678 30.9513 51.332 31.0297 50.9779 31.0297L47.8887 31.0116L47.8765 30.0831C48.0535 30.0589 48.2367 30.0469 48.4259 30.0469H52.7973V30.0529Z" fill="#8960FF"/>
<path d="M47.6207 78.7402L49.8613 76.5528C50.7038 75.7332 50.7099 74.3955 49.8796 73.5639L48.6891 72.3828L47.4253 73.6543L48.8356 75.0583L46.3691 77.535L47.6207 78.7402Z" fill="#8960FF"/>
<path d="M52.767 76.8178L52.016 76.0464L52.767 75.3173V72.8828L51.0148 74.5339C50.7584 74.775 50.5752 75.0642 50.4714 75.3776C50.4348 75.492 50.4043 75.6065 50.386 75.7271C50.2822 76.3538 50.4714 77.0226 50.9537 77.5168L52.1259 78.7219L52.7731 78.0892V76.8178H52.767Z" fill="#8960FF"/>
<path d="M49.4091 104.271L51.4726 101.921C52.248 101.041 52.1503 99.7036 51.2589 98.9383L49.9829 97.8477L48.823 99.2095L50.337 100.505L48.0659 103.156L49.4091 104.271Z" fill="#8960FF"/>
<path d="M52.7675 99.5039V102.933L52.6332 102.812C52.1142 102.354 51.8761 101.703 51.9311 101.071C51.9433 100.95 51.9616 100.83 51.9921 100.709C52.0776 100.39 52.2363 100.088 52.4683 99.8293L52.7675 99.5039Z" fill="#8960FF"/>
<path d="M52.5352 93.5782L52.7676 93.3008V93.7712L52.5352 93.5782Z" fill="#8960FF"/>
<path d="M49.8793 114.806L48.3896 112.064C47.828 111.034 46.5337 110.648 45.4897 111.203L44 111.992L44.8791 113.547L46.6436 112.613L48.353 115.65L49.8793 114.806Z" fill="#8960FF"/>
<path d="M45.3428 107.687L46.7592 110.398C47.3025 111.435 48.5907 111.845 49.6408 111.308L51.1427 110.543L50.2941 108.976L48.5114 109.886L46.8813 106.867L45.3428 107.687Z" fill="#8960FF"/>
<path d="M52.6517 117.184L55.2586 117.967H52.4136L52.6517 117.184Z" fill="#8960FF"/>
<path d="M56.8762 117.972H56.0337L56.0581 117.891C56.3206 117.947 56.5954 117.972 56.8762 117.972Z" fill="#8960FF"/>
<path d="M44.751 115.59L45.215 116.452C45.0074 116.199 44.8304 115.915 44.6899 115.62L44.751 115.59Z" fill="#8960FF"/>
<path d="M48.3097 117.971C48.1144 117.965 47.9251 117.946 47.7358 117.916L48.1632 117.699L48.3097 117.971Z" fill="#8960FF"/>
<path d="M47.4987 97.2294L44.3179 97.3077V95.5422L47.4437 95.5L47.4987 97.2294Z" fill="#8960FF"/>
<path d="M45.1726 82.1921L44.4827 83.7829L44.3179 83.7106V81.8125L45.1726 82.1921Z" fill="#8960FF"/>
<path d="M52.7667 83.8789V87.5848L51.1305 87.627L51.106 85.9578C51.0999 85.2588 51.4357 84.6382 51.9547 84.2465C52.0523 84.1742 52.1561 84.1079 52.2721 84.0537C52.4309 83.9813 52.5957 83.9211 52.7667 83.8789Z" fill="#8960FF"/>
<path d="M52.7667 83.5491C52.6324 83.748 52.4676 83.9167 52.2783 84.0613C52.1806 84.1336 52.0768 84.1999 51.9608 84.2541C51.6678 84.4048 51.332 84.4831 50.9779 84.4831L47.8887 84.465L47.8643 82.7356L51.3259 82.7055L51.332 80.729L52.7667 80.7109V83.5491Z" fill="#8960FF"/>
</svg>
