<svg width="14" height="14" viewBox="0 0 14 14" fill="none" xmlns="http://www.w3.org/2000/svg">
<path d="M7.58366 12.4173C7.99787 12.4173 8.33366 12.0815 8.33366 11.6673C8.33366 11.2531 7.99787 10.9173 7.58366 10.9173V12.4173ZM12.0837 8.16732C12.0837 8.58153 12.4194 8.91732 12.8337 8.91732C13.2479 8.91732 13.5837 8.58153 13.5837 8.16732H12.0837ZM5.16699 3.08398H8.83366V1.58398H5.16699V3.08398ZM7.58366 10.9173H5.16699V12.4173H7.58366V10.9173ZM1.91699 7.66732V6.33398H0.416992V7.66732H1.91699ZM12.0837 6.33398V8.16732H13.5837V6.33398H12.0837ZM5.16699 10.9173C3.37207 10.9173 1.91699 9.46224 1.91699 7.66732H0.416992C0.416992 10.2907 2.54364 12.4173 5.16699 12.4173V10.9173ZM8.83366 3.08398C10.6286 3.08398 12.0837 4.53906 12.0837 6.33398H13.5837C13.5837 3.71063 11.457 1.58398 8.83366 1.58398V3.08398ZM5.16699 1.58398C2.54364 1.58398 0.416992 3.71063 0.416992 6.33398H1.91699C1.91699 4.53906 3.37207 3.08398 5.16699 3.08398V1.58398Z" fill="#0E81FF"/>
<ellipse rx="0.583333" ry="0.583333" transform="matrix(1 0 0 -1 3.50033 4.66667)" fill="#0E81FF"/>
<circle r="1.16667" transform="matrix(1 0 0 -1 6.99967 6.99935)" stroke="#0E81FF" stroke-width="1.5"/>
<path d="M9.72772 12.1963C10.0206 12.4892 10.4955 12.4892 10.7884 12.1963C11.0813 11.9035 11.0813 11.4286 10.7884 11.1357L9.72772 12.1963ZM9.50386 10.9118L8.97353 11.4422L8.97353 11.4422L9.50386 10.9118ZM9.50386 10.0869L10.0342 10.6172L10.0342 10.6172L9.50386 10.0869ZM10.7884 9.86301C11.0813 9.57012 11.0813 9.09524 10.7884 8.80235C10.4955 8.50946 10.0206 8.50946 9.72772 8.80235L10.7884 9.86301ZM12.833 11.2493C13.2472 11.2493 13.583 10.9136 13.583 10.4993C13.583 10.0851 13.2472 9.74935 12.833 9.74935L12.833 11.2493ZM9.67472 9.74935C9.2605 9.74935 8.92472 10.0851 8.92472 10.4993C8.92472 10.9136 9.2605 11.2493 9.67472 11.2493L9.67472 9.74935ZM10.7884 11.1357L10.0342 10.3815L8.97353 11.4422L9.72772 12.1963L10.7884 11.1357ZM10.0342 10.6172L10.7884 9.86301L9.72772 8.80235L8.97353 9.55654L10.0342 10.6172ZM10.0342 10.3815C10.0993 10.4466 10.0993 10.5521 10.0342 10.6172L8.97353 9.55654C8.45283 10.0772 8.45283 10.9215 8.97353 11.4422L10.0342 10.3815ZM12.833 9.74935L9.67472 9.74935L9.67472 11.2493L12.833 11.2493L12.833 9.74935Z" fill="#0E81FF"/>
</svg>
