<svg width="14" height="14" viewBox="0 0 14 14" fill="none" xmlns="http://www.w3.org/2000/svg">
<rect x="1.16699" y="1.16602" width="5.83333" height="4.66667" rx="2" stroke="#0E81FF" stroke-width="1.5"/>
<rect x="7" y="8.16602" width="5.83333" height="4.66667" rx="2" stroke="#0E81FF" stroke-width="1.5"/>
<path d="M12.4383 1.80365C12.1454 1.51076 11.6705 1.51076 11.3776 1.80365C11.0847 2.09655 11.0847 2.57142 11.3776 2.86431L12.4383 1.80365ZM12.6622 3.08817L13.1925 2.55784L12.6622 3.08817ZM12.6622 3.91313L12.1318 3.3828L12.1318 3.3828L12.6622 3.91313ZM11.3776 4.13699C11.0847 4.42988 11.0847 4.90475 11.3776 5.19765C11.6705 5.49054 12.1454 5.49054 12.4383 5.19765L11.3776 4.13699ZM9.33301 2.75065C8.91879 2.75065 8.58301 3.08644 8.58301 3.50065C8.58301 3.91486 8.91879 4.25065 9.33301 4.25065L9.33301 2.75065ZM12.4913 4.25065C12.9055 4.25065 13.2413 3.91486 13.2413 3.50065C13.2413 3.08644 12.9055 2.75065 12.4913 2.75065L12.4913 4.25065ZM11.3776 2.86431L12.1318 3.6185L13.1925 2.55784L12.4383 1.80365L11.3776 2.86431ZM12.1318 3.3828L11.3776 4.13699L12.4383 5.19765L13.1925 4.44346L12.1318 3.3828ZM12.1318 3.6185C12.0667 3.55341 12.0667 3.44789 12.1318 3.3828L13.1925 4.44346C13.7132 3.92276 13.7132 3.07854 13.1925 2.55784L12.1318 3.6185ZM9.33301 4.25065L12.4913 4.25065L12.4913 2.75065L9.33301 2.75065L9.33301 4.25065Z" fill="#0E81FF"/>
<path d="M1.5617 8.80365C1.8546 8.51076 2.32947 8.51076 2.62236 8.80365C2.91526 9.09655 2.91526 9.57142 2.62236 9.86431L1.5617 8.80365ZM1.33785 10.0882L0.807516 9.55784L0.807516 9.55784L1.33785 10.0882ZM1.33785 10.9131L1.86818 10.3828L1.86818 10.3828L1.33785 10.9131ZM2.62236 11.137C2.91526 11.4299 2.91526 11.9048 2.62236 12.1976C2.32947 12.4905 1.8546 12.4905 1.5617 12.1976L2.62236 11.137ZM4.66699 9.75065C5.08121 9.75065 5.41699 10.0864 5.41699 10.5007C5.41699 10.9149 5.08121 11.2507 4.66699 11.2507L4.66699 9.75065ZM1.5087 11.2507C1.09449 11.2507 0.758701 10.9149 0.758701 10.5007C0.758701 10.0864 1.09449 9.75065 1.5087 9.75065L1.5087 11.2507ZM2.62236 9.86431L1.86818 10.6185L0.807516 9.55784L1.5617 8.80365L2.62236 9.86431ZM1.86818 10.3828L2.62236 11.137L1.5617 12.1976L0.807517 11.4435L1.86818 10.3828ZM1.86818 10.6185C1.93326 10.5534 1.93326 10.4479 1.86818 10.3828L0.807517 11.4435C0.286818 10.9228 0.286817 10.0785 0.807516 9.55784L1.86818 10.6185ZM4.66699 11.2507L1.5087 11.2507L1.5087 9.75065L4.66699 9.75065L4.66699 11.2507Z" fill="#0E81FF"/>
</svg>
