<svg width="24" height="20" viewBox="0 0 24 20" fill="none" xmlns="http://www.w3.org/2000/svg">
<path d="M6.98343 20C6.88542 20 6.78891 19.9596 6.71653 19.882L0.110456 12.801C-0.0358095 12.6442 -0.0373175 12.3889 0.108948 12.2305L6.85828 4.91836C6.96534 4.80198 7.12819 4.76643 7.26993 4.82946C7.41167 4.8925 7.50365 5.03958 7.50365 5.20283V9.6347H16.9265C17.1346 9.6347 17.3034 9.81573 17.3034 10.0388V12.9707L23.0742 7.13591L17.3939 1.34635V3.92595C17.3939 4.149 17.225 4.33003 17.0169 4.33003H10.2314C10.0233 4.33003 9.85446 4.149 9.85446 3.92595C9.85446 3.7029 10.0233 3.52188 10.2314 3.52188H16.64V0.404046C16.64 0.242417 16.7304 0.0969504 16.8677 0.0322987C17.0064 -0.0307368 17.1662 -2.68361e-05 17.2763 0.111497L23.8824 6.84336C23.9578 6.91933 24 7.02601 24 7.13753C24 7.24905 23.9563 7.35411 23.8824 7.43008L17.1873 14.2007C17.0773 14.3106 16.9174 14.3414 16.7787 14.2783C16.64 14.2137 16.551 14.0682 16.551 13.9066V10.4412H7.12668C6.91859 10.4412 6.74971 10.2602 6.74971 10.0372V6.18553L0.908131 12.5133L6.60495 18.6197V15.5116C6.60495 15.2885 6.77383 15.1075 6.98192 15.1075H14.057C14.265 15.1075 14.4339 15.2885 14.4339 15.5116C14.4339 15.7346 14.265 15.9156 14.057 15.9156H7.3604V19.5959C7.3604 19.7592 7.26842 19.9063 7.12819 19.9693C7.07994 19.9887 7.03168 20 6.98343 20Z" fill="#6A00FF"/>
</svg>
