<svg width="148" height="148" viewBox="0 0 148 148" fill="none" xmlns="http://www.w3.org/2000/svg">
<path d="M0 32C0 16.9151 0 9.37258 4.68629 4.68629C9.37258 0 16.9151 0 32 0H116C131.085 0 138.627 0 143.314 4.68629C148 9.37258 148 16.9151 148 32V116C148 131.085 148 138.627 143.314 143.314C138.627 148 131.085 148 116 148H32C16.9151 148 9.37258 148 4.68629 143.314C0 138.627 0 131.085 0 116V32Z" fill="#F8F5FF"/>
<path d="M74.8504 56.085L73.8912 59.2117C73.1054 58.6715 71.9156 58.8754 71.2808 59.2048C70.5499 59.5803 70.235 60.2358 70.4888 60.7209C70.8244 61.3631 71.8775 61.0895 73.6447 60.9888C76.2116 60.8443 78.2874 61.4757 79.3722 63.5523C79.8315 64.4389 79.9788 65.3477 79.868 66.2198L70.6286 70.5696C70.5555 70.5189 70.4823 70.4682 70.4118 70.4068L71.3998 67.087C72.4028 67.6689 73.7119 67.6562 74.83 67.085C75.5807 66.698 76.1705 66.0324 75.8645 65.4567C75.4912 64.7341 73.7898 64.7968 72.1678 64.8602C70.0832 64.9584 68.0315 64.5361 66.9225 62.4177C65.9598 60.5678 66.4696 58.4715 67.8821 56.9965L66.6617 54.6545L69.6842 53.0953L70.8348 55.3011C72.3881 54.9058 73.8822 55.2136 74.8504 56.085Z" fill="#8960FF"/>
<path d="M64.6229 47.2777C72.3616 43.2927 82.0879 46.687 86.3403 54.8579L86.3724 54.9137C87.1352 56.3867 87.6642 57.9111 87.9779 59.4576C88.1717 60.3861 88.2796 61.3177 88.3106 62.2379L79.8643 66.2134C79.9751 65.3413 79.8278 64.4325 79.3685 63.5459C78.2837 61.4693 76.2079 60.8379 73.641 60.9823C71.8672 61.0869 70.8207 61.3567 70.4851 60.7145C70.2353 60.2364 70.5527 59.5701 71.2771 59.1984C71.9119 58.869 73.1017 58.6651 73.8875 59.2053L74.8467 56.0786C73.8785 55.2072 72.391 54.8956 70.8205 55.2915L69.6698 53.0857L66.6473 54.645L67.8678 56.9869C66.4553 58.4619 65.9455 60.5582 66.9082 62.4081C68.0106 64.5303 70.0689 64.9489 72.1535 64.8507C73.7755 64.7873 75.4703 64.7283 75.8502 65.4471C76.1496 66.0266 75.5664 66.6884 74.8157 67.0754C73.6975 67.6467 72.3951 67.6556 71.3855 67.0774L70.3975 70.3972C70.468 70.4587 70.5412 70.5093 70.6143 70.56L62.3881 74.4456C61.0926 73.3265 59.9383 71.996 58.9913 70.4621C58.7529 70.0796 58.5236 69.6825 58.3141 69.274C57.1836 67.1031 56.5532 64.8105 56.3833 62.5401C55.953 56.7788 58.4794 51.1683 63.3197 48.0301C63.7354 47.7622 64.1698 47.5114 64.6229 47.2777Z" fill="#BAA7FC"/>
<path d="M63.3126 48.0339C58.4789 51.1683 55.9459 56.7827 56.3761 62.5439C56.5461 64.8143 57.1765 67.1069 58.307 69.2779C58.5165 69.6864 58.7458 70.0835 58.9842 70.466C59.9378 71.996 61.0855 73.3304 62.381 74.4494L59.6064 75.7541C58.2615 74.58 57.0802 73.1722 56.1127 71.5572C55.9372 71.2685 55.7708 70.9651 55.615 70.6649C54.6322 68.7802 54.0282 66.8068 53.7759 64.8347C52.9241 58.2672 55.9669 51.7269 61.9238 48.6685C62.39 48.4272 62.8485 48.2182 63.3126 48.0339Z" fill="#6856E8"/>
<path d="M63.3128 48.0349C62.6418 48.4687 62.0161 48.9507 61.4358 49.4808L60.5776 50.32C58.124 52.9255 56.6686 56.3479 56.3877 59.9654C56.323 60.8109 56.3219 61.6754 56.3829 62.5411C56.3932 62.6652 56.4034 62.7894 56.4136 62.9135C56.4509 63.2821 56.4988 63.6538 56.5599 64.018C56.607 64.2973 56.6608 64.5728 56.7145 64.8483C56.7913 65.194 56.8747 65.536 56.9646 65.8742C57.2871 67.0256 57.7324 68.1617 58.3098 69.2681C58.3957 69.4321 58.4856 69.6031 58.5782 69.7634C58.7149 70.0002 58.8476 70.2301 58.9869 70.4562C59.9405 71.9863 61.0883 73.3206 62.3838 74.4397L59.6092 75.7443C59.6051 75.7374 59.5945 75.7342 59.5945 75.7342C59.2563 75.4372 58.9312 75.1326 58.6179 74.8026C58.0073 74.1706 57.4306 73.4911 56.9118 72.7596C56.6899 72.4512 56.4771 72.1282 56.2708 71.8014C56.2226 71.7178 56.1637 71.6311 56.1154 71.5475C55.9399 71.2587 55.7736 70.9553 55.6178 70.6551C55.6098 70.6412 55.6017 70.6273 55.5896 70.6064C55.4661 70.3619 55.3425 70.1174 55.2295 69.8762C54.5487 68.393 54.0924 66.873 53.8489 65.3417C53.831 65.2498 53.8196 65.1542 53.8058 65.0693C53.7959 64.9914 53.786 64.9136 53.7761 64.8357C53.6354 63.7559 53.6018 62.6792 53.6662 61.6203C53.7276 60.6932 53.8552 59.7742 54.0677 58.8806C54.1855 58.3853 54.3178 57.9002 54.482 57.4246C54.5233 57.2986 54.5621 57.1833 54.6074 57.0642C54.9749 56.044 55.4459 55.0661 56.0113 54.1453C56.1784 53.8723 56.3535 53.6133 56.5353 53.3505C57.2388 52.3498 58.0765 51.4296 59.0196 50.6157C59.5187 50.1882 60.0445 49.7918 60.6076 49.4295C60.8694 49.2598 61.1353 49.097 61.4117 48.9374C61.5763 48.8424 61.7448 48.7544 61.92 48.6625C62.3902 48.4282 62.8487 48.2192 63.3128 48.0349Z" fill="#6856E8"/>
<path d="M124.368 45.2567L102.832 70.9736L96.7695 69.4113L115.564 51.1664L124.368 45.2567Z" fill="#8960FF"/>
<path d="M115.565 51.1654L96.7702 69.4103L90.7146 67.8443L115.565 51.1654Z" fill="#372BAF"/>
<path d="M96.7682 69.4115L102.83 70.9738L89.4759 86.9228L82.5906 88.9661L79.3212 75.4905L90.7126 67.8455L96.7682 69.4115Z" fill="#6856E8"/>
<path d="M79.3228 75.4896L82.5922 88.9652L59.6249 95.7884L60.2968 88.2577L79.3228 75.4896Z" fill="#8960FF"/>
<path d="M89.4764 86.9234L73.8242 105.611C70.033 110.141 63.6157 111.003 58.538 108L59.6238 95.7899L82.5911 88.9667L89.4764 86.9234Z" fill="#5731F7"/>
<path d="M89.477 86.9224L89.4232 86.9813L88.3621 88.2442L87.8852 88.8167L87.0914 89.7673L85.5377 91.6211L84.7307 92.5793L84.3507 93.0309L83.1952 94.4039L80.8071 97.2596L80.2674 97.9056L73.8405 105.592L73.8247 105.61C73.564 105.918 73.3018 106.209 73.021 106.483C72.7691 106.73 72.5025 106.968 72.2345 107.188C71.9401 107.423 71.6443 107.64 71.3339 107.847C69.2514 109.226 66.7942 109.864 64.3231 109.749C63.9699 109.73 63.6193 109.7 63.2671 109.653C62.3603 109.526 61.4528 109.307 60.5774 108.976C59.9156 108.727 59.2665 108.423 58.6369 108.063C58.6011 108.046 58.5718 108.026 58.536 108.009L58.5407 107.942L58.6742 106.425L59.0495 102.195L59.3286 99.0156L59.6153 95.8034L65.457 94.0655L66.5138 93.7526L71.7065 92.2129L72.7157 91.9089L78.1299 90.297L79.1391 89.993L82.5785 88.9733L84.6379 88.3602L87.0944 87.6293L89.3859 86.9471L89.477 86.9224Z" fill="#5731F7"/>
<path d="M60.2962 88.2592L59.6243 95.7899L58.5384 108C57.8357 107.588 57.1574 107.097 56.5142 106.53L46.3727 97.5983L60.2962 88.2592Z" fill="#372BAF"/>
<path d="M86.3721 54.9146L124.375 45.2531L87.9842 59.4547C87.6574 57.9158 87.1283 56.3914 86.3721 54.9146Z" fill="#CFBEFF"/>
<path d="M124.368 45.2571L120.349 46.8247L119.274 47.2414L111.351 50.3296L110.318 50.7305L97.987 55.5465L96.8348 55.9981L93.4111 57.3339L92.342 57.7468L87.9665 59.4556C87.8729 58.9895 87.7596 58.5348 87.625 58.0737C87.4795 57.5633 87.3036 57.061 87.1106 56.5595C86.896 56.0053 86.6404 55.4562 86.3651 54.9186L87.5567 54.6114L87.5805 54.607L90.6436 53.8323L91.7746 53.5416L95.6915 52.5434L95.9145 52.489L97.7753 52.0184L98.9367 51.7194L102.877 50.7168L106.031 49.9175L110.02 48.906L113.089 48.1276L119.114 46.5999L120.225 46.3206L124.368 45.2571Z" fill="#CFBEFF"/>
<path d="M47.5874 74.7898L53.7887 64.8283C54.041 66.8004 54.645 68.7738 55.6278 70.6585C55.7876 70.9657 55.9499 71.262 56.1254 71.5508L50.3652 73.734L47.5874 74.7898Z" fill="#CFBEFF"/>
<path d="M53.789 64.8282C54.0299 66.7047 54.5882 68.5837 55.4884 70.3861C55.5341 70.4804 55.5758 70.5678 55.6281 70.6584C55.7557 70.9098 55.8924 71.1467 56.0292 71.3835C56.0613 71.4393 56.0935 71.495 56.1257 71.5507L54.1903 72.2873L51.2186 73.4178L50.3695 73.7409L49.9384 73.9062L49.858 73.934L48.8085 74.3356L47.5982 74.7928L47.5942 74.7859L48.0604 74.043L48.6638 73.0816L50.8314 69.6009L51.3002 68.8472L51.7142 68.181L52.4938 66.932L53.789 64.8282Z" fill="#CFBEFF"/>
<path d="M87.9778 59.4588L124.368 45.2571L88.3105 62.239C88.2754 61.3118 88.1676 60.3802 87.9778 59.4588Z" fill="#372BAF"/>
<path d="M59.619 75.7469L52.3808 79.1549L47.5938 74.7852L50.3651 73.7332L56.1253 71.55C57.0927 73.1649 58.2741 74.5728 59.619 75.7469Z" fill="#372BAF"/>
<path d="M52.3789 79.1659L59.6197 75.7471L62.3877 74.4462L70.6179 70.5676L79.864 66.214L88.3103 62.2385L124.368 45.2566L115.564 51.1663L90.7136 67.8452L79.3222 75.4901L60.2962 88.2582L46.3767 97.6043L27.8374 110.045L43.4412 83.3694L52.3789 79.1659Z" fill="#CFBEFF"/>
<path d="M124.368 45.2566L121.444 47.2143L120.226 48.0382L115.564 51.1663L112.957 52.913L111.614 53.8092L109.932 54.9384L107.263 56.7301L106.051 57.5503L101.788 60.4111L101.053 60.9006L99.5465 61.9095L98.289 62.7563L93.9376 65.6772L92.7222 66.4905L90.7136 67.8452L86.107 70.932L84.1866 72.2266L83.9116 72.4039L81.3242 74.1392L79.3222 75.4901L76.5677 77.3313L74.4052 78.7841L60.2962 88.2582L57.4313 90.1816L54.6216 92.0639L46.3767 97.6043L44.8903 98.6018L43.6814 99.4112L36.9584 103.924L35.5535 104.866L33.8646 105.999L30.6563 108.148L29.4251 108.98L27.8374 110.045L28.949 108.14L29.7985 106.693L32.4693 102.123L33.2248 100.832L40.4259 88.5284L40.7469 87.9901L43.4412 83.3694L52.3789 79.1659L54.9704 77.9391L54.9769 77.9353L57.0678 76.9511L59.6197 75.7471L62.3877 74.4462L70.6179 70.5676L71.2557 70.2737L72.7219 69.5758L72.7918 69.5448L74.4544 68.7613L79.864 66.214L86.0099 63.3158L88.3103 62.2385L88.9506 61.9339L97.5629 57.8811L98.8869 57.256L110.084 51.9802L111.657 51.2392L113.672 50.2898L119.791 47.4068L121.146 46.7735L124.368 45.2566Z" fill="#CFBEFF"/>
<path d="M55.6827 67.4866L55.8063 65.7712C55.8566 65.1291 55.3839 64.5382 54.7541 64.4653L53.8556 64.3524L53.7988 65.3326L54.8614 65.4715L54.7474 67.3858L55.6827 67.4866Z" fill="#372BAF"/>
<path d="M56.4116 62.9137L55.7116 62.8256L55.5573 64.503C55.539 64.6993 55.5683 64.8867 55.6411 65.0583C55.6667 65.1179 55.6923 65.1774 55.7285 65.2401C55.9094 65.5536 56.2205 65.7734 56.5938 65.8273L56.9735 65.8774C56.8795 65.5322 56.7896 65.1941 56.7233 64.8515L56.5037 64.8204L56.5686 64.0213L56.4116 62.9137Z" fill="#372BAF"/>
<path d="M54.451 59.2712C54.4872 59.3339 54.5128 59.3934 54.5424 59.4599C54.6046 59.6284 54.6364 59.805 54.6207 59.9906L54.4971 61.706L53.6729 61.6153C53.7341 60.6882 53.8615 59.7694 54.0737 58.876C54.2305 58.9805 54.3585 59.111 54.451 59.2712Z" fill="#372BAF"/>
<path d="M54.5253 57.045L54.371 58.7224C54.31 59.3613 54.7762 59.956 55.4009 60.0505L56.2968 60.1741L56.3709 59.1933L55.3108 59.0436L55.4516 57.1604L54.5253 57.045Z" fill="#372BAF"/>
<path d="M56.9219 72.7614L57.1976 72.1749L58.9077 73.0545L59.2884 72.1938L57.7706 71.389C57.6046 71.299 57.4283 71.2522 57.2525 71.2515C57.1903 71.2503 57.1281 71.249 57.0674 71.2655C56.7438 71.313 56.4597 71.5049 56.2915 71.8064L56.9219 72.7614Z" fill="#372BAF"/>
<path d="M55.2452 69.8752L55.4416 69.4553L57.1082 70.3507L57.5766 69.3837L58.4491 69.846L58.0574 70.6572C57.8921 70.9942 57.5923 71.2044 57.2515 71.2526C57.1868 71.2621 57.1287 71.2678 57.0665 71.2665C56.8906 71.2659 56.7038 71.2159 56.5337 71.119L55.6054 70.6054L55.2452 69.8752Z" fill="#372BAF"/>
<path d="M57.3446 53.7648L56.9643 54.6253L56.0179 54.1407C56.1848 53.8678 56.3599 53.6088 56.5415 53.3461L57.3446 53.7648Z" fill="#372BAF"/>
<path d="M61.4246 48.9296C61.4711 49.1164 61.4725 49.3013 61.4316 49.4736L60.5734 50.3127L59.0596 50.6852L59.0351 50.5971C59.5342 50.1696 60.06 49.7732 60.6231 49.4109C60.8824 49.2519 61.1548 49.0854 61.4246 48.9296Z" fill="#372BAF"/>
<path d="M60.3435 74.5114L59.9521 75.3225C59.8663 75.4928 59.7471 75.6359 59.6039 75.7372C59.2657 75.4402 58.9407 75.1355 58.6274 74.8055L59.0098 75.012L59.4778 74.0452L60.3435 74.5114Z" fill="#372BAF"/>
<path d="M50.8205 69.5986L51.2889 68.8451L51.4053 69.5024L50.8205 69.5986Z" fill="#E7E2F7"/>
<path d="M53.0895 66.8399L53.3006 67.9348L51.7044 68.1783L52.4795 66.9228L53.0895 66.8399Z" fill="#E7E2F7"/>
<path d="M53.6786 71.2645L55.4878 70.3872C55.5335 70.4816 55.5752 70.569 55.6275 70.6595C55.7551 70.9109 55.8918 71.1478 56.0286 71.3847C55.98 71.422 55.9233 71.4454 55.8773 71.472L54.185 72.2632L53.6786 71.2645Z" fill="#E7E2F7"/>
<path d="M49.8514 73.9391L48.8024 74.3404L48.0545 74.0477L48.6574 73.0865L49.1096 73.262C49.4371 73.3887 49.6956 73.6389 49.8514 73.9391Z" fill="#E7E2F7"/>
<path d="M51.6426 72.1143L51.2125 73.4215L50.3635 73.7445L49.9324 73.9098C49.9393 73.785 49.9594 73.6527 50.0048 73.5336L50.6279 71.7249L51.6426 72.1143Z" fill="#E7E2F7"/>
<path d="M92.8708 56.5037L93.4181 57.3301L92.3489 57.7431L91.8045 56.9521L90.7562 57.6595L90.0779 56.6672L90.9632 56.0725C91.3288 55.8242 91.7848 55.7932 92.1841 55.9527C92.2623 55.9819 92.3274 56.0186 92.3965 56.0623C92.5878 56.1655 92.745 56.3162 92.8708 56.5037Z" fill="#E7E2F7"/>
<path d="M93.8349 54.3581L94.5 55.3581L93.6067 55.9389C93.237 56.1802 92.7942 56.2036 92.3989 56.051C92.3272 56.0181 92.2556 55.9852 92.1865 55.9415C91.9978 55.8275 91.8365 55.6698 91.7067 55.4753L90.6504 53.8281L91.7814 53.5374L92.7744 55.0447L93.8349 54.3581Z" fill="#E7E2F7"/>
<path d="M88.011 65.6722C87.9327 65.6431 87.8677 65.6063 87.792 65.5664C87.8662 65.5886 87.9419 65.6285 88.011 65.6722Z" fill="#E7E2F7"/>
<path d="M88.011 65.6722C87.9327 65.6431 87.8677 65.6063 87.792 65.5664C87.8662 65.5886 87.9419 65.6285 88.011 65.6722Z" fill="#E7E2F7"/>
<path d="M106.045 49.9089L106.154 50.3104L103.981 50.8032L104.304 52.0933L103.188 52.3479L102.919 51.2585C102.872 51.0717 102.867 50.8798 102.886 50.7012L106.045 49.9089Z" fill="#E7E2F7"/>
<path d="M111.362 50.3328L111.082 49.1942L113.254 48.7014L113.103 48.12L110.033 48.8984C109.966 49.1321 109.95 49.3924 110.023 49.6565L110.292 50.7458L110.333 50.7407L111.362 50.3328Z" fill="#E7E2F7"/>
<path d="M120.228 46.3095L120.356 46.8205L119.281 47.237L119.117 46.5885L120.228 46.3095Z" fill="#E7E2F7"/>
<path d="M95.6983 52.5395L95.658 53.6402L96.9378 53.7744L96.8482 55.9904L98.0004 55.5388L98.0764 54.1202C98.0852 53.8922 98.0465 53.6731 97.9682 53.4767C97.9346 53.4033 97.9009 53.3298 97.8648 53.2671C97.6304 52.8916 97.2501 52.6281 96.7908 52.5775L95.9319 52.4882L95.6983 52.5395Z" fill="#E7E2F7"/>
<path d="M100.151 53.1266L100.086 54.3063L99.0107 54.1751C98.5648 54.1167 98.1846 53.8532 97.9608 53.4809C97.9206 53.4112 97.8804 53.3415 97.8574 53.2713C97.7751 53.068 97.7323 52.8419 97.7476 52.6101L97.7917 52.0181L98.9526 51.7194L98.8833 52.9668L100.151 53.1266Z" fill="#E7E2F7"/>
<path d="M93.1103 65.1147C93.1401 65.1811 93.1611 65.2619 93.178 65.3357C93.1506 65.2586 93.1273 65.1885 93.1103 65.1147Z" fill="#E7E2F7"/>
<path d="M93.1103 65.1147C93.1401 65.1811 93.1611 65.2619 93.178 65.3357C93.1506 65.2586 93.1273 65.1885 93.1103 65.1147Z" fill="#E7E2F7"/>
<path d="M87.1103 57.2475C87.1441 57.3209 87.1611 57.3947 87.178 57.4685C87.1506 57.3914 87.1273 57.3213 87.1103 57.2475Z" fill="#E7E2F7"/>
<path d="M88.1789 57.1318L89.4262 57.4985L89.1826 58.6423L88.1303 58.3396C87.9434 58.2895 87.7774 58.1996 87.6297 58.0805C87.4842 57.5701 87.3083 57.0679 87.1153 56.5663L87.5614 54.6182L87.564 54.6075L87.5852 54.6138L88.6573 54.9051L88.1789 57.1318Z" fill="#E7E2F7"/>
<path d="M43.6608 96.7475L44.8893 98.6018L43.6805 99.4112L42.261 97.3327L40.8931 98.2618L40.0034 96.9641L41.1597 96.1851C41.6464 95.8577 42.2358 95.8146 42.7598 96.023C42.8593 96.0584 42.9561 96.1046 43.0505 96.1616C43.279 96.2991 43.4922 96.5011 43.6608 96.7475Z" fill="#E7E2F7"/>
<path d="M40.6618 93.121L42.1251 95.3971C42.6794 96.266 43.8016 96.5376 44.6199 96.0094L45.7842 95.2444L44.9103 93.9283L43.5197 94.8334L41.8494 92.3052L40.6618 93.121Z" fill="#E7E2F7"/>
<path d="M36.9563 103.926L35.5448 104.871L34.472 104.32L33.7568 105.848L32.3746 105.141L32.9713 103.849C33.2236 103.313 33.7089 102.968 34.2504 102.887C34.3495 102.877 34.4486 102.866 34.5557 102.869C34.8216 102.873 35.0998 102.945 35.3627 103.081L36.9563 103.926Z" fill="#E7E2F7"/>
<path d="M36.4521 100.65L35.8301 101.929C35.5738 102.458 35.0977 102.788 34.5628 102.865C34.4677 102.883 34.3646 102.887 34.2574 102.884C33.981 102.876 33.6921 102.801 33.4252 102.658L32.4716 102.131L33.2271 100.84L34.3452 101.44L35.0857 99.9252L36.4521 100.65Z" fill="#E7E2F7"/>
<path d="M50.0405 89.1643L47.6462 87.8902C46.7486 87.4146 45.6735 87.7566 45.2548 88.6578L44.658 89.9498L46.0402 90.6565L46.7555 89.129L49.4481 90.5095L50.0405 89.1643Z" fill="#E7E2F7"/>
<path d="M43.3716 86.1877L45.7052 87.4783C46.5937 87.9684 47.6702 87.6442 48.1101 86.7493L48.7321 85.4706L47.3617 84.7385L46.6212 86.2528L43.9918 84.845L43.3716 86.1877Z" fill="#E7E2F7"/>
<path d="M57.5145 89.9948L57.4235 90.1867L54.6203 92.0652C54.5739 92.0455 54.534 92.0221 54.4942 91.9987L52.1606 90.708L52.7848 89.3724L55.4142 90.7802L56.1547 89.2659L57.5145 89.9948Z" fill="#E7E2F7"/>
<path d="M59.8667 88.1714L58.926 85.5843C58.5772 84.6154 57.5336 84.0847 56.6078 84.3963L55.2797 84.8473L55.8387 86.3172L57.4081 85.7826L58.4901 88.6597L59.8667 88.1714Z" fill="#E7E2F7"/>
<path d="M56.8731 81.3462L57.7528 83.9035C58.0884 84.8801 59.1163 85.4291 60.0501 85.1314L61.3837 84.7052L60.8444 83.2239L59.2589 83.7306L58.2381 80.8832L56.8731 81.3462Z" fill="#E7E2F7"/>
<path d="M59.7916 78.3608L59.1926 79.7098L56.5 78.3293L55.7848 79.8568L54.4026 79.1501L54.9683 77.9411L57.0591 76.9569C57.1758 76.9917 57.2833 77.0411 57.3948 77.0974L59.7916 78.3608Z" fill="#E7E2F7"/>
<path d="M40.8398 88.0934L40.4243 88.5283L40.7452 87.9902L40.8398 88.0934Z" fill="#E7E2F7"/>
<path d="M29.7961 106.695L30.6538 108.15L29.4233 108.981L28.9472 108.141L29.7961 106.695Z" fill="#E7E2F7"/>
<path d="M71.2558 70.2746L72.7262 69.5836C72.7726 69.7705 72.7927 69.9725 72.7784 70.1758L72.5802 72.8725L71.1124 72.7167L71.2558 70.2746Z" fill="#E7E2F7"/>
<path d="M75.5292 68.922L75.4118 70.4667L73.9993 70.2697C73.5108 70.1988 73.075 69.9303 72.7891 69.5566L74.4517 68.7732L75.5292 68.922Z" fill="#E7E2F7"/>
<path d="M83.9113 72.405L81.3239 74.1403L80.4771 72.9016L81.6333 72.1226C82.12 71.7952 82.7094 71.7521 83.2334 71.9604C83.3329 71.9959 83.4297 72.0421 83.5241 72.0991C83.6689 72.1827 83.7979 72.2847 83.9113 72.405Z" fill="#E7E2F7"/>
<path d="M84.1855 72.2269C83.9647 72.2244 83.7409 72.1864 83.5273 72.1053C83.4279 72.0699 83.331 72.0236 83.2367 71.9666C82.9935 71.8191 82.7763 71.6101 82.6103 71.353L81.147 69.0769L82.3453 68.2643L84.0155 70.7925L85.4061 69.8874L86.1074 70.9501L84.1855 72.2269Z" fill="#E7E2F7"/>
<path d="M76.9304 76.5933L76.5713 77.3393L74.4088 78.7922C74.2406 78.7593 74.0695 78.6909 73.9141 78.6041L71.5805 77.3135L72.2047 75.9778L74.8341 77.3856L75.5746 75.8714L76.9304 76.5933Z" fill="#E7E2F7"/>
<path d="M68.6118 79.1937L66.2175 77.9195C65.3198 77.4439 64.2448 77.7859 63.8261 78.6871L63.2294 79.9791L64.6115 80.6859L65.3268 79.1583L68.0194 80.5389L68.6118 79.1937Z" fill="#E7E2F7"/>
<path d="M61.941 76.2092L64.2746 77.4999C65.1631 77.99 66.2396 77.6658 66.6795 76.7709L67.3015 75.4922L65.9311 74.7601L65.1906 76.2744L62.5612 74.8665L61.941 76.2092Z" fill="#E7E2F7"/>
<path d="M90.5221 65.1135L88.1277 63.8394C87.2301 63.3638 86.155 63.7058 85.7363 64.607L85.1395 65.899L86.5217 66.6058L87.237 65.0782L89.9296 66.4587L90.5221 65.1135Z" fill="#E7E2F7"/>
<path d="M88.9506 61.9343L88.5849 62.6842C88.3286 63.213 87.8525 63.5436 87.3176 63.6202C87.2119 63.6348 87.1128 63.6456 87.0122 63.6386C86.7358 63.631 86.447 63.5563 86.1866 63.4094L86.0166 63.3125L88.3129 62.2282L88.9506 61.9343Z" fill="#E7E2F7"/>
<path d="M93.2659 65.3217L93.9363 65.6777L92.7216 66.4905L93.2659 65.3217Z" fill="#E7E2F7"/>
<path d="M99.4102 61.5247L99.5521 61.9072L98.288 62.7577L97.8964 61.7299L96.327 62.2644L95.768 60.7945L97.096 60.3436C97.646 60.1561 98.2446 60.2657 98.706 60.5937C98.7938 60.6545 98.879 60.7261 98.951 60.8052C99.1495 60.9971 99.3115 61.2473 99.4102 61.5247Z" fill="#E7E2F7"/>
<path d="M101.786 60.4124L101.335 59.1591L99.7494 59.6658L98.8814 57.2503L97.5574 57.8754L98.2327 59.8355C98.3329 60.1306 98.4948 60.3808 98.6974 60.5797C98.776 60.655 98.8506 60.7234 98.9384 60.7842C99.3892 61.1091 99.9746 61.2262 100.522 61.0495L101.039 60.8811L101.786 60.4124Z" fill="#E7E2F7"/>
<path d="M121.145 46.7732L121.443 47.214L120.226 48.0377L119.791 47.4062L121.145 46.7732Z" fill="#E7E2F7"/>
<path d="M112.956 52.9126L111.617 53.8158L109.935 54.945L109.626 54.7892L110.222 53.4972C110.475 52.9614 110.96 52.6162 111.501 52.5358C111.607 52.5212 111.706 52.5105 111.813 52.5136C112.079 52.5181 112.357 52.5896 112.614 52.7296L112.956 52.9126Z" fill="#E7E2F7"/>
<path d="M111.657 51.2395L110.084 51.9805L110.666 52.3041C110.937 52.4542 111.215 52.5257 111.498 52.5295C111.605 52.5327 111.708 52.5289 111.81 52.5073C112.341 52.4237 112.817 52.0931 113.071 51.5751L113.693 50.2964L113.682 50.2932L111.657 51.2395Z" fill="#E7E2F7"/>
<path d="M106.688 55.7531L107.262 56.7315L106.051 57.5513L105.444 56.4994L106.688 55.7531Z" fill="#E7E2F7"/>
<path d="M69.9263 105.652L68.7452 104.123C68.2977 103.545 67.502 103.429 66.9685 103.858L66.2025 104.476L66.8943 105.34L67.8062 104.609L69.1525 106.303L69.9263 105.652Z" fill="#372BAF"/>
<path d="M66.4583 101.728L67.6008 103.251C68.0352 103.836 68.8283 103.963 69.3764 103.545L70.1505 102.94L69.4785 102.065L68.5545 102.775L67.2572 101.09L66.4583 101.728Z" fill="#372BAF"/>
<path d="M64.6978 101.749L63.5167 100.221C63.0692 99.643 62.2735 99.5265 61.74 99.9553L60.974 100.574L61.6658 101.438L62.5777 100.707L63.9241 102.401L64.6978 101.749Z" fill="#372BAF"/>
<path d="M61.2346 97.8335L62.3773 99.3566C62.8116 99.9418 63.6047 100.069 64.1529 99.6504L64.927 99.0456L64.2549 98.1704L63.3309 98.8804L62.0336 97.1958L61.2346 97.8335Z" fill="#372BAF"/>
<path d="M66.6434 93.9029L65.8595 94.5505L65.4668 94.0527L66.5231 93.7401L66.6434 93.9029Z" fill="#372BAF"/>
<path d="M61.5591 108.244L60.781 108.841C60.7126 108.89 60.6443 108.939 60.5744 108.97C59.9126 108.72 59.2636 108.417 58.6339 108.056L58.5443 107.931L58.6778 106.415L59.9631 108.078L60.8871 107.368L61.5591 108.244Z" fill="#372BAF"/>
<path d="M77.2432 100.192L75.42 99.7394C74.7337 99.569 74.0693 99.999 73.9438 100.694L73.7573 101.693L74.8013 101.936L75.0207 100.75L77.0662 101.223L77.2432 100.192Z" fill="#372BAF"/>
<path d="M72.2488 99.3225L74.0324 99.7974C74.7162 99.9786 75.3886 99.5624 75.5247 98.8709L75.7258 97.8816L74.6804 97.6214L74.4398 98.8006L72.4364 98.2946L72.2488 99.3225Z" fill="#372BAF"/>
<path d="M71.2113 107.484L72.2307 107.183C71.9365 107.418 71.6408 107.635 71.3305 107.842L71.2113 107.484Z" fill="#372BAF"/>
<path d="M73.7932 105.435L73.8407 105.593L73.825 105.612C73.5644 105.92 73.3024 106.211 73.0217 106.484L72.791 105.735L73.7932 105.435Z" fill="#372BAF"/>
<path d="M80.2659 97.9168C80.3021 97.8123 80.3528 97.718 80.4142 97.6268C80.4574 97.5648 80.5045 97.5097 80.5557 97.4616C80.6291 97.3913 80.7132 97.3242 80.8053 97.271L80.2659 97.9168Z" fill="#372BAF"/>
<path d="M78.172 98.4106L79.9111 97.9267C80.5748 97.7386 80.9368 97.028 80.7277 96.3314L80.4183 95.3397L79.4091 95.6437L79.7715 96.8184L77.8361 97.3878L78.172 98.4106Z" fill="#372BAF"/>
<path d="M74.9 92.5165L73.14 93.0403C72.4804 93.2354 72.1264 93.9599 72.3487 94.6489L72.6712 95.6331L73.6724 95.3151L73.2863 94.1448L75.2451 93.5247L74.9 92.5165Z" fill="#372BAF"/>
<path d="M72.719 91.899L72.8166 92.2049C72.9467 92.6127 72.8666 93.0212 72.6509 93.3315C72.6077 93.3935 72.5606 93.4486 72.5094 93.4968C72.369 93.6336 72.1978 93.7324 72.0026 93.7894L70.2635 94.2733L69.9275 93.2505L71.863 92.6811L71.7123 92.1922L72.719 91.899Z" fill="#372BAF"/>
<path d="M81.2955 90.5048L79.5356 91.0286C78.8759 91.2237 78.522 91.9482 78.7443 92.6373L79.0668 93.6215L80.068 93.3035L79.6818 92.1331L81.6407 91.5131L81.2955 90.5048Z" fill="#372BAF"/>
<path d="M79.1458 89.9909L79.2069 90.1879C79.337 90.5957 79.2569 91.0042 79.0412 91.3145C78.998 91.3766 78.9509 91.4317 78.8997 91.4798C78.7592 91.6166 78.5881 91.7154 78.3929 91.7724L76.6538 92.2563L76.3178 91.2335L78.2532 90.6641L78.1351 90.2772L79.1458 89.9909Z" fill="#372BAF"/>
<path d="M89.4062 86.9375L89.4238 86.9831L88.3626 88.246L87.7611 88.4354L87.8858 88.8185L87.0919 89.7691L86.8236 88.9395C86.6894 88.5247 86.7614 88.1022 86.9838 87.7881C87.0269 87.7261 87.0741 87.671 87.1253 87.6228L89.4062 86.9375Z" fill="#372BAF"/>
<path d="M87.1143 87.6185C87.1143 87.6185 87.1077 87.6223 87.1143 87.6185C87.0711 87.6806 87.024 87.7357 86.9728 87.7838C86.8324 87.9207 86.6653 88.0264 86.466 88.0765L84.7269 88.5603L84.6537 88.3424L87.1143 87.6185Z" fill="#372BAF"/>
<path d="M82.8878 93.4774L84.3477 93.0433L83.1994 94.4121L82.8878 93.4774Z" fill="#372BAF"/>
<path d="M85.4669 91.4217L85.532 91.6256L84.7295 92.5905L84.4582 91.7255L85.4669 91.4217Z" fill="#372BAF"/>
<path d="M68.1502 99.5531L68.1097 97.6446C68.092 96.9303 67.5188 96.3324 66.8206 96.3082L65.8224 96.2808L65.8576 97.375L67.0423 97.4063L67.1191 99.5447L68.1502 99.5531Z" fill="#372BAF"/>
<path d="M67.6969 94.3899L67.7068 96.2605C67.7073 96.9754 68.278 97.5841 68.9801 97.6152L69.9799 97.6603L69.9618 96.5655L68.7822 96.5127L68.7427 94.4084L67.6969 94.3899Z" fill="#372BAF"/>
<path d="M64.5602 105.675L64.2801 107.545C64.1758 108.246 64.6428 108.934 65.3408 109.079L66.3262 109.281L66.4685 108.205L65.3002 107.96L65.5891 105.861L64.5602 105.675Z" fill="#372BAF"/>
<path d="M63.268 109.653L63.4374 108.534L62.268 108.271L62.4312 107.201L63.4112 107.425C63.8151 107.517 64.1412 107.793 64.3186 108.146C64.3482 108.212 64.3818 108.285 64.4049 108.356C64.466 108.553 64.4795 108.759 64.4456 108.973L64.317 109.753L63.268 109.653Z" fill="#372BAF"/>
<path d="M59.2556 101.14L60.4235 101.385L60.2815 102.461L59.2963 102.259C59.2156 102.24 59.1348 102.222 59.0591 102.182L59.3374 99.0026L59.5374 99.0451L59.2556 101.14Z" fill="#372BAF"/>
</svg>
