<svg
  width="21"
  height="21"
  viewBox="0 0 21 21"
  fill="none"
  xmlns="http://www.w3.org/2000/svg"
>
<path
    d="M7.16667 3.83203C6.72464 3.83203 6.30072 4.00763 5.98816 4.32019C5.67559 4.63275 5.5 5.05667 5.5 5.4987V8.83203H7.16667V5.4987H13.8333V7.9987H11.75L14.6667 10.9154L17.5833 7.9987H15.5V5.4987C15.5 5.05667 15.3244 4.63275 15.0118 4.32019C14.6993 4.00763 14.2754 3.83203 13.8333 3.83203H7.16667ZM3 10.4987V12.1654H9.66667V10.4987H3ZM3 12.9987V14.6654H9.66667V12.9987H3ZM11.3333 12.9987V14.6654H18V12.9987H11.3333ZM3 15.4987V17.1654H9.66667V15.4987H3ZM11.3333 15.4987V17.1654H18V15.4987H11.3333Z"
    fill="#4A476F"
  />
</svg>
