<svg width="48" height="48" viewBox="0 0 48 48" fill="none" xmlns="http://www.w3.org/2000/svg">
<path d="M0 4C0 1.79086 1.79086 0 4 0H44C46.2091 0 48 1.79086 48 4V44C48 46.2091 46.2091 48 44 48H4C1.79086 48 0 46.2091 0 44V4Z" fill="#CFBEFF"/>
<path d="M24.0006 7.19922C18.6987 7.19922 14.4006 11.4973 14.4006 16.7992C14.4006 22.1012 18.6987 26.3992 24.0006 26.3992C29.3025 26.3992 33.6006 22.1012 33.6006 16.7992V11.0392C33.6006 9.69509 33.6006 9.02303 33.339 8.50964C33.1089 8.05805 32.7418 7.6909 32.2902 7.4608C31.7768 7.19922 31.1047 7.19922 29.7606 7.19922H24.0006Z" fill="#6A00FF"/>
<path d="M4.655 29.8536C3.60059 30.908 3.60059 32.6051 3.60059 35.9992V47.9992H44.4006C44.4006 43.5354 44.4006 41.3034 43.9099 39.4722C42.5784 34.5029 38.6969 30.6214 33.7276 29.2899C31.8964 28.7992 29.6644 28.7992 25.2006 28.7992H10.8006C7.40647 28.7992 5.70942 28.7992 4.655 29.8536Z" fill="#6A00FF"/>
</svg>
