<svg width="87" height="72" viewBox="0 0 87 72" fill="none" xmlns="http://www.w3.org/2000/svg">
<g filter="url(#filter0_d_10214_248056)">
<rect x="20" y="20" width="46.6667" height="32" rx="15.875" fill="white"/>
<path fill-rule="evenodd" clip-rule="evenodd" d="M34.167 41.6777H31.3399L29.2199 33.5898C29.1193 33.2178 28.9057 32.8889 28.5914 32.7339C27.8071 32.3443 26.9428 32.0343 26 31.8779V31.5665H30.5542C31.1828 31.5665 31.6542 32.0343 31.7328 32.5775L32.8327 38.4115L35.6584 31.5665H38.407L34.167 41.6777ZM39.9781 41.6777H37.3081L39.5066 31.5665H42.1766L39.9781 41.6777ZM45.6314 34.3683C45.71 33.8237 46.1814 33.5123 46.7314 33.5123C47.5957 33.4341 48.5371 33.5905 49.3228 33.9787L49.7942 31.8017C49.0085 31.4903 48.1443 31.334 47.36 31.334C44.7686 31.334 42.8829 32.7345 42.8829 34.6783C42.8829 36.157 44.2186 36.9335 45.1614 37.4012C46.1814 37.8676 46.5743 38.179 46.4957 38.6454C46.4957 39.345 45.71 39.6564 44.9257 39.6564C43.9829 39.6564 43.04 39.4232 42.1772 39.0336L41.7058 41.2119C42.6486 41.6001 43.6686 41.7565 44.6114 41.7565C47.5171 41.8333 49.3228 40.4341 49.3228 38.334C49.3228 35.6893 45.6314 35.5343 45.6314 34.3683ZM58.6668 41.6777L56.5468 31.5665H54.2697C53.7983 31.5665 53.3269 31.8779 53.1697 32.3443L49.2441 41.6777H51.9926L52.5412 40.2003H55.9183L56.2325 41.6777H58.6668ZM54.6619 34.2899L55.4462 38.1006H53.2477L54.6619 34.2899Z" fill="#172B85"/>
</g>
<defs>
<filter id="filter0_d_10214_248056" x="0" y="0" width="86.6665" height="72" filterUnits="userSpaceOnUse" color-interpolation-filters="sRGB">
<feFlood flood-opacity="0" result="BackgroundImageFix"/>
<feColorMatrix in="SourceAlpha" type="matrix" values="0 0 0 0 0 0 0 0 0 0 0 0 0 0 0 0 0 0 127 0" result="hardAlpha"/>
<feOffset/>
<feGaussianBlur stdDeviation="10"/>
<feComposite in2="hardAlpha" operator="out"/>
<feColorMatrix type="matrix" values="0 0 0 0 0 0 0 0 0 0 0 0 0 0 0 0 0 0 0.07 0"/>
<feBlend mode="normal" in2="BackgroundImageFix" result="effect1_dropShadow_10214_248056"/>
<feBlend mode="normal" in="SourceGraphic" in2="effect1_dropShadow_10214_248056" result="shape"/>
</filter>
</defs>
</svg>
