<svg width="120" height="120" viewBox="0 0 120 120" fill="none" xmlns="http://www.w3.org/2000/svg">
<path d="M0 32C0 16.9151 0 9.37258 4.68629 4.68629C9.37258 0 16.9151 0 32 0H88C103.085 0 110.627 0 115.314 4.68629C120 9.37258 120 16.9151 120 32V88C120 103.085 120 110.627 115.314 115.314C110.627 120 103.085 120 88 120H32C16.9151 120 9.37258 120 4.68629 115.314C0 110.627 0 103.085 0 88V32Z" fill="#E6F4FF"/>
<path d="M45.1297 40.3814L52.4707 51.7102C52.4707 51.7102 54.4975 50.337 55.2546 47.901C56.0071 45.4697 51.9675 37.3105 51.9675 37.3105L48.0219 37.4375C48.0219 37.4375 45.4307 39.803 46.6158 40.1839L45.1297 40.3814Z" fill="#0E45FB"/>
<path d="M71.2109 54.9821L70.2845 46.1034L65.7652 52.2404C64.7306 51.0694 63.8465 49.5975 63.1881 47.9703C65.6617 45.0312 67.2936 40.3802 67.2936 36.8061C67.2936 35.748 67.1525 34.7275 66.8844 33.7682C67.6745 33.392 68.5351 33.1521 69.4427 33.0769C73.9949 32.6819 78.0439 36.5052 78.486 41.617C78.8998 46.4279 76.2287 53.6794 72.1138 54.8363L72.5794 55.9885L71.5401 56.0778L71.3238 56.0966L71.2109 54.9821Z" fill="#A9D6FF"/>
<path d="M48.9577 41.0199L44.8194 53.3786C41.7626 51.1824 39.9709 45.8684 40.507 40.8835C41.0619 35.7811 45.1956 32.0471 49.7384 32.5362C49.776 32.5409 49.8089 32.5456 49.8465 32.5503C49.3198 33.8483 49.0236 35.2873 49.0236 36.8063C49.0236 37.7891 49.1035 38.772 49.2587 39.7361C48.8214 40.4321 48.9577 41.0199 48.9577 41.0199Z" fill="#0E45FB"/>
<path d="M67.2983 36.8068C67.2983 38.0107 67.1149 39.3415 66.7716 40.6818C66.701 40.9592 66.6258 41.2367 66.5411 41.5095C65.831 43.8749 64.6601 46.2216 63.1928 47.971C63.174 47.9945 63.1552 48.018 63.1364 48.0368C62.9389 48.2719 62.7319 48.493 62.525 48.7046C62.2993 48.9303 62.0689 49.142 61.829 49.3395L61.3352 49.7157C60.6675 50.186 59.9621 50.5293 59.2284 50.6985C59.1626 50.7127 59.0968 50.7268 59.0262 50.7409L59.0826 50.9196L59.4306 52.0529H56.9429L56.9805 51.9307L56.8065 50.6562C56.5573 50.5951 56.3081 50.5104 56.0635 50.4164C55.7531 50.2941 55.4428 50.1389 55.1465 49.9649C54.9066 49.8238 54.6715 49.6687 54.4364 49.4947C52.734 48.2296 51.3044 46.1604 50.3403 43.7291C50.0817 43.0708 49.8559 42.3889 49.6678 41.6882C49.6067 41.4671 49.555 41.2461 49.5032 41.0251C49.4656 40.8605 49.4327 40.7006 49.3951 40.536C49.3575 40.3479 49.3198 40.1598 49.2869 39.967C49.2728 39.8917 49.2634 39.8212 49.2493 39.7459C49.0941 38.7819 49.0142 37.7943 49.0142 36.8162C49.0142 36.2189 49.0612 35.6405 49.1458 35.0715C49.1882 34.7846 49.2446 34.4977 49.3104 34.2203C49.4421 33.6465 49.6208 33.0916 49.8371 32.5602C50.3121 31.3892 50.9799 30.3358 51.7935 29.4517L52.7246 28.5676C54.0508 27.4672 55.645 26.7618 57.385 26.5972C57.6389 26.5737 57.8929 26.5596 58.1515 26.5596C58.2079 26.5596 58.2644 26.5596 58.3161 26.5596C59.8116 26.5878 61.2224 27.0251 62.4592 27.7682C63.0235 28.1068 63.5502 28.5112 64.0346 28.9674C64.0393 28.9721 64.044 28.9768 64.0487 28.9815C64.3638 29.2824 64.6648 29.6069 64.9422 29.9502C65.8169 31.0365 66.4847 32.3345 66.8797 33.7688C66.955 34.0463 67.0208 34.3237 67.0772 34.6106C67.129 34.8834 67.176 35.1655 67.2089 35.4477C67.2701 35.8944 67.2983 36.3459 67.2983 36.8068Z" fill="#E6F4FF"/>
<path d="M40.1449 54.0273L43.0982 58.5325L38.6259 71.8882C38.2026 71.8412 37.7747 71.7753 37.3326 71.6907L40.1449 54.0273Z" fill="#E6F4FF"/>
<path d="M73.835 80.1793L74.0796 82.5448C69.1229 83.1937 64.8481 82.8363 61.2976 82.0134C56.9664 81.0164 53.7074 79.3328 51.5677 77.9408C55.1606 77.6163 59.2802 76.6476 63.7336 74.5408L58.3537 62.3231L58.5324 62.0786L65.7699 52.2405L70.2892 46.1035L71.2156 54.9822L71.3332 56.0921L72.5841 68.0934L72.7628 69.8145L73.0826 72.8948L73.835 80.1793Z" fill="#0E81FF"/>
<path d="M74.0843 82.5401C73.9009 82.5636 73.7222 82.5871 73.5388 82.6059C70.8159 82.9257 68.3046 82.9398 66.0097 82.747C65.5724 82.7094 65.1444 82.667 64.7212 82.6153C63.5126 82.4648 62.3745 82.2626 61.2976 82.0134C58.4243 81.3503 56.0259 80.3862 54.1072 79.4081C53.2372 78.966 52.4706 78.5145 51.8029 78.0913C51.7229 78.0396 51.643 77.9925 51.5677 77.9408C51.958 77.9032 52.3531 77.8609 52.7575 77.8091C53.6604 77.6963 54.5916 77.5364 55.5509 77.3342C56.4068 77.1508 57.2815 76.9297 58.175 76.6664C58.4713 76.577 58.7723 76.4877 59.0732 76.3889C59.7316 76.1773 60.3994 75.9422 61.0766 75.6788C61.1612 75.6459 61.2459 75.613 61.3305 75.5801C62.1206 75.2697 62.92 74.9217 63.7336 74.5361L63.6866 74.4326L62.9906 72.8619V72.8572L62.572 71.9025L61.9983 70.5999L59.8821 65.7984L59.614 65.1965L59.2425 64.3547L58.6782 63.0709L58.349 62.3231L58.5277 62.0786L61.2036 58.4434L63.3903 55.4713L65.6006 52.471L65.7652 52.2452L66.6775 51.0037L66.701 50.9708L67.477 49.9174L70.2845 46.1035L71.2109 54.9822L71.3285 56.0921L71.4225 57.0091L71.7517 60.1693L72.3819 66.2123L72.5277 67.5902L72.5794 68.0981L72.7581 69.8192L73.0779 72.8995L73.2801 74.837L73.4259 76.2243L73.8397 80.184L73.8773 80.5602L74.0843 82.5401Z" fill="#0E81FF"/>
<path d="M79.0033 62.9766L76.9341 75.7961L76.1535 80.6352C75.3305 80.5224 74.5592 80.3672 73.8397 80.1791L73.0826 72.8946L72.7628 69.8143L72.5841 68.0931L73.0779 67.7028L79.0033 62.9766Z" fill="#A9D6FF"/>
<path d="M58.3537 62.3237L63.7383 74.5414C59.2849 76.6435 55.1653 77.6169 51.5724 77.9414C45.5906 78.4822 41.0619 77.2219 38.8422 76.4036C37.8593 76.0415 37.3326 75.7594 37.3326 75.7594L38.6259 71.8937L43.0982 58.5381L44.824 53.3792L48.9624 41.0205L53.3689 51.0138L57.2533 59.8266C57.3991 60.405 57.6248 60.9459 57.954 61.4208L58.3537 62.3237Z" fill="#A9D6FF"/>
<path d="M50.9799 38.4474L51.9675 37.3093C52.339 36.8814 52.292 36.2371 51.864 35.8656L51.2527 35.3389L50.6977 35.9972L51.422 36.6227L50.3356 37.9065L50.9799 38.4474Z" fill="#A9D6FF"/>
<path d="M53.43 35.1982L52.4424 36.2987C52.0662 36.7172 52.0991 37.3662 52.5224 37.7424L53.1243 38.2785L53.6887 37.6295L52.9738 36.99L54.0602 35.7438L53.43 35.1982Z" fill="#A9D6FF"/>
<path d="M53.1102 33.8067L54.0978 32.6687C54.4693 32.2407 54.4223 31.5965 53.9944 31.2249L53.383 30.6982L52.8281 31.3566L53.5523 31.9821L52.466 33.2659L53.1102 33.8067Z" fill="#A9D6FF"/>
<path d="M55.5603 30.5566L54.5728 31.6571C54.1966 32.0756 54.2295 32.7246 54.6527 33.1008L55.2547 33.6369L55.819 32.9879L55.1042 32.3484L56.1905 31.1022L55.5603 30.5566Z" fill="#A9D6FF"/>
<path d="M59.5482 34.338L60.5358 33.1999C60.9073 32.772 60.8603 32.1277 60.4323 31.7562L59.821 31.2295L59.2661 31.8879L59.9903 32.5133L58.904 33.7972L59.5482 34.338Z" fill="#A9D6FF"/>
<path d="M61.9983 31.0879L61.0108 32.1883C60.6346 32.6069 60.6675 33.2558 61.0907 33.6321L61.6927 34.1682L62.257 33.5192L61.5422 32.8796L62.6285 31.6334L61.9983 31.0879Z" fill="#A9D6FF"/>
<path d="M56.468 43.5411L56.5056 42.0363C56.5197 41.4719 56.0729 41.0017 55.5086 40.9876L54.7044 40.9688L54.695 41.8293L55.6497 41.8529L55.6309 43.5317L56.468 43.5411Z" fill="#A9D6FF"/>
<path d="M56.294 39.4775L56.2328 40.9542C56.2093 41.5185 56.6467 41.9935 57.211 42.017L58.0152 42.0499L58.0387 41.1893L57.084 41.1517L57.1311 39.4964L56.294 39.4775Z" fill="#A9D6FF"/>
<path d="M49.6725 41.6836C49.7948 41.693 49.9171 41.7259 50.03 41.7776C50.0817 41.8012 50.1334 41.8341 50.1804 41.867C50.3074 41.9564 50.4109 42.0739 50.4908 42.2197L51.2056 43.5412L50.4767 43.9503L50.3497 43.7199L49.6725 41.6836Z" fill="#A9D6FF"/>
<path d="M49.2963 39.9579L49.7713 39.6992L50.5472 41.1571L51.3984 40.7197L51.8029 41.4768L51.0881 41.8484C50.7918 41.9988 50.4579 41.9941 50.1804 41.8625C50.1287 41.839 50.077 41.806 50.0299 41.7731C49.8983 41.6838 49.7901 41.5568 49.7102 41.4063L49.5079 41.0113L49.2963 39.9579Z" fill="#A9D6FF"/>
<path d="M59.3742 29.6774L58.6641 28.3512C58.3961 27.8527 57.7753 27.6646 57.2815 27.9327L56.5714 28.3136L56.99 29.066L57.8317 28.6146L58.6453 30.0865L59.3742 29.6774Z" fill="#A9D6FF"/>
<path d="M59.9762 27.6175L59.2614 27.989C58.9651 28.1395 58.6359 28.1348 58.3537 28.0031C58.2973 27.9796 58.2456 27.9467 58.1985 27.9138C58.0716 27.8197 57.9587 27.6974 57.8835 27.547L57.3897 26.5923C57.6436 26.5688 57.8976 26.5547 58.1562 26.5547C58.2127 26.5547 58.2691 26.5547 58.3208 26.5547L58.7158 27.293L59.567 26.8557L59.9762 27.6175Z" fill="#A9D6FF"/>
<path d="M64.2885 28.9248C64.2321 28.9441 64.1757 28.9537 64.1145 28.9634C64.171 28.9441 64.2321 28.9296 64.2885 28.9248Z" fill="#A9D6FF"/>
<path d="M64.9516 29.9502L64.3121 29.7339L63.9923 30.6368L63.1787 30.3593L63.4468 29.5975C63.5549 29.3012 63.7854 29.0802 64.0628 28.9814C64.3779 29.2824 64.6742 29.6022 64.9516 29.9502Z" fill="#A9D6FF"/>
<path d="M62.4733 27.7637C63.0376 28.1023 63.5643 28.5067 64.0487 28.9629C63.9123 28.9723 63.7712 28.9487 63.6349 28.9017L62.2523 28.3844L62.4733 27.7637Z" fill="#A9D6FF"/>
<path d="M64.2885 28.9248C64.2321 28.9441 64.1757 28.9537 64.1145 28.9634C64.171 28.9441 64.2321 28.9296 64.2885 28.9248Z" fill="#A9D6FF"/>
<path d="M60.1878 47.4909L59.4777 46.1647C59.2096 45.6662 58.5889 45.4781 58.0951 45.7461L57.385 46.1271L57.8035 46.8795L58.6453 46.428L59.4589 47.9L60.1878 47.4909Z" fill="#A9D6FF"/>
<path d="M58.0198 44.0483L58.697 45.3604C58.9557 45.8636 59.5717 46.0611 60.0749 45.8025L60.7897 45.4309L60.3853 44.6738L59.5341 45.1112L58.7582 43.6533L58.0198 44.0483Z" fill="#A9D6FF"/>
<path d="M62.0359 40.7008L61.3258 39.3746C61.0578 38.8762 60.437 38.6881 59.9433 38.9561L59.2332 39.337L59.6517 40.0895L60.4935 39.638L61.307 41.1099L62.0359 40.7008Z" fill="#A9D6FF"/>
<path d="M59.868 37.2583L60.5452 38.5704C60.8039 39.0736 61.4199 39.2711 61.9231 39.0124L62.6379 38.6409L62.2335 37.8838L61.3823 38.3211L60.6063 36.8633L59.868 37.2583Z" fill="#A9D6FF"/>
<path d="M64.6977 45.5065L63.9876 44.1803C63.7195 43.6818 63.0988 43.4937 62.605 43.7618L61.8949 44.1427L62.3134 44.8951L63.1552 44.4437L63.9688 45.9156L64.6977 45.5065Z" fill="#A9D6FF"/>
<path d="M62.5298 42.0591L63.2069 43.3711C63.4656 43.8743 64.0816 44.0718 64.5848 43.8132L65.2996 43.4417L64.8952 42.6845L64.044 43.1219L63.2681 41.6641L62.5298 42.0591Z" fill="#A9D6FF"/>
<path d="M66.7245 40.6673C66.7387 40.672 66.7575 40.6767 66.7716 40.6814C66.701 40.9589 66.6258 41.2363 66.5411 41.5091L65.7229 41.2787L65.9486 40.4463L66.7245 40.6673Z" fill="#A9D6FF"/>
<path d="M61.2882 49.6304L61.829 49.3389L61.3352 49.7151L61.2882 49.6304Z" fill="#A9D6FF"/>
<path d="M63.1364 48.0363C62.9389 48.2714 62.732 48.4924 62.525 48.7041L61.9278 47.5472L62.6614 47.1475L63.1364 48.0363Z" fill="#A9D6FF"/>
<path d="M55.4099 36.2608L56.8865 35.9834C57.4414 35.8799 57.8082 35.3438 57.7048 34.7889L57.5543 33.9941L56.7125 34.1634L56.8912 35.104L55.2453 35.4379L55.4099 36.2608Z" fill="#A9D6FF"/>
<path d="M59.3507 35.2363L57.8929 35.4856C57.338 35.5796 56.9617 36.111 57.0558 36.666L57.1922 37.4607L58.0387 37.3055L57.8788 36.3603L59.5059 36.0593L59.3507 35.2363Z" fill="#A9D6FF"/>
<path d="M56.2516 46.3952L54.8126 45.9625C54.2718 45.7979 53.7028 46.1036 53.5382 46.6444L53.3077 47.4157L54.1354 47.6508L54.4129 46.7338L56.0306 47.1993L56.2516 46.3952Z" fill="#A9D6FF"/>
<path d="M52.2873 45.4969L53.6934 45.9484C54.2295 46.1224 54.8079 45.8214 54.9772 45.2853L55.2218 44.5188L54.3988 44.2695L54.1072 45.1819L52.5271 44.6975L52.2873 45.4969Z" fill="#A9D6FF"/>
<path d="M56.8065 50.6558C56.8065 50.6511 56.8065 50.6511 56.8065 50.6558C56.8771 50.5147 56.9806 50.3971 57.1028 50.3031C57.1499 50.2701 57.1969 50.2372 57.2486 50.2137C57.385 50.1432 57.5402 50.1008 57.7048 50.1008L59.2096 50.082L59.2285 50.7028L59.2332 50.9191L59.0827 50.9238L57.5543 50.9614L57.5684 51.9208L56.9853 51.9349L56.8065 50.6558Z" fill="#A9D6FF"/>
<path d="M55.1512 49.9603L55.1465 49.57L56.8018 49.5559L56.8065 48.6012L57.6671 48.5918L57.6624 49.396C57.6624 49.7298 57.5025 50.0214 57.2533 50.2095C57.2063 50.2424 57.1592 50.2754 57.1075 50.2989C56.9664 50.3741 56.8065 50.4117 56.6372 50.4117L56.0729 50.407L55.1512 49.9603Z" fill="#A9D6FF"/>
<path d="M50.0629 35.0383L49.1552 35.0618C49.1976 34.7749 49.254 34.488 49.3198 34.2106L50.0394 34.2012L50.0629 35.0383Z" fill="#A9D6FF"/>
<path d="M67.2183 35.4476L65.6711 35.4852L65.6853 36.4446L64.8247 36.4681L64.8153 35.6639C64.8106 35.3253 64.9704 35.0244 65.2244 34.8363C65.2714 34.7986 65.3231 34.7704 65.3749 34.7422C65.5113 34.6717 65.6664 34.634 65.8263 34.6293L67.0914 34.6152L67.2183 35.4476Z" fill="#A9D6FF"/>
<path d="M63.2728 34.9346L64.7494 34.944C65.3138 34.9487 65.7746 34.4925 65.7746 33.9282L65.7793 33.124L64.9187 33.1334L64.914 34.0928L63.2587 34.1069L63.2728 34.9346Z" fill="#A9D6FF"/>
<path d="M52.6541 29.4138L52.6635 30.3731L51.8029 30.3966L51.7935 29.5925C51.7935 29.5454 51.7982 29.4937 51.8029 29.4467L52.734 28.5626C52.7575 28.5626 52.7811 28.5579 52.8046 28.5579L54.3094 28.5391L54.3329 29.3761L52.6541 29.4138Z" fill="#A9D6FF"/>
<path d="M51.4838 50.332L51.4408 50.4966C51.4503 50.4402 51.4647 50.3838 51.4838 50.332Z" fill="#A9D6FF"/>
<path d="M59.6187 65.1973L60.0655 65.597L59.8868 65.7992L59.6187 65.1973Z" fill="#E6F4FF"/>
<path d="M60.6251 62.7802L59.2472 64.3556L58.6829 63.0718L59.6799 61.9619L60.6251 62.7802Z" fill="#E6F4FF"/>
<path d="M62.1911 57.7008L63.2586 58.6554L62.4121 59.6242L61.5139 58.82C61.387 58.7071 61.2882 58.5802 61.2083 58.4438L63.395 55.4717L63.8183 55.8385L62.1911 57.7008Z" fill="#E6F4FF"/>
<path d="M68.8314 60.6726L70.308 58.975C70.8629 58.3354 70.7924 57.3713 70.1575 56.8164L69.2452 56.0264L68.4175 57.0092L69.4991 57.9451L67.8767 59.8638L68.8314 60.6726Z" fill="#E6F4FF"/>
<path d="M71.7517 60.1702L71.1357 59.6199C70.7642 59.2861 70.5949 58.8158 70.6325 58.3549C70.6419 58.2703 70.656 58.1856 70.6748 58.101C70.7359 57.8705 70.8488 57.6495 71.0181 57.4614L71.4225 57.0146L71.7517 60.1702Z" fill="#E6F4FF"/>
<path d="M63.6913 74.4383L64.2274 74.443L64.2838 72.1952C64.2885 71.9506 64.2368 71.7202 64.1427 71.5133C64.1051 71.4333 64.0628 71.3581 64.0111 71.2828C63.743 70.8972 63.301 70.6433 62.7978 70.6292L62.003 70.6104L62.5768 71.913L63.0094 71.9224L63 72.8676V72.8723L63.6913 74.4383Z" fill="#E6F4FF"/>
<path d="M63.964 68.3623L63.87 70.5679C63.8371 71.4097 64.4908 72.1245 65.3325 72.1574L66.5364 72.2044L66.5693 70.9159L65.1397 70.8594L65.2103 68.3858L63.964 68.3623Z" fill="#E6F4FF"/>
<path d="M68.5727 53.6993L67.4817 54.3107L66.2637 52.1098L65.6006 52.4672L65.7652 52.2415L66.6775 51C66.7245 51.0188 66.7716 51.0376 66.8186 51.0564C66.8985 51.0941 66.9738 51.1364 67.0443 51.1881C67.2324 51.3198 67.3923 51.4985 67.5099 51.7148L68.5727 53.6993Z" fill="#E6F4FF"/>
<path d="M69.4756 50.6187L68.4034 51.1736C67.9613 51.3994 67.4629 51.3946 67.0443 51.1971C66.9644 51.1595 66.8891 51.1172 66.8186 51.0655C66.781 51.0372 66.7386 51.009 66.7057 50.9761L67.4817 49.9227L67.5992 50.1437L68.869 49.4854L69.4756 50.6187Z" fill="#E6F4FF"/>
<path d="M69.786 80.3445L68.7232 78.3599C68.3235 77.6169 67.397 77.3348 66.654 77.7345L65.5912 78.3082L66.2166 79.4322L67.477 78.755L68.695 80.9558L69.786 80.3445Z" fill="#E6F4FF"/>
<path d="M66.5458 75.1953L67.5569 77.161C67.9425 77.9134 68.869 78.205 69.6167 77.8194L70.6889 77.2645L70.0823 76.1311L68.8125 76.7895L67.651 74.6074L66.5458 75.1953Z" fill="#E6F4FF"/>
<path d="M72.5559 70.1912L71.4931 68.2066C71.0933 67.4636 70.1669 67.1814 69.4239 67.5812L68.3611 68.1549L68.9865 69.2788L70.2469 68.6017L71.4649 70.8025L72.5559 70.1912Z" fill="#E6F4FF"/>
<path d="M72.523 67.5865L72.3819 67.6571C71.9398 67.8828 71.4413 67.8781 71.0228 67.6759C70.9428 67.6383 70.8676 67.5959 70.7971 67.5442C70.6042 67.4078 70.4397 67.2244 70.3221 66.9987L69.311 65.033L70.4114 64.4404L71.573 66.6225L72.3772 66.2086L72.523 67.5865Z" fill="#E6F4FF"/>
<path d="M73.2801 74.833L73.4212 76.2203L72.965 76.4649L72.3349 75.3409L73.2801 74.833Z" fill="#E6F4FF"/>
<path d="M74.1031 83.0721C74.0231 83.0345 73.9479 82.9922 73.8773 82.9404C73.9573 82.9781 74.0325 83.0204 74.1031 83.0721Z" fill="#E6F4FF"/>
<path d="M74.1031 83.0721C74.0231 83.0345 73.9479 82.9922 73.8773 82.9404C73.9573 82.9781 74.0325 83.0204 74.1031 83.0721Z" fill="#E6F4FF"/>
<path d="M74.0843 82.5408C73.9009 82.5643 73.7222 82.5878 73.5388 82.6066C73.487 82.5408 73.4447 82.4655 73.4024 82.3903L72.3913 80.4246L73.4917 79.832L73.8726 80.5515L74.0843 82.5408Z" fill="#E6F4FF"/>
<path d="M62.6473 63.5461L64.8576 63.1323C65.6899 62.9771 66.2355 62.1776 66.0803 61.3452L65.8545 60.1602L64.5942 60.4188L64.8576 61.8249L62.3933 62.3234L62.6473 63.5461Z" fill="#E6F4FF"/>
<path d="M68.5351 62.0137L66.3577 62.3852C65.5254 62.5263 64.9657 63.3163 65.1068 64.1487L65.3137 65.3385L66.5788 65.1034L66.3389 63.6925L68.7702 63.2458L68.5351 62.0137Z" fill="#E6F4FF"/>
<path d="M63.9076 78.7126L61.7538 78.0636C60.9449 77.8191 60.0937 78.2799 59.8492 79.0888L59.5012 80.2457L60.738 80.5984L61.1518 79.2252L63.569 79.9165L63.9076 78.7126Z" fill="#E6F4FF"/>
<path d="M57.9728 77.3632L60.0749 78.0357C60.8791 78.2943 61.7397 77.8476 61.9983 77.0434L62.3651 75.8959L61.133 75.5244L60.7004 76.8882L58.3349 76.1687L57.9728 77.3632Z" fill="#E6F4FF"/>
<path d="M54.1119 79.4091C53.2419 78.9671 52.4753 78.5156 51.8076 78.0924C52.2261 77.909 52.687 77.9278 53.0773 78.1112C53.1572 78.1488 53.2325 78.1958 53.3077 78.2429C53.4958 78.3745 53.6557 78.5532 53.7686 78.7649L54.1119 79.4091Z" fill="#E6F4FF"/>
<path d="M55.5556 77.335L55.7343 77.6689L54.6621 78.2238C54.22 78.4495 53.7216 78.4448 53.303 78.2473C53.2231 78.2097 53.1478 78.1626 53.0726 78.1156C52.955 78.031 52.8469 77.9322 52.7575 77.8146L55.5556 77.335Z" fill="#E6F4FF"/>
<path d="M66.0144 81.9902V82.7474C65.5771 82.7098 65.1491 82.6674 64.7259 82.6157L64.7306 82.0043L66.0144 81.9902Z" fill="#E6F4FF"/>
<path d="M32.2867 33.1191L34.1583 36.7402" stroke="#0E45FB" stroke-width="5" stroke-miterlimit="10"/>
<path d="M45.1297 23.6201V27.3258" stroke="#0E81FF" stroke-width="5" stroke-miterlimit="10"/>
<path d="M34.1583 47.9707L37.3326 49.3392" stroke="#0E81FF" stroke-width="5" stroke-miterlimit="10"/>
<path d="M73.4212 28.3652L71.9539 32.0992" stroke="#0E45FB" stroke-width="5" stroke-miterlimit="10"/>
<path d="M58.6829 23.6201L59.5717 26.8556" stroke="#0E45FB" stroke-width="5" stroke-miterlimit="10"/>
<path d="M75.7914 45.1494L77.6489 47.9005" stroke="#0E81FF" stroke-width="5" stroke-miterlimit="10"/>
<path d="M53.1196 58.5898L51.8076 62.1216" stroke="#0E81FF" stroke-width="5" stroke-miterlimit="10"/>
<path d="M30.5184 63.6777L28.0542 66.1373" stroke="#0E45FB" stroke-width="5" stroke-miterlimit="10"/>
<path d="M76.7178 70.6045L78.9092 72.5232" stroke="#0E81FF" stroke-width="5" stroke-miterlimit="10"/>
<path d="M84.8441 56.7363L83.0335 60" stroke="#0E45FB" stroke-width="5" stroke-miterlimit="10"/>
<path d="M43.0981 75.7969L44.1233 79.2581" stroke="#0E45FB" stroke-width="5" stroke-miterlimit="10"/>
<path d="M24.6777 87.3418C25.0633 87.4217 25.4583 87.4594 25.8533 87.4688C26.2484 87.4735 26.6387 87.4406 27.0243 87.3747C27.4099 87.3089 27.7909 87.2101 28.1624 87.0832C28.3458 87.022 28.5292 86.9515 28.7126 86.8762C28.8019 86.8386 28.8913 86.801 28.9806 86.7587C29.07 86.7163 29.1594 86.6787 29.244 86.6317C29.9447 86.2837 30.6078 85.8557 31.2332 85.3808C31.8587 84.9058 32.4512 84.3838 33.0109 83.8336C33.5752 83.2834 34.1113 82.7049 34.6239 82.1124C35.1412 81.5199 35.635 80.9038 36.1146 80.2783C37.074 79.0274 37.9675 77.7248 38.8375 76.4033C38.0522 77.7765 37.1963 79.1121 36.2604 80.3912C35.7949 81.0308 35.3011 81.6562 34.7932 82.2629C34.2806 82.8695 33.7398 83.4527 33.1755 84.0076C32.6064 84.5625 32.0045 85.0892 31.3649 85.5642C30.7254 86.0392 30.0482 86.4671 29.3239 86.801C28.6044 87.1396 27.8332 87.3888 27.0431 87.4923C26.6481 87.544 26.2484 87.5628 25.8533 87.5346C25.4536 87.5064 25.0586 87.4453 24.6777 87.3418Z" fill="#29ABE2"/>
<path d="M71.3379 54.9736C71.2956 54.9787 71.2533 54.9787 71.2109 54.9838" stroke="#ED1E79" stroke-width="3" stroke-miterlimit="10"/>
<path d="M76.9341 75.7969C77.0893 76.0931 77.2398 76.3941 77.3903 76.6951C77.5361 76.9961 77.6818 77.3017 77.8229 77.6074C78.1051 78.2188 78.3496 78.8442 78.5848 79.4791C79.0456 80.7441 79.4548 82.0232 79.8686 83.3024C80.6916 85.8607 81.491 88.4283 82.4551 90.9302C82.9348 92.1811 83.4568 93.4179 84.054 94.6171C84.6465 95.8163 85.3143 96.9825 86.1044 98.0595C86.4994 98.5956 86.9321 99.1082 87.4023 99.5784L87.581 99.7571L87.7644 99.9264C87.8867 100.039 88.0137 100.147 88.1406 100.256C88.1736 100.284 88.2018 100.312 88.2394 100.336L88.3382 100.411L88.5357 100.561C88.6015 100.608 88.6721 100.655 88.7426 100.702C88.8131 100.749 88.879 100.801 88.9495 100.839C89.0906 100.923 89.2317 101.017 89.3775 101.093C89.4527 101.13 89.5232 101.173 89.5985 101.21L89.8242 101.318L89.9371 101.37C89.9747 101.389 90.0123 101.403 90.0546 101.417L90.2851 101.511C90.365 101.544 90.445 101.563 90.5202 101.591L90.6378 101.629L90.6989 101.648L90.7601 101.662C90.9199 101.704 91.0845 101.751 91.2491 101.779L91.4937 101.826L91.7429 101.859C91.9075 101.887 92.0768 101.892 92.2414 101.906C92.3261 101.916 92.4107 101.911 92.4906 101.916L92.7446 101.92L92.4906 101.925C92.406 101.925 92.3213 101.934 92.2367 101.925C92.0674 101.916 91.8981 101.916 91.7335 101.897L91.4843 101.869L91.235 101.826C91.0657 101.803 90.9058 101.756 90.7412 101.718L90.6801 101.704L90.619 101.685L90.4967 101.648C90.4168 101.624 90.3321 101.601 90.2569 101.572L90.017 101.483C89.9794 101.469 89.9371 101.455 89.8995 101.436L89.7819 101.384L89.5515 101.281C89.4762 101.243 89.401 101.206 89.3257 101.168C89.1752 101.093 89.0295 101.003 88.8837 100.919C88.8084 100.876 88.7426 100.829 88.6673 100.782C88.5968 100.735 88.5263 100.688 88.4557 100.641L88.2488 100.491L88.1454 100.416C88.1124 100.392 88.0795 100.364 88.0466 100.336C87.9149 100.227 87.7832 100.124 87.6563 100.011L87.4682 99.8418L87.2848 99.6678C86.7957 99.1975 86.3536 98.6849 85.9445 98.1488C85.5353 97.608 85.1638 97.0484 84.8158 96.4699C84.4678 95.8915 84.1481 95.299 83.8424 94.697C83.2357 93.4931 82.709 92.2516 82.2247 90.996C81.745 89.7404 81.3029 88.4659 80.8844 87.1868C80.4705 85.9077 80.0708 84.6238 79.6852 83.3353C79.2949 82.0515 78.9045 80.7629 78.4625 79.4979C78.2462 78.863 78.0157 78.2329 77.7524 77.6168C77.6207 77.3064 77.4843 77.0008 77.3433 76.6951C77.2163 76.4035 77.0752 76.0978 76.9341 75.7969Z" fill="#29ABE2"/>
<path d="M71.5448 56.0742C71.7659 57.0289 71.954 57.9882 72.1233 58.9523C72.2079 59.432 72.2879 59.9163 72.3631 60.4007C72.4383 60.8851 72.5042 61.3695 72.5747 61.8538L72.6688 62.5828L72.7581 63.3117C72.7863 63.5562 72.8099 63.7961 72.8381 64.0406C72.8663 64.2851 72.8851 64.5297 72.9086 64.7695C72.9933 65.743 73.0591 66.7211 73.0779 67.6993C72.9603 66.7258 72.8475 65.7571 72.7252 64.7883C72.6641 64.304 72.6029 63.8196 72.5371 63.3352L72.443 62.611L72.3443 61.8868L72.2455 61.1625L72.1468 60.4383L71.9446 58.9852C71.8035 58.0164 71.6671 57.0477 71.5448 56.0742Z" fill="#29ABE2"/>
<path d="M61.2976 82.0137C61.6409 82.9542 61.9372 83.9183 62.1958 84.887C62.4498 85.8605 62.6614 86.8433 62.8213 87.8356C62.9859 88.8279 63.0988 89.8296 63.1599 90.8359C63.221 91.8423 63.2257 92.8487 63.1693 93.8598C63.1129 94.8662 62.9906 95.8725 62.7931 96.8601C62.5909 97.8477 62.3134 98.8258 61.9325 99.7617C61.7397 100.227 61.5234 100.688 61.2788 101.125C61.0296 101.563 60.7568 101.991 60.4417 102.386L60.3242 102.536L60.2019 102.682C60.122 102.781 60.0326 102.87 59.9527 102.964C59.7787 103.148 59.6 103.326 59.4119 103.491C59.3178 103.576 59.219 103.656 59.125 103.735C59.078 103.773 59.0262 103.811 58.9745 103.853C58.9228 103.891 58.8757 103.928 58.824 103.966L58.6688 104.074L58.5089 104.178L58.429 104.229L58.349 104.276L58.1891 104.37C59.0356 103.834 59.7693 103.129 60.3524 102.32C60.6487 101.92 60.912 101.492 61.1424 101.055C61.26 100.834 61.3682 100.613 61.4716 100.387C61.5234 100.274 61.5751 100.161 61.6221 100.044C61.6691 99.9263 61.7209 99.8134 61.7632 99.6958C62.1206 98.7647 62.3887 97.8006 62.5768 96.8225C62.7649 95.8443 62.8824 94.8474 62.9389 93.8504C62.9953 92.8534 62.9906 91.8517 62.9436 90.8548C62.8966 89.8578 62.7884 88.8608 62.6473 87.8685C62.5768 87.3748 62.4921 86.881 62.3981 86.3872C62.304 85.8934 62.2006 85.4043 62.0877 84.9152C61.9748 84.4262 61.8573 83.9418 61.7209 83.4574C61.655 83.2176 61.5892 82.973 61.514 82.7332C61.4481 82.4933 61.3729 82.2535 61.2976 82.0137Z" fill="#29ABE2"/>
<path d="M58.5324 62.0797C58.1891 61.8022 57.9023 61.4542 57.6718 61.0733C57.4461 60.6877 57.2768 60.2692 57.1592 59.8365C57.0417 59.4039 56.9758 58.9618 56.9382 58.5197C56.9053 58.073 56.9053 57.6309 56.9288 57.1842C56.957 56.7421 57.0041 56.3001 57.0746 55.8627C57.1498 55.4254 57.2345 54.9927 57.3426 54.5601C57.4508 54.1321 57.5731 53.7042 57.7095 53.2856C57.8505 52.8671 58.001 52.4533 58.1844 52.0488C58.0528 52.4674 57.9305 52.8906 57.8223 53.3186C57.7095 53.7418 57.6107 54.1697 57.5213 54.5977C57.4367 55.0256 57.3521 55.4583 57.2956 55.8909C57.2345 56.3236 57.1875 56.7562 57.1639 57.1936C57.1357 57.6309 57.1357 58.0636 57.1592 58.5009C57.1828 58.9336 57.2392 59.3662 57.3379 59.7895C57.4367 60.2127 57.5731 60.6266 57.7706 61.0122C57.9681 61.4072 58.2221 61.7646 58.5324 62.0797Z" fill="#29ABE2"/>
<path d="M49.2587 39.7363C48.8214 40.4323 48.9577 41.0155 48.9577 41.0155" stroke="#29ABE2" stroke-width="5" stroke-miterlimit="10"/>
<path d="M49.4045 40.5264C49.2305 40.6298 49.08 40.785 48.9624 41.0202" stroke="#29ABE2" stroke-width="5" stroke-miterlimit="10"/>
<path d="M70.2845 46.1038C70.2798 45.9251 70.3315 45.7511 70.3973 45.5865C70.4679 45.4219 70.5619 45.2667 70.6795 45.1257C70.9099 44.8435 71.2203 44.6319 71.5448 44.4814C71.874 44.3356 72.222 44.2416 72.5747 44.1992C72.9274 44.1569 73.2801 44.1522 73.6281 44.1945C73.2801 44.251 72.9415 44.3027 72.6076 44.3826C72.2737 44.4579 71.9492 44.5613 71.6436 44.6977C71.3379 44.8388 71.051 45.0175 70.8159 45.2526C70.6983 45.3702 70.5902 45.5019 70.5008 45.643C70.4115 45.784 70.3362 45.9392 70.2845 46.1038Z" fill="#29ABE2"/>
<path d="M70.4914 42.4082L70.2657 43.3534C70.1905 43.6685 70.1246 43.9789 70.0682 44.294C70.0164 44.6091 69.9788 44.9241 69.9835 45.2345C69.9882 45.3897 70.0023 45.5449 70.0494 45.6954C70.0917 45.8459 70.1669 45.987 70.2845 46.0998C70.134 46.0246 70.0212 45.8882 69.9412 45.7377C69.866 45.5825 69.8189 45.4179 69.8001 45.2486C69.7578 44.9147 69.7813 44.5761 69.833 44.2517C69.8895 43.9272 69.9741 43.6074 70.0823 43.297C70.1952 42.996 70.3268 42.6951 70.4914 42.4082Z" fill="#29ABE2"/>
<path d="M72.918 46.8193C72.7111 46.6594 72.5136 46.5042 72.3019 46.3584C72.095 46.2173 71.8834 46.0856 71.6577 45.9916C71.4366 45.8975 71.2015 45.8317 70.9664 45.8458C70.8488 45.8505 70.7312 45.8787 70.6184 45.921C70.5008 45.9634 70.3973 46.0339 70.2845 46.0997C70.3597 45.9916 70.4491 45.8928 70.5619 45.8176C70.6748 45.7423 70.8065 45.6859 70.9429 45.6577C71.0792 45.6295 71.2203 45.6342 71.3567 45.653C71.4931 45.6765 71.6248 45.7141 71.7517 45.7705C72.001 45.8787 72.222 46.0339 72.4148 46.2126C72.6123 46.396 72.7816 46.5935 72.918 46.8193Z" fill="#29ABE2"/>
<path d="M79.0033 62.9778C79.0127 62.8884 79.0503 62.8038 79.1021 62.7285C79.1491 62.6486 79.2196 62.5875 79.2902 62.5263C79.4359 62.4088 79.6146 62.3429 79.7981 62.3147C79.8451 62.31 79.8874 62.3006 79.9344 62.3006C79.9815 62.3006 80.0238 62.2959 80.0708 62.2959C80.1178 62.2959 80.1602 62.3006 80.2025 62.3053C80.2448 62.31 80.2918 62.3147 80.3342 62.3241C80.4188 62.3429 80.5082 62.3664 80.5881 62.3947C80.6681 62.4276 80.7527 62.4605 80.8279 62.5028C80.7386 62.5122 80.6539 62.5075 80.5693 62.5075C80.4846 62.5075 80.4 62.5122 80.32 62.5075C80.2401 62.5122 80.1555 62.5122 80.0755 62.5169C79.9956 62.5263 79.9156 62.5263 79.8404 62.5451C79.6852 62.5687 79.5347 62.611 79.3936 62.6815C79.3231 62.7191 79.2572 62.7568 79.1914 62.8038C79.1209 62.8555 79.0597 62.912 79.0033 62.9778Z" fill="#29ABE2"/>
<path d="M79.5677 61.2607C79.5112 61.4159 79.4454 61.5617 79.3795 61.7028L79.182 62.1213C79.1209 62.2577 79.0598 62.3988 79.0127 62.5399C78.9892 62.6104 78.9751 62.681 78.9657 62.7515C78.961 62.822 78.9657 62.8973 78.9939 62.9772C78.9234 62.9302 78.8763 62.8503 78.8481 62.7656C78.8246 62.681 78.8199 62.5916 78.8246 62.507C78.8387 62.333 78.8904 62.1731 78.961 62.0226C79.0315 61.8721 79.1162 61.7357 79.2149 61.604C79.3231 61.4818 79.436 61.3595 79.5677 61.2607Z" fill="#29ABE2"/>
<path d="M80.1508 63.6501C80.052 63.5608 79.9674 63.4714 79.8827 63.3821C79.7981 63.2974 79.7134 63.2175 79.6288 63.1469C79.5394 63.0811 79.4548 63.02 79.3513 62.9917C79.2996 62.9776 79.2478 62.9682 79.1914 62.9635C79.135 62.9588 79.0738 62.9682 79.0033 62.9776C79.0456 62.9259 79.0974 62.8789 79.1632 62.8507C79.229 62.8224 79.2996 62.8036 79.3748 62.8083C79.5253 62.8083 79.6664 62.8789 79.7745 62.9635C79.8827 63.0529 79.9674 63.161 80.0332 63.2739C80.0943 63.3915 80.1414 63.5137 80.1508 63.6501Z" fill="#29ABE2"/>
<path d="M40.1449 54.0329C40.1119 53.9529 40.0696 53.8777 40.0273 53.8119C39.985 53.746 39.9285 53.6849 39.8768 53.6285C39.7639 53.5203 39.637 53.4357 39.4959 53.3604C39.4301 53.3181 39.3548 53.2946 39.2796 53.2569C39.2043 53.224 39.1291 53.2005 39.0538 53.1723C38.9739 53.1488 38.8986 53.1206 38.814 53.0924C38.7341 53.0688 38.6494 53.0406 38.5695 53.0077C38.6541 52.9936 38.7435 52.9842 38.8328 52.9795C38.9222 52.9795 39.0068 52.9842 39.0962 52.9936C39.1385 52.9983 39.1855 53.0077 39.2278 53.0171C39.2702 53.0265 39.3172 53.0359 39.3595 53.05C39.4018 53.0641 39.4442 53.0782 39.4865 53.0971C39.5288 53.1112 39.5711 53.1347 39.6088 53.1535C39.7687 53.2381 39.9191 53.3557 40.0226 53.5109C40.0743 53.5908 40.1167 53.6708 40.1355 53.7601C40.1496 53.8495 40.1637 53.9435 40.1449 54.0329Z" fill="#29ABE2"/>
<path d="M40.1402 52.2227C40.2389 52.359 40.3048 52.5048 40.3612 52.66C40.4129 52.8152 40.4552 52.9704 40.4741 53.135C40.4929 53.2996 40.4929 53.4689 40.4505 53.6335C40.4317 53.7181 40.3988 53.7981 40.3471 53.8733C40.2954 53.9438 40.2248 54.0097 40.1449 54.0285C40.1966 53.9627 40.2248 53.8968 40.2436 53.8263C40.2624 53.7557 40.2671 53.6852 40.2671 53.61C40.2718 53.4642 40.253 53.3137 40.2389 53.1632L40.1825 52.7023C40.1637 52.5471 40.1449 52.3873 40.1402 52.2227Z" fill="#29ABE2"/>
<path d="M38.8422 54.3101C38.8422 54.3101 39.637 53.459 40.1449 54.0327" stroke="#29ABE2" stroke-width="5" stroke-miterlimit="10"/>
</svg>
