<svg width="600" height="600" viewBox="0 0 600 600" fill="none" xmlns="http://www.w3.org/2000/svg">
<path d="M52.1471 148.276L51.4409 148.833L125.159 242.15L125.866 241.592L52.1471 148.276Z" fill="#0A42E2"/>
<path d="M141.15 240.03L116.16 162.27L115.95 161.67L116.82 161.4L117.03 162L141.99 239.76L141.15 240.03Z" fill="#0A42E2"/>
<path d="M202.413 112.179L176.325 218.212L177.199 218.427L203.287 112.394L202.413 112.179Z" fill="#0A42E2"/>
<path d="M148.55 154.463L147.664 154.621L162.368 237.201L163.254 237.043L148.55 154.463Z" fill="#0A42E2"/>
<path d="M495.9 257.37L485.55 186.3L485.31 186.54L484.68 185.88L486.18 184.38L496.8 257.22L495.9 257.37Z" fill="#A9D6FF"/>
<path d="M516.011 210.526L505.014 262.135L505.894 262.323L516.891 210.714L516.011 210.526Z" fill="#A9D6FF"/>
<path d="M575.179 212.234L530.465 260.7L531.126 261.31L575.84 212.844L575.179 212.234Z" fill="#A9D6FF"/>
<path d="M517.71 267.87L516.87 267.57L517.5 265.8L534.51 218.37L535.02 216.93L535.89 217.23L535.38 218.67L517.71 267.87Z" fill="#A9D6FF"/>
<path d="M131.46 151.23C130.83 152.01 130.17 152.76 129.48 153.48C128.94 154.05 128.4 154.59 127.83 155.13C124.53 158.19 120.69 160.56 116.58 162.15C115.02 162.75 113.4 163.26 111.75 163.65C111.03 163.83 110.31 163.98 109.59 164.1C103.53 165.15 97.1402 164.64 91.1102 162.39L90.6902 162.24L89.7602 161.88L87.3002 160.98C87.1202 160.41 86.9402 159.87 86.7602 159.3C86.5202 158.55 86.3102 157.8 86.1002 157.08C85.6202 155.46 85.1702 153.84 84.7502 152.25C84.6602 151.92 84.5702 151.59 84.4802 151.26C84.3602 150.81 84.2402 150.33 84.1202 149.88C83.7302 148.32 83.3702 146.79 83.0402 145.29C82.7702 144.06 82.5002 142.83 82.2602 141.63C81.9602 140.1 81.6902 138.57 81.4202 137.07L81.4802 136.98L81.6902 136.65L83.5802 133.68L85.6502 130.41L87.1502 128.04L87.2702 128.1L94.2902 131.04L97.3802 132.33L100.05 133.44L116.76 140.43L117.69 140.82L120.54 142.02L122.94 143.04L126.96 144.72L130.47 146.19C130.59 146.85 130.71 147.48 130.86 148.11C131.01 148.92 131.16 149.7 131.31 150.45C131.37 150.69 131.4 150.96 131.46 151.23Z" fill="#0E45FB"/>
<path d="M92.7002 67.08L92.9702 67.26C88.0802 74.85 83.7902 84.39 81.4502 96.18C79.2002 107.58 78.7802 121.14 81.4502 137.07C82.2002 141.6 83.2202 146.31 84.4802 151.23L58.7102 98.7L85.0502 68.46L92.7002 67.08Z" fill="#0E45FB"/>
<path d="M141.72 82.08L128.61 116.04L125.79 123.36C125.34 121.2 124.86 118.98 124.35 116.73C123.27 111.72 122.13 106.5 120.96 101.19C119.46 94.4399 117.93 87.54 116.4 80.7L141.72 82.08Z" fill="#0E45FB"/>
<path d="M203.58 111.39V111.42C203.46 112.29 203.34 113.16 203.19 113.97C202.71 116.7 202.02 119.16 201.24 121.38C201.12 121.68 201.03 121.95 200.91 122.22V122.25C200.34 123.69 199.71 125.04 199.02 126.27C198.9 126.51 198.75 126.75 198.63 126.99C198.39 127.38 198.18 127.74 197.94 128.13C195.69 131.64 193.08 134.22 190.47 136.05C190.14 136.29 189.81 136.5 189.51 136.71C189.09 136.98 188.7 137.22 188.28 137.46C182.85 140.64 178.11 140.94 178.11 140.94C177.93 140.1 177.75 139.29 177.57 138.48C177.39 137.64 177.21 136.83 177 136.02C176.97 135.93 176.94 135.81 176.91 135.72C176.61 134.46 176.31 133.2 175.98 131.97C175.95 131.82 175.89 131.64 175.86 131.49C175.32 129.39 174.75 127.32 174.15 125.34C174.03 124.92 173.91 124.5 173.76 124.08L175.2 120.12L175.29 119.91L177.48 113.97L184.83 93.87L185.76 91.35L189.57 80.97C192.72 85.14 195.45 89.67 197.76 94.5C198.09 95.22 198.45 95.94 198.75 96.69C200.82 101.28 202.47 106.23 203.58 111.39Z" fill="#0E81FF"/>
<path d="M141.72 82.08L116.4 80.7C114.12 70.44 111.84 60.39 109.8 51.36C118.38 53.49 130.17 58.29 141.87 68.97C146.01 72.75 150.15 77.31 154.11 82.71L141.72 82.08Z" fill="#0E81FF"/>
<path d="M125.76 123.36C127.65 132.12 129.27 139.98 130.5 146.16L87.1802 128.04L105.45 99.24L120.96 101.22C122.13 106.53 123.27 111.75 124.35 116.76C124.83 118.98 125.31 121.2 125.76 123.36Z" fill="#0E81FF"/>
<path d="M85.0502 68.46L83.2802 70.5L82.2302 71.73L77.6702 76.95L76.6502 78.12L73.2902 81.99L72.0002 83.46L71.9102 83.58L70.2902 85.44L62.5802 94.29L61.2902 95.76L60.6902 96.48L59.6102 97.71L58.7402 98.7L57.7502 99.84L56.7002 101.07L52.2602 106.17L50.7302 107.91L49.9202 108.84C50.0102 108.54 50.0702 108.21 50.1602 107.91C50.6402 106.08 51.2102 104.25 51.8402 102.45C51.9902 102 52.1702 101.52 52.3202 101.07C52.5002 100.56 52.7102 100.05 52.8902 99.54C53.1002 99 53.3402 98.43 53.5502 97.89C56.6102 90.57 60.7502 83.79 65.8202 77.7C66.1502 77.31 66.4802 76.92 66.8102 76.53C68.3102 74.79 69.9002 73.11 71.5502 71.52C71.7302 71.34 71.9102 71.16 72.1202 70.98C72.2102 70.89 72.3002 70.8 72.3902 70.71L72.7202 70.65L73.8602 70.44L74.1302 70.38L77.4002 69.78L85.0502 68.46Z" fill="#0E81FF"/>
<path d="M173.82 65.16L141.84 69C130.17 58.32 118.35 53.52 109.77 51.39C109.74 51.3 109.74 51.24 109.71 51.15C133.02 46.11 156.12 51.9 173.82 65.16Z" fill="#A9D6FF"/>
<path d="M176.01 131.97L128.58 116.04L141.69 82.08L154.08 82.74C161.58 93 168.51 106.44 173.82 124.05C174.6 126.6 175.32 129.24 176.01 131.97Z" fill="#A9D6FF"/>
<path d="M105.42 99.21L81.4202 96.15C83.7602 84.36 88.0502 74.82 92.9402 67.23C97.0502 60.87 101.58 55.89 105.75 52.11C106.89 51.81 108.06 51.51 109.23 51.24C109.29 51.24 109.35 51.21 109.41 51.21C109.5 51.18 109.59 51.18 109.68 51.15C109.71 51.24 109.71 51.3 109.74 51.39C111.78 60.39 114.06 70.47 116.34 80.73C117.87 87.54 119.4 94.47 120.9 101.22L105.42 99.21Z" fill="#A9D6FF"/>
<path d="M84.48 151.23C85.29 154.38 86.25 157.62 87.3 160.95C71.4 164.46 62.01 160.95 56.52 156.42L50.88 149.43C49.65 147.09 49.29 145.38 49.29 145.38C46.53 132.9 46.92 120.45 49.89 108.84L58.74 98.6699L84.48 151.23Z" fill="#A9D6FF"/>
<path d="M189.63 80.91L173.82 124.05C168.51 106.44 161.61 93 154.08 82.74C150.12 77.31 145.98 72.78 141.84 69L173.82 65.16C174.42 65.61 175.02 66.09 175.62 66.54C180.84 70.68 185.55 75.51 189.63 80.91Z" fill="#E6F4FF"/>
<path d="M105.78 52.11C101.61 55.89 97.0801 60.9 92.9701 67.23L92.7001 67.05L85.0801 68.43L72.3901 70.71C81.5401 62.13 92.8801 55.59 105.78 52.11Z" fill="#E6F4FF"/>
<path d="M105.42 99.21L87.1501 128.01L81.4201 137.04C78.7501 121.11 79.1701 107.58 81.4201 96.15L105.42 99.21Z" fill="#E6F4FF"/>
<path d="M148.11 154.65C143.82 154.65 139.53 153.96 135.33 152.55L131.46 151.23C131.19 149.7 130.86 148.02 130.5 146.16C129.3 139.98 127.65 132.12 125.76 123.36L128.58 116.04L176.01 131.97C176.76 134.85 177.45 137.85 178.11 140.94C170.43 149.79 159.42 154.65 148.11 154.65Z" fill="#E6F4FF"/>
<path d="M572.76 217.41C568.62 220.74 564.51 221.64 561.3 221.64C557.52 221.64 554.97 220.38 554.97 220.38C567.81 180.66 554.67 160.5 546 152.16C546 152.13 546.03 152.07 546.03 152.01C566.55 158.55 579.69 177.51 579.69 198C579.69 202.8 578.97 207.66 577.47 212.46C575.94 214.53 574.35 216.15 572.76 217.41Z" fill="#E6F4FF"/>
<path d="M558.27 208.32C558.06 209.31 557.85 210.3 557.58 211.29C556.95 213.93 556.17 216.66 555.3 219.48C555.21 219.78 555.12 220.08 555 220.38C553.38 220.95 551.73 221.34 550.05 221.55C546.48 222 542.88 221.64 539.49 220.56C538.2 220.14 536.97 219.63 535.77 219C535.65 218.94 535.53 218.88 535.41 218.82C535.26 218.73 535.08 218.64 534.93 218.55C533.31 217.62 531.75 216.48 530.37 215.16C529.83 214.65 529.29 214.11 528.81 213.54L527.16 211.68C527.97 209.4 528.93 206.49 530.04 203.13C530.04 203.1 530.07 203.07 530.07 203.01C530.79 200.79 531.6 198.36 532.41 195.78C532.44 195.66 532.5 195.54 532.53 195.45C535.02 187.71 537.84 178.71 540.54 169.95C541.11 168.09 541.68 166.23 542.25 164.4C542.34 164.07 542.46 163.74 542.55 163.41C543.75 159.51 544.92 155.73 546 152.22C546.81 153 547.65 153.87 548.49 154.86C549.3 155.76 550.11 156.78 550.89 157.89C551.94 159.33 552.96 160.92 553.92 162.69C554.04 162.9 554.16 163.14 554.28 163.35C556.05 166.74 557.64 170.73 558.72 175.41C558.96 176.43 559.17 177.48 559.35 178.56C559.68 180.45 559.92 182.46 560.1 184.56C560.7 191.31 560.22 199.2 558.27 208.32Z" fill="#A9D6FF"/>
<path d="M515.97 212.94C510.78 212.16 505.92 209.52 502.41 205.32L500.82 203.4C509.13 164.91 530.67 154.23 543.69 151.35C544.41 151.53 545.1 151.74 545.82 151.95C545.91 152.01 545.97 152.1 546.06 152.16C544.89 155.97 543.63 160.08 542.31 164.34C536.79 182.19 530.46 202.35 527.19 211.65C523.5 213.09 519.66 213.48 515.97 212.94Z" fill="#E6F4FF"/>
<path d="M543.69 151.35C542.88 151.53 542.04 151.74 541.17 151.98C540.18 152.25 539.16 152.58 538.11 152.97C537.39 153.24 536.64 153.51 535.89 153.84C534.21 154.53 532.5 155.37 530.73 156.36C530.34 156.6 529.92 156.81 529.53 157.05C528.24 157.83 526.95 158.67 525.66 159.63C524.4 160.56 523.14 161.58 521.88 162.72C519.54 164.85 517.23 167.34 515.01 170.25C514.23 171.27 513.48 172.35 512.73 173.46C507.84 180.84 503.58 190.59 500.82 203.43C495.51 201.78 491.94 199.56 489.57 197.22C488.67 196.35 487.95 195.45 487.38 194.58C486.72 193.59 486.24 192.63 485.88 191.67L485.25 187.71L485.01 186.27C485.07 184.65 485.4 183.63 485.4 183.63C486.51 180.12 487.98 176.82 489.75 173.79C489.78 173.76 489.78 173.73 489.81 173.7C491.79 170.31 494.13 167.25 496.8 164.52C498.69 162.57 500.73 160.8 502.89 159.21C502.98 159.15 503.04 159.09 503.13 159.06C504.93 157.74 506.82 156.57 508.8 155.52C511.71 153.96 514.8 152.7 517.98 151.77C518.97 151.47 519.99 151.23 520.98 150.99C525.84 149.91 530.91 149.55 536.01 150.03C538.53 150.21 541.11 150.66 543.69 151.35Z" fill="#A9D6FF"/>
<path d="M505.98 259.8L507.21 261.87C506.4 262.5 505.77 263.37 505.47 264.42L505.32 264.87L493.65 261.21L496.14 255.93L497.58 252.9C498.15 251.1 500.55 250.83 501.51 252.42L505.98 259.8Z" fill="#E6F4FF"/>
<path d="M507.21 261.87C508.44 260.91 510.12 260.55 511.74 261.03C514.38 261.81 515.88 264.57 515.13 267.21L514.23 267.63L505.35 264.84L505.5 264.39C505.77 263.34 506.4 262.47 507.21 261.87Z" fill="#D3E7F4"/>
<path d="M515.13 267.21L517.92 265.95L528.93 260.97C529.56 260.67 530.22 260.73 530.76 261C531.66 261.45 532.26 262.5 531.9 263.61L530.4 272.7L514.23 267.63L515.13 267.21Z" fill="#E6F4FF"/>
<path d="M516.69 276.72L508.92 301.44L499.86 298.62L507.63 273.87L516.69 276.72Z" fill="#E6F4FF"/>
<path d="M163.5 240.15H163.47L151.32 242.82L149.37 241.74C151.38 238.44 155.04 234.99 160.8 238.26C161.64 238.74 162.54 239.37 163.5 240.15Z" fill="#0A42E2"/>
<path d="M140.58 236.82L149.34 241.74C149.97 242.1 151.02 242.58 151.29 242.82L144.15 244.38L124.2 248.79L123.45 239.25L123.03 233.76C122.37 230.76 125.58 228.39 128.25 229.89L140.58 236.82Z" fill="#0E81FF"/>
<path d="M162.57 235.83L174.18 219.78C174.84 218.85 175.8 218.4 176.79 218.31C178.44 218.19 180.12 219.21 180.54 221.1L185.79 235.23L163.5 240.15C162.54 239.37 161.67 238.74 160.8 238.26L162.57 235.83Z" fill="#0E81FF"/>
<path d="M163.47 240.15L166.26 252.84L154.41 255.45L146.97 257.1L144.18 244.41L148.44 243.45L151.32 242.82L163.47 240.15Z" fill="#A9D6FF"/>
<path d="M169.59 252.12L178.71 293.58L163.53 296.91L154.41 255.45L166.26 252.84L169.59 252.12Z" fill="#A9D6FF"/>
<path d="M535.47 274.29L533.07 281.85L530.04 280.92L516.69 276.72L507.63 273.87L488.04 267.72L484.62 266.64L486.99 259.08L493.65 261.15L505.32 264.84L514.23 267.63L530.4 272.7L535.47 274.29Z" fill="#A9D6FF"/>
<path d="M516.682 276.71L508.919 301.44L522.286 305.636L530.049 280.906L516.682 276.71Z" fill="#A9D6FF"/>
<path d="M507.63 273.87L499.86 298.62L493.68 296.67C486.27 294.33 482.16 286.44 484.47 279.03L488.04 267.69L507.63 273.87Z" fill="#A9D6FF"/>
<path d="M493.98 398.01V451.35C493.98 460.23 491.94 468.66 488.28 476.16C488.13 476.49 487.95 476.82 487.77 477.15L485.67 480.87C484.77 482.37 483.78 483.81 482.76 485.19C481.77 486.54 480.72 487.83 479.61 489.06C479.61 489.06 479.61 489.06 479.61 489.09L459 486.63L450.3 485.61L449.07 485.46L436.8 483.99L426.75 482.79L420.87 482.1L419.58 481.95L409.8 463.26L407.61 459.09L388.08 421.74L382.32 410.73L377.88 402.27L393.3 385.98L396.54 382.56L409.62 368.73V449.1L409.65 449.07L413.13 445.8L427.53 432.3L434.34 438.69L436.29 440.52L439.5 443.52L444.03 447.78L445.44 449.1V415.89L447.66 415.05L452.13 413.4L481.05 402.69L493.98 398.01Z" fill="#0E81FF"/>
<path d="M493.98 354.9V398.01L445.5 415.95V354.9H469.74H493.98Z" fill="#E6F4FF"/>
<path d="M493.98 314.1V354.9H469.74L479.61 338.28L493.98 314.1Z" fill="#E6F4FF"/>
<path d="M493.98 314.1L479.61 338.28L445.5 327.93V314.1H457.44H493.98Z" fill="#A9D6FF"/>
<path d="M479.61 489.12C469.2 500.79 454.08 508.14 437.22 508.14H433.29L419.61 481.98L479.61 489.12Z" fill="#E6F4FF"/>
<path d="M479.61 338.28L469.74 354.9H445.5V327.93L479.61 338.28Z" fill="#0E81FF"/>
<path d="M442.8 266.49L457.44 314.1H445.5H409.68H368.34V293.16H365.04L408.48 256.41C420.18 246.48 438.27 251.79 442.8 266.49Z" fill="#0E45FB"/>
<path d="M409.65 328.62V314.1H445.5V327.93V354.9V415.95V449.16L427.56 432.36L409.65 449.16V368.76V354.9V328.62Z" fill="#0E45FB"/>
<path d="M419.61 481.98L433.29 508.14H429.69H365.01V415.95L377.91 402.3L419.61 481.98Z" fill="#A9D6FF"/>
<path d="M409.65 354.9V368.76L377.91 402.3L365.01 415.95V354.9H409.65Z" fill="#E6F4FF"/>
<path d="M409.65 328.62V354.9H365.01V348.3L409.65 328.62Z" fill="#0E81FF"/>
<path d="M409.65 314.1V328.62L365.01 348.3V314.1H368.31H409.65Z" fill="#A9D6FF"/>
<path d="M368.31 293.16V314.1H365.01H335.79H324.21V293.16H365.01H368.31Z" fill="#0A42E2"/>
<path d="M365.01 354.9V508.14H290.58V354.9H299.97V424.89L317.88 411.12L329.88 420.36L335.37 424.59L335.79 424.89V354.9H365.01Z" fill="#0E81FF"/>
<path d="M365.01 314.1H335.79V354.9H365.01V314.1Z" fill="#0E81FF"/>
<path d="M324.21 293.16V314.1H299.94H282.84H243.75H231.78L246.42 266.49C250.95 251.79 269.01 246.48 280.77 256.41L324.21 293.16Z" fill="#0E45FB"/>
<path d="M299.97 314.1H282.87V354.9H299.97V314.1Z" fill="#0E81FF"/>
<path d="M290.58 354.9V508.14H252V496.98C270.6 484.77 282.87 463.71 282.87 439.8C282.87 415.89 270.6 394.86 252 382.65V354.9H282.87H290.58Z" fill="#9ACEF4"/>
<path d="M282.87 314.1V354.9H252H243.75V314.1H282.87Z" fill="#A9D6FF"/>
<path d="M252 496.98C241.71 503.76 229.44 507.81 216.27 508.14H212.73C211.59 508.11 210.48 508.05 209.37 507.96C174 505.35 146.13 475.83 146.13 439.8C146.13 407.55 168.45 380.52 198.51 373.32C202.05 372.48 205.65 371.91 209.37 371.64C211.05 371.52 212.76 371.46 214.47 371.46C228.3 371.46 241.2 375.57 251.97 382.65C270.57 394.86 282.84 415.89 282.84 439.8C282.87 463.71 270.6 484.74 252 496.98Z" fill="#E6F4FF"/>
<path d="M252 496.98V508.14H216.3C229.47 507.81 241.71 503.73 252 496.98Z" fill="#0E81FF"/>
<path d="M252 354.9V382.65C242.16 376.2 230.58 372.21 218.1 371.55C216.9 371.49 215.73 371.46 214.5 371.46C212.79 371.46 211.08 371.52 209.4 371.64C209.25 371.64 209.1 371.61 208.95 371.61C208.08 371.55 207.18 371.52 206.28 371.49C205.62 371.46 204.96 371.46 204.3 371.46C202.35 371.46 200.43 371.55 198.51 371.7V354.9H252Z" fill="#0E81FF"/>
<path d="M243.75 314.1H198.54V354.9H243.75V314.1Z" fill="#0E81FF"/>
<path d="M142.26 411.12C152.34 389.37 173.52 373.8 198.54 371.7V373.32C168.51 380.52 146.16 407.55 146.16 439.8C146.16 475.83 174.03 505.35 209.4 507.96C208.29 508.05 207.21 508.11 206.07 508.14H202.53C178.89 507.54 158.22 494.91 146.4 476.16C140.49 466.8 136.83 455.88 136.08 444.18C135.99 442.74 135.93 441.27 135.93 439.8C135.96 429.57 138.21 419.85 142.26 411.12Z" fill="#0E81FF"/>
<path d="M202.56 508.14H70.6501V490.77C70.6501 482.7 77.1901 476.16 85.2601 476.16H96.0001H146.43C158.25 494.91 178.89 507.54 202.56 508.14Z" fill="#0E45FB"/>
<path d="M201.09 288.66L197.46 289.44L194.46 290.1L178.71 293.58L175.92 280.95L175.2 277.62L173.82 271.38L172.62 265.95L171.24 259.71L170.52 256.41L169.59 252.12L183.18 249.12L186.51 248.4L191.97 247.2L193.47 254.01V254.04L193.62 254.76L195 260.94L196.44 267.54L196.56 268.05L197.37 271.8L198.72 277.89L199.77 282.69L200.16 284.43L200.97 288.09L201.09 288.66Z" fill="#E6F4FF"/>
<path d="M194.25 233.37L197.04 246.06L191.97 247.2L169.59 252.12L166.26 252.84L163.47 240.15H163.5L185.76 235.26L194.25 233.37Z" fill="#E6F4FF"/>
<path d="M163.53 296.91L155.4 298.71L152.07 299.46L150.69 299.76C140.4 302.01 130.2 296.13 126.9 286.38C126.66 285.66 126.45 284.91 126.27 284.16L126.03 283.05L123.87 273.18L123.15 269.91L121.56 262.68L124.77 261.96L146.94 257.07L154.38 255.42L159.27 277.59L161.04 285.66V285.69L162.78 293.61L163.53 296.91Z" fill="#E6F4FF"/>
<path d="M124.2 248.79L144.18 244.41L146.97 257.1L121.56 262.68L115.83 263.94L113.04 251.25L124.2 248.79Z" fill="#E6F4FF"/>
<path d="M113.64 444.18H136.11C136.86 455.88 140.55 466.77 146.43 476.16H96V457.98C96 450.36 102.18 444.21 109.77 444.21H113.64V444.18Z" fill="#A9D6FF"/>
<path d="M128.25 411.12H142.26C138.21 419.85 135.96 429.57 135.96 439.8C135.96 441.27 136.02 442.74 136.11 444.18H113.64V425.7C113.64 417.66 120.18 411.12 128.25 411.12Z" fill="#0E45FB"/>
<path d="M61.44 89.5199L63.21 87.4799C63.87 86.7299 63.7801 85.5599 63.0301 84.8999L61.95 83.9399L60.96 85.1099L62.25 86.2199L60.3 88.5299L61.44 89.5199Z" fill="#0E45FB"/>
<path d="M65.82 83.7L64.05 85.68C63.36 86.43 63.45 87.6 64.2 88.26L65.28 89.2199L66.3 88.05L65.01 86.91L66.96 84.6899L65.82 83.7Z" fill="#0E45FB"/>
<path d="M67.4701 78.09C67.4701 78.21 67.4401 78.3 67.4101 78.42C67.3501 78.69 67.2001 78.93 67.0201 79.14L65.2501 81.18L64.1101 80.22L66.0601 77.91L65.8201 77.7C66.1501 77.31 66.4801 76.92 66.8101 76.53L66.8401 76.56C67.2901 76.98 67.5001 77.55 67.4701 78.09Z" fill="#0E45FB"/>
<path d="M69.6301 75.39L67.8601 77.37C67.1701 78.12 67.2601 79.29 68.0101 79.95L69.0901 80.91L70.1101 79.74L68.8201 78.6L70.7701 76.38L69.6301 75.39Z" fill="#0E45FB"/>
<path d="M77.28 76.59L77.67 76.92L76.65 78.09L76.29 77.76L77.28 76.59Z" fill="#0E45FB"/>
<path d="M60.6601 96.45L59.5801 97.68L59.0701 96.72L57.5701 97.53L56.8201 96.18L58.0801 95.49C58.6201 95.19 59.2201 95.22 59.7301 95.46C59.8201 95.49 59.9101 95.55 60.0001 95.61C60.2401 95.76 60.4201 95.97 60.5701 96.24L60.6601 96.45Z" fill="#0E45FB"/>
<path d="M61.2602 95.76C60.8402 95.88 60.3602 95.82 60.0002 95.64C59.9102 95.61 59.8202 95.55 59.7302 95.49C59.4902 95.34 59.3102 95.1 59.1602 94.83L57.9602 92.49L59.2802 91.77L60.6602 94.38L62.1902 93.6L62.5502 94.29L61.2602 95.76Z" fill="#0E45FB"/>
<path d="M76.4702 73.8L75.1802 71.43C74.7002 70.53 73.5902 70.2 72.6902 70.68L71.4302 71.37L72.1802 72.72L73.6802 71.91L75.1502 74.55L76.4702 73.8Z" fill="#0E45FB"/>
<path d="M77.5501 70.11L76.2601 70.77C75.7201 71.04 75.1201 71.04 74.6401 70.8C74.5501 70.77 74.4601 70.71 74.3701 70.65C74.2801 70.59 74.1901 70.53 74.1301 70.44L77.4001 69.84L77.5501 70.11Z" fill="#0E45FB"/>
<path d="M82.1401 70.08L83.2801 70.5L82.2301 71.7L81.6301 71.49L82.1401 70.08Z" fill="#0E45FB"/>
<path d="M69.0601 84.1199L71.91 83.5499L70.2601 85.4099L69.3601 85.5899L69.0601 84.1199Z" fill="#0E45FB"/>
<path d="M73.2902 81.9599L72.0002 83.4299L71.7002 81.8399L73.2002 81.5399L73.2902 81.9599Z" fill="#0E45FB"/>
<path d="M57.4501 99.33L57.7201 99.8399L56.6401 101.04L56.1301 100.02L57.4501 99.33Z" fill="#0E45FB"/>
<path d="M51.78 102.45L52.17 102.48L52.29 101.07L51.78 102.45Z" fill="#0E45FB"/>
<path d="M55.2001 98.43L55.0801 99.96L53.6401 99.81C53.3401 99.78 53.1001 99.69 52.8601 99.54C53.0701 99 53.3101 98.43 53.5201 97.89L53.4901 98.22L55.2001 98.43Z" fill="#0E45FB"/>
<path d="M50.1001 107.91H50.6701L49.8601 108.84C49.9501 108.54 50.0101 108.21 50.1001 107.91Z" fill="#0E45FB"/>
<path d="M190.29 103.89L193.23 100.53C194.34 99.2701 194.19 97.35 192.93 96.24L191.13 94.6801L189.48 96.6301L191.64 98.49L188.4 102.27L190.29 103.89Z" fill="#0E45FB"/>
<path d="M196.2 99.5401L198.33 101.43L196.65 103.35L194.88 101.76C194.13 101.1 193.8 100.17 193.89 99.2401C193.89 99.0601 193.92 98.9101 193.98 98.7301C194.1 98.2801 194.31 97.8301 194.67 97.4701L197.61 94.2001L197.85 94.3801C198.18 95.1001 198.54 95.8201 198.84 96.5701L196.2 99.5401Z" fill="#0E45FB"/>
<path d="M201.36 111.36L203.58 111.42C203.46 112.29 203.34 113.16 203.19 113.97L201.33 113.94L201.36 111.36Z" fill="#0E45FB"/>
<path d="M190.95 119.01L188.85 115.08C188.07 113.61 186.21 113.04 184.74 113.85L182.64 114.99L183.87 117.21L186.36 115.86L188.79 120.21L190.95 119.01Z" fill="#0E45FB"/>
<path d="M184.53 108.78L186.54 112.68C187.32 114.18 189.15 114.75 190.62 114L192.75 112.89L191.55 110.64L189.03 111.93L186.72 107.61L184.53 108.78Z" fill="#0E45FB"/>
<path d="M197.94 128.1C198.09 127.65 198.33 127.29 198.63 126.96C198.39 127.38 198.18 127.74 197.94 128.1Z" fill="#0E45FB"/>
<path d="M201.24 121.38C201.12 121.68 201.03 121.95 200.91 122.22V122.25C200.34 123.69 199.71 125.04 199.02 126.27C198.81 126.24 198.57 126.21 198.36 126.15L194.19 124.8L194.91 122.43L199.62 123.87L200.49 121.17L201.24 121.38Z" fill="#0E45FB"/>
<path d="M187.95 131.52L185.85 127.59C185.07 126.12 183.21 125.55 181.74 126.36L179.64 127.5L180.87 129.72L183.36 128.37L185.79 132.72L187.95 131.52Z" fill="#0E45FB"/>
<path d="M181.5 121.29L183.51 125.19C184.29 126.69 186.12 127.26 187.59 126.51L189.72 125.4L188.52 123.15L186 124.44L183.69 120.12L181.5 121.29Z" fill="#0E45FB"/>
<path d="M175.32 120.9L174.96 125.34L174.21 125.28C174.09 124.86 173.97 124.44 173.82 124.02L175.26 120.06C175.32 120.36 175.35 120.63 175.32 120.9Z" fill="#0E45FB"/>
<path d="M179.97 118.65L179.76 121.2L177.39 120.96C176.55 120.87 175.83 120.48 175.35 119.88L177.54 113.94L177.18 118.38L179.97 118.65Z" fill="#0E45FB"/>
<path d="M182.28 138.36L177.6 138.48C177.42 137.64 177.24 136.83 177.03 136.02C177.27 135.96 177.48 135.93 177.75 135.93L182.22 135.87L182.28 138.36Z" fill="#0E45FB"/>
<path d="M177.6 131.46V133.86C177.6 134.55 177.36 135.21 176.94 135.72C176.64 134.46 176.34 133.2 176.01 131.97C175.98 131.82 175.92 131.64 175.89 131.49L177.6 131.46Z" fill="#0E45FB"/>
<path d="M187.59 93.75L184.89 93.84L185.82 91.29H187.5L187.59 93.75Z" fill="#0E45FB"/>
<path d="M189.27 134.85L190.47 136.05C190.14 136.29 189.81 136.5 189.51 136.71C189.09 136.98 188.7 137.22 188.28 137.46L187.47 136.65L189.27 134.85Z" fill="#0E45FB"/>
<path d="M97.4402 132.15C97.4402 132.21 97.4402 132.24 97.4102 132.3C97.4102 132.39 97.3802 132.51 97.3502 132.6C97.2602 132.99 97.0502 133.38 96.7802 133.71L94.1702 136.71L92.4602 135.27L95.3402 131.88L94.3202 131.01L97.4102 132.3C97.4102 132.27 97.4402 132.21 97.4402 132.15Z" fill="#0E81FF"/>
<path d="M101.34 134.58L99.8403 136.29L98.2503 134.85C97.5903 134.25 97.2903 133.41 97.3503 132.6C97.3503 132.51 97.3803 132.39 97.3803 132.3C97.3803 132.24 97.4103 132.21 97.4103 132.15C97.4103 132.21 97.4103 132.24 97.3803 132.3L100.05 133.41L101.34 134.58Z" fill="#0E81FF"/>
<path d="M108.72 150.24L108.81 146.25C108.84 144.75 107.67 143.52 106.17 143.46L104.04 143.4L104.01 145.68L106.56 145.74L106.5 150.21L108.72 150.24Z" fill="#0E81FF"/>
<path d="M108.27 139.47L108.09 143.37C108.03 144.87 109.2 146.13 110.7 146.19L112.83 146.28L112.89 144L110.34 143.91L110.46 139.53L108.27 139.47Z" fill="#0E81FF"/>
<path d="M94.7701 150.24L92.8801 146.73C92.1601 145.41 90.5401 144.93 89.2201 145.62L87.3301 146.64L88.4401 148.65L90.6901 147.45L92.8501 151.35L94.7701 150.24Z" fill="#0E81FF"/>
<path d="M89.0103 141.12L90.8103 144.6C91.5003 145.92 93.1202 146.46 94.4702 145.77L96.3602 144.78L95.2802 142.77L93.0302 143.94L90.9603 140.07L89.0103 141.12Z" fill="#0E81FF"/>
<path d="M83.6402 140.85L82.2602 141.6C81.9602 140.07 81.6902 138.54 81.4202 137.04L81.4802 136.95C81.5702 137.07 81.6602 137.19 81.7202 137.34L83.6402 140.85Z" fill="#0E81FF"/>
<path d="M85.2302 135.39L83.3402 136.38C82.8302 136.65 82.2602 136.74 81.7202 136.65L83.6102 133.68L84.1802 133.38L85.2302 135.39Z" fill="#0E81FF"/>
<path d="M118.59 160.74L116.7 157.2C115.98 155.88 114.36 155.4 113.04 156.09L111.15 157.11L112.26 159.12L114.51 157.92L116.67 161.82L118.59 160.74Z" fill="#0E81FF"/>
<path d="M112.83 151.59L114.63 155.07C115.32 156.39 116.94 156.93 118.29 156.24L120.18 155.25L119.1 153.24L116.85 154.41L114.78 150.54L112.83 151.59Z" fill="#0E81FF"/>
<path d="M116.79 140.43L117.72 140.82L117.15 141.09L116.79 140.43Z" fill="#0E81FF"/>
<path d="M122.97 143.01L121.56 143.79L120.57 141.99L122.97 143.01Z" fill="#0E81FF"/>
<path d="M129.48 153.48C128.94 154.05 128.4 154.59 127.83 155.13L126.45 152.64L124.2 153.84L123.09 151.83L124.98 150.81C125.79 150.39 126.69 150.39 127.44 150.75C127.56 150.81 127.68 150.87 127.8 150.96C128.13 151.2 128.43 151.5 128.64 151.89L129.48 153.48Z" fill="#0E81FF"/>
<path d="M131.31 150.42L130.26 150.96C129.48 151.38 128.58 151.35 127.83 150.99C127.71 150.93 127.59 150.87 127.47 150.78C127.11 150.54 126.81 150.21 126.6 149.79L124.8 146.31L126.75 145.26L128.82 149.13L130.86 148.08C131.01 148.89 131.16 149.67 131.31 150.42Z" fill="#0E81FF"/>
<path d="M108.15 157.83L104.34 156.69C102.9 156.27 101.4 157.08 100.95 158.49L100.32 160.53L102.51 161.16L103.23 158.73L107.52 159.96L108.15 157.83Z" fill="#0E81FF"/>
<path d="M97.6201 155.43L101.34 156.63C102.78 157.08 104.28 156.3 104.76 154.86L105.42 152.82L103.23 152.16L102.45 154.59L98.2501 153.3L97.6201 155.43Z" fill="#0E81FF"/>
<path d="M92.0701 161.43L90.7201 162.21L89.7901 161.85L87.9901 158.61L86.7901 159.24C86.5501 158.49 86.3401 157.74 86.1301 157.02L86.5201 156.81C87.3001 156.39 88.2301 156.39 88.9801 156.75C89.1301 156.81 89.2501 156.9 89.3701 156.99C89.7001 157.23 90.0001 157.53 90.2101 157.92L92.0701 161.43Z" fill="#0E81FF"/>
<path d="M86.3101 152.31L88.1101 155.79C88.8001 157.11 90.4201 157.65 91.7701 156.96L93.6601 155.97L92.5801 153.96L90.3301 155.13L88.2601 151.26L86.3101 152.31Z" fill="#0E81FF"/>
<path d="M84.9601 149.94L84.7801 152.22H84.7501C84.6601 151.89 84.5701 151.56 84.4801 151.23C84.3601 150.78 84.2401 150.3 84.1201 149.85L84.9601 149.94Z" fill="#0E81FF"/>
<path d="M111.78 163.65C111.06 163.83 110.34 163.98 109.62 164.1V163.68L111.78 163.65Z" fill="#0E81FF"/>
<path d="M87.3302 130.35L85.6501 130.38L87.1502 128.04L87.3002 128.1L87.3302 130.35Z" fill="#0E81FF"/>
<path d="M490.71 182.52L494.25 178.44C495.57 176.91 495.42 174.57 493.89 173.25L491.7 171.36L489.69 173.73L492.3 175.98L488.4 180.6L490.71 182.52Z" fill="#E6F4FF"/>
<path d="M499.53 170.82L495.99 174.78C494.64 176.28 494.76 178.62 496.26 179.97L498.42 181.92L500.46 179.58L497.88 177.27L501.81 172.8L499.53 170.82Z" fill="#E6F4FF"/>
<path d="M502.83 159.63C502.83 159.84 502.77 160.05 502.74 160.23C502.59 160.77 502.35 161.28 501.96 161.73L498.42 165.81L496.77 164.43C498.66 162.48 500.7 160.71 502.86 159.12C502.86 159.3 502.86 159.45 502.83 159.63Z" fill="#E6F4FF"/>
<path d="M505.59 160.56L508.14 162.87L506.1 165.21L503.94 163.26C503.04 162.45 502.65 161.31 502.74 160.2C502.74 159.99 502.8 159.81 502.83 159.6C502.89 159.39 502.95 159.15 503.07 158.94C504.87 157.62 506.76 156.45 508.74 155.4L509.49 156.06L505.59 160.56Z" fill="#E6F4FF"/>
<path d="M525.66 159.6C524.4 160.53 523.14 161.55 521.88 162.69L523.17 161.16L520.56 158.91L522.54 156.54L524.73 158.43C525.15 158.79 525.45 159.18 525.66 159.6Z" fill="#E6F4FF"/>
<path d="M530.7 156.3C530.31 156.54 529.89 156.75 529.5 156.99L530.37 156L530.7 156.3Z" fill="#E6F4FF"/>
<path d="M489.57 197.19C488.67 196.32 487.95 195.42 487.38 194.55C487.38 194.55 487.35 194.52 487.32 194.52C487.32 194.52 487.35 194.52 487.35 194.55C487.53 194.64 487.68 194.73 487.83 194.85C488.28 195.18 488.67 195.6 488.97 196.14L489.57 197.19Z" fill="#E6F4FF"/>
<path d="M493.71 193.44L491.13 194.79C490.05 195.33 488.85 195.33 487.83 194.82C487.68 194.73 487.5 194.64 487.35 194.55C487.35 194.55 487.32 194.52 487.29 194.52C487.29 194.52 487.32 194.52 487.32 194.55C486.66 193.56 486.18 192.6 485.82 191.64L485.19 187.68L486.33 187.05L489.12 192.3L492.18 190.71L493.71 193.44Z" fill="#E6F4FF"/>
<path d="M520.95 150.96L518.31 152.43L517.89 151.71C518.88 151.41 519.9 151.17 520.89 150.93L520.95 150.96Z" fill="#E6F4FF"/>
<path d="M543.69 151.35C542.88 151.53 542.04 151.74 541.17 151.98L538.74 151.14L538.11 152.94L537.6 154.38L535.89 153.78L534.66 153.36L535.62 150.63C535.71 150.39 535.83 150.15 535.95 149.94C538.53 150.21 541.11 150.66 543.69 151.35Z" fill="#E6F4FF"/>
<path d="M530.07 202.98L532.56 201.63C533.64 201.06 534.87 201.06 535.89 201.54C536.07 201.63 536.25 201.72 536.4 201.84C536.85 202.17 537.24 202.59 537.54 203.13L540.09 207.9L537.45 209.37L534.51 204.06L531.48 205.68L530.01 203.04L530.07 202.98Z" fill="#E6F4FF"/>
<path d="M532.53 195.42L534.96 194.1L537.75 199.35L540.81 197.76L542.28 200.49L539.7 201.81C538.62 202.35 537.42 202.35 536.4 201.84C536.22 201.75 536.04 201.66 535.89 201.54C535.41 201.21 535.02 200.76 534.75 200.22L532.44 195.72L532.53 195.42Z" fill="#E6F4FF"/>
<path d="M548.46 200.28L549.93 195.06C550.5 193.11 549.36 191.07 547.41 190.5L544.62 189.72L543.81 192.72L547.11 193.65L545.52 199.5L548.46 200.28Z" fill="#E6F4FF"/>
<path d="M551.49 185.94L549.96 191.04C549.36 192.99 550.47 195.03 552.42 195.63L555.21 196.47L556.05 193.5L552.75 192.51L554.4 186.78L551.49 185.94Z" fill="#E6F4FF"/>
<path d="M560.01 184.5L557.46 179.73C556.5 177.93 554.28 177.27 552.48 178.23L549.93 179.61L551.43 182.31L554.46 180.69L557.4 185.97L560.01 184.5Z" fill="#E6F4FF"/>
<path d="M559.44 178.5C558.42 178.95 557.28 178.92 556.32 178.47C556.14 178.38 555.96 178.29 555.78 178.17C555.3 177.84 554.91 177.39 554.64 176.85L552.21 172.11L554.85 170.67L557.64 175.92L558.78 175.35L559.44 178.5Z" fill="#E6F4FF"/>
<path d="M555.3 219.51C555.21 219.81 555.12 220.11 555 220.41C553.38 220.98 551.73 221.37 550.05 221.58L547.62 216.84L550.26 215.4L553.05 220.65L555.3 219.51Z" fill="#E6F4FF"/>
<path d="M557.58 211.29L554.4 210.39L553.41 213.69L550.44 212.85L551.28 210.06C551.64 208.89 552.51 208.02 553.56 207.66C553.77 207.6 553.95 207.54 554.16 207.51C554.7 207.42 555.3 207.45 555.84 207.6L558.27 208.32L557.58 211.29Z" fill="#E6F4FF"/>
<path d="M546.75 205.92L551.82 207.54C553.77 208.17 555.84 207.09 556.44 205.14L557.31 202.38L554.34 201.48L553.29 204.75L547.59 203.01L546.75 205.92Z" fill="#E6F4FF"/>
<path d="M532.8 213.84L535.44 218.79C535.29 218.7 535.11 218.61 534.96 218.52C533.34 217.59 531.78 216.45 530.4 215.13L532.8 213.84Z" fill="#E6F4FF"/>
<path d="M540.12 220.26L539.52 220.56C538.23 220.14 537 219.63 535.8 219L538.65 217.53L540.12 220.26Z" fill="#E6F4FF"/>
<path d="M515.01 170.22C514.23 171.24 513.48 172.32 512.73 173.43C512.49 173.52 512.25 173.58 512.01 173.64L506.67 174.63L506.07 171.69L512.01 170.49L511.38 167.1L514.41 166.47L514.95 169.32C515.01 169.65 515.01 169.95 515.01 170.22Z" fill="#E6F4FF"/>
<path d="M549.57 168.69L544.14 168.75C542.1 168.78 540.48 170.43 540.51 172.47L540.54 175.38L543.63 175.29L543.6 171.84L549.66 171.69L549.57 168.69Z" fill="#E6F4FF"/>
<path d="M543.99 163.35V166.26C543.99 167.46 543.42 168.51 542.52 169.2C542.34 169.32 542.19 169.44 541.98 169.53C541.56 169.74 541.05 169.89 540.54 169.92C541.11 168.06 541.68 166.2 542.25 164.37C542.34 164.04 542.46 163.71 542.55 163.38L543.99 163.35Z" fill="#E6F4FF"/>
<path d="M553.98 162.63C554.1 162.84 554.22 163.08 554.34 163.29H553.98V162.63Z" fill="#E6F4FF"/>
<path d="M548.52 154.8C549.33 155.7 550.14 156.72 550.92 157.83H548.4L548.37 154.83H548.52V154.8Z" fill="#E6F4FF"/>
<path d="M398.34 384.21L395.25 387.75L393.33 386.01L396.57 382.59L398.34 384.21Z" fill="#0E45FB"/>
<path d="M434.4 438.75L436.35 440.58L434.37 440.52L434.4 438.75Z" fill="#0E45FB"/>
<path d="M444.09 447.84L444.03 449.85L439.47 449.82L439.56 443.58L444.09 447.84Z" fill="#0E45FB"/>
<path d="M452.58 437.01L452.46 441.72L448.05 441.54C447.12 441.51 446.22 441.24 445.47 440.79V427.74L447.6 427.8L447.36 436.83L452.58 437.01Z" fill="#0E45FB"/>
<path d="M409.74 440.7C409.71 440.67 409.68 440.67 409.65 440.67V449.07L406.89 444.06L402.3 446.52L400.02 442.41L403.89 440.31C405.51 439.44 407.37 439.44 408.93 440.19C409.2 440.31 409.44 440.46 409.68 440.61C409.68 440.67 409.71 440.7 409.74 440.7Z" fill="#0E45FB"/>
<path d="M415.32 449.85L411.33 452.1L409.68 449.13L413.16 445.86L415.32 449.85Z" fill="#0E45FB"/>
<path d="M409.74 440.7C409.71 440.7 409.68 440.67 409.65 440.67C409.38 440.55 409.14 440.4 408.9 440.22C408.18 439.71 407.58 439.05 407.16 438.24L403.47 431.07L407.49 428.91L409.65 432.96L409.74 440.7Z" fill="#0E45FB"/>
<path d="M395.73 419.25L391.83 421.26C390.63 421.86 389.34 422.01 388.14 421.77L382.38 410.76L384.66 409.53L388.89 417.48L393.54 415.08L395.73 419.25Z" fill="#0E45FB"/>
<path d="M464.31 471.39L460.44 464.16C458.97 461.46 455.61 460.44 452.88 461.88L449.01 463.95L451.29 468.06L455.88 465.6L460.32 473.61L464.31 471.39Z" fill="#0E45FB"/>
<path d="M452.49 452.61L456.18 459.78C457.59 462.51 460.95 463.59 463.68 462.18L467.58 460.17L465.36 456.03L460.71 458.43L456.48 450.48L452.49 452.61Z" fill="#0E45FB"/>
<path d="M474.39 434.34L470.52 427.11C469.05 424.41 465.69 423.39 462.96 424.83L459.09 426.9L461.37 431.01L465.96 428.55L470.4 436.56L474.39 434.34Z" fill="#0E45FB"/>
<path d="M462.57 415.56L466.26 422.73C467.67 425.46 471.03 426.54 473.76 425.13L477.66 423.12L475.44 418.98L470.79 421.38L466.56 413.43L462.57 415.56Z" fill="#0E45FB"/>
<path d="M488.91 460.56L485.04 453.33C483.57 450.63 480.21 449.61 477.48 451.05L473.61 453.12L475.89 457.23L480.48 454.77L484.92 462.78L488.91 460.56Z" fill="#0E45FB"/>
<path d="M477.09 441.78L480.78 448.95C482.19 451.68 485.55 452.76 488.28 451.35L492.18 449.34L489.96 445.2L485.31 447.6L481.08 439.65L477.09 441.78Z" fill="#0E45FB"/>
<path d="M482.79 485.22C481.8 486.57 480.75 487.86 479.64 489.09L477.21 484.68L472.62 487.14L470.34 483.03L474.21 480.96C475.83 480.09 477.69 480.09 479.25 480.84C479.55 480.99 479.82 481.14 480.09 481.32C480.78 481.8 481.35 482.46 481.77 483.24L482.79 485.22Z" fill="#0E45FB"/>
<path d="M485.73 480.9L485.01 481.26C483.42 482.1 481.59 482.07 480.06 481.35C479.76 481.2 479.49 481.05 479.22 480.87C478.5 480.36 477.9 479.7 477.48 478.86L473.79 471.69L477.81 469.53L482.04 477.48L486.69 475.08L487.8 477.15L485.73 480.9Z" fill="#0E45FB"/>
<path d="M452.61 415.8L447.99 416.67L447.72 415.14L452.19 413.46L452.61 415.8Z" fill="#0E45FB"/>
<path d="M442.86 465.42L435 463.05C432.06 462.15 428.94 463.83 428.04 466.77L426.78 470.97L431.31 472.26L432.81 467.25L441.63 469.77L442.86 465.42Z" fill="#0E45FB"/>
<path d="M421.23 460.5L428.91 462.96C431.85 463.89 434.97 462.27 435.93 459.33L437.25 455.13L432.75 453.78L431.16 458.76L422.52 456.12L421.23 460.5Z" fill="#0E45FB"/>
<path d="M413.04 461.61L409.83 463.29L407.64 459.12L410.82 457.47L413.04 461.61Z" fill="#0E45FB"/>
<path d="M459.03 486.66L450.33 485.64C450.48 485.61 450.63 485.61 450.78 485.61L459 485.52L459.03 486.66Z" fill="#0E45FB"/>
<path d="M450.54 477.39V481.8C450.54 483.21 450 484.5 449.13 485.49L436.86 484.02L436.83 482.73L445.86 482.64L445.89 477.42L450.54 477.39Z" fill="#0E45FB"/>
<path d="M408.96 398.91L400.74 399C397.65 399.03 395.19 401.55 395.22 404.64L395.28 409.05L399.99 408.93L399.93 403.71L409.11 403.47L408.96 398.91Z" fill="#0E45FB"/>
<path d="M386.85 400.68L394.92 400.71C398.01 400.71 400.5 398.25 400.53 395.16V390.75L395.85 390.81L395.82 396.03L386.79 396.12L386.85 400.68Z" fill="#0E45FB"/>
<path d="M493.98 401.34V411.15L489.6 411.27L489.54 406.86C489.51 405 490.41 403.35 491.79 402.33C492.03 402.15 492.3 401.97 492.57 401.85C493.02 401.61 493.5 401.43 493.98 401.34Z" fill="#0E45FB"/>
<path d="M493.98 398.01V400.26C493.62 400.86 493.11 401.4 492.54 401.85C492.3 402.03 492.03 402.21 491.76 402.33C490.98 402.72 490.11 402.96 489.18 402.96L481.14 402.93V402.78L493.98 398.01Z" fill="#0E45FB"/>
<path d="M427.32 482.31L426.78 482.82L420.9 482.13L424.08 479.07L427.32 482.31Z" fill="#0E45FB"/>
<path d="M221.58 346.35L225.81 341.46C227.4 339.63 227.22 336.84 225.36 335.25L222.75 332.97L220.38 335.79L223.5 338.49L218.85 344.01L221.58 346.35Z" fill="#0E45FB"/>
<path d="M232.11 332.37L227.88 337.08C226.26 338.88 226.41 341.67 228.21 343.29L230.79 345.6L233.22 342.81L230.16 340.05L234.84 334.71L232.11 332.37Z" fill="#0E45FB"/>
<path d="M233.16 314.1L234.57 315.33C235.65 316.29 236.16 317.64 236.07 318.99C236.04 319.23 236.01 319.5 235.95 319.74C235.8 320.37 235.47 320.97 235.02 321.51L230.79 326.4L228.03 324.09L232.68 318.57L229.56 315.87L231.06 314.1H233.16V314.1Z" fill="#0E45FB"/>
<path d="M243.21 314.1L243.75 314.55L244.02 314.79L243.75 315.09L239.34 320.13L242.4 322.89L239.97 325.68L237.39 323.37C236.34 322.41 235.83 321.06 235.95 319.74C235.98 319.47 236.01 319.23 236.07 318.99C236.25 318.33 236.55 317.7 237.06 317.16L239.82 314.1H243.21Z" fill="#0E45FB"/>
<path d="M198.54 314.1H202.47C202.29 314.46 202.08 314.82 201.81 315.15L198.54 318.9V314.1Z" fill="#0E45FB"/>
<path d="M209.19 316.53L206.76 319.32L204.18 317.01C203.31 316.23 202.83 315.18 202.74 314.13H206.49L209.19 316.53Z" fill="#0E45FB"/>
<path d="M218.16 361.02C217.95 360.93 217.74 360.78 217.53 360.66C217.74 360.75 217.95 360.87 218.16 361.02Z" fill="#0E45FB"/>
<path d="M218.16 361.02C217.95 360.93 217.74 360.78 217.53 360.66C217.74 360.75 217.95 360.87 218.16 361.02Z" fill="#0E45FB"/>
<path d="M218.1 354.9H213.99L213.24 353.43L216.39 351.72L218.1 354.9Z" fill="#0E45FB"/>
<path d="M204.54 352.98L201.39 354.75L198.54 349.59V345.06C198.87 345.12 199.2 345.24 199.5 345.39C199.71 345.48 199.92 345.63 200.13 345.75C200.67 346.14 201.15 346.65 201.48 347.28L204.54 352.98Z" fill="#0E45FB"/>
<path d="M207.12 344.13L204.03 345.72C202.77 346.38 201.33 346.35 200.13 345.78C199.92 345.69 199.71 345.54 199.5 345.42C199.14 345.18 198.81 344.85 198.54 344.49V336.78L201.72 342.75L205.38 340.86L207.12 344.13Z" fill="#0E45FB"/>
<path d="M239.91 333.42L243.75 332.64V336.36L240.63 336.93L239.91 333.42Z" fill="#0E45FB"/>
<path d="M217.56 328.11L211.11 328.2C208.68 328.23 206.73 330.21 206.76 332.64L206.79 336.09L210.48 336L210.42 331.89L217.65 331.71L217.56 328.11Z" fill="#0E45FB"/>
<path d="M200.13 329.52L206.49 329.55C208.92 329.55 210.9 327.6 210.9 325.17V321.69L207.21 321.72L207.18 325.83L200.07 325.89L200.13 329.52Z" fill="#0E45FB"/>
<path d="M339.42 336.84L343.62 332.01C345.21 330.21 345 327.45 343.2 325.86L340.62 323.61L338.25 326.4L341.34 329.07L336.72 334.53L339.42 336.84Z" fill="#0E45FB"/>
<path d="M349.86 323.01L345.66 327.69C344.04 329.49 344.19 332.22 345.99 333.84L348.54 336.12L350.94 333.36L347.91 330.63L352.53 325.32L349.86 323.01Z" fill="#0E45FB"/>
<path d="M284.43 320.94C284.4 321.18 284.37 321.42 284.31 321.66C284.16 322.29 283.83 322.89 283.38 323.43L282.87 324V317.22L282.93 317.28C284.04 318.24 284.55 319.59 284.43 320.94Z" fill="#0E45FB"/>
<path d="M289.59 314.43L285.39 319.11C283.77 320.91 283.92 323.64 285.72 325.26L288.27 327.54L290.67 324.78L287.64 322.05L292.26 316.74L289.59 314.43Z" fill="#0E45FB"/>
<path d="M338.7 316.98L335.79 318.63V314.1H337.14L338.7 316.98Z" fill="#0E45FB"/>
<path d="M365.01 315.24V319.05L359.73 317.25L358.38 321.09L354.9 319.92L356.04 316.68C356.46 315.48 357.36 314.58 358.44 314.13C358.59 314.07 358.71 314.01 358.86 313.98C359.1 313.89 359.37 313.86 359.61 313.83C360.24 313.74 360.93 313.83 361.56 314.07L361.8 314.16L365.01 315.24Z" fill="#0E45FB"/>
<path d="M359.61 313.8C359.37 313.89 359.1 313.92 358.86 313.95C359.1 313.86 359.37 313.83 359.61 313.8Z" fill="#0E45FB"/>
<path d="M281.73 353.76C281.52 353.67 281.28 353.52 281.1 353.4C281.31 353.49 281.55 353.61 281.73 353.76Z" fill="#0E45FB"/>
<path d="M281.73 353.76C281.52 353.67 281.28 353.52 281.1 353.4C281.31 353.49 281.55 353.61 281.73 353.76Z" fill="#0E45FB"/>
<path d="M288.66 352.11L285.6 353.7C284.73 354.15 283.77 354.27 282.87 354.12V349.95L283.29 350.76L286.92 348.9L288.66 352.11Z" fill="#0E45FB"/>
<path d="M352.47 354.9H343.71C343.68 354.87 343.68 354.87 343.68 354.84L340.8 349.26L343.92 347.58L347.22 353.79L350.85 351.93L352.47 354.9Z" fill="#0E45FB"/>
<path d="M339.24 344.13L335.79 344.79V341.13L338.58 340.65L339.24 344.13Z" fill="#0E45FB"/>
<path d="M298.98 336.24L292.59 336.33C290.19 336.36 288.27 338.34 288.3 340.74L288.33 344.16L291.99 344.07L291.93 339.99L299.07 339.81L298.98 336.24Z" fill="#0E45FB"/>
<path d="M292.38 329.91V333.33C292.38 334.74 291.69 336 290.64 336.78C290.43 336.93 290.22 337.05 290.01 337.17C289.41 337.47 288.72 337.65 288 337.65L282.87 337.62V334.05L288.72 333.99L288.75 329.91H292.38Z" fill="#0E45FB"/>
<path d="M365.01 338.22V345.81L361.89 345.9L361.83 342.48C361.83 341.04 362.49 339.75 363.57 338.94C363.78 338.79 363.99 338.67 364.2 338.55C364.44 338.4 364.71 338.28 365.01 338.22Z" fill="#0E45FB"/>
<path d="M365.01 337.74C364.77 338.04 364.5 338.31 364.2 338.52C363.99 338.67 363.81 338.79 363.57 338.91C362.97 339.21 362.28 339.39 361.56 339.39L355.29 339.36L355.23 335.82L362.28 335.76L362.31 331.68L365.04 331.65V337.74H365.01Z" fill="#0E45FB"/>
<path d="M206.31 371.49C205.65 371.46 204.99 371.46 204.33 371.46C202.38 371.46 200.46 371.55 198.54 371.7V365.04L199.23 364.2L204.09 368.43C205.11 369.3 205.83 370.35 206.31 371.49Z" fill="#E6F4FF"/>
<path d="M206.91 375.27C206.88 375.75 206.79 376.2 206.67 376.65C206.7 376.2 206.79 375.72 206.91 375.27Z" fill="#E6F4FF"/>
<path d="M206.91 375.27C206.88 375.75 206.79 376.2 206.67 376.65C206.7 376.2 206.79 375.72 206.91 375.27Z" fill="#E6F4FF"/>
<path d="M221.67 367.47L218.1 371.55C216.9 371.49 215.73 371.46 214.5 371.46C212.79 371.46 211.08 371.52 209.4 371.64C209.25 371.64 209.1 371.61 208.95 371.61L216.6 363.09L221.67 367.47Z" fill="#E6F4FF"/>
<path d="M202.38 354.9H209.91L207.45 360.36L201.15 357.63L202.38 354.9Z" fill="#E6F4FF"/>
<path d="M224.58 354.9L222.93 358.74L214.08 354.9H224.58Z" fill="#E6F4FF"/>
<path d="M252.72 359.82C252.48 359.94 252.24 360.09 252.03 360.21C251.85 360.33 251.7 360.42 251.55 360.54C249.54 362.04 248.25 364.47 248.31 367.17L248.4 373.62L252.06 373.53L252.72 359.82Z" fill="#E6F4FF"/>
<path d="M252.72 359.82C252.48 360 252.27 360.15 252.03 360.3C251.88 360.39 251.7 360.48 251.55 360.57C250.41 361.14 249.15 361.47 247.77 361.47L235.95 361.41L235.86 354.9H252V360.24C252.24 360.06 252.48 359.94 252.72 359.82Z" fill="#E6F4FF"/>
<path d="M327.51 433.65L335.49 424.47C338.49 421.02 338.13 415.8 334.68 412.8L329.76 408.54L325.26 413.88L331.11 418.95L322.32 429.33L327.51 433.65Z" fill="#E6F4FF"/>
<path d="M347.31 407.37L339.33 416.25C336.27 419.64 336.57 424.89 339.96 427.92L344.82 432.27L349.38 427.02L343.62 421.86L352.44 411.78L347.31 407.37Z" fill="#E6F4FF"/>
<path d="M344.76 396.09L352.74 386.91C355.74 383.46 355.38 378.24 351.93 375.24L347.01 370.98L342.51 376.32L348.36 381.39L339.57 391.77L344.76 396.09Z" fill="#E6F4FF"/>
<path d="M365.01 387.99L360.9 384.3L365.01 379.59V370.14L364.59 369.78L356.61 378.66C355.68 379.68 355.08 380.88 354.75 382.11C354.63 382.56 354.54 383.04 354.51 383.49C354.3 385.98 355.23 388.53 357.24 390.33L362.1 394.68L365.01 391.35V387.99Z" fill="#E6F4FF"/>
<path d="M290.58 364.5C291.84 366.15 292.38 368.16 292.23 370.14C292.2 370.62 292.11 371.1 291.99 371.58C291.72 372.6 291.27 373.59 290.58 374.49V364.5Z" fill="#E6F4FF"/>
<path d="M302.07 357.81L294.09 366.69C291.03 370.08 291.33 375.33 294.72 378.36L299.58 382.71L304.14 377.46L298.38 372.3L307.2 362.22L302.07 357.81Z" fill="#E6F4FF"/>
<path d="M364.2 454.23C364.47 454.23 364.74 454.26 365.01 454.29V461.22L357.6 461.04L357.66 454.08L364.2 454.23Z" fill="#E6F4FF"/>
<path d="M329.31 474.87L323.55 464.13C321.39 460.11 316.38 458.58 312.36 460.77L306.6 463.86L309.99 469.95L316.8 466.29L323.4 478.2L329.31 474.87Z" fill="#E6F4FF"/>
<path d="M311.79 447L317.25 457.62C319.35 461.67 324.33 463.26 328.41 461.19L334.2 458.19L330.9 452.04L324.03 455.58L317.73 443.76L311.79 447Z" fill="#E6F4FF"/>
<path d="M295.38 446.16L290.58 448.86V437.22L295.38 446.16Z" fill="#E6F4FF"/>
<path d="M300.27 429.48L294.48 432.48C293.25 433.11 291.9 433.41 290.61 433.41V426.66L297 423.36L300.27 429.48Z" fill="#E6F4FF"/>
<path d="M362.01 409.32L365.01 408.69V415.62L363.36 415.95L362.01 409.32Z" fill="#E6F4FF"/>
<path d="M365.01 496.41V503.52L355.29 500.73L353.07 508.11V508.14L352.98 508.11L346.38 506.22L348.27 499.98C349.05 497.37 351.03 495.42 353.43 494.58C353.88 494.43 354.33 494.31 354.78 494.22C356.01 494.01 357.3 494.07 358.56 494.46L365.01 496.41Z" fill="#E6F4FF"/>
<path d="M338.07 490.68L349.44 494.31C353.79 495.69 358.44 493.29 359.85 488.94L361.83 482.73L355.17 480.72L352.83 488.1L340.02 484.2L338.07 490.68Z" fill="#E6F4FF"/>
<path d="M312.87 508.14L308.61 500.43L301.8 504.09L298.41 498L304.14 494.91C306.54 493.62 309.3 493.65 311.61 494.73C312.03 494.94 312.45 495.18 312.87 495.45C313.89 496.17 314.73 497.13 315.36 498.27L320.64 508.11H312.87V508.14Z" fill="#E6F4FF"/>
<path d="M303.54 481.14L309 491.76C311.1 495.81 316.08 497.4 320.16 495.33L325.95 492.33L322.65 486.18L315.78 489.72L309.48 477.9L303.54 481.14Z" fill="#E6F4FF"/>
<path d="M299.4 473.88L298.83 480.81L292.35 480.18C291.75 480.12 291.15 480 290.61 479.82V459.6L292.8 459.78L291.69 473.13L299.4 473.88Z" fill="#E6F4FF"/>
<path d="M319.89 399.3L307.71 399.45C303.15 399.51 299.49 403.26 299.55 407.82L299.64 414.33L306.6 414.15L306.51 406.41L320.1 406.08L319.89 399.3Z" fill="#E6F4FF"/>
<path d="M290.58 395.16L299.94 395.07H300.36L300.39 387.33L307.35 387.24L307.32 393.78C307.32 396.48 306 398.85 304.02 400.35C303.63 400.62 303.24 400.89 302.82 401.1C301.95 401.55 300.96 401.85 299.94 401.97C299.64 402 299.34 402.03 299.01 402.03L290.55 401.97V395.16H290.58Z" fill="#E6F4FF"/>
<path d="M354.48 354.9L354.63 360.24L341.04 360.57L341.13 368.31L335.79 368.46L334.17 368.49L334.08 361.95C334.05 360.03 334.68 358.26 335.79 356.82C336.24 356.22 336.78 355.71 337.35 355.26C337.53 355.14 337.71 355.02 337.89 354.9C338.1 354.75 338.31 354.63 338.55 354.51L354.48 354.9Z" fill="#E6F4FF"/>
<path d="M337.8 354.9L338.58 354.51C338.4 354.63 338.22 354.78 338.04 354.9C337.83 355.05 337.62 355.17 337.38 355.26C336.9 355.5 336.36 355.71 335.82 355.86L337.8 354.9Z" fill="#E6F4FF"/>
<path d="M335.79 354.9V424.89L317.88 411.12L299.97 424.89V354.9V314.1H324.21H335.79V354.9Z" fill="#0E45FB"/>
<path d="M235.44 453.81C235.44 463.26 228.48 469.86 219.33 472.23V480.27H205.11V472.5C197.64 471 191.46 467.07 189 461.7L199.05 451.83C201.66 455.67 206.52 458.01 211.74 458.01C215.28 458.01 218.73 456.72 218.73 454.17C218.73 450.96 212.31 448.11 206.19 445.38C198.27 441.96 191.46 436.77 191.46 427.32C191.46 419.07 197.4 412.65 205.47 410.01V399.6H219.69V409.41C226.26 410.85 231.18 414.66 233.07 419.46L223.47 428.7C221.61 425.4 216.78 423.96 213.81 423.96C210.39 423.96 207.96 425.7 207.96 427.83C207.96 430.71 212.37 431.64 219.15 434.46C228.93 438.57 235.44 444.57 235.44 453.81Z" fill="#0E81FF"/>
</svg>
