<svg width="14" height="21" viewBox="0 0 14 21" fill="none" xmlns="http://www.w3.org/2000/svg">
<path d="M7.85774 20.178V18.264C11.0917 18.066 13.0717 16.35 13.0717 13.776C13.0717 11.752 11.5317 10.564 8.01174 9.574L6.75774 9.222C4.11774 8.474 3.10574 7.638 3.10574 6.362C3.10574 4.778 4.64574 3.81 7.04374 3.81C9.19974 3.81 10.6517 4.8 10.8497 6.406H12.7417C12.5437 4.008 10.8277 2.556 7.85774 2.336V0.4H6.47174V2.314C3.25974 2.468 1.21374 4.096 1.21374 6.494C1.21374 8.518 2.70974 9.772 6.18574 10.718L7.48374 11.07C10.1237 11.796 11.1797 12.588 11.1797 13.908C11.1797 15.668 9.59574 16.79 7.13174 16.79C4.64574 16.79 3.08374 15.866 2.84174 13.974H0.927742C1.14774 16.548 3.10574 18.11 6.47174 18.286V20.178H7.85774Z" fill="black"/>
</svg>
