<svg width="154" height="112" viewBox="0 0 154 112" fill="none" xmlns="http://www.w3.org/2000/svg">
<path d="M44.5115 45.4081V61.7431C44.5115 62.3371 44.0255 62.8231 43.4315 62.8231H20.2565C20.0945 62.8231 19.9325 62.7871 19.7975 62.7151C19.4735 62.5621 19.2395 62.2561 19.1945 61.8871C19.1855 61.8511 19.1855 61.8151 19.1855 61.7881C19.1855 61.7701 19.1855 61.7611 19.1855 61.7431V45.4081C19.1855 45.0031 19.4105 44.6521 19.7345 44.4721C19.8965 44.3821 20.0765 44.3281 20.2655 44.3281H43.4406C43.5036 44.3281 43.5666 44.3371 43.6296 44.3461C43.8276 44.3821 43.9986 44.4721 44.1426 44.5981C44.3676 44.7961 44.5115 45.0841 44.5115 45.4081Z" fill="#BEEA34"/>
<path d="M126.942 100.885C125.331 102.244 123.261 103.054 120.993 103.054C119.31 103.054 117.726 102.604 116.367 101.812C119.13 100.21 120.993 97.2216 120.993 93.8016C120.993 90.3816 119.13 87.3846 116.367 85.7916C117.726 85.0086 119.31 84.5586 120.993 84.5586C126.105 84.5586 130.245 88.6986 130.245 93.8106C130.245 96.6456 128.958 99.1926 126.942 100.885Z" fill="#FAF2EB"/>
<path d="M102.84 91.2827C103.938 87.4038 107.502 84.5508 111.741 84.5508C113.424 84.5508 115.008 85.0008 116.367 85.7928C119.13 87.3948 120.993 90.3827 120.993 93.8027C120.993 97.2227 119.13 100.22 116.367 101.813C115.008 102.605 113.424 103.055 111.741 103.055C106.629 103.055 102.489 98.9147 102.489 93.8027C102.498 92.9297 102.615 92.0837 102.84 91.2827Z" fill="#F23C3C"/>
<path d="M144.24 107.392C144.24 109.876 142.224 111.883 139.749 111.883H37.5361L55.5991 72.5352L102.84 91.2822C102.615 92.0832 102.489 92.9292 102.489 93.8022C102.489 98.9142 106.629 103.054 111.741 103.054C113.424 103.054 115.008 102.604 116.367 101.812C117.726 102.604 119.31 103.054 120.993 103.054C123.261 103.054 125.331 102.235 126.942 100.885L144.24 107.392Z" fill="#F7C57C"/>
<path d="M144.241 37.5619V107.393L142.405 106.7L139.507 105.611L126.943 100.877C128.167 99.8419 129.13 98.5009 129.688 96.9619C129.814 96.6289 129.913 96.2779 129.994 95.9269C130.156 95.2429 130.246 94.5319 130.246 93.7939C130.246 92.5159 129.985 91.3099 129.526 90.2029C129.094 89.1769 128.473 88.2409 127.717 87.4399C126.403 86.0539 124.666 85.0729 122.704 84.7039C122.146 84.5959 121.579 84.5419 120.994 84.5419C119.311 84.5419 117.727 84.9919 116.368 85.7749C115.009 84.9829 113.425 84.5329 111.742 84.5329C107.503 84.5329 103.939 87.3769 102.841 91.2649L97.0178 88.9519L95.1908 88.2229L78.8378 81.7339L71.1698 78.6919L61.5398 74.8669L56.7698 72.9769L55.5908 72.5089L56.0048 71.5999L57.4268 68.5129L57.4358 68.4859L58.8668 65.3719L64.1048 53.9599L65.4008 51.1429L67.3898 50.6839L84.9398 46.6699L89.9438 45.5269L90.0428 45.4999L93.9038 44.6179L124.495 37.6249L128.356 36.7429L131.083 36.1219L135.835 35.0329L141.964 33.6289C143.332 34.4389 144.241 35.8969 144.241 37.5619Z" fill="#F9E1B8"/>
<path d="M55.5996 72.534L37.5366 111.891H34.9716C21.5796 111.891 10.7256 101.037 10.7256 87.645V63.732L19.1676 61.797C19.1946 62.373 19.6716 62.832 20.2476 62.832H43.4226C44.0166 62.832 44.5026 62.346 44.5026 61.752V55.956L65.4095 51.168L55.5996 72.534Z" fill="#FAF2EB"/>
<path d="M65.4094 51.1693L44.5114 55.9483V45.4093C44.5114 44.8153 44.0254 44.3293 43.4314 44.3293H20.2564C19.6624 44.3293 19.1764 44.8153 19.1764 45.4093V61.7443C19.1764 61.7623 19.1764 61.7713 19.1764 61.7893L10.7344 63.7243V37.5613C10.7344 35.0773 12.7414 33.0703 15.2254 33.0703H139.749C140.559 33.0703 141.324 33.2863 141.981 33.6643L65.4094 51.1693Z" fill="#F2AB55"/>
<path d="M44.5118 55.9471V61.7431C44.5118 62.3371 44.0258 62.8231 43.4318 62.8231H20.2568C19.6808 62.8231 19.2038 62.3641 19.1768 61.7881C19.1768 61.7701 19.1768 61.7611 19.1768 61.7431V45.4081C19.1768 44.8141 19.6628 44.3281 20.2568 44.3281H43.4318C44.0258 44.3281 44.5118 44.8141 44.5118 45.4081V55.9471Z" fill="#F9E1B8"/>
<path d="M24.2885 52.1303L25.3235 50.9333C25.7105 50.4833 25.6655 49.8083 25.2155 49.4213L24.5765 48.8633L23.9915 49.5563L24.7475 50.2133L23.6045 51.5633L24.2885 52.1303Z" fill="#F2AB55"/>
<path d="M26.8627 48.7188L25.8276 49.8707C25.4316 50.3117 25.4676 50.9867 25.9086 51.3827L26.5387 51.9497L27.1327 51.2657L26.3857 50.5907L27.5287 49.2857L26.8627 48.7188Z" fill="#F2AB55"/>
<path d="M27.1955 44.3281L27.4565 44.5531C27.7265 44.7871 27.8525 45.1201 27.8255 45.4531C27.8165 45.5071 27.8165 45.5611 27.7985 45.6151C27.7625 45.7771 27.6815 45.9211 27.5645 46.0561L26.5295 47.2621L25.8545 46.6951L26.9975 45.3451L26.2415 44.6881L26.5475 44.3281H27.1955Z" fill="#F2AB55"/>
<path d="M29.6529 44.3281L29.7609 44.4271L28.6179 45.7321L29.3649 46.4071L28.7709 47.0911L28.1409 46.5241C27.8799 46.2901 27.7629 45.9571 27.7899 45.6331C27.7899 45.5791 27.7989 45.5251 27.8169 45.4711C27.8619 45.3091 27.9429 45.1561 28.0599 45.0211L28.6629 44.3461H29.6529V44.3281Z" fill="#F2AB55"/>
<path d="M33.2797 47.8217L34.3147 46.6247C34.7017 46.1747 34.6567 45.4997 34.2067 45.1127L33.5677 44.5547L32.9827 45.2477L33.7387 45.9047L32.5957 47.2547L33.2797 47.8217Z" fill="#F2AB55"/>
<path d="M35.8538 44.4102L34.8189 45.5622C34.4229 46.0032 34.4589 46.6781 34.8999 47.0741L35.5298 47.6412L36.1238 46.9571L35.3768 46.2822L36.5198 44.9772L35.8538 44.4102Z" fill="#F2AB55"/>
<path d="M21.2558 44.8501L20.6618 45.5341L20.0318 44.9671C19.8788 44.8321 19.7708 44.6611 19.7168 44.4721C19.8788 44.3821 20.0588 44.3281 20.2478 44.3281H20.6708L21.2558 44.8501Z" fill="#F2AB55"/>
<path d="M30.0583 57.4879L30.0943 55.9129C30.1123 55.3189 29.6443 54.8239 29.0503 54.8149L28.2043 54.7969L28.1953 55.6969L29.2033 55.7239L29.1853 57.4879H30.0583Z" fill="#F2AB55"/>
<path d="M29.8688 53.2109L29.8058 54.7589C29.7788 55.3529 30.2378 55.8479 30.8318 55.8749L31.6778 55.9109L31.7048 55.0109L30.6968 54.9659L30.7418 53.2289L29.8688 53.2109Z" fill="#F2AB55"/>
<path d="M24.5233 57.4859L23.7763 56.0909C23.4973 55.569 22.8493 55.371 22.3183 55.65L21.5713 56.0549L22.0123 56.8469L22.8943 56.3699L23.7493 57.9179L24.5233 57.4859Z" fill="#F2AB55"/>
<path d="M22.2461 53.8683L22.9571 55.2453C23.2271 55.7763 23.8751 55.9833 24.4061 55.7043L25.1621 55.3173L24.7391 54.5163L23.8481 54.9753L23.0291 53.4453L22.2461 53.8683Z" fill="#F2AB55"/>
<path d="M20.1218 53.7603L19.3568 54.1923L19.1768 53.8683V52.1133C19.2578 52.1853 19.3208 52.2753 19.3748 52.3743L20.1218 53.7603Z" fill="#F2AB55"/>
<path d="M20.752 51.5897L19.996 51.9767C19.726 52.1117 19.429 52.1297 19.168 52.0397V50.7617L19.429 51.2477L20.32 50.7887L20.752 51.5897Z" fill="#F2AB55"/>
<path d="M33.9549 61.6266L33.2079 60.2316C32.9289 59.7096 32.2809 59.5116 31.7499 59.7906L31.0029 60.1956L31.4439 60.9876L32.3259 60.5106L33.1809 62.0586L33.9549 61.6266Z" fill="#F2AB55"/>
<path d="M31.6777 58.0168L32.3887 59.3938C32.6587 59.9248 33.3067 60.1318 33.8377 59.8528L34.5937 59.4658L34.1707 58.6648L33.2797 59.1238L32.4607 57.5938L31.6777 58.0168Z" fill="#F2AB55"/>
<path d="M35.8993 54.4977L35.1523 53.1027C34.8733 52.5807 34.2253 52.3827 33.6943 52.6617L32.9473 53.0667L33.3883 53.8587L34.2703 53.3817L35.1253 54.9297L35.8993 54.4977Z" fill="#F2AB55"/>
<path d="M33.6221 50.88L34.3331 52.257C34.6031 52.788 35.2511 52.995 35.7821 52.716L36.5381 52.329L36.1151 51.528L35.2241 51.987L34.4051 50.457L33.6221 50.88Z" fill="#F2AB55"/>
<path d="M38.6893 59.5484L37.9423 58.1534C37.6633 57.6315 37.0153 57.4335 36.4843 57.7125L35.7373 58.1174L36.1783 58.9094L37.0603 58.4324L37.9153 59.9804L38.6893 59.5484Z" fill="#F2AB55"/>
<path d="M36.4121 55.9308L37.1231 57.3078C37.3931 57.8388 38.0411 58.0458 38.5721 57.7668L39.3281 57.3798L38.9051 56.5788L38.0141 57.0378L37.1951 55.5078L36.4121 55.9308Z" fill="#F2AB55"/>
<path d="M41.1283 57.3163L41.5603 55.7953C41.7223 55.2283 41.3893 54.6343 40.8223 54.4723L40.0123 54.2383L39.7783 55.1113L40.7413 55.3903L40.2823 57.0913L41.1283 57.3163Z" fill="#F2AB55"/>
<path d="M42.0103 53.1289L41.5603 54.6139C41.3893 55.1809 41.7133 55.7839 42.2803 55.9549L43.0903 56.1979L43.3423 55.3249L42.3793 55.0369L42.8563 53.3719L42.0103 53.1289Z" fill="#F2AB55"/>
<path d="M44.494 52.7164L43.747 51.3214C43.468 50.7994 42.82 50.6014 42.289 50.8804L41.542 51.2854L41.983 52.0774L42.865 51.6004L43.72 53.1484L44.494 52.7164Z" fill="#F2AB55"/>
<path d="M44.512 49.8536V50.8706L44.377 50.9426C44.062 51.1046 43.711 51.0956 43.414 50.9516C43.36 50.9246 43.315 50.8976 43.261 50.8616C43.126 50.7626 43.009 50.6366 42.919 50.4746L42.208 49.0976L42.982 48.6836L43.801 50.2136L44.512 49.8536Z" fill="#F2AB55"/>
<path d="M41.6498 61.7148L42.2438 62.8218H41.2358L40.8848 62.1378L41.6498 61.7148Z" fill="#F2AB55"/>
<path d="M43.3869 62.8239H43.2969L43.3599 62.7969L43.3869 62.8239Z" fill="#F2AB55"/>
<path d="M44.5123 60.7367L42.8563 60.2597L42.5683 61.2227L41.6953 60.9707L41.9383 60.1607C42.0373 59.8186 42.2983 59.5666 42.6133 59.4586C42.6673 59.4406 42.7213 59.4226 42.7753 59.4136C42.9373 59.3866 43.1083 59.3956 43.2703 59.4406L44.5033 59.8096V60.7367H44.5123Z" fill="#F2AB55"/>
<path d="M40.624 58.9549L42.1 59.4319C42.667 59.6119 43.27 59.2969 43.45 58.739L43.702 57.929L42.838 57.668L42.532 58.622L40.867 58.118L40.624 58.9549Z" fill="#F2AB55"/>
<path d="M38.5272 62.8226H36.3672L35.7822 61.6886L36.5562 61.2656L37.3752 62.8046L38.2662 62.3456L38.5272 62.8226Z" fill="#F2AB55"/>
<path d="M28.9415 49.8357L30.4895 49.5477C31.0745 49.4397 31.4525 48.8817 31.3445 48.2968L31.1915 47.4688L30.3095 47.6487L30.4985 48.6387L28.7705 48.9898L28.9415 49.8357Z" fill="#F2AB55"/>
<path d="M33.0731 48.7656L31.5431 49.0266C30.9581 49.1256 30.5621 49.6836 30.6701 50.2686L30.8141 51.1056L31.7051 50.9436L31.5341 49.9536L33.2441 49.6386L33.0731 48.7656Z" fill="#F2AB55"/>
<path d="M29.8235 60.4813L28.3115 60.0223C27.7445 59.8513 27.1415 60.1753 26.9705 60.7423L26.7275 61.5523L27.6005 61.8043L27.8885 60.8413L29.5895 61.3273L29.8235 60.4813Z" fill="#F2AB55"/>
<path d="M25.6572 59.5292L27.1332 60.0062C27.7002 60.1862 28.3032 59.8712 28.4832 59.3132L28.7352 58.5032L27.8712 58.2422L27.5652 59.1962L25.9002 58.6922L25.6572 59.5292Z" fill="#F2AB55"/>
<path d="M23.452 61.9157L22.705 60.5207C22.426 59.9986 21.778 59.8006 21.247 60.0796L20.5 60.4846L20.941 61.2767L21.823 60.7997L22.678 62.3477L23.452 61.9157Z" fill="#F2AB55"/>
<path d="M21.1836 58.298L21.8946 59.6751C22.1646 60.2061 22.8126 60.4131 23.3436 60.1341L24.0996 59.7471L23.6766 58.946L22.7856 59.405L21.9666 57.875L21.1836 58.298Z" fill="#F2AB55"/>
<path d="M20.6438 57.3525L20.5718 58.2525L19.7258 58.1715C19.5188 58.1535 19.3298 58.0725 19.1768 57.9555V55.4805L19.7888 55.5255L19.6448 57.2535L20.6438 57.3525Z" fill="#F2AB55"/>
<path d="M31.3004 62.7891V62.8251H30.4004V62.7981L31.3004 62.7891Z" fill="#F2AB55"/>
<path d="M19.7983 61.8867V62.7237C19.4743 62.5707 19.2403 62.2647 19.1953 61.8957L19.7983 61.8867Z" fill="#F2AB55"/>
<path d="M23.2992 47.6758L21.7242 47.6938C21.1302 47.7028 20.6532 48.1888 20.6622 48.7828L20.6712 49.6288L21.5712 49.6018L21.5622 48.5938L23.3262 48.5488L23.2992 47.6758Z" fill="#F2AB55"/>
<path d="M19.177 47.1444L20.77 47.1264V46.1184L21.67 46.1094V46.9554C21.67 47.3064 21.499 47.6124 21.238 47.8104C21.193 47.8464 21.139 47.8824 21.085 47.9094C20.941 47.9904 20.77 48.0264 20.59 48.0264L19.168 48.0174V47.1444H19.177Z" fill="#F2AB55"/>
<path d="M41.4516 48.0977L39.8766 48.1157C39.2826 48.1247 38.8056 48.6107 38.8146 49.2047L38.8236 50.0507L39.7236 50.0237L39.7146 49.0157L41.4786 48.9707L41.4516 48.0977Z" fill="#F2AB55"/>
<path d="M37.1945 48.451L38.7425 48.46C39.3365 48.46 39.8225 47.983 39.8225 47.389V46.543L38.9225 46.552V47.56L37.1855 47.578L37.1945 48.451Z" fill="#F2AB55"/>
<path d="M44.5117 45.4785L43.6297 45.4965L43.6387 46.5045L42.7297 46.5315L42.7207 45.6855C42.7207 45.3345 42.8827 45.0195 43.1437 44.8215C43.1887 44.7855 43.2427 44.7495 43.3057 44.7225C43.4497 44.6505 43.6117 44.6055 43.7827 44.6055H44.1337L44.5117 45.4785Z" fill="#F2AB55"/>
<path d="M43.6208 44.3461C43.5488 44.4901 43.4408 44.6161 43.3058 44.7151C43.2518 44.7511 43.2068 44.7871 43.1438 44.8141C42.9998 44.8861 42.8288 44.9311 42.6488 44.9311L41.1008 44.9221L41.0918 44.3281H43.4228C43.4948 44.3281 43.5578 44.3371 43.6208 44.3461Z" fill="#F2AB55"/>
<path d="M45.7989 24.7187C45.7989 27.0677 44.0349 28.9937 41.7579 29.2547C41.5869 29.2727 41.4069 29.2817 41.2359 29.2817H26.9439C23.7939 29.2817 21.2199 26.6627 21.3909 23.5217C21.5529 20.6507 23.9289 18.3737 26.8359 18.3737C26.9979 18.3737 27.1599 18.3827 27.3129 18.3917C27.3219 18.3917 27.3219 18.3917 27.3309 18.3827C28.5549 16.0157 31.0209 14.3867 33.8739 14.3867C37.3839 14.3867 40.3179 16.8437 41.0469 20.1287C41.0469 20.1377 41.0559 20.1377 41.0649 20.1377C41.1189 20.1377 41.1729 20.1377 41.2269 20.1377C43.7559 20.1467 45.7989 22.1987 45.7989 24.7187Z" fill="#F9E1B8"/>
<path d="M77.119 69.2033L80.9439 64.7933C82.3839 63.1373 82.2039 60.6353 80.5479 59.1953L78.1899 57.1523L76.03 59.7083L78.8379 62.1383L74.626 67.1243L77.119 69.2033Z" fill="#F2AB55"/>
<path d="M86.6227 56.6016L82.7887 60.8676C81.3217 62.4966 81.4567 65.0076 83.0947 66.4746L85.4257 68.5626L87.6217 66.0426L84.8587 63.5676L89.0797 58.7346L86.6227 56.6016Z" fill="#F2AB55"/>
<path d="M84.9483 46.7016L89.9523 45.5586C89.7903 45.9996 89.5473 46.4136 89.2233 46.7916L85.3983 51.2016L82.9053 49.1226L84.9483 46.7016Z" fill="#F2AB55"/>
<path d="M90.1862 44.5078C90.1682 44.7328 90.1323 44.9668 90.0693 45.1828C90.0873 44.9578 90.1233 44.7328 90.1862 44.5078Z" fill="#F2AB55"/>
<path d="M90.1862 44.5078C90.1682 44.7328 90.1323 44.9668 90.0693 45.1828C90.0873 44.9578 90.1233 44.7328 90.1862 44.5078Z" fill="#F2AB55"/>
<path d="M95.9016 48.0273L93.7055 50.5473L91.3745 48.4593C90.5105 47.6853 90.0605 46.6143 90.0605 45.5343L93.9215 44.6523L93.1385 45.5523L95.9016 48.0273Z" fill="#F2AB55"/>
<path d="M110.365 53.2631L114.19 48.8531C115.63 47.1971 115.45 44.6951 113.794 43.2551L111.427 41.2031L109.276 43.7591L112.084 46.1891L107.872 51.1751L110.365 53.2631Z" fill="#F2AB55"/>
<path d="M119.878 40.6562L116.044 44.9223C114.577 46.5513 114.712 49.0623 116.35 50.5293L118.681 52.6173L120.877 50.0973L118.114 47.6223L122.335 42.7893L119.878 40.6562Z" fill="#F2AB55"/>
<path d="M97.0271 88.9747L98.4311 88.9837L98.5751 83.1517C98.5931 82.5217 98.4581 81.9187 98.2061 81.3787C98.1071 81.1717 97.9901 80.9647 97.8551 80.7757C97.1531 79.7767 96.0101 79.1197 94.7051 79.0837L91.5731 79.0117L91.5371 82.3507L95.2541 82.4407L95.1821 88.2457L97.0271 88.9747Z" fill="#F2AB55"/>
<path d="M97.7376 73.207L97.4946 78.931C97.4046 81.118 99.1057 82.972 101.293 83.062L104.416 83.188L104.506 79.849L100.798 79.696L100.978 73.279L97.7376 73.207Z" fill="#F2AB55"/>
<path d="M80.332 80.985L78.838 81.75L71.1789 78.708L69.5859 75.621L72.439 74.082L75.454 79.743L78.757 78.033L80.332 80.985Z" fill="#F2AB55"/>
<path d="M124.513 37.6593L128.374 36.7773L127.627 38.8833L124.459 37.8123L124.513 37.6593Z" fill="#F2AB55"/>
<path d="M135.862 35.0664L135.043 37.4964L131.101 36.1464L135.862 35.0664Z" fill="#F2AB55"/>
<path d="M61.5486 74.8922L56.7787 73.0022L56.0137 71.6342L57.4357 68.5472C57.3457 68.4932 57.2557 68.4302 57.1657 68.3672C57.2647 68.4122 57.3547 68.4662 57.4537 68.5202C57.5617 68.5832 57.6607 68.6462 57.7597 68.7182C58.2456 69.0602 58.6596 69.5192 58.9566 70.0772L61.5486 74.8922Z" fill="#F2AB55"/>
<path d="M64.0598 67.2125L61.2788 68.6525C60.1358 69.2464 58.8398 69.2194 57.7598 68.7155C57.6518 68.6615 57.5438 68.6075 57.4448 68.5445C57.3548 68.4905 57.2648 68.4275 57.1748 68.3645C57.2738 68.4095 57.3638 68.4635 57.4628 68.5175L58.8938 65.4035L59.1998 65.9705L62.5028 64.2695L64.0598 67.2125Z" fill="#F2AB55"/>
<path d="M120.031 77.9516L117.268 72.8036C116.233 70.8686 113.83 70.1486 111.895 71.1836L109.141 72.6686L110.77 75.5846L114.037 73.8296L117.196 79.5356L120.031 77.9516Z" fill="#F2AB55"/>
<path d="M111.615 64.5859L114.243 69.68C115.251 71.624 117.645 72.389 119.589 71.39L122.37 69.95L120.795 67.0069L117.492 68.7079L114.477 63.0469L111.615 64.5859Z" fill="#F2AB55"/>
<path d="M125.8 89.75C126.007 89.849 126.205 89.966 126.394 90.092C126.187 89.993 125.989 89.876 125.8 89.75Z" fill="#F2AB55"/>
<path d="M130.354 96.5996L129.688 96.9686C129.813 96.6356 129.913 96.2846 129.994 95.9336L130.354 96.5996Z" fill="#F2AB55"/>
<path d="M126.394 90.092C126.187 89.993 125.989 89.876 125.8 89.75C126.007 89.84 126.205 89.957 126.394 90.092Z" fill="#F2AB55"/>
<path d="M132.693 88.5971L129.912 90.0371C129.786 90.1001 129.651 90.1631 129.525 90.2171C129.093 89.1911 128.472 88.2551 127.716 87.4541C126.402 86.0681 124.665 85.0871 122.703 84.7181L121.938 83.2421L124.791 81.7031L127.806 87.3641L131.109 85.6631L132.693 88.5971Z" fill="#F2AB55"/>
<path d="M139.345 88.3447L140.947 82.7288C141.55 80.6228 140.326 78.4268 138.22 77.8238L135.214 76.9688L134.35 80.1997L137.923 81.2167L136.222 87.5167L139.345 88.3447Z" fill="#F2AB55"/>
<path d="M144.24 73.3613L142.62 72.9023L140.955 78.3833C140.766 79.0133 140.739 79.6523 140.856 80.2644C140.901 80.4894 140.964 80.7053 141.036 80.9213C141.459 82.0373 142.368 82.9553 143.601 83.3333L144.24 83.5223V80.0304L143.961 79.9494L144.24 78.9773V73.3613Z" fill="#F2AB55"/>
<path d="M143.674 64.5957C143.863 64.4967 144.052 64.4158 144.241 64.3438V68.0878L142.54 69.0058L140.911 66.0808L143.674 64.5957Z" fill="#F2AB55"/>
<path d="M143.395 57.9981L144.241 57.5391V59.6361L143.395 57.9981Z" fill="#F2AB55"/>
<path d="M142.405 106.706L139.507 105.617L141.307 104.645L142.405 106.706Z" fill="#F2AB55"/>
<path d="M144.241 96.5742V102.685L141.469 101.893L142.369 98.8962C142.684 97.8702 143.377 97.0602 144.241 96.5742Z" fill="#F2AB55"/>
<path d="M138.445 91.3164L144.241 93.0804V96.3564C143.818 96.3654 143.395 96.3024 142.972 96.1674L137.509 94.4214L138.445 91.3164Z" fill="#F2AB55"/>
<path d="M94.3172 60.7149L100.059 59.6349C102.21 59.2299 103.632 57.1599 103.227 54.9999L102.651 51.9219L99.3752 52.5879L100.059 56.2419L93.6602 57.5289L94.3172 60.7149Z" fill="#F2AB55"/>
<path d="M109.6 56.7461L103.948 57.7091C101.788 58.0781 100.339 60.1301 100.708 62.2901L101.239 65.3771L104.524 64.7651L103.894 61.1021L110.203 59.9411L109.6 56.7461Z" fill="#F2AB55"/>
<path d="M73.4741 52.7344L67.6331 52.8064C65.4461 52.8334 63.6911 54.6334 63.7091 56.8204L63.7451 59.9524L67.0841 59.8624L67.0391 56.1454L73.5641 55.9834L73.4741 52.7344Z" fill="#F2AB55"/>
<path d="M67.3982 50.7188C67.2272 51.7448 66.6692 52.6448 65.8772 53.2478C65.6972 53.3828 65.4993 53.5088 65.2923 53.6168C64.9323 53.8058 64.5273 53.9318 64.1133 54.0038L65.4093 51.1868L67.3982 50.7188Z" fill="#F2AB55"/>
<path d="M140.56 54.3086L134.719 54.3806C132.532 54.4076 130.777 56.2076 130.795 58.3946L130.831 61.5266L134.17 61.4366L134.125 57.7196L140.65 57.5576L140.56 54.3086Z" fill="#F2AB55"/>
<path d="M124.818 55.5872L130.551 55.6142C132.738 55.6232 134.529 53.8592 134.538 51.6632L134.547 48.5312L131.208 48.5673L131.19 52.2842L124.773 52.3382L124.818 55.5872Z" fill="#F2AB55"/>
<path d="M139.245 39.3223L144.24 39.2773V42.5893L139.299 42.5623L139.245 39.3223Z" fill="#F2AB55"/>
<path d="M37.8246 33.6821C37.8246 37.2641 35.1245 40.2161 31.6505 40.6121C31.3895 40.6391 31.1195 40.6571 30.8495 40.6571H9.01554C4.20054 40.6571 0.267535 36.6521 0.537535 31.8551C0.780535 27.4721 4.41654 23.9891 8.86254 23.9891C9.10554 23.9891 9.35754 23.9981 9.59154 24.0251C9.60054 24.0251 9.60954 24.0251 9.60954 24.0161C11.4725 20.3891 15.2525 17.9141 19.5995 17.9141C24.9635 17.9141 29.4455 21.6671 30.5615 26.6891C30.5615 26.6981 30.5705 26.7071 30.5885 26.7071C30.6695 26.7071 30.7505 26.7071 30.8405 26.7071C34.7015 26.6981 37.8246 29.8211 37.8246 33.6821Z" fill="#FAF2EB"/>
<path d="M98.9346 35.9062C98.9346 38.7232 101.059 41.0362 103.786 41.3512C103.993 41.3782 104.2 41.3872 104.416 41.3872H121.552C125.332 41.3872 128.419 38.2462 128.212 34.4752C128.023 31.0372 125.17 28.3012 121.678 28.3012C121.489 28.3012 121.291 28.3102 121.102 28.3282C121.093 28.3282 121.084 28.3282 121.084 28.3193C119.617 25.4753 116.656 23.5312 113.236 23.5312C109.024 23.5312 105.505 26.4742 104.632 30.4252C104.632 30.4342 104.623 30.4432 104.614 30.4432C104.551 30.4432 104.488 30.4432 104.416 30.4432C101.392 30.4252 98.9346 32.8822 98.9346 35.9062Z" fill="#F9E1B8"/>
<path d="M108.511 46.6575C108.511 50.9505 111.751 54.4965 115.918 54.9735C116.233 55.0095 116.557 55.0275 116.881 55.0275H143.062C148.831 55.0275 153.556 50.2305 153.232 44.4615C152.935 39.2055 148.579 35.0295 143.251 35.0295C142.954 35.0295 142.666 35.0385 142.369 35.0655C142.36 35.0655 142.351 35.0565 142.342 35.0475C140.11 30.7005 135.574 27.7305 130.354 27.7305C123.928 27.7305 118.546 32.2305 117.205 38.2605C117.205 38.2695 117.187 38.2785 117.178 38.2785C117.079 38.2785 116.98 38.2695 116.881 38.2695C112.264 38.2875 108.511 42.0315 108.511 46.6575Z" fill="#FAF2EB"/>
<path d="M64.9414 12.5943C64.9414 15.3213 67.0024 17.5713 69.6484 17.8773C69.8464 17.9043 70.0534 17.9133 70.2604 17.9133H86.9014C90.5734 17.9133 93.5704 14.8623 93.3634 11.1993C93.1744 7.86031 90.4114 5.20531 87.0184 5.20531C86.8294 5.20531 86.6404 5.21431 86.4604 5.23231C86.4514 5.23231 86.4424 5.23231 86.4424 5.22331C85.0204 2.46031 82.1404 0.570312 78.8194 0.570312C74.7334 0.570312 71.3134 3.43231 70.4584 7.25731C70.4584 7.26631 70.4494 7.27531 70.4404 7.27531C70.3774 7.27531 70.3144 7.27531 70.2514 7.27531C67.3264 7.26631 64.9414 9.65131 64.9414 12.5943Z" fill="#FAF2EB"/>
</svg>
