<svg width="135" height="79" viewBox="0 0 135 79" fill="none" xmlns="http://www.w3.org/2000/svg">
<path d="M34.1619 12.4081V28.7431C34.1619 29.3371 33.6759 29.8231 33.0819 29.8231H9.90694C9.74494 29.8231 9.58294 29.7871 9.44794 29.7151C9.12394 29.5621 8.88994 29.2561 8.84494 28.8871C8.83594 28.8511 8.83594 28.8151 8.83594 28.7881C8.83594 28.7701 8.83594 28.7611 8.83594 28.7431V12.4081C8.83594 12.0031 9.06094 11.6521 9.38494 11.4721C9.54694 11.3821 9.72694 11.3281 9.91594 11.3281H33.0909C33.1539 11.3281 33.2169 11.3371 33.2799 11.3461C33.4779 11.3821 33.6489 11.4721 33.7929 11.5981C34.0179 11.7961 34.1619 12.0841 34.1619 12.4081Z" fill="#BEEA34"/>
<path d="M116.593 67.8846C114.982 69.2436 112.912 70.0536 110.644 70.0536C108.961 70.0536 107.377 69.6036 106.018 68.8116C108.781 67.2096 110.644 64.2216 110.644 60.8016C110.644 57.3816 108.781 54.3846 106.018 52.7916C107.377 52.0086 108.961 51.5586 110.644 51.5586C115.756 51.5586 119.896 55.6986 119.896 60.8106C119.896 63.6456 118.609 66.1926 116.593 67.8846Z" fill="#0E81FF"/>
<path d="M92.4906 58.2828C93.5886 54.4038 97.1526 51.5508 101.392 51.5508C103.075 51.5508 104.659 52.0008 106.018 52.7928C108.781 54.3948 110.644 57.3828 110.644 60.8028C110.644 64.2228 108.781 67.2198 106.018 68.8128C104.659 69.6048 103.075 70.0548 101.392 70.0548C96.2796 70.0548 92.1396 65.9148 92.1396 60.8028C92.1486 59.9298 92.2656 59.0838 92.4906 58.2828Z" fill="#021544"/>
<path d="M133.89 74.3922C133.89 76.8762 131.874 78.8832 129.399 78.8832H27.1865L45.2495 39.5352L92.4905 58.2822C92.2655 59.0832 92.1395 59.9292 92.1395 60.8022C92.1395 65.9142 96.2795 70.0542 101.391 70.0542C103.074 70.0542 104.658 69.6042 106.017 68.8122C107.376 69.6042 108.96 70.0542 110.643 70.0542C112.911 70.0542 114.981 69.2352 116.592 67.8852L133.89 74.3922Z" fill="#0E45FB"/>
<path d="M133.891 4.56191V74.3929L132.055 73.6999L129.157 72.6109L116.593 67.8769C117.817 66.8419 118.78 65.5009 119.338 63.9619C119.464 63.6289 119.563 63.2779 119.644 62.9269C119.806 62.2429 119.896 61.5319 119.896 60.7939C119.896 59.5159 119.635 58.3099 119.176 57.2029C118.744 56.1769 118.123 55.2409 117.367 54.4399C116.053 53.0539 114.316 52.0729 112.354 51.7039C111.796 51.5959 111.229 51.5419 110.644 51.5419C108.961 51.5419 107.377 51.9919 106.018 52.7749C104.659 51.9829 103.075 51.5329 101.392 51.5329C97.1532 51.5329 93.5892 54.3769 92.4912 58.2649L86.6682 55.9519L84.8412 55.2229L68.4882 48.7339L60.8202 45.6919L51.1902 41.8669L46.4202 39.9769L45.2412 39.5089L45.6552 38.5999L47.0772 35.5129L47.0862 35.4859L48.5172 32.3719L53.7552 20.9599L55.0512 18.1429L57.0402 17.6839L74.5902 13.6699L79.5942 12.5269L79.6932 12.4999L83.5542 11.6179L114.145 4.6249L118.006 3.7429L120.733 3.12191L125.485 2.0329L131.614 0.628906C132.982 1.43891 133.891 2.89691 133.891 4.56191Z" fill="#A9D6FF"/>
<path d="M45.25 39.534L27.187 78.891H24.622C11.23 78.891 0.375977 68.037 0.375977 54.645V30.732L8.81797 28.797C8.84497 29.373 9.32197 29.832 9.89797 29.832H33.073C33.667 29.832 34.153 29.346 34.153 28.752V22.956L55.0599 18.168L45.25 39.534Z" fill="#0E81FF"/>
<path d="M55.0598 18.1693L34.1618 22.9483V12.4093C34.1618 11.8153 33.6758 11.3293 33.0818 11.3293H9.90676C9.31277 11.3293 8.82677 11.8153 8.82677 12.4093V28.7443C8.82677 28.7623 8.82677 28.7713 8.82677 28.7893L0.384766 30.7243V4.56131C0.384766 2.07731 2.40077 0.0703125 4.87577 0.0703125H129.4C130.21 0.0703125 130.975 0.28631 131.632 0.66431L55.0598 18.1693Z" fill="#E6F4FF"/>
<path d="M34.1621 22.9471V28.7431C34.1621 29.3371 33.6761 29.8231 33.0821 29.8231H9.90715C9.33115 29.8231 8.85415 29.3641 8.82715 28.7881C8.82715 28.7701 8.82715 28.7611 8.82715 28.7431V12.4081C8.82715 11.8141 9.31315 11.3281 9.90715 11.3281H33.0821C33.6761 11.3281 34.1621 11.8141 34.1621 12.4081V22.9471Z" fill="#A9D6FF"/>
<path d="M13.9389 19.1303L14.9739 17.9333C15.3609 17.4833 15.3159 16.8083 14.8659 16.4213L14.2269 15.8633L13.6419 16.5563L14.3979 17.2133L13.2549 18.5633L13.9389 19.1303Z" fill="#E6F4FF"/>
<path d="M16.513 15.7188L15.478 16.8707C15.082 17.3117 15.118 17.9867 15.559 18.3827L16.189 18.9497L16.783 18.2657L16.036 17.5907L17.179 16.2857L16.513 15.7188Z" fill="#E6F4FF"/>
<path d="M16.8459 11.3281L17.1069 11.5531C17.3769 11.7871 17.5029 12.1201 17.4759 12.4531C17.4669 12.5071 17.4669 12.5611 17.4489 12.6151C17.4129 12.7771 17.3319 12.9211 17.2149 13.0561L16.1799 14.2621L15.5049 13.6951L16.6479 12.3451L15.8919 11.6881L16.1979 11.3281H16.8459Z" fill="#E6F4FF"/>
<path d="M19.3033 11.3281L19.4113 11.4271L18.2683 12.7321L19.0153 13.4071L18.4213 14.0911L17.7913 13.5241C17.5303 13.2901 17.4133 12.9571 17.4403 12.6331C17.4403 12.5791 17.4493 12.5251 17.4673 12.4711C17.5123 12.3091 17.5933 12.1561 17.7103 12.0211L18.3133 11.3461H19.3033V11.3281Z" fill="#E6F4FF"/>
<path d="M22.9301 14.8217L23.9651 13.6247C24.3521 13.1747 24.3071 12.4997 23.8571 12.1127L23.2181 11.5547L22.6331 12.2477L23.3891 12.9047L22.2461 14.2547L22.9301 14.8217Z" fill="#E6F4FF"/>
<path d="M25.5042 11.4102L24.4692 12.5622C24.0732 13.0032 24.1092 13.6781 24.5502 14.0741L25.1802 14.6412L25.7742 13.9571L25.0272 13.2822L26.1702 11.9772L25.5042 11.4102Z" fill="#E6F4FF"/>
<path d="M10.9062 11.8501L10.3122 12.5341L9.68219 11.9671C9.52919 11.8321 9.42119 11.6611 9.36719 11.4721C9.52919 11.3821 9.70919 11.3281 9.89819 11.3281H10.3212L10.9062 11.8501Z" fill="#E6F4FF"/>
<path d="M19.7087 24.4879L19.7447 22.9129C19.7627 22.3189 19.2947 21.8239 18.7007 21.8149L17.8547 21.7969L17.8457 22.6969L18.8537 22.7239L18.8357 24.4879H19.7087Z" fill="#E6F4FF"/>
<path d="M19.5192 20.2109L19.4562 21.7589C19.4292 22.3529 19.8882 22.8479 20.4822 22.8749L21.3282 22.9109L21.3552 22.0109L20.3472 21.9659L20.3922 20.2289L19.5192 20.2109Z" fill="#E6F4FF"/>
<path d="M14.1737 24.4859L13.4267 23.0909C13.1477 22.569 12.4997 22.371 11.9687 22.65L11.2217 23.0549L11.6627 23.8469L12.5447 23.3699L13.3997 24.9179L14.1737 24.4859Z" fill="#E6F4FF"/>
<path d="M11.8965 20.8683L12.6075 22.2453C12.8775 22.7763 13.5255 22.9833 14.0565 22.7043L14.8125 22.3173L14.3895 21.5163L13.4985 21.9753L12.6795 20.4453L11.8965 20.8683Z" fill="#E6F4FF"/>
<path d="M9.77215 20.7603L9.00715 21.1923L8.82715 20.8683V19.1133C8.90815 19.1853 8.97115 19.2753 9.02515 19.3743L9.77215 20.7603Z" fill="#E6F4FF"/>
<path d="M10.4024 18.5897L9.64636 18.9767C9.37636 19.1117 9.07936 19.1297 8.81836 19.0397V17.7617L9.07936 18.2477L9.97036 17.7887L10.4024 18.5897Z" fill="#E6F4FF"/>
<path d="M23.6053 28.6266L22.8583 27.2316C22.5793 26.7096 21.9313 26.5116 21.4003 26.7906L20.6533 27.1956L21.0943 27.9876L21.9763 27.5106L22.8313 29.0586L23.6053 28.6266Z" fill="#E6F4FF"/>
<path d="M21.3281 25.0168L22.0391 26.3938C22.3091 26.9248 22.9571 27.1318 23.4881 26.8528L24.2441 26.4658L23.8211 25.6648L22.9301 26.1238L22.1111 24.5938L21.3281 25.0168Z" fill="#E6F4FF"/>
<path d="M25.5497 21.4977L24.8027 20.1027C24.5237 19.5807 23.8757 19.3827 23.3447 19.6617L22.5977 20.0667L23.0387 20.8587L23.9207 20.3817L24.7757 21.9297L25.5497 21.4977Z" fill="#E6F4FF"/>
<path d="M23.2725 17.88L23.9835 19.257C24.2535 19.788 24.9015 19.995 25.4325 19.716L26.1885 19.329L25.7655 18.528L24.8745 18.987L24.0555 17.457L23.2725 17.88Z" fill="#E6F4FF"/>
<path d="M28.3397 26.5484L27.5927 25.1534C27.3137 24.6315 26.6657 24.4335 26.1347 24.7125L25.3877 25.1174L25.8287 25.9094L26.7107 25.4324L27.5657 26.9804L28.3397 26.5484Z" fill="#E6F4FF"/>
<path d="M26.0625 22.9308L26.7735 24.3078C27.0435 24.8388 27.6915 25.0458 28.2225 24.7668L28.9785 24.3798L28.5555 23.5788L27.6645 24.0378L26.8455 22.5078L26.0625 22.9308Z" fill="#E6F4FF"/>
<path d="M30.7787 24.3163L31.2107 22.7953C31.3727 22.2283 31.0397 21.6343 30.4727 21.4723L29.6627 21.2383L29.4287 22.1113L30.3917 22.3903L29.9327 24.0913L30.7787 24.3163Z" fill="#E6F4FF"/>
<path d="M31.6607 20.1289L31.2107 21.6139C31.0397 22.1809 31.3637 22.7839 31.9307 22.9549L32.7407 23.1979L32.9927 22.3249L32.0297 22.0369L32.5067 20.3719L31.6607 20.1289Z" fill="#E6F4FF"/>
<path d="M34.1444 19.7164L33.3974 18.3214C33.1184 17.7994 32.4704 17.6014 31.9394 17.8804L31.1924 18.2854L31.6334 19.0774L32.5154 18.6004L33.3704 20.1484L34.1444 19.7164Z" fill="#E6F4FF"/>
<path d="M34.1624 16.8536V17.8706L34.0274 17.9426C33.7124 18.1046 33.3614 18.0956 33.0644 17.9516C33.0104 17.9246 32.9654 17.8976 32.9114 17.8616C32.7764 17.7626 32.6594 17.6366 32.5694 17.4746L31.8584 16.0976L32.6324 15.6836L33.4514 17.2136L34.1624 16.8536Z" fill="#E6F4FF"/>
<path d="M31.3002 28.7148L31.8942 29.8218H30.8862L30.5352 29.1378L31.3002 28.7148Z" fill="#E6F4FF"/>
<path d="M33.0373 29.8239H32.9473L33.0103 29.7969L33.0373 29.8239Z" fill="#E6F4FF"/>
<path d="M34.1627 27.7367L32.5067 27.2597L32.2187 28.2227L31.3457 27.9707L31.5887 27.1607C31.6877 26.8186 31.9487 26.5666 32.2637 26.4586C32.3177 26.4406 32.3717 26.4226 32.4257 26.4136C32.5877 26.3866 32.7587 26.3956 32.9207 26.4406L34.1537 26.8096V27.7367H34.1627Z" fill="#E6F4FF"/>
<path d="M30.2744 25.9549L31.7504 26.4319C32.3174 26.6119 32.9204 26.2969 33.1004 25.739L33.3524 24.929L32.4884 24.668L32.1824 25.622L30.5174 25.118L30.2744 25.9549Z" fill="#E6F4FF"/>
<path d="M28.1776 29.8226H26.0176L25.4326 28.6886L26.2066 28.2656L27.0256 29.8046L27.9166 29.3456L28.1776 29.8226Z" fill="#E6F4FF"/>
<path d="M18.5919 16.8357L20.1399 16.5477C20.7249 16.4397 21.1029 15.8817 20.9949 15.2968L20.8419 14.4688L19.9599 14.6487L20.1489 15.6387L18.4209 15.9898L18.5919 16.8357Z" fill="#E6F4FF"/>
<path d="M22.7235 15.7656L21.1935 16.0266C20.6085 16.1256 20.2125 16.6836 20.3205 17.2686L20.4645 18.1056L21.3555 17.9436L21.1845 16.9536L22.8945 16.6386L22.7235 15.7656Z" fill="#E6F4FF"/>
<path d="M19.4739 27.4813L17.9619 27.0223C17.3949 26.8513 16.7919 27.1753 16.6209 27.7423L16.3779 28.5523L17.2509 28.8043L17.5389 27.8413L19.2399 28.3273L19.4739 27.4813Z" fill="#E6F4FF"/>
<path d="M15.3076 26.5292L16.7836 27.0062C17.3506 27.1862 17.9536 26.8712 18.1336 26.3132L18.3856 25.5032L17.5216 25.2422L17.2156 26.1962L15.5506 25.6922L15.3076 26.5292Z" fill="#E6F4FF"/>
<path d="M13.1024 28.9157L12.3554 27.5207C12.0764 26.9986 11.4284 26.8006 10.8974 27.0796L10.1504 27.4846L10.5914 28.2767L11.4734 27.7997L12.3284 29.3477L13.1024 28.9157Z" fill="#E6F4FF"/>
<path d="M10.834 25.298L11.545 26.6751C11.815 27.2061 12.463 27.4131 12.994 27.1341L13.75 26.7471L13.327 25.946L12.436 26.405L11.617 24.875L10.834 25.298Z" fill="#E6F4FF"/>
<path d="M10.2942 24.3525L10.2221 25.2525L9.37615 25.1715C9.16915 25.1535 8.98015 25.0725 8.82715 24.9555V22.4805L9.43915 22.5255L9.29515 24.2535L10.2942 24.3525Z" fill="#E6F4FF"/>
<path d="M20.9508 29.7891V29.8251H20.0508V29.7981L20.9508 29.7891Z" fill="#E6F4FF"/>
<path d="M9.44871 28.8867V29.7237C9.1247 29.5707 8.8907 29.2647 8.8457 28.8957L9.44871 28.8867Z" fill="#E6F4FF"/>
<path d="M12.9496 14.6758L11.3746 14.6938C10.7806 14.7028 10.3036 15.1888 10.3126 15.7828L10.3216 16.6288L11.2216 16.6018L11.2126 15.5938L12.9766 15.5488L12.9496 14.6758Z" fill="#E6F4FF"/>
<path d="M8.82736 14.1444L10.4204 14.1264V13.1184L11.3204 13.1094V13.9554C11.3204 14.3064 11.1494 14.6124 10.8884 14.8104C10.8434 14.8464 10.7894 14.8824 10.7354 14.9094C10.5914 14.9904 10.4204 15.0264 10.2404 15.0264L8.81836 15.0174V14.1444H8.82736Z" fill="#E6F4FF"/>
<path d="M31.102 15.0977L29.527 15.1157C28.933 15.1247 28.456 15.6107 28.465 16.2047L28.474 17.0507L29.374 17.0237L29.365 16.0157L31.129 15.9707L31.102 15.0977Z" fill="#E6F4FF"/>
<path d="M26.8449 15.451L28.3929 15.46C28.9869 15.46 29.4729 14.983 29.4729 14.389V13.543L28.5729 13.552V14.56L26.8359 14.578L26.8449 15.451Z" fill="#E6F4FF"/>
<path d="M34.1621 12.4785L33.2801 12.4965L33.2891 13.5045L32.3801 13.5315L32.3711 12.6855C32.3711 12.3345 32.5331 12.0195 32.7941 11.8215C32.8391 11.7855 32.8931 11.7495 32.9561 11.7225C33.1001 11.6505 33.2621 11.6055 33.4331 11.6055H33.7841L34.1621 12.4785Z" fill="#E6F4FF"/>
<path d="M33.2712 11.3461C33.1992 11.4901 33.0912 11.6161 32.9562 11.7151C32.9022 11.7511 32.8572 11.7871 32.7942 11.8141C32.6502 11.8861 32.4792 11.9311 32.2992 11.9311L30.7512 11.9221L30.7422 11.3281H33.0732C33.1452 11.3281 33.2082 11.3371 33.2712 11.3461Z" fill="#E6F4FF"/>
<path d="M66.7693 36.2033L70.5943 31.7933C72.0343 30.1373 71.8543 27.6353 70.1983 26.1953L67.8403 24.1523L65.6804 26.7083L68.4883 29.1383L64.2764 34.1243L66.7693 36.2033Z" fill="#0E81FF"/>
<path d="M76.2731 23.6016L72.4391 27.8676C70.9721 29.4966 71.1071 32.0076 72.7451 33.4746L75.0761 35.5626L77.2721 33.0426L74.5091 30.5676L78.7301 25.7346L76.2731 23.6016Z" fill="#0E81FF"/>
<path d="M74.5987 13.7016L79.6027 12.5586C79.4407 12.9996 79.1977 13.4136 78.8737 13.7916L75.0487 18.2016L72.5557 16.1226L74.5987 13.7016Z" fill="#0E81FF"/>
<path d="M79.8367 11.5078C79.8187 11.7328 79.7827 11.9668 79.7197 12.1828C79.7377 11.9578 79.7737 11.7328 79.8367 11.5078Z" fill="#0E81FF"/>
<path d="M79.8367 11.5078C79.8187 11.7328 79.7827 11.9668 79.7197 12.1828C79.7377 11.9578 79.7737 11.7328 79.8367 11.5078Z" fill="#0E81FF"/>
<path d="M85.5519 15.0273L83.3559 17.5473L81.0249 15.4593C80.1609 14.6853 79.7109 13.6143 79.7109 12.5343L83.5719 11.6523L82.7889 12.5523L85.5519 15.0273Z" fill="#0E81FF"/>
<path d="M100.015 20.2631L103.84 15.8531C105.28 14.1971 105.1 11.6951 103.444 10.2551L101.077 8.20312L98.9264 10.7591L101.734 13.1891L97.5225 18.1751L100.015 20.2631Z" fill="#0E81FF"/>
<path d="M109.528 7.65625L105.694 11.9223C104.227 13.5513 104.362 16.0623 106 17.5293L108.331 19.6173L110.527 17.0973L107.764 14.6223L111.985 9.78925L109.528 7.65625Z" fill="#0E81FF"/>
<path d="M86.6775 55.9747L88.0815 55.9837L88.2255 50.1517C88.2435 49.5217 88.1085 48.9187 87.8565 48.3787C87.7575 48.1717 87.6405 47.9647 87.5055 47.7757C86.8035 46.7767 85.6605 46.1197 84.3555 46.0837L81.2235 46.0117L81.1875 49.3507L84.9045 49.4407L84.8325 55.2457L86.6775 55.9747Z" fill="#0E81FF"/>
<path d="M87.388 40.207L87.145 45.931C87.055 48.118 88.756 49.972 90.9431 50.062L94.0661 50.188L94.1561 46.849L90.4481 46.696L90.6281 40.279L87.388 40.207Z" fill="#0E81FF"/>
<path d="M69.9823 47.985L68.4883 48.75L60.8293 45.708L59.2363 42.621L62.0893 41.082L65.1043 46.743L68.4073 45.033L69.9823 47.985Z" fill="#0E81FF"/>
<path d="M114.163 4.65934L118.024 3.77734L117.277 5.88334L114.109 4.81234L114.163 4.65934Z" fill="#0E81FF"/>
<path d="M125.512 2.06641L124.693 4.49641L120.751 3.14641L125.512 2.06641Z" fill="#0E81FF"/>
<path d="M51.1991 41.8922L46.4291 40.0022L45.6641 38.6342L47.0861 35.5472C46.9961 35.4932 46.9061 35.4302 46.8161 35.3672C46.9151 35.4122 47.0051 35.4662 47.1041 35.5202C47.2121 35.5832 47.3111 35.6462 47.4101 35.7182C47.8961 36.0602 48.3101 36.5192 48.6071 37.0772L51.1991 41.8922Z" fill="#0E81FF"/>
<path d="M53.7102 34.2125L50.9292 35.6525C49.7862 36.2464 48.4902 36.2194 47.4102 35.7155C47.3022 35.6615 47.1942 35.6075 47.0952 35.5445C47.0052 35.4905 46.9152 35.4275 46.8252 35.3645C46.9242 35.4095 47.0142 35.4635 47.1132 35.5175L48.5442 32.4035L48.8502 32.9705L52.1532 31.2695L53.7102 34.2125Z" fill="#0E81FF"/>
<path d="M109.681 44.9516L106.918 39.8036C105.883 37.8686 103.48 37.1486 101.545 38.1836L98.791 39.6686L100.42 42.5846L103.687 40.8296L106.846 46.5356L109.681 44.9516Z" fill="#0E81FF"/>
<path d="M101.266 31.5859L103.894 36.68C104.902 38.624 107.296 39.389 109.24 38.39L112.021 36.95L110.446 34.0069L107.143 35.7079L104.128 30.0469L101.266 31.5859Z" fill="#0E81FF"/>
<path d="M115.45 56.75C115.657 56.849 115.855 56.966 116.044 57.092C115.837 56.993 115.639 56.876 115.45 56.75Z" fill="#0E81FF"/>
<path d="M120.004 63.5996L119.338 63.9686C119.464 63.6356 119.563 63.2846 119.644 62.9336L120.004 63.5996Z" fill="#0E81FF"/>
<path d="M116.044 57.092C115.837 56.993 115.639 56.876 115.45 56.75C115.657 56.84 115.855 56.957 116.044 57.092Z" fill="#0E81FF"/>
<path d="M122.344 55.5971L119.563 57.0371C119.437 57.1001 119.302 57.1631 119.176 57.2171C118.744 56.1911 118.123 55.2551 117.367 54.4541C116.053 53.0681 114.316 52.0871 112.354 51.7181L111.589 50.2421L114.442 48.7031L117.457 54.3641L120.76 52.6631L122.344 55.5971Z" fill="#0E81FF"/>
<path d="M128.995 55.3447L130.597 49.7288C131.2 47.6228 129.976 45.4268 127.87 44.8238L124.864 43.9688L124 47.1997L127.573 48.2167L125.872 54.5167L128.995 55.3447Z" fill="#0E81FF"/>
<path d="M133.891 40.3613L132.271 39.9023L130.606 45.3833C130.417 46.0133 130.39 46.6523 130.507 47.2644C130.552 47.4894 130.615 47.7053 130.687 47.9213C131.11 49.0373 132.019 49.9553 133.252 50.3333L133.891 50.5223V47.0304L133.612 46.9494L133.891 45.9773V40.3613Z" fill="#0E81FF"/>
<path d="M133.325 31.5957C133.514 31.4967 133.703 31.4158 133.892 31.3438V35.0878L132.191 36.0058L130.562 33.0808L133.325 31.5957Z" fill="#0E81FF"/>
<path d="M133.045 24.9981L133.891 24.5391V26.6361L133.045 24.9981Z" fill="#0E81FF"/>
<path d="M132.055 73.7055L129.157 72.6165L130.957 71.6445L132.055 73.7055Z" fill="#0E81FF"/>
<path d="M133.891 63.5742V69.6852L131.119 68.8932L132.019 65.8962C132.334 64.8702 133.027 64.0602 133.891 63.5742Z" fill="#0E81FF"/>
<path d="M128.095 58.3164L133.891 60.0804V63.3564C133.468 63.3654 133.045 63.3024 132.622 63.1674L127.159 61.4214L128.095 58.3164Z" fill="#0E81FF"/>
<path d="M83.9685 27.7149L89.7105 26.6349C91.8614 26.2299 93.2834 24.1599 92.8784 21.9999L92.3024 18.9219L89.0265 19.5879L89.7105 23.2419L83.3115 24.5289L83.9685 27.7149Z" fill="#0E81FF"/>
<path d="M99.2502 23.7461L93.5982 24.7091C91.4382 25.0781 89.9892 27.1301 90.3582 29.2901L90.8892 32.3771L94.1742 31.7651L93.5442 28.1021L99.8532 26.9411L99.2502 23.7461Z" fill="#0E81FF"/>
<path d="M63.1245 19.7344L57.2835 19.8064C55.0965 19.8334 53.3415 21.6334 53.3595 23.8204L53.3955 26.9524L56.7345 26.8624L56.6895 23.1454L63.2145 22.9834L63.1245 19.7344Z" fill="#0E81FF"/>
<path d="M57.0487 17.7188C56.8777 18.7448 56.3197 19.6448 55.5277 20.2478C55.3477 20.3828 55.1497 20.5088 54.9427 20.6168C54.5827 20.8058 54.1777 20.9318 53.7637 21.0038L55.0597 18.1868L57.0487 17.7188Z" fill="#0E81FF"/>
<path d="M130.21 21.3086L124.369 21.3806C122.182 21.4076 120.427 23.2076 120.445 25.3946L120.481 28.5266L123.82 28.4366L123.775 24.7196L130.3 24.5576L130.21 21.3086Z" fill="#0E81FF"/>
<path d="M114.469 22.5872L120.202 22.6142C122.389 22.6232 124.18 20.8592 124.189 18.6632L124.198 15.5312L120.859 15.5673L120.841 19.2842L114.424 19.3382L114.469 22.5872Z" fill="#0E81FF"/>
<path d="M128.896 6.32234L133.891 6.27734V9.58935L128.95 9.56235L128.896 6.32234Z" fill="#0E81FF"/>
</svg>
