<svg width="100" height="110" viewBox="0 0 100 110" fill="none" xmlns="http://www.w3.org/2000/svg">
<path d="M83.4628 45.6908H77.1284H28.8804H14.739V30.025V16.335H28.1996H70.2908H83.4628V29.5366V45.6908Z" fill="#BEEA34"/>
<path d="M83.4629 29.5366L99.5727 45.6908H83.4629V29.5366Z" fill="#839905"/>
<path d="M99.5727 45.6908V102.848C99.5727 104.758 98.7587 106.482 97.4489 107.681C97.3897 107.732 97.3379 107.784 97.2787 107.829L94.6369 105.734L86.7781 99.511L85.2611 98.3122L84.6617 97.8386L82.5749 96.1884L80.1773 94.2866L74.6199 89.891L73.0289 88.6256L69.9357 86.1762L67.5307 84.267L60.3453 78.5764L60.0419 78.3322L57.7035 76.4822L58.6359 75.794L60.9003 74.129L75.1823 63.621L76.8547 62.3926L82.6489 58.1302L87.4515 54.6004L89.7677 52.8984L99.5727 45.6908Z" fill="#DCF995"/>
<path d="M99.5726 45.6908L82.6562 58.1376L77.1284 45.6908H83.4628H99.5726Z" fill="#A2C60C"/>
<path d="M85.2685 98.3123L97.2861 107.829C96.1391 108.813 94.6443 109.405 93.0163 109.405H68.9958L85.2685 98.3123Z" fill="#BEEA34"/>
<path d="M85.2684 98.3122L82.3528 100.295L82.1012 100.466L80.5102 101.553L78.8896 102.663L71.8078 107.488L70.5276 108.361L68.9958 109.405H38.3376L38.3672 109.346L43.1698 101.235L43.6508 100.421L45.3602 97.5204L45.4342 97.402L47.0252 94.7084L47.9428 93.1618L49.6152 90.3276L51.4578 87.2196L52.2718 87.3084L52.3384 87.3158L54.0922 87.5156L61.2332 88.3222L62.8538 88.5072L66.4058 88.9068L68.241 89.114L74.5458 89.8244L80.155 94.2644L81.4722 95.3078L82.3454 96.0034L82.9448 96.4696L85.2684 98.3122Z" fill="#839905"/>
<path d="M77.1285 45.6908L82.6563 58.1376L76.7733 62.4667L25.9279 53.7494L28.8805 45.6908H77.1285Z" fill="#DCF995"/>
<path d="M76.7733 62.4665L57.7035 76.4895L55.8091 74.9873C52.3903 72.2789 47.5729 72.2493 44.1171 74.8985L41.6307 76.8077L22.7089 62.5183L25.9205 53.7419L76.7733 62.4665Z" fill="#BEEA34"/>
<path d="M57.7035 76.4896L74.5459 89.8244L51.4579 87.2196L31.0857 84.9182L41.6381 76.8152L44.1245 74.906C47.5803 72.2494 52.3977 72.2864 55.8165 74.9948L57.7035 76.4896Z" fill="#A2C60C"/>
<path d="M57.4815 3.49598L70.2909 16.335H28.1997L40.7797 3.55518C45.3603 -1.09942 52.8639 -1.12901 57.4815 3.49598Z" fill="#839905"/>
<path d="M51.4579 87.2196L38.3377 109.405H17.9433C13.1777 109.405 8.85609 107.503 5.69629 104.417L31.0857 84.9182L51.4579 87.2196Z" fill="#BEEA34"/>
<path d="M41.638 76.8152L39.8028 78.2286L39.7954 78.236L36.5468 80.7372L32.3658 83.9488L29.3984 86.228L28.3994 86.9902L26.1498 88.7144L15.479 96.9136L13.2738 98.6082L7.76082 102.841L5.70362 104.417C5.43722 104.158 5.18562 103.892 4.94142 103.618C3.15061 101.635 1.81121 99.2372 1.07121 96.588C0.797413 95.6038 0.605015 94.5826 0.508814 93.5392C0.457014 92.999 0.434814 92.444 0.434814 91.889V45.6908L1.21921 46.2828L22.7236 62.5258L39.8916 75.498L41.638 76.8152Z" fill="#DCF995"/>
<path d="M28.8804 45.6908L25.9278 53.7494L22.7162 62.5258L0.420044 45.6908H14.739H28.8804Z" fill="#A2C60C"/>
<path d="M14.739 45.6908H0.420044L14.739 30.025V45.6908Z" fill="#839905"/>
<path d="M52.2644 87.5304C52.257 87.634 52.2422 87.745 52.2126 87.8486C52.146 88.1224 52.0128 88.374 51.8204 88.6034L50.0222 90.668L49.6152 90.3276L51.4504 87.2196L52.2644 87.3158C52.2718 87.3824 52.2718 87.4564 52.2644 87.5304Z" fill="#A2C60C"/>
<path d="M54.0923 87.5155L53.6557 88.0187L54.9507 89.1805L53.9221 90.3571L52.8269 89.3803C52.3755 88.9807 52.1683 88.4035 52.2127 87.8485C52.2201 87.7449 52.2349 87.6413 52.2645 87.5377C52.2867 87.4637 52.3089 87.3971 52.3311 87.3231L54.0923 87.5155Z" fill="#A2C60C"/>
<path d="M60.0123 99.9327L60.0789 97.1947C60.1011 96.1661 59.2945 95.3151 58.2659 95.2855L56.8007 95.2485L56.7859 96.8173L58.5249 96.8617L58.4879 99.9179L60.0123 99.9327Z" fill="#A2C60C"/>
<path d="M59.6866 92.5402L59.5756 95.2264C59.5312 96.255 60.3304 97.1208 61.359 97.1652L62.8242 97.2244L62.8686 95.663L61.1296 95.589L61.211 92.5846L59.6866 92.5402Z" fill="#A2C60C"/>
<path d="M50.4367 99.9327L49.1417 97.5204C48.6533 96.6176 47.5285 96.2772 46.6257 96.7582L45.3307 97.4538L46.0929 98.8227L47.6247 98.0014L49.1047 100.673L50.4367 99.9327Z" fill="#A2C60C"/>
<path d="M46.4924 93.6723L47.7208 96.0625C48.1944 96.9727 49.3118 97.3353 50.2294 96.8617L51.5318 96.1883L50.7918 94.8045L49.2452 95.6037L47.8318 92.9471L46.4924 93.6723Z" fill="#A2C60C"/>
<path d="M66.7685 107.118L65.4735 104.706C64.9851 103.803 63.8603 103.463 62.9575 103.944L61.6625 104.639L62.4247 106.008L63.9565 105.187L65.4365 107.858L66.7685 107.118Z" fill="#A2C60C"/>
<path d="M62.8317 100.85L64.0601 103.241C64.5337 104.151 65.6511 104.513 66.5687 104.04L67.8711 103.366L67.1311 101.983L65.5845 102.782L64.1711 100.125L62.8317 100.85Z" fill="#A2C60C"/>
<path d="M70.1354 94.7676L68.8404 92.3552C68.352 91.4524 67.2272 91.112 66.3244 91.593L65.0294 92.2886L65.7916 93.6576L67.3234 92.8362L68.8034 95.5076L70.1354 94.7676Z" fill="#A2C60C"/>
<path d="M68.241 89.1139L68.944 90.4311L70.4907 89.6319L71.2307 91.0157L69.9283 91.6891C69.3954 91.9629 68.7886 91.9555 68.278 91.7187C68.1818 91.6743 68.0856 91.6151 67.9968 91.5559C67.76 91.3857 67.5602 91.1637 67.4196 90.8899L66.3984 88.9067L68.241 89.1139Z" fill="#A2C60C"/>
<path d="M74.975 103.507L73.68 101.095C73.1916 100.192 72.0668 99.8514 71.164 100.332L69.869 101.028L70.6312 102.397L72.163 101.576L73.643 104.247L74.975 103.507Z" fill="#A2C60C"/>
<path d="M71.0309 97.2392L72.2593 99.6294C72.7329 100.54 73.8503 100.902 74.7679 100.429L76.0703 99.7552L75.3303 98.3714L73.7837 99.1706L72.3703 96.514L71.0309 97.2392Z" fill="#A2C60C"/>
<path d="M79.193 99.6368L79.9404 97.0024C80.2216 96.0182 79.6518 94.9822 78.6602 94.701L77.2468 94.3014L76.8398 95.811L78.5122 96.2846L77.713 99.2372L79.193 99.6368Z" fill="#A2C60C"/>
<path d="M81.4722 95.3077L81.3612 95.6999L82.3528 96.0033L83.0262 96.2105L82.9522 96.4769L82.597 97.7127L81.191 97.2909C80.6138 97.1207 80.1846 96.6915 79.9848 96.1661C79.9478 96.0625 79.9182 95.9589 79.896 95.8479C79.8442 95.5667 79.859 95.2633 79.9478 94.9747L80.1624 94.2717L81.4722 95.3077Z" fill="#A2C60C"/>
<path d="M78.7638 101.028L80.5102 101.553L78.8896 102.663L78.3346 102.486L78.7638 101.028Z" fill="#A2C60C"/>
<path d="M82.3528 100.295L82.1012 100.466L82.1752 100.244L82.3528 100.295Z" fill="#A2C60C"/>
<path d="M71.8079 107.488L70.5277 108.361L69.9357 107.214L71.2751 106.497L71.8079 107.488Z" fill="#A2C60C"/>
<path d="M62.8687 88.5811L61.3295 88.8623L61.2333 88.3221L62.8539 88.5071L62.8687 88.5811Z" fill="#A2C60C"/>
<path d="M59.62 105.128L57.0004 104.336C56.0162 104.04 54.9803 104.595 54.6843 105.579L54.2625 106.985L55.7721 107.414L56.2753 105.749L59.213 106.593L59.62 105.128Z" fill="#A2C60C"/>
<path d="M52.405 103.485L54.9654 104.306C55.9422 104.617 56.993 104.077 57.3038 103.1L57.7478 101.701L56.253 101.25L55.7276 102.908L52.849 102.034L52.405 103.485Z" fill="#A2C60C"/>
<path d="M48.5793 107.607L47.2843 105.194C46.7959 104.291 45.6711 103.951 44.7683 104.432L43.4733 105.127L44.2355 106.497L45.7673 105.675L47.2473 108.347L48.5793 107.607Z" fill="#A2C60C"/>
<path d="M44.6425 101.346L45.8709 103.736C46.3445 104.647 47.4619 105.009 48.3795 104.536L49.6819 103.862L48.9419 102.478L47.3953 103.278L45.9819 100.621L44.6425 101.346Z" fill="#A2C60C"/>
<path d="M43.6508 100.421L43.5768 101.272L43.1698 101.235L43.6508 100.421Z" fill="#A2C60C"/>
<path d="M62.1805 109.116V109.405H60.6117V109.131L62.1805 109.116Z" fill="#A2C60C"/>
<path d="M42.2448 107.569L42.2374 109.035C42.2374 109.161 42.2226 109.286 42.2004 109.405H38.3376L38.3746 109.346L40.676 109.323L40.6834 107.584L42.2448 107.569Z" fill="#A2C60C"/>
<path d="M1.21184 46.2828L0.420044 47.1856V45.6908L1.21184 46.2828Z" fill="#BEEA34"/>
<path d="M1.72244 50.4563L0.420044 51.9511V49.2946L1.72244 50.4563Z" fill="#BEEA34"/>
<path d="M3.97946 80.0712L3.85366 84.9922L1.11565 84.9774L1.18225 79.4792L0.420044 79.457V76.6376L0.716045 76.645C1.81865 76.6746 2.78805 77.2296 3.37265 78.0732C3.48365 78.2286 3.57985 78.3988 3.66125 78.5764C3.88326 79.0278 3.99426 79.5384 3.97946 80.0712Z" fill="#BEEA34"/>
<path d="M3.27647 71.6943L3.06927 76.5265C2.99527 78.3765 4.43086 79.9305 6.27346 80.0119L8.90786 80.1155L8.98186 77.2961L5.85166 77.1703L6.00706 71.7609L3.27647 71.6943Z" fill="#BEEA34"/>
<path d="M16.0192 97.9201L13.6882 93.5836C12.815 91.9556 10.7874 91.3414 9.15942 92.222L6.83582 93.4726L8.20482 95.9369L10.965 94.4568L13.629 99.2669L16.0192 97.9201Z" fill="#BEEA34"/>
<path d="M8.92261 86.6498L11.1352 90.9492C11.9862 92.592 13.999 93.2358 15.6418 92.3848L17.9876 91.1712L16.6556 88.6848L13.8732 90.1204L11.3276 85.3474L8.92261 86.6498Z" fill="#BEEA34"/>
<path d="M22.0724 75.6905L19.7414 71.354C18.8682 69.726 16.8406 69.1118 15.2126 69.9924L12.889 71.243L14.258 73.7073L17.0182 72.2272L19.6822 77.0373L22.0724 75.6905Z" fill="#BEEA34"/>
<path d="M14.9758 64.4202L17.1884 68.7196C18.0394 70.3624 20.0522 71.0062 21.695 70.1552L24.0408 68.9416L22.7088 66.4552L19.9264 67.8908L17.3808 63.1178L14.9758 64.4202Z" fill="#BEEA34"/>
<path d="M28.392 86.9829L26.1424 88.707L25.7206 87.9449L22.9604 89.4248L21.5914 86.9607L23.915 85.7101C24.8918 85.1847 26.0092 85.1995 26.9342 85.6361C27.1044 85.7175 27.2746 85.8137 27.43 85.9247C27.8148 86.2059 28.1478 86.5537 28.392 86.9829Z" fill="#BEEA34"/>
<path d="M29.3911 86.2206C28.7177 86.3242 28.0369 86.2206 27.4375 85.9394C27.2673 85.858 27.0971 85.7618 26.9417 85.6508C26.5199 85.3548 26.1573 84.9478 25.8983 84.452L23.6857 80.1526L26.0907 78.8502L28.6363 83.6232L31.4187 82.1876L32.3585 83.9414L29.3911 86.2206Z" fill="#BEEA34"/>
<path d="M36.5394 80.7299L37.1536 78.4507L34.1418 77.5923L34.8744 74.869L37.4126 75.5868C38.4782 75.8902 39.2774 76.6746 39.6326 77.644C39.6992 77.8217 39.751 78.0067 39.788 78.1917C39.788 78.2065 39.7954 78.2139 39.7954 78.2287L36.5394 80.7299Z" fill="#BEEA34"/>
<path d="M41.638 76.8152L39.8028 78.2286C39.7954 78.2212 39.7954 78.2064 39.788 78.199C39.7214 78.0214 39.6696 77.8438 39.64 77.6514C39.5438 77.1408 39.566 76.6006 39.7288 76.0678L39.899 75.5054L41.638 76.8152Z" fill="#BEEA34"/>
<path d="M0.420044 58.3596L5.22264 57.3902L4.64545 54.3118L7.40565 53.7494L7.89405 56.3394C8.10125 57.4272 7.75345 58.4854 7.05045 59.2402C6.91725 59.3808 6.77665 59.5139 6.62124 59.6323C6.22164 59.9357 5.74804 60.1503 5.22264 60.2465L0.420044 61.1493V58.3596Z" fill="#BEEA34"/>
<path d="M13.2739 57.8046L8.50826 58.6112C6.68786 58.922 5.45946 60.6536 5.77026 62.474L6.22166 65.0714L8.98926 64.5534L8.46386 61.4676L13.7845 60.4834L13.2739 57.8046Z" fill="#BEEA34"/>
<path d="M3.14322 94.3384L2.40322 96.9728L1.05642 96.588C0.782619 95.6038 0.590219 94.5826 0.494019 93.5392L3.14322 94.3384Z" fill="#BEEA34"/>
<path d="M7.75348 101.516V102.834L5.69628 104.41C5.42988 104.151 5.17828 103.884 4.93408 103.611L4.94148 101.539L7.75348 101.516Z" fill="#BEEA34"/>
<path d="M79.6223 66.6106C79.6075 66.803 79.5779 66.9954 79.5261 67.1804C79.4003 67.6614 79.1635 68.1276 78.8157 68.5346L75.5893 72.2494L73.4877 70.4956L77.0397 66.2924L74.6717 64.2426L75.1823 63.6357L76.8547 62.4073L78.4827 63.8207C79.3189 64.5385 79.7037 65.582 79.6223 66.6106Z" fill="#BEEA34"/>
<path d="M83.6035 61.6156L80.3697 65.212C79.1339 66.5884 79.2523 68.7048 80.6213 69.9406L82.5897 71.7017L84.4397 69.578L82.1087 67.4838L85.6681 63.4064L83.6035 61.6156Z" fill="#BEEA34"/>
<path d="M91.4252 54.3858L89.5752 56.5097L87.6068 54.7484C87.555 54.6966 87.5032 54.6522 87.4514 54.6004L89.7676 52.8984L91.4252 54.3858Z" fill="#BEEA34"/>
<path d="M93.5639 88.9291L93.6897 84.0081C93.7341 82.1581 92.2763 80.6263 90.4263 80.5819L87.7845 80.5153L87.7549 83.3347L90.8851 83.4087L90.8185 88.9069L93.5639 88.9291Z" fill="#BEEA34"/>
<path d="M92.9792 75.6239L92.772 80.4561C92.698 82.3061 94.1336 83.8601 95.9762 83.9415L98.6106 84.0451L98.6846 81.2257L95.5544 81.0999L95.7098 75.6905L92.9792 75.6239Z" fill="#BEEA34"/>
<path d="M76.3218 88.929L74.6198 89.8836L73.0288 88.6182L71.275 85.451L69.9356 86.1688L67.5306 84.2595L69.4694 83.2161C70.4462 82.6907 71.5636 82.6981 72.4886 83.1421C72.6662 83.2235 72.829 83.3197 72.9918 83.4381C73.3988 83.7267 73.7466 84.1115 73.9982 84.5852L76.3218 88.929Z" fill="#BEEA34"/>
<path d="M69.2327 77.6588L71.4453 81.9583C72.2963 83.6011 74.3091 84.2449 75.9519 83.3939L78.2977 82.1803L76.9657 79.6939L74.1833 81.1295L71.6377 76.3564L69.2327 77.6588Z" fill="#BEEA34"/>
<path d="M62.6023 77.3111L60.3379 78.5765L60.2121 78.6505L60.0419 78.3397H60.0345L58.6359 75.8015L60.8929 74.1365L62.6023 77.3111Z" fill="#BEEA34"/>
<path d="M98.8622 96.144C99.0916 96.0182 99.3358 95.922 99.58 95.8628V98.9634L97.915 99.8588L96.546 97.3946L98.8622 96.144Z" fill="#BEEA34"/>
<path d="M98.6255 90.5792L99.5727 90.0686V92.4144L98.6255 90.5792Z" fill="#BEEA34"/>
<path d="M90.0933 65.0862L94.9329 64.176C96.7459 63.8356 97.9447 62.0892 97.6043 60.2688L97.1159 57.6788L94.3557 58.2412L94.9329 61.3196L89.5383 62.4074L90.0933 65.0862Z" fill="#BEEA34"/>
<path d="M99.5727 65.1454L98.1667 65.4044L98.6995 68.4902L95.9319 69.0082L95.4805 66.4108C95.2955 65.3378 95.6433 64.3018 96.3315 63.5692C96.4647 63.4286 96.6053 63.2954 96.7607 63.177C97.1751 62.8662 97.6635 62.6442 98.2111 62.548L99.5727 62.3186V65.1454Z" fill="#BEEA34"/>
<path d="M92.8535 98.2678L92.1135 100.902L86.8225 99.3852L86.7855 99.511L85.2685 98.3122L84.6691 97.8386C85.0465 97.4094 85.5275 97.0912 86.0529 96.9062C86.2379 96.8396 86.4229 96.7878 86.6153 96.7582C87.1111 96.6768 87.6291 96.699 88.1397 96.8544L92.8535 98.2678Z" fill="#BEEA34"/>
<path d="M80.1772 94.2792L80.6508 92.6957L85.8308 94.2718L86.778 91.2897L89.4716 92.1037L88.6724 94.6196C88.3394 95.6556 87.555 96.4178 86.6078 96.7508C86.4302 96.8174 86.2378 96.8618 86.0528 96.8988C85.5422 96.9876 85.002 96.958 84.4692 96.7878L82.5748 96.181L80.1772 94.2792Z" fill="#BEEA34"/>
<path d="M97.4637 105.446L97.4563 107.673C97.3971 107.725 97.3453 107.777 97.2861 107.821L94.6443 105.727V105.468L97.4637 105.446Z" fill="#BEEA34"/>
<path d="M73.6652 26.8503H24.0038V28.3303H73.6652V26.8503Z" fill="#839905"/>
<path d="M73.6652 36.8552H24.0038V38.3352H73.6652V36.8552Z" fill="#839905"/>
</svg>
