<svg width="148" height="148" viewBox="0 0 148 148" fill="none" xmlns="http://www.w3.org/2000/svg">
<path d="M0 32C0 16.9151 0 9.37258 4.68629 4.68629C9.37258 0 16.9151 0 32 0H116C131.085 0 138.627 0 143.314 4.68629C148 9.37258 148 16.9151 148 32V116C148 131.085 148 138.627 143.314 143.314C138.627 148 131.085 148 116 148H32C16.9151 148 9.37258 148 4.68629 143.314C0 138.627 0 131.085 0 116V32Z" fill="#F8F5FF"/>
<path d="M125.837 58.0488V64.6629L109.928 71.4955L95.4904 77.699V70.893V70.6944L125.837 58.0488Z" fill="#E0D7FF"/>
<path d="M125.836 58.0483L122.537 59.4188L119.671 60.6171L113.435 63.2124L110.628 64.3843L106.122 66.2579L104.975 66.7413H104.968L103.71 67.2643L99.3798 69.0717L98.2648 69.5352L98.2 69.5617L97.1497 69.9986L95.4901 70.6938V70.5813L94.2259 70.4091H94.2195L92.7608 70.2039L88.9878 69.6875L91.5809 68.893L92.696 68.5487L93.837 68.1978L98.9455 66.6353L99.9698 66.3175L103.295 65.2979L103.49 65.2384L104.138 65.0397L105.785 64.5299L106.187 64.4108L106.453 64.3313L108.981 63.5501L111.036 62.9211L113.013 62.312H113.02L115.01 61.7029V56.8301L115.762 56.9095L125.836 58.0483Z" fill="#F8F5FF"/>
<path d="M116.034 73.0176V79.4661L105.085 83.1141L104.158 81.7503L112.248 74.2292L116.034 73.0176Z" fill="#6939FF"/>
<path d="M116.034 73.0169L112.248 74.2285L101.389 77.6977L92.2356 80.6307L89.0201 81.6569L84.6636 83.0539L83.6199 82.7957L84.6636 82.3455L89.0201 80.4784L95.49 77.6977L109.927 71.4941L116.034 73.0169Z" fill="#CFBEFF"/>
<path d="M115.01 59.7969V61.7036L106.453 64.332L111.944 58.625L115.01 59.7969Z" fill="#6939FF"/>
<path d="M115.01 56.8307V59.7968L111.944 58.6249L109.098 57.5325L115.01 55.7383V56.8307Z" fill="#8960FF"/>
<path d="M115.009 55.7382L109.097 57.5324L99.7746 60.3528L99.6709 60.2402L99.3727 60.4786L91.1719 62.9613L88.4231 63.7955L61.1951 54.659L82.8284 48.9453L115.009 55.7382Z" fill="white"/>
<path d="M112.248 74.2305L104.157 81.7516L103.509 80.8048L101.389 77.6997L112.248 74.2305Z" fill="#8960FF"/>
<path d="M111.943 58.6237L111.132 59.4645L108.617 62.0797L107.956 62.7616L106.452 64.3307L105.752 64.5426L104.137 65.0391L104.04 64.9266L104.021 64.9133L103.327 64.1652L101.778 62.5034L100.572 61.2057V61.1991L99.7744 60.3517L100.345 60.1795L101.453 59.8485L102.251 59.6035L105.22 58.7031L105.635 58.5773L109.097 57.5312L110.542 58.0874L111.405 58.4184L111.943 58.6237Z" fill="#021544"/>
<path d="M104.158 81.7511L105.085 83.1149L100.858 84.5185L90.7445 83.1878L92.2356 80.6322L101.389 77.6992L103.509 80.8043L104.158 81.7511Z" fill="#021544"/>
<path d="M105.085 83.1149L103.762 83.5519L102.79 83.8763L100.858 84.5185L94.7963 83.7241L93.5646 83.5585L92.6634 83.446L91.4641 83.2871L90.7445 83.1878L91.6327 81.665L92.1643 80.7514L92.2356 80.6322L101.389 77.6992L101.733 78.2024L102.329 79.0697L103.509 80.8043L104.158 81.7511L105.085 83.1149Z" fill="#021544"/>
<path d="M99.7751 60.3535L104.138 65.041L93.8368 68.199L92.618 65.8023L99.3731 60.4793L99.7751 60.3535Z" fill="#8960FF"/>
<path d="M100.858 84.5183L87.4964 88.9674L87.451 88.835L90.7444 83.1875L100.858 84.5183Z" fill="#6939FF"/>
<path d="M99.3738 60.4785L92.6187 65.8016L91.173 62.9613L99.3738 60.4785Z" fill="#F8F5FF"/>
<path d="M95.4895 70.8925V77.6985L89.0196 80.4792V73.6268L80.7798 72.8191L79.2563 72.6734L80.7928 72.2034L88.2286 69.9192L88.9871 69.6875L95.4895 70.5813V70.6938V70.8925Z" fill="#8960FF"/>
<path d="M92.6186 65.8012L93.8373 68.1979L88.9882 69.6876L88.2297 69.9193L88.2427 69.5816L88.4242 63.7951L91.1729 62.9609L92.6186 65.8012Z" fill="#6939FF"/>
<path d="M92.2362 80.6309L90.7451 83.1865L87.4517 88.8339L87.4971 88.9663L84.7094 89.8998L84.6641 89.7674V83.054L89.0206 81.6571L92.2362 80.6309Z" fill="#8960FF"/>
<path d="M89.0203 73.627V80.4794L84.6638 82.3464L83.6201 82.7966L78.2523 85.1072L78.0967 85.1536L77.9087 85.2529L72.1973 87.7025V87.7092L62.071 92.059V85.0344L68.4178 82.353V82.3464L78.3819 78.1356L89.0203 73.627Z" fill="#E0D7FF"/>
<path d="M89.0191 73.6272L84.4941 75.5472L82.2639 76.4873L79.7097 77.5665L78.7308 77.9836L78.3807 78.1359L71.8071 80.9166L70.7633 81.3536L68.4165 82.3467L62.0893 85.028L62.0698 85.0347L59.8397 84.4851L59.7749 84.4719L52.8512 82.7571L52.5205 82.6777H52.514L50.7442 82.2341H50.7377L50.1154 82.0818L48.0603 81.572L46.459 81.1814L46.3099 81.1417L45.9858 81.0622L45.3375 80.9034L40.78 79.7778L39.7363 79.5196L37.0978 78.8642L33.0525 77.8645L32.0022 77.6062L30.3556 77.2024L32.4949 76.4476L35.3474 75.4413L37.759 74.5938L37.772 74.5872L40.1188 73.7596L40.3068 73.6934L46.0636 75.4876L47.2953 75.8782L49.1754 76.4609L49.2078 76.4675L50.822 76.9707L52.7085 77.5599L54.5951 78.1491L55.0229 78.2816L56.0407 78.5993L57.9791 79.2018L59.6971 78.6722L60.8316 78.3279L61.5317 78.1094H61.5382L62.1022 77.9373L64.0082 77.348L64.3907 77.2355L64.8315 77.0965L71.0486 75.1897H71.0551L72.4748 74.7527L73.1037 74.5607L74.4845 74.137L76.384 73.5544L77.4601 73.2233L78.089 73.0313L78.5428 72.8923L79.2559 72.6738L80.2024 72.7665H80.2089L80.7794 72.8195L82.7372 73.0115L83.1521 73.0512L89.0191 73.6272Z" fill="white"/>
<path d="M88.4226 63.7948L88.4032 64.5628L88.2411 69.5812L88.2281 69.9189L84.8181 70.965L84.5524 71.051L80.7923 72.203V66.1054L75.8394 64.523L74.3224 64.0397L63.6581 60.6367L62.3031 60.1997L62.0309 60.1137L59.8785 59.4251L56.2222 58.2599L54.984 57.8692L53.0845 57.2601H53.078L52.5399 57.088L52.2936 57.0085L52.5399 56.9423L56.3583 55.936L61.1946 54.6582L62.6143 55.1349L63.9368 55.5785L69.1037 57.3131L70.5299 57.7898L72.5007 58.4519H72.5072L73.0842 58.6439L85.836 62.9208L86.3935 63.1128L87.8846 63.6094L88.4226 63.7948Z" fill="#CFBEFF"/>
<path d="M84.709 89.8943L84.2163 90.0598L83.7171 90.2253L81.9862 90.8013L81.111 91.0926L81.0526 91.1125L80.547 91.2846L77.9344 92.1519L77.9279 91.0727V90.4703L77.9214 88.8085L77.9149 88.0074V87.8551V87.1467L77.9084 85.2532L78.0965 85.1737L78.252 85.1075L78.9846 84.7897L79.5227 84.558L80.4821 84.1475L82.1223 83.4391L82.5956 83.2405L83.6199 82.7969L84.6636 83.0551V89.7685L84.709 89.8943Z" fill="#CFBEFF"/>
<path d="M80.7931 66.1055V72.2031L79.2566 72.6732L77.4609 73.2227L70.8743 69.3099L71.1854 69.0186V69.012L80.7931 66.1055Z" fill="#8960FF"/>
<path d="M80.7924 66.1066L71.1848 69.0131V69.0197L70.6532 69.1786L62.5626 71.6283L57.9792 73.0186L46.8546 69.748L32.8904 65.6432L26.6021 63.796L52.2937 57.0098L80.7924 66.1066Z" fill="white"/>
<path d="M77.9081 85.252L77.934 92.1507L74.2647 93.3755L69.0979 89.7673L72.1967 87.7082V87.7016L77.9081 85.252Z" fill="#6939FF"/>
<path d="M77.4609 73.2234L64.0089 77.3547L63.6913 76.0901L70.8743 69.3105L77.4609 73.2234Z" fill="#6939FF"/>
<path d="M74.265 93.3692L71.244 94.3756L70.7578 94.5411L69.0657 95.1039L68.6314 95.2495L68.5017 95.2892L67.8729 95.5011L66.7189 95.8851L66.6476 95.9116L64.3656 96.6663L63.471 96.9643L62.7125 97.2225L62.6996 97.1695L61.9411 96.9577L61.5002 96.8319L59.7563 96.3287L59.4062 96.2294L60.1972 95.7063L61.2474 95.0046L61.578 94.7861L62.0383 94.4749L62.4856 94.1836L63.0885 93.7731L63.4969 93.5017L63.5488 93.4685L63.9896 93.1772L65.0528 92.4688L65.928 91.8862L66.9653 91.191L68.035 90.476L69.0981 89.7676L69.8113 90.2708L69.9993 90.3965L70.2456 90.5687L70.6346 90.8401L72.4692 92.1179L72.8193 92.3629L74.265 93.3692Z" fill="#021544"/>
<path d="M72.1967 87.709L69.0979 89.768L59.406 96.2298L54.4207 94.8064L56.9684 91.9131L59.0235 91.2577L62.0704 92.0588L72.1967 87.709Z" fill="#8960FF"/>
<path d="M71.1859 69.0195L70.8747 69.3108L69.9865 70.1451L69.429 70.6747L68.5992 71.456L67.6138 72.3895L67.3934 72.5947L65.0595 74.7928L64.5085 75.3159L63.8343 75.9514L63.7435 76.0375L63.6916 76.0905L63.6722 76.011L63.5814 75.6469L63.5749 75.6403L63.4388 75.0907L63.1924 74.1307V74.1241L63.1665 74.0248L62.797 72.555L62.7192 72.2505L62.5636 71.6281L64.0547 71.1779L64.502 71.0389L64.6576 70.9925L64.9688 70.8998L66.6997 70.3768L67.0303 70.2709L67.6138 70.0987L67.8277 70.0325L68.7677 69.7478L68.8196 69.728H68.8261L69.3123 69.5823L69.617 69.4896L71.1859 69.0195Z" fill="#021544"/>
<path d="M63.6909 76.0893L64.0086 77.3539L57.9795 79.201V75.275V73.0173L62.5629 71.627L63.6909 76.0893Z" fill="#8960FF"/>
<path d="M62.6994 97.1702L62.7123 97.2232L49.6234 101.58V100.262L54.4207 94.8066L59.4061 96.2301L62.6994 97.1702Z" fill="#6939FF"/>
<path d="M62.0712 85.0354V92.0533L59.0242 91.2522L54.1556 89.9745L48.6776 88.5378L37.5918 85.6246L33.955 84.6713C32.9371 84.4064 32.0684 83.8172 31.4331 83.0293C30.8302 82.2812 30.4542 81.3543 30.3634 80.3546C30.3505 80.2155 30.344 80.0699 30.344 79.9308V77.2031L37.0862 78.8715L45.9742 81.0696L59.7633 84.4793L62.0712 85.0354Z" fill="#D0C7F9"/>
<path d="M59.0237 91.2581L56.9686 91.9135L49.6235 94.2638L45.3708 93.1383L31.8669 89.5632L22 86.9546L31.4391 83.0352C32.0679 83.823 32.9366 84.4123 33.9609 84.6771L37.5978 85.6305L48.6835 88.5436L54.1616 89.9803L59.0237 91.2581Z" fill="white"/>
<path d="M57.9801 75.2751V79.2012L46.0645 75.487L45.9608 74.2754L57.9801 75.2751Z" fill="#F8F5FF"/>
<path d="M57.98 73.0186V75.2763L45.9607 74.2766L45.5847 69.9268L46.8554 69.748L57.98 73.0186Z" fill="#6939FF"/>
<path d="M56.9685 91.9141L54.4207 94.8073L49.6234 100.263V98.0647V94.2644L56.9685 91.9141Z" fill="#021544"/>
<path d="M49.6232 100.262V101.579L37.8244 98.1561L35.7563 96.5473L41.5715 94.4883L43.0496 96.6665L49.6232 98.0635V100.262Z" fill="#8960FF"/>
<path d="M49.6241 94.2642V98.0645L43.0505 96.6675L41.5724 94.4893L45.3713 93.1387L49.6241 94.2642Z" fill="#6939FF"/>
<path d="M46.8546 69.7474L45.5839 69.9262L44.1512 70.1314L43.652 70.2042L39.4835 70.8001L38.4203 70.9524L37.1497 71.1311L36.6829 71.1973L35.6197 71.3496L34.1481 69.8202L33.8175 69.476L32.7414 68.3571L32.3005 67.9002L32.2616 67.8605L31.918 67.5096L31.166 66.7151L31.5809 66.4569L32.0023 66.1921L32.884 65.6426L34.8288 66.2186L35.5873 66.4437L35.717 66.4834L36.2162 66.6291L38.4398 67.2845L38.9325 67.4302L39.3215 67.5427L39.8142 67.6884L40.5338 67.9002L41.6294 68.2246L42.7898 68.5623L43.2047 68.6815L43.8206 68.8602L44.3976 69.0324L44.5272 69.0721L46.8546 69.7474Z" fill="#021544"/>
<path d="M40.3081 73.693L36.8527 72.6204L35.6274 71.3426L45.5851 69.9258L45.9611 74.2756L46.0649 75.4872L40.3081 73.693Z" fill="#8960FF"/>
<path d="M45.3704 93.1377L45.0657 93.2502L44.7286 93.3694L44.6897 93.3826L41.5715 94.4883L40.2036 94.9716L39.6655 95.1636L37.3511 95.9846L36.826 96.17H36.813L35.899 96.4944L35.7563 96.5473L28.8391 91.1713L31.0563 89.9928L31.0757 89.9796L31.8666 89.5625L34.6802 90.304L35.2831 90.4695L35.698 90.5755L36.3528 90.7476L38.9394 91.4362L38.9848 91.4494L42.4337 92.3631L42.9977 92.5087L44.9426 93.0251L45.3704 93.1377Z" fill="#021544"/>
<path d="M37.8243 98.1567L25.8504 94.6875C25.1697 94.4888 24.5538 94.1644 24.0222 93.7341L28.839 91.1719L35.7562 96.5479L37.8243 98.1567Z" fill="#6939FF"/>
<path d="M35.6263 71.3427L36.8515 72.6205L30.1288 70.5217C29.1564 70.2172 28.3266 69.6279 27.7172 68.8666L31.1661 66.7148L35.6263 71.3427Z" fill="#6939FF"/>
<path d="M32.8904 65.6429L31.166 66.7154L27.7171 68.8671C27.017 67.9866 26.6021 66.8611 26.6021 65.6627V63.7891L32.8904 65.6429Z" fill="#8960FF"/>
<path d="M31.8668 89.5636L28.8393 91.1725L24.0225 93.7347C22.7778 92.7349 22.0063 91.1857 22.0063 89.4908V86.9551L31.8668 89.5636Z" fill="#8960FF"/>
<path d="M100.605 61.0085C100.598 61.0747 100.585 61.1343 100.572 61.2005V61.2071L99.7815 60.3596L100.345 60.1875C100.54 60.4126 100.624 60.7105 100.605 61.0085Z" fill="#6939FF"/>
<path d="M101.427 61.2996L102.199 62.008L101.778 62.5046L100.572 61.2069V61.2003C100.578 61.1407 100.585 61.0745 100.604 61.0149C100.65 60.8428 100.727 60.6839 100.851 60.5382L101.453 59.8497L102.251 59.6113L102.607 59.9291L101.427 61.2996Z" fill="#6939FF"/>
<path d="M106.245 63.5045L107.314 62.2466C107.716 61.7765 107.665 61.0615 107.204 60.651L106.543 60.0684L105.94 60.7966L106.725 61.4852L105.545 62.9086L106.245 63.5045Z" fill="#6939FF"/>
<path d="M108.404 61.8878L108.611 62.0798L107.956 62.7617L107.911 62.722C107.645 62.477 107.515 62.1261 107.548 61.7885C107.554 61.7223 107.561 61.6627 107.58 61.5965C107.626 61.4243 107.703 61.2654 107.827 61.1264L108.896 59.9082L109.583 60.5107L108.404 61.8878Z" fill="#6939FF"/>
<path d="M105.636 58.5781L105.266 58.79L105.221 58.7039L105.636 58.5781Z" fill="#6939FF"/>
<path d="M111.405 58.4189L111.062 59.3988L110.18 59.0942L110.472 58.2534C110.491 58.1938 110.517 58.1409 110.543 58.0879L111.405 58.4189Z" fill="#6939FF"/>
<path d="M103.826 65.1129C103.872 65.0665 103.917 65.0202 103.969 64.9805C103.923 65.0268 103.878 65.0732 103.826 65.1129Z" fill="#6939FF"/>
<path d="M104.021 64.9145L103.32 64.1664L103.165 63.319L104.079 63.127L104.241 64.0075C104.306 64.3385 104.215 64.663 104.021 64.9145Z" fill="#6939FF"/>
<path d="M103.962 64.9805C103.917 65.0268 103.872 65.0732 103.82 65.1129C103.865 65.0665 103.917 65.0202 103.962 64.9805Z" fill="#6939FF"/>
<path d="M105.752 64.543L104.138 65.0395L104.041 64.9336C104.164 64.8541 104.3 64.8012 104.449 64.7747L105.752 64.543Z" fill="#6939FF"/>
<path d="M92.1646 80.75L92.8323 81.3459C93.137 81.6173 93.2797 82.0079 93.2473 82.3853C93.2473 82.3853 93.2473 82.3853 93.2473 82.3919C93.2408 82.4648 93.2278 82.531 93.2149 82.5972C93.1695 82.7759 93.0852 82.9481 92.9555 83.1003L92.6573 83.4512L91.4644 83.2923L92.3137 82.2661L91.6329 81.6637L92.1646 80.75Z" fill="#6939FF"/>
<path d="M94.1608 82.7036L95.0101 83.4782L94.8026 83.7232L93.5644 83.5577C93.3116 83.2928 93.1949 82.9353 93.2208 82.591C93.2273 82.5182 93.2403 82.452 93.2532 82.3792C93.2986 82.1938 93.3894 82.015 93.5255 81.8628L94.6989 80.5254L95.4509 81.1875L94.1608 82.7036Z" fill="#6939FF"/>
<path d="M101.733 78.2012L102.33 79.0685L101.979 79.4856L101.214 78.8301L101.733 78.2012Z" fill="#6939FF"/>
<path d="M103.762 83.5513L102.79 83.8757L102.362 83.0282L103.237 82.5449L103.762 83.5513Z" fill="#6939FF"/>
<path d="M97.0599 81.8159L98.8167 81.4783C99.478 81.3525 99.9124 80.7037 99.7892 80.0284L99.6141 79.0684L98.6093 79.2736L98.8167 80.419L96.8589 80.8228L97.0599 81.8159Z" fill="#6939FF"/>
<path d="M101.746 80.5723L100.015 80.8702C99.354 80.9827 98.9067 81.625 99.0234 82.3069L99.1855 83.2735L100.19 83.0815L99.9958 81.9361L101.928 81.572L101.746 80.5723Z" fill="#6939FF"/>
<path d="M78.4655 87.9807C78.4655 88.0138 78.459 88.0469 78.446 88.08C78.4266 88.1727 78.3812 88.2588 78.3164 88.3382L77.9209 88.8083V88.0072L77.9922 87.9211L77.9209 87.8549V87.1465L78.2645 87.451C78.4136 87.5901 78.4849 87.7887 78.4655 87.9807Z" fill="#E0D7FF"/>
<path d="M79.2049 87.0332L78.6085 87.7085C78.3816 87.9667 78.401 88.3706 78.6539 88.6023L79.0169 88.9333L79.3605 88.5295L78.9326 88.1322L79.5939 87.3642L79.2049 87.0332Z" fill="#E0D7FF"/>
<path d="M79.0096 86.1739L79.6061 85.4721C79.833 85.2073 79.8006 84.81 79.5477 84.5783L79.1782 84.2539L78.841 84.6578L79.2754 85.0484L78.6206 85.8429L79.0096 86.1739Z" fill="#E0D7FF"/>
<path d="M80.4945 84.166L79.898 84.8413C79.6711 85.0995 79.6906 85.5034 79.9434 85.7351L80.3065 86.0662L80.6501 85.6623L80.2222 85.265L80.8835 84.497L80.4945 84.166Z" fill="#E0D7FF"/>
<path d="M82.9003 86.504L83.4967 85.8022C83.7236 85.5374 83.6912 85.1401 83.4384 84.9084L83.0689 84.584L82.7318 84.9878L83.1661 85.3785L82.5114 86.173L82.9003 86.504Z" fill="#E0D7FF"/>
<path d="M84.3846 84.498L83.7882 85.1734C83.5613 85.4316 83.5807 85.8354 83.8335 86.0672L84.1966 86.3982L84.5402 85.9943L84.1123 85.5971L84.7736 84.8291L84.3846 84.498Z" fill="#E0D7FF"/>
<path d="M80.5471 91.2847V91.1523L79.9701 91.139L79.9766 90.6094L80.4628 90.6226C80.6702 90.6292 80.8453 90.7352 80.9555 90.8941C80.9749 90.9205 80.9944 90.9536 81.0074 90.9867C81.0268 91.0331 81.0398 91.0794 81.0527 91.1258L80.5471 91.2847Z" fill="#E0D7FF"/>
<path d="M81.1098 91.0926C81.0709 91.0595 81.0385 91.0198 81.0061 90.9734C80.9866 90.947 80.9672 90.9139 80.9542 90.8808C80.9153 90.7947 80.8959 90.6954 80.8959 90.5894L80.9348 89.6758L81.4405 89.689L81.4146 90.7086L81.9916 90.7351V90.8013L81.1098 91.0926Z" fill="#E0D7FF"/>
<path d="M78.2182 90.9134L77.9272 91.0723V90.4698L77.9725 90.4434L78.2182 90.9134Z" fill="#E0D7FF"/>
<path d="M82.7957 83.6242L82.3548 83.8758L82.1213 83.4389L82.5947 83.2402L82.7957 83.6242Z" fill="#E0D7FF"/>
<path d="M84.2158 90.06L83.7231 90.2256L83.4767 89.7753L82.9645 90.0534L82.7117 89.59L83.1396 89.3516C83.3211 89.2523 83.5286 89.2523 83.6971 89.3384C83.7296 89.3516 83.7555 89.3715 83.7814 89.3913C83.8592 89.4443 83.9241 89.5171 83.9694 89.6098L84.2158 90.06Z" fill="#E0D7FF"/>
<path d="M84.663 89.2191L84.3388 89.3913C84.1573 89.484 83.9563 89.484 83.7878 89.3979C83.7554 89.3847 83.7294 89.3648 83.7035 89.3449C83.6257 89.292 83.5544 89.2125 83.509 89.1198L83.1006 88.3055L83.5479 88.0605L84.0212 88.9609L84.5333 88.6895L84.6694 88.9543V89.2191H84.663Z" fill="#E0D7FF"/>
<path d="M80.4033 87.6899L81.2979 87.5178C81.6351 87.4516 81.8555 87.1206 81.7906 86.7829L81.6999 86.293L81.1877 86.3989L81.2979 86.9815L80.2996 87.1868L80.4033 87.6899Z" fill="#E0D7FF"/>
<path d="M82.7837 87.0605L81.902 87.2128C81.5649 87.2724 81.338 87.5968 81.3964 87.9411L81.4806 88.431L81.9928 88.3317L81.8955 87.7491L82.8809 87.5637L82.7837 87.0605Z" fill="#E0D7FF"/>
<path d="M65.9281 91.8867C65.9216 91.9927 65.8827 92.0853 65.8178 92.1648C65.7984 92.1847 65.7854 92.2045 65.7595 92.2244C65.7012 92.2773 65.6363 92.3105 65.5585 92.3303L65.0464 92.4693L65.9281 91.8867Z" fill="#8960FF"/>
<path d="M66.7188 91.8809L66.0251 92.053C65.7593 92.1192 65.5973 92.3907 65.6621 92.6621L65.7529 93.0461L66.1548 92.9402L66.0446 92.4833L66.8161 92.2781L66.7188 91.8809Z" fill="#8960FF"/>
<path d="M67.9314 90.8672C67.9184 90.887 67.899 90.9069 67.8795 90.9268C67.8212 90.9797 67.7563 91.0195 67.6785 91.0393L66.9784 91.2247L66.9719 91.1916L68.0416 90.4766C68.0545 90.6222 68.0156 90.7613 67.9314 90.8672Z" fill="#8960FF"/>
<path d="M68.8332 90.5898L68.1395 90.762C67.8737 90.8282 67.7117 91.0996 67.7765 91.3711L67.8672 91.7551L68.2692 91.6492L68.159 91.1923L68.9304 90.9871L68.8332 90.5898Z" fill="#8960FF"/>
<path d="M69.3905 93.23L70.0906 93.0446C70.3564 92.9718 70.512 92.7004 70.4407 92.4289L70.3435 92.0449L69.9415 92.1575L70.0582 92.6143L69.2803 92.8328L69.3905 93.23Z" fill="#8960FF"/>
<path d="M71.2442 92.5879L70.5505 92.76C70.2847 92.8262 70.1227 93.0977 70.1875 93.3691L70.2782 93.7531L70.6802 93.6472L70.57 93.1904L71.3414 92.9851L71.2442 92.5879Z" fill="#8960FF"/>
<path d="M65.6624 96.118L66.0838 95.5155C66.2459 95.2904 66.194 94.9727 65.9736 94.8138L65.6559 94.582L65.4161 94.9263L65.7921 95.2044L65.3253 95.8797L65.6624 96.118Z" fill="#8960FF"/>
<path d="M66.6995 94.416L66.2716 94.9986C66.1095 95.2237 66.1549 95.5349 66.3689 95.7004L66.6801 95.9388L66.9199 95.5945L66.5504 95.3098L67.0172 94.6477L66.6995 94.416Z" fill="#8960FF"/>
<path d="M63.6466 93.9191L63.5688 94.654L63.1669 94.6142L63.2447 93.7933L63.0956 93.7734L63.504 93.502C63.5364 93.5351 63.5623 93.5682 63.5818 93.6079C63.5947 93.6277 63.6077 93.6542 63.6142 93.6807C63.6401 93.7535 63.6531 93.833 63.6466 93.9191Z" fill="#8960FF"/>
<path d="M64.4113 93.561L64.3659 93.9847L63.977 93.9383C63.8149 93.9185 63.6852 93.8192 63.6074 93.6868C63.5945 93.6669 63.5815 93.6404 63.575 93.6139C63.5556 93.5676 63.5491 93.5212 63.5426 93.4749L63.9834 93.1836L63.951 93.508L64.4113 93.561Z" fill="#8960FF"/>
<path d="M69.811 90.2715L69.9986 90.3973L69.8046 90.3774L69.811 90.2715Z" fill="#8960FF"/>
<path d="M70.6347 90.8398L70.5894 91.2834L70.1874 91.2503L70.2457 90.5684L70.6347 90.8398Z" fill="#8960FF"/>
<path d="M73.3451 93.0914L72.9172 92.4955C72.7551 92.2704 72.4504 92.224 72.23 92.3829L71.9188 92.6147L72.1652 92.9523L72.5412 92.6742L73.0274 93.3363L73.3451 93.0914Z" fill="#8960FF"/>
<path d="M72.8191 92.3641C72.7932 92.3575 72.7738 92.3509 72.7479 92.3443C72.7221 92.3376 72.6962 92.3244 72.6768 92.3111C72.6057 92.278 72.5475 92.2251 72.5022 92.1522L72.4763 92.1191L72.8191 92.3641Z" fill="#8960FF"/>
<path d="M68.2882 95.2175C68.366 95.2241 68.4373 95.2506 68.5021 95.2969L67.8733 95.5088L67.8992 95.1777L68.2882 95.2175Z" fill="#8960FF"/>
<path d="M69.1246 94.5475L69.0662 95.1037L68.6318 95.2493C68.6318 95.2427 68.6318 95.2361 68.6318 95.2295L68.7226 94.5078L69.1246 94.5475Z" fill="#8960FF"/>
<path d="M67.2179 92.859L67.8792 93.157C68.1255 93.2695 68.4173 93.1503 68.5275 92.8988L68.6831 92.5346L68.3006 92.3691L68.1126 92.7995L67.367 92.4751L67.2179 92.859Z" fill="#8960FF"/>
<path d="M69.0661 93.5358L68.4178 93.2313C68.1715 93.1121 67.8797 93.2246 67.763 93.4762L67.601 93.8403L67.9835 94.0125L68.1779 93.5821L68.9041 93.9132L69.0661 93.5358Z" fill="#8960FF"/>
<path d="M64.3662 96.6673L63.4716 96.9653L63.3484 96.813L63.6531 96.5614C63.7828 96.4555 63.9448 96.429 64.094 96.4687C64.1199 96.4753 64.1393 96.482 64.1653 96.4952C64.2366 96.5283 64.2949 96.5746 64.3468 96.6409L64.3662 96.6673Z" fill="#8960FF"/>
<path d="M63.4642 95.7465L63.8986 96.3224C64.0671 96.5409 64.3783 96.5806 64.5922 96.4085L64.8969 96.1636L64.6376 95.8325L64.2746 96.1238L63.7754 95.4883L63.4642 95.7465Z" fill="#8960FF"/>
<path d="M61.5779 94.7871L61.6557 94.7937C61.8177 94.8136 61.9539 94.9129 62.0317 95.0453C62.0446 95.0652 62.0576 95.0917 62.0641 95.1115C62.09 95.1844 62.103 95.2638 62.0965 95.3432L62.0187 96.0781L61.6168 96.045L61.6946 95.2175L61.2343 95.1645L61.2472 94.999L61.5779 94.7871Z" fill="#8960FF"/>
<path d="M62.4859 94.1836L62.4016 94.9384L62.8619 94.9979L62.8165 95.4217L62.4276 95.3753C62.2655 95.3555 62.1358 95.2561 62.0645 95.1237C62.0516 95.1039 62.0386 95.0774 62.0321 95.0575C62.0062 94.9847 61.9932 94.8986 62.0062 94.8126L62.0451 94.4815L62.4859 94.1836Z" fill="#8960FF"/>
<path d="M60.8456 96.1448L60.6316 96.489L59.9509 96.0388L59.7629 96.3301L59.4128 96.2308L60.2038 95.7012C60.2167 95.7078 60.2362 95.721 60.2491 95.7276L60.8456 96.1448Z" fill="#8960FF"/>
<path d="M70.9333 94.1641L71.2445 94.3759L70.7583 94.5414L70.7064 94.5083L70.9333 94.1641Z" fill="#8960FF"/>
<path d="M61.9409 96.9581L61.5 96.8323L61.4806 96.7462L61.889 96.6602L61.9409 96.9581Z" fill="#8960FF"/>
<path d="M67.0428 70.2847L66.8424 70.5098L66.7001 70.3774L67.0299 70.2715L67.0428 70.2847Z" fill="#6939FF"/>
<path d="M67.5421 70.1782L67.9376 70.549C68.0867 70.688 68.3201 70.6748 68.4498 70.5225L68.6443 70.304L68.4109 70.0988L68.184 70.357L67.7366 69.9531L67.5421 70.1782Z" fill="#6939FF"/>
<path d="M68.6836 71.0972L68.3011 70.7265C68.152 70.5875 67.9251 70.5941 67.789 70.7463L67.5945 70.9582L67.8214 71.1701L68.0548 70.9185L68.4891 71.3223L68.6836 71.0972Z" fill="#6939FF"/>
<path d="M67.5036 72.2891L67.6136 72.3884L67.3937 72.5936L67.3031 72.5142L67.5036 72.2891Z" fill="#6939FF"/>
<path d="M64.0553 71.1777L64.0488 71.33L64.5869 71.3565C64.6453 71.3565 64.7036 71.3498 64.7555 71.3234C64.7749 71.3167 64.7879 71.3035 64.8073 71.2969C64.8981 71.2307 64.9629 71.1247 64.9694 71.0056L64.9759 70.9062L64.6647 70.9989V71.0519L64.5156 71.0453L64.0553 71.1777Z" fill="#6939FF"/>
<path d="M65.5002 71.2975L64.9751 71.2644C64.7741 71.2512 64.5991 71.4101 64.5861 71.6153L64.5667 71.9066L64.8713 71.9199L64.8908 71.569L65.4807 71.5955L65.5002 71.2975Z" fill="#6939FF"/>
<path d="M63.2506 72.2365C63.2441 72.2563 63.2311 72.2762 63.2181 72.2894C63.1857 72.3358 63.1404 72.3689 63.0885 72.402L62.7968 72.5543L62.719 72.2497L63.0042 72.0974L62.8486 71.7863L63.1209 71.6406L63.2506 71.9055C63.3024 72.0114 63.3024 72.1306 63.2506 72.2365Z" fill="#6939FF"/>
<path d="M63.8541 71.8867L63.3809 72.1251C63.1994 72.2178 63.128 72.4362 63.2123 72.6216L63.342 72.8864L63.6142 72.7474L63.4651 72.4362L63.9902 72.1648L63.8541 71.8867Z" fill="#6939FF"/>
<path d="M65.0202 73.3762L65.4999 73.1247C65.6815 73.032 65.7528 72.8069 65.662 72.6215L65.5324 72.3633L65.2601 72.5089L65.4157 72.8201L64.884 73.1048L65.0202 73.3762Z" fill="#6939FF"/>
<path d="M66.2651 72.6133L65.7919 72.8516C65.6104 72.9443 65.5391 73.1628 65.6233 73.3482L65.753 73.613L66.0253 73.474L65.8762 73.1628L66.4013 72.8914L66.2651 72.6133Z" fill="#6939FF"/>
<path d="M63.2889 74.3098L63.7686 74.0583C63.9501 73.9656 64.0215 73.7405 63.9307 73.5551L63.801 73.2969L63.5287 73.4425L63.6843 73.7537L63.1527 74.0384L63.2889 74.3098Z" fill="#6939FF"/>
<path d="M64.528 73.541L64.0547 73.7794C63.8732 73.8721 63.8019 74.0905 63.8862 74.2759L64.0158 74.5407L64.2881 74.4017L64.139 74.0905L64.6641 73.8191L64.528 73.541Z" fill="#6939FF"/>
<path d="M65.0588 74.7923L64.5078 75.3154L64.0281 75.1631L64.1123 74.8718L64.6828 75.0439L64.7865 74.7129L65.0588 74.7923Z" fill="#6939FF"/>
<path d="M63.7558 75.0778L63.5748 75.6406L63.439 75.0911L63.4713 74.9785L63.7558 75.0778Z" fill="#6939FF"/>
<path d="M63.8986 75.759L63.834 75.951L63.8016 76.057L63.7434 76.0371L63.6723 76.0106L63.5818 75.6465L63.8986 75.759Z" fill="#6939FF"/>
<path d="M66.6482 70.9983L66.7389 71.5412C66.7714 71.7464 66.9594 71.8788 67.1603 71.8457L67.4455 71.7994L67.3937 71.4882L67.0566 71.5478L66.9529 70.9453L66.6482 70.9983Z" fill="#6939FF"/>
<path d="M66.9845 72.4355L66.9067 71.9059C66.8743 71.7006 66.6928 71.5616 66.4918 71.5947L66.2065 71.6411L66.2584 71.9522L66.5955 71.8993L66.6928 72.4951L66.9845 72.4355Z" fill="#6939FF"/>
<path d="M69.4096 70.6535L69.4161 70.1039C69.4161 69.8987 69.254 69.7332 69.053 69.7266H68.7678V70.0377H69.1114V70.6468L69.4096 70.6535Z" fill="#6939FF"/>
<path d="M69.9539 69.787V70.0981L69.6686 70.0915C69.5519 70.0915 69.4417 70.0253 69.3833 69.9326C69.3768 69.9128 69.3639 69.8995 69.3574 69.8863C69.3314 69.8333 69.3185 69.7737 69.3185 69.7075L69.325 69.5751L69.6297 69.4824V69.7737L69.9539 69.787Z" fill="#6939FF"/>
<path d="M33.332 94.2242L33.9803 93.4628C34.2267 93.1781 34.1943 92.7412 33.9155 92.4962L33.5136 92.1387L33.1505 92.5823L33.6238 93.006L32.9106 93.8667L33.332 94.2242Z" fill="#8960FF"/>
<path d="M34.9464 92.0391L34.2981 92.774C34.0518 93.0586 34.0712 93.489 34.35 93.7406L34.7454 94.1047L35.115 93.6678L34.6482 93.2374L35.3613 92.4032L34.9464 92.0391Z" fill="#8960FF"/>
<path d="M34.6797 90.3047L35.2826 90.4702L34.738 91.1058L34.3167 90.7417L34.6797 90.3047Z" fill="#8960FF"/>
<path d="M36.3525 90.7483L36.1451 90.9866L35.7496 90.6291C35.7302 90.6093 35.7172 90.596 35.6978 90.5762L36.3525 90.7483Z" fill="#8960FF"/>
<path d="M38.9392 91.4375L38.9857 91.4508L38.9724 91.464L38.9392 91.4375Z" fill="#8960FF"/>
<path d="M31.0759 89.9805L31.0627 89.9937H31.056L31.0759 89.9805Z" fill="#8960FF"/>
<path d="M36.8126 96.1696L35.8986 96.494H35.7819L35.7883 95.918L36.3199 95.9312C36.5144 95.9312 36.6959 96.0305 36.8126 96.1696Z" fill="#8960FF"/>
<path d="M37.3764 94.9273L37.3439 95.9866L36.8253 96.172C36.7929 96.0926 36.7799 95.9999 36.7864 95.9072L36.8253 94.9141L37.3764 94.9273Z" fill="#8960FF"/>
<path d="M40.203 94.9714L39.6649 95.1634L39.5871 95.0244L39.0361 95.3289L38.7573 94.8257L39.2241 94.5675C39.4186 94.4616 39.6455 94.4616 39.8335 94.5543C39.8659 94.5741 39.8983 94.5874 39.9307 94.6139C40.015 94.6735 40.0863 94.7529 40.1382 94.8522L40.203 94.9714Z" fill="#8960FF"/>
<path d="M39.179 93.423L39.6263 94.3036C39.7948 94.6413 40.2032 94.7737 40.5339 94.6016L41.0071 94.35L40.7413 93.8402L40.1838 94.1381L39.6717 93.1582L39.179 93.423Z" fill="#8960FF"/>
<path d="M45.3706 93.1379L45.0595 93.2505C45.04 93.224 45.0206 93.1975 45.0076 93.1644L44.9363 93.0254L45.3706 93.1379Z" fill="#8960FF"/>
<path d="M36.2486 92.7544L37.2211 92.569C37.5841 92.4962 37.824 92.1387 37.7591 91.7679L37.6619 91.2383L37.1044 91.3508L37.2211 91.9798L36.1384 92.2049L36.2486 92.7544Z" fill="#8960FF"/>
<path d="M38.8418 92.0664L37.8823 92.2319C37.5193 92.2981 37.273 92.649 37.3313 93.0264L37.4221 93.5627L37.9796 93.4567L37.8759 92.8212L38.9455 92.6225L38.8418 92.0664Z" fill="#8960FF"/>
<path d="M32.7156 91.3711L31.7237 91.3843C31.3542 91.391 31.056 91.7021 31.0625 92.0795L31.069 92.6224L31.633 92.6092L31.6265 91.967L32.7286 91.9405L32.7156 91.3711Z" fill="#8960FF"/>
<path d="M30.0512 91.5893L31.0236 91.5959C31.3931 91.5959 31.6978 91.2914 31.6978 90.914V90.3711L31.1338 90.3777V91.0199L30.0447 91.0265L30.0512 91.5893Z" fill="#8960FF"/>
<path d="M43.0041 92.8731L42.4401 92.8929L42.4336 92.3633L42.9976 92.5089L43.0041 92.8731Z" fill="#8960FF"/>
<path d="M34.4534 69.2824C34.4534 69.3155 34.4469 69.3486 34.4339 69.3817C34.4145 69.4678 34.3756 69.5473 34.3108 69.6135L34.1422 69.8121L33.8116 69.4678L34.0061 69.2295L33.6106 68.8786L33.9153 68.5078L34.2524 68.8057C34.4015 68.9315 34.4663 69.1103 34.4534 69.2824Z" fill="#8960FF"/>
<path d="M35.1213 68.4297L34.5767 69.0454C34.3693 69.2838 34.3887 69.6479 34.6221 69.8598L34.9528 70.1643L35.2639 69.8002L34.8685 69.4427L35.4714 68.7409L35.1213 68.4297Z" fill="#8960FF"/>
<path d="M35.6276 66.6756C35.6276 66.7087 35.6211 66.7418 35.6081 66.7749C35.5887 66.861 35.5498 66.9404 35.4914 67.0066L34.9469 67.6488L34.5903 67.3443L35.1868 66.6226L34.7848 66.2717L34.8302 66.2188L35.5887 66.4439C35.6276 66.5101 35.6406 66.5961 35.6276 66.6756Z" fill="#8960FF"/>
<path d="M36.4447 67.1838L36.1335 67.5479L35.8029 67.2434C35.6668 67.1176 35.6019 66.9454 35.6149 66.7667C35.6149 66.7336 35.6214 66.7005 35.6344 66.6674C35.6538 66.5945 35.6862 66.5283 35.7316 66.4688L36.2308 66.6144L36.0557 66.8196L36.4447 67.1838Z" fill="#8960FF"/>
<path d="M38.4475 67.2773L38.9467 67.4164L38.4994 67.946L38.1428 67.6415L38.4475 67.2773Z" fill="#8960FF"/>
<path d="M39.822 67.6808L39.6729 67.853L39.3423 67.5484C39.3358 67.5418 39.3358 67.5418 39.3293 67.5352L39.822 67.6808Z" fill="#8960FF"/>
<path d="M32.1848 66.3503L31.8736 66.7145L31.5884 66.4562L32.0098 66.1914L32.1848 66.3503Z" fill="#8960FF"/>
<path d="M37.164 70.8531L37.1576 71.1245L36.6908 71.1907L36.7038 70.8398L37.164 70.8531Z" fill="#8960FF"/>
<path d="M39.4853 70.7929L38.4221 70.9452L38.3184 70.7598L38.7073 70.5414C38.8694 70.4487 39.0639 70.4553 39.2195 70.5281C39.2454 70.5414 39.2713 70.5546 39.2973 70.5745C39.3686 70.6274 39.4269 70.6936 39.4723 70.7731L39.4853 70.7929Z" fill="#8960FF"/>
<path d="M38.675 69.5872L39.0511 70.3287C39.1937 70.6134 39.5308 70.7193 39.8096 70.5737L40.205 70.3618L39.9781 69.9315L39.5113 70.1764L39.0835 69.3555L38.675 69.5872Z" fill="#8960FF"/>
<path d="M44.1526 70.1304L43.6534 70.2032L43.5302 69.9781L43.0635 70.2363L42.8301 69.8126L43.2191 69.5941C43.3811 69.5014 43.5756 69.508 43.7312 69.5809C43.7571 69.5941 43.7831 69.6074 43.809 69.6272C43.8803 69.6802 43.9386 69.7464 43.984 69.8258L44.1526 70.1304Z" fill="#8960FF"/>
<path d="M44.7161 69.4087L44.3206 69.614C44.1586 69.7 43.9705 69.7 43.815 69.6206C43.789 69.6073 43.7631 69.5941 43.7372 69.5742C43.6659 69.5213 43.601 69.4551 43.5556 69.369L43.2056 68.6738L43.8214 68.8526L44.0159 69.2233L44.3984 69.0181L44.4827 68.9718L44.5281 69.0512L44.7161 69.4087Z" fill="#8960FF"/>
<path d="M36.2174 69.0251L37.0342 68.8662C37.3389 68.8066 37.5399 68.5087 37.4815 68.1975L37.3972 67.7539L36.9305 67.8532L37.0277 68.3829L36.1201 68.5682L36.2174 69.0251Z" fill="#8960FF"/>
<path d="M38.3888 68.4492L37.5849 68.5883C37.2802 68.6412 37.0728 68.9391 37.1246 69.2503L37.2024 69.7005L37.6692 69.6145L37.5784 69.0848L38.4731 68.9193L38.3888 68.4492Z" fill="#8960FF"/>
<path d="M33.2743 68.3373L32.7492 68.3505L32.3083 67.8937C32.3472 67.8804 32.3926 67.8804 32.4315 67.8804L33.2613 67.8672L33.2743 68.3373Z" fill="#8960FF"/>
<path d="M32.4056 67.0312V67.4881C32.4056 67.6271 32.3538 67.7595 32.2695 67.8588L31.9259 67.5079V67.0445L32.4056 67.0312Z" fill="#8960FF"/>
<path d="M41.8772 68.5878L41.8837 69.1241L41.4104 69.1373L41.4039 68.6805C41.4039 68.4885 41.4882 68.323 41.6243 68.217C41.6308 68.2104 41.6373 68.2104 41.6373 68.2038C41.6568 68.1905 41.6827 68.1773 41.7021 68.1641C41.6827 68.1773 41.6632 68.1905 41.6373 68.2038L42.7977 68.5414V68.5547L41.8772 68.5878Z" fill="#8960FF"/>
<path d="M41.7018 68.1714C41.6824 68.1847 41.6629 68.1979 41.637 68.2111C41.6305 68.2178 41.624 68.2178 41.6175 68.2244C41.5397 68.2641 41.4555 68.284 41.3582 68.284L40.5414 68.2773L40.5349 67.8867L41.6305 68.2111C41.6629 68.1979 41.6824 68.1847 41.7018 68.1714Z" fill="#8960FF"/>
<path d="M62.0322 60.1144L59.8734 59.4258L60.6189 58.5254L61.5525 59.353C61.7923 59.5648 61.9544 59.8297 62.0322 60.1144Z" fill="#8960FF"/>
<path d="M64.9237 59.1607L63.6595 60.6371L62.3046 60.2068C62.3435 60.1472 62.3888 60.081 62.4407 60.028L63.9512 58.3066L64.9237 59.1607Z" fill="#8960FF"/>
<path d="M62.6151 55.1348L63.9376 55.5784L63.4709 56.1213L62.4855 55.2804L62.6151 55.1348Z" fill="#8960FF"/>
<path d="M75.8397 64.5223L74.3228 64.039C74.6728 63.9529 75.0359 63.9993 75.3535 64.1516C75.4378 64.1913 75.5156 64.2376 75.5869 64.2906C75.6777 64.3568 75.7619 64.4363 75.8397 64.5223Z" fill="#8960FF"/>
<path d="M73.8245 61.5227L74.8617 63.5751C75.2572 64.363 76.2036 64.6676 76.9751 64.2637L78.0707 63.6811L77.4483 62.496L76.1453 63.1845L74.9525 60.9004L73.8245 61.5227Z" fill="#8960FF"/>
<path d="M79.6579 71.8129C79.5803 71.7731 79.5027 71.7268 79.425 71.6738C79.5091 71.7136 79.5867 71.7599 79.6579 71.8129Z" fill="#8960FF"/>
<path d="M79.6579 71.8129C79.5803 71.7731 79.5027 71.7268 79.425 71.6738C79.5091 71.7136 79.5867 71.7599 79.6579 71.8129Z" fill="#8960FF"/>
<path d="M82.1485 71.2093L81.0529 71.7919C80.9686 71.8383 80.8779 71.8714 80.7936 71.8978V70.4082L81.5261 70.0176L82.1485 71.2093Z" fill="#8960FF"/>
<path d="M84.7799 71.1096L85.4088 68.8454C85.6486 67.9979 85.1624 67.1107 84.3326 66.8658L83.1462 66.5215L82.8026 67.8258L84.2159 68.2362L83.5417 70.7786L84.7799 71.1096Z" fill="#8960FF"/>
<path d="M86.0703 64.8809L85.4156 67.0922C85.1627 67.9396 85.636 68.8334 86.4593 69.085L87.6457 69.4491L88.0087 68.1515L86.6019 67.7211L87.3021 65.2318L86.0703 64.8809Z" fill="#8960FF"/>
<path d="M85.8362 62.9199L86.3937 63.1119L86.0436 63.3039L85.8362 62.9199Z" fill="#8960FF"/>
<path d="M88.4236 63.7948L88.4041 64.5628L87.8855 63.6094L88.4236 63.7948Z" fill="#8960FF"/>
<path d="M70.1153 59.0471C70.057 59.1133 69.9922 59.1729 69.9209 59.2259C69.7329 59.3715 69.5124 59.4775 69.2661 59.5238L66.9971 59.9608L66.7378 58.6764L69.2661 58.1599L69.1105 57.3125L70.5367 57.7892C70.5821 58.2659 70.42 58.7227 70.1153 59.0471Z" fill="#8960FF"/>
<path d="M73.085 58.6445L70.803 58.7438C69.9473 58.8895 69.3768 59.7171 69.5194 60.591L69.7269 61.8357L71.0234 61.5907L70.7771 60.1143L73.273 59.6443L73.085 58.6445Z" fill="#8960FF"/>
<path d="M56.2233 58.1205V58.2661L54.9851 57.8689C55.0888 57.5577 55.2768 57.2863 55.5297 57.0943C55.601 57.0413 55.6723 56.995 55.7501 56.9552C55.9575 56.8427 56.1974 56.7831 56.4502 56.7765L58.7581 56.75L58.797 58.0609L56.2233 58.1205Z" fill="#8960FF"/>
<path d="M56.3592 55.9355C56.2943 56.3527 56.0674 56.7102 55.7563 56.9485C55.685 57.0015 55.6137 57.0478 55.5359 57.0942C55.3219 57.2067 55.0756 57.2729 54.8098 57.2729L53.0853 57.2663H53.0788H52.5408V57.0942V56.9485L56.3592 55.9355Z" fill="#8960FF"/>
<path d="M39.7359 79.5192L40.3324 78.2083L39.2627 77.6787L39.7165 76.6855L40.6176 77.1291C40.9936 77.3145 41.24 77.6654 41.3113 78.056C41.3242 78.1289 41.3307 78.2017 41.3307 78.2811C41.3307 78.4731 41.2918 78.6718 41.2011 78.8638L40.7732 79.7708L39.7359 79.5192Z" fill="#E0D7FF"/>
<path d="M42.2779 75.791L41.4481 77.4661C41.1304 78.1083 41.3833 78.8895 42.0121 79.2073L42.9067 79.6642L43.3735 78.6843L42.3103 78.1414L43.2114 76.2545L42.2779 75.791Z" fill="#E0D7FF"/>
<path d="M49.2278 76.7972C49.2278 76.9958 49.1889 77.1944 49.0982 77.3798L48.2878 79.1012L47.3413 78.6576L48.223 76.7244L47.1533 76.1947L47.3024 75.877L49.176 76.4596C49.1889 76.4993 49.1954 76.539 49.2019 76.5787C49.2149 76.6516 49.2214 76.7244 49.2278 76.7972Z" fill="#E0D7FF"/>
<path d="M51.2625 77.2009L50.7957 78.1808L49.9011 77.724C49.5315 77.532 49.2917 77.1877 49.2268 76.8037C49.2139 76.7309 49.2074 76.658 49.2074 76.5786C49.2074 76.5455 49.2074 76.5058 49.2139 76.4727L50.8281 76.9758L51.2625 77.2009Z" fill="#E0D7FF"/>
<path d="M33.4672 77.0037L33.0523 77.8644L32.0021 77.6062L32.5272 76.5469L33.4672 77.0037Z" fill="#E0D7FF"/>
<path d="M50.3744 81.8359L50.7375 82.2332L50.1151 82.0809L50.3744 81.8359Z" fill="#E0D7FF"/>
<path d="M52.8501 82.7568L52.5203 82.6773L52.6561 82.5449L52.8501 82.7568Z" fill="#E0D7FF"/>
<path d="M62.0893 84.6822L62.0828 85.0265L62.0633 85.0331L59.8397 84.4836C59.8397 84.4571 59.8397 84.4373 59.8397 84.4108L59.8916 82.5371L60.9288 82.5503L60.8964 84.6491L62.0893 84.6822Z" fill="#E0D7FF"/>
<path d="M62.6078 81.2659L61.3242 79.8756C60.8445 79.3526 60.0406 79.3327 59.5285 79.8226L58.8024 80.5244L59.5479 81.3056L60.4101 80.4714L61.8623 82.0074L62.6078 81.2659Z" fill="#E0D7FF"/>
<path d="M62.6601 78.5392L61.921 79.2343C61.6163 79.519 61.2144 79.625 60.8319 79.5521C60.7606 79.5389 60.6958 79.519 60.6244 79.4992C60.4364 79.433 60.2679 79.3138 60.1253 79.1549L59.6974 78.6782L60.8254 78.334L61.0458 78.5723L61.532 78.1155L62.1025 77.9434L62.6601 78.5392Z" fill="#E0D7FF"/>
<path d="M46.3093 81.1407L45.9851 81.0612L45.3368 80.9023L44.8312 79.8298L45.7906 79.3398L46.225 80.2601C46.3547 80.5448 46.3806 80.856 46.3093 81.1407Z" fill="#E0D7FF"/>
<path d="M48.7921 81.219L48.0595 81.5765L46.4583 81.1793C46.5231 81.1329 46.5944 81.0866 46.6722 81.0535L48.3383 80.2656L48.7921 81.219Z" fill="#E0D7FF"/>
<path d="M55.3915 77.6582C55.3463 77.7178 55.301 77.7707 55.2428 77.8171C55.2945 77.7575 55.3398 77.7045 55.3915 77.6582Z" fill="#E0D7FF"/>
<path d="M56.3256 79.6373L55.3014 79.9485L55.0291 78.962C54.9642 78.7303 54.9643 78.4919 55.0226 78.2734L56.0339 78.5912L56.3256 79.6373Z" fill="#E0D7FF"/>
<path d="M52.7082 77.5586L54.5948 78.1478L52.9481 78.5914L52.6564 77.5785L52.7082 77.5586Z" fill="#E0D7FF"/>
<path d="M55.3915 77.6582C55.3463 77.7178 55.301 77.7707 55.2428 77.8171C55.2945 77.7575 55.3398 77.7045 55.3915 77.6582Z" fill="#E0D7FF"/>
<path d="M37.8115 74.5395C37.792 74.5594 37.7791 74.5726 37.7596 74.5925C37.7272 74.6256 37.6883 74.6653 37.6624 74.7116C37.4225 75.0294 37.3318 75.4465 37.442 75.857L37.7142 76.8435L38.7385 76.5323L38.4144 75.3671L40.4176 74.758L40.1259 73.7715L37.8115 74.5395Z" fill="#E0D7FF"/>
<path d="M37.8104 74.5391C37.7975 74.5523 37.7845 74.5722 37.7715 74.5854C37.7391 74.6317 37.7002 74.6715 37.6548 74.7046C37.5057 74.837 37.3307 74.9429 37.1297 74.9959L35.3534 75.4792L35.3405 75.4394L37.7521 74.592C37.7715 74.5722 37.791 74.5589 37.8104 74.5391Z" fill="#E0D7FF"/>
<path d="M72.852 75.6602C72.852 75.8588 72.8131 76.0574 72.7224 76.2428L71.912 77.9642L70.9655 77.5206L71.8471 75.5874L71.0497 75.1967L72.4695 74.7598C72.6575 74.9451 72.7807 75.1901 72.8261 75.4417C72.8391 75.5145 72.852 75.5873 72.852 75.6602Z" fill="#E0D7FF"/>
<path d="M74.8874 76.0626L74.4206 77.0424L73.526 76.5856C73.1564 76.3936 72.9166 76.0493 72.8453 75.6653C72.8323 75.5925 72.8258 75.5197 72.8258 75.4402C72.8258 75.2416 72.8647 75.0364 72.962 74.8444L73.0981 74.5663L74.479 74.1426L73.8242 75.5197L74.8874 76.0626Z" fill="#E0D7FF"/>
<path d="M79.7105 77.5673L78.7316 77.9844L78.6149 77.4613L79.6262 77.2031L79.7105 77.5673Z" fill="#E0D7FF"/>
<path d="M70.8743 79.8965L71.8079 80.9161L70.7641 81.353L70.1158 80.6314L70.8743 79.8965Z" fill="#E0D7FF"/>
<path d="M67.6525 81.1741L66.3689 79.7838C65.8892 79.2608 65.0853 79.2409 64.5731 79.7308L63.847 80.4326L64.5926 81.2138L65.4548 80.3796L66.9134 81.909L67.6525 81.1741Z" fill="#E0D7FF"/>
<path d="M63.9307 77.6725L65.1689 79.0562C65.6421 79.5858 66.446 79.6189 66.9646 79.1356L67.7037 78.4404L66.9711 77.646L66.0959 78.4669L64.8318 77.0898L64.3909 77.2223L63.9307 77.6725Z" fill="#E0D7FF"/>
<path d="M84.4952 75.546L82.2651 76.4927L82.0966 76.3205L82.8226 75.6188C83.1273 75.3209 83.5358 75.2149 83.9247 75.2878C83.996 75.301 84.0674 75.3209 84.1322 75.3474C84.2618 75.3805 84.385 75.4533 84.4952 75.546Z" fill="#E0D7FF"/>
<path d="M82.1876 73.5546L83.4258 74.9384C83.8991 75.468 84.703 75.5011 85.2216 75.0178L85.9606 74.3226L85.2281 73.5281L84.3529 74.3491L83.1601 73.0514L82.7451 73.0117L82.1876 73.5546Z" fill="#E0D7FF"/>
<path d="M95.2243 69.5221L94.4853 70.2172C94.401 70.2901 94.3167 70.3563 94.2195 70.4092L92.7608 70.2106C92.7349 70.1908 92.7154 70.1643 92.6895 70.1378L91.5809 68.8931L92.696 68.5488L93.6166 69.5486L94.4918 68.7276L95.2243 69.5221Z" fill="#E0D7FF"/>
<path d="M77.4608 73.2232L78.0896 73.0312L76.5143 73.8059L76.3846 73.5543L77.4608 73.2232Z" fill="#E0D7FF"/>
<path d="M79.5028 73.11L80.002 74.2091L79.036 74.6858L78.6146 73.7589C78.4849 73.4742 78.4654 73.1762 78.5368 72.8982L79.2564 72.6797L80.2029 72.7724L79.5028 73.11Z" fill="#E0D7FF"/>
<path d="M104.974 66.7682C104.974 66.7616 104.968 66.7484 104.968 66.7417L103.71 67.2648L103.976 66.6888L102.906 66.1591L103.301 65.2918L103.36 65.166L103.496 65.2322L104.261 65.6096C104.637 65.795 104.883 66.1459 104.955 66.5365C104.968 66.6027 104.974 66.6689 104.974 66.7351C104.974 66.7484 104.974 66.7616 104.974 66.7682Z" fill="#E0D7FF"/>
<path d="M105.785 64.5293L105.085 65.9462C104.987 66.1382 104.948 66.3434 104.948 66.542C104.948 66.6082 104.955 66.6744 104.968 66.7406C104.968 66.7473 104.968 66.7605 104.974 66.7671C104.974 66.7605 104.974 66.7473 104.974 66.7406L106.122 66.264L106.848 64.7346L106.187 64.4102L105.785 64.5293Z" fill="#E0D7FF"/>
<path d="M115.762 56.9095L115.01 58.4919V56.8301L115.762 56.9095Z" fill="#E0D7FF"/>
<path d="M115.95 59.286L115.49 60.2725L115.01 60.0276V58.8027L115.95 59.286Z" fill="#E0D7FF"/>
<path d="M96.8121 68.0527L98.1994 69.5623L97.1492 69.9992L96.0601 68.781L96.8121 68.0527Z" fill="#E0D7FF"/>
<path d="M99.3803 69.0729L98.2654 69.5363L99.0951 68.7617L99.3803 69.0729Z" fill="#E0D7FF"/>
<path d="M111.036 62.9219C111.036 63.1337 110.984 63.339 110.887 63.5244C110.855 63.5906 110.816 63.6501 110.771 63.7097C110.654 63.862 110.505 63.9944 110.317 64.0805L108.631 64.9081L108.165 63.9613L108.975 63.5442L111.036 62.9219Z" fill="#E0D7FF"/>
<path d="M113.434 63.213L110.627 64.3849C110.614 64.1532 110.666 63.9148 110.77 63.7096C110.802 63.6434 110.841 63.5772 110.887 63.5176C111.003 63.3587 111.165 63.2263 111.36 63.1336L113.026 62.3457L113.434 63.213Z" fill="#E0D7FF"/>
<path d="M100.15 66.9738L99.1261 67.285L98.9446 66.6362L99.9689 66.3184L100.15 66.9738Z" fill="#E0D7FF"/>
<path d="M122.536 59.4177L119.671 60.6094C119.69 60.3512 119.781 60.1062 119.936 59.901C119.982 59.8414 120.027 59.7884 120.086 59.7421C120.228 59.6097 120.397 59.5104 120.598 59.4508L122.393 58.9277L122.536 59.4177Z" fill="#E0D7FF"/>
<path d="M117.636 60.6838L119.412 60.2005C120.093 60.0151 120.495 59.3067 120.313 58.6115L120.054 57.625L119.023 57.9229L119.328 59.0948L117.351 59.6642L117.636 60.6838Z" fill="#E0D7FF"/>
<path d="M54.0192 67.1924C60.8434 67.1924 66.3755 66.0156 66.3755 64.564C66.3755 63.1123 60.8434 61.9355 54.0192 61.9355C47.195 61.9355 41.6628 63.1123 41.6628 64.564C41.6628 66.0156 47.195 67.1924 54.0192 67.1924Z" fill="#D0C7F9"/>
<path d="M86.3943 57.7646C93.2185 57.7646 98.7506 56.5879 98.7506 55.1362C98.7506 53.6846 93.2185 52.5078 86.3943 52.5078C79.5701 52.5078 74.038 53.6846 74.038 55.1362C74.038 56.5879 79.5701 57.7646 86.3943 57.7646Z" fill="#D0C7F9"/>
<path d="M59.0755 65.1005C60.1646 65.4316 60.1257 65.7295 59.3543 65.9149L60.3267 66.2128L58.7384 66.3783L57.753 66.0738C56.7028 66.0937 55.471 65.9943 54.4727 65.7957L54.3949 65.3124C55.2052 65.4448 56.0869 65.4978 56.7157 65.4514C57.1371 65.4183 57.3964 65.3455 57.0853 65.2462C56.6898 65.127 55.5553 65.0674 54.4532 65.0012C53.027 64.9152 51.4841 64.743 50.2393 64.3524C49.1567 64.0148 49.1178 63.7367 49.8893 63.6175L48.5732 63.207H50.5829L51.7758 63.5712C52.8519 63.6175 53.9735 63.7433 54.7903 63.9088L54.6153 64.273C53.9735 64.1604 53.1631 64.1207 52.7677 64.1339C52.3139 64.1472 52.2101 64.22 52.4824 64.3061C52.8455 64.4186 53.5326 64.4319 54.7579 64.5047C56.4888 64.604 58.0058 64.7761 59.0755 65.1005Z" fill="#F8F5FF"/>
<path d="M91.0169 55.4404C92.1061 55.7714 92.0672 56.0694 91.2957 56.2547L92.2681 56.5527L90.6798 56.7182L89.6945 56.4136C88.6442 56.4335 87.4125 56.3342 86.4141 56.1356L86.3364 55.6523C87.1467 55.7847 88.0284 55.8376 88.6572 55.7913C89.0786 55.7582 89.3379 55.6854 89.0267 55.5861C88.6313 55.4669 87.4968 55.4073 86.3947 55.3411C84.9685 55.255 83.4256 55.0829 82.1809 54.6923C81.0982 54.3546 81.0593 54.0765 81.8308 53.9574L80.5083 53.5469H82.518L83.7108 53.911C84.787 53.9574 85.9085 54.0832 86.7253 54.2487L86.5503 54.6128C85.9085 54.5003 85.0981 54.4605 84.7027 54.4738C84.2489 54.487 84.1452 54.5598 84.4174 54.6459C84.7805 54.7585 85.4677 54.7717 86.6929 54.8445C88.4368 54.9438 89.9473 55.116 91.0169 55.4404Z" fill="#F8F5FF"/>
<path d="M125.033 53.0434C127.581 58.9887 124.923 65.914 119.101 68.5093C113.98 70.7934 108.119 68.9727 105.053 64.4574C104.631 63.8417 104.262 63.173 103.957 62.4513C103.815 62.1137 103.685 61.7694 103.575 61.4251C101.889 56.2147 103.977 50.5076 108.547 47.6938L111.179 46.5021C113.915 45.6547 116.78 45.9062 119.257 47.0582C121.746 48.2169 123.847 50.2825 125.033 53.0434ZM121.766 54.3013L119.736 52.2025L113.182 59.0947L109.831 55.6718L107.944 57.7573L113.182 63.1068L121.766 54.3013Z" fill="#CFBEFF"/>
<path d="M121.766 54.3019L119.847 56.2682L119.05 57.0892L119.024 57.1157L118.097 58.0624L116.761 59.4329L116.275 59.9295L116.171 60.0354L115.406 60.8167L113.338 62.9419L113.183 63.1008L112.347 62.2467L112.34 62.2401L111.257 61.1344L109.073 58.9033L108.703 58.5259L107.945 57.7513L108.321 57.3408L108.775 56.831L109.831 55.6657L112.308 58.1949L112.794 58.698L113.183 59.0886L115.556 56.5993L116.009 56.1226L116.885 55.2023L119.017 52.9645L119.737 52.2031L120.074 52.554L120.521 53.0175L120.554 53.044L121.364 53.8914L121.766 54.3019Z" fill="white"/>
</svg>
