<svg width="53" height="24" viewBox="0 0 53 24" fill="none" xmlns="http://www.w3.org/2000/svg">
<path d="M45.5992 2.86892L43.5039 1.20059L41.7033 3.32629L44.2756 5.36883L40.6743 9.63063L42.8661 11.3717L46.0815 7.5725C46.3684 7.23297 46.5834 6.84196 46.7144 6.42181C46.8454 6.00166 46.8898 5.5606 46.845 5.12381C46.8002 4.68703 46.6672 4.26308 46.4534 3.87618C46.2397 3.48928 45.9494 3.14701 45.5992 2.86892ZM48.0751 8.50802L50.1705 10.1712L51.9711 8.04545L49.3988 6.0029L53 1.7463L50.8028 0L47.5874 3.79925C47.0072 4.48516 46.7315 5.36642 46.821 6.24937C46.9104 7.13232 47.3576 7.94471 48.0644 8.50802H48.0751Z" fill="white"/>
<path d="M0.533364 20.5496L3.69714 20.0535C4.13353 21.04 5.38814 21.692 6.86094 21.692C8.67922 21.692 10.0551 20.5381 10.0551 19.0438V16.1591H9.94597C9.49375 16.838 8.86641 17.3955 8.12373 17.7782C7.38106 18.161 6.54779 18.3564 5.70332 18.3457C2.12738 18.3457 0 15.6687 0 11.9012V11.4858C0 7.74722 2.12738 5.04711 5.70332 5.04711C6.55504 5.03901 7.39488 5.23764 8.14356 5.62426C8.89225 6.01089 9.52508 6.57275 9.98233 7.25681H10.0914L10.2854 5.43943H13.5583V18.9111C13.5583 21.9228 10.8309 23.9998 6.92762 23.9998C3.50927 23.9998 1.0546 22.4189 0.533364 20.5496ZM9.99444 12.3397V11.1223C9.99444 8.81457 8.60043 7.46452 6.69124 7.46452C4.87296 7.46452 3.44866 8.86649 3.44866 11.382V12.1378C3.44866 14.6302 4.89115 16.0321 6.69124 16.0321C8.60649 16.0033 9.99444 14.6533 9.99444 12.3397Z" fill="white"/>
<path d="M13.5581 12.3883V11.5459C13.5581 7.80803 16.1345 5.07042 19.7101 5.04703C23.2858 5.02363 25.8838 7.73199 25.8838 11.5459V12.6281H16.6692V12.8621C16.6692 14.9153 17.8629 16.5473 19.7101 16.5473C21.0443 16.5473 22.0921 15.6816 22.5782 14.1256H25.6893C25.079 17.1264 22.8213 18.9457 19.7101 18.9457C16.0373 18.9457 13.5581 16.2841 13.5581 12.3883ZM22.7403 10.5749C22.4972 8.67962 21.3305 7.43951 19.7534 7.43951C18.1762 7.43951 16.9555 8.65037 16.6854 10.5749H22.7403Z" fill="white"/>
<path d="M27.1167 18.9217V5.4251H29.949L30.1116 7.33861H30.206C30.5771 6.65603 31.0905 6.08941 31.7001 5.6895C32.3097 5.28959 32.9966 5.0689 33.6991 5.04719C36.6049 5.0172 38.2098 7.12267 38.2098 10.9857V18.9217H35.2149V10.5238C35.2149 8.72426 34.4334 7.52457 32.8285 7.52457C31.2235 7.52457 30.1378 9.17414 30.1378 11.0097V18.9457L27.1167 18.9217Z" fill="white"/>
</svg>
