<svg width="180" height="180" viewBox="0 0 180 180" fill="none" xmlns="http://www.w3.org/2000/svg">
<path d="M144.233 108.486L126.404 134.703L121.625 121.041C119.474 114.903 124.037 108.486 130.535 108.486H144.233Z" fill="#F5F9E4"/>
<path d="M144.233 108.486L141.173 112.986L140.75 113.607V113.616L136.943 119.223L136.007 120.6L135.611 121.185L134.351 123.039L127.079 133.74L126.413 134.721L125.954 133.416L125.864 133.155L125.216 131.319L121.625 121.068C121.346 120.285 121.184 119.493 121.121 118.719C121.049 117.873 121.094 117.036 121.247 116.226C121.517 114.786 122.12 113.445 122.984 112.293C123.596 111.474 124.352 110.745 125.207 110.16C125.243 110.133 125.288 110.106 125.324 110.079C126.008 109.62 126.764 109.251 127.574 108.981C128.501 108.675 129.5 108.504 130.544 108.504H144.233V108.486Z" fill="#F5F9E4"/>
<path d="M122.346 134.964H61.3888C61.2268 134.964 61.0918 134.829 61.0918 134.667V103.113V63.999V37.935V28.035C61.0918 25.38 63.2428 23.229 65.8978 23.229H125.361C135.783 23.229 144.234 31.68 144.234 42.102V108.189C144.234 108.351 144.099 108.486 143.937 108.486H130.536C124.029 108.486 119.475 114.903 121.626 121.041L126.36 134.559C126.387 134.649 126.378 134.748 126.324 134.829C126.27 134.91 126.171 134.964 126.072 134.964H122.346Z" fill="#6DA86C"/>
<path d="M122.346 134.964L61.5597 156.033L55.8447 139.527L61.0917 134.964H122.346Z" fill="#BEEA34"/>
<path d="M122.346 134.964L117.981 136.476L116.073 137.142L109.053 139.572L107.595 140.076L97.9287 143.433L95.8227 144.162L87.6867 146.979L85.4187 147.762L85.2837 147.816L83.1057 148.572L73.8897 151.767L71.6127 152.55L67.9587 153.819L67.4907 153.981L61.5597 156.033L59.7957 150.948L59.1207 148.995L56.8077 142.299L55.9977 139.968L55.8447 139.527L59.9847 135.927L61.0917 134.964H122.346Z" fill="#BEEA34"/>
<path d="M61.0917 63.999V103.113L47.3037 96.984L50.8587 63.999H61.0917Z" fill="#BEEA34"/>
<path d="M61.0917 63.999V103.113L57.5187 101.529L55.9527 100.827L54.9627 100.395L53.1717 99.594L47.4387 97.047L47.3037 96.984L47.4207 95.904L48.0867 89.73L48.5457 85.437L48.8247 82.899L49.1577 79.794V79.767L49.4277 77.238L50.3367 68.832L50.5617 66.735L50.6517 65.934L50.8227 64.341L50.8587 63.999H61.0917Z" fill="#BEEA34"/>
<path d="M50.8591 63.999L47.3041 96.984L45.8371 110.664L29.6641 63.999H50.8591Z" fill="#DCF995"/>
<path d="M61.0919 103.113V134.964L55.8449 139.527L45.8369 110.664L47.3039 96.9839L61.0919 103.113Z" fill="#F5F9E4"/>
<path d="M61.0916 37.9351V63.9991H50.8586H29.6636L27.1346 56.7091C25.9376 53.2621 27.7646 49.4911 31.2206 48.2941L61.0916 37.9351Z" fill="#F5F9E4"/>
<path d="M121.68 117.522C121.671 117.621 121.653 117.711 121.635 117.81C121.572 118.071 121.446 118.314 121.257 118.53L121.113 118.692C121.041 117.846 121.086 117.009 121.239 116.199C121.572 116.568 121.725 117.045 121.68 117.522Z" fill="#DCF995"/>
<path d="M123.786 114.885L122.085 116.784C121.437 117.513 121.491 118.62 122.22 119.277L123.255 120.204L124.227 119.088L122.994 117.99L124.875 115.839L123.786 114.885Z" fill="#DCF995"/>
<path d="M125.199 110.133C125.136 110.268 125.046 110.403 124.938 110.52L123.237 112.482L122.976 112.266C123.597 111.447 124.344 110.718 125.199 110.133Z" fill="#DCF995"/>
<path d="M127.907 111.069L126.935 112.185L125.9 111.258C125.54 110.934 125.342 110.493 125.315 110.043C125.999 109.584 126.755 109.215 127.565 108.945L126.683 109.953L127.907 111.069Z" fill="#DCF995"/>
<path d="M135.324 108.486L135.864 108.954C136.305 109.341 136.512 109.89 136.467 110.43C136.458 110.529 136.44 110.628 136.413 110.727C136.35 110.979 136.224 111.231 136.035 111.438L134.334 113.4L133.227 112.473L135.099 110.259L133.848 109.179L134.433 108.486H135.324Z" fill="#DCF995"/>
<path d="M139.365 108.486L139.653 108.738L137.772 110.889L139.005 111.996L138.033 113.112L136.998 112.185C136.575 111.798 136.377 111.258 136.422 110.727C136.431 110.628 136.449 110.529 136.476 110.43C136.548 110.169 136.674 109.908 136.872 109.692L137.952 108.486H139.365Z" fill="#DCF995"/>
<path d="M129.033 129.276L129.096 126.684C129.123 125.712 128.349 124.902 127.377 124.875L125.982 124.839L125.964 126.324L127.611 126.369L127.575 129.267L129.033 129.276Z" fill="#DCF995"/>
<path d="M128.726 122.265L128.618 124.812C128.582 125.784 129.338 126.603 130.31 126.648L131.696 126.702L131.732 125.217L130.085 125.145L130.166 122.292L128.726 122.265Z" fill="#DCF995"/>
<path d="M135.018 121.374C135.207 121.275 135.405 121.212 135.612 121.185L134.352 123.039L133.794 122.04L135.018 121.374Z" fill="#DCF995"/>
<path d="M136.944 119.214L135.999 120.591L134.892 118.431L136.161 117.747L136.944 119.214Z" fill="#DCF995"/>
<path d="M127.205 116.712L129.752 116.235C130.706 116.055 131.337 115.137 131.157 114.174L130.895 112.806L129.437 113.103L129.743 114.723L126.899 115.299L127.205 116.712Z" fill="#DCF995"/>
<path d="M133.992 114.948L131.481 115.371C130.518 115.533 129.879 116.442 130.041 117.405L130.275 118.773L131.733 118.503L131.454 116.874L134.262 116.361L133.992 114.948Z" fill="#DCF995"/>
<path d="M127.07 133.722L126.404 134.703L125.945 133.398C126.017 133.407 126.098 133.425 126.17 133.452L127.07 133.722Z" fill="#DCF995"/>
<path d="M126.873 130.95L126.45 132.273C126.333 132.624 126.117 132.921 125.847 133.137L125.199 131.301L125.451 130.527L126.873 130.95Z" fill="#DCF995"/>
<path d="M140.742 112.986H141.174L140.751 113.607L140.742 112.986Z" fill="#DCF995"/>
<path d="M57.528 81.3331L59.526 79.6771C60.273 79.0561 60.381 77.9401 59.76 77.1931L58.869 76.1221L57.735 77.0851L58.788 78.3541L56.583 80.2351L57.528 81.3331Z" fill="#F5F9E4"/>
<path d="M61.0921 77.7061V81.4861L60.3451 80.559C59.9851 80.109 59.8771 79.542 60.0121 79.029C60.0391 78.93 60.0661 78.8401 60.1111 78.7501C60.2191 78.4981 60.3901 78.2731 60.6241 78.0841L61.0921 77.7061Z" fill="#F5F9E4"/>
<path d="M50.6519 65.9342L51.0029 66.3572L50.5619 66.7262L50.3369 68.8232L51.7319 67.6712C51.9479 67.4912 52.1189 67.2662 52.2179 67.0232C52.2539 66.9332 52.2899 66.8432 52.3169 66.7442C52.4519 66.2222 52.3349 65.6372 51.9659 65.1872L51.0749 64.1162L50.8229 64.3322L50.6519 65.9342Z" fill="#F5F9E4"/>
<path d="M54.8186 64.4941L52.8296 66.0871C52.0736 66.6991 51.9476 67.8061 52.5596 68.5621L53.4326 69.6511L54.5756 68.7061L53.5406 67.4191L55.7456 65.6101L54.8186 64.4941Z" fill="#F5F9E4"/>
<path d="M56.475 90.063L55.638 87.606C55.323 86.688 54.324 86.193 53.397 86.508L52.083 86.958L52.587 88.353L54.153 87.822L55.125 90.558L56.475 90.063Z" fill="#F5F9E4"/>
<path d="M53.7568 83.592L54.5398 86.013C54.8368 86.94 55.8358 87.453 56.7628 87.147L58.0858 86.715L57.5998 85.32L56.0248 85.824L55.1158 83.124L53.7568 83.592Z" fill="#F5F9E4"/>
<path d="M50.3372 82.8449L48.9782 83.3399L48.8252 82.8989L49.1582 79.7939C49.3022 79.9649 49.4192 80.1629 49.5002 80.3879L50.3372 82.8449Z" fill="#F5F9E4"/>
<path d="M49.0674 79.704C49.0944 79.722 49.1304 79.749 49.1574 79.767C49.5804 80.019 50.1114 80.1 50.6154 79.938L51.9384 79.506L51.4614 78.102L49.8864 78.606L49.4274 77.238L50.3274 68.832L49.0674 79.704Z" fill="#F5F9E4"/>
<path d="M61.155 95.022C61.137 95.022 61.11 95.031 61.092 95.031V96.435L61.029 96.408L60.3 97.893L58.959 97.263L59.571 96.012C59.823 95.49 60.309 95.148 60.84 95.049C60.921 95.031 61.002 95.022 61.092 95.022C61.11 95.022 61.128 95.022 61.155 95.022Z" fill="#F5F9E4"/>
<path d="M61.1547 95.0221C61.1367 95.0221 61.1097 95.0311 61.0917 95.0311C61.0107 95.0401 60.9297 95.049 60.8397 95.049C60.5697 95.049 60.2907 94.9861 60.0297 94.8511L57.7617 93.69L58.3917 92.394L60.9477 93.663L61.0827 93.4021V95.0221C61.1097 95.0221 61.1277 95.0221 61.1547 95.0221Z" fill="#F5F9E4"/>
<path d="M53.5502 96.957L52.7132 94.5C52.3982 93.5821 51.3992 93.0871 50.4722 93.4021L49.1582 93.8521L49.6622 95.247L51.2282 94.716L52.2002 97.452L53.5502 96.957Z" fill="#F5F9E4"/>
<path d="M50.832 90.4858L51.615 92.9068C51.912 93.8338 52.911 94.3468 53.838 94.0408L55.161 93.6088L54.684 92.2048L53.109 92.7088L52.2 90.0088L50.832 90.4858Z" fill="#F5F9E4"/>
<path d="M50.2109 88.8122L49.8509 90.2522L48.5099 89.8922C48.3569 89.8562 48.2219 89.7932 48.0869 89.7212L48.5459 85.4282L49.3109 85.6172L48.6179 88.3802L50.2109 88.8122Z" fill="#F5F9E4"/>
<path d="M47.6277 95.9398L47.4387 97.0468L47.3037 96.9838L47.4207 95.9038L47.6277 95.9398Z" fill="#F5F9E4"/>
<path d="M57.1228 73.845L54.5578 73.449C53.5948 73.305 52.6948 73.962 52.5508 74.925L52.3438 76.302L53.8198 76.509L54.0718 74.88L56.9428 75.285L57.1228 73.845Z" fill="#F5F9E4"/>
<path d="M50.1299 73.2602L52.6409 73.6922C53.6039 73.8542 54.5129 73.2062 54.6749 72.2522L54.9089 70.8842L53.4419 70.6592L53.1629 72.2882L50.3459 71.8472L50.1299 73.2602Z" fill="#F5F9E4"/>
<path d="M59.1113 63.999H61.0913V65.178L58.9854 64.818L59.1113 63.999Z" fill="#F5F9E4"/>
<path d="M54.9631 100.395L53.1631 99.5939L54.0001 98.9819L54.8011 100.116C54.8731 100.206 54.9181 100.296 54.9631 100.395Z" fill="#F5F9E4"/>
<path d="M58.5361 100.809L57.5191 101.529L55.9531 100.827L57.7081 99.6392L58.5361 100.809Z" fill="#F5F9E4"/>
<path d="M95.8499 134.964C95.7239 135.378 95.4809 135.756 95.1659 136.035C95.0669 136.125 94.9499 136.215 94.8329 136.287C94.5269 136.476 94.1759 136.602 93.7979 136.647L90.2789 137.007L90.0449 135.054L90.8009 134.964H95.8499Z" fill="#F5F9E4"/>
<path d="M99.7023 135.396L96.2373 135.684C94.9143 135.792 93.9333 136.962 94.0413 138.285L94.2033 140.175L96.2193 139.977L96.0303 137.736L99.9003 137.358L99.7023 135.396Z" fill="#F5F9E4"/>
<path d="M70.1732 147.816L72.6572 145.305C73.5932 144.36 73.5842 142.839 72.6392 141.903L71.2892 140.571L69.8852 142.029L71.4872 143.613L68.7422 146.457L70.1732 147.816Z" fill="#F5F9E4"/>
<path d="M76.419 140.562L73.935 142.992C72.99 143.919 72.972 145.44 73.899 146.394L75.231 147.744L76.653 146.304L75.078 144.693L77.823 141.939L76.419 140.562Z" fill="#F5F9E4"/>
<path d="M62.1004 134.811C62.0464 134.685 62.0104 134.55 61.9834 134.415C62.0374 134.541 62.0734 134.676 62.1004 134.811Z" fill="#F5F9E4"/>
<path d="M62.0731 135.909L61.1551 139.329L59.2471 138.852L59.9941 135.927L61.1011 134.973H62.1451C62.1721 135.27 62.1541 135.594 62.0731 135.909Z" fill="#F5F9E4"/>
<path d="M61.9922 134.415C62.0372 134.541 62.0822 134.676 62.1092 134.811C62.0552 134.676 62.0102 134.55 61.9922 134.415Z" fill="#F5F9E4"/>
<path d="M65.9881 134.964L65.5021 136.764L63.6751 136.242C62.9821 136.044 62.4511 135.567 62.1631 134.964H65.9881Z" fill="#F5F9E4"/>
<path d="M109.44 139.365L107.829 136.215C107.226 135.036 105.777 134.568 104.589 135.171L102.906 136.035L103.86 137.826L105.858 136.8L107.712 140.292L109.44 139.365Z" fill="#F5F9E4"/>
<path d="M110.097 134.964L109.251 135.378C108.549 135.72 107.766 135.693 107.118 135.369C106.992 135.306 106.875 135.234 106.758 135.153C106.677 135.09 106.605 135.027 106.524 134.964H110.097Z" fill="#F5F9E4"/>
<path d="M117.981 136.476L116.073 137.142L115.011 134.964H117.216L117.981 136.476Z" fill="#F5F9E4"/>
<path d="M67.5632 153.711L67.9592 153.819L67.4912 153.981L67.5632 153.711Z" fill="#F5F9E4"/>
<path d="M73.9083 151.677L73.8903 151.767L71.6133 152.55L72.0093 151.173L73.9083 151.677Z" fill="#F5F9E4"/>
<path d="M83.1059 148.572L83.3489 147.609L81.1709 147.024L81.6659 145.062L83.4929 145.548C84.2579 145.755 84.8429 146.313 85.1129 146.997C85.1669 147.123 85.2029 147.258 85.2299 147.393C85.2569 147.528 85.2749 147.672 85.2749 147.807L83.1059 148.572Z" fill="#F5F9E4"/>
<path d="M87.0027 146.781L87.6957 146.979L85.4187 147.771C85.3467 147.654 85.2837 147.528 85.2387 147.402C85.1847 147.276 85.1487 147.141 85.1217 147.006C85.0497 146.637 85.0587 146.25 85.1667 145.872L86.1207 142.533L88.0197 143.037L87.0027 146.781Z" fill="#F5F9E4"/>
<path d="M86.2827 134.964C85.8507 135.531 85.2027 135.864 84.5277 135.909C84.3927 135.918 84.2487 135.918 84.1047 135.9C83.7447 135.864 83.3937 135.738 83.0697 135.531L82.1787 134.964H86.2827Z" fill="#F5F9E4"/>
<path d="M88.4876 138.222L85.5986 136.296C84.4916 135.558 82.9976 135.864 82.2686 136.971L81.2246 138.555L82.9256 139.653L84.1676 137.781L87.4346 139.887L88.4876 138.222Z" fill="#F5F9E4"/>
<path d="M59.1211 148.995L60.1471 148.401C60.8311 148.005 61.6411 147.987 62.3161 148.284C62.4421 148.338 62.5681 148.41 62.6851 148.482C62.9821 148.68 63.2431 148.95 63.4321 149.283L65.1961 152.352L63.5131 153.369L61.4881 149.967L59.7961 150.948L59.1211 148.995Z" fill="#F5F9E4"/>
<path d="M59.8594 144.414L61.5424 147.456C62.1904 148.617 63.6484 149.04 64.8094 148.392L66.4654 147.465L65.4574 145.71L63.4864 146.799L61.5514 143.424L59.8594 144.414Z" fill="#F5F9E4"/>
<path d="M57.492 140.391L56.97 142.353L56.808 142.299L55.998 139.968L57.492 140.391Z" fill="#F5F9E4"/>
<path d="M97.0115 142.587L97.9295 143.433L95.8235 144.162L95.6885 144.036L97.0115 142.587Z" fill="#F5F9E4"/>
<path d="M86.1657 117.936C85.9677 117.936 85.7607 117.855 85.6077 117.702L80.9727 113.067C80.6667 112.761 80.6667 112.257 80.9727 111.951C81.2787 111.645 81.7827 111.645 82.0887 111.951L86.1657 116.028L94.4187 107.775C94.7247 107.469 95.2287 107.469 95.5347 107.775C95.8407 108.081 95.8407 108.585 95.5347 108.891L86.7237 117.702C86.5707 117.855 86.3727 117.936 86.1657 117.936Z" fill="#DCF995"/>
<path d="M88.2534 127.647C80.0364 127.647 73.3584 120.96 73.3584 112.752C73.3584 104.544 80.0454 97.8569 88.2534 97.8569C96.4614 97.8569 103.148 104.544 103.148 112.752C103.148 120.96 96.4704 127.647 88.2534 127.647ZM88.2534 99.4229C80.9094 99.4229 74.9334 105.399 74.9334 112.743C74.9334 120.087 80.9094 126.063 88.2534 126.063C95.5974 126.063 101.573 120.087 101.573 112.743C101.573 105.399 95.5974 99.4229 88.2534 99.4229Z" fill="#DCF995"/>
<path d="M130.995 46.791H75.627C75.195 46.791 74.835 46.44 74.835 45.999C74.835 45.558 75.186 45.207 75.627 45.207H130.995C131.427 45.207 131.787 45.558 131.787 45.999C131.787 46.44 131.427 46.791 130.995 46.791Z" fill="#DCF995"/>
<path d="M130.995 64.7822H75.627C75.195 64.7822 74.835 64.4312 74.835 63.9902C74.835 63.5492 75.186 63.1982 75.627 63.1982H130.995C131.427 63.1982 131.787 63.5492 131.787 63.9902C131.787 64.4312 131.427 64.7822 130.995 64.7822Z" fill="#DCF995"/>
<path d="M130.995 82.7818H75.627C75.195 82.7818 74.835 82.4308 74.835 81.9898C74.835 81.5488 75.186 81.1978 75.627 81.1978H130.995C131.427 81.1978 131.787 81.5488 131.787 81.9898C131.787 82.4308 131.427 82.7818 130.995 82.7818Z" fill="#DCF995"/>
</svg>
