<svg width="209" height="110" viewBox="0 0 209 110" fill="none" xmlns="http://www.w3.org/2000/svg">
<path d="M208.314 24.4727V37.4597L176.412 50.8757L147.461 63.0567V49.6927V49.3027L208.314 24.4727Z" fill="#E0D7FF"/>
<path d="M208.314 24.4721L201.697 27.1631L195.951 29.5161L183.445 34.6121L177.816 36.9131L168.781 40.5921L166.48 41.5411H166.467L163.945 42.5681L155.261 46.1171L153.025 47.0271L152.895 47.0791L150.789 47.9371L147.461 49.3021V49.0811L144.926 48.7431H144.913L141.988 48.3401L134.422 47.3261L139.622 45.7661L141.858 45.0901L144.146 44.4011L154.39 41.3331L156.444 40.7091L163.113 38.7071L163.503 38.5901L164.803 38.2001L168.105 37.1991L168.911 36.9651L169.444 36.8091L174.514 35.2751L178.635 34.0401L182.6 32.8441H182.613L186.604 31.6481V22.0801L188.112 22.2361L208.314 24.4721Z" fill="#F8F5FF"/>
<path d="M188.658 53.8652V66.5272L166.701 73.6902L164.842 71.0122L181.066 56.2442L188.658 53.8652Z" fill="#6939FF"/>
<path d="M188.658 53.865L181.066 56.244L159.291 63.056L140.935 68.815L134.487 70.83L125.751 73.573L123.658 73.066L125.751 72.182L134.487 68.516L147.461 63.056L176.412 50.875L188.658 53.865Z" fill="#CFBEFF"/>
<path d="M186.604 27.9045V31.6485L169.444 36.8095L180.455 25.6035L186.604 27.9045Z" fill="#6939FF"/>
<path d="M186.604 22.0805V27.9045L180.455 25.6035L174.748 23.4585L186.604 19.9355V22.0805Z" fill="#8960FF"/>
<path d="M186.604 19.9357L174.748 23.4587L156.054 28.9967L155.846 28.7757L155.248 29.2437L138.803 34.1187L133.291 35.7567L78.6909 17.8167L122.072 6.59766L186.604 19.9357Z" fill="#F8F5FF"/>
<path d="M181.066 56.2441L164.842 71.0121L163.542 69.1531L159.291 63.0561L181.066 56.2441Z" fill="#8960FF"/>
<path d="M180.455 25.604L178.83 27.255L173.786 32.39L172.46 33.729L169.444 36.81L168.04 37.226L164.803 38.201L164.608 37.98L164.569 37.954L163.178 36.485L160.071 33.222L157.653 30.674V30.661L156.054 28.997L157.198 28.659L159.421 28.009L161.02 27.528L166.974 25.76L167.806 25.513L174.748 23.459L177.647 24.551L179.376 25.201L180.455 25.604Z" fill="#021544"/>
<path d="M164.842 71.0126L166.701 73.6906L158.225 76.4466L137.945 73.8336L140.935 68.8156L159.291 63.0566L163.542 69.1536L164.842 71.0126Z" fill="#021544"/>
<path d="M166.701 73.6906L164.049 74.5486L162.099 75.1856L158.225 76.4466L146.07 74.8866L143.6 74.5616L141.793 74.3406L139.388 74.0286L137.945 73.8336L139.726 70.8436L140.792 69.0496L140.935 68.8156L159.291 63.0566L159.98 64.0446L161.176 65.7476L163.542 69.1536L164.842 71.0126L166.701 73.6906Z" fill="#021544"/>
<path d="M156.054 28.9961L164.803 38.2001L144.146 44.4011L141.702 39.6951L155.248 29.2431L156.054 28.9961Z" fill="#8960FF"/>
<path d="M158.225 76.447L131.432 85.183L131.341 84.923L137.945 73.834L158.225 76.447Z" fill="#6939FF"/>
<path d="M155.248 29.2441L141.702 39.6961L138.803 34.1191L155.248 29.2441Z" fill="#F8F5FF"/>
<path d="M147.461 49.6922V63.0562L134.487 68.5162V55.0612L117.964 53.4752L114.909 53.1892L117.99 52.2662L132.901 47.7812L134.422 47.3262L147.461 49.0812V49.3022V49.6922Z" fill="#8960FF"/>
<path d="M141.702 39.6961L144.146 44.4021L134.422 47.3271L132.901 47.7821L132.927 47.1191L133.291 35.7571L138.803 34.1191L141.702 39.6961Z" fill="#6939FF"/>
<path d="M140.935 68.8145L137.945 73.8325L131.341 84.9215L131.432 85.1815L125.842 87.0145L125.751 86.7544V73.5725L134.487 70.8295L140.935 68.8145Z" fill="#8960FF"/>
<path d="M134.487 55.0605V68.5155L125.751 72.1815L123.658 73.0655L112.894 77.6025L112.582 77.6935L112.205 77.8885L100.752 82.6985V82.7115L80.446 91.2525V77.4595L93.173 72.1945V72.1815L113.154 63.9135L134.487 55.0605Z" fill="#E0D7FF"/>
<path d="M134.487 55.0615L125.413 58.8315L120.941 60.6774L115.819 62.7965L113.856 63.6154L113.154 63.9144L99.9721 69.3744L97.8791 70.2324L93.1731 72.1824L80.4851 77.4474L80.4461 77.4604L75.9741 76.3814L75.8441 76.3554L61.9601 72.9884L61.2971 72.8324H61.2841L57.7351 71.9614H57.7221L56.4741 71.6624L52.3531 70.6614L49.1421 69.8944L48.8431 69.8164L48.1931 69.6604L46.8931 69.3485L37.7541 67.1385L35.6611 66.6314L30.3701 65.3444L22.2581 63.3815L20.1521 62.8744L16.8501 62.0815L21.1401 60.5994L26.8601 58.6234L31.6961 56.9595L31.7221 56.9465L36.4281 55.3215L36.8051 55.1915L48.3491 58.7145L50.8191 59.4815L54.5891 60.6255L54.6541 60.6384L57.8911 61.6265L61.6741 62.7835L65.4571 63.9404L66.3151 64.2004L68.3561 64.8244L72.2431 66.0074L75.6881 64.9674L77.9631 64.2915L79.3671 63.8624H79.3801L80.5111 63.5244L84.3331 62.3674L85.1001 62.1465L85.9841 61.8735L98.4511 58.1295H98.4641L101.311 57.2715L102.572 56.8945L105.341 56.0624L109.15 54.9185L111.308 54.2685L112.569 53.8915L113.479 53.6185L114.909 53.1895L116.807 53.3715H116.82L117.964 53.4755L121.89 53.8524L122.722 53.9305L134.487 55.0615Z" fill="#F8F5FF"/>
<path d="M133.291 35.7564L133.252 37.2644L132.927 47.1184L132.901 47.7814L126.063 49.8354L125.53 50.0044L117.99 52.2664V40.2934L108.058 37.1864L105.016 36.2374L83.631 29.5554L80.914 28.6974L80.368 28.5284L76.052 27.1764L68.72 24.8884L66.237 24.1214L62.428 22.9254H62.415L61.336 22.5874L60.842 22.4314L61.336 22.3014L68.993 20.3254L78.691 17.8164L81.538 18.7524L84.19 19.6234L94.551 23.0294L97.411 23.9654L101.363 25.2654H101.376L102.533 25.6424L128.104 34.0404L129.222 34.4174L132.212 35.3924L133.291 35.7564Z" fill="#CFBEFF"/>
<path d="M125.842 87.0024L124.854 87.3274L123.853 87.6524L120.382 88.7834L118.627 89.3554L118.51 89.3944L117.496 89.7324L112.257 91.4354L112.244 89.3164V88.1334L112.231 84.8704L112.218 83.2974V82.9984V81.6074L112.205 77.8894L112.582 77.7334L112.894 77.6034L114.363 76.9794L115.442 76.5244L117.366 75.7184L120.655 74.3274L121.604 73.9374L123.658 73.0664L125.751 73.5734V86.7554L125.842 87.0024Z" fill="#CFBEFF"/>
<path d="M117.99 40.293V52.266L114.909 53.189L111.308 54.268L98.1001 46.585L98.7241 46.013V46L117.99 40.293Z" fill="#8960FF"/>
<path d="M117.99 40.2936L98.724 46.0006V46.0136L97.658 46.3256L81.434 51.1356L72.243 53.8656L49.935 47.4436L21.933 39.3836L9.323 35.7566L60.842 22.4316L117.99 40.2936Z" fill="#F8F5FF"/>
<path d="M112.205 77.8887L112.257 91.4347L104.899 93.8397L94.5381 86.7547L100.752 82.7117V82.6987L112.205 77.8887Z" fill="#6939FF"/>
<path d="M111.308 54.2689L84.333 62.3809L83.696 59.8979L98.1001 46.5859L111.308 54.2689Z" fill="#6939FF"/>
<path d="M104.899 93.8279L98.8411 95.8039L97.8661 96.1289L94.473 97.2339L93.6021 97.5199L93.3421 97.5979L92.0811 98.0139L89.767 98.7679L89.624 98.8199L85.048 100.302L83.254 100.887L81.733 101.394L81.707 101.29L80.186 100.874L79.302 100.627L75.805 99.6389L75.103 99.4439L76.689 98.4169L78.795 97.0389L79.458 96.6099L80.381 95.9989L81.278 95.4269L82.487 94.6209L83.306 94.0879L83.41 94.0229L84.294 93.4509L86.426 92.0599L88.181 90.9159L90.261 89.5509L92.4061 88.1469L94.538 86.7559L95.9681 87.7439L96.3451 87.9909L96.8391 88.3289L97.6191 88.8619L101.298 91.3709L102 91.8519L104.899 93.8279Z" fill="#021544"/>
<path d="M100.752 82.7129L94.5379 86.7559L75.1029 99.4439L65.106 96.6489L70.215 90.9679L74.336 89.6809L80.4459 91.2539L100.752 82.7129Z" fill="#8960FF"/>
<path d="M98.7241 46.0137L98.1001 46.5857L96.3191 48.2237L95.2011 49.2637L93.5371 50.7977L91.5611 52.6307L91.1191 53.0337L86.4391 57.3497L85.3341 58.3767L83.9821 59.6247L83.8001 59.7937L83.6961 59.8977L83.6571 59.7417L83.4751 59.0267L83.4621 59.0137L83.1891 57.9347L82.6951 56.0497V56.0367L82.6431 55.8417L81.9021 52.9557L81.7461 52.3577L81.4341 51.1357L84.4241 50.2517L85.3211 49.9787L85.6331 49.8877L86.2571 49.7057L89.7281 48.6787L90.3911 48.4707L91.5611 48.1327L91.9901 48.0027L93.8751 47.4437L93.9791 47.4047H93.9921L94.9671 47.1187L95.5781 46.9367L98.7241 46.0137Z" fill="#021544"/>
<path d="M83.6959 59.8968L84.3329 62.3798L72.2429 66.0068V58.2978V53.8648L81.4339 51.1348L83.6959 59.8968Z" fill="#8960FF"/>
<path d="M81.7071 101.289L81.7331 101.393L55.4861 109.947V107.36L65.1061 96.6484L75.1031 99.4434L81.7071 101.289Z" fill="#6939FF"/>
<path d="M80.446 77.461V91.241L74.336 89.668L64.573 87.159L53.588 84.338L31.358 78.618L24.065 76.746C22.024 76.226 20.282 75.069 19.008 73.522C17.799 72.053 17.045 70.233 16.863 68.27C16.837 67.997 16.824 67.711 16.824 67.438V62.082L30.344 65.358L48.167 69.674L75.818 76.369L80.446 77.461Z" fill="#D0C7F9"/>
<path d="M74.336 89.6811L70.215 90.9681L55.486 95.5831L46.958 93.3731L19.879 86.3531L0.0930176 81.2311L19.021 73.5352C20.282 75.0822 22.024 76.2392 24.078 76.7592L31.371 78.6311L53.601 84.3511L64.586 87.1722L74.336 89.6811Z" fill="#F8F5FF"/>
<path d="M72.2431 58.2989V66.0079L48.3491 58.7149L48.1411 56.3359L72.2431 58.2989Z" fill="#F8F5FF"/>
<path d="M72.243 53.8653V58.2983L48.141 56.3353L47.387 47.7944L49.935 47.4434L72.243 53.8653Z" fill="#6939FF"/>
<path d="M70.2151 90.9668L65.1061 96.6478L55.4861 107.36V103.044V95.5818L70.2151 90.9668Z" fill="#F8F5FF"/>
<path d="M55.486 107.359V109.946L31.826 103.225L27.679 100.066L39.34 96.0234L42.304 100.3L55.486 103.043V107.359Z" fill="#8960FF"/>
<path d="M55.4861 95.583V103.045L42.3041 100.302L39.3401 96.0251L46.9581 93.373L55.4861 95.583Z" fill="#6939FF"/>
<path d="M49.9351 47.4428L47.3871 47.7938L44.5141 48.1968L43.5131 48.3398L35.1541 49.5098L33.0221 49.8088L30.4741 50.1598L29.5381 50.2898L27.4061 50.5888L24.4551 47.5858L23.7921 46.9098L21.6341 44.7128L20.7501 43.8158L20.6721 43.7378L19.9831 43.0488L18.4751 41.4888L19.3071 40.9818L20.1521 40.4618L21.9201 39.3828L25.8201 40.5138L27.3411 40.9558L27.6011 41.0338L28.6021 41.3198L33.0611 42.6068L34.0491 42.8928L34.8291 43.1138L35.8171 43.3998L37.2601 43.8158L39.4571 44.4528L41.7841 45.1158L42.6161 45.3498L43.8511 45.7008L45.0081 46.0388L45.2681 46.1168L49.9351 47.4428Z" fill="#021544"/>
<path d="M36.8049 55.1919L29.8759 53.0859L27.4189 50.5769L47.3869 47.7949L48.1409 56.3359L48.3489 58.715L36.8049 55.1919Z" fill="#8960FF"/>
<path d="M46.9581 93.3716L46.3471 93.5926L45.6711 93.8266L45.5931 93.8526L39.3401 96.0236L36.5971 96.9726L35.5181 97.3496L30.8771 98.9616L29.8241 99.3256H29.7981L27.9651 99.9626L27.6791 100.067L13.8081 89.5106L18.2541 87.1966L18.2931 87.1706L19.8791 86.3516L25.5211 87.8076L26.7301 88.1326L27.5621 88.3406L28.8751 88.6786L34.0621 90.0306L34.1531 90.0566L41.0691 91.8506L42.2001 92.1366L46.1001 93.1506L46.9581 93.3716Z" fill="#021544"/>
<path d="M31.8259 103.227L7.81492 96.4147C6.44992 96.0247 5.21493 95.3877 4.14893 94.5427L13.8079 89.5117L27.6789 100.068L31.8259 103.227Z" fill="#6939FF"/>
<path d="M27.4191 50.5772L29.8761 53.0862L16.3951 48.9652C14.4451 48.3672 12.7811 47.2102 11.5591 45.7152L18.4751 41.4902L27.4191 50.5772Z" fill="#6939FF"/>
<path d="M21.933 39.3841L18.475 41.4901L11.559 45.7151C10.155 43.9861 9.323 41.7761 9.323 39.4231V35.7441L21.933 39.3841Z" fill="#8960FF"/>
<path d="M19.879 86.3525L13.808 89.5115L4.14896 94.5425C1.65296 92.5795 0.105957 89.5375 0.105957 86.2095V81.2305L19.879 86.3525Z" fill="#8960FF"/>
<path d="M157.718 30.2839C157.705 30.4139 157.679 30.5309 157.653 30.6609V30.6739L156.067 29.0099L157.198 28.6719C157.588 29.1139 157.757 29.6989 157.718 30.2839Z" fill="#6939FF"/>
<path d="M159.369 30.856L160.916 32.247L160.071 33.222L157.653 30.674V30.661C157.666 30.544 157.679 30.414 157.718 30.297C157.809 29.959 157.965 29.647 158.212 29.361L159.421 28.009L161.02 27.541L161.735 28.165L159.369 30.856Z" fill="#6939FF"/>
<path d="M169.028 35.1845L171.173 32.7145C171.979 31.7915 171.875 30.3875 170.952 29.5815L169.626 28.4375L168.417 29.8675L169.99 31.2195L167.624 34.0145L169.028 35.1845Z" fill="#6939FF"/>
<path d="M173.357 32.012L173.773 32.389L172.46 33.728L172.369 33.65C171.836 33.169 171.576 32.48 171.641 31.817C171.654 31.687 171.667 31.57 171.706 31.44C171.797 31.102 171.953 30.79 172.2 30.517L174.345 28.125L175.723 29.308L173.357 32.012Z" fill="#6939FF"/>
<path d="M167.806 25.5137L167.065 25.9297L166.974 25.7607L167.806 25.5137Z" fill="#6939FF"/>
<path d="M179.376 25.2008L178.687 27.1248L176.919 26.5268L177.504 24.8758C177.543 24.7588 177.595 24.6548 177.647 24.5508L179.376 25.2008Z" fill="#6939FF"/>
<path d="M164.179 38.344C164.27 38.253 164.361 38.162 164.465 38.084C164.374 38.175 164.283 38.266 164.179 38.344Z" fill="#6939FF"/>
<path d="M164.569 37.9534L163.165 36.4844L162.853 34.8204L164.686 34.4434L165.011 36.1724C165.141 36.8224 164.959 37.4594 164.569 37.9534Z" fill="#6939FF"/>
<path d="M164.452 38.084C164.361 38.175 164.27 38.266 164.166 38.344C164.257 38.253 164.361 38.162 164.452 38.084Z" fill="#6939FF"/>
<path d="M168.04 37.2266L164.803 38.2016L164.608 37.9936C164.855 37.8376 165.128 37.7336 165.427 37.6816L168.04 37.2266Z" fill="#6939FF"/>
<path d="M140.792 69.0508L142.131 70.2208C142.742 70.7538 143.028 71.5208 142.963 72.2618C142.963 72.2618 142.963 72.2618 142.963 72.2748C142.95 72.4178 142.924 72.5478 142.898 72.6778C142.807 73.0288 142.638 73.3668 142.378 73.6658L141.78 74.3548L139.388 74.0428L141.091 72.0278L139.726 70.8448L140.792 69.0508Z" fill="#6939FF"/>
<path d="M144.796 72.8844L146.499 74.4054L146.083 74.8864L143.6 74.5614C143.093 74.0414 142.859 73.3394 142.911 72.6634C142.924 72.5204 142.95 72.3904 142.976 72.2474C143.067 71.8834 143.249 71.5324 143.522 71.2334L145.875 68.6074L147.383 69.9074L144.796 72.8844Z" fill="#6939FF"/>
<path d="M159.98 64.0449L161.176 65.7479L160.474 66.5669L158.94 65.2799L159.98 64.0449Z" fill="#6939FF"/>
<path d="M164.049 74.5483L162.099 75.1853L161.241 73.5213L162.996 72.5723L164.049 74.5483Z" fill="#6939FF"/>
<path d="M150.607 71.143L154.13 70.48C155.456 70.233 156.327 68.959 156.08 67.633L155.729 65.748L153.714 66.151L154.13 68.4L150.204 69.193L150.607 71.143Z" fill="#6939FF"/>
<path d="M160.006 68.6992L156.535 69.2842C155.209 69.5052 154.312 70.7662 154.546 72.1052L154.871 74.0032L156.886 73.6262L156.496 71.3772L160.37 70.6622L160.006 68.6992Z" fill="#6939FF"/>
<path d="M113.323 83.2454C113.323 83.3104 113.31 83.3754 113.284 83.4404C113.245 83.6224 113.154 83.7914 113.024 83.9474L112.231 84.8704V83.2974L112.374 83.1284L112.231 82.9984V81.6074L112.92 82.2054C113.219 82.4784 113.362 82.8684 113.323 83.2454Z" fill="#E0D7FF"/>
<path d="M114.805 81.3867L113.609 82.7127C113.154 83.2197 113.193 84.0127 113.7 84.4677L114.428 85.1177L115.117 84.3247L114.259 83.5447L115.585 82.0367L114.805 81.3867Z" fill="#E0D7FF"/>
<path d="M114.415 79.6958L115.611 78.3178C116.066 77.7978 116.001 77.0178 115.494 76.5628L114.753 75.9258L114.077 76.7188L114.948 77.4858L113.635 79.0458L114.415 79.6958Z" fill="#E0D7FF"/>
<path d="M117.392 75.7578L116.196 77.0838C115.741 77.5908 115.78 78.3838 116.287 78.8388L117.015 79.4888L117.704 78.6958L116.846 77.9158L118.172 76.4078L117.392 75.7578Z" fill="#E0D7FF"/>
<path d="M122.215 80.3462L123.411 78.9682C123.866 78.4482 123.801 77.6682 123.294 77.2132L122.553 76.5762L121.877 77.3692L122.748 78.1362L121.435 79.6962L122.215 80.3462Z" fill="#E0D7FF"/>
<path d="M125.192 76.4082L123.996 77.7342C123.541 78.2412 123.58 79.0342 124.087 79.4892L124.815 80.1392L125.504 79.3462L124.646 78.5662L125.972 77.0582L125.192 76.4082Z" fill="#E0D7FF"/>
<path d="M117.496 89.7322V89.4722L116.339 89.4462L116.352 88.4062L117.327 88.4322C117.743 88.4452 118.094 88.6532 118.315 88.9652C118.354 89.0172 118.393 89.0822 118.419 89.1472C118.458 89.2382 118.484 89.3292 118.51 89.4202L117.496 89.7322Z" fill="#E0D7FF"/>
<path d="M118.627 89.3562C118.549 89.2912 118.484 89.2132 118.419 89.1222C118.38 89.0702 118.341 89.0052 118.315 88.9402C118.237 88.7712 118.198 88.5762 118.198 88.3682L118.276 86.5742L119.29 86.6002L119.238 88.6022L120.395 88.6542V88.7842L118.627 89.3562Z" fill="#E0D7FF"/>
<path d="M112.829 89.005L112.244 89.317V88.134L112.335 88.082L112.829 89.005Z" fill="#E0D7FF"/>
<path d="M122.007 74.6915L121.123 75.1855L120.655 74.3275L121.604 73.9375L122.007 74.6915Z" fill="#E0D7FF"/>
<path d="M124.854 87.3278L123.866 87.6528L123.372 86.7688L122.345 87.3148L121.838 86.4048L122.696 85.9368C123.06 85.7418 123.476 85.7418 123.814 85.9108C123.879 85.9368 123.931 85.9758 123.983 86.0148C124.139 86.1188 124.269 86.2618 124.36 86.4438L124.854 87.3278Z" fill="#E0D7FF"/>
<path d="M125.751 85.6774L125.101 86.0154C124.737 86.1974 124.334 86.1974 123.996 86.0284C123.931 86.0024 123.879 85.9634 123.827 85.9244C123.671 85.8204 123.528 85.6644 123.437 85.4824L122.618 83.8833L123.515 83.4023L124.464 85.1704L125.491 84.6374L125.764 85.1574V85.6774H125.751Z" fill="#E0D7FF"/>
<path d="M117.21 82.6727L119.004 82.3347C119.68 82.2047 120.122 81.5547 119.992 80.8917L119.81 79.9297L118.783 80.1377L119.004 81.2817L117.002 81.6847L117.21 82.6727Z" fill="#E0D7FF"/>
<path d="M121.981 81.4395L120.213 81.7384C119.537 81.8554 119.082 82.4924 119.199 83.1684L119.368 84.1304L120.395 83.9354L120.2 82.7914L122.176 82.4275L121.981 81.4395Z" fill="#E0D7FF"/>
<path d="M88.1811 90.916C88.1681 91.124 88.0901 91.306 87.9601 91.462C87.9211 91.501 87.8951 91.54 87.8431 91.579C87.7261 91.683 87.5961 91.748 87.4401 91.787L86.4131 92.06L88.1811 90.916Z" fill="#8960FF"/>
<path d="M89.7671 90.9023L88.376 91.2403C87.843 91.3703 87.518 91.9034 87.648 92.4364L87.83 93.1904L88.636 92.9824L88.415 92.0853L89.9621 91.6823L89.7671 90.9023Z" fill="#8960FF"/>
<path d="M92.1979 88.9135C92.1719 88.9525 92.1329 88.9915 92.0939 89.0305C91.9769 89.1345 91.8469 89.2125 91.6909 89.2515L90.2869 89.6155L90.2739 89.5505L92.4189 88.1465C92.4449 88.4325 92.3669 88.7055 92.1979 88.9135Z" fill="#8960FF"/>
<path d="M94.0051 88.3672L92.6141 88.7052C92.081 88.8352 91.756 89.3682 91.886 89.9012L92.068 90.6552L92.8741 90.4472L92.6531 89.5502L94.2001 89.1472L94.0051 88.3672Z" fill="#8960FF"/>
<path d="M95.1231 93.5555L96.5271 93.1915C97.0601 93.0485 97.3721 92.5155 97.2291 91.9825L97.0341 91.2285L96.2281 91.4495L96.4621 92.3465L94.9021 92.7755L95.1231 93.5555Z" fill="#8960FF"/>
<path d="M98.841 92.2949L97.45 92.6329C96.917 92.7629 96.592 93.2959 96.722 93.8289L96.904 94.5829L97.71 94.3749L97.489 93.4779L99.0359 93.0749L98.841 92.2949Z" fill="#8960FF"/>
<path d="M87.6479 99.223L88.4929 98.04C88.8179 97.598 88.7139 96.974 88.2719 96.662L87.6349 96.207L87.1539 96.883L87.9079 97.429L86.9719 98.755L87.6479 99.223Z" fill="#8960FF"/>
<path d="M89.7279 95.8828L88.8699 97.0268C88.5449 97.4688 88.6359 98.0798 89.0649 98.4048L89.6889 98.8728L90.1699 98.1968L89.4289 97.6378L90.3649 96.3378L89.7279 95.8828Z" fill="#8960FF"/>
<path d="M83.605 94.9069L83.449 96.3499L82.643 96.2719L82.799 94.6599L82.5 94.6209L83.319 94.0879C83.384 94.1529 83.436 94.2179 83.475 94.2959C83.501 94.3349 83.527 94.3869 83.54 94.4389C83.592 94.5819 83.618 94.7379 83.605 94.9069Z" fill="#8960FF"/>
<path d="M85.139 94.2058L85.048 95.0378L84.268 94.9468C83.943 94.9078 83.683 94.7128 83.527 94.4528C83.501 94.4138 83.475 94.3618 83.462 94.3098C83.423 94.2188 83.41 94.1278 83.397 94.0368L84.281 93.4648L84.216 94.1018L85.139 94.2058Z" fill="#8960FF"/>
<path d="M95.9681 87.7441L96.3451 87.9911L95.9551 87.9521L95.9681 87.7441Z" fill="#8960FF"/>
<path d="M97.6189 88.8631L97.5279 89.7341L96.7219 89.6691L96.8389 88.3301L97.6189 88.8631Z" fill="#8960FF"/>
<path d="M103.053 93.2823L102.195 92.1123C101.87 91.6703 101.259 91.5793 100.817 91.8913L100.193 92.3463L100.687 93.0093L101.441 92.4633L102.416 93.7633L103.053 93.2823Z" fill="#8960FF"/>
<path d="M102 91.8521C101.948 91.8391 101.909 91.8261 101.857 91.8131C101.805 91.8001 101.753 91.7741 101.714 91.7481C101.571 91.6831 101.454 91.5791 101.363 91.4361L101.311 91.3711L102 91.8521Z" fill="#8960FF"/>
<path d="M92.913 97.4549C93.069 97.4679 93.212 97.5199 93.342 97.6109L92.0811 98.0269L92.133 97.377L92.913 97.4549Z" fill="#8960FF"/>
<path d="M94.59 96.1424L94.473 97.2345L93.6021 97.5204C93.6021 97.5074 93.6021 97.4944 93.6021 97.4814L93.784 96.0645L94.59 96.1424Z" fill="#8960FF"/>
<path d="M90.7681 92.8272L92.0941 93.4122C92.5881 93.6332 93.1731 93.3992 93.3941 92.9052L93.7061 92.1902L92.9391 91.8652L92.5621 92.7102L91.0671 92.0732L90.7681 92.8272Z" fill="#8960FF"/>
<path d="M94.4729 94.1525L93.1729 93.5546C92.6789 93.3206 92.0939 93.5415 91.8599 94.0355L91.5349 94.7505L92.3019 95.0885L92.6919 94.2435L94.1479 94.8935L94.4729 94.1525Z" fill="#8960FF"/>
<path d="M85.0481 100.301L83.2541 100.886L83.0071 100.587L83.6181 100.093C83.8781 99.8854 84.2031 99.8334 84.5021 99.9114C84.5541 99.9244 84.5931 99.9374 84.6451 99.9634C84.7881 100.028 84.9051 100.119 85.0091 100.249L85.0481 100.301Z" fill="#8960FF"/>
<path d="M83.241 98.4953L84.112 99.6263C84.45 100.055 85.074 100.133 85.503 99.7953L86.114 99.3143L85.594 98.6643L84.866 99.2363L83.865 97.9883L83.241 98.4953Z" fill="#8960FF"/>
<path d="M79.458 96.6094L79.614 96.6224C79.9391 96.6614 80.2121 96.8564 80.3681 97.1164C80.3941 97.1554 80.4201 97.2074 80.4331 97.2464C80.4851 97.3894 80.5111 97.5454 80.4981 97.7014L80.3421 99.1444L79.5361 99.0794L79.6921 97.4544L78.769 97.3504L78.795 97.0254L79.458 96.6094Z" fill="#8960FF"/>
<path d="M81.2781 95.4277L81.1091 96.9097L82.0321 97.0267L81.9411 97.8587L81.1611 97.7677C80.8361 97.7287 80.5761 97.5337 80.4331 97.2737C80.4071 97.2347 80.3811 97.1827 80.3681 97.1437C80.3161 97.0007 80.2901 96.8317 80.3161 96.6627L80.3941 96.0127L81.2781 95.4277Z" fill="#8960FF"/>
<path d="M77.989 99.2753L77.56 99.9513L76.195 99.0673L75.818 99.6393L75.116 99.4443L76.702 98.4043C76.728 98.4173 76.767 98.4433 76.793 98.4563L77.989 99.2753Z" fill="#8960FF"/>
<path d="M98.217 95.3887L98.841 95.8047L97.866 96.1297L97.762 96.0647L98.217 95.3887Z" fill="#8960FF"/>
<path d="M80.1859 100.874L79.3019 100.627L79.2629 100.458L80.0819 100.289L80.1859 100.874Z" fill="#8960FF"/>
<path d="M90.417 48.4967L90.014 48.9387L89.728 48.6787L90.391 48.4707L90.417 48.4967Z" fill="#6939FF"/>
<path d="M91.418 48.2896L92.211 49.0177C92.51 49.2907 92.978 49.2646 93.238 48.9656L93.628 48.5367L93.16 48.1336L92.705 48.6407L91.808 47.8477L91.418 48.2896Z" fill="#6939FF"/>
<path d="M93.706 50.0953L92.939 49.3673C92.64 49.0943 92.185 49.1073 91.912 49.4063L91.522 49.8223L91.977 50.2383L92.445 49.7443L93.316 50.5373L93.706 50.0953Z" fill="#6939FF"/>
<path d="M91.34 52.4355L91.561 52.6305L91.119 53.0335L90.937 52.8775L91.34 52.4355Z" fill="#6939FF"/>
<path d="M84.4241 50.2518L84.4111 50.5508L85.4901 50.6028C85.6071 50.6028 85.7241 50.5898 85.8281 50.5378C85.8671 50.5248 85.8931 50.4988 85.9321 50.4858C86.1142 50.3558 86.2442 50.1478 86.2572 49.9138L86.2701 49.7188L85.6461 49.9008V50.0048L85.3471 49.9918L84.4241 50.2518Z" fill="#6939FF"/>
<path d="M87.3232 50.4864L86.2702 50.4214C85.8672 50.3954 85.5162 50.7074 85.4902 51.1104L85.4512 51.6825L86.0622 51.7085L86.1012 51.0194L87.2842 51.0714L87.3232 50.4864Z" fill="#6939FF"/>
<path d="M82.8121 52.3321C82.7991 52.3711 82.7731 52.4101 82.7471 52.4361C82.6821 52.5271 82.5911 52.5921 82.4871 52.6571L81.9021 52.9561L81.7461 52.3581L82.3181 52.0591L82.0061 51.4481L82.5521 51.1621L82.8121 51.6821C82.9161 51.8901 82.9161 52.1241 82.8121 52.3321Z" fill="#6939FF"/>
<path d="M84.0211 51.6426L83.0722 52.1106C82.7082 52.2926 82.5652 52.7216 82.7342 53.0856L82.9942 53.6056L83.5401 53.3326L83.2412 52.7216L84.2941 52.1886L84.0211 51.6426Z" fill="#6939FF"/>
<path d="M86.3611 54.5671L87.3232 54.0731C87.6872 53.8911 87.8302 53.4491 87.6482 53.0851L87.3882 52.5781L86.8422 52.8641L87.1542 53.4751L86.0881 54.0341L86.3611 54.5671Z" fill="#6939FF"/>
<path d="M88.8571 53.0723L87.9081 53.5403C87.5441 53.7223 87.4011 54.1513 87.5701 54.5153L87.8301 55.0353L88.3761 54.7623L88.0771 54.1513L89.1301 53.6183L88.8571 53.0723Z" fill="#6939FF"/>
<path d="M82.8902 56.4011L83.8522 55.9071C84.2162 55.7251 84.3592 55.2831 84.1772 54.9191L83.9172 54.4121L83.3712 54.6981L83.6832 55.3091L82.6172 55.8681L82.8902 56.4011Z" fill="#6939FF"/>
<path d="M85.373 54.8926L84.424 55.3606C84.06 55.5426 83.917 55.9716 84.086 56.3356L84.346 56.8556L84.892 56.5826L84.593 55.9716L85.646 55.4386L85.373 54.8926Z" fill="#6939FF"/>
<path d="M86.439 57.3494L85.3341 58.3764L84.3721 58.0774L84.5411 57.5054L85.6851 57.8434L85.893 57.1934L86.439 57.3494Z" fill="#6939FF"/>
<path d="M83.826 57.9079L83.462 59.0129L83.189 57.9339L83.254 57.7129L83.826 57.9079Z" fill="#6939FF"/>
<path d="M84.1121 59.2483L83.9821 59.6253L83.9171 59.8333L83.8001 59.7943L83.6571 59.7423L83.4751 59.0273L84.1121 59.2483Z" fill="#6939FF"/>
<path d="M89.624 49.9009L89.806 50.9669C89.871 51.3699 90.248 51.6299 90.651 51.5649L91.223 51.4739L91.119 50.8629L90.443 50.9799L90.235 49.7969L89.624 49.9009Z" fill="#6939FF"/>
<path d="M90.3 52.7211L90.144 51.6811C90.079 51.2781 89.715 51.0051 89.312 51.0701L88.74 51.1611L88.844 51.7721L89.52 51.6681L89.715 52.8381L90.3 52.7211Z" fill="#6939FF"/>
<path d="M95.162 49.2243L95.175 48.1453C95.175 47.7423 94.85 47.4173 94.447 47.4043H93.875V48.0153H94.564V49.2113L95.162 49.2243Z" fill="#6939FF"/>
<path d="M96.254 47.5218V48.1328L95.682 48.1198C95.448 48.1198 95.227 47.9898 95.11 47.8078C95.097 47.7688 95.071 47.7428 95.058 47.7168C95.006 47.6128 94.98 47.4958 94.98 47.3658L94.993 47.1058L95.604 46.9238V47.4958L96.254 47.5218Z" fill="#6939FF"/>
<path d="M22.8172 95.5051L24.1172 94.0101C24.6112 93.4511 24.5462 92.5932 23.9872 92.1122L23.1812 91.4102L22.4532 92.2811L23.4022 93.1131L21.9722 94.8031L22.8172 95.5051Z" fill="#8960FF"/>
<path d="M26.0541 91.2148L24.7541 92.6578C24.2601 93.2168 24.2991 94.0618 24.8581 94.5558L25.6511 95.2708L26.3921 94.4128L25.4561 93.5678L26.8861 91.9298L26.0541 91.2148Z" fill="#8960FF"/>
<path d="M25.521 87.8086L26.73 88.1336L25.638 89.3816L24.793 88.6666L25.521 87.8086Z" fill="#8960FF"/>
<path d="M28.875 88.6798L28.459 89.1478L27.666 88.4458C27.627 88.4068 27.601 88.3808 27.562 88.3418L28.875 88.6798Z" fill="#8960FF"/>
<path d="M34.062 90.0312L34.1543 90.0576L34.128 90.084L34.062 90.0312Z" fill="#8960FF"/>
<path d="M18.2946 87.1719L18.2676 87.1988H18.2542L18.2946 87.1719Z" fill="#8960FF"/>
<path d="M29.798 99.326L27.965 99.963H27.731L27.744 98.832L28.81 98.858C29.2 98.858 29.564 99.053 29.798 99.326Z" fill="#8960FF"/>
<path d="M30.9292 96.8834L30.8642 98.9634L29.8242 99.3274C29.7592 99.1714 29.7332 98.9894 29.7462 98.8074L29.8242 96.8574L30.9292 96.8834Z" fill="#8960FF"/>
<path d="M36.597 96.9739L35.518 97.3509L35.362 97.0779L34.257 97.6759L33.698 96.6879L34.634 96.1809C35.024 95.9729 35.479 95.9729 35.856 96.1549C35.921 96.1939 35.986 96.2199 36.051 96.2719C36.22 96.3889 36.363 96.5449 36.467 96.7399L36.597 96.9739Z" fill="#8960FF"/>
<path d="M34.543 93.9321L35.44 95.6611C35.778 96.3241 36.597 96.5841 37.26 96.2461L38.209 95.7521L37.676 94.7511L36.558 95.3361L35.531 93.4121L34.543 93.9321Z" fill="#8960FF"/>
<path d="M46.9581 93.3733L46.3342 93.5943C46.2952 93.5423 46.2562 93.4903 46.2302 93.4253L46.0872 93.1523L46.9581 93.3733Z" fill="#8960FF"/>
<path d="M28.667 92.6196L30.617 92.2556C31.345 92.1126 31.826 91.4106 31.696 90.6826L31.501 89.6426L30.383 89.8636L30.617 91.0986L28.446 91.5406L28.667 92.6196Z" fill="#8960FF"/>
<path d="M33.867 91.2676L31.943 91.5926C31.215 91.7226 30.721 92.4116 30.838 93.1526L31.02 94.2056L32.138 93.9976L31.93 92.7496L34.075 92.3596L33.867 91.2676Z" fill="#8960FF"/>
<path d="M21.582 89.9023L19.5931 89.9283C18.8521 89.9413 18.2541 90.5523 18.2671 91.2933L18.2801 92.3593L19.4111 92.3333L19.3981 91.0723L21.608 91.0203L21.582 89.9023Z" fill="#8960FF"/>
<path d="M16.2391 90.3314L18.1891 90.3445C18.9301 90.3445 19.5411 89.7464 19.5411 89.0054V87.9395L18.4101 87.9524V89.2134L16.2261 89.2264L16.2391 90.3314Z" fill="#8960FF"/>
<path d="M42.2131 92.8526L41.0821 92.8916L41.0691 91.8516L42.2001 92.1376L42.2131 92.8526Z" fill="#8960FF"/>
<path d="M25.066 46.5347C25.066 46.5997 25.053 46.6647 25.027 46.7297C24.988 46.8987 24.91 47.0547 24.78 47.1847L24.442 47.5747L23.779 46.8987L24.169 46.4307L23.376 45.7417L23.987 45.0137L24.663 45.5987C24.962 45.8457 25.092 46.1967 25.066 46.5347Z" fill="#8960FF"/>
<path d="M26.4052 44.8574L25.3132 46.0664C24.8972 46.5344 24.9362 47.2494 25.4042 47.6654L26.0672 48.2634L26.6912 47.5484L25.8982 46.8464L27.1072 45.4684L26.4052 44.8574Z" fill="#8960FF"/>
<path d="M27.4191 41.4126C27.4191 41.4776 27.4061 41.5426 27.3801 41.6076C27.3411 41.7766 27.2631 41.9326 27.1461 42.0626L26.0541 43.3236L25.3391 42.7256L26.5351 41.3086L25.7291 40.6196L25.8201 40.5156L27.3411 40.9576C27.4191 41.0876 27.4451 41.2566 27.4191 41.4126Z" fill="#8960FF"/>
<path d="M29.0572 42.4138L28.4332 43.1288L27.7702 42.5308C27.4971 42.2838 27.3672 41.9458 27.3932 41.5948C27.3932 41.5298 27.4061 41.4648 27.4321 41.3998C27.4711 41.2568 27.5361 41.1268 27.6271 41.0098L28.6282 41.2958L28.2772 41.6988L29.0572 42.4138Z" fill="#8960FF"/>
<path d="M33.0741 42.5957L34.0751 42.8687L33.1781 43.9087L32.4631 43.3107L33.0741 42.5957Z" fill="#8960FF"/>
<path d="M35.83 43.3876L35.531 43.7256L34.868 43.1276C34.855 43.1146 34.855 43.1146 34.842 43.1016L35.83 43.3876Z" fill="#8960FF"/>
<path d="M20.5161 40.7749L19.8921 41.4899L19.3201 40.9829L20.1651 40.4629L20.5161 40.7749Z" fill="#8960FF"/>
<path d="M30.5 49.6158L30.487 50.1488L29.551 50.2788L29.577 49.5898L30.5 49.6158Z" fill="#8960FF"/>
<path d="M35.154 49.4981L33.022 49.7971L32.814 49.4331L33.594 49.0041C33.919 48.8221 34.309 48.8351 34.621 48.9781C34.673 49.0041 34.725 49.0301 34.777 49.0691C34.92 49.1731 35.037 49.3031 35.128 49.4591L35.154 49.4981Z" fill="#8960FF"/>
<path d="M33.5291 47.1327L34.2831 48.5887C34.5691 49.1477 35.245 49.3557 35.804 49.0697L36.597 48.6537L36.142 47.8087L35.206 48.2897L34.3481 46.6777L33.5291 47.1327Z" fill="#8960FF"/>
<path d="M44.5141 48.1977L43.5131 48.3407L43.2661 47.8987L42.3301 48.4057L41.8621 47.5737L42.6421 47.1447C42.9671 46.9627 43.3571 46.9757 43.6691 47.1187C43.7211 47.1447 43.7731 47.1707 43.8251 47.2097C43.9681 47.3137 44.0851 47.4437 44.1761 47.5997L44.5141 48.1977Z" fill="#8960FF"/>
<path d="M45.645 46.7809L44.852 47.1839C44.527 47.3529 44.15 47.3529 43.838 47.1969C43.786 47.1709 43.734 47.1449 43.682 47.1059C43.539 47.0019 43.409 46.8719 43.318 46.7029L42.616 45.3379L43.851 45.6889L44.241 46.4169L45.008 46.0139L45.177 45.9229L45.268 46.0789L45.645 46.7809Z" fill="#8960FF"/>
<path d="M28.602 46.0273L30.24 45.7153C30.851 45.5983 31.254 45.0133 31.137 44.4023L30.968 43.5312L30.032 43.7263L30.227 44.7663L28.407 45.1303L28.602 46.0273Z" fill="#8960FF"/>
<path d="M32.9569 44.8965L31.3449 45.1695C30.7339 45.2735 30.3179 45.8585 30.4219 46.4695L30.5779 47.3535L31.5139 47.1845L31.3319 46.1445L33.1259 45.8195L32.9569 44.8965Z" fill="#8960FF"/>
<path d="M22.7002 44.675L21.6472 44.701L20.7632 43.8039C20.8412 43.7779 20.9322 43.7779 21.0102 43.7779L22.6742 43.752L22.7002 44.675Z" fill="#8960FF"/>
<path d="M20.9581 42.1133V43.0103C20.9581 43.2833 20.8541 43.5433 20.6851 43.7383L19.9961 43.0493V42.1393L20.9581 42.1133Z" fill="#8960FF"/>
<path d="M39.951 45.1679L39.9639 46.2209L39.0149 46.2469L39.002 45.3499C39.002 44.9729 39.1709 44.6479 39.4439 44.4399C39.4569 44.4269 39.4699 44.4269 39.4699 44.4139C39.5089 44.3879 39.5609 44.3619 39.5999 44.3359C39.5609 44.3619 39.5219 44.3879 39.4699 44.4139L41.797 45.0769V45.1029L39.951 45.1679Z" fill="#8960FF"/>
<path d="M39.6 44.35C39.561 44.376 39.522 44.402 39.47 44.428C39.457 44.441 39.444 44.441 39.431 44.454C39.275 44.532 39.106 44.571 38.911 44.571L37.273 44.558L37.26 43.791L39.457 44.428C39.522 44.402 39.561 44.376 39.6 44.35Z" fill="#8960FF"/>
<path d="M80.3678 28.5282L76.0388 27.1762L77.5338 25.4082L79.4058 27.0332C79.8868 27.4492 80.2118 27.9692 80.3678 28.5282Z" fill="#8960FF"/>
<path d="M86.1658 26.6555L83.6308 29.5545L80.9138 28.7095C80.9918 28.5925 81.0828 28.4625 81.1868 28.3585L84.2158 24.9785L86.1658 26.6555Z" fill="#8960FF"/>
<path d="M81.5378 18.752L84.1898 19.623L83.2538 20.689L81.2778 19.038L81.5378 18.752Z" fill="#8960FF"/>
<path d="M108.058 37.1856L105.016 36.2366C105.718 36.0676 106.446 36.1586 107.083 36.4576C107.252 36.5356 107.408 36.6266 107.551 36.7306C107.733 36.8606 107.902 37.0166 108.058 37.1856Z" fill="#8960FF"/>
<path d="M104.015 31.2962L106.095 35.3262C106.888 36.8732 108.786 37.4712 110.333 36.6782L112.53 35.5342L111.282 33.2072L108.669 34.5592L106.277 30.0742L104.015 31.2962Z" fill="#8960FF"/>
<path d="M115.715 51.4996C115.559 51.4216 115.403 51.3306 115.247 51.2266C115.416 51.3046 115.572 51.3956 115.715 51.4996Z" fill="#8960FF"/>
<path d="M115.715 51.4996C115.559 51.4216 115.403 51.3306 115.247 51.2266C115.416 51.3046 115.572 51.3956 115.715 51.4996Z" fill="#8960FF"/>
<path d="M120.707 50.3166L118.51 51.4606C118.341 51.5516 118.159 51.6166 117.99 51.6686V48.7436L119.459 47.9766L120.707 50.3166Z" fill="#8960FF"/>
<path d="M125.985 50.1203L127.246 45.6743C127.727 44.0103 126.752 42.2683 125.088 41.7873L122.709 41.1113L122.02 43.6723L124.854 44.4783L123.502 49.4703L125.985 50.1203Z" fill="#8960FF"/>
<path d="M128.572 37.8887L127.259 42.2307C126.752 43.8947 127.701 45.6497 129.352 46.1437L131.731 46.8587L132.459 44.3107L129.638 43.4657L131.042 38.5777L128.572 37.8887Z" fill="#8960FF"/>
<path d="M128.104 34.0391L129.222 34.4161L128.52 34.7931L128.104 34.0391Z" fill="#8960FF"/>
<path d="M133.291 35.7566L133.252 37.2646L132.212 35.3926L133.291 35.7566Z" fill="#8960FF"/>
<path d="M96.5789 26.4353C96.4619 26.5653 96.3319 26.6823 96.1889 26.7863C95.8119 27.0723 95.3699 27.2803 94.8759 27.3713L90.3259 28.2293L89.8059 25.7073L94.8759 24.6933L94.5639 23.0293L97.4239 23.9653C97.5149 24.9013 97.1899 25.7983 96.5789 26.4353Z" fill="#8960FF"/>
<path d="M102.533 25.6426L97.9569 25.8376C96.2409 26.1236 95.0969 27.7486 95.3829 29.4646L95.7989 31.9086L98.3989 31.4276L97.9049 28.5286L102.91 27.6056L102.533 25.6426Z" fill="#8960FF"/>
<path d="M68.7201 24.6148V24.9008L66.2371 24.1208C66.4451 23.5098 66.8221 22.9768 67.3291 22.5998C67.4721 22.4958 67.6151 22.4048 67.7711 22.3268C68.1871 22.1058 68.6681 21.9888 69.1751 21.9758L73.803 21.9238L73.8811 24.4978L68.7201 24.6148Z" fill="#8960FF"/>
<path d="M68.9929 20.3242C68.8629 21.1432 68.4079 21.8452 67.7839 22.3132C67.6409 22.4172 67.4979 22.5082 67.3419 22.5992C66.9129 22.8202 66.4189 22.9502 65.8859 22.9502L62.4279 22.9372H62.4149H61.3359V22.5992V22.3132L68.9929 20.3242Z" fill="#8960FF"/>
<path d="M35.6612 66.6324L36.8572 64.0584L34.7122 63.0184L35.6222 61.0684L37.4292 61.9394C38.1832 62.3034 38.6772 62.9924 38.8202 63.7594C38.8462 63.9024 38.8592 64.0454 38.8592 64.2014C38.8592 64.5784 38.7812 64.9684 38.5992 65.3454L37.7412 67.1264L35.6612 66.6324Z" fill="#E0D7FF"/>
<path d="M40.7572 59.3125L39.0932 62.6015C38.4562 63.8625 38.9632 65.3965 40.2242 66.0205L42.0182 66.9175L42.9542 64.9935L40.8222 63.9275L42.6292 60.2225L40.7572 59.3125Z" fill="#E0D7FF"/>
<path d="M54.6932 61.2894C54.6932 61.6794 54.6152 62.0694 54.4332 62.4334L52.8082 65.8134L50.9102 64.9424L52.6782 61.1464L50.5332 60.1064L50.8322 59.4824L54.5892 60.6264C54.6152 60.7044 54.6282 60.7824 54.6412 60.8604C54.6672 61.0034 54.6802 61.1464 54.6932 61.2894Z" fill="#E0D7FF"/>
<path d="M58.7751 62.0823L57.8391 64.0063L56.0451 63.1093C55.3041 62.7323 54.8231 62.0563 54.6931 61.3023C54.6671 61.1593 54.6541 61.0163 54.6541 60.8603C54.6541 60.7953 54.6541 60.7173 54.6671 60.6523L57.9041 61.6403L58.7751 62.0823Z" fill="#E0D7FF"/>
<path d="M23.0901 61.6919L22.2581 63.3819L20.1521 62.8749L21.2051 60.7949L23.0901 61.6919Z" fill="#E0D7FF"/>
<path d="M56.9941 71.1816L57.7221 71.9616L56.4741 71.6626L56.9941 71.1816Z" fill="#E0D7FF"/>
<path d="M61.9601 72.9883L61.2971 72.8323L61.5701 72.5723L61.9601 72.9883Z" fill="#E0D7FF"/>
<path d="M80.4851 76.7725L80.4721 77.4485L80.4331 77.4615L75.9741 76.3825C75.9741 76.3305 75.9741 76.2915 75.9741 76.2395L76.0781 72.5605L78.1581 72.5865L78.0931 76.7075L80.4851 76.7725Z" fill="#E0D7FF"/>
<path d="M81.525 70.064L78.951 67.334C77.989 66.307 76.377 66.268 75.35 67.23L73.894 68.608L75.389 70.142L77.118 68.504L80.03 71.5199L81.525 70.064Z" fill="#E0D7FF"/>
<path d="M81.629 64.7071L80.147 66.0721C79.536 66.6311 78.73 66.8391 77.963 66.6961C77.82 66.6701 77.69 66.6311 77.547 66.5921C77.17 66.4621 76.832 66.2281 76.546 65.9161L75.688 64.9801L77.95 64.3041L78.392 64.7721L79.367 63.8751L80.511 63.5371L81.629 64.7071Z" fill="#E0D7FF"/>
<path d="M48.8432 69.8173L48.1932 69.6613L46.8931 69.3493L45.8792 67.2433L47.8032 66.2812L48.6742 68.0883C48.9342 68.6473 48.9862 69.2583 48.8432 69.8173Z" fill="#E0D7FF"/>
<path d="M53.8221 69.9736L52.3531 70.6756L49.1421 69.8956C49.2721 69.8046 49.4151 69.7136 49.5711 69.6486L52.9121 68.1016L53.8221 69.9736Z" fill="#E0D7FF"/>
<path d="M67.0561 62.9785C66.9651 63.0955 66.8741 63.1995 66.7571 63.2905C66.8611 63.1735 66.9521 63.0695 67.0561 62.9785Z" fill="#E0D7FF"/>
<path d="M68.9282 66.8655L66.8742 67.4765L66.3282 65.5395C66.1982 65.0845 66.1982 64.6165 66.3152 64.1875L68.3432 64.8115L68.9282 66.8655Z" fill="#E0D7FF"/>
<path d="M61.6741 62.7832L65.4571 63.9402L62.1551 64.8112L61.5701 62.8222L61.6741 62.7832Z" fill="#E0D7FF"/>
<path d="M67.0561 62.9785C66.9651 63.0955 66.8741 63.1995 66.7571 63.2905C66.8611 63.1735 66.9521 63.0695 67.0561 62.9785Z" fill="#E0D7FF"/>
<path d="M31.8 56.8557C31.761 56.8947 31.735 56.9207 31.696 56.9597C31.631 57.0247 31.553 57.1027 31.501 57.1937C31.02 57.8177 30.838 58.6367 31.059 59.4427L31.605 61.3797L33.659 60.7687L33.009 58.4807L37.026 57.2847L36.441 55.3477L31.8 56.8557Z" fill="#E0D7FF"/>
<path d="M31.8002 56.8555C31.7742 56.8815 31.7482 56.9205 31.7222 56.9465C31.6572 57.0375 31.5792 57.1155 31.4882 57.1805C31.1892 57.4405 30.8382 57.6485 30.4352 57.7525L26.8732 58.7014L26.8472 58.6234L31.6832 56.9595C31.7222 56.9205 31.7612 56.8945 31.8002 56.8555Z" fill="#E0D7FF"/>
<path d="M102.065 59.0512C102.065 59.4412 101.987 59.8312 101.805 60.1952L100.18 63.5752L98.282 62.7042L100.05 58.9082L98.451 58.1412L101.298 57.2832C101.675 57.6472 101.922 58.1282 102.013 58.6222C102.039 58.7652 102.065 58.9082 102.065 59.0512Z" fill="#E0D7FF"/>
<path d="M106.147 59.8442L105.211 61.7682L103.417 60.8712C102.676 60.4942 102.195 59.8182 102.052 59.0642C102.026 58.9212 102.013 58.7782 102.013 58.6222C102.013 58.2322 102.091 57.8292 102.286 57.4522L102.559 56.9062L105.328 56.0742L104.015 58.7782L106.147 59.8442Z" fill="#E0D7FF"/>
<path d="M115.819 62.7951L113.856 63.6141L113.622 62.5871L115.65 62.0801L115.819 62.7951Z" fill="#E0D7FF"/>
<path d="M98.1001 67.3711L99.9721 69.3731L97.8791 70.2311L96.5791 68.8141L98.1001 67.3711Z" fill="#E0D7FF"/>
<path d="M91.639 69.8804L89.065 67.1504C88.103 66.1234 86.4911 66.0844 85.4641 67.0464L84.0081 68.4244L85.5031 69.9584L87.2321 68.3204L90.157 71.3234L91.639 69.8804Z" fill="#E0D7FF"/>
<path d="M84.177 63.0034L86.66 65.7204C87.609 66.7604 89.221 66.8254 90.261 65.8764L91.743 64.5114L90.274 62.9514L88.519 64.5634L85.984 61.8594L85.1 62.1194L84.177 63.0034Z" fill="#E0D7FF"/>
<path d="M125.413 58.8317L120.941 60.6907L120.603 60.3527L122.059 58.9747C122.67 58.3897 123.489 58.1817 124.269 58.3247C124.412 58.3507 124.555 58.3897 124.685 58.4417C124.945 58.5067 125.192 58.6497 125.413 58.8317Z" fill="#E0D7FF"/>
<path d="M120.785 54.9176L123.268 57.6346C124.217 58.6746 125.829 58.7396 126.869 57.7906L128.351 56.4256L126.882 54.8656L125.127 56.4776L122.735 53.9296L121.903 53.8516L120.785 54.9176Z" fill="#E0D7FF"/>
<path d="M146.928 47.0008L145.446 48.3658C145.277 48.5088 145.108 48.6388 144.913 48.7428L141.988 48.3528C141.936 48.3138 141.897 48.2618 141.845 48.2098L139.622 45.7658L141.858 45.0898L143.704 47.0528L145.459 45.4408L146.928 47.0008Z" fill="#E0D7FF"/>
<path d="M111.308 54.2676L112.569 53.8906L109.41 55.4116L109.15 54.9176L111.308 54.2676Z" fill="#E0D7FF"/>
<path d="M115.403 54.0462L116.404 56.2042L114.467 57.1402L113.622 55.3202C113.362 54.7612 113.323 54.1762 113.466 53.6302L114.909 53.2012L116.807 53.3832L115.403 54.0462Z" fill="#E0D7FF"/>
<path d="M166.48 41.5933C166.48 41.5803 166.467 41.5543 166.467 41.5413L163.945 42.5683L164.478 41.4373L162.333 40.3973L163.126 38.6943L163.243 38.4473L163.516 38.5773L165.05 39.3183C165.804 39.6823 166.298 40.3713 166.441 41.1383C166.467 41.2683 166.48 41.3983 166.48 41.5283C166.48 41.5543 166.48 41.5803 166.48 41.5933Z" fill="#E0D7FF"/>
<path d="M168.105 37.1988L166.701 39.9808C166.506 40.3578 166.428 40.7608 166.428 41.1508C166.428 41.2808 166.441 41.4108 166.467 41.5408C166.467 41.5538 166.467 41.5798 166.48 41.5928C166.48 41.5798 166.48 41.5538 166.48 41.5408L168.781 40.6048L170.237 37.6018L168.911 36.9648L168.105 37.1988Z" fill="#E0D7FF"/>
<path d="M188.112 22.2361L186.604 25.3431V22.0801L188.112 22.2361Z" fill="#E0D7FF"/>
<path d="M188.489 26.9021L187.566 28.8391L186.604 28.3581V25.9531L188.489 26.9021Z" fill="#E0D7FF"/>
<path d="M150.113 44.1152L152.895 47.0792L150.789 47.9372L148.605 45.5452L150.113 44.1152Z" fill="#E0D7FF"/>
<path d="M155.261 46.1169L153.025 47.0269L154.689 45.5059L155.261 46.1169Z" fill="#E0D7FF"/>
<path d="M178.635 34.041C178.635 34.457 178.531 34.86 178.336 35.224C178.271 35.354 178.193 35.471 178.102 35.588C177.868 35.887 177.569 36.147 177.192 36.316L173.812 37.941L172.876 36.082L174.501 35.263L178.635 34.041Z" fill="#E0D7FF"/>
<path d="M183.445 34.6112L177.816 36.9122C177.79 36.4572 177.894 35.9892 178.102 35.5862C178.167 35.4562 178.245 35.3262 178.336 35.2092C178.57 34.8972 178.895 34.6372 179.285 34.4552L182.626 32.9082L183.445 34.6112Z" fill="#E0D7FF"/>
<path d="M156.808 41.996L154.754 42.607L154.39 41.333L156.444 40.709L156.808 41.996Z" fill="#E0D7FF"/>
<path d="M201.697 27.1632L195.951 29.5032C195.99 28.9962 196.172 28.5152 196.484 28.1122C196.575 27.9952 196.666 27.8912 196.783 27.8002C197.069 27.5402 197.407 27.3452 197.81 27.2282L201.411 26.2012L201.697 27.1632Z" fill="#E0D7FF"/>
<path d="M191.869 29.6466L195.431 28.6976C196.796 28.3336 197.602 26.9426 197.238 25.5776L196.718 23.6406L194.651 24.2256L195.262 26.5266L191.297 27.6446L191.869 29.6466Z" fill="#E0D7FF"/>
<path d="M64.3 42.4255C77.9845 42.4255 89.078 40.1149 89.078 37.2645C89.078 34.4142 77.9845 32.1035 64.3 32.1035C50.6155 32.1035 39.522 34.4142 39.522 37.2645C39.522 40.1149 50.6155 42.4255 64.3 42.4255Z" fill="#D0C7F9"/>
<path d="M129.222 23.9138C142.907 23.9138 154 21.6031 154 18.7528C154 15.9024 142.907 13.5918 129.222 13.5918C115.538 13.5918 104.444 15.9024 104.444 18.7528C104.444 21.6031 115.538 23.9138 129.222 23.9138Z" fill="#D0C7F9"/>
<path d="M74.4399 38.3176C76.6239 38.9676 76.5459 39.5526 74.9989 39.9166L76.9489 40.5016L73.7639 40.8266L71.7879 40.2286C69.6819 40.2676 67.2119 40.0726 65.2099 39.6826L65.0539 38.7336C66.6789 38.9936 68.4469 39.0976 69.7079 39.0066C70.5529 38.9416 71.0729 38.7986 70.4489 38.6036C69.6559 38.3696 67.3809 38.2526 65.1709 38.1226C62.3109 37.9536 59.2169 37.6156 56.7209 36.8486C54.5499 36.1856 54.4719 35.6396 56.0189 35.4056L53.3799 34.5996H57.4099L59.8019 35.3146C61.9599 35.4056 64.2089 35.6526 65.8469 35.9776L65.4959 36.6926C64.2089 36.4716 62.5839 36.3936 61.7909 36.4196C60.8809 36.4456 60.6729 36.5886 61.2189 36.7576C61.9469 36.9786 63.3249 37.0046 65.7819 37.1476C69.2529 37.3426 72.2949 37.6806 74.4399 38.3176Z" fill="#F8F5FF"/>
<path d="M138.491 19.3508C140.675 20.0008 140.597 20.5858 139.05 20.9498L141 21.5348L137.815 21.8598L135.839 21.2618C133.733 21.3008 131.263 21.1058 129.261 20.7158L129.105 19.7668C130.73 20.0268 132.498 20.1308 133.759 20.0398C134.604 19.9748 135.124 19.8318 134.5 19.6368C133.707 19.4028 131.432 19.2858 129.222 19.1558C126.362 18.9868 123.268 18.6488 120.772 17.8818C118.601 17.2188 118.523 16.6728 120.07 16.4388L117.418 15.6328H121.448L123.84 16.3478C125.998 16.4388 128.247 16.6858 129.885 17.0108L129.534 17.7258C128.247 17.5048 126.622 17.4268 125.829 17.4528C124.919 17.4788 124.711 17.6218 125.257 17.7908C125.985 18.0118 127.363 18.0378 129.82 18.1808C133.317 18.3758 136.346 18.7138 138.491 19.3508Z" fill="#F8F5FF"/>
<path d="M206.702 14.6444C211.811 26.3184 206.481 39.9164 194.807 45.0124C184.537 49.4974 172.785 45.9224 166.636 37.0564C165.791 35.8474 165.05 34.5344 164.439 33.1174C164.153 32.4544 163.893 31.7784 163.672 31.1024C160.292 20.8714 164.478 9.66537 173.643 4.14037L178.921 1.80037C184.407 0.136375 190.153 0.63037 195.119 2.89237C200.111 5.16737 204.323 9.22337 206.702 14.6444ZM200.15 17.1144L196.081 12.9934L182.938 26.5264L176.217 19.8054L172.434 23.9004L182.938 34.4044L200.15 17.1144Z" fill="#8960FF"/>
<path d="M200.15 17.1151L196.302 20.9761L194.703 22.5881L194.651 22.6401L192.792 24.4991L190.114 27.1901L189.139 28.1651L188.931 28.3731L187.397 29.9072L183.25 34.0801L182.938 34.3922L181.261 32.7151L181.248 32.7022L179.077 30.5311L174.696 26.1501L173.955 25.4091L172.434 23.8881L173.188 23.0821L174.098 22.0811L176.217 19.7931L181.183 24.7591L182.158 25.7471L182.938 26.5141L187.696 21.6261L188.606 20.6901L190.361 18.8831L194.638 14.4891L196.081 12.9941L196.757 13.6831L197.654 14.5931L197.719 14.6451L199.344 16.3091L200.15 17.1151Z" fill="#CFBEFF"/>
</svg>
