<svg width="151" height="100" viewBox="0 0 151 100" fill="none" xmlns="http://www.w3.org/2000/svg">
<path opacity="0.57" d="M150.646 91.4059V95.8609C150.646 97.8499 149.035 99.4699 147.037 99.4699H135.238L137.983 94.6369L145.012 82.2529C148.351 83.9359 150.646 87.4009 150.646 91.4059Z" fill="#F9E1B8"/>
<path opacity="0.57" d="M95.1791 95.7705L101.002 99.4605H77.6201C83.8661 99.4695 89.8061 98.1465 95.1791 95.7705Z" fill="#E28813"/>
<path opacity="0.57" d="M145.012 82.2437L137.983 94.6277L117.634 81.1547V81.1367H140.386C142.051 81.1457 143.617 81.5417 145.012 82.2437Z" fill="#F2AB55"/>
<path opacity="0.57" d="M137.983 94.6365L137.812 94.9335L137.155 96.0945L135.346 99.2715L135.238 99.4605H107.851L107.869 99.1905L107.986 97.2195L108.076 95.6895L108.22 93.2415L108.238 92.9715L108.607 86.5005C110.245 84.8445 111.748 83.0445 113.098 81.1455H117.652V81.1635L136.192 93.4395L137.317 94.1865L137.983 94.6365Z" fill="#E28813"/>
<path opacity="0.57" d="M74.5962 12.6378C75.5952 12.5658 76.6032 12.5298 77.6202 12.5298C101.632 12.5298 121.09 31.9878 121.09 55.9998C121.09 65.3688 118.129 74.0448 113.08 81.1458C111.73 83.0538 110.227 84.8448 108.589 86.5008C104.773 90.3798 100.228 93.5388 95.1792 95.7708C89.8062 98.1468 83.8662 99.4608 77.6202 99.4608C76.6032 99.4608 75.5952 99.4248 74.5962 99.3528C51.9972 97.8138 34.1501 78.9858 34.1501 55.9998C34.1501 33.0138 51.9972 14.1858 74.5962 12.6378Z" fill="#F9E1B8"/>
<path opacity="0.57" d="M108.589 86.501L107.851 99.461H101.002L95.1792 95.771C100.228 93.548 104.773 90.38 108.589 86.501Z" fill="#F2AB55"/>
<path opacity="0.57" d="M36.0762 81.1458C32.2872 75.8088 29.6682 69.5808 28.6062 62.8398C28.2552 60.6078 28.0662 58.3218 28.0662 55.9998C28.0662 31.9878 47.5242 12.5298 71.5362 12.5298C72.5622 12.5298 73.5882 12.5658 74.5962 12.6378C51.9972 14.1858 34.1502 33.0138 34.1502 55.9998C34.1502 78.9858 51.9972 97.8138 74.5962 99.3618C73.5882 99.4338 72.5622 99.4698 71.5362 99.4698C70.8972 99.4698 70.2492 99.4518 69.6192 99.4248C55.7772 98.8218 43.6182 91.7568 36.0942 81.1638C36.0852 81.1548 36.0762 81.1548 36.0762 81.1458Z" fill="#F2AB55"/>
<path opacity="0.57" d="M69.619 99.4248V99.4698H4.657C3.919 99.4698 3.244 99.2268 2.695 98.8218C1.894 98.2278 1.363 97.2738 1.354 96.2028V91.5138C1.354 90.5418 1.489 89.6058 1.741 88.7148C1.768 88.6158 1.795 88.5168 1.831 88.4178C2.083 87.6078 2.434 86.8428 2.866 86.1318C3.703 84.7638 4.837 83.6028 6.196 82.7478C6.466 82.5768 6.736 82.4238 7.024 82.2798C8.43701 81.5598 10.039 81.1548 11.731 81.1548H19.12V81.1728H36.094C39.604 86.1048 44.113 90.2808 49.333 93.3858C50.449 94.0518 51.592 94.6638 52.762 95.2218C52.78 95.2308 52.798 95.2398 52.816 95.2488C54.076 95.8518 55.372 96.3918 56.695 96.8778C60.754 98.3448 65.092 99.2268 69.619 99.4248Z" fill="#F9E1B8"/>
<path opacity="0.57" d="M36.0761 81.1456H19.1111V69.5896C19.1111 65.8636 22.1351 62.8486 25.8611 62.8486H28.6061C28.6871 63.3706 28.7771 63.8926 28.8851 64.4056C28.9211 64.5946 28.9571 64.7836 29.0021 64.9726C29.6411 68.0326 30.6041 70.9756 31.8551 73.7656C32.3321 74.8366 32.8631 75.8896 33.4211 76.9156C34.2221 78.3736 35.1131 79.7866 36.0761 81.1456Z" fill="#E28813"/>
<g opacity="0.57">
<path opacity="0.57" d="M13.2431 88.5259L15.6191 85.7899C16.5101 84.7639 16.4021 83.2069 15.3761 82.3159L13.9091 81.0469L12.5681 82.6309L14.3141 84.1429L11.6951 87.2389L13.2431 88.5259Z" fill="#F7C992"/>
<path opacity="0.57" d="M19.156 80.6958L16.78 83.3418C15.871 84.3588 15.952 85.9158 16.969 86.8248L18.418 88.1208L19.777 86.5548L18.058 85.0158L20.677 82.0098L19.156 80.6958Z" fill="#F7C992"/>
<path opacity="0.57" d="M24.4841 99.4697L24.5201 96.7517L22.2161 96.6977L22.2341 94.6187L24.1781 94.6637C24.9881 94.6817 25.7081 95.0957 26.1401 95.7167C26.2211 95.8337 26.2931 95.9597 26.3561 96.0857C26.5091 96.4187 26.5991 96.7967 26.5901 97.1927L26.5361 99.4697H24.4841Z" fill="#F7C992"/>
<path opacity="0.57" d="M26.059 91.019L25.906 94.574C25.852 95.933 26.905 97.085 28.264 97.139L30.208 97.22L30.262 95.15L27.958 95.051L28.075 91.064L26.059 91.019Z" fill="#F7C992"/>
<path opacity="0.57" d="M13.0722 99.4699H10.7412L10.0662 98.2549L8.03217 99.3439L7.02417 97.5259L8.73417 96.6079C9.45417 96.2209 10.2732 96.2299 10.9572 96.5539C11.0832 96.6169 11.2092 96.6889 11.3262 96.7699C11.6232 96.9859 11.8842 97.2649 12.0642 97.6069L13.0722 99.4699Z" fill="#F7C992"/>
<path opacity="0.57" d="M8.56299 92.5129L10.192 95.6809C10.813 96.8869 12.307 97.3639 13.513 96.7429L15.241 95.8519L14.26 94.0249L12.208 95.0869L10.336 91.5679L8.56299 92.5129Z" fill="#F7C992"/>
<path opacity="0.57" d="M1.2191 88.2199C1.0931 88.1569 0.967097 88.0849 0.850098 88.0039C0.985097 88.0669 1.1021 88.1389 1.2191 88.2199Z" fill="#F7C992"/>
<path opacity="0.57" d="M3.68504 92.2606L1.93004 93.2506L1.36304 92.2336V91.5226C1.36304 90.5506 1.49804 89.6146 1.75004 88.7236C1.83104 88.8316 1.91204 88.9486 1.97504 89.0746L3.68504 92.2606Z" fill="#F7C992"/>
<path opacity="0.57" d="M0.850098 88.0039C0.976097 88.0669 1.1021 88.1389 1.2191 88.2199C1.0931 88.1569 0.967097 88.0849 0.850098 88.0039Z" fill="#F7C992"/>
<path opacity="0.57" d="M5.13402 87.2928L3.40602 88.1838C2.90202 88.4448 2.34402 88.5168 1.82202 88.4178C2.07402 87.6078 2.42502 86.8428 2.85702 86.1318L4.14402 85.4658L5.13402 87.2928Z" fill="#F7C992"/>
<path opacity="0.57" d="M39.9011 93.9617L38.1821 90.7668C37.5341 89.5698 36.0401 89.1198 34.8431 89.7588L33.1331 90.6768L34.1411 92.4948L36.1751 91.4058L38.1371 94.9517L39.9011 93.9617Z" fill="#F7C992"/>
<path opacity="0.57" d="M34.6812 85.6638L36.3101 88.8318C36.9311 90.0378 38.4251 90.5148 39.6311 89.8938L41.3591 89.0028L40.3781 87.1758L38.3261 88.2378L36.4541 84.7188L34.6812 85.6638Z" fill="#F7C992"/>
<path opacity="0.57" d="M42.8621 96.2837L44.5631 99.4697H42.2411L41.0891 97.2467L42.8621 96.2837Z" fill="#F7C992"/>
<path opacity="0.57" d="M47.1821 99.47H45.3911L46.7951 98.75L47.1821 99.47Z" fill="#F7C992"/>
<path opacity="0.57" d="M50.0712 99.4699L51.0162 95.9959L48.7932 95.3659L49.3242 93.3769V93.3589L51.1962 93.8899C51.9162 94.0969 52.4652 94.5919 52.7532 95.2219C52.7802 95.2849 52.8072 95.3389 52.8252 95.4019C52.8792 95.5369 52.9152 95.6719 52.9422 95.8069C53.0142 96.1669 52.9962 96.5539 52.8882 96.9319L52.1682 99.4699H50.0712Z" fill="#F7C992"/>
<path opacity="0.57" d="M56.6951 96.869L56.4071 97.868L54.5441 97.31C53.7791 97.076 53.2121 96.509 52.9511 95.816C52.9061 95.681 52.8611 95.546 52.8341 95.411C52.8251 95.357 52.8161 95.303 52.8071 95.249C54.0761 95.843 55.3721 96.392 56.6951 96.869Z" fill="#F7C992"/>
<path opacity="0.57" d="M29.299 81.1636C29.191 81.4156 29.038 81.6406 28.849 81.8476C28.75 81.9556 28.651 82.0456 28.534 82.1266C28.237 82.3516 27.886 82.5136 27.499 82.5856L23.935 83.2516L23.53 81.2806L24.106 81.1636H29.299Z" fill="#F7C992"/>
<path opacity="0.57" d="M33.5022 81.1636L33.8082 82.7656L29.8842 83.4856L30.2712 85.7626L28.2282 86.1406L27.8952 84.2236C27.7602 83.4316 28.0212 82.6666 28.5252 82.1266C28.6242 82.0276 28.7232 81.9286 28.8402 81.8476C29.1462 81.6136 29.5062 81.4516 29.9112 81.3886L31.1982 81.1726H33.5022V81.1636Z" fill="#F7C992"/>
<path opacity="0.57" d="M2.902 96.3286L2.695 98.8216C1.894 98.2276 1.363 97.2736 1.354 96.2026L2.902 96.3286Z" fill="#F7C992"/>
<path opacity="0.57" d="M7.02405 82.7208L6.19604 82.7478C6.46604 82.5768 6.73605 82.4238 7.02405 82.2798V82.7208Z" fill="#F7C992"/>
</g>
<g opacity="0.57">
<path opacity="0.57" d="M111.046 90.5415L112.54 88.8225C113.098 88.1745 113.035 87.1935 112.387 86.6355L111.46 85.8345L110.623 86.8335L111.721 87.7875L110.074 89.7315L111.046 90.5415Z" fill="#F2AB55"/>
<path opacity="0.57" d="M114.754 85.6187L113.26 87.2837C112.684 87.9227 112.738 88.9037 113.377 89.4707L114.286 90.2896L115.141 89.3086L114.061 88.3367L115.708 86.4467L114.754 85.6187Z" fill="#F2AB55"/>
<path opacity="0.57" d="M116.149 80.9023C116.14 80.9833 116.131 81.0643 116.113 81.1453C116.113 81.1453 116.113 81.1543 116.113 81.1633C116.059 81.3883 115.942 81.6043 115.78 81.7933L114.286 83.5123L113.314 82.7023L114.619 81.1543H116.113C116.113 81.0643 116.122 80.9833 116.149 80.9023Z" fill="#F2AB55"/>
<path opacity="0.57" d="M118.381 82.2706L117.526 83.2515L116.617 82.4325C116.239 82.0995 116.068 81.6226 116.104 81.1546C116.104 81.1456 116.104 81.1456 116.104 81.1366C116.113 81.0556 116.122 80.9746 116.149 80.8936C116.14 80.9746 116.131 81.0556 116.113 81.1366H117.445L117.31 81.2896L118.381 82.2706Z" fill="#F2AB55"/>
<path opacity="0.57" d="M119.362 98.2547L119.416 95.9777C119.434 95.1227 118.759 94.4117 117.904 94.3937L116.68 94.3667L116.671 95.6717L118.12 95.7077L118.093 98.2547H119.362Z" fill="#F2AB55"/>
<path opacity="0.57" d="M119.092 92.0986L118.993 94.3306C118.957 95.1857 119.623 95.9057 120.478 95.9417L121.702 95.9867L121.738 94.6817L120.289 94.6186L120.361 92.1166L119.092 92.0986Z" fill="#F2AB55"/>
<path opacity="0.57" d="M108.067 95.6984L108.211 95.6174C108.661 95.3744 109.183 95.3834 109.615 95.5904C109.687 95.6264 109.768 95.6714 109.831 95.7164C110.02 95.8514 110.191 96.0314 110.308 96.2474L111.388 98.2544L110.281 98.8754L109.048 96.6434L107.986 97.2194L108.067 95.6984Z" fill="#F2AB55"/>
<path opacity="0.57" d="M108.103 93.0434L109.129 95.0324C109.525 95.7884 110.452 96.0944 111.217 95.6984L112.306 95.1404L111.694 93.9884L110.407 94.6544L109.228 92.4404L108.103 93.0434Z" fill="#F2AB55"/>
<path opacity="0.57" d="M123.385 99.4698H121.936L121.711 99.0288L122.827 98.4258L123.385 99.4698Z" fill="#F2AB55"/>
<path opacity="0.57" d="M127.795 93.9525L126.715 91.9455C126.31 91.1895 125.374 90.9105 124.618 91.3155L123.538 91.8915L124.168 93.0345L125.446 92.3505L126.679 94.5825L127.795 93.9525Z" fill="#F2AB55"/>
<path opacity="0.57" d="M124.51 88.7324L125.536 90.7214C125.932 91.4774 126.859 91.7834 127.624 91.3874L128.713 90.8294L128.101 89.6774L126.814 90.3434L125.635 88.1294L124.51 88.7324Z" fill="#F2AB55"/>
<path opacity="0.57" d="M129.487 99.4697H130.882L130.747 99.2267C130.63 99.0017 130.459 98.8217 130.27 98.6867C130.198 98.6417 130.126 98.5967 130.054 98.5607C129.622 98.3537 129.1 98.3537 128.65 98.5877L127.57 99.1637L127.732 99.4607H129.487V99.4697Z" fill="#F2AB55"/>
<path opacity="0.57" d="M128.542 96.0136L129.568 98.0026C129.964 98.7586 130.891 99.0646 131.656 98.6686L132.745 98.1106L132.133 96.9586L130.846 97.6246L129.667 95.4106L128.542 96.0136Z" fill="#F2AB55"/>
<path opacity="0.57" d="M135.346 98.0114L135.967 95.8154C136.201 94.9964 135.724 94.1324 134.905 93.8984L133.726 93.5654L133.384 94.8254L134.779 95.2214L134.113 97.6784L135.346 98.0114Z" fill="#F2AB55"/>
<path opacity="0.57" d="M137.812 94.9335L137.146 94.7355L137.308 94.1865L136.183 93.4395L135.976 94.1235C135.904 94.3665 135.895 94.6184 135.931 94.8524C135.949 94.9424 135.967 95.0235 136.003 95.1045C136.165 95.5455 136.525 95.8965 137.002 96.0495L137.146 96.0945L137.812 94.9335Z" fill="#F2AB55"/>
<path opacity="0.57" d="M134.986 99.1724L135.346 99.2804L135.238 99.4694H134.896L134.986 99.1724Z" fill="#F2AB55"/>
<path opacity="0.57" d="M117.76 87.2205L120.001 86.7975C120.838 86.6355 121.396 85.8345 121.234 84.9885L121.009 83.7915L119.731 84.0525L120.001 85.4745L117.508 85.9785L117.76 87.2205Z" fill="#F2AB55"/>
<path opacity="0.57" d="M123.727 85.6724L121.522 86.0504C120.676 86.1944 120.109 86.9954 120.253 87.8414L120.46 89.0474L121.738 88.8044L121.495 87.3734L123.961 86.9234L123.727 85.6724Z" fill="#F2AB55"/>
<path opacity="0.57" d="M116.608 99.4695H116.185L116.221 99.3525L116.608 99.4695Z" fill="#F2AB55"/>
<path opacity="0.57" d="M107.869 99.1904L108.013 99.4694H107.851L107.869 99.1904Z" fill="#F2AB55"/>
</g>
<g opacity="0.57">
<path opacity="0.57" d="M23.9081 69.3648L25.6091 67.4028C26.2481 66.6648 26.1671 65.5488 25.4381 64.9188L24.3851 64.0098L23.4311 65.1438L24.6821 66.2238L22.8101 68.4378L23.9081 69.3648Z" fill="#F9E1B8"/>
<path opacity="0.57" d="M28.1381 63.7578L26.4371 65.6568C25.7891 66.3858 25.8431 67.4928 26.5721 68.1498L27.6071 69.0768L28.5791 67.9608L27.3461 66.8628L29.2271 64.7118L28.1381 63.7578Z" fill="#F9E1B8"/>
<path opacity="0.57" d="M33.4213 76.9067L33.3943 78.1487L31.9543 78.1397L31.9903 75.2417L30.3433 75.2057L30.3613 73.7207L31.7563 73.7567C31.7923 73.7567 31.8373 73.7567 31.8733 73.7657C32.3323 74.8367 32.8543 75.8807 33.4213 76.9067Z" fill="#F9E1B8"/>
<path opacity="0.57" d="M24.3042 78.158L23.0802 75.872C22.6212 75.017 21.5502 74.693 20.6952 75.152L19.4712 75.809L20.1912 77.105L21.6492 76.322L23.0532 78.86L24.3042 78.158Z" fill="#F9E1B8"/>
<path opacity="0.57" d="M20.5601 72.2177L21.7301 74.4857C22.1801 75.3497 23.2421 75.6917 24.1061 75.2417L25.3391 74.6027L24.6371 73.2977L23.1701 74.0537L21.8291 71.5337L20.5601 72.2177Z" fill="#F9E1B8"/>
<path opacity="0.57" d="M31.2342 79.8319L30.8202 81.1459H26.2842L26.5812 80.1379L29.3082 80.9749L29.8122 79.3999L31.2342 79.8319Z" fill="#F9E1B8"/>
<path opacity="0.57" d="M20.0742 78.8057L21.3252 81.1457H19.6602L19.1112 80.0927L18.8052 79.4897L19.1112 79.3277L20.0742 78.8057Z" fill="#F9E1B8"/>
<path opacity="0.57" d="M23.1971 81.1458H21.7661L22.8821 80.5698L23.1971 81.1458Z" fill="#F9E1B8"/>
</g>
<path opacity="0.57" d="M93.001 67.0245C93.001 73.2795 88.384 77.6625 82.336 79.2105V84.5205H72.913V79.3905C67.963 78.4095 63.868 75.7995 62.248 72.2445L68.908 65.7105C70.627 68.2575 73.849 69.7965 77.314 69.7965C79.654 69.7965 81.94 68.9505 81.94 67.2495C81.94 65.1165 77.701 63.2355 73.633 61.4355C68.386 59.1765 63.886 55.7295 63.886 49.4835C63.886 44.0295 67.819 39.7635 73.165 38.0355V31.1235H82.588V37.6215C86.935 38.5845 90.193 41.0865 91.453 44.2635L85.099 50.3835C83.866 48.1965 80.68 47.2425 78.7 47.2425C76.441 47.2425 74.821 48.3945 74.821 49.8165C74.821 51.7155 77.755 52.3365 82.228 54.2175C88.699 56.9355 93.001 60.9045 93.001 67.0245Z" fill="#E28813"/>
<path d="M98.0949 32.7709C99.8595 32.7709 101.29 31.3404 101.29 29.5759C101.29 27.8113 99.8595 26.3809 98.0949 26.3809C96.3304 26.3809 94.8999 27.8113 94.8999 29.5759C94.8999 31.3404 96.3304 32.7709 98.0949 32.7709Z" fill="#F23C3C"/>
<path d="M98.095 22.4478C96.268 22.4478 94.792 20.9718 94.792 19.1448V3.97976C94.792 2.15276 96.268 0.676758 98.095 0.676758C99.922 0.676758 101.398 2.15276 101.398 3.97976V19.1358C101.398 20.9628 99.922 22.4478 98.095 22.4478Z" fill="#F23C3C"/>
</svg>
