<svg width="141" height="112" viewBox="0 0 141 112" fill="none" xmlns="http://www.w3.org/2000/svg">
<path d="M88.892 67.2539L93.446 71.0159C87.983 76.0559 84.554 83.2739 84.554 91.2929C84.554 94.9829 85.283 98.5019 86.597 101.724H48.32L11.042 88.5569L13.382 79.1969L14.336 75.3899L21.023 48.6419L51.362 36.2129L58.265 41.9279L61.199 44.3489L62.486 45.4109L64.691 47.2379L71.279 52.6829L73.799 54.7619L75.5 56.1659L77.705 57.9929L87.974 66.4799L88.892 67.2539Z" fill="#F9E1B8"/>
<path d="M81.0894 24.0356L51.3624 36.2126L21.0234 48.6417L27.1794 24.0356H81.0894Z" fill="#F2AB55"/>
<path d="M62.4865 0.275879V9.91488L58.5985 9.41988L46.0795 7.82688L15.6055 3.94788L21.0235 0.275879H62.4865Z" fill="#F2AB55"/>
<path d="M22.6428 17.6098H14.3358V36.5008L4.20183 53.9878L2.13184 26.1418L15.8658 13.6318L22.6428 17.6098Z" fill="#FAF2EB"/>
<path d="M128.618 9.91504L119.474 11.427L95.6237 15.369L74.5098 10.005V9.91504H128.618Z" fill="#F2AB55"/>
<path d="M14.336 55.5537V75.3808L13.382 79.1879L7.79297 76.6408L14.336 55.5537Z" fill="#F2AB55"/>
<path d="M46.0793 7.82703L45.7463 9.16803L45.6473 9.58203L45.2603 11.175L44.6393 13.677L43.6853 17.601L43.6763 17.619H22.6433L21.0503 16.683L15.8663 13.632L8.07227 9.05103L10.0253 7.73703L12.7523 5.88303L12.8873 5.79303L15.6053 3.95703L24.7223 5.11803L26.3063 5.31603L38.8163 6.90903L40.3373 7.09803L44.9903 7.69203L46.0793 7.82703Z" fill="#EFB66A"/>
<path d="M128.618 9.91504V24.036H115.631L119.474 11.427L128.618 9.91504Z" fill="#F7C57C"/>
<path d="M104.444 17.6099H64.0967L58.5977 9.41992L62.4857 9.91492H74.5097V10.0049L95.6237 15.3689L104.444 17.6099Z" fill="#F7C57C"/>
<path d="M48.32 101.724H7.74805L7.79305 101.544L8.27005 99.636L8.61204 98.286L9.14305 96.162L9.93505 93.0031L10.745 89.7631L10.754 89.7271L11.051 88.5571L11.582 88.7461L12.014 88.8991L14.255 89.6911L15.74 90.2131L27.944 94.5241L29.609 95.1091L36.962 97.71L39.383 98.565L39.509 98.61L42.389 99.627L48.32 101.724Z" fill="#F7C57C"/>
<path d="M14.3361 36.501V55.554L13.1211 59.469L12.5811 61.206L12.2482 62.277L11.6182 64.302L10.3132 68.532L9.89015 69.891L7.79315 76.641L6.25415 81.609L5.69615 74.049L5.58815 72.654L5.28215 68.451L4.69715 60.675L4.59815 59.253L4.20215 53.988L9.45815 44.916L10.2411 43.566L14.1832 36.762L14.3361 36.501Z" fill="#F7C57C"/>
<path d="M15.8661 13.6318L2.13208 26.1418L1.20508 13.6948L8.07208 9.05078L15.8661 13.6318Z" fill="#F7C57C"/>
<path d="M81.0893 24.0361L51.3623 36.2131L58.2653 41.9281L61.1993 44.3491L62.4863 45.4111L64.6913 47.2381L71.2793 52.6831L73.7993 54.7621L75.5003 56.1661L77.7053 57.9931L87.9743 66.4801L88.9013 67.2451L93.4553 71.0071C95.0123 69.5761 96.7223 68.3161 98.5763 67.2721C99.3233 66.8491 100.097 66.4621 100.889 66.1021C104.318 64.5631 108.125 63.7171 112.13 63.7171C112.67 63.7171 113.21 63.7351 113.75 63.7621C115.271 63.8521 116.756 64.0591 118.196 64.3831C120.284 64.8511 122.282 65.5531 124.154 66.4711C125.693 67.2181 127.16 68.1091 128.519 69.1171L129.077 67.0831L133.541 50.7121L134.153 48.4801L135.26 44.4121L135.917 42.0181L140.822 24.0181H81.0893V24.0361Z" fill="#FAF2EB"/>
<path d="M13.3819 79.1881L11.0419 88.5571L7.74791 101.724L6.25391 81.6091L7.79291 76.6411L13.3819 79.1881Z" fill="#FAF2EB"/>
<path d="M119.474 11.4268L115.631 24.0358H113.849V17.6098H104.444L95.624 15.3688L119.474 11.4268Z" fill="#FAF2EB"/>
<path d="M58.5978 9.41966L64.0968 17.6097H43.6758L46.0788 7.82666L58.5978 9.41966Z" fill="#FAF2EB"/>
<path d="M15.6052 3.94788L8.07217 9.04188L1.20517 13.6949C0.665173 6.44988 6.39817 0.275879 13.6612 0.275879H21.0142L15.6052 3.94788Z" fill="#FAF2EB"/>
<path d="M14.3359 36.5009V17.6099H22.6429H43.6759H64.0969H104.444H113.849V24.0359H81.0889H27.1789L21.0229 48.6419L14.3359 75.3809V55.5539V36.5009Z" fill="#F9E1B8"/>
<path d="M11.2132 93.9746L12.9142 92.0126C13.5532 91.2746 13.4722 90.1586 12.7432 89.5286L11.6902 88.6196L10.7362 89.7536L11.9872 90.8336L10.1152 93.0476L11.2132 93.9746Z" fill="#F2AB55"/>
<path d="M15.8754 92.5616L14.9034 93.6776L13.8684 92.7506C13.4454 92.3636 13.2474 91.8236 13.2924 91.2926C13.3014 91.1936 13.3194 91.0946 13.3464 90.9956C13.4184 90.7346 13.5444 90.4736 13.7424 90.2576L14.2644 89.6816L15.7494 90.2036L14.6604 91.4546L15.8754 92.5616Z" fill="#F2AB55"/>
<path d="M19.2501 101.724L19.2681 99.8518L17.6211 99.8068L17.6391 98.3218L19.0341 98.3578C19.6191 98.3758 20.1231 98.6638 20.4381 99.1138C20.4921 99.1948 20.5461 99.2848 20.5911 99.3748C20.6991 99.6178 20.7621 99.8878 20.7531 100.167L20.7171 101.724H19.2501Z" fill="#F2AB55"/>
<path d="M20.3745 95.7476L20.2665 98.2946C20.2215 99.2666 20.9865 100.086 21.9585 100.131L23.3446 100.185L23.3806 98.6996L21.7335 98.6276L21.8145 95.7746L20.3745 95.7476Z" fill="#F2AB55"/>
<path d="M7.79297 101.544L8.93597 100.932L9.37697 101.724H11.042L10.376 100.482C10.241 100.23 10.052 100.032 9.83597 99.8788C9.75497 99.8248 9.67397 99.7708 9.58397 99.7258C9.18797 99.5368 8.71997 99.5008 8.27897 99.6358L7.79297 101.544Z" fill="#F2AB55"/>
<path d="M9.14288 96.1616L10.4749 98.6547L11.9419 97.8986L12.6439 99.2037L11.4109 99.8427C10.8979 100.104 10.3219 100.095 9.84488 99.8697C9.75488 99.8247 9.67388 99.7797 9.59288 99.7167C9.36788 99.5547 9.17888 99.3477 9.04388 99.0867L8.62988 98.2767L9.14288 96.1616Z" fill="#F2AB55"/>
<path d="M30.2842 97.8537L29.0602 95.5678C28.6012 94.7128 27.5302 94.3888 26.6752 94.8478L25.4512 95.5048L26.1712 96.8008L27.6292 96.0178L29.0332 98.5557L30.2842 97.8537Z" fill="#F2AB55"/>
<path d="M29.6003 95.1088C29.2313 95.1808 28.8533 95.1268 28.5203 94.9649C28.4303 94.9199 28.3403 94.8659 28.2593 94.8119C28.1423 94.7309 28.0343 94.6319 27.9443 94.5239L29.6003 95.1088Z" fill="#F2AB55"/>
<path d="M32.4077 99.5186L33.5777 101.724H31.9127L31.1387 100.203L32.4077 99.5186Z" fill="#F2AB55"/>
<path d="M35.4503 101.724H34.3613L35.2163 101.283L35.4503 101.724Z" fill="#F2AB55"/>
<path d="M39.5807 99.9867L39.0857 101.724H37.5827L38.2307 99.3117L36.6377 98.8617L36.9527 97.7097L37.0247 97.4307L38.3657 97.8087C38.7977 97.9347 39.1487 98.2137 39.3736 98.5647C39.4366 98.6637 39.4907 98.7717 39.5357 98.8887C39.5717 98.9787 39.5986 99.0777 39.6166 99.1767C39.6706 99.4377 39.6616 99.7167 39.5807 99.9867Z" fill="#F2AB55"/>
<path d="M42.3888 99.6267L42.0918 100.653L40.7598 100.257C40.2108 100.095 39.8058 99.6807 39.6168 99.1857C39.5808 99.0957 39.5538 98.9967 39.5358 98.8977C39.5178 98.8077 39.5088 98.7087 39.5088 98.6187L42.3888 99.6267Z" fill="#F2AB55"/>
<path d="M76.0579 48.255L79.0728 44.781C80.2068 43.476 80.0628 41.505 78.7578 40.371L76.8949 38.751L75.1939 40.767L77.4078 42.684L74.0869 46.608L76.0579 48.255Z" fill="#F9E1B8"/>
<path d="M83.5455 38.3188L80.5214 41.6759C79.3694 42.9629 79.4774 44.9428 80.7554 46.0948L82.5915 47.7418L84.3195 45.7528L82.1415 43.7998L85.4715 39.9929L83.5455 38.3188Z" fill="#F9E1B8"/>
<path d="M82.5823 34.0616L85.5972 30.5876C86.7312 29.2826 86.5872 27.3116 85.2822 26.1776L83.4193 24.5576L81.7183 26.5736L83.9323 28.4906L80.6113 32.4146L82.5823 34.0616Z" fill="#F9E1B8"/>
<path d="M90.0709 24.126L87.0468 27.483C85.8948 28.77 86.0028 30.75 87.2808 31.902L89.1169 33.549L90.8449 31.56L88.6669 29.607L91.9969 25.8L90.0709 24.126Z" fill="#F9E1B8"/>
<path d="M102.256 35.6817L105.271 32.2077C106.405 30.9027 106.261 28.9317 104.956 27.7977L103.093 26.1777L101.392 28.1937L103.606 30.1107L100.285 34.0347L102.256 35.6817Z" fill="#F9E1B8"/>
<path d="M109.754 25.7461L106.729 29.1031C105.577 30.3901 105.685 32.3701 106.963 33.5221L108.799 35.1691L110.528 33.1801L108.349 31.2271L111.68 27.4201L109.754 25.7461Z" fill="#F9E1B8"/>
<path d="M92.8518 63.8338L92.9688 59.2348C93.0138 57.5068 91.6458 56.0758 89.9178 56.0308L87.4518 55.9678L87.4248 58.6048L90.3498 58.6768L90.2868 63.8158L92.8518 63.8338Z" fill="#F9E1B8"/>
<path d="M92.3119 51.4048L92.1229 55.9138C92.0509 57.6418 93.3919 59.0999 95.1199 59.1719L97.5859 59.2709L97.6579 56.6428L94.7329 56.5258L94.8769 51.4678L92.3119 51.4048Z" fill="#F9E1B8"/>
<path d="M72.3675 52.0889L73.7895 54.7619L71.2695 52.6829L72.3675 52.0889Z" fill="#F9E1B8"/>
<path d="M78.5871 57.5339L77.6961 57.9929L75.4912 56.1659L77.3451 55.2119L78.5871 57.5339Z" fill="#F9E1B8"/>
<path d="M114.92 24.0356H115.973L115.865 24.3506L114.92 24.0356Z" fill="#F9E1B8"/>
<path d="M59.5426 41.2349L61.1986 44.3489L58.2646 41.9279L59.5426 41.2349Z" fill="#F9E1B8"/>
<path d="M65.7616 46.6799L64.6816 47.2379L62.4766 45.4109L64.5196 44.3579L65.7616 46.6799Z" fill="#F9E1B8"/>
<path d="M100.88 66.1198C100.088 66.4708 99.3229 66.8668 98.5669 67.2898L97.5859 65.3908L99.8359 64.1758L100.88 66.1198Z" fill="#F9E1B8"/>
<path d="M109.88 55.1398L107.702 51.0899C106.883 49.5689 104.993 48.9929 103.463 49.8119L101.294 50.9819L102.572 53.2858L105.146 51.8999L107.639 56.3998L109.88 55.1398Z" fill="#F9E1B8"/>
<path d="M103.247 44.6097L105.317 48.6237C106.109 50.1627 107.999 50.7568 109.529 49.9648L111.716 48.8308L110.474 46.5087L107.873 47.8497L105.497 43.3857L103.247 44.6097Z" fill="#F9E1B8"/>
<path d="M119.852 63.5371L118.187 64.4011C116.747 64.0771 115.253 63.8611 113.741 63.7801C113.633 63.6361 113.543 63.4921 113.453 63.3301L111.383 59.3161L113.633 58.1011L116.009 62.5651L118.61 61.2241L119.852 63.5371Z" fill="#F9E1B8"/>
<path d="M125.107 63.339L126.367 58.911C126.844 57.246 125.881 55.518 124.216 55.05L121.84 54.375L121.156 56.922L123.973 57.723L122.632 62.691L125.107 63.339Z" fill="#F9E1B8"/>
<path d="M127.682 51.1621L126.368 55.4821C125.864 57.1381 126.8 58.884 128.456 59.379L130.814 60.09L131.543 57.5611L128.744 56.7151L130.148 51.8551L127.682 51.1621Z" fill="#F9E1B8"/>
<path d="M133.532 50.7296L132.686 51.2066L130.193 46.7066L127.61 48.0926L126.332 45.7887L128.501 44.6187C129.41 44.1327 130.454 44.1327 131.327 44.5467C131.489 44.6187 131.642 44.7177 131.795 44.8167C132.182 45.0867 132.506 45.4467 132.74 45.8877L134.135 48.4886L133.532 50.7296Z" fill="#F9E1B8"/>
<path d="M135.251 44.4207L134.576 44.7717C133.676 45.2397 132.65 45.2217 131.804 44.8167C131.642 44.7357 131.489 44.6457 131.336 44.5467C130.94 44.2677 130.607 43.8897 130.364 43.4307L128.294 39.4167L130.544 38.2017L132.92 42.6657L135.521 41.3247L135.899 42.0357L135.251 44.4207Z" fill="#F9E1B8"/>
<path d="M129.068 67.1007L128.51 69.1347C127.142 68.1267 125.684 67.2357 124.145 66.4887L124.388 65.6787L129.068 67.1007Z" fill="#F9E1B8"/>
<path d="M89.6119 41.5587L94.1389 40.7127C95.8399 40.3977 96.9559 38.7597 96.6319 37.0587L96.1729 34.6377L93.5899 35.1597L94.1299 38.0397L89.0898 39.0567L89.6119 41.5587Z" fill="#F9E1B8"/>
<path d="M101.654 38.4268L97.1991 39.1828C95.4981 39.4708 94.355 41.0908 94.643 42.7918L95.0571 45.2217L97.6491 44.7358L97.1541 41.8468L102.131 40.9288L101.654 38.4268Z" fill="#F9E1B8"/>
<path d="M89.0357 66.804L88.8917 67.254L87.9648 66.48L89.0357 66.804Z" fill="#F9E1B8"/>
<path d="M73.1863 35.2681L68.5873 35.3221C66.8594 35.3401 65.4734 36.7621 65.5004 38.4901L65.5274 40.9561L68.1644 40.8841L68.1283 37.9591L73.2673 37.8331L73.1863 35.2681Z" fill="#F9E1B8"/>
<path d="M60.7753 36.2756L65.2933 36.3026C67.0213 36.3116 68.4253 34.9166 68.4343 33.1886L68.4433 30.7227L65.8153 30.7497L65.8063 33.6746L60.7393 33.7196L60.7753 36.2756Z" fill="#F9E1B8"/>
<path d="M126.061 36.5098L121.462 36.5638C119.734 36.5818 118.348 38.0038 118.375 39.7318L118.402 42.1978L121.039 42.1258L121.003 39.2008L126.142 39.0748L126.061 36.5098Z" fill="#F9E1B8"/>
<path d="M113.651 37.5178L118.169 37.5448C119.897 37.5538 121.301 36.1588 121.31 34.4308L121.319 31.9648L118.691 31.9918L118.682 34.9168L113.624 34.9618L113.651 37.5178Z" fill="#F9E1B8"/>
<path d="M137.465 26.25L132.866 26.304C131.138 26.322 129.752 27.744 129.779 29.472L129.806 31.938L132.443 31.866L132.407 28.941L137.546 28.815L137.465 26.25Z" fill="#F9E1B8"/>
<path d="M132.721 24.0359V24.1619C132.712 25.1789 132.226 26.0789 131.479 26.6459C131.335 26.7539 131.182 26.8529 131.02 26.9339C130.588 27.1499 130.102 27.2759 129.589 27.2759L125.071 27.2489L125.035 24.6929L130.093 24.6479V24.0269H132.721V24.0359Z" fill="#F9E1B8"/>
<path d="M8.94434 44.1241L10.3033 46.2121C10.8163 46.9951 11.8603 47.2201 12.6433 46.7071L13.7593 45.9781L12.9673 44.7901L11.6353 45.6541L10.0873 43.3501L8.94434 44.1241Z" fill="#F9E1B8"/>
<path d="M12.9944 49.5058L11.6984 47.4358C11.2034 46.6438 10.1594 46.4008 9.3674 46.8958L8.2334 47.6068L9.0074 48.8038L10.3484 47.9578L11.8334 50.2618L12.9944 49.5058Z" fill="#F9E1B8"/>
<path d="M12.7155 58.8569L13.1205 59.4689L12.5805 61.2059L11.5635 59.6399L12.7155 58.8569Z" fill="#F9E1B8"/>
<path d="M11.9865 62.4119C12.0675 62.3579 12.1575 62.3129 12.2475 62.2769L11.6175 64.3019L10.8525 63.1228L11.9865 62.4119Z" fill="#F9E1B8"/>
<path d="M7.07266 60.1708L4.69665 60.6748L4.59766 59.2528L6.77565 58.8208L7.07266 60.1708Z" fill="#F9E1B8"/>
<path d="M6.02889 73.9769L5.69589 74.0489L5.58789 72.6539L5.73189 72.627L6.02889 73.9769Z" fill="#F9E1B8"/>
<path d="M10.4031 52.1787L10.1691 54.6628C10.0791 55.5898 10.7631 56.4178 11.6991 56.5078L13.0311 56.6338L13.1481 55.2118L11.5731 55.0678L11.7981 52.2957L10.4031 52.1787Z" fill="#F9E1B8"/>
<path d="M10.2318 58.9109L10.5018 56.4808C10.6008 55.5538 9.93483 54.7168 9.00782 54.6088L7.68481 54.4648L7.5498 55.8868L9.12482 56.0578L8.85482 58.7848L10.2318 58.9109Z" fill="#F9E1B8"/>
<path d="M14.318 39.7319L14.336 39.7409V41.2169L13.958 41.1089L14.318 39.7319Z" fill="#F9E1B8"/>
<path d="M7.58523 71.8979L8.24223 69.4949C8.48523 68.5949 7.96323 67.6589 7.05423 67.4159L5.76723 67.0649L5.40723 68.4419L6.93723 68.8559L6.23523 71.5469L7.58523 71.8979Z" fill="#F9E1B8"/>
<path d="M10.3123 68.532L9.88934 69.891L9.37634 69.738C8.84534 69.585 8.44933 69.198 8.26933 68.721C8.23333 68.631 8.20633 68.541 8.18833 68.442C8.13433 68.181 8.14333 67.911 8.22433 67.641L8.90834 65.292L10.2403 65.652L9.51134 68.289L10.3123 68.532Z" fill="#F9E1B8"/>
<path d="M14.4981 11.9669L16.2351 9.96892C16.8831 9.22192 16.8021 8.08792 16.0551 7.43091L14.9841 6.50391L14.012 7.66491L15.2811 8.76292L13.373 11.0219L14.4981 11.9669Z" fill="#F2AB55"/>
<path d="M18.809 6.25195L17.072 8.18695C16.406 8.92495 16.469 10.059 17.207 10.725L18.26 11.67L19.25 10.527L17.999 9.40195L19.916 7.21495L18.809 6.25195Z" fill="#F2AB55"/>
<path d="M22.643 17.7088H24.137C24.11 17.6278 24.083 17.5468 24.047 17.4748C24.002 17.3758 23.948 17.2858 23.885 17.2048C23.57 16.7548 23.048 16.4578 22.454 16.4398L21.041 16.4038V16.7728L22.643 17.7088Z" fill="#F2AB55"/>
<path d="M24.1643 17.6187C24.1283 17.5737 24.0923 17.5287 24.0563 17.4747C23.9933 17.3937 23.9393 17.2947 23.9033 17.2047C23.7863 16.9527 23.7233 16.6737 23.7413 16.3767L23.8493 13.7847L25.3163 13.8207L25.2353 16.7277L26.9183 16.7997L26.8913 17.6367H24.1643V17.6187Z" fill="#F2AB55"/>
<path d="M33.9379 15.9265L32.6869 13.5956C32.2189 12.7226 31.1299 12.3896 30.2569 12.8666L29.0059 13.5416L29.7439 14.8645L31.2289 14.0636L32.6599 16.6465L33.9379 15.9265Z" fill="#F2AB55"/>
<path d="M30.1309 9.86975L31.3189 12.1737C31.7779 13.0557 32.8579 13.3977 33.7399 12.9477L34.9999 12.2997L34.2889 10.9677L32.7949 11.7417L31.4269 9.17676L30.1309 9.86975Z" fill="#F2AB55"/>
<path d="M36.0978 17.6187L36.1428 17.7087H35.9268L36.0978 17.6187Z" fill="#F2AB55"/>
<path d="M43.4779 17.7086H41.957L42.038 17.4026L40.418 16.9436L40.814 15.4766L42.182 15.8636C42.758 16.0256 43.1809 16.4486 43.3789 16.9706C43.4149 17.0696 43.4419 17.1686 43.4599 17.2676C43.4779 17.4116 43.4869 17.5646 43.4779 17.7086Z" fill="#F2AB55"/>
<path d="M44.6393 13.7668L43.6763 17.6908C43.5863 17.5558 43.5053 17.4208 43.4513 17.2678C43.4153 17.1778 43.3883 17.0788 43.3703 16.9708C43.3163 16.6918 43.3253 16.4038 43.4153 16.1158L44.1713 13.6318L44.6393 13.7668Z" fill="#F2AB55"/>
<path d="M45.6465 9.66275L45.2505 11.2648L44.1345 11.8678L43.3965 10.5448L44.6475 9.86975C44.9625 9.69875 45.3135 9.63575 45.6465 9.66275Z" fill="#F2AB55"/>
<path d="M46.5376 9.98649C46.4476 9.94149 46.3576 9.88749 46.2676 9.8335C46.3666 9.87849 46.4566 9.93249 46.5376 9.98649Z" fill="#F2AB55"/>
<path d="M44.9902 7.78174L46.0792 7.91674L45.7552 9.25774C45.7462 9.23974 45.7282 9.21274 45.7192 9.19474L44.9902 7.78174Z" fill="#F2AB55"/>
<path d="M46.5376 9.98649C46.4476 9.94149 46.3576 9.88749 46.2676 9.8335C46.3666 9.87849 46.4566 9.93249 46.5376 9.98649Z" fill="#F2AB55"/>
<path d="M25.8741 7.08873C25.8021 7.16073 25.7301 7.23273 25.6491 7.29573C25.4331 7.45773 25.1811 7.57473 24.8931 7.62873L22.2921 8.11473L21.9951 6.67473L24.8931 6.08973L24.7221 5.19873L26.2971 5.39673L26.3241 5.52273C26.4321 6.11673 26.2521 6.68373 25.8741 7.08873Z" fill="#F2AB55"/>
<path d="M29.2131 6.31494L26.6571 6.74694C25.6762 6.91794 25.0192 7.84494 25.1902 8.81694L25.4332 10.2119L26.9181 9.93295L26.6301 8.27694L29.4921 7.74595L29.2131 6.31494Z" fill="#F2AB55"/>
<path d="M12.896 5.97281H12.752L12.887 5.88281L12.896 5.97281Z" fill="#F2AB55"/>
<path d="M40.3464 8.43871L38.8344 8.48371L38.8164 7.06174C38.8164 7.03474 38.8164 7.01675 38.8164 6.98975L40.3284 7.17874L40.3464 8.43871Z" fill="#F2AB55"/>
<path d="M130.517 94.9562C129.806 94.7582 129.077 95.1812 128.879 95.8922C126.818 103.407 119.933 108.654 112.139 108.654C105.65 108.654 99.7186 104.946 96.7576 99.3391L98.6476 100.689C99.2506 101.112 100.079 100.977 100.502 100.374C100.925 99.7711 100.79 98.9431 100.187 98.5201L94.6426 94.5692C94.2916 94.3172 93.8326 94.2542 93.4186 94.3982C93.0046 94.5422 92.6986 94.8842 92.5816 95.3072L90.7996 101.913C90.6106 102.624 91.0246 103.353 91.7356 103.542C91.8526 103.569 91.9696 103.587 92.0866 103.587C92.6716 103.587 93.2116 103.2 93.3736 102.606L94.0846 99.9781C95.4616 102.84 97.5316 105.369 100.079 107.295C103.571 109.932 107.747 111.327 112.139 111.327C116.621 111.327 120.851 109.878 124.388 107.151C127.808 104.505 130.319 100.761 131.453 96.6032C131.651 95.8832 131.228 95.1452 130.517 94.9562Z" fill="#F9E1B8"/>
<path d="M133.117 79.7099C132.397 79.5389 131.686 79.9799 131.515 80.6999L130.75 83.9039C129.427 80.5919 127.222 77.6489 124.387 75.4528C120.85 72.7168 116.62 71.2769 112.138 71.2769C107.656 71.2769 103.426 72.7258 99.8892 75.4528C96.4692 78.0989 93.9582 81.8429 92.8242 86.0009C92.6262 86.7119 93.0492 87.4409 93.7602 87.6389C94.4712 87.8369 95.2002 87.4139 95.3982 86.7029C97.4592 79.1879 104.344 73.9409 112.138 73.9409C119.023 73.9409 125.197 78.0269 127.96 84.1559L125.764 83.0939C125.098 82.7699 124.306 83.0489 123.982 83.7149C123.667 84.3809 123.937 85.1729 124.603 85.4969L130.741 88.4579C130.921 88.5479 131.119 88.5929 131.317 88.5929C131.515 88.5929 131.704 88.5479 131.893 88.4669C132.253 88.2959 132.523 87.9629 132.613 87.5759L134.098 81.3389C134.278 80.6009 133.837 79.8809 133.117 79.7099Z" fill="#F9E1B8"/>
</svg>
