<svg width="133" height="82" viewBox="0 0 133 82" fill="none" xmlns="http://www.w3.org/2000/svg">
<path d="M50.4468 14.5772L45.7774 19.92L48.8336 22.6654L46.4064 25.4552L43.8238 23.1464C42.7656 22.1918 42.2772 20.845 42.3808 19.5278C42.4474 19.2762 42.4844 19.0246 42.5066 18.773C42.6768 18.1144 43.0024 17.4854 43.4908 16.9452L47.731 12.2314L50.4468 14.5772Z" fill="#F2AB55"/>
<path d="M41.0119 15.1097C42.1071 16.0569 42.6177 17.4333 42.5141 18.7727C42.4475 19.0243 42.4105 19.2759 42.3883 19.5275C42.2255 20.1639 41.9147 20.7707 41.4559 21.3035L37.2157 26.1727L34.4629 23.8713L39.1249 18.3583L36.0243 15.6647L38.4071 12.8379L41.0119 15.1097Z" fill="#F2AB55"/>
<path d="M132.365 14.5548C132.305 15.1024 132.231 15.6278 132.135 16.131C131.432 19.8088 129.752 22.4358 128.176 24.4042C127.717 24.9814 127.266 25.492 126.852 25.9656C126.77 26.0618 126.689 26.1507 126.607 26.2395C126.674 26.1507 126.741 26.0544 126.807 25.9656C127.17 25.4698 127.495 24.9444 127.799 24.4042C128.746 22.7022 129.382 20.8004 129.641 18.7876C129.723 18.129 129.767 17.463 129.767 16.7822V14.0886C129.767 13.615 129.73 13.1562 129.649 12.7122C129.079 9.38225 126.504 6.74045 123.203 6.08185C122.685 5.97825 122.153 5.92645 121.598 5.92645H33.6708C31.9762 5.92645 30.4 6.42965 29.0828 7.30285C28.6388 7.59885 28.2244 7.93185 27.847 8.30185C26.7074 9.39705 25.8934 10.8178 25.5234 12.4162C25.664 10.0112 26.1302 8.05765 26.8332 6.48145C27.0552 5.97825 27.3068 5.51945 27.5732 5.09025C27.5732 5.08285 27.5806 5.08285 27.5806 5.07545C27.8914 4.57965 28.2318 4.12825 28.6018 3.72865C30.807 1.28665 33.9076 0.413448 36.9712 0.198848C37.3264 0.176648 37.689 0.161847 38.0442 0.147047C38.244 0.139647 38.4438 0.139648 38.6436 0.139648H124.254C125.89 0.139648 127.421 0.620648 128.694 1.45685C129.175 1.76765 129.612 2.12285 130.019 2.52985C130.381 2.89245 130.707 3.28465 130.996 3.70645C131.299 4.14305 131.551 4.60925 131.765 5.10505C132.187 6.08925 132.416 7.17705 132.416 8.30925V11.0028C132.505 12.283 132.483 13.4596 132.365 14.5548Z" fill="#F2AB55"/>
<path d="M126.608 26.2467C123.737 30.0503 119.186 32.5071 114.058 32.5071H33.6715C32.8427 32.5071 32.0435 32.3887 31.2813 32.1593L21.0619 35.0527C18.8789 35.6817 17.1177 33.1953 18.4497 31.3527L25.3169 22.8797V14.2809C25.3169 13.6371 25.3909 13.0155 25.5241 12.4161C26.3751 8.70127 29.6977 5.92627 33.6715 5.92627H121.613C126.127 5.92627 129.783 9.58187 129.783 14.0959V16.7895C129.775 20.3415 128.599 23.6197 126.608 26.2467C126.616 26.2467 126.616 26.2467 126.608 26.2467ZM45.778 19.9197L50.4474 14.5769L47.739 12.2237L43.4988 16.9375C43.0104 17.4777 42.6848 18.1067 42.5146 18.7653C42.6182 17.4259 42.1076 16.0495 41.0124 15.1023L38.4002 12.8379L36.0173 15.6647L39.118 18.3583L34.4559 23.8713L37.2088 26.1727L41.4416 21.2961C41.9004 20.7633 42.2112 20.1565 42.374 19.5201C42.2704 20.8373 42.7588 22.1915 43.817 23.1387L46.3996 25.4475L48.8268 22.6577L45.778 19.9197Z" fill="#F9E1B8"/>
<path d="M114.834 72.6965C118.667 78.6461 112.192 82.1981 110.002 81.5617V81.5395C111.667 81.3175 112.732 79.3121 111.615 77.7581L105.428 70.1287L104.748 69.2925V60.6936C104.748 56.0834 101.011 52.339 96.3931 52.339H90.0587H64.7359H16.4805H8.4589C4.58131 52.339 1.34011 55.04 0.503906 58.6586C1.31051 54.9068 5.80971 47.27 12.5585 47.27H99.6121C104.23 47.27 107.967 51.0144 107.967 55.6246V64.2234L108.647 65.067L114.834 72.6965Z" fill="#F2AB55"/>
<path d="M111.615 77.7583C112.732 79.3123 111.666 81.3177 110.001 81.5397C109.691 81.5841 109.35 81.5619 109.002 81.4583L103.29 79.8377L93.0703 70.9799C94.4319 69.6035 95.2681 67.7091 95.2681 65.6223L104.747 60.6865V69.2853L105.428 70.1215L111.615 77.7583Z" fill="#F7C57C"/>
<path d="M104.756 60.6866L95.2766 65.6224C95.2766 61.4118 91.8652 58.0004 87.6546 58.0004C83.444 58.0004 80.0326 61.4118 80.0326 65.6224C80.0326 69.833 83.444 73.2444 87.6546 73.2444C89.7784 73.2444 91.695 72.3786 93.0788 70.98L103.298 79.8452L98.7916 78.565C98.0368 78.787 97.2302 78.9128 96.4014 78.9128H80.0252L69.6504 66.947L90.067 52.332H96.4014C101.019 52.332 104.756 56.0764 104.756 60.6866Z" fill="#F9E1B8"/>
<path d="M87.6533 58C91.864 58 95.2754 61.4114 95.2754 65.622C95.2754 67.7088 94.4392 69.6032 93.0776 70.9796C91.6938 72.3782 89.7772 73.244 87.6533 73.244C83.4427 73.244 80.0313 69.8326 80.0313 65.622C80.0239 61.4188 83.4427 58 87.6533 58Z" fill="#F2AB55"/>
<path d="M90.0658 52.332L89.4516 52.776L89.4442 52.7834L87.5794 54.1154L75.9984 62.4034L75.0586 63.0768L71.9876 65.2746L71.0848 65.9184L69.6492 66.947L69.2718 66.5104L68.369 65.4744L67.0074 63.9056L66.7706 63.6318L64.8466 61.4118L63.3148 59.6432L62.56 58.7774L59.8516 55.6472L64.7356 52.332H90.0658Z" fill="#FAF2EB"/>
<path d="M69.6499 66.9468L80.0247 78.9126H57.7951L36.3203 71.6162L59.8523 55.647L69.6499 66.9468Z" fill="#F7C57C"/>
<path d="M64.7357 52.332L59.8517 55.6472L36.3197 71.6164L11.3965 63.1434L16.4803 52.332H64.7357Z" fill="#F9E1B8"/>
<path d="M57.795 78.9125H16.0146C15.3338 78.9125 14.6604 78.8681 13.9944 78.7867C13.4616 78.7201 12.9362 78.6239 12.4182 78.4981C11.582 78.3057 10.768 78.0393 9.99103 77.7137C8.66643 77.1661 7.43062 76.4409 6.32063 75.5677C6.26143 75.5233 6.20223 75.4715 6.14303 75.4271C6.01723 75.3235 5.89142 75.2199 5.76562 75.1089L11.027 63.9201L11.397 63.1357L12.1888 63.4021L17.206 65.1041L18.7082 65.6147L24.5098 67.5905L25.494 67.9235L30.156 69.5071L33.2566 70.5579L36.3202 71.6013L42.4622 73.6881L43.8682 74.1691L57.795 78.9125Z" fill="#F2AB55"/>
<path d="M13.7877 69.8253L15.5045 67.8495C16.1483 67.1095 16.0669 65.9847 15.3269 65.3409L14.2687 64.4233L13.3067 65.5703L14.5647 66.6581L12.6777 68.8929L13.7877 69.8253Z" fill="#F9E1B9"/>
<path d="M18.7079 65.6297L17.2575 67.2947L18.4933 68.4047L17.5091 69.5369L16.4657 68.6045C16.0365 68.2197 15.8367 67.6647 15.8811 67.1319C15.8885 67.0357 15.9033 66.9321 15.9329 66.8433C15.9995 66.5769 16.1327 66.3179 16.3325 66.0959L17.2057 65.1265L18.7079 65.6297Z" fill="#F9E1B9"/>
<path d="M23.3401 78.683L23.4067 76.0708C23.4289 75.0866 22.6593 74.2726 21.6751 74.2504L20.2765 74.2134L20.2617 75.7082L21.9267 75.7526L21.8897 78.6756L23.3401 78.683Z" fill="#F9E1B9"/>
<path d="M23.0289 71.6162L22.9179 74.184C22.8735 75.1682 23.6357 75.9896 24.6199 76.034L26.0185 76.0932L26.0555 74.5984L24.3905 74.5318L24.4719 71.6606L23.0289 71.6162Z" fill="#F9E1B9"/>
<path d="M12.4181 78.5052L11.4931 76.8402L10.0279 77.632L9.30273 76.3223L10.5385 75.6563C11.0565 75.3751 11.6485 75.3825 12.1443 75.6193C12.2331 75.6637 12.3219 75.7155 12.4033 75.7747C12.6253 75.9301 12.8103 76.1373 12.9435 76.3889L14.1793 78.6902L13.9943 78.7938L12.4181 78.5052Z" fill="#F9E1B9"/>
<path d="M10.4121 72.6965L11.5887 74.9831C12.0401 75.8564 13.1131 76.1968 13.9863 75.7454L15.2295 75.1015L14.5265 73.7843L13.0465 74.5465L11.6923 72.0083L10.4121 72.6965Z" fill="#F9E1B9"/>
<path d="M27.308 78.8682L27.3376 78.9126H27.2266L27.308 78.8682Z" fill="#F9E1B9"/>
<path d="M33.0133 73.7399L31.7775 71.4385C31.3113 70.5727 30.2383 70.2471 29.3725 70.7133L28.1367 71.3793L28.8619 72.6891L30.3271 71.9047L31.7479 74.4577L33.0133 73.7399Z" fill="#F9E1B9"/>
<path d="M33.2568 70.5729L32.8202 70.8023C32.3096 71.0687 31.725 71.0613 31.244 70.8245C31.1552 70.7801 31.0664 70.7283 30.9776 70.6691C30.7483 70.5137 30.5633 70.2991 30.4227 70.0327L30.1562 69.5146L33.2568 70.5729Z" fill="#F9E1B9"/>
<path d="M35.307 78.9127H34.3672C34.6854 78.8312 35.0036 78.8312 35.307 78.9127Z" fill="#F9E1B9"/>
<path d="M38.6885 78.5131L37.9041 78.9201H35.4621C35.2993 78.7795 35.1587 78.6018 35.0477 78.3946L33.8711 76.1154L35.1513 75.4272L36.5055 77.9654L37.9855 77.2032L38.6885 78.5131Z" fill="#F9E1B9"/>
<path d="M41.6699 78.3945L42.3877 75.8785C42.6541 74.9313 42.1065 73.9471 41.1667 73.6807L39.8199 73.2959L39.4277 74.7389L41.0261 75.1903L40.2639 78.0097L41.6699 78.3945Z" fill="#F9E1B9"/>
<path d="M43.8691 74.1836L43.7359 74.635L45.3269 75.116L44.9125 76.5516L43.5731 76.1446C43.0181 75.9744 42.6111 75.5674 42.4261 75.0642C42.3891 74.968 42.3595 74.8644 42.3447 74.7682C42.2929 74.4944 42.3077 74.2132 42.3891 73.932L42.4631 73.7026L43.8691 74.1836Z" fill="#F9E1B9"/>
<path d="M25.494 67.9307L24.5986 68.1008L24.5098 67.5977L25.494 67.9307Z" fill="#F9E1B9"/>
<path d="M6.33539 75.4421L6.32799 75.5678C6.26879 75.5234 6.20959 75.4716 6.15039 75.4272L6.33539 75.4421Z" fill="#F9E1B9"/>
<path d="M12.2039 63.8979L11.0273 63.9275L11.3973 63.1431L12.1891 63.4095L12.2039 63.8979Z" fill="#F9E1B9"/>
<path d="M11.3969 63.1433L5.76547 75.1165C2.41327 72.2379 0.296875 67.9607 0.296875 63.2025V60.5089C0.296875 59.9021 0.363475 59.3101 0.489275 58.7477C0.496675 58.7181 0.496675 58.6959 0.504075 58.6663C1.34027 55.0477 4.58887 52.3467 8.45907 52.3467H16.4807L11.3969 63.1433Z" fill="#F7C57C"/>
<path d="M38.0534 0.146973L38.5862 0.613174C39.0598 1.02017 39.2818 1.61957 39.23 2.19677C39.2226 2.30037 39.2078 2.41137 39.1782 2.51497C39.1042 2.78877 38.971 3.05517 38.7712 3.28457L36.9434 5.38617L35.752 4.39457L37.7648 2.01917L36.4254 0.857373L36.9804 0.198774L38.0534 0.146973Z" fill="#F9E1B9"/>
<path d="M40.6414 2.69265L41.9587 3.87665L40.9152 5.07545L39.8052 4.07645C39.3464 3.66945 39.1392 3.08485 39.1836 2.51505C39.191 2.40405 39.2058 2.30045 39.2354 2.19685C39.3094 1.90825 39.45 1.64185 39.6572 1.40505L40.7894 0.139648H42.3731L42.6543 0.383848L40.6414 2.69265Z" fill="#F9E1B9"/>
<path d="M29.5942 8.25754L28.24 9.01974L27.8404 8.30194L26.834 6.48894C27.056 5.98574 27.3076 5.52694 27.574 5.09774C27.5148 5.06814 27.463 5.03114 27.4112 4.99414C27.4704 5.02374 27.5222 5.05334 27.5814 5.08294C27.6184 5.10514 27.6554 5.13474 27.6998 5.15694C27.9292 5.31974 28.129 5.54174 28.2696 5.80814L29.0762 7.31034L29.5942 8.25754Z" fill="#F9E1B9"/>
<path d="M27.418 4.98681C27.4698 5.02381 27.5216 5.05341 27.5808 5.09041C27.6178 5.11261 27.6622 5.13481 27.7066 5.15701C28.2246 5.40121 28.8388 5.40861 29.3864 5.12741L30.7109 4.43921L29.9561 3.0332L28.6094 3.72881L27.418 4.98681Z" fill="#F9E1B9"/>
<path d="M58.5501 5.74905L58.1949 5.93405H54.8649C54.7909 5.83785 54.7243 5.73425 54.6651 5.62325L53.4219 3.18865L54.7835 2.45605L56.2265 5.15705L57.8027 4.34305L58.5501 5.74905Z" fill="#F9E1B9"/>
<path d="M72.344 5.92637H70.5606L69.7392 4.44638L68.1778 5.28997L67.4082 3.89879L68.7254 3.18839C69.273 2.89239 69.9094 2.89979 70.4348 3.14399C70.5384 3.18839 70.6346 3.24759 70.7234 3.31419C70.9528 3.47699 71.1526 3.69899 71.2932 3.95798L72.344 5.92637Z" fill="#F9E1B9"/>
<path d="M70.4042 0.146973L71.3958 2.01177L72.972 1.19777L73.7269 2.60377L72.4022 3.29196C71.8546 3.57316 71.2404 3.56577 70.7224 3.32157C70.6188 3.27717 70.5226 3.21797 70.4338 3.15137C70.197 2.98117 69.9898 2.75177 69.8492 2.47797L68.6504 0.154373H70.4042V0.146973Z" fill="#F9E1B9"/>
<path d="M49.0269 0.146973C48.9973 0.183973 48.9677 0.220973 48.9307 0.257972C48.8567 0.339372 48.7753 0.405974 48.6939 0.472574C48.4645 0.642774 48.1981 0.768573 47.9021 0.827773L45.1641 1.33837L44.9199 0.146973H49.0269Z" fill="#F9E1B9"/>
<path d="M49.7293 1.51605L50.0253 3.26245L48.4565 3.55105L48.2049 2.07845C48.1013 1.47165 48.3011 0.879648 48.6859 0.465248C48.7599 0.383848 48.8413 0.317248 48.9227 0.250648C48.9745 0.213648 49.0337 0.176648 49.0855 0.139648H52.5783L52.7337 0.953648L49.7293 1.51605Z" fill="#F9E1B9"/>
<path d="M64.189 1.67877L62.5906 1.72317L62.5684 0.228373C62.5684 0.198773 62.5684 0.169173 62.5684 0.146973H64.1594L64.189 1.67877Z" fill="#F9E1B9"/>
<path d="M88.8233 0.146973L89.3635 0.620574C89.8371 1.02757 90.0591 1.62697 90.0073 2.20417C89.9999 2.30777 89.9851 2.41877 89.9555 2.52237C89.8815 2.79617 89.7483 3.06257 89.5485 3.29197L87.7207 5.39357L86.5293 4.40197L88.5421 2.02657L87.2027 0.864774L87.8021 0.154373H88.8233V0.146973Z" fill="#F9E1B9"/>
<path d="M91.4281 2.69257L92.7453 3.87657L91.6945 5.08277L90.5845 4.08377C90.1257 3.67677 89.9185 3.09217 89.9629 2.52237C89.9703 2.41137 89.9851 2.30777 90.0147 2.20417C90.0887 1.91557 90.2293 1.64917 90.4365 1.41237L91.5687 0.146973H93.1523L93.4334 0.391174L91.4281 2.69257Z" fill="#F9E1B9"/>
<path d="M79.1297 5.92662H75.2891L75.1855 5.73422L76.5027 5.02384C77.0503 4.72784 77.6867 4.73524 78.2121 4.97944C78.3083 5.02384 78.4045 5.08303 78.4933 5.14223C78.7227 5.30503 78.9225 5.52703 79.0631 5.79342L79.1297 5.92662Z" fill="#F9E1B9"/>
<path d="M76.3613 1.8786L77.6119 4.31319C78.0929 5.24558 79.2325 5.60818 80.1649 5.12718L81.4895 4.43898L80.7347 3.03299L79.1585 3.84699L77.7155 1.146L76.3613 1.8786Z" fill="#F9E1B9"/>
<path d="M109.337 5.74905L108.982 5.93405H105.652C105.578 5.83785 105.511 5.73425 105.452 5.62325L104.201 3.18865L105.563 2.45605L107.006 5.15705L108.582 4.34305L109.337 5.74905Z" fill="#F9E1B9"/>
<path d="M123.212 6.0818C122.694 5.9782 122.161 5.9264 121.606 5.9264H121.347L120.526 4.4464L118.965 5.29L118.188 3.89879L119.505 3.18839C120.052 2.89239 120.689 2.89979 121.214 3.14399C121.318 3.18839 121.414 3.24759 121.503 3.31419C121.732 3.47699 121.932 3.69899 122.073 3.95799L123.212 6.0818Z" fill="#F9E1B9"/>
<path d="M124.506 2.59638L123.181 3.28458C122.634 3.56578 122.02 3.55838 121.502 3.31418C121.398 3.26978 121.302 3.21058 121.213 3.14398C120.976 2.97378 120.769 2.74438 120.628 2.47058L119.43 0.146973H121.183L122.175 2.01178L123.751 1.19778L124.506 2.59638Z" fill="#F9E1B9"/>
<path d="M99.8118 0.147047C99.7822 0.184047 99.7526 0.221047 99.7156 0.258047C99.6416 0.339447 99.5602 0.406049 99.4714 0.472649C99.242 0.642849 98.9756 0.768647 98.6795 0.820447L95.9415 1.33105L95.6973 0.139648H99.8118V0.147047Z" fill="#F9E1B9"/>
<path d="M100.516 1.51605L100.812 3.26245L99.2436 3.55105L98.992 2.07845C98.8884 1.47165 99.0882 0.887048 99.473 0.465248C99.547 0.383848 99.6284 0.317248 99.7172 0.250648C99.769 0.213648 99.8208 0.176648 99.88 0.139648H103.373L103.528 0.953648L100.516 1.51605Z" fill="#F9E1B9"/>
<path d="M82.9477 0.923972L81.3492 0.968372L81.3418 0.146973H82.9329L82.9477 0.923972Z" fill="#F9E1B9"/>
<path d="M114.976 1.67877L113.378 1.72317L113.355 0.228373C113.355 0.198773 113.355 0.169173 113.355 0.146973H114.946L114.976 1.67877Z" fill="#F9E1B9"/>
<path d="M131.935 8.25763L130.617 5.80083C130.122 4.87583 128.975 4.53543 128.05 5.03123L126.732 5.74163L127.509 7.13283L129.071 6.29663L130.58 9.01983L131.935 8.25763Z" fill="#F9E1B9"/>
<path d="M128.701 1.45703L127.924 1.87883L129.174 4.31344C129.322 4.59464 129.522 4.82404 129.766 4.99424C129.855 5.05344 129.951 5.11264 130.048 5.15704C130.566 5.40124 131.187 5.40864 131.727 5.12744L131.772 5.10524L131.002 3.70663L130.728 3.84723L130.025 2.53003L128.701 1.45703Z" fill="#F9E1B9"/>
<path d="M129.937 16.0205L129.715 18.7955L129.648 18.7881C129.73 18.1295 129.774 17.4635 129.774 16.7827V15.1103C129.73 15.0363 129.693 14.9623 129.663 14.8809C129.708 14.9475 129.745 15.0215 129.774 15.0881C129.789 15.1103 129.796 15.1399 129.811 15.1695C129.915 15.4285 129.967 15.7171 129.937 16.0205Z" fill="#F9E1B9"/>
<path d="M132.364 14.5548L131.084 14.429L131.336 11.3728L129.789 11.2544L129.648 12.7048L129.656 14.8656C129.685 14.947 129.722 15.021 129.767 15.095C129.774 15.1172 129.789 15.132 129.804 15.1542C130.107 15.6426 130.618 15.983 131.232 16.0422L132.127 16.131L132.364 14.5548Z" fill="#F9E1B9"/>
<path d="M127.806 24.4194H128.176C127.717 24.9966 127.266 25.5072 126.851 25.9808H126.814C127.177 25.4776 127.503 24.9522 127.806 24.4194Z" fill="#F9E1B9"/>
<path d="M65.1574 52.3315H66.5487C66.4895 52.4943 66.408 52.6497 66.2896 52.7903L64.9576 54.3221L64.0918 53.5969L65.1574 52.3315Z" fill="#F7C57C"/>
<path d="M68.5979 53.2195L67.8357 54.0927L67.0291 53.3675C66.7257 53.0937 66.5703 52.7163 66.5703 52.3315H67.6581L67.6359 52.3537L68.5979 53.2195Z" fill="#F7C57C"/>
<path d="M72.3492 61.182L72.401 59.1544C72.4232 58.3922 71.8164 57.7632 71.0616 57.741L69.9738 57.7114L69.959 58.8732L71.2466 58.9028L71.217 61.1672L72.3492 61.182Z" fill="#F7C57C"/>
<path d="M72.1137 55.7061L72.0323 57.6967C72.0027 58.4589 72.5947 59.0953 73.3496 59.1323L74.4374 59.1767L74.467 58.0149L73.1794 57.9631L73.246 55.7357L72.1137 55.7061Z" fill="#F7C57C"/>
<path d="M65.26 61.1823L64.853 61.4117L63.3138 59.6357L62.5664 58.7699C62.9364 58.6145 63.3434 58.6367 63.6838 58.7995C63.7504 58.8291 63.817 58.8735 63.8836 58.9179C64.0538 59.0363 64.2018 59.1991 64.3054 59.3915L65.26 61.1823Z" fill="#F7C57C"/>
<path d="M62.3379 56.5421L63.2481 58.3107C63.5959 58.9841 64.4247 59.2505 65.1055 58.9027L66.0675 58.4069L65.5199 57.3857L64.3729 57.9777L63.3221 56.0093L62.3379 56.5421Z" fill="#F7C57C"/>
<path d="M75.9988 62.4031L75.0591 63.0765L74.4375 61.8629L75.429 61.3301L75.9988 62.4031Z" fill="#F7C57C"/>
<path d="M79.8463 57.3564L78.8917 55.573C78.5291 54.8996 77.7003 54.648 77.0269 55.0106L76.0723 55.5286L76.6347 56.5424L77.7669 55.9356L78.8621 57.9188L79.8463 57.3564Z" fill="#F7C57C"/>
<path d="M76.9316 52.7164L77.8418 54.485C78.1896 55.1584 79.0184 55.4248 79.6992 55.077L80.6612 54.5812L80.1136 53.56L78.9666 54.152L77.9158 52.1836L76.9316 52.7164Z" fill="#F7C57C"/>
<path d="M89.4968 52.8127C89.4746 52.8053 89.4598 52.7905 89.4376 52.7831L87.5802 54.1151L87.0918 53.2345L88.0464 52.7239C88.446 52.5093 88.9048 52.5093 89.2896 52.6943C89.3414 52.7165 89.3932 52.7461 89.445 52.7831C89.4672 52.7905 89.482 52.7979 89.4968 52.8127Z" fill="#F7C57C"/>
<path d="M89.4524 52.7755C89.4672 52.7829 89.482 52.7977 89.5042 52.8051C89.482 52.7977 89.4598 52.7903 89.4524 52.7755C89.3932 52.7533 89.3414 52.7237 89.297 52.6867C89.1638 52.5905 89.0454 52.4721 88.9492 52.3315H90.0666L89.4524 52.7755Z" fill="#F7C57C"/>
<path d="M74.4674 52.7755L73.3278 52.9901L73.2168 52.3315H74.386L74.4674 52.7755Z" fill="#F7C57C"/>
<path d="M72.0622 65.03L71.9956 65.2742L71.0928 65.918L69.5832 65.4888L69.2724 66.51L68.377 65.474L68.4066 65.363C68.5398 64.9264 68.8654 64.6082 69.265 64.4602C69.339 64.4306 69.413 64.4158 69.4944 64.401C69.7016 64.364 69.9162 64.3788 70.1234 64.438L72.0622 65.03Z" fill="#F7C57C"/>
<path d="M66.7695 63.6312L67.0359 62.7359L69.1671 63.3871L69.5593 62.1587L70.6693 62.4917L70.3437 63.5276C70.2105 63.9568 69.8849 64.2676 69.4927 64.4082C69.4187 64.4378 69.3447 64.4526 69.2633 64.4674C69.0561 64.5044 68.8341 64.4896 68.6121 64.423L67.0137 63.9124L66.7695 63.6312Z" fill="#F7C57C"/>
</svg>
