<svg width="119" height="136" viewBox="0 0 119 136" fill="none" xmlns="http://www.w3.org/2000/svg">
<path d="M58.4227 0.347246C59.1337 1.64325 46.8217 10.1212 30.9007 19.2832C14.9617 28.4632 1.44373 34.8622 0.705734 33.5842C-0.0322663 32.3062 12.5317 23.6752 28.2277 14.6392C44.1667 5.45925 57.6847 -0.939754 58.4227 0.347246Z" fill="#F7C57C"/>
<path d="M59.602 2.39945C59.692 2.56145 59.584 2.84045 59.278 3.21845C57.172 5.83745 46.012 13.3254 32.08 21.3444C18.157 29.3634 6.07905 35.2674 2.75806 35.7715C2.28106 35.8434 1.98405 35.8074 1.88505 35.6454L1.83105 35.5554L1.13806 34.3494L0.706055 33.5934C1.44405 34.8804 14.9621 28.4724 30.901 19.2924C46.822 10.1214 59.134 1.65245 58.423 0.356445L58.828 1.05845L59.521 2.26445L59.602 2.39945Z" fill="#F9E1B8"/>
<path d="M62.194 2.01273C62.5541 2.63373 60.4571 4.59573 56.659 7.39474C55.795 8.02474 54.85 8.70874 53.824 9.41974C48.55 13.0737 41.17 17.6997 32.872 22.4788C28.93 24.7468 25.114 26.8618 21.586 28.7428C9.83203 34.9888 1.11102 38.7148 0.454024 37.5808C0.265024 37.2568 0.769023 36.5548 1.84002 35.5558L1.89402 35.6458C1.98402 35.8078 2.28102 35.8438 2.76702 35.7718C6.08803 35.2678 18.166 29.3638 32.089 21.3448C46.012 13.3257 57.181 5.83774 59.2871 3.21873C59.5931 2.84073 59.7101 2.56173 59.6111 2.39973L59.5301 2.25573C61.0601 1.76973 61.9961 1.67073 62.194 2.01273Z" fill="#F7C57C"/>
<path d="M21.6851 28.922L19.8401 30.929L18.9491 31.892L18.9401 31.91L18.7961 32.072L18.1211 32.81L14.9261 36.284L14.4851 36.761L12.9641 38.417L12.1901 39.254L12.1181 39.326L11.6591 39.83L8.0951 43.7L7.6541 44.177L6.3131 45.635L5.5571 46.463L4.6481 44.888L4.3241 44.321L0.454102 37.58C0.616102 37.859 1.2551 37.85 2.3081 37.58C2.7671 37.463 3.3071 37.292 3.9191 37.085C3.9371 37.076 3.9551 37.076 3.9731 37.067L5.2511 36.59C6.5921 36.068 8.1851 35.384 9.9851 34.556C10.1831 34.466 10.3811 34.376 10.5791 34.277C12.0911 33.575 13.7381 32.774 15.4931 31.892C16.0151 31.631 16.5551 31.361 17.0951 31.082C17.4191 30.92 17.7431 30.749 18.0671 30.587C19.2011 30.002 20.3711 29.39 21.5681 28.751L21.6851 28.922Z" fill="#F2AB55"/>
<path d="M18.7874 32.0723L29.4344 36.1403C22.1354 40.1093 15.7814 43.2323 11.4614 45.0143C8.02341 46.4273 5.87241 46.9943 5.56641 46.4543L18.7874 32.0723Z" fill="#F7C57C"/>
<path d="M62.1942 2.0127L67.3062 10.8867L56.6592 7.3857C60.4662 4.5957 62.5542 2.6337 62.1942 2.0127Z" fill="#F7C57C"/>
<path d="M67.3063 10.8867C67.6213 11.4447 65.9833 13.0737 62.9053 15.4227C57.7663 19.3287 48.6402 25.2147 37.9842 31.3527C35.5542 32.7477 33.1782 34.0887 30.8832 35.3487L30.8652 35.3127L53.8242 9.41074C54.8503 8.69974 55.8043 8.02474 56.6593 7.38574L67.3063 10.8867Z" fill="#F9E1B8"/>
<path d="M53.8237 9.41016L49.3417 14.4592L48.6487 15.2422L47.9107 16.0792L47.8747 16.1152L46.0027 18.2212L45.9127 18.3292L43.7977 20.7142L42.8977 21.7402L42.1237 22.6132L39.1177 26.0062L38.3257 26.9062L37.7587 27.5542L36.9937 28.4182L33.8797 31.9372L33.1147 32.8012L31.7827 34.3042L31.7197 34.3672L30.8737 35.3212L30.8917 35.3572C30.4057 35.6272 29.9197 35.8882 29.4427 36.1492L27.6247 35.4562L27.2197 35.3032L22.5217 33.5032L20.1997 32.6122L18.8047 32.0812L21.6937 28.9402L21.5947 28.7602C21.7747 28.6612 21.9637 28.5622 22.1437 28.4632C22.6387 28.2022 23.1427 27.9322 23.6467 27.6532C23.6917 27.6262 23.7367 27.6082 23.7817 27.5812C24.0697 27.4192 24.3667 27.2662 24.6637 27.1042C27.3007 25.6642 30.0637 24.1252 32.8897 22.4962C32.9617 22.4512 33.0247 22.4152 33.0967 22.3792C33.4477 22.1812 33.7987 21.9742 34.1407 21.7762C34.8337 21.3712 35.5177 20.9752 36.1927 20.5702C36.8947 20.1562 37.5877 19.7512 38.2717 19.3462L38.2807 19.3372C38.9917 18.9142 39.6937 18.4912 40.3867 18.0682C40.8817 17.7712 41.3677 17.4742 41.8537 17.1772C42.2407 16.9432 42.6187 16.7092 42.9967 16.4752C43.3207 16.2772 43.6447 16.0702 43.9597 15.8812C45.1207 15.1612 46.2457 14.4502 47.3257 13.7572C47.6497 13.5502 47.9737 13.3432 48.2887 13.1362C48.4417 13.0372 48.5947 12.9382 48.7477 12.8392C48.9547 12.7042 49.1617 12.5692 49.3687 12.4342C50.9707 11.3632 52.4647 10.3552 53.8237 9.41016Z" fill="#F23C3C"/>
<path d="M118.66 100.059C119.2 100.995 114.133 105.018 106.015 110.328L102.982 99.1767L107.554 93.7497C110.839 91.2747 112.612 89.5467 112.279 88.9707L118.66 100.059Z" fill="#F23C3C"/>
<path d="M105.133 105.386L104.728 105.593L104.485 104.702L104.71 104.585L105.133 105.386Z" fill="#F23C3C"/>
<path d="M104.827 101.732L105.574 103.118L104.809 103.55L103.954 102.011L103.783 102.101L103.54 101.219C103.81 101.129 104.089 101.147 104.341 101.264C104.206 101.165 104.089 101.039 104.008 100.877L103.297 99.4999L104.071 99.0859L104.89 100.616L105.781 100.157L106.204 100.949L105.457 101.336C105.151 101.498 104.791 101.489 104.503 101.345C104.629 101.453 104.746 101.579 104.827 101.732Z" fill="#F23C3C"/>
<path d="M107.428 96.2514L108.175 96.9264L107.581 97.6105L106.951 97.0434C106.69 96.8094 106.573 96.4764 106.6 96.1524C106.564 96.3144 106.483 96.4584 106.366 96.5934L105.331 97.7815L104.656 97.2144L105.79 95.8644L105.772 95.8464L106.348 95.1624C106.546 95.3874 106.636 95.6754 106.618 95.9634C106.663 95.8014 106.735 95.6484 106.861 95.5134L107.896 94.3613L108.562 94.9374L107.428 96.2514Z" fill="#F23C3C"/>
<path d="M106.024 110.327L105.952 110.057C106.006 109.967 106.069 109.886 106.141 109.805L107.257 108.734L107.716 109.202C107.167 109.571 106.6 109.949 106.024 110.327Z" fill="#F23C3C"/>
<path d="M110.407 92.057L109.813 92.7411L109.363 92.3361C109.615 92.129 109.849 91.94 110.065 91.751L110.407 92.057Z" fill="#F23C3C"/>
<path d="M109.354 105.656L110.866 106.115L110.632 106.961L108.94 106.475L108.652 107.438L107.788 107.186L108.031 106.376C108.13 106.034 108.391 105.782 108.697 105.674C108.535 105.701 108.355 105.692 108.184 105.638L106.708 105.161L106.96 104.324L108.616 104.828L108.922 103.874L109.786 104.135L109.534 104.936C109.426 105.269 109.174 105.512 108.868 105.62C109.03 105.602 109.192 105.611 109.354 105.656Z" fill="#F23C3C"/>
<path d="M111.532 94.2716L111.343 93.2816L112.225 93.1016L112.378 93.9296C112.441 94.2806 112.333 94.6226 112.108 94.8566C112.243 94.7576 112.396 94.6856 112.576 94.6586L114.106 94.3976L114.268 95.2616L112.558 95.5766L112.729 96.5666L111.838 96.7286L111.694 95.8916C111.631 95.5496 111.748 95.2166 111.964 94.9826C111.838 95.0816 111.685 95.1536 111.514 95.1806L109.966 95.4686L109.786 94.6136L111.532 94.2716Z" fill="#F23C3C"/>
<path d="M112.711 101.553L111.865 101.517C111.514 101.499 111.217 101.328 111.028 101.058C111.1 101.202 111.136 101.364 111.127 101.544L111.091 103.119L110.218 103.11L110.236 101.346L109.237 101.319L109.246 100.419L110.092 100.437C110.452 100.446 110.758 100.626 110.947 100.896C110.875 100.743 110.839 100.572 110.848 100.392L110.911 98.8438L111.784 98.8618L111.739 100.599L112.738 100.644L112.711 101.553Z" fill="#F23C3C"/>
<path d="M112.792 105.432C112.954 105.342 113.134 105.306 113.305 105.306C112.954 105.567 112.585 105.837 112.207 106.107L112.054 105.837L112.792 105.432Z" fill="#F23C3C"/>
<path d="M113.494 103.235L114.232 104.612C113.998 104.792 113.764 104.972 113.512 105.152C113.485 105.116 113.458 105.071 113.431 105.026L112.72 103.649L113.494 103.235Z" fill="#F23C3C"/>
<path d="M114.646 93.0925L114.322 93.4705L113.647 92.9034L114.178 92.2734L114.646 93.0925Z" fill="#F23C3C"/>
<path d="M116.185 98.753L116.932 100.139L116.167 100.571L115.312 99.032L114.43 99.509L113.989 98.717L114.736 98.321C115.051 98.15 115.411 98.159 115.708 98.303C115.573 98.204 115.456 98.078 115.366 97.916L114.655 96.539L115.429 96.125L116.248 97.655L117.04 97.25L117.49 98.033L116.815 98.384C116.509 98.546 116.149 98.537 115.861 98.402C115.987 98.474 116.104 98.6 116.185 98.753Z" fill="#F23C3C"/>
<path d="M118.174 101.174C118.012 101.363 117.814 101.579 117.58 101.804L117.454 101.561L118.174 101.174Z" fill="#F23C3C"/>
<path d="M106.024 110.328C101.317 113.406 95.5932 116.925 89.3383 120.525L84.4873 121.155L102.982 99.1855L106.024 110.328Z" fill="#F7C57C"/>
<path d="M107.554 93.749L102.982 99.176L84.487 121.145L63.5801 123.863L66.7751 118.229C71.5721 115.79 77.116 112.793 82.948 109.427C93.397 103.424 102.361 97.655 107.554 93.749Z" fill="#F2AB55"/>
<path d="M84.4869 121.154L89.3379 120.524C72.2919 130.343 57.7749 137.102 56.9199 135.617L63.5889 123.872L84.4869 121.154Z" fill="#F9E1B8"/>
<path d="M58.738 135.627C58.558 135.672 58.396 135.708 58.243 135.735C57.721 135.834 57.3339 135.852 57.1089 135.762C57.0189 135.726 56.9559 135.681 56.9199 135.618L57.4149 134.745L58.711 134.727L58.738 135.627Z" fill="#F9E1B8"/>
<path d="M60.1604 131.423L61.0064 132.998L60.1424 133.484L59.1794 131.738L59.1074 131.774L59.6114 130.892L60.1334 129.974L60.2414 130.172L61.2494 129.65L61.7354 130.55L60.8894 130.991C60.5384 131.171 60.1424 131.162 59.8094 131.009C59.9444 131.108 60.0704 131.243 60.1604 131.423Z" fill="#F9E1B8"/>
<path d="M61.8071 134.582C61.5101 134.699 61.2221 134.807 60.9521 134.906L61.5371 134.312L61.8071 134.582Z" fill="#F9E1B8"/>
<path d="M62.2122 127.985L61.3482 128.471L61.1592 128.138L61.7442 127.112L62.2122 127.985Z" fill="#F9E1B8"/>
<path d="M62.9318 125.546L62.5088 125.762L62.7878 125.276L62.9318 125.546Z" fill="#F9E1B8"/>
<path d="M66.4959 130.857L68.2059 131.37L68.0799 131.82C67.8369 131.937 67.6029 132.045 67.3599 132.162C66.7929 132.432 66.2439 132.684 65.713 132.918L65.686 132.864L64.705 132.585L64.984 131.667C65.101 131.28 65.389 131.001 65.74 130.875C65.551 130.911 65.362 130.893 65.164 130.839L63.499 130.308L63.787 129.354L65.659 129.93L66.001 128.85L66.9729 129.147L66.6849 130.056C66.5679 130.434 66.2799 130.704 65.9379 130.83C66.1179 130.794 66.3069 130.803 66.4959 130.857Z" fill="#F9E1B8"/>
<path d="M70.2941 126.221L69.3401 126.185C68.9441 126.167 68.6021 125.969 68.3951 125.663C68.4761 125.825 68.5121 126.014 68.5121 126.212L68.4671 127.994L67.4771 127.985L67.5041 125.996L66.3701 125.969L66.3791 124.952L67.3331 124.979C67.7381 124.988 68.0891 125.195 68.2961 125.501C68.2151 125.33 68.1701 125.141 68.1791 124.934L68.2511 123.278L68.8721 123.197L69.2411 123.206L69.1871 125.168L70.3211 125.213L70.2941 126.221Z" fill="#F9E1B8"/>
<path d="M70.8881 130.46C70.4381 130.685 69.9971 130.901 69.5651 131.108L69.5381 131.054L70.3841 130.604C70.5371 130.514 70.7171 130.469 70.8881 130.46Z" fill="#F9E1B8"/>
<path d="M73.1107 129.344C72.4627 129.677 71.8237 129.992 71.2027 130.307C71.1667 130.253 71.1307 130.199 71.1037 130.145L70.3027 128.588L71.1757 128.12L72.1027 129.848L73.1107 129.326V129.344Z" fill="#F9E1B8"/>
<path d="M74.2183 123.044L75.0643 124.619L74.2003 125.105L73.2372 123.359L72.2382 123.899L71.7432 123.008L72.2202 122.756L73.7232 122.558H73.7322L75.4963 122.333L74.9383 122.621C74.5873 122.801 74.1913 122.792 73.8582 122.639C73.9932 122.729 74.1193 122.873 74.2183 123.044Z" fill="#F9E1B8"/>
<path d="M77.2776 127.184C76.9806 127.346 76.6746 127.499 76.3776 127.652L75.6396 126.221L76.5126 125.753L77.2776 127.184Z" fill="#F9E1B8"/>
<path d="M81.2737 125.042C80.9587 125.213 80.6347 125.384 80.3197 125.555L79.4287 125.303L79.6897 124.313L80.6077 124.574C80.8957 124.664 81.1207 124.826 81.2737 125.042Z" fill="#F9E1B8"/>
<path d="M82.921 123.341L82.651 124.286C82.237 124.511 81.823 124.736 81.418 124.961C81.427 124.889 81.445 124.817 81.463 124.745L81.976 123.071L82.921 123.341Z" fill="#F9E1B8"/>
<path d="M82.9213 121.353L81.9404 121.884L81.7334 121.515L82.9213 121.353Z" fill="#F9E1B8"/>
<path d="M84.7751 122.603L83.9022 123.089L82.9482 121.352L84.0282 121.208L84.7751 122.603Z" fill="#F9E1B8"/>
<path d="M66.7753 118.238L63.5803 123.872L56.9203 135.617L50.5303 124.538C51.0973 125.51 57.5683 122.918 66.7753 118.238Z" fill="#FAF2EB"/>
<path d="M55.0029 119.957C60.1869 116.015 69.3579 110.111 79.8609 104.063C90.3009 98.051 99.7959 93.182 105.781 90.653C106.951 90.158 107.977 89.753 108.859 89.447C110.839 88.763 112.054 88.565 112.279 88.961C112.612 89.537 110.839 91.265 107.554 93.74C102.361 97.646 93.3969 103.415 82.9569 109.427C77.1159 112.793 71.5809 115.79 66.7839 118.229C57.5679 122.909 51.1059 125.501 50.5389 124.52C50.3139 124.124 51.0969 123.17 52.6899 121.811C53.3289 121.262 54.1029 120.641 55.0029 119.957Z" fill="#F7C57C"/>
<path d="M105.781 90.6627C101.533 92.4537 95.5299 95.4237 88.6719 99.1407C88.2219 99.3837 87.7719 99.6267 87.3129 99.8787C86.2419 100.464 85.1529 101.067 84.0549 101.688C83.5149 101.994 82.9659 102.3 82.4079 102.615C81.5709 103.092 80.7159 103.578 79.8609 104.073C77.7189 105.306 75.6399 106.53 73.6329 107.736C71.1489 109.23 68.7729 110.697 66.5679 112.092C66.1989 112.326 65.8389 112.56 65.4789 112.785C63.9219 113.784 62.4639 114.738 61.0959 115.656C60.6099 115.98 60.1329 116.304 59.6739 116.619C57.8919 117.843 56.3169 118.968 55.0029 119.967L55.6689 112.83L55.9839 109.437L56.0289 108.951L56.1909 107.205L57.7029 90.8787L57.8649 89.1597L57.8919 88.8357L60.2049 88.0977L62.0679 87.5037L65.0109 86.5677L65.1189 86.5317L68.1699 85.5597L69.8979 85.0017L74.0469 83.6787L74.1999 83.6337C74.6319 83.4987 75.0639 83.3727 75.4959 83.2557C80.0949 82.0497 84.8739 82.1397 89.2749 83.5167C89.7969 83.6787 90.3009 83.8587 90.8139 84.0567C90.8229 84.0567 90.8319 84.0657 90.8409 84.0657C91.1739 84.1917 91.5069 84.3357 91.8309 84.4797L92.4609 84.7587L96.8619 86.7117L96.9429 86.7477L105.781 90.6627Z" fill="#F9E1B8"/>
<path d="M59.1428 40.3164L58.7468 45.7884L58.7018 46.4094L58.3508 51.2514L58.2428 52.7094L58.1888 53.5014L58.1078 54.6084L57.6668 60.7285L57.5858 61.8625L57.5228 62.7535L57.4238 64.1125L57.3698 64.9135L53.2567 62.9785L51.0607 61.9435L51.0517 61.9345L48.8377 60.8905L47.2807 60.1525C46.9837 60.0175 46.7137 59.8555 46.4617 59.6755C46.4257 59.6485 46.3897 59.6215 46.3537 59.5945C45.7957 59.1805 45.3547 58.6765 45.0127 58.1185C44.8327 57.8215 44.6887 57.5155 44.5717 57.2005C43.8427 55.2114 44.3017 52.8264 46.1287 51.2964L47.1547 50.4324L47.9467 49.7664L51.5467 46.7334L52.3387 46.0674L56.1187 42.8814L56.8928 42.2244L59.1428 40.3164Z" fill="#F9E1B8"/>
<path d="M59.3769 65.8399L108.859 89.4649C107.977 89.7709 106.942 90.1759 105.781 90.6709L91.8309 84.4789C86.3769 82.0579 80.0859 81.7609 74.1999 83.6419L57.8919 88.8439L55.0029 119.975C54.1029 120.659 53.3289 121.28 52.6809 121.838C52.6809 121.784 52.6719 121.73 52.6809 121.676L56.8749 67.2799L11.4609 45.0139C15.7809 43.2319 22.1349 40.1089 29.4339 36.1399C29.9109 35.8789 30.3969 35.6179 30.8829 35.3479C33.1779 34.0879 35.5539 32.7559 37.9839 31.3519C48.6399 25.2139 57.7749 19.3279 62.9049 15.4219L59.3769 65.8399ZM57.3699 64.9129L59.1429 40.3159L46.1199 51.2869C43.1589 53.7799 43.7799 58.5049 47.2809 60.1519L57.3699 64.9129Z" fill="#FAF2EB"/>
<path d="M47.9381 49.7578L48.1901 49.9738C48.4961 50.2348 48.6311 50.6218 48.6041 50.9908C48.5951 51.0628 48.5861 51.1258 48.5681 51.1978C48.5231 51.3778 48.4331 51.5398 48.3071 51.6928L47.1371 53.0428L46.3721 52.4038L47.6591 50.8828L47.1461 50.4328L47.9381 49.7578Z" fill="#FAF2EB"/>
<path d="M50.0446 49.1816L48.8747 50.4866C48.4247 50.9816 48.4697 51.7556 48.9647 52.1966L49.6756 52.8356L50.3416 52.0616L49.4957 51.3056L50.7826 49.8296L50.0446 49.1816Z" fill="#FAF2EB"/>
<path d="M52.8791 46.5626L52.2131 47.3276L51.5381 46.7246L52.3301 46.0586L52.8791 46.5626Z" fill="#FAF2EB"/>
<path d="M58.765 46.1126L58.729 46.3286C58.72 46.3556 58.711 46.3826 58.702 46.4186C58.657 46.5626 58.576 46.6976 58.477 46.8146L57.307 48.1646L56.542 47.5256L57.829 46.0046L56.974 45.2576L57.631 44.4746L58.351 45.1046C58.567 45.2936 58.702 45.5366 58.747 45.7886L58.765 46.1126Z" fill="#FAF2EB"/>
<path d="M58.7656 46.1123C58.7475 46.1843 58.7385 46.2563 58.7295 46.3284L58.7656 46.1123Z" fill="#FAF2EB"/>
<path d="M53.6536 59.0725L53.6986 57.2905C53.7166 56.6245 53.1856 56.0665 52.5196 56.0485L51.5656 56.0215L51.5566 57.0385L52.6906 57.0655L52.6636 59.0635L53.6536 59.0725Z" fill="#FAF2EB"/>
<path d="M53.4461 54.249L53.374 55.995C53.347 56.661 53.869 57.2279 54.535 57.2549L55.489 57.2909L55.516 56.274L54.382 56.229L54.436 54.267L53.4461 54.249Z" fill="#FAF2EB"/>
<path d="M45.0135 58.1187L45.5805 57.8127L46.5165 59.5047L46.5435 59.5587L47.4075 59.0727L46.5615 57.4977C46.4715 57.3267 46.3365 57.1827 46.1925 57.0747C46.1385 57.0387 46.0755 57.0027 46.0215 56.9757C45.6885 56.8137 45.2745 56.8137 44.9235 57.0027L44.5635 57.1917L45.0135 58.1187Z" fill="#FAF2EB"/>
<path d="M44.8428 54.9866L45.6438 56.5436C45.9498 57.1376 46.6788 57.3716 47.2818 57.0656L48.1278 56.6246L47.6418 55.7246L46.6338 56.2466L45.7158 54.5186L44.8428 54.9866Z" fill="#FAF2EB"/>
<path d="M57.1006 42.6296L56.2366 43.1156L56.1016 42.8726L56.8846 42.2246L57.1006 42.6296Z" fill="#FAF2EB"/>
<path d="M57.4244 64.1122L57.1904 64.2382L56.2274 62.4922L55.2284 63.0322L54.7334 62.1412L55.5704 61.6912C55.9214 61.5022 56.3264 61.5022 56.6684 61.6642C56.7314 61.6912 56.7854 61.7272 56.8394 61.7632C56.9924 61.8712 57.1184 62.0062 57.2084 62.1862L57.5144 62.7532L57.4244 64.1122Z" fill="#FAF2EB"/>
<path d="M57.6673 60.7378L57.5863 61.8718C57.3343 61.9168 57.0733 61.8808 56.8393 61.7728C56.7763 61.7458 56.7223 61.7098 56.6683 61.6738C56.5153 61.5658 56.3803 61.4218 56.2903 61.2418L55.4893 59.6848L56.3623 59.2168L57.2893 60.9448L57.6673 60.7378Z" fill="#FAF2EB"/>
<path d="M57.7667 53.637C57.9017 53.565 58.0457 53.52 58.1897 53.502L58.1087 54.609L57.4247 54.978L56.9297 54.087L57.7667 53.637Z" fill="#FAF2EB"/>
<path d="M57.6855 51.6208L58.3516 51.2607L58.2526 52.7098L57.6855 51.6208Z" fill="#FAF2EB"/>
<path d="M52.4021 50.433L54.1571 50.1C54.8141 49.974 55.2461 49.344 55.1291 48.687L54.9491 47.751L53.9501 47.958L54.1571 49.074L52.2041 49.47L52.4021 50.433Z" fill="#FAF2EB"/>
<path d="M57.0646 49.2178L55.3366 49.5148C54.6796 49.6318 54.2296 50.2528 54.3466 50.9098L54.5086 51.8548L55.5166 51.6658L55.3276 50.5498L57.2536 50.1898L57.0646 49.2178Z" fill="#FAF2EB"/>
<path d="M53.4015 62.4563L53.2575 62.9693L51.0615 61.9343C51.0165 61.9433 50.9805 61.9523 50.9355 61.9613C50.9715 61.9523 51.0075 61.9343 51.0525 61.9253C51.0795 61.9163 51.1155 61.9073 51.1425 61.9073C51.3225 61.8803 51.5115 61.8893 51.6915 61.9433L53.4015 62.4563Z" fill="#FAF2EB"/>
<path d="M50.9357 61.9617C50.9807 61.9527 51.0167 61.9437 51.0617 61.9347C51.0887 61.9257 51.1157 61.9167 51.1427 61.9077C51.4847 61.7817 51.7727 61.5117 51.8896 61.1337L52.1777 60.2247L51.1967 59.9277L50.8547 61.0077L48.9827 60.4317L48.8477 60.8817L50.9357 61.9617Z" fill="#FAF2EB"/>
<path d="M7.24886 38.9309L7.51886 37.8329C7.61786 37.4189 7.36586 37.0049 6.95186 36.8969L6.35787 36.7529L6.21387 37.3829L6.91586 37.5539L6.62786 38.7869L7.24886 38.9309Z" fill="#F9E1B9"/>
<path d="M7.77065 35.9062L7.48265 36.9862C7.37465 37.4002 7.61765 37.8232 8.03165 37.9312L8.61666 38.0842L8.76966 37.4542L8.06765 37.2742L8.37366 36.0592L7.77065 35.9062Z" fill="#F9E1B9"/>
<path d="M12.118 39.3175L11.659 39.8215L11.56 39.6145L10.912 39.9295L10.624 39.3445L11.173 39.0835C11.407 38.9755 11.659 38.9845 11.875 39.1015C11.911 39.1195 11.947 39.1465 11.983 39.1735C12.028 39.2095 12.082 39.2635 12.118 39.3175Z" fill="#F9E1B9"/>
<path d="M12.9638 38.4085L12.1898 39.2455C12.1178 39.2275 12.0368 39.2005 11.9738 39.1645C11.9378 39.1465 11.9018 39.1195 11.8658 39.0925C11.7758 39.0205 11.6948 38.9215 11.6408 38.8045L11.1729 37.7876L11.7398 37.5176L12.2798 38.6425L12.9368 38.3365L12.9638 38.4085Z" fill="#F9E1B9"/>
<path d="M9.14783 42.2789L8.21183 41.6309C7.86083 41.3879 7.38383 41.4779 7.14083 41.8289L6.79883 42.3329L7.33883 42.6929L7.75283 42.0989L8.80583 42.8099L9.14783 42.2789Z" fill="#F9E1B9"/>
<path d="M6.51074 40.7124L7.41974 41.3605C7.77074 41.6125 8.24775 41.5315 8.49975 41.1805L8.85075 40.6854L8.31975 40.3164L7.89674 40.9015L6.87074 40.1904L6.51074 40.7124Z" fill="#F9E1B9"/>
<path d="M5.10681 41.3335L4.17081 40.6855C3.81981 40.4425 3.34281 40.5325 3.09981 40.8835L2.75781 41.3875L3.29781 41.7475L3.71181 41.1535L4.76481 41.8645L5.10681 41.3335Z" fill="#F9E1B9"/>
<path d="M2.46973 39.7681L3.37873 40.4161C3.72973 40.6681 4.20673 40.5871 4.45873 40.2361L4.80973 39.7411L4.27873 39.3721L3.85573 39.9571L2.82973 39.2461L2.46973 39.7681Z" fill="#F9E1B9"/>
<path d="M14.9168 36.2753L14.4758 36.7523L14.0438 36.4643L13.6298 37.0583L13.0898 36.6983L13.4318 36.1943C13.5758 35.9873 13.8098 35.8703 14.0528 35.8613C14.0978 35.8613 14.1338 35.8613 14.1788 35.8703C14.2958 35.8883 14.4038 35.9333 14.5118 35.9963L14.9168 36.2753Z" fill="#F9E1B9"/>
<path d="M12.8105 35.0786L13.7195 35.7266C14.0705 35.9786 14.5475 35.8976 14.7995 35.5466L15.1506 35.0516L14.6195 34.6826L14.1965 35.2676L13.1705 34.5566L12.8105 35.0786Z" fill="#F9E1B9"/>
<path d="M18.9395 31.9111L18.7955 32.0731L18.1205 32.8112L18.0215 32.7482L18.3635 32.2442C18.4985 32.0371 18.7145 31.9291 18.9395 31.9111Z" fill="#F9E1B9"/>
<path d="M19.8306 30.9387L18.9396 31.9017C18.8316 31.8837 18.7236 31.8387 18.6336 31.7667L17.7246 31.1187L18.0846 30.5967L19.1106 31.3077L19.5336 30.7227L19.8306 30.9387Z" fill="#F9E1B9"/>
<path d="M10.6422 34.845C10.6332 34.89 10.6152 34.926 10.5972 34.962C10.5432 35.07 10.4712 35.16 10.3722 35.232L9.47217 35.925L9.07617 35.43L10.0662 34.638L9.98518 34.53C10.1832 34.44 10.3812 34.35 10.5792 34.251C10.6782 34.449 10.6962 34.656 10.6422 34.845Z" fill="#F9E1B9"/>
<path d="M11.7669 33.8994L10.8759 34.5654C10.5339 34.8174 10.4619 35.3034 10.7229 35.6454L11.0919 36.1314L11.6049 35.7354L11.1729 35.1594L12.1629 34.3944L11.7669 33.8994Z" fill="#F9E1B9"/>
<path d="M7.63539 43.377L8.09439 43.701L7.66239 44.169L7.27539 43.899L7.63539 43.377Z" fill="#F9E1B9"/>
<path d="M4.657 44.88L5.17901 44.664L5.683 45.8339L6.259 45.5819L5.827 44.529C5.782 44.412 5.701 44.313 5.611 44.232C5.584 44.205 5.548 44.187 5.521 44.16C5.314 44.034 5.06201 44.007 4.81901 44.106L4.33301 44.313L4.657 44.88Z" fill="#F9E1B9"/>
<path d="M4.89062 42.828L5.29563 43.863C5.44863 44.259 5.89863 44.457 6.29463 44.295L6.86163 44.07L6.60963 43.467L5.93463 43.737L5.45763 42.585L4.89062 42.828Z" fill="#F9E1B9"/>
<path d="M5.25114 36.582L5.45814 36.96L4.34214 37.563L4.68414 38.202L4.11714 38.517L3.82914 37.977C3.71214 37.752 3.71214 37.491 3.82014 37.275C3.83814 37.23 3.86514 37.194 3.89214 37.158C3.91914 37.122 3.94614 37.086 3.98214 37.05L5.25114 36.582Z" fill="#F9E1B9"/>
<path d="M3.91883 37.0771C3.90983 37.1041 3.90083 37.1311 3.88283 37.1671C3.86483 37.2121 3.83783 37.2481 3.81083 37.2841C3.73883 37.3831 3.64883 37.4641 3.53183 37.5181L2.53283 38.0221L2.29883 37.5811C2.76683 37.4551 3.30683 37.2931 3.91883 37.0771Z" fill="#F9E1B9"/>
<path d="M16.1047 31.893L16.4467 32.532L15.8797 32.847L15.5917 32.307C15.5197 32.172 15.4927 32.028 15.5017 31.893C16.0237 31.632 16.5637 31.362 17.1037 31.083L17.2207 31.29L16.1047 31.893Z" fill="#F9E1B9"/>
<path d="M38.2626 19.3184C37.5786 19.7234 36.8856 20.1374 36.1836 20.5424L36.5346 20.9474L37.9116 19.8134C38.0646 19.6874 38.1726 19.5344 38.2446 19.3724C38.2536 19.3544 38.2626 19.3364 38.2626 19.3184Z" fill="#F9E1B9"/>
<path d="M38.2721 19.3188C38.9831 18.8958 39.6851 18.4728 40.3781 18.0498L40.6661 18.4008L39.1541 19.6428L39.8651 20.5248L39.0731 21.1728L38.4791 20.4258C38.2361 20.1198 38.1641 19.7238 38.2541 19.3728C38.2541 19.3548 38.2631 19.3368 38.2721 19.3188Z" fill="#F9E1B9"/>
<path d="M31.1345 31.1177L31.4765 29.3627C31.6025 28.7057 31.1705 28.0667 30.5135 27.9407L29.5775 27.7607L29.3975 28.7687L30.5135 28.9847L30.1625 30.9467L31.1345 31.1177Z" fill="#F9E1B9"/>
<path d="M31.7195 26.3301L31.3595 28.0401C31.2245 28.6971 31.6385 29.3361 32.2955 29.4801L33.2315 29.6781L33.4295 28.6701L32.3225 28.4361L32.7005 26.5101L31.7195 26.3301Z" fill="#F9E1B9"/>
<path d="M24.9698 30.0918L24.0338 30.4248L23.3678 28.5438L22.2968 28.9128L22.1348 28.4448C22.6298 28.1838 23.1338 27.9138 23.6378 27.6348C23.7458 27.6708 23.8538 27.7248 23.9528 27.7878C24.0068 27.8238 24.0608 27.8688 24.1148 27.9228C24.2408 28.0488 24.3488 28.2108 24.4118 28.3998L24.9698 30.0918Z" fill="#F9E1B9"/>
<path d="M26.0853 27.7968L25.1763 28.0938C24.7983 28.2108 24.4113 28.1388 24.1143 27.9318C24.0603 27.8958 24.0063 27.8508 23.9613 27.8058C23.8893 27.7338 23.8353 27.6618 23.7812 27.5808C24.0693 27.4188 24.3663 27.2658 24.6633 27.1038L24.6903 27.1938L25.7703 26.8428L26.0853 27.7968Z" fill="#F9E1B9"/>
<path d="M45.2377 16.5743L44.7697 17.4473L43.0147 16.5023L42.4657 17.4923L41.8447 17.1593C42.2317 16.9253 42.6097 16.6913 42.9877 16.4573C43.3117 16.2593 43.6357 16.0523 43.9507 15.8633L45.2377 16.5743Z" fill="#F9E1B9"/>
<path d="M49.3504 14.4677L48.6574 15.2507L48.4414 15.1337L47.9104 16.0787L47.8834 16.1237L47.8744 16.1147L46.9834 15.6377L47.4514 14.8007C47.6494 14.4497 47.9914 14.2337 48.3604 14.1887C48.4324 14.1797 48.4954 14.1797 48.5674 14.1797C48.7474 14.1887 48.9274 14.2337 49.0984 14.3327L49.3504 14.4677Z" fill="#F9E1B9"/>
<path d="M48.7296 12.8208L48.4866 13.2438L48.2706 13.1178C47.9556 13.3248 47.6316 13.5318 47.3076 13.7388L47.8116 14.0268C47.9916 14.1258 48.1806 14.1798 48.3696 14.1888C48.4416 14.1888 48.5046 14.1888 48.5766 14.1798C48.9366 14.1348 49.2786 13.9188 49.4676 13.5858L49.9446 12.7578L49.3416 12.4248L48.7296 12.8208Z" fill="#F9E1B9"/>
<path d="M31.6924 34.3217L31.7644 34.3037L31.7014 34.3667L31.6924 34.3217Z" fill="#F9E1B9"/>
<path d="M33.8617 31.9274L33.0967 32.8004L32.8447 32.0174L33.7897 31.6934L33.8617 31.9274Z" fill="#F9E1B9"/>
<path d="M37.7494 27.5535L36.9844 28.4175L36.6064 27.3465L35.5354 27.7065L35.1934 26.7435L36.1024 26.4374C36.4804 26.3114 36.8764 26.3744 37.1824 26.5905C37.2454 26.6355 37.2994 26.6805 37.3444 26.7255C37.4704 26.8515 37.5784 27.0135 37.6324 27.1935L37.7494 27.5535Z" fill="#F9E1B9"/>
<path d="M38.3167 26.9062C37.9657 26.9962 37.6147 26.9152 37.3357 26.7262C37.2727 26.6812 37.2187 26.6362 37.1737 26.5912C37.0387 26.4562 36.9397 26.2942 36.8767 26.1052L36.3457 24.4402L37.2817 24.1162L37.9027 25.9792L38.9827 25.6282L39.1177 26.0152L38.3167 26.9062Z" fill="#F9E1B9"/>
<path d="M34.1319 21.749C34.0509 21.884 33.9429 22.01 33.8169 22.109C33.7629 22.154 33.7089 22.19 33.6459 22.217C33.4839 22.298 33.3039 22.352 33.1059 22.352H33.0879C33.4299 22.154 33.7809 21.956 34.1319 21.749Z" fill="#F9E1B9"/>
<path d="M36.13 21.9648H34.3751C33.7091 21.9648 33.1601 22.5138 33.1691 23.1798L33.1781 24.1338L34.1951 24.1159V22.9818L36.157 22.9458L36.13 21.9648Z" fill="#F9E1B9"/>
<path d="M30.3247 34.4205L28.7227 33.6285C28.1197 33.3315 27.3907 33.5745 27.1027 34.1775L26.6797 35.0325L27.6067 35.4735L28.1107 34.4565L29.9107 35.3115L30.3247 34.4205Z" fill="#F9E1B9"/>
<path d="M25.8604 32.5846L27.4174 33.3856C28.0114 33.6916 28.7403 33.4576 29.0463 32.8636L29.4783 32.0086L28.5604 31.5586L28.0383 32.5666L26.2833 31.6936L25.8604 32.5846Z" fill="#F9E1B9"/>
<path d="M22.5036 33.4852L20.1816 32.5941L20.8476 32.3691C21.2256 32.2431 21.6216 32.3061 21.9276 32.5221C21.9816 32.5581 22.0356 32.6031 22.0896 32.6571C22.2156 32.7831 22.3236 32.9451 22.3866 33.1341L22.5036 33.4852Z" fill="#F9E1B9"/>
<path d="M21.0996 30.3709L21.6306 32.0359C21.8376 32.6749 22.5216 33.0259 23.1516 32.8189L24.0606 32.5219L23.7366 31.5589L22.6566 31.9099L22.0356 30.0469L21.0996 30.3709Z" fill="#F9E1B9"/>
<path d="M43.8154 20.7137L42.8974 21.7397L42.1234 22.6217L40.7734 22.3877L40.9264 21.4067L42.8614 21.7127L43.0504 20.5967L43.8154 20.7137Z" fill="#F9E1B9"/>
<path d="M45.9399 18.2119L46.0209 18.2209L45.9219 18.3289L45.9399 18.2119Z" fill="#F9E1B9"/>
<path d="M68.5034 126.203L68.4584 127.985L67.4683 127.976L67.4954 125.987L66.3613 125.96L66.3703 124.943L67.3243 124.97C67.7294 124.979 68.0804 125.186 68.2874 125.492C68.3234 125.546 68.3594 125.609 68.3864 125.663C68.4674 125.825 68.5124 126.014 68.5034 126.203Z" fill="#F7C57C"/>
<path d="M70.3209 125.195L70.2939 126.212L69.3399 126.176C68.9439 126.158 68.6019 125.96 68.3949 125.654C68.3589 125.6 68.3229 125.537 68.2959 125.483C68.2149 125.312 68.1699 125.123 68.1789 124.916L68.2509 123.26V123.161L68.8719 123.179L69.2409 123.188L69.1869 125.15L70.3209 125.195Z" fill="#F7C57C"/>
<path d="M62.2122 127.985L61.3482 128.471L61.1592 128.138L61.7442 127.112L62.2122 127.985Z" fill="#F7C57C"/>
<path d="M62.9318 125.546L62.5088 125.762L62.7878 125.276L62.9318 125.546Z" fill="#F7C57C"/>
<path d="M70.3751 130.604C70.5371 130.514 70.7081 130.469 70.8881 130.46C70.4381 130.685 69.9971 130.901 69.5651 131.108L69.5381 131.054L70.3751 130.604Z" fill="#F7C57C"/>
<path d="M73.1107 129.344C72.4627 129.677 71.8237 129.992 71.2027 130.307C71.1667 130.253 71.1307 130.199 71.1037 130.145L70.3027 128.588L71.1757 128.12L72.1027 129.848L73.1107 129.326V129.344Z" fill="#F7C57C"/>
<path d="M75.0554 124.619L74.1914 125.105L73.2284 123.359L72.2294 123.899L71.7344 123.008L72.2114 122.756L73.6784 122.531C73.6964 122.54 73.7144 122.549 73.7324 122.558C73.7774 122.585 73.8224 122.603 73.8584 122.639C74.0114 122.747 74.1374 122.882 74.2274 123.053L75.0554 124.619Z" fill="#F7C57C"/>
<path d="M75.487 122.324L74.929 122.612C74.578 122.792 74.1819 122.783 73.8489 122.63C73.8039 122.612 73.7589 122.585 73.7139 122.558C73.6959 122.549 73.6869 122.54 73.6689 122.531C73.6869 122.54 73.7049 122.549 73.7229 122.558L75.487 122.324Z" fill="#F7C57C"/>
<path d="M77.2776 127.184C76.9806 127.346 76.6746 127.499 76.3776 127.652L75.6396 126.221L76.5126 125.753L77.2776 127.184Z" fill="#F7C57C"/>
<path d="M81.2737 125.042C80.9587 125.213 80.6347 125.384 80.3197 125.555L79.4287 125.303L79.6897 124.313L80.6077 124.574C80.8957 124.664 81.1207 124.826 81.2737 125.042Z" fill="#F7C57C"/>
<path d="M82.921 123.341L82.651 124.286C82.237 124.511 81.823 124.736 81.418 124.961C81.427 124.889 81.445 124.817 81.463 124.745L81.976 123.071L82.921 123.341Z" fill="#F7C57C"/>
<path d="M81.7334 121.514L82.9212 121.352L81.9404 121.883L81.7334 121.514Z" fill="#F7C57C"/>
<path d="M84.7751 122.603L83.9022 123.089L82.9482 121.352L84.0282 121.208L84.7751 122.603Z" fill="#F7C57C"/>
<path d="M68.1972 131.378L68.0712 131.828L67.9272 132.332L67.3512 132.17L66.0101 131.783L65.6861 132.872L64.7051 132.593L64.9841 131.675C65.1011 131.288 65.3891 131.009 65.7401 130.883C65.8031 130.856 65.8751 130.838 65.9471 130.829C66.1271 130.802 66.3161 130.811 66.4962 130.865L68.1972 131.378Z" fill="#F7C57C"/>
<path d="M66.9819 129.137L66.6939 130.046C66.5769 130.424 66.2889 130.694 65.9469 130.82C65.8839 130.847 65.8119 130.865 65.7399 130.874C65.5509 130.91 65.3619 130.892 65.164 130.838L63.499 130.307L63.787 129.353L65.6589 129.929L66.0009 128.849L66.9819 129.137Z" fill="#F7C57C"/>
<path d="M61.0066 132.989L60.1425 133.475L59.1794 131.729L59.1074 131.765L59.6115 130.883C59.6115 130.883 59.6205 130.883 59.6295 130.892C59.6925 130.919 59.7465 130.955 59.8095 131C59.9625 131.108 60.0885 131.243 60.1785 131.414L61.0066 132.989Z" fill="#F7C57C"/>
<path d="M61.7175 130.55L60.8715 130.991C60.5205 131.171 60.1245 131.162 59.7915 131.009C59.7285 130.982 59.6655 130.946 59.6115 130.901L59.6025 130.892L60.1245 129.974L60.2325 130.172L61.2405 129.65L61.7175 130.55Z" fill="#F7C57C"/>
<path d="M58.7382 135.725L58.2342 135.734L57.1001 135.761C57.0101 135.725 56.9471 135.68 56.9111 135.617L57.4062 134.744L58.7022 134.726L58.7292 135.617L58.7382 135.725Z" fill="#F7C57C"/>
<path d="M61.5371 134.312L61.8071 134.582C61.5101 134.699 61.2221 134.807 60.9521 134.906L61.5371 134.312Z" fill="#F7C57C"/>
<path d="M106.627 95.9722C106.618 96.0352 106.609 96.0892 106.6 96.1522C106.564 96.3142 106.483 96.4582 106.366 96.5932L105.331 97.7813L104.656 97.2142L105.79 95.8641L105.772 95.8461L106.348 95.1621C106.564 95.3961 106.654 95.6841 106.627 95.9722Z" fill="#F7C57C"/>
<path d="M107.428 96.2511L108.175 96.9261L107.581 97.6101L106.951 97.0431C106.69 96.8091 106.572 96.4761 106.6 96.1521C106.609 96.0891 106.618 96.0351 106.627 95.9721C106.672 95.8101 106.744 95.6571 106.87 95.5221L107.905 94.3701L108.571 94.9461L107.428 96.2511Z" fill="#F7C57C"/>
<path d="M110.407 92.057L109.813 92.7411L109.363 92.3361C109.615 92.129 109.849 91.94 110.065 91.751L110.407 92.057Z" fill="#F7C57C"/>
<path d="M114.178 92.2734L114.646 93.0925L114.322 93.4705L113.647 92.9034L114.178 92.2734Z" fill="#F7C57C"/>
<path d="M111.136 101.543L111.1 103.118L110.227 103.109L110.245 101.345L109.246 101.318L109.255 100.418L110.101 100.436C110.461 100.445 110.767 100.625 110.956 100.895C110.992 100.94 111.019 100.994 111.046 101.048C111.1 101.21 111.136 101.372 111.136 101.543Z" fill="#F7C57C"/>
<path d="M112.738 100.652L112.711 101.552L111.865 101.516C111.514 101.498 111.217 101.327 111.028 101.057C110.992 101.012 110.965 100.958 110.938 100.904C110.866 100.751 110.83 100.58 110.839 100.4L110.902 98.8516L111.775 98.8696L111.73 100.607L112.738 100.652Z" fill="#F7C57C"/>
<path d="M105.574 103.118L104.809 103.55L103.954 102.011L103.783 102.101L103.54 101.219C103.81 101.129 104.089 101.147 104.341 101.264C104.395 101.291 104.449 101.318 104.503 101.354C104.638 101.444 104.746 101.57 104.827 101.723L105.574 103.118Z" fill="#F7C57C"/>
<path d="M106.204 100.958L105.457 101.345C105.151 101.507 104.791 101.498 104.503 101.354C104.449 101.327 104.395 101.3 104.341 101.264C104.206 101.165 104.089 101.039 104.008 100.877L103.297 99.4999L104.071 99.0859L104.89 100.616L105.781 100.157L106.204 100.958Z" fill="#F7C57C"/>
<path d="M113.305 105.305C112.954 105.566 112.585 105.836 112.207 106.106L112.054 105.836L112.801 105.431C112.954 105.35 113.134 105.305 113.305 105.305Z" fill="#F7C57C"/>
<path d="M114.223 104.612C113.989 104.792 113.755 104.972 113.503 105.152C113.476 105.116 113.449 105.071 113.422 105.026L112.711 103.649L113.485 103.235L114.223 104.612Z" fill="#F7C57C"/>
<path d="M116.932 100.138L116.167 100.57L115.312 99.0315L114.43 99.5085L113.989 98.7165L114.736 98.3205C115.051 98.1495 115.411 98.1585 115.708 98.3025C115.762 98.3295 115.816 98.3565 115.861 98.3925C115.996 98.4825 116.104 98.6085 116.185 98.7615L116.932 100.138Z" fill="#F7C57C"/>
<path d="M117.04 97.2324L116.248 97.6374L115.429 96.1074L114.655 96.5214L115.366 97.8984C115.447 98.0604 115.564 98.1864 115.708 98.2854C115.753 98.3214 115.807 98.3484 115.861 98.3754C116.158 98.5194 116.509 98.5194 116.815 98.3574L117.49 98.0064L117.04 97.2324Z" fill="#F7C57C"/>
<path d="M118.174 101.174C118.012 101.363 117.814 101.579 117.58 101.804L117.454 101.561L118.174 101.174Z" fill="#F7C57C"/>
<path d="M112.117 94.8646C112.072 94.9096 112.027 94.9546 111.982 94.9906C111.856 95.0896 111.703 95.1616 111.532 95.1886L109.984 95.4766L109.804 94.6216L111.532 94.2706L111.343 93.2806L112.225 93.1006L112.378 93.9286C112.459 94.2886 112.342 94.6306 112.117 94.8646Z" fill="#F7C57C"/>
<path d="M112.567 95.5852L112.738 96.5752L111.847 96.7373L111.703 95.9002C111.64 95.5582 111.757 95.2252 111.973 94.9912C112.018 94.9462 112.063 94.9012 112.108 94.8652C112.243 94.7662 112.396 94.6943 112.576 94.6673L114.106 94.4062L114.268 95.2702L112.567 95.5852Z" fill="#F7C57C"/>
<path d="M110.866 106.115L110.632 106.961L108.94 106.475L108.652 107.438L107.788 107.186L108.031 106.376C108.13 106.034 108.391 105.782 108.697 105.674C108.751 105.656 108.814 105.638 108.877 105.629C109.039 105.602 109.201 105.611 109.363 105.656L110.866 106.115Z" fill="#F7C57C"/>
<path d="M109.786 104.135L109.534 104.936C109.426 105.269 109.174 105.512 108.868 105.62C108.814 105.638 108.751 105.656 108.688 105.665C108.526 105.692 108.346 105.683 108.175 105.629L106.699 105.152L106.951 104.315L108.607 104.819L108.913 103.865L109.786 104.135Z" fill="#F7C57C"/>
<path d="M105.133 105.386L104.728 105.593L104.485 104.702L104.71 104.585L105.133 105.386Z" fill="#F7C57C"/>
<path d="M106.024 110.327L105.952 110.057C106.006 109.967 106.069 109.886 106.141 109.805L107.257 108.734L107.716 109.202C107.167 109.571 106.6 109.949 106.024 110.327Z" fill="#F7C57C"/>
</svg>
