<svg width="148" height="148" viewBox="0 0 148 148" fill="none" xmlns="http://www.w3.org/2000/svg">
<path d="M0 32C0 16.9151 0 9.37258 4.68629 4.68629C9.37258 0 16.9151 0 32 0H116C131.085 0 138.627 0 143.314 4.68629C148 9.37258 148 16.9151 148 32V116C148 131.085 148 138.627 143.314 143.314C138.627 148 131.085 148 116 148H32C16.9151 148 9.37258 148 4.68629 143.314C0 138.627 0 131.085 0 116V32Z" fill="#F8F5FF"/>
<path d="M48.4203 30.053H56.8699C54.6049 30.053 52.7611 31.8668 52.7611 34.1084V39.9234V104.713V113.921C52.7611 116.156 54.5988 117.976 56.8699 117.976H48.4203C46.1553 117.976 44.3115 116.162 44.3115 113.921V34.1084C44.3176 31.8668 46.1553 30.053 48.4203 30.053Z" fill="#CFBEFF"/>
<path d="M56.0579 117.892C56.3204 117.946 56.5952 117.97 56.876 117.97H48.4203C48.3837 117.97 48.3471 117.97 48.3043 117.97C48.109 117.964 47.9197 117.946 47.7304 117.916C46.717 117.747 45.8317 117.211 45.2151 116.451C45.0075 116.198 44.8305 115.915 44.69 115.62C44.4458 115.102 44.3115 114.529 44.3115 113.921V34.1084C44.3115 32.0536 45.8622 30.3543 47.8709 30.0892C48.0479 30.0651 48.2311 30.053 48.4203 30.053H56.8699C56.3204 30.053 55.7954 30.1615 55.3192 30.3543C54.4461 30.7038 53.7257 31.3426 53.274 32.15C53.1213 32.4152 53.0053 32.6984 52.9199 32.9997C52.8161 33.3492 52.7672 33.7228 52.7672 34.1084V113.921C52.7672 115.879 54.1836 117.518 56.0579 117.892Z" fill="#CFBEFF"/>
<path d="M91.0404 108.117L81.8337 112.227C81.8765 112.016 81.8948 111.805 81.8948 111.582C81.8948 109.708 80.3563 108.19 78.4575 108.19L77.4746 105.834L79.3062 104.707H83.9766L91.0404 108.117Z" fill="#F8F5FF"/>
<path d="M104.133 104.5V38.25H99.7306H78.1917H54.8275H52.25V106.083H61.6721H79.0488H83.766H104.053C104.109 105.56 104.133 105.036 104.133 104.5Z" fill="white"/>
<path d="M104.136 35.6146V39.923H99.7764L93.9644 36.3497L104.136 35.6146Z" fill="#170872"/>
<path d="M104.137 34.1078V35.6203L93.9653 36.3554L85.998 31.4625L91.9811 30.0584H100.034C102.299 30.0524 104.137 31.8662 104.137 34.1078Z" fill="#CFBEFF"/>
<path d="M91.0408 108.117L83.9771 104.707H104.063C103.752 107.75 102.5 110.522 100.602 112.733L91.0408 108.117Z" fill="#CFBEFF"/>
<path d="M91.0411 108.117L100.602 112.733C97.8545 115.933 93.7579 117.964 89.1729 117.964H79.3069V117.909L78.4521 114.975C80.1311 114.975 81.5231 113.788 81.8283 112.221L91.0411 108.117Z" fill="#8960FF"/>
<path d="M100.602 112.739C100.541 112.812 100.474 112.884 100.413 112.956C100.223 113.167 100.028 113.378 99.8204 113.583C99.6067 113.8 99.3808 114.011 99.1488 114.21C98.8374 114.487 98.52 114.746 98.1842 114.993C98.0132 115.125 97.8362 115.246 97.6591 115.373C97.3661 115.571 97.073 115.758 96.7678 115.933C96.0352 116.361 95.2659 116.722 94.4661 117.024C94.2036 117.12 93.9472 117.21 93.6785 117.295C92.256 117.735 90.748 117.976 89.179 117.976H79.3069V117.921L78.4521 114.987C79.0566 114.987 79.6182 114.836 80.1128 114.565C80.821 114.179 81.3827 113.547 81.6696 112.787C81.7368 112.613 81.7917 112.426 81.8283 112.239L83.2508 111.606H83.257L84.6917 110.968L86.2302 110.281L86.395 110.208L87.7626 109.6L88.5502 109.25L89.8078 108.69L91.0472 108.135L91.2487 108.232L92.0118 108.599L92.6101 108.889L94.0265 109.576L94.4112 109.762L95.5345 110.305L96.3648 110.709L98.8924 111.932L100.187 112.552L100.602 112.739Z" fill="#8960FF"/>
<path d="M99.777 39.923H78.4516L71.6382 36.1207L71.6504 36.1026C71.8336 36.199 72.0411 36.2532 72.2609 36.2532H84.6484C85.0025 36.2532 85.326 36.1086 85.558 35.8857C85.79 35.6567 85.9305 35.3433 85.9305 34.9938C85.9305 34.2948 85.3566 33.7284 84.6484 33.7284H76.3209L86.0037 31.4627L93.971 36.3557L99.777 39.923Z" fill="#8960FF"/>
<path d="M91.9803 30.053L85.9972 31.457L76.3144 33.7228H72.2544C71.9003 33.7228 71.5829 33.8613 71.3509 34.0903C71.1189 34.3193 70.9784 34.6266 70.9784 34.9701L71.882 36.2476L63.292 31.451L64.6107 30.047H91.9803V30.053Z" fill="#170872"/>
<path d="M66.0522 31.0587C66.1621 31.131 66.2537 31.2334 66.3208 31.354L66.9435 32.4808L66.3208 32.8363L65.6065 31.589L64.88 31.9807L64.5137 31.3419L65.1242 31.0105C65.3806 30.8719 65.6737 30.8719 65.924 30.9864C65.8141 30.9081 65.7164 30.8056 65.6492 30.6791L65.3196 30.0584H67.1023V30.0825L67.4564 30.7273L66.8398 31.0466C66.5833 31.1732 66.2964 31.1732 66.0522 31.0587Z" fill="#021544"/>
<path d="M69.0379 34.6629L67.9878 34.078L68.1282 33.8669L68.7082 34.2468C68.8669 34.3553 68.9768 34.5001 69.0379 34.6629Z" fill="#021544"/>
<path d="M69.9775 33.5172L70.5758 33.9149L69.7822 35.0778L69.1533 34.7283C69.1777 34.6681 69.2083 34.6078 69.251 34.5536L69.9775 33.5172Z" fill="#021544"/>
<path d="M70.869 30.7454L71.5467 31.2093L71.1315 31.818L70.5576 31.4263C70.3195 31.2636 70.1913 31.0105 70.1791 30.7454C70.1608 30.8779 70.1181 31.0045 70.0387 31.125L69.3122 32.1855L68.7017 31.7999L69.4953 30.6007L68.8054 30.1488L68.8665 30.0584H71.333L70.869 30.7454Z" fill="#021544"/>
<path d="M75.0091 32.1798L74.2093 33.3488L74.7527 33.7224H72.4999L72.8417 33.2042L72.1519 32.7523L72.5548 32.1376L73.1348 32.5233C73.379 32.686 73.5133 32.9451 73.5255 33.2102C73.5438 33.0777 73.5927 32.9451 73.6782 32.8246L74.4047 31.7881L75.0091 32.1798Z" fill="#021544"/>
<path d="M75.8021 30.053L75.2465 30.867L74.6421 30.4811L74.9229 30.053H75.8021Z" fill="#021544"/>
<path d="M77.3708 30.053L77.0656 30.4992L76.4917 30.1073C76.4673 30.0892 76.4429 30.0711 76.4185 30.053H77.3708Z" fill="#021544"/>
<path d="M91.9809 30.053L89.783 30.5652L88.5071 30.8665L87.7866 31.0353L85.9978 31.4571L85.3751 31.6017L84.6364 31.7764L82.0112 32.3911L81.2785 32.5598L80.6924 31.5294L79.9659 31.9211L79.5996 31.2823L80.2101 30.9509C80.4665 30.8123 80.7596 30.8123 81.0038 30.9268C80.8939 30.8485 80.7962 30.746 80.7291 30.6195L80.4299 30.0591H91.9809V30.053Z" fill="#021544"/>
<path d="M91.1015 79.2531H85.9365V84.351H91.1015V79.2531Z" fill="#CFBEFF"/>
<path d="M91.1015 71.2092H85.9365V76.307H91.1015V71.2092Z" fill="#CFBEFF"/>
<path d="M91.1015 63.1707H85.9365V68.2686H91.1015V63.1707Z" fill="#CFBEFF"/>
<path d="M84.6485 33.7226C85.3567 33.7226 85.9306 34.289 85.9306 34.988C85.9306 35.3375 85.7902 35.6509 85.5582 35.8798C85.3262 36.1088 85.0026 36.2474 84.6485 36.2474H72.2611C72.0413 36.2474 71.8337 36.1932 71.6506 36.0968C71.2476 35.8798 70.979 35.4641 70.979 34.982C70.979 34.976 70.979 34.9699 70.979 34.9699C70.9851 34.6265 71.1255 34.3131 71.3514 34.0902C71.5834 33.8612 71.9009 33.7226 72.255 33.7226H76.3149H84.6485Z" fill="#6645EF"/>
<path d="M81.8887 87.2919H76.7236V92.3897H81.8887V87.2919Z" fill="#CFBEFF"/>
<path d="M81.8887 79.2531H76.7236V84.351H81.8887V79.2531Z" fill="#CFBEFF"/>
<path d="M81.8887 71.2092H76.7236V76.307H81.8887V71.2092Z" fill="#CFBEFF"/>
<path d="M81.8887 63.1707H76.7236V68.2686H81.8887V63.1707Z" fill="#CFBEFF"/>
<path d="M81.895 111.588C81.895 111.805 81.8705 112.022 81.8339 112.233C81.5286 113.8 80.1367 114.987 78.4577 114.987C76.559 114.987 75.0205 113.468 75.0205 111.594C75.0205 109.72 76.559 108.202 78.4577 108.202C80.3503 108.196 81.895 109.714 81.895 111.588Z" fill="#CFBEFF"/>
<path d="M79.3061 117.915V117.97H73.2375V117.915L66.2227 112.739L77.4745 105.833L78.4575 108.19C76.5588 108.19 75.0202 109.708 75.0202 111.582C75.0202 113.456 76.5588 114.975 78.4575 114.975L79.3061 117.915Z" fill="#6645EF"/>
<path d="M79.3063 104.713L77.4748 105.833L66.2229 112.739L59.208 107.563L62.0958 104.713H79.3063Z" fill="#170872"/>
<path d="M78.4519 39.9228H55.3193L63.2927 31.4565L70.0023 35.2046L71.6385 36.1145L78.4519 39.9228Z" fill="#CFBEFF"/>
<path d="M73.2373 117.915V117.97H56.8754C54.6104 117.97 52.7666 116.156 52.7666 113.914L59.2076 107.557L66.2225 112.733L73.2373 117.915Z" fill="#CFBEFF"/>
<path d="M72.6767 79.2531H67.5117V84.351H72.6767V79.2531Z" fill="#CFBEFF"/>
<path d="M72.6767 71.2092H67.5117V76.307H72.6767V71.2092Z" fill="#CFBEFF"/>
<path d="M72.6767 63.1707H67.5117V68.2686H72.6767V63.1707Z" fill="#CFBEFF"/>
<path d="M64.6107 30.053L63.292 31.4571L55.3186 39.9234H52.7666V34.1084C52.7666 31.8728 54.6043 30.053 56.8754 30.053H64.6107Z" fill="#8960FF"/>
<path d="M62.0953 104.713L59.2076 107.563L52.7666 113.92V104.713H62.0953Z" fill="#8960FF"/>
<path d="M83.274 111.456C83.2679 111.504 83.2618 111.546 83.2557 111.588C83.2557 111.6 83.2496 111.613 83.2496 111.625C83.2129 111.769 83.1397 111.902 83.0359 112.022L82.0773 113.113L81.6743 112.782C81.7415 112.607 81.7964 112.42 81.8331 112.233L83.2557 111.6C83.2557 111.552 83.2618 111.504 83.274 111.456Z" fill="#6645EF"/>
<path d="M84.7084 112.329L84.159 112.95L83.5729 112.432C83.3348 112.221 83.2249 111.919 83.2432 111.624C83.2432 111.612 83.2432 111.6 83.2493 111.594C83.2554 111.546 83.2615 111.504 83.2737 111.455C83.2676 111.504 83.2615 111.546 83.2554 111.588L84.6901 110.949L84.0124 111.714L84.7084 112.329Z" fill="#6645EF"/>
<path d="M91.0401 108.117L91.2416 108.22L90.4052 109.172L89.8008 108.672L91.0401 108.117Z" fill="#6645EF"/>
<path d="M92.6032 108.877L92.4872 109.009L92.0049 108.587L92.6032 108.877Z" fill="#6645EF"/>
<path d="M87.4135 118L87.4502 116.56C87.4624 116.017 87.0289 115.565 86.4794 115.553L85.698 115.535L85.6919 116.361L86.6199 116.385L86.6016 118H87.4135Z" fill="#6645EF"/>
<path d="M87.2432 114.1L87.1821 115.516C87.1577 116.059 87.5851 116.517 88.1346 116.535L88.9161 116.565L88.9405 115.739L88.0125 115.703L88.0552 114.119L87.2432 114.1Z" fill="#6645EF"/>
<path d="M81.351 117.969L80.7955 116.981L79.9774 117.415L79.5684 116.692L80.2582 116.324C80.5513 116.174 80.881 116.174 81.1557 116.306C81.2045 116.33 81.2534 116.355 81.2961 116.391C81.4182 116.475 81.522 116.59 81.6014 116.728L82.279 117.969H81.351Z" fill="#6645EF"/>
<path d="M80.1909 114.697L80.8503 115.957C81.1006 116.439 81.6989 116.625 82.1873 116.378L82.8833 116.023L82.4864 115.294L81.6622 115.716L80.9052 114.318L80.1909 114.697Z" fill="#6645EF"/>
<path d="M92.8225 115.276L92.1326 114.004C91.8701 113.528 91.2718 113.348 90.7895 113.607L90.0996 113.974L90.5087 114.697L91.3268 114.264L92.1204 115.674L92.8225 115.276Z" fill="#6645EF"/>
<path d="M90.7163 111.974L91.3757 113.233C91.626 113.715 92.2243 113.902 92.7127 113.655L93.4087 113.299L93.0119 112.57L92.1877 112.992L91.4306 111.594L90.7163 111.974Z" fill="#6645EF"/>
<path d="M94.4592 117.024C94.1967 117.121 93.9403 117.211 93.6717 117.296L93.2993 116.584L94.0136 116.204L94.4592 117.024Z" fill="#6645EF"/>
<path d="M97.3775 115.246C97.4813 115.276 97.5729 115.318 97.6523 115.373C97.3592 115.571 97.0661 115.758 96.7609 115.933L96.4067 115.831L96.6265 115.035L97.3775 115.246Z" fill="#6645EF"/>
<path d="M99.1473 114.209C98.8359 114.487 98.5184 114.746 98.1826 114.993L98.4818 114.022L99.1473 114.209Z" fill="#6645EF"/>
<path d="M100.405 112.956C100.216 113.167 100.021 113.378 99.8132 113.582L99.276 112.63L98.4579 113.064L98.0488 112.341L98.7387 111.974C98.7876 111.949 98.8303 111.925 98.8791 111.913L100.173 112.534L100.405 112.956Z" fill="#6645EF"/>
<path d="M88.5426 109.232L88.6158 109.6C88.6769 109.919 88.5731 110.232 88.3655 110.449C88.3289 110.491 88.2862 110.528 88.2373 110.564C88.1213 110.654 87.9809 110.714 87.8222 110.745L86.3875 111.01L86.2288 110.262L86.2227 110.226L86.3936 110.19L87.8222 109.907L87.7611 109.582L88.5426 109.232Z" fill="#6645EF"/>
<path d="M90.2094 110.033L88.793 110.268C88.2496 110.359 87.8894 110.865 87.981 111.401L88.1153 112.167L88.9395 112.016L88.7808 111.112L90.3621 110.823L90.2094 110.033Z" fill="#6645EF"/>
<path d="M96.3696 111.191L95.5332 111.215L95.521 110.443C95.521 110.395 95.521 110.341 95.5332 110.293L96.3635 110.697L96.3696 111.191Z" fill="#6645EF"/>
<path d="M94.019 109.563L94.4104 109.75L94.0252 109.744L94.019 109.563Z" fill="#6645EF"/>
<path d="M88.5129 30.8667L87.7925 31.0355L87.7437 30.7159L86.9256 30.8365L86.8096 30.113L87.182 30.0587L87.4995 30.0105C87.6521 29.9864 87.7986 30.0045 87.939 30.0587C88.0611 30.1009 88.171 30.1733 88.2565 30.2637C88.2931 30.2999 88.3237 30.3361 88.3542 30.3783C88.4336 30.4868 88.4824 30.6134 88.5007 30.7521L88.5129 30.8667Z" fill="#F8F5FF"/>
<path d="M89.7761 30.5354L89.0862 30.6259C88.7993 30.662 88.5306 30.5595 88.3414 30.3726C88.3047 30.3364 88.2742 30.3003 88.2437 30.258C88.2009 30.1978 88.1643 30.1254 88.1338 30.053H89.6967L89.7761 30.5354Z" fill="#F8F5FF"/>
<path d="M68.8724 30.053L68.8113 30.1434L69.5012 30.5953L68.7075 31.7945L69.318 32.1801L70.0446 31.1136C70.1239 30.9991 70.1728 30.8665 70.185 30.7339C70.1911 30.6857 70.1911 30.6375 70.1911 30.5953C70.185 30.3965 70.1056 30.1976 69.9652 30.047H68.8724V30.053Z" fill="#F8F5FF"/>
<path d="M70.4537 30.053L70.3438 30.2097C70.2583 30.3302 70.2095 30.4628 70.1912 30.6014C70.1851 30.6496 70.1851 30.6978 70.1851 30.74C70.1973 31.0051 70.3255 31.2582 70.5636 31.4209L71.1375 31.8126L71.5526 31.204L70.8749 30.74L71.345 30.053H70.4537Z" fill="#F8F5FF"/>
<path d="M74.922 30.053H75.8011L75.2455 30.867L74.6411 30.4811L74.922 30.053Z" fill="#F8F5FF"/>
<path d="M77.3704 30.053L77.0651 30.4992L76.4912 30.1073C76.4668 30.0892 76.4424 30.0711 76.418 30.053H77.3704Z" fill="#F8F5FF"/>
<path d="M73.5245 33.3549C73.5062 33.4815 73.4635 33.608 73.3841 33.7225H72.4989L72.8408 33.2043L72.1509 32.7523L72.5538 32.1377L73.1338 32.5233C73.378 32.686 73.5123 32.9452 73.5245 33.2103C73.5306 33.2525 73.5306 33.3007 73.5245 33.3549Z" fill="#F8F5FF"/>
<path d="M74.2075 33.3488L74.7508 33.7224H73.6214C73.5603 33.608 73.5237 33.4814 73.5176 33.3549C73.5176 33.3067 73.5176 33.2585 73.5237 33.2102C73.542 33.0777 73.5908 32.9451 73.6763 32.8246L74.4028 31.7881L75.0011 32.1859L74.2075 33.3488Z" fill="#F8F5FF"/>
<path d="M69.0369 34.6629L67.9868 34.078L68.1272 33.8669L68.7072 34.2468C68.866 34.3553 68.9759 34.5001 69.0369 34.6629Z" fill="#F8F5FF"/>
<path d="M69.0918 35.0838C69.0918 35.0356 69.0918 34.9874 69.0981 34.9331C69.0981 34.9874 69.0981 35.0356 69.0918 35.0838Z" fill="#F8F5FF"/>
<path d="M69.0918 35.0838C69.0918 35.0356 69.0918 34.9874 69.0981 34.9331C69.0981 34.9874 69.0981 35.0356 69.0918 35.0838Z" fill="#F8F5FF"/>
<path d="M70.5753 33.9149L69.7817 35.0778L69.1528 34.7283C69.1773 34.6681 69.2078 34.6078 69.2505 34.5536L69.977 33.5172L70.5753 33.9149Z" fill="#F8F5FF"/>
<path d="M66.9431 32.4812L66.3203 32.8367L65.606 31.5893L64.8795 31.981L64.5132 31.3423L65.1237 31.0109C65.3801 30.8723 65.6732 30.8723 65.9235 30.9868C65.9662 31.0048 66.0151 31.035 66.0517 31.0591C66.1616 31.1314 66.2532 31.2338 66.3203 31.3543L66.9431 32.4812Z" fill="#F8F5FF"/>
<path d="M66.1496 30.053L66.3694 30.457L67.1021 30.0772L67.4562 30.7223L66.8395 31.0419C66.5831 31.1746 66.2962 31.1685 66.052 31.06C66.0031 31.0419 65.9604 31.0118 65.9238 30.9876C65.8139 30.9092 65.7162 30.8067 65.649 30.6801L65.3193 30.0591H66.1496V30.053Z" fill="#F8F5FF"/>
<path d="M82.0353 32.4264L81.4065 32.7819L81.2844 32.565L80.6983 31.5345L79.9718 31.9262L79.6055 31.2875L80.216 30.9561C80.4724 30.8175 80.7654 30.8175 81.0096 30.9319C81.0524 30.95 81.1012 30.9802 81.1378 31.0043C81.2477 31.0766 81.3393 31.179 81.4065 31.2995L82.0109 32.3902L82.0353 32.4264Z" fill="#F8F5FF"/>
<path d="M82.5477 30.6617L81.931 30.9813C81.6746 31.1139 81.3877 31.1079 81.1435 30.9994C81.1008 30.9813 81.058 30.9511 81.0153 30.927C80.9054 30.8486 80.8077 30.7461 80.7406 30.6195L80.4414 30.0588H81.2717L81.461 30.4025L82.1264 30.0588L82.1936 30.0226L82.2119 30.0588L82.5477 30.6617Z" fill="#F8F5FF"/>
<path d="M85.3809 31.6023L84.6422 31.7711L84.2148 30.9692L84.8498 30.6315L85.3809 31.6023Z" fill="#F8F5FF"/>
<path d="M96.1381 36.9222C96.2541 37.0005 96.3517 37.109 96.425 37.2415L96.9439 38.1876L95.6985 37.4223L94.9659 36.9704L93.9585 36.3497L95.552 36.2352L96.4067 36.175L96.7242 36.1509L97.3713 36.1027L97.6277 36.5666L96.9745 36.9041C96.7058 37.0427 96.4006 37.0427 96.1381 36.9222Z" fill="#021544"/>
<path d="M100.894 39.9232H100.04L100.314 39.5373L100.894 39.9232Z" fill="#021544"/>
<path d="M101.261 36.5845L101.981 37.0787L101.541 37.7234L100.931 37.3076C100.681 37.1329 100.54 36.8617 100.528 36.5845C100.51 36.7231 100.461 36.8617 100.375 36.9883L99.6061 38.1211L98.959 37.7114L99.8015 36.4339L99.1116 35.982L100.327 35.8916L100.809 35.8554H100.845H101.755L101.261 36.5845Z" fill="#021544"/>
<path d="M104.136 38.9954V39.6462C104.099 39.5558 104.081 39.4594 104.075 39.3629C104.057 39.5015 104.008 39.6341 103.928 39.7546H102.988L103.355 39.2063L102.622 38.7242L103.056 38.0674L103.672 38.4771C103.929 38.6459 104.075 38.9231 104.087 39.2063C104.099 39.134 104.112 39.0616 104.136 38.9954Z" fill="#021544"/>
<path d="M49.4091 50.8237L51.4726 48.4736C52.248 47.5938 52.1503 46.2561 51.2589 45.4908L49.9829 44.4001L48.823 45.762L50.337 47.0575L48.0659 49.7089L49.4091 50.8237Z" fill="#8960FF"/>
<path d="M52.7675 46.0508V49.4795L52.6332 49.359C52.1142 48.9011 51.8761 48.2503 51.9311 47.6176C51.9433 47.497 51.9616 47.3765 51.9921 47.256C52.0776 46.9366 52.2363 46.6353 52.4683 46.3762L52.7675 46.0508Z" fill="#8960FF"/>
<path d="M52.5352 40.1215L52.7676 39.8502V40.3144L52.5352 40.1215Z" fill="#8960FF"/>
<path d="M49.8793 61.3565L48.3896 58.6148C47.828 57.5844 46.5337 57.1987 45.4897 57.7531L44 58.5425L44.8791 60.0971L46.6436 59.1631L48.353 62.2001L49.8793 61.3565Z" fill="#8960FF"/>
<path d="M45.3428 54.2402L46.7592 56.9518C47.3025 57.9882 48.5907 58.398 49.6408 57.8617L51.1427 57.0964L50.2941 55.5297L48.5114 56.4396L46.8813 53.4207L45.3428 54.2402Z" fill="#8960FF"/>
<path d="M52.6513 63.7372L52.7673 63.7673V65.5871L52.1445 65.3883L52.6513 63.7372Z" fill="#8960FF"/>
<path d="M47.749 70.0758L46.2227 70.9194L44.5132 67.8824L44.3179 67.9848V66.2192C44.6537 66.2132 44.9894 66.2795 45.2947 66.4241C45.4046 66.4723 45.5145 66.5386 45.6122 66.6049C45.8747 66.7857 46.1006 67.0327 46.2654 67.328L47.749 70.0758Z" fill="#8960FF"/>
<path d="M49.0125 65.816L47.5106 66.5813C46.894 66.8946 46.1919 66.8825 45.6058 66.6114C45.4959 66.5572 45.3921 66.4969 45.2884 66.4306C45.0197 66.2438 44.7877 65.9847 44.6229 65.6774L44.3115 65.0808V62.3752L44.745 62.1462L46.3751 65.1652L48.1578 64.2553L49.0125 65.816Z" fill="#8960FF"/>
<path d="M47.4987 43.779L44.3179 43.8574V42.0858L47.4437 42.0496L47.4987 43.779Z" fill="#8960FF"/>
<path d="M55.3247 30.3541C54.4517 30.7036 53.7313 31.3423 53.2795 32.1498L52.9132 32.1558L52.9254 32.9934L52.9376 34.1323L52.7667 34.1383L51.1305 34.1805L51.106 32.5113C51.0999 31.8123 51.4357 31.1917 51.9547 30.8C52.0523 30.7277 52.1561 30.6614 52.2721 30.6071C52.5591 30.4625 52.8827 30.3782 53.2245 30.3782L55.3247 30.3541Z" fill="#8960FF"/>
<path d="M52.7973 30.0526C52.6568 30.2636 52.4859 30.4566 52.2783 30.6073C52.1806 30.6797 52.0768 30.746 51.9608 30.8003C51.6678 30.951 51.332 31.0294 50.9779 31.0294L47.8887 31.0113L47.8765 30.0827C48.0535 30.0586 48.2367 30.0466 48.4259 30.0466H52.7973V30.0526Z" fill="#8960FF"/>
<path d="M47.6207 78.7413L49.8613 76.5539C50.7038 75.7344 50.7099 74.3966 49.8796 73.5651L48.6891 72.384L47.4253 73.6554L48.8356 75.0595L46.3691 77.5361L47.6207 78.7413Z" fill="#8960FF"/>
<path d="M52.767 76.8191L52.016 76.0478L52.767 75.3186V72.8842L51.0148 74.5353C50.7584 74.7763 50.5752 75.0655 50.4714 75.3789C50.4348 75.4934 50.4043 75.6079 50.386 75.7284C50.2822 76.3551 50.4714 77.024 50.9537 77.5181L52.1259 78.7233L52.7731 78.0906V76.8191H52.767Z" fill="#8960FF"/>
<path d="M49.4091 104.273L51.4726 101.923C52.248 101.043 52.1503 99.7052 51.2589 98.9399L49.9829 97.8492L48.823 99.2111L50.337 100.507L48.0659 103.158L49.4091 104.273Z" fill="#8960FF"/>
<path d="M52.7675 99.5064V102.935L52.6332 102.815C52.1142 102.357 51.8761 101.706 51.9311 101.073C51.9433 100.953 51.9616 100.832 51.9921 100.712C52.0776 100.392 52.2363 100.091 52.4683 99.8318L52.7675 99.5064Z" fill="#8960FF"/>
<path d="M52.5352 93.5771L52.7676 93.2997V93.7701L52.5352 93.5771Z" fill="#8960FF"/>
<path d="M49.8793 114.806L48.3896 112.064C47.828 111.034 46.5337 110.648 45.4897 111.202L44 111.992L44.8791 113.547L46.6436 112.613L48.353 115.65L49.8793 114.806Z" fill="#8960FF"/>
<path d="M45.3428 107.689L46.7592 110.401C47.3025 111.437 48.5907 111.847 49.6408 111.311L51.1427 110.546L50.2941 108.979L48.5114 109.889L46.8813 106.87L45.3428 107.689Z" fill="#8960FF"/>
<path d="M52.6517 117.186L55.2586 117.97H52.4136L52.6517 117.186Z" fill="#8960FF"/>
<path d="M56.8762 117.972H56.0337L56.0581 117.891C56.3206 117.947 56.5954 117.972 56.8762 117.972Z" fill="#8960FF"/>
<path d="M44.751 115.589L45.215 116.451C45.0074 116.198 44.8304 115.915 44.6899 115.619L44.751 115.589Z" fill="#8960FF"/>
<path d="M48.3097 117.969C48.1144 117.963 47.9251 117.945 47.7358 117.915L48.1632 117.698L48.3097 117.969Z" fill="#8960FF"/>
<path d="M47.4987 97.2288L44.3179 97.3071V95.5416L47.4437 95.4994L47.4987 97.2288Z" fill="#8960FF"/>
<path d="M45.1726 82.1943L44.4827 83.7851L44.3179 83.7127V81.8147L45.1726 82.1943Z" fill="#8960FF"/>
<path d="M52.7667 83.881V87.5869L51.1305 87.6291L51.106 85.96C51.0999 85.261 51.4357 84.6403 51.9547 84.2486C52.0523 84.1763 52.1561 84.11 52.2721 84.0558C52.4309 83.9835 52.5957 83.9232 52.7667 83.881Z" fill="#8960FF"/>
<path d="M52.7667 83.5498C52.6324 83.7486 52.4676 83.9173 52.2783 84.062C52.1806 84.1343 52.0768 84.2006 51.9608 84.2548C51.6678 84.4054 51.332 84.4838 50.9779 84.4838L47.8887 84.4657L47.8643 82.7363L51.3259 82.7062L51.332 80.7297L52.7667 80.7116V83.5498Z" fill="#8960FF"/>
<path d="M119.837 81.91C122.795 88.5891 119.708 96.3708 112.941 99.2954C106.991 101.866 100.171 99.8177 96.6023 94.7402C96.1143 94.0438 95.6851 93.2953 95.3265 92.4887C95.156 92.1057 95.009 91.7227 94.8797 91.3339C92.916 85.4788 95.35 79.0608 100.665 75.904L103.722 74.5636C106.909 73.6119 110.236 73.8962 113.111 75.1845C116.016 76.4785 118.462 78.7997 119.837 81.91ZM116.045 83.3201L113.688 80.9583L106.068 88.6994L102.17 84.8521L99.977 87.1964L106.068 93.2082L116.045 83.3201Z" fill="#CFBEFF"/>
<path d="M116.045 83.3204L113.811 85.5313L112.882 86.4482L112.852 86.483L111.776 87.5449L110.218 89.0885L109.654 89.6455L109.536 89.7616L108.649 90.6436L106.238 93.0286L106.062 93.2085L105.086 92.251V92.2452L103.822 90.9976L101.282 88.4908L100.853 88.0672L99.9707 87.1967L100.406 86.7325L100.935 86.1638L102.164 84.8582L105.039 87.6958L105.609 88.2587L106.062 88.7055L108.819 85.8969L109.342 85.3688L110.365 84.3301L112.84 81.8174L113.681 80.9586L114.075 81.3532L114.598 81.8755L114.628 81.9045L115.58 82.8562L116.045 83.3204Z" fill="#F8F5FF"/>
</svg>
