<svg width="406" height="263" viewBox="0 0 406 263" fill="none" xmlns="http://www.w3.org/2000/svg">
<path d="M388.288 0H17.7122C7.93003 0 0 8.15285 0 18.2099V244.79C0 254.847 7.93003 263 17.7122 263H388.288C398.07 263 406 254.847 406 244.79V18.2099C406 8.15285 398.07 0 388.288 0Z" fill="#0E093F"/>
<mask id="mask0_1_14" style="mask-type:alpha" maskUnits="userSpaceOnUse" x="0" y="0" width="406" height="263">
<rect x="0.5" y="0.5" width="405" height="262" rx="17.5" fill="#C4C4C4" stroke="black"/>
</mask>
<g mask="url(#mask0_1_14)">
<path d="M-28.0208 41.633C-22.2895 28.5615 -14.6635 16.4058 -5.3884 5.55746L-7.93414 4.50631C-8.02447 10.4765 -4.10732 15.182 0.277919 18.7871C4.967 22.6878 10.1652 25.8823 14.6983 30.013C24.0524 38.5646 31.3299 49.1396 35.9757 60.9314C37.2886 64.2459 38.3858 67.6418 39.2606 71.0979C39.704 72.8553 40.0845 74.6236 40.402 76.4029C40.5581 77.2241 40.6895 78.0453 40.8126 78.924C40.8783 79.3674 40.944 79.8191 41.0015 80.2625C41.0015 80.4268 41.0015 80.5828 41.059 80.7388C41.0672 80.8728 41.0672 81.0072 41.059 81.1412C41.059 81.4451 41.1658 81.363 41.4696 80.9113H42.2908L42.8246 82.2663L41.9295 82.9561H42.028H41.2068H41.3382C41.7241 83.0428 42.1285 82.9788 42.4689 82.7774C42.8092 82.5759 43.0598 82.2521 43.1695 81.8721C43.2708 81.49 43.2184 81.0834 43.0234 80.7395C42.8284 80.3956 42.5065 80.1419 42.1266 80.0326C41.7377 79.9556 41.3345 80.0063 40.9768 80.1771C40.6191 80.3478 40.3261 80.6296 40.1415 80.9803C39.9569 81.3311 39.8905 81.7321 39.9523 82.1236C40.014 82.5152 40.2006 82.8763 40.4842 83.1532C41.716 84.541 43.6212 83.4899 43.9661 81.9132C44.0676 81.0914 44.0287 80.2583 43.8511 79.4496C43.7279 78.4723 43.5801 77.5033 43.4159 76.5261C43.1284 74.8015 42.7835 73.077 42.3811 71.3689C40.7325 64.4585 38.2305 57.7801 34.9328 51.4875C31.6604 45.2443 27.6397 39.4229 22.9596 34.1518C18.2835 28.9852 13.032 24.3702 7.30744 20.3966C2.00245 16.6191 -5.06813 11.8068 -4.95316 4.50631C-4.95754 4.21337 -5.04746 3.92809 -5.21185 3.68557C-5.37624 3.44306 -5.60794 3.25388 -5.87843 3.14132C-6.14893 3.02876 -6.44643 2.99772 -6.73433 3.05202C-7.02224 3.10632 -7.28799 3.2436 -7.4989 3.44696C-16.9647 14.4727 -24.7541 26.8333 -30.6158 40.1302C-30.8035 40.475 -30.8528 40.8784 -30.7537 41.2583C-30.6545 41.6381 -30.4143 41.9659 -30.0821 42.175C-29.9113 42.2753 -29.7223 42.3409 -29.5261 42.368C-29.3299 42.395 -29.1303 42.383 -28.9387 42.3326C-28.7472 42.2823 -28.5675 42.1945 -28.41 42.0745C-28.2524 41.9544 -28.1202 41.8044 -28.0208 41.633V41.633Z" fill="#1E1A47"/>
<path d="M-30.3534 42.4538C-20.6714 48.6621 -10.8334 55.166 -5.06849 65.4475C-2.13678 70.6868 -0.198737 76.386 1.68182 82.0605C3.83288 88.2824 5.63953 94.618 7.09357 101.039C8.73092 108.15 9.19966 115.481 8.48141 122.743C8.48141 123.137 8.63801 123.515 8.91676 123.794C9.19551 124.073 9.57358 124.229 9.96779 124.229C10.3615 124.225 10.7379 124.068 11.0171 123.79C11.2962 123.512 11.456 123.137 11.4624 122.743C12.998 109.308 9.36831 96.0046 5.22943 83.3252C3.26675 77.3222 1.27943 71.196 -1.62763 65.5789C-4.39601 60.2886 -8.11837 55.5556 -12.6072 51.6184C-17.6001 47.1428 -23.2253 43.4967 -28.8506 39.8998C-30.493 38.8569 -31.9712 41.4437 -30.3534 42.4784V42.4538Z" fill="#1E1A47"/>
<path d="M9.62319 125.603C11.6844 118.113 17.5478 112.398 22.1959 106.436C27.2585 99.9624 31.9207 93.1857 36.1564 86.1436C37.3827 84.1125 38.568 82.0649 39.7122 80.001C40.7962 78.0465 41.7323 75.9771 42.882 74.0554C43.8593 72.413 41.2807 70.8938 40.3034 72.5444C39.3262 74.195 38.4393 76.1249 37.4785 77.8412C36.5177 79.5575 35.4091 81.5366 34.3333 83.3597C32.2036 86.9456 29.9699 90.4659 27.6322 93.9204C25.2945 97.3749 22.8501 100.75 20.2989 104.046C17.8352 107.216 15.191 110.262 12.752 113.465C10.0377 116.832 7.99175 120.687 6.72433 124.822C6.61544 125.204 6.66241 125.612 6.85491 125.959C7.04742 126.305 7.3697 126.561 7.75084 126.67C8.13199 126.779 8.54078 126.732 8.88729 126.54C9.23381 126.347 9.48966 126.025 9.59855 125.644L9.62319 125.603Z" fill="#1E1A47"/>
<path d="M15.8316 48.4415C15.273 47.3388 14.4797 46.3717 13.5075 45.6083C13.056 45.2977 12.5422 45.0891 12.0019 44.9969C11.4616 44.9047 10.9078 44.9312 10.3787 45.0745C9.13873 45.4523 8.19434 46.6595 8.80203 47.9323C9.40197 48.9357 10.2047 49.8027 11.1589 50.4781C12.3907 51.4882 14.8215 53.6315 12.8013 55.1507C11.8405 55.8898 10.5101 55.8488 9.36045 55.7831C8.3508 55.8243 7.35724 55.5202 6.54372 54.9208C4.696 53.1306 6.14954 50.2481 7.5538 48.6879C8.41606 47.7435 7.0118 46.331 6.14954 47.2836C4.46607 49.1477 3.1932 51.6278 3.93228 54.1817C4.24915 55.3388 4.99894 56.3297 6.02636 56.9492C7.19901 57.5289 8.49639 57.811 9.8039 57.7704C11.1172 57.8821 12.4353 57.6202 13.6061 57.0149C14.1587 56.7082 14.6279 56.2709 14.9729 55.7414C15.3178 55.2118 15.528 54.6059 15.5852 53.9764C15.7659 51.2911 13.3022 49.7883 11.5941 48.228C11.3552 48.0097 11.1303 47.7765 10.9207 47.53C10.8413 47.4271 10.7673 47.3202 10.699 47.2097L10.5758 47.0044C10.5101 46.8566 10.5019 46.9305 10.5758 47.2261C10.5348 47.2261 10.9454 46.9962 10.9947 46.9797C11.1825 46.9331 11.3769 46.9192 11.5695 46.9387C12.8342 47.0865 13.5568 48.4661 14.1317 49.4516C14.2645 49.6792 14.4823 49.8447 14.7372 49.9117C14.9921 49.9787 15.2632 49.9417 15.4908 49.8088C15.7184 49.6759 15.8839 49.4581 15.9508 49.2032C16.0178 48.9484 15.9808 48.6773 15.848 48.4497L15.8316 48.4415Z" fill="#1E1A47"/>
<path d="M17.0552 43.2764C12.0413 48.0808 7.31395 53.1755 2.8976 58.5344C2.07639 59.5034 3.48887 60.9241 4.31007 59.9386C8.72452 54.5936 13.4491 49.5126 18.4594 44.7217C19.3874 43.8348 17.9831 42.4552 17.0552 43.2764Z" fill="#1E1A47"/>
<path d="M-25.3438 53.6891C-10.8011 69.5268 -0.899624 89.0627 3.27521 110.155C4.45544 116.095 5.15844 122.12 5.3775 128.172C5.3775 128.805 6.3958 128.813 6.37116 128.172C5.51463 106.398 -1.34613 85.2841 -13.4528 67.1651C-16.8113 62.1578 -20.5535 57.4189 -24.6458 52.9911C-25.081 52.5148 -25.7791 53.221 -25.3438 53.6891Z" fill="#1E1A47"/>
<path d="M-31.6999 44.0971C-31.5931 44.442 -32.3733 43.8672 -31.3468 44.2449C-31.1713 44.321 -31.0012 44.4088 -30.8376 44.5077L-29.8768 45.0497C-29.2363 45.4275 -28.6039 45.8134 -27.988 46.2076C-26.7453 47.0069 -25.5381 47.8528 -24.3665 48.7451C-22.0308 50.5448 -19.8347 52.5186 -17.7969 54.6496C-13.6706 58.9665 -10.1133 63.7932 -7.21151 69.0125C-0.641865 80.69 2.75793 93.8293 4.63028 107.026C5.76354 115.049 6.33839 123.138 6.8229 131.219C6.8229 131.851 7.8494 131.859 7.81656 131.219C6.92144 116.002 5.61572 100.629 1.09088 85.9786C-2.69488 73.7591 -8.89498 62.0405 -18.0596 52.9579C-20.553 50.4811 -23.2659 48.2355 -26.1649 46.2487C-27.5873 45.2409 -29.0741 44.3274 -30.6159 43.5141C-31.3468 43.1527 -33.0795 43.1281 -32.6607 44.3845C-32.4718 44.9922 -31.511 44.7377 -31.6999 44.1218V44.0971Z" fill="#1E1A47"/>
<path d="M33.7285 73.4427C33.8265 73.3745 33.938 73.3287 34.0549 73.3082C34.0654 73.2912 34.076 73.2744 34.0868 73.2576C34.1326 73.1847 34.1962 73.1245 34.2716 73.0829C34.347 73.0412 34.4317 73.0193 34.5179 73.0193C34.6041 73.0193 34.6888 73.0412 34.7642 73.0829C34.8396 73.1245 34.9032 73.1847 34.949 73.2576C35.2484 73.6579 35.4644 74.1141 35.5843 74.5994C35.7042 75.0846 35.7256 75.5889 35.6471 76.0826C35.548 76.3872 35.3707 76.6606 35.1329 76.8753C34.8951 77.09 34.6052 77.2386 34.2921 77.3062C33.9594 77.3896 33.6082 77.3547 33.2984 77.2076C33.1638 77.1417 33.0438 77.0496 32.9453 76.9366C32.8814 76.8669 32.8263 76.7897 32.781 76.7067C32.7248 76.5776 32.7049 76.4356 32.7236 76.2961C32.7554 75.846 32.8325 75.4004 32.9535 74.9657C33.0721 74.5475 33.2403 74.145 33.4544 73.7668C33.5158 73.6366 33.6103 73.5248 33.7285 73.4427Z" fill="#1E1A47"/>
<path d="M15.4701 101.713C14.8427 102.336 14.4395 103.149 14.3236 104.026C14.2077 104.903 14.3856 105.793 14.8295 106.558C14.8686 106.623 14.9219 106.678 14.9853 106.719C15.0487 106.76 15.1206 106.787 15.1957 106.796C15.2708 106.806 15.347 106.798 15.4187 106.774C15.4904 106.75 15.5557 106.709 15.6097 106.656C16.1545 106.109 16.5689 105.446 16.822 104.717C17.075 103.988 17.1603 103.211 17.0714 102.444C16.9811 101.737 16.7265 100.801 15.9217 100.637C15.1169 100.473 14.3204 101.335 14.8213 102.041C14.891 102.152 15.0006 102.232 15.1276 102.264C15.2545 102.296 15.3889 102.278 15.5029 102.214C15.6154 102.146 15.6965 102.036 15.7288 101.908C15.7611 101.781 15.7419 101.646 15.6754 101.532C15.585 101.401 15.6754 101.664 15.6754 101.647C15.6754 101.631 15.7821 101.647 15.7411 101.647C15.7 101.647 15.7985 101.705 15.815 101.721C15.8783 101.786 15.9261 101.865 15.9546 101.951C16.1146 102.403 16.1734 102.886 16.127 103.363C16.0588 104.356 15.6328 105.289 14.9281 105.991L15.7493 106.098C15.3959 105.522 15.2474 104.844 15.3279 104.173C15.4084 103.502 15.7132 102.878 16.1927 102.403C16.6608 101.959 15.9546 101.261 15.4947 101.705L15.4701 101.713Z" fill="#1E1A47"/>
<path d="M-0.477843 83.8932L-1.87389 91.4976C-1.98886 92.1217 -1.05269 92.3927 -0.921294 91.7604L0.474756 84.156C0.589724 83.5319 -0.34645 83.2609 -0.486055 83.8932H-0.477843Z" fill="#1E1A47"/>
<path d="M1.06602 91.9731L0.507602 99.1176C0.45833 99.7582 1.45199 99.7582 1.50126 99.1176L2.05968 92.0142C2.10895 91.3819 1.11529 91.3819 1.06602 92.0142V91.9731Z" fill="#1E1A47"/>
<path d="M4.2117 101.647C3.70027 102.907 3.31248 104.213 3.0538 105.548C3.02055 105.675 3.03789 105.81 3.10219 105.925C3.16649 106.04 3.27276 106.125 3.39871 106.164C3.52497 106.197 3.65912 106.179 3.77262 106.115C3.88611 106.05 3.96999 105.944 4.0064 105.819C4.26671 104.481 4.65728 103.172 5.17251 101.91C5.20551 101.783 5.18792 101.649 5.12351 101.536C5.05909 101.422 4.95293 101.338 4.82761 101.302C4.70035 101.271 4.56601 101.289 4.45169 101.353C4.33738 101.417 4.25161 101.522 4.2117 101.647V101.647Z" fill="#1E1A47"/>
<path d="M69.0129 275.907C74.7403 262.833 82.3667 250.677 91.6454 239.832L89.0996 238.772C89.0093 244.751 92.9265 249.448 97.3117 253.061C102.017 256.962 107.224 260.156 111.748 264.287C123.791 275.259 132.324 289.543 136.278 305.347C136.721 307.105 137.102 308.873 137.419 310.652C137.575 311.473 137.707 312.295 137.83 313.173C137.904 313.617 137.961 314.069 138.019 314.512C138.019 314.668 138.019 314.832 138.076 314.988C138.085 315.122 138.085 315.257 138.076 315.391C138.076 315.694 138.183 315.612 138.487 315.161H139.308L139.842 316.516L138.947 317.206L139.045 317.164H138.224H138.356C138.736 317.258 139.138 317.203 139.48 317.01C139.821 316.818 140.077 316.503 140.195 316.13C140.296 315.748 140.244 315.341 140.049 314.997C139.854 314.653 139.532 314.399 139.152 314.29C138.763 314.213 138.36 314.264 138.002 314.435C137.645 314.605 137.352 314.887 137.167 315.238C136.982 315.589 136.916 315.99 136.978 316.381C137.04 316.773 137.226 317.134 137.51 317.411C138.742 318.799 140.647 317.739 140.992 316.171C141.1 315.35 141.064 314.516 140.885 313.707C140.753 312.73 140.606 311.753 140.441 310.784C140.151 309.048 139.806 307.329 139.407 305.627C137.765 298.728 135.271 292.061 131.983 285.778C128.714 279.53 124.696 273.703 120.018 268.426C115.337 263.261 110.083 258.646 104.358 254.671C99.0526 250.885 91.9821 246.081 92.097 238.772C92.0911 238.48 92 238.196 91.8351 237.954C91.6701 237.713 91.4383 237.525 91.1681 237.414C90.8979 237.302 90.601 237.272 90.3139 237.326C90.0267 237.381 89.7617 237.518 89.5513 237.721C80.0912 248.748 72.3075 261.108 66.4508 274.404C66.2635 274.748 66.2145 275.15 66.3137 275.528C66.4129 275.907 66.6529 276.233 66.9846 276.441C67.327 276.639 67.7338 276.694 68.1166 276.594C68.4995 276.494 68.8274 276.247 69.0294 275.907H69.0129Z" fill="#1E1A47"/>
<path d="M87.5145 249.546C86.8986 250.483 86.2663 251.887 87.0136 252.93C87.1397 253.133 87.3063 253.309 87.5031 253.445C87.6998 253.582 87.9225 253.677 88.1573 253.723C88.3921 253.77 88.634 253.769 88.8681 253.718C89.1022 253.668 89.3235 253.57 89.5182 253.431C89.7154 253.208 89.8646 252.948 89.9564 252.665C90.0483 252.383 90.0808 252.084 90.052 251.788L90.1013 249.686C90.1485 249.396 90.1213 249.098 90.0223 248.821C89.9232 248.543 89.7554 248.296 89.5347 248.101C89.3108 247.962 89.047 247.903 88.7852 247.931C88.5234 247.959 88.2785 248.074 88.0894 248.257C87.8586 248.463 87.6748 248.717 87.5501 249C87.4255 249.283 87.3629 249.59 87.3667 249.9C87.3667 250.384 87.4242 251 87.0957 251.345C86.7672 251.69 87.3667 252.519 87.8019 252.051C88.1126 251.697 88.2949 251.249 88.3193 250.778C88.3193 250.409 88.3193 249.908 88.3932 249.604C88.4312 249.451 88.5011 249.309 88.5985 249.185C88.6463 249.129 88.6984 249.077 88.7545 249.029C88.7545 249.029 88.9188 248.931 88.8449 248.963H88.9434C88.8777 248.963 88.9434 249.004 88.9434 248.963C88.9434 248.922 88.9434 248.963 89.0009 248.963C89.0843 249.068 89.128 249.199 89.1241 249.333C89.1528 249.858 89.1528 250.384 89.1241 250.91C89.1518 251.398 89.1298 251.888 89.0584 252.371C89.0402 252.51 88.9733 252.638 88.8695 252.733C88.9352 252.675 88.7053 252.798 88.8038 252.733H88.7135C88.5903 252.733 88.7956 252.733 88.6642 252.733C88.4215 252.728 88.1897 252.631 88.0154 252.462C87.957 252.413 87.907 252.355 87.8676 252.289C87.8481 252.261 87.8316 252.231 87.8184 252.199C87.7527 252.076 87.8184 252.265 87.8184 252.133C87.7651 251.915 87.7651 251.687 87.8184 251.468C87.9384 250.934 88.1677 250.431 88.4917 249.99C88.8449 249.456 87.9826 248.955 87.6295 249.489L87.5145 249.546Z" fill="#1E1A47"/>
<path d="M81.4294 274.125L84.4678 267.285C84.7142 266.743 84.9441 266.193 85.1987 265.642C85.3334 265.332 85.5327 265.053 85.7833 264.825C86.0339 264.597 86.3301 264.425 86.6522 264.32C87.3452 264.064 87.9496 263.614 88.3932 263.023C88.9188 262.3 88.9023 261.38 89.4033 260.649C89.9042 259.919 90.9553 260.05 91.5302 259.385C92.4335 258.342 92.2693 256.724 92.0804 255.468C92.0311 255.147 91.5466 255.287 91.5959 255.599C91.7683 256.428 91.7683 257.283 91.5959 258.112C91.3085 259.229 90.6022 259.36 89.6661 259.795C89.4153 259.921 89.195 260.101 89.0205 260.32C88.8461 260.54 88.7217 260.795 88.656 261.068C88.3193 262.07 88.0565 262.998 87.0793 263.532C86.4223 263.91 85.6175 264 85.133 264.649C84.5934 265.537 84.1528 266.481 83.8191 267.465L80.9941 273.813C80.8627 274.109 81.2898 274.355 81.4211 274.068L81.4294 274.125Z" fill="#1E1A47"/>
<path d="M145.943 101.942C151.675 88.8706 159.301 76.7149 168.576 65.8666L166.03 64.8154C165.94 70.7856 169.857 75.4911 174.242 79.0962C178.948 82.9969 184.154 86.1914 188.679 90.3221C198.033 98.8701 205.311 109.443 209.956 121.232C211.264 124.551 212.361 127.95 213.241 131.407C213.679 133.164 214.057 134.933 214.374 136.712C214.53 137.533 214.662 138.354 214.793 139.233C214.859 139.677 214.916 140.128 214.974 140.572C214.974 140.736 214.974 140.892 215.031 141.048C215.04 141.182 215.04 141.316 215.031 141.45C215.031 141.754 215.138 141.672 215.442 141.22H216.263L216.797 142.575L215.902 143.265H216H215.179H215.311C215.691 143.361 216.094 143.306 216.436 143.114C216.778 142.922 217.034 142.605 217.15 142.231C217.254 141.848 217.202 141.441 217.007 141.096C216.812 140.752 216.488 140.498 216.107 140.391C215.718 140.314 215.315 140.365 214.957 140.535C214.6 140.706 214.307 140.988 214.122 141.339C213.937 141.69 213.871 142.091 213.933 142.482C213.995 142.874 214.181 143.235 214.465 143.512C215.688 144.899 217.593 143.84 217.938 142.272C218.047 141.45 218.011 140.617 217.832 139.808C217.7 138.831 217.552 137.853 217.396 136.884C217.101 135.149 216.753 133.43 216.353 131.727C214.708 124.814 212.209 118.133 208.913 111.838C205.642 105.591 201.624 99.764 196.948 94.4856C192.259 89.3102 186.993 84.687 181.255 80.7058C175.95 76.9282 168.88 72.116 169.003 64.8154C169.003 63.5836 167.311 62.7542 166.457 63.7561C156.992 74.7805 149.205 87.1414 143.348 100.439C143.163 100.785 143.114 101.187 143.213 101.567C143.312 101.946 143.551 102.274 143.882 102.484C144.226 102.679 144.633 102.732 145.015 102.631C145.397 102.529 145.725 102.282 145.927 101.942H145.943Z" fill="#1E1A47"/>
<path d="M143.595 102.78C153.277 108.997 163.123 115.501 168.88 125.774C171.812 131.013 173.75 136.712 175.63 142.387C177.779 148.602 179.589 154.929 181.05 161.34C182.681 168.453 183.147 175.783 182.43 183.045C182.432 183.438 182.589 183.815 182.868 184.094C183.146 184.372 183.523 184.529 183.916 184.531C184.31 184.527 184.686 184.369 184.966 184.092C185.245 183.814 185.405 183.438 185.411 183.045C186.947 169.61 183.317 156.306 179.186 143.627C177.215 137.599 175.236 131.506 172.321 125.856C169.553 120.566 165.83 115.833 161.341 111.896C156.348 107.453 150.715 103.807 145.098 100.21C143.456 99.1669 141.977 101.754 143.595 102.78V102.78Z" fill="#1E1A47"/>
<path d="M189.78 108.75C189.226 107.644 188.432 106.676 187.456 105.917C187.004 105.607 186.49 105.398 185.95 105.306C185.41 105.214 184.856 105.24 184.327 105.383C183.087 105.761 182.142 106.968 182.775 108.241C183.375 109.245 184.177 110.112 185.132 110.787C186.363 111.797 188.794 113.94 186.774 115.46C185.813 116.199 184.483 116.158 183.341 116.092C182.336 116.146 181.343 115.857 180.525 115.271C178.595 113.489 180.065 110.598 181.477 109.038C182.298 108.093 180.927 106.681 180.065 107.633C178.381 109.498 177.108 111.978 177.856 114.532C178.17 115.688 178.917 116.679 179.942 117.299C181.114 117.878 182.412 118.16 183.719 118.12C185.032 118.232 186.351 117.97 187.521 117.365C188.074 117.058 188.543 116.621 188.888 116.091C189.233 115.562 189.443 114.956 189.5 114.326C189.681 111.641 187.217 110.138 185.509 108.578C185.27 108.36 185.046 108.126 184.836 107.88L184.614 107.56L184.54 107.33C184.469 107.182 184.469 107.256 184.54 107.551C184.499 107.551 184.91 107.321 184.959 107.305C185.149 107.268 185.344 107.268 185.534 107.305C186.799 107.453 187.521 108.832 188.096 109.818C188.229 110.045 188.447 110.211 188.702 110.278C188.957 110.345 189.228 110.308 189.455 110.175C189.683 110.042 189.848 109.824 189.915 109.57C189.982 109.315 189.945 109.044 189.812 108.816L189.78 108.75Z" fill="#1E1A47"/>
<path d="M191.003 103.618C185.993 108.406 181.268 113.485 176.853 118.827C176.032 119.804 177.436 121.225 178.258 120.239C182.668 114.893 187.393 109.815 192.407 105.03C193.335 104.144 191.931 102.739 191.003 103.618Z" fill="#1E1A47"/>
<path d="M128.509 122.317C127.359 120.346 126.111 118.375 124.197 117.061C123.359 116.483 122.404 116.095 121.399 115.925C120.395 115.755 119.366 115.806 118.383 116.076C116.068 116.766 114.277 119.008 115.493 121.389C116.454 123.319 118.236 124.772 119.87 126.111C122.169 127.992 126.678 131.983 122.99 134.808C121.208 136.179 118.72 136.105 116.593 135.982C114.795 135.875 112.742 135.67 111.362 134.339C107.773 131.055 110.541 125.651 113.128 122.752C114.721 120.987 112.109 118.367 110.516 120.133C107.387 123.598 105.006 128.213 106.41 132.96C106.998 135.11 108.388 136.953 110.294 138.109C112.397 139.341 114.926 139.587 117.316 139.677C119.761 139.891 122.216 139.404 124.395 138.273C125.419 137.701 126.29 136.889 126.931 135.906C127.572 134.924 127.964 133.8 128.074 132.631C128.402 127.63 123.82 124.838 120.683 121.874C120.238 121.467 119.821 121.031 119.434 120.568C119.287 120.376 119.147 120.179 119.016 119.977L118.794 119.599C118.671 119.32 118.654 119.459 118.794 120.009C118.72 119.96 119.476 119.591 119.566 119.558C119.913 119.463 120.276 119.438 120.633 119.484C122.999 119.755 124.329 122.325 125.405 124.148C126.604 126.201 129.798 124.337 128.591 122.276L128.509 122.317Z" fill="#1E1A47"/>
<path d="M130.792 112.791C121.471 121.7 112.683 131.149 104.472 141.09C104.136 141.442 103.948 141.909 103.948 142.396C103.948 142.882 104.136 143.35 104.472 143.702C104.82 144.046 105.289 144.239 105.778 144.239C106.267 144.239 106.736 144.046 107.084 143.702C115.283 133.763 124.058 124.314 133.362 115.403C135.095 113.76 132.476 111.149 130.751 112.791H130.792Z" fill="#1E1A47"/>
<path d="M148.604 113.998C163.15 129.835 173.054 149.371 177.231 170.464C178.405 176.405 179.105 182.43 179.326 188.481C179.326 189.114 180.344 189.122 180.319 188.481C179.463 166.707 172.602 145.593 160.495 127.474C157.14 122.467 153.4 117.728 149.31 113.3C148.875 112.824 148.169 113.53 148.604 113.998V113.998Z" fill="#1E1A47"/>
<path d="M142.248 104.431C142.355 104.776 141.574 104.201 142.609 104.578C142.782 104.655 142.949 104.742 143.11 104.841L144.071 105.383C144.711 105.761 145.344 106.147 145.968 106.541C147.205 107.335 148.41 108.181 149.581 109.079C151.917 110.878 154.113 112.852 156.151 114.983C160.262 119.295 163.81 124.11 166.711 129.313C173.281 140.999 176.673 154.138 178.545 167.335C179.678 175.358 180.261 183.447 180.738 191.528C180.738 192.16 181.772 192.168 181.731 191.528C180.836 176.311 179.531 160.938 175.006 146.312C171.22 134.068 165.02 122.349 155.855 113.267C153.362 110.79 150.649 108.544 147.75 106.558C146.328 105.55 144.841 104.636 143.299 103.823C142.576 103.462 140.876 103.437 141.254 104.693C141.443 105.301 142.404 105.038 142.215 104.431H142.248Z" fill="#1E1A47"/>
<path d="M164.429 75.5814C163.813 76.5258 163.181 77.9218 163.928 78.9648C164.054 79.1624 164.219 79.3327 164.412 79.4654C164.606 79.5981 164.824 79.6906 165.054 79.7374C165.283 79.7841 165.52 79.7841 165.75 79.7375C165.98 79.6908 166.198 79.5984 166.391 79.4657C166.589 79.2436 166.739 78.9831 166.83 78.7004C166.922 78.4177 166.955 78.1191 166.925 77.8233L166.975 75.7292C167.022 75.4374 166.994 75.1385 166.895 74.86C166.796 74.5815 166.629 74.3325 166.408 74.1361C166.184 73.9974 165.92 73.9375 165.658 73.9658C165.397 73.994 165.152 74.1089 164.963 74.2921C164.732 74.4984 164.548 74.7517 164.423 75.035C164.299 75.3183 164.236 75.625 164.24 75.9345C164.24 76.419 164.297 77.0349 163.977 77.3798C163.657 77.7247 164.24 78.5541 164.675 78.0861C164.988 77.7331 165.17 77.284 165.193 76.8132C165.193 76.4436 165.193 75.9427 165.266 75.6389C165.304 75.4863 165.374 75.3435 165.472 75.2201C165.52 75.164 165.572 75.1118 165.628 75.064C165.587 75.064 165.792 74.9655 165.718 74.9983H165.817C165.751 74.9983 165.817 74.9983 165.817 74.9983C165.817 74.9983 165.817 74.9983 165.874 74.9983C165.958 75.1031 166.001 75.234 165.997 75.3679C166.026 75.8931 166.026 76.4194 165.997 76.9446C166.025 77.4328 166.003 77.9226 165.932 78.4063C165.913 78.5454 165.847 78.6734 165.743 78.7677C165.808 78.7102 165.579 78.8334 165.677 78.7677H165.587C165.464 78.7677 165.669 78.7677 165.537 78.7677C165.295 78.7625 165.063 78.6657 164.889 78.4967C164.828 78.4496 164.778 78.391 164.741 78.3242L164.692 78.2339C164.626 78.1107 164.692 78.2996 164.692 78.1682C164.638 77.9497 164.638 77.7215 164.692 77.503C164.81 76.9711 165.039 76.4701 165.365 76.033C165.718 75.4911 164.856 74.9983 164.503 75.5239L164.429 75.5814Z" fill="#1E1A47"/>
<path d="M150.986 97.5413C150.699 97.8265 150.514 98.1992 150.462 98.6007C150.41 99.0022 150.493 99.4095 150.698 99.7586C150.901 100.151 151.248 100.449 151.667 100.589C152.086 100.728 152.543 100.699 152.94 100.506C153.402 100.245 153.778 99.8552 154.021 99.384C154.265 98.9129 154.366 98.381 154.312 97.8534C154.293 97.2707 154.207 96.6921 154.057 96.1288C154.013 95.8957 153.907 95.6786 153.752 95.4996C153.596 95.3207 153.395 95.1864 153.17 95.1105C152.878 95.0656 152.58 95.1294 152.331 95.2898C152.083 95.4503 151.903 95.6962 151.824 95.981C151.732 96.2452 151.685 96.5227 151.684 96.8022C151.695 97.0155 151.649 97.2278 151.553 97.4181C151.464 97.5126 151.414 97.6374 151.414 97.7671C151.414 97.8969 151.464 98.0217 151.553 98.1161C151.646 98.2094 151.773 98.2618 151.906 98.2618C152.038 98.2618 152.165 98.2094 152.259 98.1161C152.514 97.7772 152.655 97.366 152.661 96.9418C152.642 96.6555 152.708 96.3699 152.85 96.1206L152.932 96.0467C152.932 96.0467 152.932 95.9728 152.973 96.0467C152.973 95.9974 152.973 96.0467 152.973 96.0467L153.047 96.1781C153.182 96.5539 153.264 96.9461 153.293 97.3442C153.382 97.7026 153.38 98.0772 153.29 98.4351C153.2 98.793 153.024 99.1234 152.776 99.3972C152.685 99.4753 152.583 99.539 152.472 99.5861C152.403 99.6129 152.332 99.6322 152.259 99.6436C152.259 99.6436 152.037 99.6436 152.119 99.6436H151.955C151.881 99.6436 152.021 99.6436 151.955 99.6436L151.873 99.5943C151.782 99.545 151.873 99.5943 151.807 99.545C151.741 99.4958 151.651 99.3808 151.692 99.4301C151.652 99.3785 151.616 99.3236 151.585 99.2658C151.588 99.2385 151.588 99.211 151.585 99.1837C151.585 99.2576 151.585 99.118 151.585 99.118L151.536 98.9291C151.536 98.8306 151.536 98.9291 151.536 98.9291C151.532 98.8909 151.532 98.8524 151.536 98.8142C151.536 98.8142 151.536 98.5924 151.536 98.6828C151.55 98.6131 151.57 98.5445 151.594 98.4775C151.594 98.4036 151.594 98.535 151.594 98.4775L151.651 98.3789C151.651 98.3789 151.602 98.4364 151.651 98.3789L151.758 98.2804C151.851 98.1865 151.903 98.0596 151.903 97.9273C151.903 97.7949 151.851 97.668 151.758 97.5741C151.662 97.4847 151.536 97.4349 151.405 97.4349C151.274 97.4349 151.147 97.4847 151.052 97.5741L150.986 97.5413Z" fill="#1E1A47"/>
<path d="M171.721 139.579C171.841 139.563 171.952 139.504 172.033 139.413C172.113 139.321 172.158 139.204 172.158 139.082C172.158 138.96 172.113 138.842 172.033 138.751C171.952 138.659 171.841 138.6 171.721 138.585C171.6 138.6 171.489 138.659 171.409 138.751C171.328 138.842 171.284 138.96 171.284 139.082C171.284 139.204 171.328 139.321 171.409 139.413C171.489 139.504 171.6 139.563 171.721 139.579Z" fill="#1E1A47"/>
<path d="M171.4 138.602C170.831 140.377 170.392 142.191 170.087 144.03C170.067 144.152 170.093 144.277 170.16 144.381C170.227 144.484 170.33 144.56 170.449 144.593C170.568 144.625 170.695 144.613 170.806 144.557C170.916 144.502 171.002 144.408 171.047 144.293C171.349 142.453 171.788 140.638 172.361 138.864C172.558 138.257 171.598 137.994 171.4 138.602Z" fill="#1E1A47"/>
<path d="M168.329 134.077C168.611 136.239 168.401 138.437 167.714 140.507C167.508 141.114 168.469 141.377 168.666 140.769C169.382 138.615 169.609 136.329 169.331 134.077C169.327 133.945 169.273 133.82 169.18 133.727C169.087 133.634 168.962 133.58 168.83 133.576C168.698 133.578 168.572 133.631 168.479 133.725C168.385 133.818 168.332 133.944 168.329 134.077V134.077Z" fill="#1E1A47"/>
<path d="M167.295 130.405C167.476 132.755 166.885 135.099 165.612 137.082C165.267 137.624 166.121 138.124 166.433 137.582C167.8 135.45 168.44 132.932 168.256 130.405C168.256 129.773 167.213 129.765 167.262 130.405H167.295Z" fill="#1E1A47"/>
<path d="M165.956 127.532C164.743 129.518 164.046 131.777 163.928 134.101C163.887 134.742 164.88 134.742 164.922 134.101C165.04 131.955 165.692 129.872 166.818 128.041C166.847 127.936 166.84 127.825 166.8 127.724C166.76 127.624 166.688 127.539 166.596 127.482C166.503 127.426 166.395 127.401 166.287 127.411C166.179 127.422 166.077 127.467 165.997 127.54L165.956 127.532Z" fill="#1E1A47"/>
<path d="M163.427 125.89C163.172 127.427 162.613 128.898 161.785 130.217C161.44 130.759 162.302 131.26 162.647 130.726C163.532 129.333 164.135 127.778 164.421 126.152C164.45 126.026 164.43 125.894 164.366 125.781C164.303 125.669 164.199 125.584 164.076 125.545C163.948 125.509 163.812 125.526 163.697 125.59C163.581 125.655 163.496 125.762 163.46 125.89H163.427Z" fill="#1E1A47"/>
<path d="M162.088 121.406C160.844 123.342 159.962 125.487 159.485 127.737C159.362 128.362 160.306 128.633 160.446 128C160.9 125.833 161.749 123.767 162.95 121.907C163.295 121.365 162.433 120.864 162.088 121.406V121.406Z" fill="#1E1A47"/>
<path d="M159.19 117.119C158.858 119.345 158.167 121.503 157.145 123.508C156.857 124.075 157.711 124.576 158.007 124.009C159.069 121.928 159.793 119.691 160.15 117.382C160.182 117.255 160.163 117.12 160.099 117.006C160.035 116.892 159.93 116.806 159.806 116.766C159.742 116.749 159.675 116.744 159.61 116.752C159.545 116.761 159.481 116.782 159.424 116.815C159.367 116.848 159.317 116.891 159.277 116.944C159.236 116.996 159.207 117.055 159.19 117.119V117.119Z" fill="#1E1A47"/>
<path d="M154.336 114.055L155.502 122.111C155.548 122.226 155.634 122.32 155.744 122.376C155.855 122.431 155.982 122.444 156.101 122.411C156.22 122.379 156.323 122.303 156.39 122.199C156.457 122.095 156.483 121.97 156.463 121.848L155.297 113.792C155.252 113.677 155.166 113.583 155.055 113.528C154.945 113.472 154.818 113.46 154.699 113.492C154.58 113.525 154.477 113.6 154.41 113.704C154.343 113.808 154.317 113.933 154.336 114.055V114.055Z" fill="#1E1A47"/>
<path d="M143.858 105.343C143.583 107.213 143.525 109.109 143.685 110.992C143.685 111.124 143.737 111.25 143.829 111.344C143.921 111.437 144.047 111.491 144.178 111.493C144.31 111.491 144.436 111.438 144.53 111.344C144.623 111.251 144.677 111.125 144.679 110.992C144.52 109.197 144.567 107.39 144.819 105.605C144.847 105.477 144.827 105.343 144.762 105.229C144.696 105.115 144.591 105.029 144.465 104.989C144.338 104.957 144.203 104.975 144.089 105.042C143.976 105.108 143.892 105.216 143.858 105.343V105.343Z" fill="#1E1A47"/>
<path d="M146.953 108.061V116.864C146.969 116.985 147.028 117.096 147.119 117.176C147.211 117.257 147.328 117.301 147.45 117.301C147.572 117.301 147.69 117.257 147.781 117.176C147.872 117.096 147.931 116.985 147.947 116.864V108.061C147.931 107.94 147.872 107.829 147.781 107.748C147.69 107.668 147.572 107.624 147.45 107.624C147.328 107.624 147.211 107.668 147.119 107.748C147.028 107.829 146.969 107.94 146.953 108.061V108.061Z" fill="#1E1A47"/>
<path d="M158.343 100.16L161.382 93.3198C161.628 92.7778 161.858 92.2276 162.113 91.6774C162.247 91.3665 162.447 91.0879 162.697 90.86C162.948 90.632 163.244 90.46 163.566 90.3552C164.259 90.099 164.864 89.6486 165.307 89.0577C165.833 88.3433 165.816 87.4153 166.326 86.6844C166.835 85.9536 167.869 86.0849 168.444 85.4198C169.348 84.3768 169.183 82.7591 168.994 81.5026C168.945 81.1823 168.461 81.322 168.51 81.634C168.682 82.4628 168.682 83.3181 168.51 84.1469C168.223 85.2637 167.516 85.4033 166.58 85.8304C166.329 85.9581 166.109 86.1388 165.934 86.36C165.76 86.5812 165.636 86.8375 165.57 87.1115C165.233 88.1051 164.971 89.0331 163.993 89.5751C163.336 89.961 162.532 90.0432 162.047 90.6919C161.509 91.5808 161.068 92.5252 160.733 93.5086L157.916 99.9387C157.785 100.234 158.212 100.481 158.343 100.193V100.16Z" fill="#1E1A47"/>
<path d="M16.7513 93.1559L19.2149 85.765C19.4695 85.0177 19.6584 84.5168 20.5206 84.4429C20.8896 84.4496 21.2575 84.4025 21.6128 84.3033C22.2118 84.0477 22.7228 83.6223 23.0828 83.0797C24.2653 81.4372 24.7252 79.22 25.374 77.3312L28.0839 69.5544C28.1907 69.2588 27.7062 69.1274 27.6076 69.423L25.0537 76.8139C24.602 78.1032 24.1668 79.4007 23.7069 80.6899C23.4351 81.6402 22.9555 82.5182 22.3027 83.2603C21.9192 83.6643 21.3969 83.9079 20.8409 83.9419C20.4311 83.8899 20.0148 83.9349 19.6255 84.0733C19.0835 84.3607 18.9439 85.0834 18.8043 85.6172L16.3407 93.008C16.2422 93.3119 16.7185 93.4433 16.8252 93.1476L16.7513 93.1559Z" fill="#1E1A47"/>
<path d="M117.333 38.2171C121.956 28.3626 128.509 19.6332 135.342 11.2241C142.733 2.19082 150.206 -6.78496 157.769 -15.6704C162.11 -20.7783 166.49 -25.8588 170.908 -30.912L168.798 -33.0225C164.158 -27.6518 160.323 -21.657 156.414 -15.7772L143.775 3.27481L136.672 13.9915C135.605 15.5929 138.191 17.0875 139.242 15.4944C147.454 3.17626 155.511 -9.31428 163.879 -21.5749C166.046 -24.8302 168.401 -27.9561 170.933 -30.9366C172.181 -32.3819 170.112 -34.5007 168.822 -33.0471C160.988 -24.0467 153.241 -14.9669 145.582 -5.80773C138.29 2.91348 130.8 11.5772 124.231 20.8486C120.595 25.8373 117.417 31.1448 114.738 36.7061C113.916 38.4306 116.495 39.9909 117.308 38.2089L117.333 38.2171Z" fill="#1E1A47"/>
<path d="M132.451 31.377C129.642 33.8874 127.25 36.8284 125.364 40.09C124.909 40.8783 124.491 41.6831 124.107 42.5043C123.619 43.3391 123.257 44.2411 123.032 45.1814C122.728 47.448 125.413 47.6943 127.039 47.645C130.743 47.4644 133.954 45.4114 137.526 44.6476C138.002 44.5409 139.168 44.1878 139.505 44.6476C139.842 45.1075 139.595 45.8384 139.505 46.2408C139.08 48.032 138.417 49.7582 137.534 51.3733C136.601 53.1188 135.451 54.7386 134.11 56.1938C133.45 56.9172 132.739 57.5923 131.983 58.214C131.602 58.5953 131.134 58.8773 130.62 59.0352C130.485 59.0682 130.344 59.0682 130.209 59.0352C130.02 58.9777 130.102 58.7395 130.053 59.0352C130.406 57.1628 127.532 56.358 127.179 58.214C127.086 58.7084 127.111 59.2176 127.25 59.701C127.389 60.1843 127.64 60.6284 127.981 60.9978C128.323 61.3671 128.746 61.6516 129.217 61.8284C129.688 62.0052 130.193 62.0695 130.693 62.0161C132.779 61.8765 134.537 60.0535 135.908 58.6328C138.79 55.6471 140.921 52.0188 142.125 48.0474C142.617 46.405 142.987 44.4506 141.985 42.9149C140.687 40.944 138.06 41.3957 136.113 41.8966C134.167 42.3975 132.311 43.2762 130.414 43.8675C129.524 44.1909 128.606 44.4301 127.671 44.5819C127.143 44.6476 126.61 44.6641 126.078 44.6312C125.892 44.5905 125.702 44.5685 125.512 44.5655C125.742 45.592 125.93 45.8548 126.078 45.3867C126.136 45.2471 126.193 45.0993 126.259 44.9597C128.157 40.5737 130.99 36.6555 134.561 33.4792C135.998 32.1982 133.88 30.0959 132.451 31.377Z" fill="#1E1A47"/>
<path d="M123.697 37.4788C132.04 43.8431 136.343 54.0015 140.285 63.3878C140.4 63.7625 140.653 64.0791 140.994 64.273C141.334 64.4669 141.736 64.5233 142.116 64.4308C142.497 64.3252 142.82 64.0734 143.016 63.7302C143.211 63.3871 143.263 62.9806 143.159 62.5995C138.873 52.3837 134.258 41.8148 125.208 34.9002C124.864 34.705 124.457 34.6524 124.075 34.7537C123.692 34.855 123.365 35.1022 123.163 35.4422C122.974 35.7853 122.924 36.1881 123.023 36.5672C123.122 36.9462 123.364 37.2726 123.697 37.4788V37.4788Z" fill="#1E1A47"/>
<path d="M4.81883 215.893C4.22756 213.709 3.39815 211.327 1.70646 209.743C0.862897 208.923 -0.219566 208.393 -1.38435 208.229C-2.54914 208.065 -3.73585 208.276 -4.77285 208.831C-6.89156 209.956 -8.22192 212.264 -9.14988 214.382C-10.3653 217.183 -11.4164 220.073 -12.4347 222.948C-16.4832 234.543 -19.2343 247.075 -17.0581 259.352C-16.6372 262.302 -15.7908 265.176 -14.5452 267.884C-13.9669 269.074 -12.9706 270.009 -11.7465 270.51C-10.5225 271.011 -9.15658 271.044 -7.90986 270.602C-5.20809 269.707 -3.62316 267.317 -2.39135 264.854C-0.962455 262.045 0.359686 259.196 1.61613 256.305C6.63143 244.822 10.3286 232.808 12.6367 220.492C13.312 217.233 13.7104 213.923 13.8275 210.597C13.8767 208.133 14.1067 204.101 11.5363 202.68C8.96592 201.259 6.24773 203.255 5.02413 205.489C3.66144 208.165 2.54811 210.96 1.69825 213.84C-2.11214 225.616 -2.84302 238.164 -2.85944 250.466C-2.85944 253.332 -3.1058 256.642 -1.36485 259.113C0.195445 261.331 3.0943 262.472 5.57434 261.035C7.91478 259.68 9.2205 256.691 10.5016 254.465C11.9633 251.903 13.332 249.295 14.6076 246.639C17.2881 241.103 19.582 235.387 21.4729 229.534C23.3206 223.785 25.078 217.758 25.7432 211.73C26.1743 208.805 25.7582 205.819 24.5442 203.124C23.3124 200.66 20.7584 199.182 18.0567 200.233C15.3549 201.284 14.0738 204.068 13.4661 206.803C12.6837 209.91 12.2784 213.1 12.259 216.304C12.3411 221.56 14.4762 227.316 19.3788 229.895C21.8424 231.201 25.0698 231.332 26.1866 228.253C26.6328 226.833 26.9651 225.381 27.1803 223.908C27.4814 222.233 27.7277 220.552 27.9194 218.866C28.2584 215.752 28.3847 212.619 28.2971 209.488H25.3326C25.5241 213.089 26.5532 216.595 28.3382 219.728C29.0773 221.001 30.3091 222.332 31.894 222.422C33.4789 222.512 34.4808 221.28 34.7764 219.794C36.21 212.542 35.5929 205.035 32.9944 198.114C32.8855 197.733 32.6297 197.411 32.2831 197.218C32.1116 197.123 31.9229 197.062 31.7279 197.04C31.5329 197.018 31.3354 197.034 31.1467 197.088C30.958 197.142 30.7817 197.232 30.628 197.354C30.4743 197.476 30.3461 197.627 30.2508 197.799C30.0583 198.146 30.0113 198.554 30.1202 198.935C30.7538 203.328 32.504 207.485 35.2034 211.007C35.885 211.886 37.6671 212.067 37.9299 210.646L40.2867 196.685L37.355 196.291C37.741 199.313 41.3953 199.576 43.2677 197.646C45.4603 195.371 43.1609 190.74 46.6346 189.483C48.4249 188.835 47.6529 185.952 45.8134 186.609C44.6007 187.033 43.5443 187.814 42.7823 188.848C42.0204 189.883 41.5885 191.123 41.5432 192.407C41.4693 193.228 41.7402 195.051 40.9847 195.692C40.7999 195.829 40.5815 195.914 40.3524 195.938C40.4017 195.938 40.0732 195.938 40.0978 195.938C39.9911 195.938 39.9829 195.938 40.0978 195.938C40.1768 195.973 40.2433 196.031 40.2888 196.104C40.3342 196.177 40.3564 196.263 40.3524 196.349C40.3446 195.992 40.2109 195.65 39.975 195.382C39.739 195.115 39.416 194.939 39.0631 194.887C38.706 194.832 38.3411 194.91 38.0382 195.107C37.7352 195.304 37.5154 195.606 37.4207 195.955L35.0638 209.915L37.7902 209.554C35.2347 206.248 33.5846 202.334 33.0026 198.196L30.1284 199.018C32.135 204.346 32.9044 210.06 32.3785 215.729C32.3128 216.394 32.2307 217.059 32.1239 217.716C31.939 218.317 31.8232 218.937 31.779 219.564L32.1239 219.441C32.0559 219.427 31.9915 219.399 31.9351 219.359C31.8201 219.195 31.4998 219.039 31.3602 218.883C31.0113 218.414 30.7166 217.907 30.4815 217.372C29.2171 214.9 28.4789 212.193 28.3135 209.422C28.1904 207.517 25.2751 207.484 25.3326 209.422C25.5057 215.032 24.9537 220.641 23.6901 226.109C23.4191 227.267 23.3042 228.064 21.9492 227.686C20.9553 227.381 20.043 226.856 19.2803 226.15C17.7473 224.773 16.6128 223.009 15.9954 221.042C15.2453 218.494 15.0328 215.818 15.3713 213.183C15.5515 210.595 16.0592 208.04 16.8823 205.579C17.5311 203.863 19.7155 201.58 21.3826 203.633C22.8115 205.415 22.9757 208.108 22.8689 210.285C22.6548 212.849 22.2207 215.39 21.5714 217.881C20.9802 220.459 20.3095 223.016 19.5595 225.551C18.076 230.615 16.2796 235.582 14.1806 240.423C12.0695 245.266 9.66722 249.978 6.98682 254.531C6.16561 255.87 4.92559 258.908 2.96291 258.719C0.400746 258.473 0.13796 254.933 0.105112 253.037C-0.0673413 242.476 0.384322 231.685 2.71655 221.371C3.27267 218.856 3.9607 216.373 4.77777 213.931C5.51554 211.49 6.47772 209.123 7.65199 206.86C8.07081 206.121 8.71956 205.168 9.68859 205.218C10.6576 205.267 10.6494 206.704 10.7151 207.427C10.9332 210.28 10.8175 213.149 10.3702 215.976C8.71936 226.734 5.92513 237.286 2.03495 247.452C0.126497 252.546 -2.04439 257.537 -4.469 262.406C-5.4216 264.336 -6.48096 266.94 -8.68179 267.72C-9.06685 267.888 -9.48699 267.96 -9.90611 267.93C-10.3252 267.9 -10.7308 267.769 -11.0879 267.547C-11.9748 266.898 -12.3115 265.568 -12.64 264.583C-16.0069 254.482 -15.1036 243.626 -12.5004 233.467C-11.1408 228.251 -9.45679 223.125 -7.45819 218.119C-6.58771 215.877 -3.92701 208.667 -0.404035 211.853C0.926319 213.052 1.49295 215.015 1.94461 216.682C2.05351 217.063 2.30936 217.385 2.65587 217.578C3.00239 217.77 3.41118 217.817 3.79233 217.708C4.17347 217.599 4.49575 217.343 4.68825 216.997C4.88076 216.65 4.92773 216.242 4.81883 215.861V215.893Z" fill="#1E1A47"/>
<path d="M105.704 61.5722C106.111 61.4843 106.496 61.3157 106.837 61.0764C107.177 60.8371 107.466 60.532 107.687 60.179C107.907 59.8261 108.055 59.4325 108.121 59.0215C108.186 58.6105 108.169 58.1906 108.069 57.7864C107.976 57.476 107.786 57.2031 107.528 57.0069C107.27 56.8107 106.956 56.7012 106.632 56.6942C104.686 56.4643 103.109 57.8275 101.845 59.1578C100.61 60.4292 99.5324 61.8435 98.6338 63.3706C97.7891 64.8044 97.106 66.3275 96.5972 67.9119C96.0716 69.5543 95.4475 71.6237 96.4822 73.2087C98.5188 76.3375 102.781 73.6685 104.817 72.0754C106.287 70.8827 107.66 69.5757 108.923 68.1665C110.081 66.9182 111.699 65.5797 111.666 63.732C111.657 63.4414 111.564 63.1597 111.398 62.9207C111.233 62.6817 111.002 62.4955 110.733 62.3846C110.464 62.2736 110.169 62.2425 109.883 62.2951C109.597 62.3476 109.332 62.4816 109.121 62.6808C105.921 65.3901 102.985 68.3954 100.35 71.6566C98.0836 74.4815 96.1537 78.0374 97.8126 81.6507C99.4714 85.264 103.758 85.3625 106.994 83.8926C110.582 82.2501 112.923 78.8914 114.746 75.5327C115.756 73.6603 117.021 71.5827 116.865 69.3654C116.836 68.4009 116.495 67.4716 115.894 66.7167C115.293 65.9617 114.464 65.4216 113.53 65.1773C111.658 64.7995 110.853 67.6409 112.709 68.0597C115.534 68.6263 112.561 73.2744 111.888 74.498C110.459 77.0766 108.735 79.6141 106.057 81.0676C104.021 82.1516 100.982 82.5294 100.26 79.7783C99.5371 77.0273 101.779 74.5637 103.372 72.6831C105.764 69.8532 108.387 67.2272 111.215 64.8324L108.669 63.773C108.669 64.2575 108.069 64.7092 107.766 65.0377C107.322 65.5222 106.887 66.0067 106.435 66.4912C105.543 67.4501 104.603 68.3628 103.618 69.2258C103.142 69.6282 99.1429 72.8227 98.8391 71.3035C98.8384 70.6981 98.9555 70.0985 99.184 69.5379C99.34 68.9548 99.5289 68.38 99.7342 67.8134C100.151 66.7036 100.673 65.6366 101.294 64.6271C101.908 63.6093 102.62 62.6548 103.421 61.7775C104.243 60.8988 105.244 59.5849 106.55 59.7327L105.113 58.6405C105.113 58.7472 104.875 58.7472 104.826 58.7555C102.945 59.1004 103.742 61.9746 105.647 61.6297L105.704 61.5722Z" fill="#1E1A47"/>
<path d="M97.4264 59.8074L97.5496 59.7663C97.7984 59.6968 98.0251 59.5643 98.2078 59.3816C98.3905 59.1989 98.523 58.9722 98.5925 58.7234C98.7978 57.2288 97.2703 55.6521 95.8168 56.81C94.1744 58.1239 95.8168 60.2015 96.5805 61.4744L102.46 71.2714L114.417 91.2267C115.403 92.8691 117.981 91.3745 116.996 89.7239L107.445 73.7925L102.723 65.9171L100.416 62.0657L99.1345 59.9716L98.5022 58.9205L98.2969 58.5673C98.0259 57.8939 97.7877 58.1075 97.5824 59.2161L96.4327 59.3639L95.8579 58.9697L95.7018 57.82V57.9268L96.7448 56.8839L96.6298 56.9249C94.8314 57.5573 95.6033 60.4397 97.451 59.8074H97.4264Z" fill="#1E1A47"/>
<path d="M147.158 75.3026C152.545 62.8499 158.808 50.7946 165.898 39.227C172.92 27.648 180.549 16.4632 188.391 5.43442C192.842 -0.814955 197.359 -7.02327 201.875 -13.2234C202.869 -14.5948 200.668 -16.27 199.535 -15.03C191.528 -6.30882 186.264 4.61322 180.573 14.8783C174.425 25.9646 168.294 37.0563 162.178 48.1535C158.696 54.4823 155.231 60.8193 151.782 67.1645C150.862 68.8561 153.424 70.359 154.36 68.6755C160.415 57.5399 166.512 46.429 172.649 35.3427C178.668 24.4453 184.597 13.4822 190.781 2.67517C193.934 -2.83512 197.351 -8.23044 201.637 -12.9277L199.321 -14.7262C191.315 -3.73024 183.308 7.27392 175.687 18.5409C168.045 29.6988 160.984 41.2439 154.533 53.1301C150.928 59.8722 147.585 66.7621 144.588 73.7998C144.401 74.1434 144.352 74.5455 144.451 74.924C144.55 75.3025 144.79 75.6288 145.122 75.8364C145.463 76.0341 145.869 76.0889 146.25 75.989C146.632 75.889 146.958 75.6423 147.158 75.3026V75.3026Z" fill="#1E1A47"/>
<path d="M152.373 21.9824C153.154 19.9541 153.909 17.4248 152.612 15.4128C152.158 14.6679 151.485 14.0816 150.686 13.7346C149.886 13.3876 148.998 13.2968 148.144 13.4748C146.067 14.0742 145.467 16.4475 144.958 18.287C144.351 20.4687 144.012 22.7162 143.948 24.9798C143.763 29.3523 144.663 33.7026 146.567 37.6428C147.454 39.3674 149.187 40.6977 151.216 40.1475C153.071 39.6384 154.344 37.8481 155.067 36.1729C157.109 31.3452 158.027 26.1166 157.752 20.882C157.724 20.5058 157.555 20.1541 157.279 19.8975C157.002 19.6408 156.639 19.4981 156.262 19.4981C155.885 19.4981 155.521 19.6408 155.245 19.8975C154.968 20.1541 154.799 20.5058 154.771 20.882C154.484 23.1075 154.155 26.0064 155.272 28.0676C155.51 28.5278 155.861 28.9195 156.293 29.2053C156.725 29.4911 157.222 29.6615 157.739 29.7002C158.255 29.7389 158.773 29.6446 159.242 29.4264C159.712 29.2082 160.118 28.8732 160.421 28.4535C161.899 26.6797 162.581 23.9533 162.983 21.7361C163.454 19.253 163.523 16.7106 163.189 14.2056C162.926 12.2594 162.515 9.36872 160.257 8.74461C159.997 8.6571 159.721 8.62444 159.448 8.64869C159.174 8.67294 158.909 8.75358 158.668 8.88551C158.428 9.01744 158.217 9.19781 158.049 9.41525C157.882 9.63268 157.761 9.88247 157.695 10.1489C157.23 11.4081 156.886 12.7088 156.668 14.0332C156.254 16.5882 156.27 19.1948 156.718 21.7443C157.046 23.6331 158.163 26.7947 160.733 25.8503C162.08 25.374 162.376 24.0519 162.597 22.7954C162.816 21.268 163.019 19.7406 163.205 18.2131C163.591 15.0186 163.862 11.8159 164.026 8.605C164.117 6.96259 161.333 6.52735 161.095 8.21082C160.725 10.7812 160.914 14.1892 164.108 14.7805C164.727 14.8906 165.365 14.8079 165.935 14.5435C166.504 14.279 166.979 13.8457 167.295 13.3023C168.001 12.1116 167.935 10.543 167.985 9.19627C168.102 5.86942 168.039 2.53863 167.796 -0.781381C167.623 -3.09718 167.18 -6.42306 164.166 -6.46412C163.841 -6.45837 163.527 -6.3494 163.269 -6.15301C163.01 -5.95663 162.821 -5.68304 162.729 -5.37192C162.142 -3.57982 161.813 -1.71345 161.752 0.171218C161.702 1.81363 161.669 3.7681 162.918 4.98348C163.47 5.46782 164.143 5.79495 164.865 5.93073C165.587 6.06651 166.333 6.00597 167.024 5.75542C168.666 5.20521 169.726 3.80916 170.711 2.4706L167.985 2.10926C168.572 6.00529 168.751 9.95212 168.518 13.8854H171.499C169.98 1.48994 167.787 -10.8135 164.93 -22.9704C164.486 -24.8427 161.645 -24.0461 162.047 -22.1492C164.158 -12.7463 170.202 -4.7478 171.951 4.76176L174.677 3.61207C171.878 -1.22699 171.038 -6.95401 172.329 -12.3932H169.455L170.883 -7.26069C171.214 -5.68377 171.684 -4.13931 172.288 -2.64551C173.602 0.0726761 176.821 -0.0258688 178.241 -2.58803C178.884 -3.9247 179.321 -5.3504 179.539 -6.81724C179.866 -8.44402 180.091 -10.0896 180.212 -11.7445C180.212 -12.0018 180.229 -12.2564 180.262 -12.5082C180.377 -12.8367 180.303 -12.9024 180.04 -12.7135C179.58 -12.5575 180.147 -12.4261 180.385 -12.229C180.797 -11.855 181.255 -11.5349 181.748 -11.2764C183.029 -10.6933 184.581 -10.8083 185.312 -12.1551C186.232 -13.8385 183.67 -15.3496 182.742 -13.6579C183.226 -13.7729 183.366 -13.855 183.169 -13.9125L183.021 -13.9535C182.893 -14.0651 182.752 -14.1615 182.602 -14.2409C182.174 -14.624 181.706 -14.9598 181.206 -15.2428C180.69 -15.5397 180.088 -15.6503 179.501 -15.5561C178.913 -15.4619 178.376 -15.1686 177.979 -14.7255C177.157 -13.7236 177.281 -12.2618 177.157 -10.9808C177.021 -9.59963 176.799 -8.22832 176.492 -6.87473C176.371 -5.77744 176.036 -4.71448 175.507 -3.74593C175.441 -3.66381 175.236 -3.53242 175.277 -3.52421C175.318 -3.516 175.326 -3.52421 175.277 -3.58169C174.957 -3.79521 174.825 -4.50965 174.727 -4.82993C173.905 -7.6056 173.183 -10.4059 172.403 -13.1898C172.309 -13.4976 172.118 -13.767 171.859 -13.9584C171.601 -14.1498 171.287 -14.2531 170.966 -14.2531C170.644 -14.2531 170.33 -14.1498 170.072 -13.9584C169.813 -13.767 169.623 -13.4976 169.528 -13.1898C168.037 -6.97726 168.983 -0.429352 172.173 5.10667C173.06 6.63411 175.195 5.56654 174.899 3.95698C173.15 -5.55259 167.114 -13.5511 165.004 -22.9457L162.121 -22.1245C164.936 -10.2289 167.099 1.81143 168.6 13.9428C168.628 14.319 168.798 14.6707 169.074 14.9274C169.35 15.1841 169.714 15.3267 170.091 15.3267C170.468 15.3267 170.831 15.1841 171.108 14.9274C171.384 14.6707 171.553 14.319 171.581 13.9428C171.812 9.74382 171.597 5.5322 170.941 1.37839C170.727 -0.0422945 168.88 0.121948 168.214 1.01706C167.741 1.84525 167.04 2.52057 166.194 2.96332C165.513 3.20147 164.987 3.04544 164.872 2.32278C164.609 0.00702693 164.89 -2.33824 165.693 -4.52608L164.256 -3.43387C164.256 -3.43387 164.256 -3.56527 164.445 -3.22036C164.575 -2.93627 164.675 -2.6389 164.741 -2.33346C164.868 -1.53446 164.942 -0.727907 164.963 0.080888C165.094 2.18317 165.16 4.29367 165.151 6.39596C165.151 7.41425 165.151 8.43255 165.086 9.45085C165.122 10.2249 165.042 11.0001 164.848 11.7502C164.749 12.013 164.848 11.9145 164.749 11.9062C164.633 11.8845 164.523 11.838 164.427 11.77C164.33 11.702 164.25 11.614 164.191 11.5121C163.747 10.8715 163.961 9.77933 164.059 9.04845L161.127 8.65427C160.985 11.1288 160.788 13.5925 160.536 16.0451C160.405 17.3153 160.257 18.5799 160.093 19.8391L159.846 21.6375C159.797 21.966 159.756 22.3027 159.699 22.6312C159.641 22.9597 159.395 23.1486 159.978 23.165C160.725 23.165 160.257 23.165 160.191 22.9186C160.126 22.6723 160.019 22.5573 159.961 22.3766C159.814 21.8374 159.705 21.2886 159.633 20.7342C159.45 19.5996 159.373 18.4504 159.403 17.3016C159.456 15.0085 159.903 12.7417 160.725 10.6005L159.682 11.6435C159.477 11.6845 159.477 11.5121 159.534 11.7174C159.608 11.8829 159.691 12.0446 159.781 12.2019C159.934 12.6535 160.047 13.118 160.117 13.5897C160.301 14.5683 160.411 15.5592 160.446 16.5543C160.522 18.6771 160.27 20.7989 159.699 22.8447C159.445 23.8139 159.107 24.7591 158.688 25.6697C158.543 26.0343 158.334 26.3706 158.073 26.6633C157.9 26.8276 158.073 26.8193 158.007 26.7783C157.522 26.4498 157.604 25.0702 157.588 24.5939C157.555 23.3533 157.621 22.1121 157.785 20.882H154.804C154.958 24.2769 154.59 27.6753 153.712 30.9582C153.466 31.878 151.634 38.6447 149.754 37.0351C148.818 36.2139 148.407 34.4155 148.062 33.3069C147.561 31.7417 147.223 30.1291 147.052 28.4946C146.711 25.2688 146.99 22.0076 147.873 18.8865C148.046 18.2706 148.267 16.8499 148.801 16.4229C149.08 16.2012 149.384 16.3572 149.68 16.5625C151.092 17.5479 149.951 19.9623 149.483 21.1612C148.793 22.9515 151.675 23.7234 152.365 21.9824H152.373Z" fill="#1E1A47"/>
<path d="M114.343 244.66C118.958 234.805 125.52 226.076 132.344 217.667C139.702 208.601 147.18 199.636 154.779 190.772C159.126 185.665 163.506 180.584 167.918 175.531L165.808 173.42C161.168 178.791 157.333 184.786 153.416 190.666L140.786 209.718L133.682 220.393C132.615 222.036 135.193 223.489 136.253 221.896C144.465 209.537 152.521 197.087 160.889 184.827C163.056 181.572 165.411 178.446 167.943 175.465C169.191 174.02 167.122 171.901 165.833 173.355C157.998 182.355 150.252 191.435 142.593 200.594C135.3 209.315 127.811 217.979 121.241 227.25C117.631 232.237 114.479 237.539 111.822 243.091C111.001 244.816 113.579 246.335 114.392 244.594L114.343 244.66Z" fill="#1E1A47"/>
<path d="M144.17 281.714C149.555 269.271 155.817 257.226 162.91 245.671C169.931 234.1 177.56 222.907 185.402 211.878C189.845 205.629 194.362 199.421 198.878 193.221C199.88 191.849 197.671 190.174 196.538 191.414C188.539 200.135 183.275 211.057 177.576 221.322C171.434 232.409 165.305 243.5 159.189 254.597C155.708 260.932 152.242 267.269 148.793 273.608C147.873 275.3 150.435 276.803 151.363 275.119C157.424 263.984 163.523 252.873 169.66 241.787C175.679 230.889 181.608 219.926 187.792 209.119C190.945 203.609 194.362 198.214 198.648 193.516L196.308 191.71C188.301 202.706 180.294 213.71 172.674 224.977C165.041 236.124 157.988 247.659 151.544 259.533C147.931 266.283 144.597 273.165 141.599 280.203C141.41 280.546 141.36 280.949 141.459 281.328C141.559 281.707 141.8 282.033 142.133 282.239C142.474 282.437 142.88 282.492 143.261 282.392C143.643 282.292 143.969 282.045 144.17 281.706V281.714Z" fill="#1E1A47"/>
<path d="M149.376 228.425C150.197 226.396 150.92 223.867 149.623 221.855C149.169 221.11 148.497 220.524 147.697 220.177C146.897 219.83 146.009 219.739 145.155 219.917C143.069 220.516 142.478 222.89 141.961 224.729C141.358 226.912 141.019 229.159 140.951 231.422C140.77 235.792 141.673 240.14 143.579 244.077C144.465 245.801 146.19 247.132 148.218 246.581C150.082 246.072 151.347 244.282 152.078 242.607C154.12 237.779 155.039 232.551 154.763 227.316C154.673 225.345 152.012 225.452 151.774 227.316C151.495 229.541 151.166 232.44 152.283 234.502C152.521 234.962 152.872 235.353 153.304 235.639C153.736 235.925 154.234 236.095 154.75 236.134C155.266 236.173 155.784 236.079 156.254 235.86C156.723 235.642 157.129 235.307 157.432 234.887C158.902 233.114 159.584 230.387 159.994 228.17C160.458 225.686 160.525 223.144 160.192 220.64C159.929 218.693 159.518 215.803 157.252 215.179C156.992 215.092 156.717 215.061 156.445 215.086C156.172 215.111 155.908 215.191 155.668 215.323C155.428 215.455 155.218 215.635 155.051 215.852C154.884 216.068 154.764 216.317 154.698 216.583C154.225 217.84 153.882 219.141 153.671 220.467C153.252 223.022 153.269 225.629 153.72 228.178C154.049 230.067 155.166 233.229 157.736 232.325C159.075 231.849 159.379 230.527 159.592 229.27C159.822 227.743 160.027 226.216 160.208 224.688C160.586 221.496 160.859 218.294 161.029 215.08C161.128 213.438 158.336 213.002 158.106 214.686C157.736 217.256 157.917 220.664 161.119 221.255C161.739 221.365 162.377 221.281 162.947 221.015C163.517 220.749 163.992 220.314 164.306 219.769C165.012 218.578 164.946 217.01 164.996 215.663C165.109 212.336 165.046 209.006 164.807 205.685C164.634 203.37 164.191 200.044 161.177 200.003C160.851 200.008 160.535 200.117 160.277 200.315C160.018 200.514 159.83 200.79 159.74 201.103C159.152 202.892 158.823 204.756 158.763 206.638C158.713 208.28 158.681 210.235 159.929 211.45C160.481 211.935 161.154 212.262 161.876 212.398C162.598 212.533 163.344 212.473 164.035 212.222C165.677 211.672 166.737 210.276 167.722 208.937L164.996 208.576C165.584 212.475 165.762 216.424 165.529 220.36H168.51C166.992 207.962 164.799 195.656 161.941 183.496C161.505 181.624 158.656 182.421 159.066 184.318C161.177 193.72 167.213 201.719 168.97 211.229L171.697 210.079C168.89 205.242 168.049 199.512 169.348 194.074H166.474L167.903 199.206C168.233 200.783 168.703 202.327 169.307 203.821C170.613 206.539 173.84 206.441 175.261 203.879C175.894 202.543 176.323 201.12 176.534 199.658C176.863 198.031 177.091 196.386 177.215 194.73L177.264 193.967C177.379 193.638 177.264 193.573 177.043 193.761C176.575 193.918 177.149 194.049 177.388 194.246C177.813 194.623 178.285 194.943 178.792 195.199C180.073 195.782 181.625 195.667 182.356 194.32C183.267 192.677 180.713 191.125 179.777 192.817C180.262 192.702 180.41 192.62 180.213 192.563L180.065 192.521C180.007 192.431 179.736 192.308 179.646 192.234C179.216 191.853 178.748 191.517 178.25 191.232C177.734 190.935 177.132 190.825 176.544 190.919C175.957 191.013 175.42 191.306 175.023 191.75C174.201 192.751 174.324 194.254 174.201 195.494C174.065 196.875 173.843 198.247 173.536 199.6C173.395 200.696 173.041 201.753 172.493 202.713C172.436 202.795 172.23 202.926 172.271 202.934C172.313 202.943 172.321 202.934 172.271 202.877C171.959 202.663 171.828 201.949 171.729 201.629C170.908 198.853 170.177 196.053 169.405 193.269C169.311 192.961 169.121 192.692 168.862 192.5C168.604 192.309 168.29 192.205 167.968 192.205C167.647 192.205 167.333 192.309 167.074 192.5C166.816 192.692 166.625 192.961 166.531 193.269C165.035 199.481 165.982 206.031 169.176 211.565C170.062 213.093 172.198 212.025 171.902 210.416C170.145 200.906 164.109 192.907 161.998 183.513L159.124 184.334C161.931 196.234 164.094 208.277 165.603 220.41C165.631 220.786 165.8 221.138 166.077 221.394C166.353 221.651 166.717 221.794 167.094 221.794C167.471 221.794 167.834 221.651 168.111 221.394C168.387 221.138 168.556 220.786 168.584 220.41C168.811 216.208 168.596 211.994 167.944 207.837C167.722 206.416 165.882 206.581 165.217 207.476C164.74 208.304 164.036 208.979 163.189 209.422C162.516 209.66 161.99 209.504 161.867 208.781C161.608 206.466 161.889 204.121 162.688 201.932L161.251 203.025C161.292 203.025 161.251 202.893 161.44 203.238C161.57 203.522 161.669 203.82 161.735 204.125C161.864 204.924 161.935 205.731 161.949 206.539C162.089 208.642 162.154 210.752 162.138 212.855C162.138 213.873 162.138 214.891 162.08 215.909C162.119 216.684 162.035 217.46 161.834 218.209C161.735 218.472 161.834 218.373 161.735 218.365C161.619 218.343 161.51 218.297 161.413 218.229C161.317 218.161 161.236 218.073 161.177 217.971C160.734 217.33 160.955 216.238 161.054 215.507L158.122 215.113C157.985 217.582 157.788 220.046 157.531 222.504C157.391 223.768 157.243 225.033 157.079 226.289C157.008 226.886 156.926 227.486 156.833 228.088C156.784 228.416 156.751 228.753 156.685 229.082C156.603 229.533 156.389 229.599 156.972 229.624C157.72 229.624 157.252 229.624 157.186 229.369C157.12 229.114 157.013 229.008 156.956 228.827C156.81 228.287 156.698 227.738 156.619 227.185C156.439 226.05 156.365 224.901 156.398 223.752C156.459 221.443 156.92 219.161 157.761 217.01L156.718 218.053C156.504 218.053 156.513 217.921 156.562 218.127C156.611 218.332 156.751 218.447 156.816 218.611C156.971 219.062 157.081 219.527 157.145 219.999C157.337 220.976 157.447 221.968 157.473 222.964C157.557 225.086 157.307 227.209 156.734 229.254C156.476 230.222 156.139 231.167 155.724 232.079C155.579 232.444 155.37 232.78 155.108 233.073C154.936 233.237 155.108 233.229 155.034 233.188C154.55 232.859 154.632 231.479 154.624 231.003C154.587 229.763 154.653 228.521 154.821 227.291H151.774C151.949 230.69 151.592 234.095 150.715 237.384C150.468 238.304 148.645 245.07 146.757 243.461C145.829 242.64 145.418 240.841 145.073 239.733C144.573 238.173 144.235 236.566 144.063 234.937C143.722 231.711 144.001 228.45 144.884 225.329C145.065 224.713 145.287 223.292 145.82 222.865C146.1 222.643 146.403 222.799 146.699 223.005C148.103 223.99 146.97 226.404 146.502 227.603C145.812 229.394 148.695 230.166 149.376 228.425V228.425Z" fill="#1E1A47"/>
<path d="M60.9078 159.493L59.8977 158.902L58.3867 161.48C64.8249 164.198 71.7723 165.069 78.654 165.923C85.8587 166.821 93.0908 167.459 100.35 167.836C104.511 168.05 108.68 168.179 112.857 168.222L112.455 165.291C99.6605 169.142 89.1572 177.855 79.7955 187.077C77.0609 189.771 74.3509 192.629 72.8317 196.201C72.644 196.546 72.5947 196.949 72.6939 197.329C72.793 197.709 73.0332 198.037 73.3654 198.246C73.7084 198.442 74.1145 198.495 74.4967 198.396C74.8789 198.296 75.2068 198.05 75.4102 197.712C76.7816 194.815 78.7033 192.213 81.0684 190.05C83.3513 187.762 85.7 185.539 88.1143 183.382C92.7768 179.125 97.9096 175.414 103.413 172.32C106.546 170.599 109.849 169.206 113.268 168.165C113.607 168.061 113.898 167.841 114.09 167.542C114.281 167.244 114.36 166.887 114.313 166.536C114.265 166.184 114.095 165.861 113.831 165.624C113.567 165.387 113.228 165.251 112.874 165.241C98.819 165.194 84.7891 164.057 70.91 161.842C67.1427 161.293 63.4524 160.306 59.9141 158.902C58.1978 158.179 56.695 160.478 58.4031 161.48L59.4132 162.063C59.7518 162.231 60.1415 162.264 60.5037 162.157C60.866 162.049 61.1739 161.807 61.3654 161.482C61.557 161.156 61.618 160.769 61.5361 160.4C61.4542 160.031 61.2356 159.707 60.9242 159.493H60.9078Z" fill="#1E1A47"/>
<path d="M144.597 136.598C138.076 147.659 128.994 156.824 119.222 165.061C116.454 167.393 113.736 169.774 111.773 172.846C110.804 174.365 112.882 175.671 114.114 174.652C117.054 172.189 120.043 169.799 123.574 168.247C126.923 166.851 130.47 165.987 134.085 165.685C142.141 164.864 150.263 165.808 158.319 164.864C158.71 164.853 159.082 164.693 159.359 164.417C159.635 164.14 159.795 163.768 159.806 163.377C159.806 162.982 159.649 162.603 159.371 162.323C159.092 162.043 158.714 161.885 158.319 161.883C145.788 163.312 132.295 160.29 120.618 166.342C117.536 168.09 114.648 170.16 112.003 172.517L114.344 174.324C116.035 171.68 118.45 169.61 120.798 167.598C123.147 165.586 125.643 163.443 127.984 161.267C132.7 156.94 137.059 152.238 141.016 147.208C143.266 144.302 145.334 141.261 147.208 138.101C148.186 136.458 145.607 134.939 144.63 136.598H144.597Z" fill="#1E1A47"/>
<path d="M115.822 182.717C123.746 176.689 133.888 175.326 143.603 175.227C145.516 175.227 145.525 172.23 143.603 172.246C133.436 172.312 122.629 173.823 114.319 180.138C113.987 180.347 113.746 180.675 113.645 181.054C113.545 181.433 113.592 181.837 113.777 182.183C113.98 182.522 114.308 182.767 114.69 182.867C115.072 182.967 115.479 182.913 115.822 182.717V182.717Z" fill="#1E1A47"/>
<path d="M79.8279 155.518C90.3456 160.876 102.158 163.169 113.916 162.137C115.805 161.964 115.83 158.983 113.916 159.156C102.686 160.184 91.3933 158.03 81.3307 152.939C79.6226 152.069 78.1116 154.647 79.8279 155.518Z" fill="#1E1A47"/>
<path d="M86.9811 208.453C86.0285 206.416 86.9811 204.043 87.9583 202.211C88.9367 200.446 90.0835 198.78 91.3828 197.235C93.9063 194.05 97.1369 191.498 100.818 189.778C102.541 189.022 104.379 188.564 106.255 188.423C107.076 188.366 108.176 188.226 108.874 188.793C109.398 189.335 109.715 190.045 109.77 190.797C109.922 192.857 109.671 194.926 109.03 196.89C108.419 199.062 107.67 201.193 106.789 203.271C105.795 205.734 104.719 208.116 103.824 210.596C103.085 212.616 101.87 215.425 104.12 216.927C104.404 217.092 104.735 217.159 105.062 217.117C105.388 217.076 105.692 216.928 105.926 216.698C111.75 210.541 115.627 202.802 117.07 194.451C117.366 192.669 117.711 190.608 116.586 189.039C115.296 187.241 112.98 187.298 111.256 188.391C109.531 189.483 108.267 191.257 107.06 192.874C105.878 194.466 104.802 196.134 103.84 197.867C99.9203 205.138 97.7469 213.221 97.4925 221.477C97.4049 223.472 97.4323 225.471 97.5747 227.464C97.7225 229.533 98.1002 231.693 99.6112 233.212C100.279 233.942 101.161 234.442 102.13 234.639C103.099 234.837 104.106 234.723 105.007 234.312C106.756 233.442 107.946 231.561 109.113 230.042C114.898 222.293 118.778 213.291 120.437 203.764C120.766 201.891 117.891 201.086 117.563 202.942C116.307 210.197 113.721 217.158 109.934 223.472C108.976 225.055 107.946 226.596 106.846 228.096C106.337 228.786 105.811 229.467 105.269 230.124C104.854 230.765 104.29 231.297 103.627 231.676C102.05 232.268 101.081 230.223 100.818 229.04C100.517 227.297 100.404 225.527 100.482 223.76C100.427 216.796 101.784 209.893 104.473 203.468C105.858 200.227 107.623 197.162 109.728 194.336C110.673 193.071 111.782 191.355 113.268 190.682C114.754 190.008 114.491 192.209 114.36 193.104C113.132 201.144 109.485 208.62 103.906 214.538L105.713 214.308C106.074 214.546 105.713 214.439 105.869 214.226C105.951 214.005 106.012 213.777 106.049 213.544C106.238 212.92 106.452 212.296 106.665 211.68C107.109 210.44 107.593 209.216 108.094 207.993C109.055 205.677 110.065 203.378 110.919 201.013C111.793 198.673 112.407 196.244 112.751 193.769C113.005 191.741 113.013 189.507 111.929 187.701C110.656 185.582 108.332 185.237 106.049 185.41C103.856 185.608 101.709 186.163 99.6934 187.052C95.5776 188.938 91.9712 191.778 89.1737 195.338C85.8889 199.304 81.9635 204.782 84.4107 209.98C85.2319 211.713 87.8023 210.202 86.9811 208.477V208.453Z" fill="#1E1A47"/>
<path d="M102.001 219.596L101.779 224.08C101.722 225.221 101.385 226.831 102.313 227.726C102.491 227.91 102.711 228.047 102.954 228.128C103.197 228.208 103.456 228.228 103.709 228.186C103.964 228.106 104.198 227.97 104.394 227.788C104.59 227.606 104.743 227.383 104.842 227.135C105.445 225.955 105.956 224.731 106.37 223.472C106.854 222 107.208 220.489 107.429 218.956C107.519 218.331 106.558 218.06 106.468 218.693C106.268 220.122 105.946 221.531 105.507 222.906C105.111 224.28 104.56 225.605 103.865 226.856C103.717 227.094 103.561 227.291 103.257 227.184C103.14 227.134 103.036 227.058 102.953 226.961C102.87 226.864 102.812 226.749 102.781 226.626C102.645 225.871 102.645 225.098 102.781 224.343L103.019 219.596C103.019 218.956 102.058 218.964 102.025 219.596H102.001Z" fill="#1E1A47"/>
<path d="M48.6143 178.142C49.1727 179.62 49.8461 181.148 51.3325 181.895C52.0336 182.221 52.8142 182.336 53.5796 182.227C54.3449 182.118 55.0621 181.788 55.6438 181.279C58.8383 178.725 57.4012 174.709 55.7999 171.671C55.6326 171.392 55.3791 171.176 55.0778 171.055C54.7765 170.933 54.4438 170.913 54.1301 170.997C53.8163 171.082 53.5387 171.266 53.3391 171.523C53.1396 171.779 53.029 172.093 53.0242 172.418C53.287 176.664 55.4878 180.261 57.779 183.693C59.8813 186.789 62.3859 190.156 62.542 194.041C62.6482 195.689 62.2346 197.329 61.3594 198.73C61.1377 199.066 60.3247 200.224 59.8484 200.134C59.602 200.134 59.3475 199.157 59.29 198.902C58.9378 197.008 58.8357 195.075 58.9861 193.154C59.0541 191.125 59.2959 189.105 59.7088 187.118C60.6475 182.658 62.4135 178.413 64.9152 174.603L62.1806 173.847C62.3262 176.616 62.7304 179.366 63.3878 182.059C63.6916 183.291 64.053 184.523 64.4636 185.697C64.7658 186.906 65.2862 188.05 65.9992 189.072C67.773 191.101 70.2202 189.713 71.0579 187.627C71.8948 185.299 72.1595 182.803 71.8298 180.351C71.6518 177.901 70.8734 175.532 69.5633 173.453C69.2967 173.027 68.9255 172.677 68.485 172.435C68.0445 172.193 67.5495 172.069 67.0471 172.073C66.5447 172.077 66.0518 172.21 65.6153 172.459C65.1789 172.707 64.8134 173.064 64.5539 173.494C63.396 175.186 63.355 177.682 63.7327 179.62C63.9183 180.658 64.4494 181.602 65.2395 182.3C66.0296 182.998 67.0325 183.408 68.0851 183.464C69.2195 183.52 70.3486 183.275 71.358 182.754C72.3675 182.234 73.2215 181.456 73.8335 180.499C75.3199 178.208 75.3938 175.325 75.3938 172.689C75.3938 170.759 72.5032 170.776 72.4129 172.689C72.2514 176.057 73.1755 179.388 75.0489 182.191C75.1839 182.412 75.3734 182.594 75.5991 182.721C75.8249 182.847 76.0794 182.914 76.3382 182.914C76.5971 182.914 76.8516 182.847 77.0773 182.721C77.3031 182.594 77.4925 182.412 77.6275 182.191C79.9271 177.696 80.6418 172.557 79.6559 167.606C79.3356 165.964 76.5928 166.325 76.7324 168.008C76.8924 170.244 77.1858 172.468 77.6111 174.668C77.9642 176.418 78.1859 178.939 79.8858 179.965C80.5996 180.331 81.4146 180.448 82.2026 180.3C82.9906 180.151 83.7067 179.744 84.2382 179.144C85.6835 177.608 85.47 175.424 85.2072 173.502C85.0999 173.121 84.8464 172.798 84.502 172.603C84.1575 172.407 83.7499 172.356 83.3677 172.459C82.9923 172.572 82.675 172.826 82.4822 173.167C82.2894 173.508 82.2359 173.911 82.333 174.291C82.4398 175.112 82.7108 176.549 81.9881 177.173C81.2655 177.797 81.1669 176.771 81.0109 176.179C80.3397 173.511 79.8919 170.792 79.6723 168.049L76.7406 168.444C77.5536 172.628 76.9437 176.964 75.0079 180.762H77.5864C75.9624 178.397 75.1656 175.562 75.3199 172.698H72.3718C72.3718 175.161 72.4868 179.037 69.7275 180.228C68.9063 180.589 67.6745 180.721 67.034 179.932C66.3934 179.144 66.4263 177.288 66.6316 176.262C66.7678 175.813 66.9523 175.381 67.1818 174.972C67.1161 175.12 66.9518 174.882 66.9929 174.972C67.1371 175.257 67.3018 175.532 67.4856 175.793C68.2233 177.27 68.6932 178.866 68.8735 180.507C69.0533 182.1 68.9729 183.711 68.6353 185.278C68.563 185.666 68.4615 186.048 68.3315 186.42C68.274 186.584 67.9701 186.945 67.9537 187.101C67.9373 187.257 69.1034 184.531 68.2822 187.143C68.2822 187.143 68.1344 186.921 68.1344 186.913C68.0195 186.518 67.8597 186.138 67.6581 185.779C66.2356 181.948 65.3887 177.927 65.1452 173.847C65.1361 173.525 65.0235 173.214 64.824 172.96C64.6246 172.707 64.3489 172.524 64.0377 172.44C63.7264 172.355 63.3962 172.373 63.0958 172.49C62.7954 172.607 62.5408 172.818 62.3695 173.092C59.789 177.023 57.9467 181.392 56.9331 185.985C56.4149 188.342 56.1125 190.742 56.0298 193.154C55.8559 195.4 56.0052 197.659 56.4732 199.863C56.9578 201.711 58.3867 203.526 60.5136 203.074C62.5009 202.655 63.9709 200.61 64.7017 198.828C66.4427 194.665 65.1862 190.14 63.0593 186.387C60.5218 181.944 56.3583 177.822 56.0216 172.427L53.2377 173.182C54.0589 174.677 55.4139 177.025 54.1492 178.618C52.8846 180.212 51.973 178.618 51.505 177.354C50.8398 175.572 47.9491 176.344 48.6307 178.175L48.6143 178.142Z" fill="#1E1A47"/>
<path d="M147.192 152.332C147.134 154.746 147.192 157.16 147.282 159.575C147.282 159.971 147.44 160.351 147.72 160.631C148 160.912 148.38 161.069 148.777 161.069C149.173 161.069 149.553 160.912 149.834 160.631C150.114 160.351 150.271 159.971 150.271 159.575L151.446 148.39C151.529 148.059 151.581 147.72 151.602 147.38C151.61 147.264 151.65 147.154 151.717 147.059C151.881 146.854 151.717 146.871 151.158 147.125C151.158 147.125 151.815 148.538 151.84 148.611C152.423 150.344 152.949 152.085 153.441 153.843C153.55 154.178 153.773 154.465 154.072 154.653C154.371 154.841 154.726 154.918 155.076 154.87C155.425 154.822 155.747 154.652 155.984 154.391C156.221 154.129 156.359 153.793 156.373 153.44L156.463 147.569L156.513 144.735C156.513 144.267 156.513 143.783 156.513 143.315C156.504 143.208 156.504 143.101 156.513 142.994C156.652 142.65 156.554 142.658 156.233 142.994L154.394 141.951C155.073 145.708 156.059 149.402 157.342 152.997C157.417 153.241 157.552 153.461 157.736 153.638C157.92 153.815 158.145 153.943 158.392 154.008C158.638 154.074 158.897 154.076 159.145 154.014C159.392 153.952 159.619 153.828 159.806 153.654C162.663 150.582 163.181 145.86 163.657 141.878C163.92 139.718 164.306 137.254 163.953 135.094C163.698 133.551 162.483 131.892 160.709 132.376C158.713 132.918 158.664 135.226 158.566 136.901C158.418 138.847 158.492 140.803 158.787 142.732C159.37 146.279 161.547 150.492 165.472 151.083C170.243 151.806 173.635 146.567 175.195 142.797C175.296 142.416 175.243 142.011 175.048 141.668C174.853 141.326 174.531 141.073 174.152 140.966C173.771 140.871 173.369 140.927 173.028 141.121C172.687 141.315 172.434 141.633 172.321 142.009C171.344 144.374 168.437 149.4 165.193 147.93C161.949 146.46 161.547 142.001 161.547 138.987C161.547 138.075 161.604 137.164 161.67 136.252C161.744 135.921 161.783 135.582 161.785 135.242C161.875 134.971 161.678 134.988 161.193 135.283C160.922 135.07 160.849 135.037 160.972 135.193C160.972 135.193 161.12 135.891 161.128 136.014C161.128 136.532 161.128 137.074 161.128 137.591C161.087 138.642 161.013 139.693 160.914 140.744C160.709 142.814 160.372 144.869 159.904 146.895C159.628 148.616 158.903 150.233 157.802 151.584L160.266 152.241C158.984 148.646 157.998 144.952 157.317 141.196C157.212 140.815 156.96 140.492 156.617 140.297C156.274 140.101 155.867 140.05 155.486 140.153C153.228 141.032 153.556 143.545 153.523 145.557L153.4 153.448L156.332 153.054C155.79 150.73 155.054 148.456 154.131 146.255C153.269 144.432 150.969 143.389 149.458 145.162C148.894 145.926 148.573 146.842 148.539 147.79C148.383 149.071 148.268 150.361 148.128 151.65L147.307 159.583H150.296C150.176 157.168 150.146 154.754 150.206 152.34C150.255 150.418 147.274 150.418 147.217 152.34L147.192 152.332Z" fill="#1E1A47"/>
<path d="M50.4124 80.2306C50.7628 78.8205 50.5662 77.3299 49.8622 76.0589C49.7287 75.836 49.5398 75.6516 49.3139 75.5235C49.0879 75.3955 48.8326 75.3282 48.5729 75.3282C48.3132 75.3282 48.0579 75.3955 47.8319 75.5235C47.606 75.6516 47.417 75.836 47.2836 76.0589C45.6412 79.3026 44.1466 83.2362 46.8566 86.3814C47.3987 87.0325 48.1077 87.5239 48.9076 87.8031C49.7075 88.0823 50.5683 88.1387 51.3978 87.9663C53.147 87.6214 54.4035 86.2254 55.3725 84.8376C57.5004 81.8429 58.9262 78.4073 59.5442 74.786C59.6401 74.3431 59.6419 73.8851 59.5494 73.4415C59.457 72.9978 59.2724 72.5786 59.0077 72.2109C58.7429 71.8431 58.4038 71.5351 58.0125 71.3068C57.6211 71.0784 57.1861 70.9348 56.7357 70.8853C54.8616 70.5237 52.9334 70.5488 51.0694 70.9592C50.1552 71.1652 49.2942 71.5603 48.5418 72.1189C47.7894 72.6775 47.1622 73.3874 46.7005 74.2029C46.2653 75.0241 45.8793 76.2724 46.3392 77.1921C46.4643 77.4421 46.6398 77.6633 46.8547 77.8419C47.0697 78.0205 47.3193 78.1526 47.5879 78.2298C47.8565 78.307 48.1382 78.3276 48.4152 78.2903C48.6921 78.2531 48.9584 78.1587 49.197 78.0133C49.5158 77.8029 49.7419 77.4784 49.829 77.1065C49.916 76.7346 49.8573 76.3434 49.665 76.0134C49.4727 75.6834 49.1613 75.4395 48.7947 75.3319C48.4282 75.2243 48.0344 75.2611 47.6942 75.4348L48.9178 75.7222L49.1149 76.4695C49.1468 76.0788 49.2716 75.7014 49.4787 75.3686C49.6857 75.0358 49.9693 74.7573 50.3056 74.5561C51.2116 73.9656 52.271 73.6544 53.3523 73.6609C53.9934 73.6473 54.6348 73.6665 55.2739 73.7184C55.6271 73.7184 56.3744 73.7184 56.67 73.9648C56.5468 73.8498 56.67 74.0387 56.67 74.2358C56.5527 74.8767 56.388 75.508 56.1773 76.1246C55.6435 78.0298 52.0712 87.7118 49.1231 84.3941C47.3411 82.415 48.885 79.4669 49.8868 77.537H47.3082C47.6202 78.1092 47.7024 78.7787 47.5382 79.4094C47.0865 81.2735 49.9607 82.0701 50.4124 80.2306Z" fill="#1E1A47"/>
<path d="M62.862 57.1297C67.5757 56.251 67.3704 50.3465 69.4316 47.0781C69.5962 46.7625 69.8289 46.4874 70.113 46.2729C70.3971 46.0585 70.7254 45.9099 71.074 45.8381C71.949 45.786 72.819 45.6708 73.6773 45.4932C74.4543 45.1993 75.1478 44.7201 75.6974 44.0971C76.8348 42.7373 77.8309 41.2652 78.6702 39.7037C79.601 38.1105 80.4399 36.4654 81.1831 34.7764C82.8966 30.8762 84.1027 26.7723 84.7717 22.5651L82.9322 23.567C86.8494 24.3143 89.2719 20.2822 91.3003 17.6379C93.7504 14.4062 96.0336 11.0512 98.141 7.58632C99.1428 5.94391 96.5643 4.4411 95.5706 6.0753C93.7913 8.99879 91.8752 11.8429 89.8222 14.6076C88.8449 15.938 87.8513 17.2519 86.8083 18.5248C86.1185 19.346 84.9524 20.9309 83.6878 20.6928C83.3124 20.601 82.9162 20.6573 82.5813 20.8499C82.2464 21.0426 81.9986 21.3569 81.8893 21.7275C80.8143 28.7185 78.1756 35.3768 74.17 41.2065C73.8406 41.7913 73.3652 42.2808 72.7903 42.6272C72.0348 42.9721 71.0576 42.775 70.2528 42.9639C69.2542 43.1965 68.3495 43.7262 67.6578 44.4831C66.2453 46.0023 65.6623 48.1128 65.0382 50.0427C64.7581 51.0413 64.3669 52.0054 63.8721 52.9169C63.705 53.272 63.4526 53.5801 63.1373 53.8137C62.822 54.0473 62.4537 54.1991 62.0654 54.2554C60.1766 54.6086 60.9732 57.4828 62.8866 57.1297H62.862Z" fill="#1E1A47"/>
<path d="M85.8884 44.959C86.4304 37.5682 90.52 30.9985 94.2893 24.8559C98.535 17.8757 102.362 10.6737 106.131 3.43888C107.018 1.73077 104.489 0.227965 103.561 1.92786C100.498 7.79948 97.4428 13.6629 94.1005 19.3785C91.0538 24.5767 87.6376 29.5943 85.3218 35.1867C83.9935 38.292 83.1781 41.5924 82.9074 44.959C82.7678 46.8725 85.7488 46.8642 85.8884 44.959Z" fill="#1E1A47"/>
<path d="M126.235 86.9316C126.176 85.0525 126.63 83.193 127.549 81.5527C127.767 81.1619 128.011 80.7861 128.28 80.4276C128.429 80.2796 128.564 80.1173 128.682 79.9431C129.002 79.7378 128.953 79.6311 128.542 79.6228C128.222 79.434 128.123 79.434 128.255 79.6228C128.301 79.8696 128.362 80.1137 128.436 80.3537C128.518 80.9532 128.542 81.5691 128.592 82.1768C128.931 86.7733 128.983 91.3865 128.748 95.9895C128.749 96.1879 128.789 96.384 128.867 96.5666C128.944 96.7491 129.058 96.9144 129.2 97.0528C129.342 97.1911 129.51 97.2998 129.695 97.3724C129.879 97.4451 130.077 97.4802 130.275 97.4759C131.444 97.4272 132.59 97.8035 133.502 98.5352C134.545 99.3564 134.956 100.703 135.818 101.705C137.346 103.495 140.745 103.635 141.46 101.007C141.569 100.626 141.522 100.217 141.329 99.8706C141.137 99.5241 140.814 99.2682 140.433 99.1593C140.052 99.0504 139.643 99.0974 139.297 99.2899C138.95 99.4824 138.695 99.8047 138.586 100.186C138.692 99.8081 138.972 100.252 138.454 100.038C138.128 99.8453 137.868 99.5592 137.707 99.2168C137.218 98.3154 136.629 97.4724 135.95 96.7039C135.203 95.9678 134.316 95.3898 133.341 95.0046C132.366 94.6194 131.323 94.4348 130.275 94.462L131.761 95.9566C131.915 92.847 131.945 89.7291 131.852 86.6031C131.794 85.051 131.712 83.4907 131.589 81.9386C131.49 80.6986 131.523 79.3108 130.924 78.1857C130.696 77.689 130.309 77.2823 129.824 77.0295C129.339 76.7768 128.785 76.6924 128.247 76.7897C126.933 77.0443 126.038 78.391 125.356 79.4422C123.938 81.6659 123.218 84.2625 123.287 86.8987C123.328 88.8121 126.309 88.8203 126.268 86.8987L126.235 86.9316Z" fill="#1E1A47"/>
<path d="M41.9211 4.93359C42.2906 3.95635 43.8919 4.49014 44.3847 4.93359C45.5918 6.01758 45.9121 7.9392 46.1749 9.45843C46.7847 13.2305 46.4026 17.0964 45.0663 20.6761C44.6475 21.9243 43.9494 24.2237 42.578 24.6343C42.4795 24.6343 42.2495 24.6343 42.2906 24.5768V24.8396V24.7903C42.2906 24.7903 42.3645 24.6918 42.4138 24.6836C42.6684 24.6836 42.7833 24.4701 43.079 24.5276C43.3663 24.6344 43.6269 24.8025 43.8427 25.0203C45.1566 26.1782 45.8546 27.8124 47.3985 28.7568C48.1004 29.2112 48.9271 29.4342 49.7623 29.3944C50.5975 29.3547 51.3992 29.0541 52.0547 28.535C53.24 27.4156 53.9955 25.9163 54.1899 24.2976C54.6333 21.9654 54.9043 19.5921 55.2574 17.2435H52.3832C55.1479 26.5505 57.4501 35.9752 59.2896 45.5176C59.6509 47.3981 62.5251 46.6016 62.1638 44.6964C60.3571 35.1868 58.066 25.7731 55.2903 16.4551C54.9043 15.1576 52.646 14.9112 52.4161 16.4551C52.0383 18.9598 51.8166 21.5548 51.2417 24.0266C51.139 24.796 50.8233 25.5213 50.3302 26.1207C49.6075 26.7941 48.811 26.1782 48.2361 25.5951C46.7251 24.0677 45.7725 21.8504 43.3089 21.5794C41.3791 21.3577 39.2029 22.7948 39.3178 24.8643C39.4328 27.2211 42.2742 28.1491 44.1629 27.2047C46.216 26.1535 47.185 23.5175 47.9323 21.4562C49.6473 16.7661 49.8964 11.6655 48.6467 6.83057C48.039 4.6051 46.7415 2.2154 44.3518 1.55843C43.304 1.22605 42.1691 1.30405 41.1766 1.77667C40.1841 2.24928 39.4082 3.08121 39.0058 4.10417C38.3324 5.90261 41.2148 6.67454 41.88 4.92537L41.9211 4.93359Z" fill="#1E1A47"/>
<path d="M122.071 92.9752C121.8 94.7777 121.391 96.5567 120.847 98.2966C120.568 99.1671 120.256 100.029 119.911 100.867C119.671 101.537 119.363 102.181 118.991 102.789C118.913 102.895 118.822 102.992 118.72 103.076C118.659 103.12 118.593 103.155 118.523 103.183C118.523 103.183 118.696 103.125 118.523 103.183L118.318 103.232C118.318 103.232 118.523 103.232 118.318 103.232H118.104C118.269 103.232 118.162 103.232 118.104 103.232L117.817 103.142C117.817 103.142 117.981 103.216 117.817 103.142C117.676 103.078 117.541 103.001 117.415 102.912C117.275 102.83 117.365 102.912 117.415 102.912L117.242 102.756C117.193 102.706 116.905 102.403 117.012 102.534C116.019 101.286 116.101 99.3396 115.863 97.8367C115.763 96.9059 115.475 96.005 115.016 95.189C114.557 94.3729 113.937 93.6588 113.194 93.0902C112.966 92.9618 112.71 92.8948 112.449 92.8958C112.188 92.8968 111.931 92.9658 111.705 93.0959C111.479 93.226 111.291 93.4128 111.158 93.6378C111.026 93.8629 110.955 94.1185 110.952 94.3795C111.223 97.3683 111.083 100.38 110.533 103.331C110.44 103.712 110.496 104.115 110.69 104.457C110.884 104.799 111.201 105.054 111.576 105.17C111.77 105.219 111.972 105.228 112.17 105.198C112.368 105.167 112.558 105.098 112.728 104.993C112.899 104.888 113.047 104.75 113.163 104.588C113.28 104.425 113.363 104.24 113.407 104.045C114.027 100.835 114.199 97.5545 113.916 94.2973L111.674 95.5866C112.12 95.9754 112.448 96.482 112.619 97.0484C112.849 97.8086 113.003 98.5899 113.079 99.3806C113.317 101.294 113.621 103.396 115.115 104.784C116.446 106.024 118.564 106.656 120.207 105.605C121.024 105.042 121.658 104.251 122.03 103.331C122.465 102.386 122.851 101.425 123.229 100.44C124.012 98.2698 124.582 96.0282 124.929 93.7471C125.021 93.3665 124.965 92.9648 124.771 92.6244C124.577 92.2839 124.26 92.0305 123.886 91.9159C123.505 91.8125 123.098 91.8642 122.755 92.0596C122.412 92.255 122.16 92.5783 122.054 92.9588L122.071 92.9752Z" fill="#1E1A47"/>
<path d="M41.0422 46.8557C40.439 45.4722 40.2288 43.9492 40.4346 42.454C40.5483 41.7052 40.7725 40.9773 41.0997 40.2942C41.1901 40.1136 41.5514 39.6948 41.5678 39.473C41.5842 39.2513 41.9291 39.4155 41.4693 39.473C41.7567 39.473 41.2229 39.473 41.2393 39.473C41.2558 39.473 41.6499 40.5817 41.6499 40.6884C41.8224 41.5671 41.9374 42.4622 42.0523 43.3491C42.2987 45.2379 42.4711 47.1267 42.5861 49.0237C42.5894 49.2846 42.6607 49.5402 42.7928 49.7653C42.9249 49.9904 43.1134 50.1771 43.3396 50.3073C43.5658 50.4374 43.8221 50.5063 44.083 50.5073C44.344 50.5083 44.6008 50.4413 44.828 50.3129C46.9467 49.0237 47.8254 46.8064 48.0553 44.4331C48.1471 43.2809 48.1196 42.1224 47.9732 40.9758C47.85 39.8262 47.7515 38.5122 46.8564 37.691C45.5835 36.4592 43.9904 37.2394 43.1281 38.5122C42.3824 39.6467 41.9256 40.9464 41.7978 42.298C41.5612 44.969 42.2863 47.6366 43.8426 49.8202C45.6656 52.4645 48.2196 54.4026 50.7982 56.2667C51.1394 56.4644 51.5449 56.5192 51.9264 56.4193C52.3079 56.3193 52.6344 56.0726 52.8348 55.7329C52.938 55.5631 53.0066 55.3746 53.0369 55.1783C53.0672 54.9819 53.0584 54.7815 53.0111 54.5885C52.9638 54.3955 52.8789 54.2137 52.7613 54.0536C52.6437 53.8935 52.4956 53.7581 52.3256 53.6553C49.862 51.8732 47.2834 49.9434 45.756 47.2252C45.1058 46.052 44.748 44.7393 44.713 43.3984C44.6976 42.7291 44.7862 42.0614 44.9758 41.4193C45.1318 40.9184 45.4193 40.0397 45.9202 39.8179L45.1729 39.9904C45.0052 39.958 44.8541 39.868 44.7459 39.7358V39.7358C44.7459 39.7358 44.8937 40.2778 44.9019 40.3271C44.9594 40.672 44.9922 41.0333 45.0251 41.3947C45.1217 42.2918 45.1465 43.1953 45.099 44.0964C45.1196 44.8002 44.9699 45.4985 44.6624 46.132C44.355 46.7654 43.8991 47.3151 43.3334 47.7344L45.5753 49.0237C45.4275 46.4533 45.1483 43.8911 44.7541 41.3372C44.4913 39.5141 44.1136 36.993 41.8963 36.5906C39.482 36.1471 38.2337 38.9475 37.7328 40.8116C37.1391 43.0683 37.2918 45.4566 38.168 47.6194C38.2794 47.9996 38.532 48.3228 38.874 48.5229C39.216 48.7229 39.6215 48.7845 40.0075 48.6952C40.3871 48.5861 40.7085 48.3319 40.9021 47.9876C41.0958 47.6434 41.1461 47.2367 41.0422 46.8557V46.8557Z" fill="#1E1A47"/>
<path d="M79.1709 131.318C78.5616 129.933 78.3511 128.406 78.5632 126.908C78.6741 126.159 78.8955 125.431 79.2202 124.748C79.3105 124.567 79.68 124.149 79.6883 123.968C79.6965 123.787 80.0578 123.91 79.5897 123.927C79.8771 123.927 79.3433 123.927 79.368 123.927C79.3926 123.927 79.7704 125.035 79.7868 125.142C79.9593 126.021 80.0742 126.916 80.1892 127.811C80.4355 129.692 80.608 131.589 80.723 133.486C80.7277 133.746 80.7999 134 80.9326 134.224C81.0653 134.448 81.2539 134.634 81.4799 134.763C81.7059 134.892 81.9616 134.961 82.2219 134.961C82.4822 134.962 82.7382 134.895 82.9649 134.767C85.0754 133.477 85.9541 131.268 86.184 128.887C86.2757 127.735 86.2482 126.576 86.1019 125.43C85.9705 124.28 85.8719 122.966 84.985 122.145C83.7039 120.905 82.119 121.693 81.2568 122.966C80.5043 124.097 80.0469 125.399 79.9264 126.752C79.6911 129.421 80.413 132.088 81.963 134.274C83.7943 136.918 86.3482 138.865 88.9186 140.729C89.2601 140.921 89.6632 140.971 90.0413 140.868C90.4193 140.766 90.7421 140.519 90.9401 140.181C91.1381 139.843 91.1956 139.441 91.1001 139.061C91.0047 138.681 90.7639 138.354 90.4296 138.15C87.966 136.368 85.3874 134.446 83.86 131.728C83.2151 130.54 82.8685 129.212 82.8499 127.86C82.8305 127.194 82.9192 126.528 83.1127 125.889C83.2605 125.38 83.5479 124.502 84.0571 124.247L83.3016 124.452C83.1338 124.42 82.9827 124.33 82.8745 124.198V124.198C82.8745 124.198 83.0141 124.74 83.0223 124.789C83.088 125.142 83.1127 125.504 83.1537 125.857C83.2426 126.741 83.2619 127.63 83.2112 128.517C83.1127 129.922 82.7021 131.392 81.4456 132.163L83.6875 133.453C83.5342 130.874 83.2605 128.312 82.8663 125.766C82.5953 123.943 82.2093 121.414 80.0003 121.012C77.5367 120.576 76.3377 123.377 75.8368 125.265C75.2334 127.521 75.3863 129.913 76.272 132.073C76.3849 132.449 76.6381 132.767 76.979 132.961C77.32 133.155 77.7225 133.211 78.1033 133.116C78.4838 133.011 78.8071 132.759 79.0025 132.416C79.1979 132.072 79.2496 131.666 79.1463 131.285L79.1709 131.318Z" fill="#1E1A47"/>
<path d="M9.80359 137.09L9.14662 135.546L6.80619 137.353L44.1546 171.72C45.5671 173.018 47.6776 170.899 46.2651 169.618L8.91669 135.25C8.6584 135.002 8.31953 134.855 7.96178 134.836C7.60404 134.816 7.25123 134.926 6.96763 135.145C6.68403 135.364 6.4885 135.677 6.41666 136.028C6.34483 136.379 6.40146 136.744 6.57625 137.057L7.23321 138.601C7.43509 138.939 7.76156 139.184 8.14241 139.284C8.52327 139.384 8.92808 139.33 9.2698 139.135C9.60461 138.93 9.84717 138.604 9.94668 138.224C10.0462 137.844 9.9949 137.441 9.80359 137.098V137.09Z" fill="#1E1A47"/>
<path d="M1.85478 141.713C13.3517 151.671 24.6077 161.895 35.6228 172.385C38.7433 175.358 41.8475 178.355 44.9352 181.377C46.3149 182.716 48.4254 180.613 47.0457 179.267C36.173 168.64 25.0675 158.268 13.7294 148.151C10.4774 145.277 7.22273 142.427 3.96528 139.602C2.51995 138.354 0.401244 140.424 1.85478 141.713V141.713Z" fill="#1E1A47"/>
<path d="M8.17775 154.804C1.14275 163.016 -5.64315 171.422 -12.1799 180.023C-13.2065 181.37 -10.9646 183.07 -9.83951 181.83C-7.56886 179.342 -4.87104 177.281 -1.87381 175.744C-0.409839 174.969 1.12449 174.333 2.70852 173.847C3.43118 173.634 5.25425 172.92 5.66486 173.847L5.89479 172.033C-2.82428 180.646 -10.2883 190.443 -16.2778 201.136C-17.9749 204.18 -19.5516 207.29 -21.0079 210.465C-21.8291 212.198 -19.2341 213.75 -18.4293 211.968C-13.4218 201.015 -6.88859 190.827 0.975772 181.706C3.21493 179.111 5.5581 176.609 8.00529 174.201C8.22908 173.962 8.37181 173.659 8.4131 173.335C8.4544 173.01 8.39214 172.681 8.23523 172.394C6.59282 168.592 0.598017 171.326 -1.90666 172.435C-5.71814 174.149 -9.13664 176.629 -11.95 179.719L-9.60136 181.526C-3.2288 173.117 3.40106 164.905 10.2882 156.89C11.5283 155.444 9.46704 153.326 8.17775 154.787V154.804Z" fill="#1E1A47"/>
<path d="M22.5325 164.526C22.3354 164.74 22.0233 164.666 22.0151 164.526C22.0069 164.387 22.2533 164.304 22.3354 164.321C22.4175 164.337 22.4011 164.551 22.4339 164.592C22.319 164.452 23.2141 164.058 22.3518 164.502C22.1465 164.608 21.9412 164.773 21.7606 164.888C20.9393 165.413 20.2085 165.955 19.453 166.53C16.4169 168.762 13.5837 171.257 10.9863 173.987C9.69704 175.35 8.46523 176.77 7.30733 178.249C6.30546 179.53 5.09829 181.287 6.36294 182.823C7.6276 184.358 9.64777 183.463 11.0356 182.593C12.4234 181.722 13.9016 180.646 15.2812 179.604C18.3361 177.312 21.4156 174.882 25.1357 173.806L23.6822 171.342C15.0156 180.33 7.12571 190.036 0.0971429 200.355C-0.986849 201.949 1.59995 203.443 2.67573 201.858C9.56357 191.747 17.297 182.239 25.7927 173.436C26.0024 173.199 26.1318 172.901 26.1623 172.586C26.1929 172.271 26.123 171.954 25.9627 171.681C25.8024 171.408 25.5599 171.192 25.2698 171.065C24.9797 170.938 24.6569 170.905 24.3473 170.973C20.4056 172.114 17.1372 174.537 13.9098 176.967C12.3383 178.208 10.6928 179.351 8.98259 180.392C8.75731 180.486 8.5403 180.598 8.33384 180.729C8.22708 180.95 8.56377 181.468 8.84298 181.254C9.0643 181.001 9.25963 180.726 9.42604 180.433C10.1405 179.505 10.9042 178.61 11.6761 177.731C14.5375 174.457 17.7452 171.503 21.2432 168.92C22.0972 168.296 22.9677 167.696 23.8546 167.121C24.3284 166.885 24.7261 166.52 25.002 166.069C25.278 165.617 25.4211 165.097 25.4149 164.567C25.4079 164.107 25.3041 163.653 25.1104 163.235C24.9167 162.818 24.6373 162.445 24.2904 162.143C23.9435 161.84 23.5368 161.613 23.0967 161.478C22.6567 161.342 22.193 161.301 21.7359 161.356C21.2269 161.437 20.7448 161.638 20.3301 161.944C19.9154 162.25 19.5804 162.651 19.3534 163.113C19.1264 163.576 19.014 164.086 19.0258 164.601C19.0376 165.117 19.1731 165.621 19.421 166.073C19.6689 166.525 20.0219 166.91 20.4501 167.197C20.8783 167.483 21.3692 167.663 21.8813 167.719C22.3934 167.776 22.9117 167.709 23.3924 167.524C23.873 167.338 24.302 167.039 24.643 166.653C25.9569 165.257 23.8218 163.147 22.5325 164.543V164.526Z" fill="#1E1A47"/>
<path d="M78.0463 52.4812L78.8675 50.8388C79.6887 49.1225 77.1347 47.6033 76.2889 49.336L73.5379 54.9613L76.2643 56.111C77.2859 53.4852 78.6679 51.0144 80.3703 48.7694L77.7835 47.242L61.6632 84.3358C61.4894 84.6492 61.432 85.014 61.5012 85.3656C61.5703 85.7173 61.7615 86.0331 62.041 86.2574C62.3253 86.4823 62.6824 86.5948 63.0442 86.5736C63.4061 86.5524 63.7475 86.3989 64.0037 86.1425C67.2885 82.1432 69.7521 77.6184 72.3964 73.1921C74.9421 68.9218 77.7342 64.6269 81.7253 61.5474L79.9186 61.3421C80.7398 62.0565 80.5099 63.2226 80.3046 64.1752C79.9515 65.7684 79.4834 67.3286 79.0071 68.8972L76.1411 79.0637C74.3098 85.7483 72.3635 92.4247 70.5897 99.1175C69.6125 102.854 68.9473 106.623 69.555 110.475C69.6415 110.789 69.8291 111.067 70.0888 111.264C70.3485 111.461 70.6659 111.568 70.9921 111.567C71.4474 111.606 71.9055 111.541 72.3321 111.377C72.7587 111.213 73.1429 110.956 73.4557 110.623C73.7345 110.343 73.8907 109.964 73.8899 109.569C73.8892 109.174 73.7315 108.795 73.4516 108.516C73.1718 108.237 72.7926 108.081 72.3976 108.082C72.0026 108.083 71.624 108.24 71.3453 108.52C71.181 108.685 71.2713 108.619 70.9675 108.586L72.4046 109.678C71.879 106.27 72.6674 102.821 73.5461 99.5363C74.4987 96.0462 75.517 92.5479 76.486 89.0495L82.2344 68.3141C83.0556 65.5056 84.5831 61.5802 81.9963 59.2233C81.7604 58.9949 81.4569 58.8491 81.1312 58.8077C80.8055 58.7662 80.4752 58.8314 80.1896 58.9934C71.7148 65.5631 68.4628 75.9842 61.8603 84.0484L64.2008 85.855L80.3703 48.753C80.4695 48.5831 80.5343 48.3954 80.561 48.2005C80.5876 48.0056 80.5756 47.8074 80.5257 47.6171C80.4758 47.4269 80.3888 47.2483 80.2699 47.0916C80.1509 46.935 80.0023 46.8033 79.8324 46.7041C79.6626 46.6048 79.4748 46.5401 79.2799 46.5134C79.085 46.4867 78.8868 46.4987 78.6966 46.5487C78.5063 46.5986 78.3277 46.6855 78.1711 46.8045C78.0144 46.9235 77.8827 47.0721 77.7835 47.242C75.9334 49.7065 74.4379 52.4182 73.3408 55.298C72.7331 56.8665 75.3281 57.9669 76.0672 56.4477L78.8182 50.8224L76.2396 49.3196L75.4184 50.962C74.5972 52.6948 77.1676 54.2058 77.9888 52.473L78.0463 52.4812Z" fill="#1E1A47"/>
<path d="M49.3371 263.178C54.0508 262.299 53.8455 256.395 55.9068 253.127C56.0749 252.814 56.3088 252.541 56.5923 252.327C56.8758 252.113 57.2022 251.963 57.5492 251.887C58.4158 251.833 59.2776 251.718 60.1277 251.542C60.9184 251.248 61.6238 250.763 62.1808 250.129C63.3182 248.769 64.3142 247.297 65.1535 245.736C66.0859 244.143 66.9249 242.498 67.6664 240.809C69.3674 236.896 70.5597 232.781 71.214 228.564L69.3827 229.607C73.2917 230.355 75.7142 226.322 77.7426 223.678C80.1935 220.445 82.4793 217.09 84.5915 213.627C85.5933 211.984 83.0148 210.481 82.0129 212.116C80.2336 215.039 78.3175 217.883 76.2644 220.648C75.2872 221.978 74.2936 223.292 73.2506 224.565C72.5608 225.386 71.3947 226.971 70.13 226.733C69.7501 226.632 69.3456 226.683 69.0032 226.877C68.6608 227.07 68.4079 227.39 68.2987 227.768C67.2252 234.762 64.5864 241.423 60.5794 247.255C60.2525 247.842 59.7766 248.332 59.1998 248.676C58.4443 249.021 57.4753 248.824 56.6705 249.012C55.6695 249.245 54.7621 249.774 54.0672 250.532C52.6548 252.051 52.0799 254.161 51.4476 256.091C51.1675 257.087 50.7763 258.049 50.2815 258.957C50.1162 259.314 49.8643 259.624 49.5489 259.86C49.2334 260.095 48.8642 260.247 48.4748 260.304C46.5861 260.657 47.3826 263.531 49.296 263.178H49.3371Z" fill="#1E1A47"/>
<path d="M72.3716 251.041C72.9054 243.65 76.995 237.121 80.7643 230.929C85.0182 223.957 88.8368 216.755 92.6143 209.512C93.493 207.812 90.9227 206.31 90.0358 208.009C86.9809 213.881 83.9178 219.744 80.5755 225.46C77.5288 230.658 74.1208 235.676 71.7968 241.268C70.4675 244.373 69.6521 247.674 69.3824 251.041C69.2428 252.954 72.232 252.946 72.3716 251.041Z" fill="#1E1A47"/>
<path d="M45.1074 212.263C46.1257 211.442 47.2754 212.469 47.5217 213.545C47.8913 215.187 47.1111 217.109 46.4459 218.62C45.0413 221.767 42.9345 224.551 40.2869 226.758C39.6464 227.288 38.9745 227.779 38.2749 228.228C37.6426 228.63 36.6818 229.377 35.877 229.254C35.6225 229.254 35.5485 229.024 35.3597 228.967C35.4336 228.967 35.2447 229.189 35.2447 229.189C35.6717 229.32 35.8935 229.098 36.2137 229.566C37.1088 230.864 36.6982 232.917 37.2074 234.395C37.4252 235.194 37.87 235.912 38.4881 236.463C39.1061 237.014 39.8708 237.374 40.6893 237.499C42.6438 237.721 44.3847 236.407 45.6165 235.035C47.2589 233.262 48.7453 231.348 50.3056 229.509L47.842 228.055C45.3127 237.433 42.3235 246.664 38.8744 255.746C38.1846 257.545 41.067 258.317 41.7486 256.568C45.1922 247.485 48.1705 238.252 50.6834 228.868C51.0529 227.505 49.1888 226.232 48.2197 227.415C46.5773 229.402 44.9349 231.595 43.0872 233.401C42.5534 233.91 41.6255 234.806 40.8125 234.502C39.9995 234.198 39.8763 233.032 39.786 232.35C39.5068 230.305 39.4657 227.792 37.388 226.667C35.836 225.846 33.5694 226.035 32.6907 227.743C31.5411 229.977 33.7583 232.26 35.9756 232.243C38.1928 232.227 40.4511 230.445 42.1428 229.074C45.5623 226.26 48.1749 222.591 49.7143 218.439C50.593 216.09 51.1843 213.118 49.5583 210.941C48.2444 209.176 45.5016 208.223 43.6046 209.685C43.2738 209.895 43.0349 210.223 42.9359 210.602C42.8369 210.982 42.8851 211.384 43.0708 211.73C43.2712 212.069 43.5977 212.316 43.9791 212.416C44.3606 212.516 44.7662 212.461 45.1074 212.263V212.263Z" fill="#1E1A47"/>
<path d="M58.0741 112.774C59.0924 111.953 60.2421 112.98 60.4802 114.055C60.858 115.698 60.0696 117.619 59.4045 119.13C58.0026 122.279 55.8953 125.064 53.2454 127.268C52.6049 127.798 51.9331 128.289 51.2335 128.738C50.6011 129.141 49.6403 129.888 48.8355 129.765C48.581 129.765 48.5153 129.543 48.3264 129.478C48.4003 129.478 48.2114 129.699 48.2032 129.699C48.6302 129.831 48.8602 129.609 49.1804 130.077C50.0673 131.383 49.6567 133.428 50.1659 134.906C50.3842 135.706 50.8304 136.425 51.45 136.976C52.0696 137.527 52.836 137.886 53.656 138.01C55.6105 138.232 57.3432 136.918 58.5833 135.546C60.2257 133.772 61.7203 131.859 63.2723 130.02L60.8087 128.566C58.2783 137.947 55.2771 147.194 51.8165 156.273C51.1349 158.072 54.0173 158.844 54.6907 157.095C58.1398 148.018 61.1317 138.79 63.6665 129.412C64.0278 128.049 62.1637 126.776 61.2029 127.958C59.5946 130.039 57.8815 132.038 56.0704 133.945C55.5448 134.454 54.6086 135.349 53.7956 135.045C52.9826 134.741 52.8677 133.575 52.7691 132.894C52.4981 130.849 52.4488 128.336 50.3794 127.211C48.8273 126.39 46.5526 126.579 45.6739 128.287C44.5324 130.52 46.7415 132.803 48.9587 132.787C51.176 132.771 53.4343 130.989 55.126 129.617C58.5457 126.806 61.156 123.135 62.6893 118.983C63.568 116.634 64.1592 113.661 62.5415 111.485C61.2193 109.719 58.4765 108.775 56.5795 110.228C56.2487 110.435 56.0077 110.758 55.9042 111.134C55.8007 111.509 55.8425 111.91 56.0211 112.257C56.223 112.597 56.551 112.844 56.9338 112.944C57.3166 113.044 57.7234 112.989 58.0659 112.791L58.0741 112.774Z" fill="#1E1A47"/>
<path d="M64.3975 206.696L65.2188 205.054C66.04 203.337 63.4942 201.818 62.6484 203.551L59.8563 209.16L62.5827 210.309C63.6044 207.684 64.9863 205.213 66.6887 202.968L64.1183 201.465L48.0063 238.6C47.835 238.915 47.7799 239.279 47.8504 239.631C47.921 239.982 48.1128 240.297 48.3922 240.521C48.6753 240.746 49.0309 240.858 49.3914 240.837C49.7519 240.815 50.0919 240.662 50.3467 240.406C53.6315 236.407 56.0952 231.882 58.7394 227.456C61.2934 223.186 64.0855 218.891 68.0766 215.82L66.2699 215.581C67.0911 216.304 66.8612 217.462 66.6477 218.415C66.3027 220.008 65.8265 221.568 65.3584 223.137L62.5252 233.311C60.6611 240.004 58.7066 246.672 56.941 253.382C55.9556 257.118 55.2986 260.887 55.8981 264.739C55.9908 265.049 56.1803 265.322 56.4388 265.517C56.6973 265.712 57.0114 265.819 57.3352 265.823C57.7902 265.859 58.2476 265.793 58.6739 265.629C59.1001 265.466 59.4845 265.209 59.7988 264.878C60.0538 264.594 60.1901 264.222 60.1797 263.84C60.1692 263.458 60.0127 263.094 59.7425 262.824C59.4722 262.554 59.1087 262.398 58.7266 262.387C58.3445 262.377 57.973 262.513 57.6883 262.768C57.5241 262.932 57.6144 262.866 57.3105 262.834L58.7477 263.934C58.2303 260.518 59.0104 257.069 59.8891 253.784C60.8335 250.277 61.8354 246.779 62.8126 243.281L68.5611 222.545C69.3823 219.745 70.9179 215.811 68.3229 213.454C68.0871 213.226 67.7836 213.08 67.4579 213.039C67.1322 212.997 66.8018 213.063 66.5163 213.225C58.0743 219.77 54.8469 230.232 48.2198 238.296L50.5602 240.103L66.7216 203.001C66.8202 202.832 66.8847 202.645 66.9113 202.452C66.9379 202.258 66.926 202.061 66.8765 201.872C66.8269 201.683 66.7406 201.505 66.6224 201.349C66.5042 201.194 66.3565 201.063 66.1878 200.964C66.019 200.865 65.8324 200.801 65.6388 200.774C65.4451 200.748 65.248 200.759 65.0589 200.809C64.8698 200.859 64.6923 200.945 64.5366 201.063C64.3808 201.181 64.2499 201.329 64.1512 201.498C62.2996 203.958 60.8039 206.668 59.7085 209.546C59.1008 211.114 61.6876 212.214 62.4267 210.695L65.1777 205.054L62.6073 203.551L61.7861 205.193C60.9649 206.918 63.5435 208.429 64.3647 206.696H64.3975Z" fill="#1E1A47"/>
<path d="M88.5821 65.7198C84.5157 78.8709 81.2253 92.2494 78.7277 105.786C78.3828 107.659 81.257 108.464 81.6019 106.608C84.1033 93.0742 87.3937 79.6985 91.4564 66.5492C92.023 64.7097 89.1406 63.9213 88.5821 65.728V65.7198Z" fill="#1E1A47"/>
<path d="M51.6035 76.6826V76.9454C51.5944 77.1444 51.6368 77.3424 51.7266 77.5203C51.7888 77.7052 51.8961 77.8717 52.0387 78.0048C52.1693 78.1446 52.3331 78.2492 52.515 78.3086C52.6921 78.4013 52.8901 78.4466 53.0899 78.44L53.4922 78.3825C53.7396 78.3141 53.9656 78.1842 54.1492 78.0048L54.3791 77.7009C54.5154 77.4726 54.5864 77.2113 54.5844 76.9454V76.6908C54.595 76.4907 54.5495 76.2916 54.4531 76.116C54.3936 75.9341 54.2891 75.7703 54.1492 75.6397C54.0161 75.4971 53.8496 75.3898 53.6647 75.3276C53.4873 75.2367 53.289 75.1942 53.0899 75.2045L52.6957 75.2537C52.4469 75.3231 52.2204 75.4561 52.0387 75.6397L51.8006 75.9435C51.6694 76.1706 51.6013 76.4286 51.6035 76.6908V76.6826Z" fill="#1E1A47"/>
<path d="M134.898 87.621C135.274 87.5931 135.626 87.4239 135.882 87.1475C136.139 86.871 136.282 86.5077 136.282 86.1305C136.282 85.7533 136.139 85.39 135.882 85.1136C135.626 84.8371 135.274 84.668 134.898 84.64C134.522 84.668 134.17 84.8371 133.913 85.1136C133.657 85.39 133.514 85.7533 133.514 86.1305C133.514 86.5077 133.657 86.871 133.913 87.1475C134.17 87.4239 134.522 87.5931 134.898 87.621V87.621Z" fill="#1E1A47"/>
<path d="M37.5441 123.228L24.4048 131.292C24.1756 131.432 23.9978 131.641 23.898 131.89C23.7981 132.139 23.7816 132.414 23.851 132.673C23.9204 132.932 24.0719 133.161 24.2828 133.327C24.4937 133.493 24.7526 133.586 25.0207 133.592C29.0306 133.449 33.0041 134.397 36.5176 136.334C37.9137 137.098 39.1537 134.971 37.7658 134.208C33.8696 132.053 29.4623 130.994 25.0125 131.144L25.6366 133.436L38.7759 125.371C40.1227 124.55 38.8909 122.415 37.5277 123.244L37.5441 123.228Z" fill="#1E1A47"/>
</g>
</svg>
