<svg width="148" height="148" viewBox="0 0 148 148" fill="none" xmlns="http://www.w3.org/2000/svg">
<path d="M0 32C0 16.9151 0 9.37258 4.68629 4.68629C9.37258 0 16.9151 0 32 0H116C131.085 0 138.627 0 143.314 4.68629C148 9.37258 148 16.9151 148 32V116C148 131.085 148 138.627 143.314 143.314C138.627 148 131.085 148 116 148H32C16.9151 148 9.37258 148 4.68629 143.314C0 138.627 0 131.085 0 116V32Z" fill="#F8F5FF"/>
<path d="M95.5101 90.0568L92.5277 90.8117L92.0541 90.9299L90.0701 91.4288L76.3485 94.8948V98.6104C76.3485 100.803 74.6141 102.582 72.4765 102.582C72.0605 102.582 71.6637 102.516 71.2925 102.392C70.9853 102.293 70.6909 102.149 70.4221 101.978C69.3341 101.276 68.6109 100.035 68.6109 98.6104V96.8511L60.7645 98.8336L56.3293 99.9561L56.2717 100.429L55.7085 104.971L55.3629 107.761L55.3565 107.84L55.1069 109.862L54.2557 116.755L54.2109 116.84C54.5885 117.05 54.9661 117.254 55.3565 117.444C55.8941 117.707 56.4381 117.943 56.9949 118.16C57.1485 118.219 57.3021 118.278 57.4621 118.337C57.9165 118.508 58.3773 118.652 58.8445 118.79C60.7965 119.354 62.8509 119.663 64.9757 119.663H83.4653C82.5181 117.641 81.9869 115.37 81.9869 112.974C81.9869 112.101 82.0573 111.247 82.1917 110.413C82.2109 110.308 82.2301 110.203 82.2493 110.098C82.4989 108.746 82.9149 107.453 83.4845 106.252C83.5613 106.081 83.6445 105.917 83.7277 105.753C85.6925 101.939 89.1613 99.0633 93.3277 97.9605C93.8845 97.8161 94.4541 97.6979 95.0301 97.6191C95.7085 97.5272 96.3933 97.4747 97.0973 97.4747C98.9661 97.4747 100.758 97.8226 102.416 98.4594V88.3237L95.5101 90.0568Z" fill="#CFBEFF"/>
<path d="M99.1203 53.2166V70.3895C99.1203 73.0153 97.0467 75.1422 94.4867 75.1422C91.9267 75.1422 89.8531 73.0153 89.8531 70.3895V53.2166C89.8531 43.4486 82.1027 35.5055 72.586 35.5055C63.0692 35.5055 55.3124 43.4486 55.3124 53.2166V68.3217H54.57C51.2292 68.3217 48.2084 69.733 46.0452 71.9978V53.2166C46.0452 38.2101 57.9492 26 72.5796 26C87.2163 26 99.1203 38.2101 99.1203 53.2166Z" fill="#CFBEFF"/>
<path d="M58.704 80.7351L56.3296 99.956L54.256 116.755L54.2112 116.84C47.248 112.928 42.5312 105.346 42.5312 96.6278V88.0742L58.704 80.7351Z" fill="#6939FF"/>
<path d="M102.422 78.6872V88.3109L76.3483 94.8951V92.9979C77.3147 91.9936 77.9099 90.6084 77.9099 89.092C77.9099 86.0067 75.4779 83.5122 72.4763 83.5122C69.4747 83.5122 67.0427 86.0067 67.0427 89.092C67.0427 90.615 67.6379 92.0001 68.6107 93.0045V96.8513L56.3291 99.9498L58.7035 80.7288L90.2107 66.4377H90.4859C97.0779 66.4443 102.422 71.9257 102.422 78.6872Z" fill="#8960FF"/>
<path d="M90.211 66.4443L82.0254 70.1599L80.6302 70.7901L78.4414 71.7813L78.1214 71.9257L74.6782 73.4881L58.6975 80.7354L55.0495 82.3896L52.2527 83.6566L46.0191 86.4859L44.6239 87.1161L42.5247 88.068V78.6807C42.5247 75.3459 43.8239 72.3196 45.9359 70.1139L47.3375 69.5559L48.5087 69.0964L50.3263 68.3743L51.9135 67.7441L55.203 66.4377H90.211V66.4443Z" fill="white"/>
<path d="M47.3442 69.5622L48.5154 69.0962L47.7922 69.943L47.3442 69.5622Z" fill="#CFBEFF"/>
<path d="M52.669 68.4395L51.6514 69.6409L50.5698 68.6496C50.4802 68.5643 50.4034 68.4789 50.333 68.387L51.9202 67.7568L52.669 68.4395Z" fill="#CFBEFF"/>
<path d="M57.6868 79.3565L57.7572 76.5797C57.7828 75.5359 56.9763 74.6694 55.9651 74.6431L54.5123 74.6038L54.4995 76.1924L56.2211 76.2383L56.1827 79.3434L57.6868 79.3565Z" fill="#CFBEFF"/>
<path d="M57.3665 71.8533L57.2513 74.5776C57.2065 75.6213 58.0001 76.501 59.0177 76.5404L60.4705 76.5994L60.5089 75.0108L58.7873 74.9386L58.8705 71.8861L57.3665 71.8533Z" fill="#CFBEFF"/>
<path d="M48.2017 79.3631L46.9217 76.9146C46.4418 75.9955 45.3218 75.6476 44.4258 76.1465L43.1458 76.8555L43.901 78.2471L45.4178 77.4069L46.8833 80.1246L48.2017 79.3631Z" fill="#CFBEFF"/>
<path d="M44.2979 73.0023L45.5139 75.4247C45.9811 76.3503 47.0882 76.7179 47.997 76.2387L49.2834 75.556L48.5538 74.1511L47.0242 74.9651L45.6227 72.2671L44.2979 73.0023Z" fill="#CFBEFF"/>
<path d="M67.7093 74.1117L66.4293 71.6631C65.9493 70.7441 64.8293 70.3961 63.9333 70.895L62.6533 71.604L63.4085 72.9957L64.9253 72.1554L66.3909 74.8732L67.7093 74.1117Z" fill="#CFBEFF"/>
<path d="M63.8052 67.7506L65.0212 70.1729C65.4884 71.0985 66.5956 71.4661 67.5044 70.9869L68.7908 70.3042L68.0612 68.8994L66.5316 69.7134L65.13 67.0154L63.8052 67.7506Z" fill="#CFBEFF"/>
<path d="M78.4484 71.7811L78.1284 71.9258L78.1924 71.7021L78.4484 71.7811Z" fill="#CFBEFF"/>
<path d="M82.0256 70.1529L80.6304 70.7831L79.6704 69.0041L78.1536 69.8444L77.3984 68.4527L78.6784 67.7503C79.216 67.4549 79.8304 67.4615 80.3424 67.7109C80.432 67.7569 80.5216 67.8094 80.6048 67.8685C80.8288 68.0326 81.0272 68.2492 81.168 68.5184L82.0256 70.1529Z" fill="#CFBEFF"/>
<path d="M81.5266 66.4441L81.277 66.5754L81.2066 66.4441H79.4658L79.7666 67.0349C79.9074 67.3172 80.1058 67.5469 80.3426 67.711C80.4258 67.7701 80.5154 67.8292 80.605 67.8686C81.1042 68.1181 81.7122 68.1246 82.2434 67.8423L83.5298 67.1596L83.1522 66.4375H81.5266V66.4441Z" fill="#CFBEFF"/>
<path d="M60.509 67.8292L58.9858 68.1181L58.7426 66.6476C58.7298 66.5754 58.7234 66.5097 58.717 66.4375H60.2786L60.509 67.8292Z" fill="#CFBEFF"/>
<path d="M55.4336 81.1553L55.056 82.3894L52.2592 83.6564L50.1472 82.9671L50.5824 81.4901L53.4304 82.3763L53.9552 80.6958L55.4336 81.1553Z" fill="#CFBEFF"/>
<path d="M42.5317 85.7766L43.5877 85.1924L44.6309 87.1224L45.0597 87.9101L46.3717 87.1552L46.0261 86.4922L45.0917 84.7066C44.9509 84.4374 44.7589 84.2208 44.5285 84.0567C44.4453 83.991 44.3493 83.9385 44.2597 83.8926C43.7477 83.6431 43.1333 83.6366 42.5957 83.932L42.5317 83.9648V85.7766Z" fill="#CFBEFF"/>
<path d="M42.4609 80.7943L43.6769 83.2166C44.1441 84.1422 45.2513 84.5098 46.1601 84.0306L47.4465 83.3479L46.7169 81.9431L45.1873 82.7571L43.7857 80.0591L42.4609 80.7943Z" fill="#CFBEFF"/>
<path d="M65.7443 108.372L67.6963 106.068C68.4323 105.201 68.3363 103.888 67.4979 103.14L66.2947 102.07L65.1939 103.409L66.6275 104.683L64.4771 107.289L65.7443 108.372Z" fill="#8960FF"/>
<path d="M70.595 101.775L68.643 104.007C67.8942 104.86 67.9646 106.173 68.7966 106.941L69.987 108.031L71.107 106.711L69.699 105.411L71.8558 102.884L70.595 101.775Z" fill="#8960FF"/>
<path d="M82.7042 100.029L84.6563 97.7244C85.3923 96.8578 85.2963 95.5449 84.4579 94.7966L83.2546 93.7266L82.1538 95.0657L83.5875 96.3392L81.437 98.9454L82.7042 100.029Z" fill="#8960FF"/>
<path d="M87.5559 93.4377L85.6039 95.6697C84.8551 96.523 84.9255 97.8359 85.7575 98.6039L86.9479 99.6936L88.0679 98.3742L86.6599 97.0744L88.8167 94.5471L87.5559 93.4377Z" fill="#8960FF"/>
<path d="M76.6182 118.718L76.695 115.665C76.7206 114.517 75.8374 113.565 74.7239 113.538L73.1303 113.499L73.1111 115.245L75.0054 115.291L74.9671 118.705L76.6182 118.718Z" fill="#8960FF"/>
<path d="M76.2661 110.466L76.1445 113.46C76.0997 114.602 76.9637 115.574 78.0837 115.619L79.6773 115.685L79.7221 113.939L77.8277 113.86L77.9173 110.506L76.2661 110.466Z" fill="#8960FF"/>
<path d="M66.1924 118.718L64.7844 116.026C64.2532 115.015 63.0308 114.634 62.0452 115.179L60.6372 115.954L61.4692 117.484L63.1396 116.564L64.7524 119.551L66.1924 118.718Z" fill="#8960FF"/>
<path d="M61.9041 111.726L63.2417 114.392C63.7537 115.409 64.9761 115.81 65.9681 115.284L67.3825 114.53L66.5761 112.987L64.8929 113.88L63.3505 110.919L61.9041 111.726Z" fill="#8960FF"/>
<path d="M90.0708 91.4291L92.0548 90.9302L91.5108 92.5057L89.8979 91.9477L90.0708 91.4291Z" fill="#8960FF"/>
<path d="M95.8177 90.1685L95.2929 91.7768L92.5281 90.8118L95.5105 90.0569L95.8177 90.1685Z" fill="#8960FF"/>
<path d="M57.8915 111.51L56.4451 112.344L55.1011 109.862L55.3507 107.84C55.4275 107.867 55.4979 107.899 55.5683 107.932C55.6707 107.978 55.7667 108.037 55.8627 108.109C56.1123 108.287 56.3235 108.53 56.4771 108.825L57.8915 111.51Z" fill="#8960FF"/>
<path d="M59.0883 107.328L57.6675 108.083C57.0851 108.392 56.4195 108.385 55.8691 108.109C55.7667 108.063 55.6707 108.004 55.5811 107.939C55.5107 107.886 55.4403 107.827 55.3699 107.768L55.7155 104.978L56.6051 106.685L58.2883 105.792L59.0883 107.328Z" fill="#8960FF"/>
<path d="M81.1425 118.934L81.5137 119.656H79.8433L81.1425 118.934Z" fill="#8960FF"/>
<path d="M82.2563 110.085C82.2371 110.19 82.2179 110.296 82.1987 110.401L82.0771 110.177L82.2563 110.085Z" fill="#8960FF"/>
<path d="M83.7346 105.74C83.6514 105.904 83.5682 106.068 83.4914 106.239L83.3506 105.956L83.7346 105.74Z" fill="#8960FF"/>
<path d="M74.5184 103.928L77.4432 103.363C78.544 103.153 79.2672 102.07 79.056 100.941L78.7616 99.3328L77.0912 99.6807L77.4432 101.591L74.1792 102.267L74.5184 103.928Z" fill="#8960FF"/>
<path d="M82.3136 101.847L79.4336 102.352C78.3328 102.543 77.5904 103.619 77.7824 104.748L78.0512 106.363L79.728 106.042L79.408 104.125L82.6272 103.514L82.3136 101.847Z" fill="#8960FF"/>
<path d="M55.6068 114.805L57.258 114.937L56.9956 118.153C56.4388 117.937 55.8884 117.694 55.3572 117.438L55.6068 114.805Z" fill="#8960FF"/>
<path d="M58.8702 118.468L58.8446 118.784C58.3774 118.646 57.9166 118.495 57.4622 118.331L58.8702 118.468Z" fill="#8960FF"/>
<path d="M63.8884 99.7527L60.9124 99.7921C59.7924 99.8052 58.8964 100.744 58.9156 101.893L58.9348 103.527L60.6372 103.481L60.6116 101.538L63.9396 101.453L63.8884 99.7527Z" fill="#8960FF"/>
<path d="M60.7653 98.8337C60.6565 99.313 60.3877 99.7331 60.0165 100.015C59.9269 100.088 59.8245 100.147 59.7221 100.206C59.4405 100.357 59.1205 100.435 58.7877 100.435L56.2725 100.422L56.3301 99.9497L60.7653 98.8337Z" fill="#8960FF"/>
<path d="M95.043 97.5537V97.6063C94.4606 97.6853 93.8974 97.8037 93.3406 97.9484V97.5734L95.043 97.5537Z" fill="#8960FF"/>
<path d="M102.423 95.5448L102.212 95.5513L102.237 97.4944L100.535 97.5404L100.516 95.8992C100.509 95.21 100.829 94.5995 101.329 94.2121C101.418 94.1399 101.521 94.0809 101.623 94.0218C101.866 93.8905 102.141 93.8117 102.429 93.7986V95.5448H102.423Z" fill="#8960FF"/>
<path d="M97.4628 94.4355L100.388 94.4487C101.508 94.4552 102.416 93.5297 102.423 92.3809L102.429 90.7463L100.727 90.766L100.72 92.7091L97.45 92.7354L97.4628 94.4355Z" fill="#8960FF"/>
<path d="M77.9107 89.0919C77.9107 90.6083 77.3155 91.9934 76.3491 92.9978V98.6105C76.3491 100.803 74.6147 102.582 72.4771 102.582C70.3395 102.582 68.6115 100.803 68.6115 98.6105V93.0044C67.6387 92 67.0435 90.6148 67.0435 89.0919C67.0435 86.0065 69.4755 83.512 72.4771 83.512C75.4787 83.512 77.9107 86.0065 77.9107 89.0919Z" fill="#6939FF"/>
<path d="M106 110.656V115.219H99.3571V122H94.9027V115.219H88.2595V110.656H94.9027V103.81H99.3571V110.656H106Z" fill="#CFBEFF"/>
</svg>
