<svg width="98" height="135" viewBox="0 0 98 135" fill="none" xmlns="http://www.w3.org/2000/svg">
<path d="M50.7198 39.1537C50.7716 39.3313 50.7938 39.5163 50.7938 39.7087C50.7938 40.8557 49.8688 41.7807 48.7218 41.7807C47.5748 41.7807 46.6498 40.8557 46.6498 39.7087C46.6498 38.5617 47.5822 37.6367 48.7218 37.6367C49.6764 37.6367 50.483 38.2731 50.7198 39.1537Z" fill="#021544"/>
<path d="M96.5036 51.7929C100.315 60.5027 96.3408 70.6481 87.631 74.4517C79.972 77.8039 71.203 75.1325 66.6076 68.5169C65.9786 67.6141 65.4236 66.6299 64.9648 65.5791C64.7502 65.0833 64.5578 64.5801 64.3876 64.0769C61.8642 56.4475 64.9944 48.0781 71.832 43.9563L73.275 47.2493L77.2192 45.5251L75.7688 42.2025C79.8684 40.9593 84.1456 41.3293 87.853 43.0165C91.59 44.7111 94.735 47.7377 96.5036 51.7929ZM91.6196 53.6355L88.5856 50.5571L78.7806 60.6507L73.7634 55.6335L70.944 58.6897L78.7806 66.5263L91.6196 53.6355Z" fill="#E6F4FF"/>
<path d="M88.5856 50.5571L91.6196 53.6355L78.7732 66.5189L70.9366 58.6897L73.7634 55.6335L78.7732 60.6507L88.5856 50.5571Z" fill="#0E81FF"/>
<path d="M91.6196 53.6355L88.7484 56.5141L87.557 57.7129L87.5126 57.7499L86.1288 59.1411L84.1234 61.1539L83.3982 61.8791L83.2502 62.0271L82.1032 63.1815L79.0026 66.2895L78.7732 66.5189L77.5226 65.2683L77.5152 65.2609L75.8946 63.6403L72.6238 60.3695L72.0762 59.8219L70.9366 58.6897L71.499 58.0829L72.1872 57.3429L73.7634 55.6335L77.4634 59.3335L78.196 60.0661L78.7732 60.6507L82.3252 56.9951L82.9986 56.2995L84.3158 54.9453L87.5052 51.6671L88.5856 50.5571L89.0888 51.0677L89.7622 51.7485L89.7992 51.7855L91.0202 53.0287L91.6196 53.6355Z" fill="#0E81FF"/>
<path d="M87.853 42.654V43.024C84.153 41.3442 79.8684 40.9742 75.7688 42.21L73.7708 37.6368L71.8838 38.4656L73.5266 25.3898C81.6814 26.9068 87.853 34.0552 87.853 42.654Z" fill="#A9D6FF"/>
<path d="M71.8838 38.4581L73.7708 37.6367L75.7688 42.2099L77.2192 45.5251L73.275 47.2567L71.832 43.9563L69.8266 39.3609L71.8838 38.4581Z" fill="#0E81FF"/>
<path d="M73.5192 25.3824L71.8764 38.4582L69.8192 39.361L71.832 43.9638L66.6076 44.9998L53.3986 25.0938H70.2854C71.3954 25.0864 72.4758 25.19 73.5192 25.3824Z" fill="#0E45FB"/>
<path d="M66.6076 44.9923L71.832 43.9563C64.9944 48.0781 61.8642 56.4475 64.3876 64.0769H59.8884L46.5462 48.9513L63.5218 45.5991L66.6076 44.9923Z" fill="#021544"/>
<path d="M49.225 50.72L49.521 51.4822L48.9734 51.7042L48.6922 51.386L48.0484 50.6608L47.5304 50.0762L48.189 49.8246L47.9078 49.055L48.596 48.7886L48.8328 49.4398C48.929 49.7062 48.892 49.9948 48.744 50.2168C48.8328 50.1206 48.9438 50.0392 49.077 49.9874L50.2758 49.5212L50.5496 50.1872L49.225 50.72Z" fill="#021544"/>
<path d="M52.0518 52.2887L52.111 53.0213L51.4228 53.0657C51.1416 53.0805 50.8826 52.9621 50.705 52.7623C50.7716 52.8733 50.816 53.0065 50.8234 53.1471L50.8826 53.8649L50.1352 53.0213L49.558 52.3701L49.8836 52.3479C50.1722 52.3257 50.4386 52.4441 50.6088 52.6439C50.5422 52.5255 50.4978 52.3923 50.4904 52.2517L50.4164 50.9863L51.1268 50.9271L51.2304 52.3405L52.0518 52.2887Z" fill="#021544"/>
<path d="M53.517 48.2558L54.109 48.8256L53.6058 49.3658L53.11 48.8848C52.9028 48.685 52.814 48.4038 52.851 48.1374C52.814 48.2706 52.74 48.389 52.6364 48.4926L51.741 49.388L51.223 48.8922L52.2072 47.8784L52.1702 47.8414L52.8658 47.7008L53.0582 47.6638L54.294 47.4196L53.517 48.2558Z" fill="#021544"/>
<path d="M53.5244 54.5014L52.629 55.3968L52.111 54.901L53.0952 53.8872L52.518 53.31L53.0286 52.7772L53.517 53.2656C53.7168 53.4654 53.7982 53.7392 53.7686 53.9982C53.8056 53.8724 53.8796 53.7614 53.9684 53.6578L54.8638 52.7328L55.3892 53.2212L54.405 54.272L54.997 54.8418L54.4938 55.382L53.998 54.901C53.7908 54.7012 53.702 54.42 53.739 54.1536C53.6946 54.272 53.628 54.3978 53.5244 54.5014Z" fill="#021544"/>
<path d="M54.812 49.314L54.7454 48.5814L55.4336 48.5296C55.7222 48.5074 55.9886 48.6258 56.1662 48.833C56.0996 48.7146 56.0552 48.5814 56.0478 48.4334L55.9738 47.1754L56.6842 47.1162L56.7878 48.5296L57.6018 48.4778L57.661 49.2104L56.9728 49.2548C56.6916 49.2696 56.4252 49.1512 56.255 48.9514C56.3216 49.0624 56.366 49.1956 56.3808 49.3362L56.477 50.6238L55.7666 50.6904L55.6334 49.2548L54.812 49.314Z" fill="#021544"/>
<path d="M55.3448 57.6907L56.5806 58.0533L56.3956 58.7415L55.0118 58.3567L54.9748 58.4899L54.4716 57.9201L54.2052 57.6167L53.369 56.6695L53.3838 56.6103L54.738 57.0173L54.9822 56.2329L55.6926 56.4401L55.4854 57.0987C55.3966 57.3725 55.1968 57.5723 54.9452 57.6611C55.071 57.6463 55.2042 57.6463 55.3448 57.6907Z" fill="#021544"/>
<path d="M57.513 51.2601L58.2234 51.2009L58.327 52.6143L59.141 52.5625L59.2002 53.2951L58.512 53.3395C58.2234 53.3543 57.9644 53.2359 57.7942 53.0361C57.8608 53.1471 57.9052 53.2803 57.92 53.4209L58.0162 54.7085L57.3058 54.7751L57.1726 53.3395L56.3586 53.4061L56.292 52.6735L56.9802 52.6217C57.2688 52.5995 57.5352 52.7179 57.7128 52.9251C57.6462 52.8067 57.6018 52.6735 57.5944 52.5329L57.513 51.2601Z" fill="#021544"/>
<path d="M58.1568 60.9912C58.2826 61.043 58.3936 61.1244 58.4824 61.228L59.326 62.2048L58.7932 62.6858L57.8386 61.6128L57.7646 61.672L57.2762 61.117C57.4908 60.9468 57.7646 60.895 58.0162 60.9468C57.8904 60.895 57.772 60.8136 57.6832 60.7026L56.8692 59.7332L57.4094 59.267L58.3344 60.34L58.9634 59.8146L59.4444 60.3696L58.919 60.8136C58.697 60.9912 58.4158 61.0504 58.1568 60.9912Z" fill="#021544"/>
<path d="M58.7488 50.2982L59.5406 49.092L58.8598 48.6332L59.2594 48.0116L59.8292 48.3964C60.0734 48.5592 60.2066 48.8182 60.214 49.092C60.2288 48.9514 60.2806 48.8182 60.362 48.6998L61.0872 47.6638L61.6792 48.0634L60.8874 49.2326L61.5608 49.6988L61.1464 50.313L60.5766 49.9208C60.3398 49.758 60.214 49.499 60.1992 49.2326C60.1844 49.3658 60.14 49.4916 60.0586 49.61L59.3408 50.6756L58.7488 50.2982Z" fill="#021544"/>
<path d="M60.6654 47.0126L59.955 47.0792L59.881 46.317L60.5988 46.1764L60.6654 47.0126Z" fill="#021544"/>
<path d="M61.0724 58.3197L59.6886 57.9349L59.4592 58.7193L58.7488 58.5195L58.9412 57.8535C59.0226 57.5723 59.2298 57.3651 59.4814 57.2763C59.3482 57.2985 59.2076 57.2985 59.067 57.2541L57.8608 56.8767L58.0606 56.1885L59.4148 56.5881L59.659 55.8037L60.3694 56.0109L60.1622 56.6695C60.0734 56.9433 59.8662 57.1431 59.622 57.2319C59.7552 57.2097 59.8884 57.2097 60.029 57.2541L61.2648 57.6167L61.0724 58.3197Z" fill="#021544"/>
<path d="M61.6052 63.3813C61.7976 63.5737 61.879 63.8253 61.8568 64.0769H61.1094L61.1834 64.0029L60.5988 63.4257L61.1094 62.8929L61.6052 63.3813Z" fill="#021544"/>
<path d="M61.028 60.414L59.8218 60.0366L60.0216 59.3484L61.3758 59.748L61.62 58.9636L62.3304 59.1708L62.1232 59.8294C62.0418 60.1032 61.8346 60.303 61.583 60.3918C61.7162 60.3696 61.8494 60.377 61.9826 60.414L63.2184 60.7766L63.026 61.4648L61.6422 61.08L61.4128 61.8644L60.7024 61.6646L60.8948 60.9986C60.9762 60.7174 61.1834 60.5176 61.435 60.4214C61.3092 60.4658 61.1686 60.4584 61.028 60.414Z" fill="#021544"/>
<path d="M62.952 62.8485L63.4774 63.3369L62.7818 64.0769H61.8716C61.9086 63.9659 61.9752 63.8623 62.064 63.7735L62.952 62.8485Z" fill="#021544"/>
<path d="M62.7596 57.5131L63.6032 57.0543C63.5736 57.3355 63.5588 57.6241 63.544 57.9127L63.1074 58.1421L62.7596 57.5131Z" fill="#021544"/>
<path d="M63.6254 56.1145L63.729 56.0553C63.7142 56.1219 63.7068 56.1885 63.6994 56.2625L63.6254 56.1145Z" fill="#021544"/>
<path d="M64.4468 52.5774L64.6244 52.644C64.4394 53.1324 64.284 53.6208 64.1434 54.124C64.0694 54.383 64.0102 54.6346 63.951 54.8936L63.9214 54.9232L62.9076 53.902L62.3156 54.4718L61.7976 53.9464L62.2934 53.4654C62.5006 53.2656 62.7818 53.1842 63.0482 53.2286C62.9224 53.1842 62.804 53.1102 62.7004 52.9992L61.842 52.0742L62.3526 51.5784L63.3294 52.5996L63.9288 52.0372L64.4468 52.5774Z" fill="#021544"/>
<path d="M64.802 48.9514L66.0378 49.314L65.8454 50.0022L64.4616 49.6174L64.2322 50.4018L63.5218 50.202L63.7142 49.5434C63.7956 49.2622 64.0028 49.055 64.2618 48.9662C64.1286 48.9884 63.9806 48.9884 63.8474 48.944L62.6412 48.5666L62.841 47.8784L64.1952 48.2854L64.4394 47.501L65.1498 47.7082L64.9426 48.3668C64.8538 48.6406 64.6466 48.8404 64.4024 48.9292C64.5282 48.907 64.6688 48.9144 64.802 48.9514Z" fill="#021544"/>
<path d="M68.2356 46.7831L68.391 46.6943C68.3466 46.7387 68.3022 46.7831 68.2578 46.8275L68.2356 46.7831Z" fill="#021544"/>
<path d="M71.832 43.9563C71.1142 44.3929 70.4334 44.8739 69.797 45.3919C69.6046 45.5473 69.4196 45.7101 69.2346 45.8803L68.7462 44.9775L69.3678 44.6223L69.3308 44.4447L71.832 43.9563Z" fill="#021544"/>
<path d="M53.406 25.0863L66.615 44.9923L63.5292 45.5991L50.7272 39.1463C50.483 38.2731 49.6838 37.6293 48.7292 37.6293V29.6521V25.0863H53.406Z" fill="#A9D6FF"/>
<path d="M66.6076 68.5169H57.55H46.5462H2.59018C1.97598 68.5169 1.42098 68.2653 1.02138 67.8657C0.62178 67.4661 0.370178 66.9111 0.370178 66.2969C0.370178 65.0685 1.36178 64.0769 2.59018 64.0769H6.78598H38.4358H59.8884H64.3876C64.5578 64.5801 64.7428 65.0833 64.9648 65.5791C65.431 66.6299 65.9786 67.6067 66.6076 68.5169Z" fill="#0E81FF"/>
<path d="M50.7198 39.1538L63.5218 45.6066L46.5462 48.9588L38.4358 50.5646V40.915C38.4358 39.7902 38.3174 38.695 38.0954 37.6368L42.861 34.0552L46.6424 39.7088C46.6424 40.8558 47.5748 41.7808 48.7144 41.7808C49.8614 41.7808 50.7864 40.8558 50.7864 39.7088C50.8012 39.5164 50.7716 39.3314 50.7198 39.1538Z" fill="#0E81FF"/>
<path d="M46.5462 48.9514L59.8958 64.077H38.4432V50.5572L46.5462 48.9514Z" fill="#0E45FB"/>
<path d="M58.0828 0.621948H48.7218V6.51235H58.0828V0.621948Z" fill="#A9D6FF"/>
<path d="M57.55 104.747V134.525L54.3532 118.038L49.743 94.2541L55.0266 88.9779L57.55 104.747Z" fill="#0E45FB"/>
<path d="M57.55 70.9146V104.747L55.0266 88.9779L52.5032 73.2012L57.55 70.9146Z" fill="#E6F4FF"/>
<path d="M57.55 68.517V70.9146L52.5032 73.2012L46.5462 75.9022V68.517H57.55Z" fill="#A9D6FF"/>
<path d="M54.3532 118.038L57.55 134.525H46.5462V118.038H54.3532Z" fill="#0E81FF"/>
<path d="M57.55 134.525H46.5462V118.038H54.3532L55.5668 124.298L56.1292 127.177L57.2466 132.956L57.55 134.503V134.525Z" fill="#0E81FF"/>
<path d="M49.743 94.2542L46.6498 97.3548H46.5462V75.9022L52.5032 73.2012L55.0266 88.978L49.743 94.2542Z" fill="#0E81FF"/>
<path d="M47.7006 94.2172L49.0474 94.269L49.0326 94.972L46.6498 97.3548H46.5462V92.6928L46.5832 91.8566L47.7672 91.8788L47.7006 94.2172Z" fill="#0E81FF"/>
<path d="M49.928 76.1538L50.9344 78.026L49.9058 78.6032L48.7588 76.5312L47.5674 77.1676L46.9754 76.1094L47.9818 75.5692C48.4036 75.3472 48.8846 75.3472 49.2842 75.5396C49.0992 75.4064 48.9512 75.2362 48.8402 75.0216L48.7736 74.8958L49.8762 74.3926L50.0168 74.659L51.2156 74.0374L51.7928 75.1104L50.779 75.6358C50.3646 75.8504 49.891 75.843 49.4988 75.658C49.669 75.7838 49.8244 75.9466 49.928 76.1538Z" fill="#0E81FF"/>
<path d="M48.8254 87.4462L49.0548 88.7782L47.8634 89.0002L47.671 87.8754C47.5896 87.4166 47.745 86.9652 48.041 86.647C47.8708 86.7802 47.6636 86.869 47.4416 86.9134L46.561 87.0762V85.8552L47.4416 85.6776L47.19 84.353L48.3814 84.1088L48.5886 85.2262C48.6774 85.6924 48.5294 86.1512 48.226 86.4768C48.4036 86.3436 48.6182 86.2474 48.855 86.203L50.9122 85.8552L51.1342 87.017L48.8254 87.4462Z" fill="#0E81FF"/>
<path d="M52.9472 91.05L51.3044 92.6927L50.7272 91.6567L51.7262 91.1166C52.1258 90.9094 52.5698 90.902 52.9472 91.05Z" fill="#0E81FF"/>
<path d="M53.7686 90.2211L53.7982 90.2063L52.9694 91.0351C52.814 90.9093 52.6882 90.7539 52.592 90.5689L51.6374 88.7189L52.6734 88.1565L53.7686 90.2211Z" fill="#0E81FF"/>
<path d="M54.2718 84.2789L54.1978 84.3677L53.3468 83.6055C52.999 83.2947 52.8362 82.8433 52.8732 82.4141C52.8214 82.6213 52.7178 82.8285 52.5624 82.9987L51.1712 84.6045L50.2684 83.8497L51.8002 82.0367L50.779 81.1487L51.5634 80.2163L52.4218 80.9637C52.7844 81.2745 52.9472 81.7333 52.9102 82.1699C52.962 81.9553 53.073 81.7407 53.2358 81.5631L53.7464 81.0007L53.9906 82.5399V82.5473L54.2718 84.2789Z" fill="#0E81FF"/>
<path d="M49.743 94.2542L54.3532 118.038H46.5462V97.3547H46.6498L49.743 94.2542Z" fill="#A9D6FF"/>
<path d="M48.7218 29.6521V37.6293C47.5748 37.6293 46.6498 38.5543 46.6498 39.7013L42.8684 34.0477L48.7218 29.6521Z" fill="#E6F4FF"/>
<path d="M48.7218 25.0863V29.6521L42.8684 34.0477L38.1028 37.6293C37.459 34.5731 35.9346 31.8425 33.8108 29.7187C30.947 26.8549 26.988 25.0863 22.622 25.0863H48.7218Z" fill="#0E45FB"/>
<path d="M38.4432 50.5571V64.0769H6.78601V40.9149C6.78601 32.1755 13.8752 25.0863 22.6146 25.0863C26.9806 25.0863 30.9396 26.8549 33.8034 29.7187C35.9272 31.8425 37.4516 34.5731 38.0954 37.6293C38.3174 38.6875 38.4358 39.7827 38.4358 40.9075V50.5571H38.4432ZM33.1744 50.3203V46.9237H12.1066V50.3203H33.1744Z" fill="#A9D6FF"/>
<path d="M36.867 55.5003L35.1428 52.2665L33.5148 53.1471L35.0096 56.0553C35.1798 56.3883 35.424 56.6621 35.7126 56.8619C35.0836 56.5659 34.3288 56.5585 33.6702 56.9137L32.094 57.7573L33.019 59.4223L34.8838 58.4159L36.6894 61.6719L38.3026 60.7617H38.4284V54.6715L36.867 55.5003ZM38.0436 37.3778C37.8956 36.734 37.7106 36.105 37.4886 35.4908L35.1354 35.513L35.1576 37.363L38.0436 37.3778ZM32.1754 46.3835L33.759 45.5621L32.8562 43.8823L30.9692 44.8591L29.245 41.6253L27.617 42.5059L29.1118 45.4141C29.282 45.7471 29.5262 46.0209 29.8148 46.2281C29.1858 45.9321 28.431 45.9247 27.7724 46.2799L26.5588 46.9311H30.6658C30.5178 46.7313 30.3402 46.5611 30.1478 46.4205C30.7768 46.7091 31.5168 46.7239 32.1754 46.3835ZM30.8064 51.0381L32.0866 50.3203H30.4068L30.8064 51.0381ZM26.877 59.8959L25.1528 56.6621L23.5248 57.5427L25.027 60.4509C25.1972 60.7839 25.4414 61.0577 25.73 61.2649C25.101 60.9689 24.3462 60.9615 23.6876 61.3167L22.1114 62.1603L23.0364 63.8253L24.9012 62.8189L25.5968 64.0695H27.7354L26.7512 62.2269C26.581 61.9087 26.3442 61.6423 26.063 61.4499C26.6772 61.7459 27.4246 61.7533 28.0758 61.4203L29.6594 60.5989L28.764 58.9265L26.877 59.8959ZM27.8908 32.0054L25.4858 34.847L26.9066 36.0383L29.0896 33.5223C29.3264 33.2485 29.4892 32.9304 29.5706 32.5974C29.5114 33.2781 29.763 33.9812 30.3106 34.4696L31.6426 35.661L32.8932 34.2253L31.3244 32.812L33.7368 30.0518L32.3382 28.8382L30.1478 31.2728C29.8962 31.554 29.726 31.8796 29.6372 32.22C29.6964 31.5244 29.43 30.814 28.8676 30.3182L27.5208 29.149L26.2924 30.6068L27.8908 32.0054ZM26.5292 25.708L26.4478 25.5526C25.6856 25.3602 24.9086 25.227 24.1094 25.153L24.916 26.6108L26.5292 25.708ZM23.5692 51.2157L21.4528 51.1269L21.475 50.3203H19.5806L19.5658 50.6903C19.551 51.0677 19.625 51.4229 19.773 51.7411C19.3734 51.1713 18.7222 50.7939 17.9748 50.7717L16.1914 50.7273L16.1692 52.6365L18.2856 52.6883L18.2412 56.4105L20.0912 56.4253L20.1726 53.0953C20.18 52.7327 20.106 52.3849 19.958 52.0741C20.3502 52.6365 20.9866 53.0139 21.7192 53.0435L23.5026 53.1175L23.5692 51.2157ZM17.3754 38.473L17.7528 40.2859L21.031 39.6718C21.3862 39.6052 21.7118 39.4571 21.9782 39.25C21.512 39.7531 21.2752 40.4561 21.401 41.1813L21.7044 42.9426L23.5766 42.5947L23.214 40.5079L26.8178 39.8419L26.47 38.0216L23.2436 38.5691C22.8736 38.6357 22.5406 38.7837 22.2594 38.9983C22.733 38.4877 22.9698 37.77 22.8292 37.03L22.4962 35.2762L20.624 35.6536L21.0162 37.7403L17.3754 38.473ZM15.3922 61.7237C16.036 61.4943 16.5614 60.9763 16.7834 60.2807L17.3236 58.5787L15.4958 58.0237L14.852 60.0439L11.3518 58.9783L10.819 60.7543L13.9344 61.7533C14.2896 61.8643 14.6596 61.8865 15 61.8273C14.3488 62.0641 13.8086 62.5895 13.594 63.3073L13.3646 64.0769H19.2328L19.6028 62.7523L16.4134 61.7903C16.0804 61.6867 15.7252 61.6645 15.3922 61.7237ZM12.6542 34.8618L14.8372 32.3458C15.074 32.072 15.2368 31.7538 15.3182 31.4208C15.259 32.1016 15.5106 32.8046 16.0582 33.293L17.3902 34.4843L18.6408 33.0488L17.072 31.6354L19.4844 28.8752L18.0858 27.6616L15.9028 30.0962C15.6512 30.3774 15.481 30.703 15.3922 31.0434C15.4514 30.3478 15.185 29.6374 14.6226 29.1416L13.372 28.0686C13.2092 28.187 13.0464 28.3128 12.8836 28.4386L12.04 29.4376L13.6384 30.8288L11.2334 33.6703L12.6542 34.8618ZM11.3444 43.5716L12.6764 44.7629L13.927 43.3273L12.3434 41.9139L14.7558 39.1538L13.3572 37.9401L11.1668 40.3748C10.9152 40.656 10.745 40.9815 10.6562 41.3219C10.7154 40.6263 10.449 39.916 9.88661 39.4276L8.53981 38.2583L7.31141 39.7161L8.90981 41.1073L6.78601 43.6159V44.1857L7.92561 45.1403L10.1086 42.6243C10.3454 42.3505 10.5082 42.0324 10.5896 41.7068C10.5452 42.3876 10.7968 43.0832 11.3444 43.5716ZM6.97841 51.1491L6.78601 50.7939V52.9103C7.24481 52.9843 7.73321 52.9177 8.17721 52.6883L9.76081 51.8669L8.85801 50.1871L6.97841 51.1491ZM6.78601 53.3839V57.2911L6.80821 57.3355L8.42141 56.4253L6.84521 53.4875C6.83041 53.4505 6.80821 53.4135 6.78601 53.3839ZM6.78601 61.5757L7.50381 61.2057L6.78601 59.8589V61.5757Z" fill="#A9D6FF"/>
<path d="M33.1744 46.9237H12.1066V50.3203H33.1744V46.9237Z" fill="#0E81FF"/>
<path d="M49.0918 0.621948H48.3518V37.9253H49.0918V0.621948Z" fill="#0E45FB"/>
<path d="M49.0918 0.621948H48.3518V37.9253H49.0918V0.621948Z" fill="#0E45FB"/>
<path d="M50.6902 118.038L51.1046 118.4C51.4006 118.652 51.5338 119.022 51.5042 119.377C51.4968 119.444 51.4894 119.503 51.4746 119.57C51.4302 119.74 51.3488 119.903 51.223 120.043L50.0982 121.338L49.3656 120.724L50.6088 119.259L49.78 118.541L50.2092 118.03H50.6902V118.038Z" fill="#A9D6FF"/>
<path d="M53.369 118.038L53.6206 118.26L52.3774 119.681L53.1914 120.413L52.5476 121.153L51.8594 120.539C51.5782 120.287 51.445 119.925 51.4746 119.57C51.482 119.503 51.4894 119.436 51.5116 119.377C51.556 119.2 51.6448 119.029 51.7706 118.889L52.5328 118.038H53.369V118.038Z" fill="#A9D6FF"/>
<path d="M55.5668 124.298L56.1218 127.169L55.4188 127.162L55.441 125.238L54.3458 125.208L54.3532 124.224L55.2782 124.246C55.3818 124.261 55.478 124.276 55.5668 124.298Z" fill="#A9D6FF"/>
<path d="M50.3572 127.177L49.5432 125.66C49.2398 125.09 48.5294 124.875 47.9596 125.186L47.1456 125.623L47.6266 126.481L48.5886 125.963L49.521 127.643L50.3572 127.177Z" fill="#A9D6FF"/>
<path d="M47.8782 123.24L48.6478 124.742C48.9438 125.319 49.6468 125.541 50.224 125.245L51.0454 124.824L50.5792 123.958L49.6098 124.461L48.7218 122.789L47.8782 123.24Z" fill="#A9D6FF"/>
<path d="M56.1292 130.44L54.479 129.944C53.8574 129.759 53.2062 130.107 53.0212 130.729L52.7548 131.609L53.702 131.876L54.0202 130.825L55.8702 131.358L56.1292 130.44Z" fill="#A9D6FF"/>
<path d="M51.593 129.412L53.1988 129.93C53.813 130.129 54.4716 129.789 54.6714 129.175L54.9526 128.294L54.0128 128.006L53.6798 129.049L51.8742 128.501L51.593 129.412Z" fill="#A9D6FF"/>
<path d="M46.5462 130.137L46.7904 130.004C47.1308 129.819 47.523 129.826 47.8486 129.981C47.9078 130.011 47.9596 130.041 48.0114 130.078C48.1594 130.174 48.2852 130.314 48.374 130.485L49.188 132.002L48.3518 132.468L47.4194 130.788L46.5462 131.262V130.137Z" fill="#A9D6FF"/>
<path d="M46.7164 128.065L47.486 129.567C47.782 130.144 48.485 130.366 49.0622 130.07L49.8837 129.648L49.4174 128.783L48.448 129.286L47.56 127.613L46.7164 128.065Z" fill="#A9D6FF"/>
<path d="M57.55 134.503C57.5426 134.51 57.5426 134.518 57.5352 134.525H54.8712L54.8638 134.066L56.7508 134.051L56.7582 132.956L57.2466 132.949L57.55 134.503Z" fill="#A9D6FF"/>
<path d="M47.005 134.525H46.5462V133.681L46.9754 133.674L47.005 134.525Z" fill="#A9D6FF"/>
<path d="M47.1456 118.593L46.5462 118.608V118.038H47.1382L47.1456 118.593Z" fill="#A9D6FF"/>
<path d="M50.668 134.525H49.558L49.0178 133.977L49.706 133.274L50.3572 133.926C50.52 134.103 50.6236 134.31 50.668 134.525Z" fill="#A9D6FF"/>
<path d="M52.8732 133.977L52.3182 134.525H50.927C50.9492 134.503 50.964 134.488 50.9862 134.466L52.2072 133.297L52.8732 133.977Z" fill="#A9D6FF"/>
<path d="M52.9176 82.17C52.9176 82.1774 52.9176 82.1774 52.9176 82.17C52.9102 82.2514 52.8954 82.3328 52.8806 82.4068C52.8288 82.614 52.7252 82.8212 52.5698 82.9914L51.1786 84.5972L50.2758 83.8424L51.8076 82.0294L50.7864 81.1414L51.5708 80.209L52.4292 80.9564C52.7844 81.2746 52.9546 81.7334 52.9176 82.17Z" fill="#A9D6FF"/>
<path d="M54.2718 84.279L54.1978 84.3678L53.3468 83.6056C52.999 83.2948 52.8362 82.8434 52.8732 82.4142C52.8806 82.3328 52.8954 82.2588 52.9102 82.1774C52.962 81.9628 53.073 81.7482 53.2358 81.5706L53.7464 81.0082L53.9906 82.5474L53.9832 82.5548L53.9906 82.5622L54.2718 84.279Z" fill="#A9D6FF"/>
<path d="M46.894 95.4677L46.8496 97.1549L46.6498 97.3547H46.5536V94.5057C46.5832 94.5427 46.6128 94.5723 46.635 94.6093C46.6868 94.6759 46.7238 94.7499 46.7608 94.8239C46.8496 95.0163 46.894 95.2383 46.894 95.4677Z" fill="#A9D6FF"/>
<path d="M49.0474 94.269L49.0252 94.972L48.5294 95.4678L47.8708 95.4382C47.4046 95.416 46.9976 95.1792 46.746 94.824C46.6942 94.7574 46.6572 94.6834 46.6202 94.6094C46.5906 94.5354 46.561 94.4688 46.5388 94.3874C46.5018 94.2468 46.4796 94.0914 46.487 93.936L46.5388 92.6928L46.5758 91.8566L47.7524 91.8862L47.6858 94.2172L49.0474 94.269Z" fill="#A9D6FF"/>
<path d="M50.9344 78.0259L49.9058 78.6031L48.7588 76.5311L47.5674 77.1675L46.9754 76.1093L47.9818 75.5691C48.4036 75.3471 48.8846 75.3471 49.2842 75.5395C49.3582 75.5765 49.4322 75.6209 49.5062 75.6653C49.6838 75.7911 49.8318 75.9539 49.9428 76.1611L50.9344 78.0259Z" fill="#A9D6FF"/>
<path d="M51.7854 75.1103L50.7716 75.6357C50.3572 75.8503 49.8836 75.8429 49.4914 75.6579C49.4174 75.6209 49.3434 75.5765 49.2694 75.5321C49.0844 75.3989 48.9364 75.2287 48.8254 75.0141L48.7588 74.8883L49.8614 74.3851L50.002 74.6515L51.2008 74.0299L51.7854 75.1103Z" fill="#A9D6FF"/>
<path d="M52.9472 91.05L51.3044 92.6927L50.7272 91.6568L51.7262 91.1166C52.1258 90.9094 52.5698 90.902 52.9472 91.05Z" fill="#A9D6FF"/>
<path d="M53.2506 91.2201C53.1766 91.1831 53.1026 91.1387 53.0286 91.0869C53.11 91.1239 53.184 91.1683 53.2506 91.2201Z" fill="#A9D6FF"/>
<path d="M53.036 91.0869C53.11 91.1239 53.184 91.1683 53.258 91.2201C53.1766 91.1831 53.1026 91.1387 53.036 91.0869Z" fill="#A9D6FF"/>
<path d="M53.7982 90.2063L52.9694 91.0351C52.814 90.9093 52.6882 90.7539 52.592 90.5689L51.6374 88.7189L52.6734 88.1565L53.7686 90.2137L53.7982 90.2063Z" fill="#A9D6FF"/>
<path d="M48.2186 86.4841C48.1594 86.5433 48.1002 86.6025 48.0336 86.6543C47.8634 86.7875 47.6562 86.8763 47.4342 86.9207L46.5536 87.0835V85.8625L47.4342 85.6849L47.1826 84.3603L48.374 84.1161L48.5812 85.2335C48.67 85.7071 48.522 86.1585 48.2186 86.4841Z" fill="#A9D6FF"/>
<path d="M48.8254 87.4462L49.0548 88.7782L47.8634 89.0002L47.671 87.8754C47.5896 87.4165 47.745 86.9652 48.041 86.6469C48.1002 86.5877 48.1594 86.5286 48.226 86.4842C48.4036 86.351 48.6182 86.2547 48.855 86.2103L50.9122 85.8625L51.1342 87.0243L48.8254 87.4462Z" fill="#A9D6FF"/>
<path d="M77.419 59.859L76.901 61.4426L76.013 61.1688L76.568 59.3928L75.5616 59.0672L75.8428 58.157L76.4866 58.3642L77.456 59.3336C77.4338 59.2744 77.4264 59.2152 77.4116 59.156C77.4338 59.2152 77.4486 59.2744 77.456 59.341C77.493 59.5112 77.4782 59.6888 77.419 59.859Z" fill="#0E45FB"/>
<path d="M77.4189 59.1559C77.4411 59.2151 77.4559 59.2743 77.4633 59.3409C77.4411 59.2743 77.4337 59.2151 77.4189 59.1559Z" fill="#0E45FB"/>
<path d="M78.196 60.0661L78.1738 60.0587C77.826 59.9403 77.5744 59.6665 77.4708 59.3409L78.196 60.0661Z" fill="#0E45FB"/>
<path d="M83.2502 62.0271L82.1032 63.1741L81.7924 62.4119L82.6212 62.0863C82.8284 62.0049 83.043 61.9901 83.2502 62.0271Z" fill="#0E45FB"/>
<path d="M83.7978 62.3009C83.746 62.2639 83.6942 62.2269 83.6424 62.1825C83.6942 62.2195 83.746 62.2565 83.7978 62.3009Z" fill="#0E45FB"/>
<path d="M83.6424 62.1899C83.6942 62.2195 83.746 62.2639 83.7978 62.3083C83.7386 62.2639 83.6868 62.2269 83.6424 62.1899Z" fill="#0E45FB"/>
<path d="M84.1234 61.1539L83.3982 61.8791C83.376 61.8347 83.3538 61.7903 83.339 61.7385L82.7692 60.2067L83.6276 59.8663L84.1234 61.1539Z" fill="#0E45FB"/>
<path d="M79.0025 66.2895L78.7731 66.5189L77.5225 65.2683C77.4707 65.2609 77.4189 65.2535 77.3597 65.2461C77.4115 65.2461 77.4633 65.2535 77.5151 65.2609C77.5299 65.2609 77.5447 65.2683 77.5595 65.2683C77.7223 65.3053 77.8851 65.3793 78.0257 65.4903L79.0025 66.2895Z" fill="#0E45FB"/>
<path d="M79.0544 64.1805L78.4846 64.8687C78.2478 65.1499 77.9074 65.2905 77.567 65.2757C77.5522 65.2757 77.5448 65.2757 77.53 65.2757C77.4782 65.2683 77.4264 65.2609 77.3672 65.2535C77.419 65.2535 77.4708 65.2609 77.5226 65.2683L75.8946 63.6403L76.2128 63.2407L77.6336 64.3951L78.3144 63.5811L79.0544 64.1805Z" fill="#0E45FB"/>
<path d="M87.5126 57.7499L86.1288 59.1411L85.6996 58.8081L86.262 58.1125C86.4988 57.8239 86.8466 57.6759 87.187 57.6907C87.2536 57.6907 87.3202 57.7055 87.3868 57.7203C87.4312 57.7277 87.4756 57.7351 87.5126 57.7499Z" fill="#0E45FB"/>
<path d="M85.4628 56.4031L86.7208 57.4539C87.2018 57.8535 87.9122 57.7869 88.3118 57.3133L88.8816 56.6251L88.1416 56.0257L87.4608 56.8397L86.04 55.6853L85.4628 56.4031Z" fill="#0E45FB"/>
<path d="M83.043 56.344L83.6128 57.2394L82.8136 57.7648L82.34 57.01C82.34 57.0026 82.3326 57.0026 82.3326 56.9952L83.006 56.307L84.3232 54.9528L84.5822 55.345L83.043 56.344Z" fill="#0E45FB"/>
<path d="M74.1185 57.5132L72.5941 58.1792C72.0243 58.4308 71.7579 59.0968 72.0095 59.6666L72.3647 60.488L73.2305 60.0958L72.8087 59.1264L74.5033 58.3568L74.1185 57.5132Z" fill="#0E45FB"/>
<path d="M72.1798 58.4899C72.1502 58.5491 72.1132 58.6009 72.0688 58.6527C71.9578 58.7859 71.8098 58.8969 71.6396 58.9709L71.351 59.0893L70.9514 58.6897L71.5138 58.0829L72.202 57.3429L72.2612 57.4909C72.387 57.8239 72.35 58.1939 72.1798 58.4899Z" fill="#0E45FB"/>
<path d="M91.0423 53.0731L90.1766 53.4653L89.8214 52.6439C89.6956 52.3553 89.703 52.0519 89.8066 51.7781L91.0275 53.0139L91.0423 53.0731Z" fill="#0E45FB"/>
<path d="M89.0888 51.0677L89.7622 51.7485C89.6734 51.8299 89.5624 51.8965 89.444 51.9483L87.9344 52.5773L87.5644 51.7263L89.0888 51.0677Z" fill="#0E45FB"/>
<path d="M58.0162 54.7011L57.3058 54.7677L57.1726 53.3321L56.3586 53.3988L56.292 52.6662L56.9802 52.6143C57.2688 52.5921 57.5352 52.7106 57.7128 52.9178C57.7424 52.9548 57.772 52.9917 57.8016 53.0361C57.8682 53.1471 57.9126 53.2804 57.9274 53.421L58.0162 54.7011Z" fill="#E6F4FF"/>
<path d="M59.2076 53.2951L58.5194 53.3395C58.2308 53.3543 57.9718 53.2359 57.8016 53.0361C57.772 52.9991 57.7424 52.9621 57.7128 52.9177C57.6462 52.7993 57.6018 52.6661 57.5944 52.5255L57.5204 51.2601L58.2308 51.2009L58.3344 52.6143L59.1484 52.5625L59.2076 53.2951Z" fill="#E6F4FF"/>
<path d="M56.477 50.6163L55.7666 50.6829L55.6334 49.2473L54.8194 49.3139L54.7528 48.5813L55.441 48.5295C55.7296 48.5073 55.996 48.6257 56.1736 48.8329C56.2032 48.8699 56.2328 48.9069 56.2624 48.9513C56.329 49.0623 56.3734 49.1955 56.3882 49.3361L56.477 50.6163Z" fill="#E6F4FF"/>
<path d="M57.661 49.203L56.9728 49.2474C56.6916 49.2622 56.4252 49.1438 56.255 48.944C56.2254 48.907 56.1958 48.87 56.1662 48.8256C56.0996 48.7072 56.0552 48.574 56.0478 48.426L55.9738 47.168L56.6842 47.1088L56.7878 48.5222L57.6018 48.4704L57.661 49.203Z" fill="#E6F4FF"/>
<path d="M60.6654 47.0126L59.955 47.0792L59.881 46.317L60.5988 46.1764L60.6654 47.0126Z" fill="#E6F4FF"/>
<path d="M50.8826 53.865L50.1352 53.0214L49.558 52.3702L49.8836 52.348C50.1722 52.3258 50.4386 52.4442 50.6088 52.644C50.6458 52.681 50.668 52.7254 50.6976 52.7624C50.7642 52.8734 50.8086 53.0066 50.816 53.1472L50.8826 53.865Z" fill="#E6F4FF"/>
<path d="M52.111 53.0288L51.4228 53.0732C51.1416 53.088 50.8826 52.9696 50.705 52.7698C50.668 52.7328 50.6458 52.6884 50.6162 52.6514C50.5496 52.533 50.5052 52.3998 50.4978 52.2592L50.4238 50.9938L51.1342 50.9346L51.2378 52.348L52.0518 52.2962L52.111 53.0288Z" fill="#E6F4FF"/>
<path d="M64.1434 54.124L63.951 54.8936L63.9214 54.9232L62.9076 53.902L62.3156 54.4718L61.7976 53.9464L62.2934 53.4654C62.5006 53.2656 62.7818 53.1842 63.0482 53.2286C63.1 53.236 63.1518 53.2508 63.1962 53.2656C63.322 53.31 63.433 53.384 63.5292 53.4802L64.1434 54.124Z" fill="#E6F4FF"/>
<path d="M64.4468 52.5774L63.9436 53.051C63.7364 53.2434 63.4626 53.3174 63.2036 53.273C63.1518 53.2656 63.1 53.2508 63.0556 53.236C62.9298 53.1916 62.8114 53.1176 62.7078 53.0066L61.8494 52.0816L62.36 51.5858L63.3368 52.607L63.9362 52.0446L64.4468 52.5774Z" fill="#E6F4FF"/>
<path d="M61.2648 57.6242L61.0798 58.3124L59.696 57.9276L59.4666 58.712L58.7562 58.5122L58.9486 57.8462C59.03 57.565 59.2372 57.3578 59.4888 57.269C59.5332 57.2542 59.5776 57.2394 59.622 57.232C59.7552 57.2098 59.8884 57.2098 60.029 57.2542L61.2648 57.6242Z" fill="#E6F4FF"/>
<path d="M60.3694 56.0183L60.1622 56.6769C60.0734 56.9507 59.8662 57.1505 59.622 57.2393C59.5776 57.2541 59.5332 57.2689 59.4888 57.2763C59.3556 57.2985 59.215 57.2985 59.0744 57.2541L57.8682 56.8767L58.068 56.1885L59.4222 56.5881L59.6664 55.8037L60.3694 56.0183Z" fill="#E6F4FF"/>
<path d="M56.5806 58.0533L56.3956 58.7415L55.0118 58.3567L54.9748 58.4899L54.4716 57.9201C54.5678 57.8239 54.6788 57.7499 54.8046 57.7055C54.849 57.6907 54.8934 57.6759 54.9378 57.6685C55.071 57.6463 55.2042 57.6463 55.3448 57.6907L56.5806 58.0533Z" fill="#E6F4FF"/>
<path d="M55.6852 56.4476L55.478 57.1061C55.3892 57.3799 55.1894 57.5797 54.9378 57.6685C54.8934 57.6833 54.849 57.6981 54.8046 57.7055C54.6714 57.7277 54.5308 57.7203 54.3902 57.6833L54.2052 57.6241L53.369 56.677L53.3838 56.6178L54.738 57.0247L54.9822 56.2404L55.6852 56.4476Z" fill="#E6F4FF"/>
<path d="M66.0378 49.3139L65.8454 50.0021L64.4616 49.6173L64.2322 50.4017L63.5218 50.2019L63.7142 49.5433C63.7956 49.2621 64.0028 49.0549 64.2618 48.9661C64.3062 48.9513 64.3506 48.9365 64.395 48.9291C64.5282 48.9069 64.6614 48.9069 64.802 48.9513L66.0378 49.3139Z" fill="#E6F4FF"/>
<path d="M65.1424 47.7082L64.9352 48.3668C64.8464 48.6406 64.6392 48.8404 64.395 48.9292C64.3506 48.944 64.3062 48.9588 64.2618 48.9662C64.1286 48.9884 63.9806 48.9884 63.8474 48.944L62.6412 48.5666L62.841 47.8784L64.1952 48.2854L64.4394 47.501L65.1424 47.7082Z" fill="#E6F4FF"/>
<path d="M68.3984 46.687C68.354 46.7314 68.3096 46.7758 68.2652 46.8202L68.2356 46.7758L68.3984 46.687Z" fill="#E6F4FF"/>
<path d="M69.797 45.3994C69.6046 45.5548 69.4196 45.7176 69.2346 45.8878L68.7462 44.985L69.3678 44.6298L69.797 45.3994Z" fill="#E6F4FF"/>
<path d="M60.2214 49.0993C60.2214 49.1437 60.2214 49.1956 60.214 49.24C60.1992 49.3732 60.1548 49.4989 60.0734 49.6173L59.3556 50.6829L58.7562 50.2908L59.548 49.0846L58.8672 48.6258L59.2668 48.0042L59.8366 48.389C60.0734 48.5666 60.2066 48.8255 60.2214 49.0993Z" fill="#E6F4FF"/>
<path d="M60.8948 49.2399L61.5682 49.7061L61.1538 50.3203L60.584 49.9281C60.3472 49.7653 60.2214 49.5063 60.2066 49.2399C60.2066 49.1955 60.2066 49.1437 60.214 49.0993C60.2288 48.9587 60.2806 48.8255 60.362 48.7071L61.0872 47.6711L61.6792 48.0707L60.8948 49.2399Z" fill="#E6F4FF"/>
<path d="M63.6032 57.0543C63.5736 57.3355 63.5588 57.6241 63.544 57.9127L63.1074 58.1421L62.7596 57.5131L63.6032 57.0543Z" fill="#E6F4FF"/>
<path d="M63.729 56.0553C63.7142 56.1219 63.7068 56.1885 63.6994 56.2625L63.6254 56.1145L63.729 56.0553Z" fill="#E6F4FF"/>
<path d="M63.2258 60.784L63.0334 61.4722L61.6496 61.0874L61.4202 61.8718L60.7098 61.672L60.9022 61.006C60.9836 60.7248 61.1908 60.525 61.4424 60.4288C61.4868 60.414 61.5386 60.3992 61.583 60.3918C61.7162 60.3696 61.8494 60.377 61.9826 60.414L63.2258 60.784Z" fill="#E6F4FF"/>
<path d="M62.3304 59.1782L62.1232 59.8368C62.0418 60.1106 61.8346 60.3104 61.583 60.3992C61.5386 60.414 61.4868 60.4288 61.4424 60.4362C61.3092 60.4584 61.1686 60.451 61.028 60.414L59.8218 60.0366L60.0216 59.3484L61.3758 59.748L61.62 58.9636L62.3304 59.1782Z" fill="#E6F4FF"/>
<path d="M59.326 62.2048L58.7932 62.6858L57.8386 61.6128L57.7646 61.672L57.2762 61.117C57.4908 60.9468 57.7646 60.895 58.0162 60.9468C58.0606 60.9616 58.1124 60.9764 58.1568 60.9912C58.2826 61.043 58.3936 61.1244 58.4824 61.228L59.326 62.2048Z" fill="#E6F4FF"/>
<path d="M59.4444 60.3696L58.919 60.8136C58.7044 60.9986 58.4158 61.0578 58.1568 60.9912C58.1124 60.9838 58.0606 60.969 58.0162 60.9468C57.8904 60.895 57.772 60.8136 57.6832 60.7026L56.8692 59.7332L57.4094 59.267L58.3344 60.34L58.9634 59.8146L59.4444 60.3696Z" fill="#E6F4FF"/>
<path d="M61.8198 64.262C61.8272 64.2102 61.8346 64.1658 61.8494 64.114C61.8494 64.1658 61.8346 64.2176 61.8198 64.262Z" fill="#E6F4FF"/>
<path d="M63.4774 63.3369L62.7818 64.0769H61.8716C61.9086 63.9659 61.9752 63.8623 62.064 63.7735L62.9594 62.8485L63.4774 63.3369Z" fill="#E6F4FF"/>
<path d="M61.8568 64.114C61.8494 64.1658 61.842 64.2102 61.8272 64.262C61.8272 64.2176 61.842 64.1658 61.8568 64.114Z" fill="#E6F4FF"/>
<path d="M61.8568 64.0769H61.1094L61.1834 64.0029L60.5988 63.4257L61.1094 62.8929L61.5978 63.3813C61.7976 63.5737 61.879 63.8253 61.8568 64.0769Z" fill="#E6F4FF"/>
<path d="M54.4124 54.2645L55.0044 54.8343L54.5012 55.3745L54.0054 54.8935C53.7982 54.6937 53.7094 54.4125 53.7464 54.1461C53.7538 54.0943 53.7612 54.0425 53.7834 53.9907C53.8204 53.8649 53.8944 53.7539 53.9832 53.6503L54.8786 52.7253L55.404 53.2137L54.4124 54.2645Z" fill="#E6F4FF"/>
<path d="M53.776 53.9907C53.7686 54.0425 53.7612 54.0943 53.739 54.1461C53.702 54.2793 53.628 54.3977 53.5244 54.5013L52.629 55.3967L52.111 54.9009L53.0952 53.8871L52.518 53.3099L53.0286 52.7771L53.517 53.2655C53.7242 53.4579 53.8056 53.7317 53.776 53.9907Z" fill="#E6F4FF"/>
<path d="M49.225 50.72L49.521 51.4822L48.9734 51.7042L48.6922 51.386L48.5886 51.1122C48.485 50.8384 48.522 50.5498 48.67 50.3204C48.6922 50.2834 48.7218 50.2464 48.7514 50.2094C48.8402 50.1132 48.9512 50.0318 49.0844 49.98L50.2832 49.5138L50.557 50.1798L49.225 50.72Z" fill="#E6F4FF"/>
<path d="M48.7588 50.2093C48.7514 50.2167 48.7514 50.2167 48.7588 50.2093C48.7366 50.2537 48.707 50.2833 48.67 50.3203C48.5812 50.4239 48.4628 50.5053 48.3222 50.5571L48.0484 50.6533L47.5304 50.0687L48.189 49.8171L47.9078 49.0475L48.596 48.7811L48.8328 49.4323C48.9438 49.7061 48.8994 49.9873 48.7588 50.2093Z" fill="#E6F4FF"/>
<path d="M53.517 48.2558L54.109 48.8256L53.6058 49.3658L53.11 48.8848C52.9028 48.685 52.814 48.4038 52.851 48.1374C52.8584 48.0856 52.8658 48.0412 52.8806 47.9894C52.9176 47.871 52.9768 47.76 53.0656 47.6712L54.3014 47.427L53.517 48.2558Z" fill="#E6F4FF"/>
<path d="M52.8806 47.9894C52.8732 48.0412 52.8658 48.0856 52.851 48.1374C52.814 48.2706 52.74 48.389 52.6364 48.4926L51.741 49.388L51.223 48.8922L52.2072 47.8784L52.1702 47.8414L52.8658 47.7008C52.888 47.797 52.8954 47.8932 52.8806 47.9894Z" fill="#E6F4FF"/>
<path d="M10.6636 41.322C10.6562 41.4552 10.634 41.581 10.597 41.7068C10.5156 42.0398 10.3528 42.3506 10.116 42.6244L7.93301 45.1404L6.78601 44.1858V43.616L8.90982 41.1074L7.31141 39.7162L8.53981 38.2584L9.88662 39.4276C10.4564 39.916 10.7154 40.6264 10.6636 41.322Z" fill="#0E81FF"/>
<path d="M12.3434 41.914L13.9196 43.3274L12.669 44.763L11.337 43.5716C10.7894 43.0832 10.5378 42.3802 10.5896 41.6994C10.597 41.5736 10.6192 41.4478 10.6562 41.322C10.745 40.9816 10.9152 40.656 11.1668 40.3748L13.3572 37.9402L14.7558 39.1538L12.3434 41.914Z" fill="#0E81FF"/>
<path d="M15.3848 31.0435C15.3774 31.1693 15.3552 31.2951 15.3256 31.4209C15.2442 31.7539 15.0814 32.0721 14.8446 32.3459L12.6616 34.8619L11.2408 33.6705L13.6458 30.8289L12.04 29.4377L12.8836 28.4387L13.2684 27.9799L13.372 28.0687L14.6152 29.1491C15.185 29.6375 15.444 30.3553 15.3848 31.0435Z" fill="#0E81FF"/>
<path d="M17.072 31.6354L18.6482 33.0488L17.3976 34.4844L16.0656 33.293C15.518 32.8046 15.2664 32.1016 15.3256 31.4208C15.333 31.295 15.3552 31.1692 15.3848 31.0434C15.4736 30.703 15.6438 30.3774 15.8954 30.0962L18.0784 27.6616L19.477 28.8752L17.072 31.6354Z" fill="#0E81FF"/>
<path d="M29.6372 32.2274C29.6298 32.3532 29.6076 32.479 29.578 32.5974C29.4966 32.9304 29.3338 33.2486 29.097 33.5224L26.914 36.0384L25.4932 34.847L27.8982 32.0054L26.2998 30.6142L27.5282 29.1564L28.875 30.3256C29.4374 30.8214 29.6964 31.5318 29.6372 32.2274Z" fill="#0E81FF"/>
<path d="M31.3244 32.812L32.9006 34.2254L31.65 35.661L30.318 34.4696C29.7704 33.9738 29.5189 33.2782 29.5781 32.5974C29.5854 32.4716 29.6076 32.3458 29.6372 32.2274C29.726 31.887 29.8962 31.5614 30.1478 31.2802L32.3382 28.8456L33.7368 30.0592L31.3244 32.812Z" fill="#0E81FF"/>
<path d="M20.18 53.0954L20.0986 56.4254L18.2486 56.4106L18.293 52.6884L16.1766 52.6366L16.1988 50.7274L17.9822 50.7718C18.7296 50.794 19.3808 51.1714 19.7804 51.7412C19.8544 51.8448 19.921 51.9632 19.9728 52.0742C20.1134 52.385 20.1874 52.7328 20.18 53.0954Z" fill="#0E81FF"/>
<path d="M23.5692 51.2158L23.5174 53.125L21.734 53.051C21.0014 53.0214 20.3576 52.644 19.9728 52.0816C19.8988 51.978 19.8322 51.867 19.7804 51.7486C19.6324 51.4304 19.5584 51.0752 19.5732 50.6978L19.588 50.3278L19.7138 47.427L21.5638 47.4714L21.4824 50.3278L21.4602 51.1344L23.5692 51.2158Z" fill="#0E81FF"/>
<path d="M5.83142 52.5182C5.94982 52.57 6.06082 52.6366 6.16442 52.7106C6.04602 52.6588 5.93502 52.5922 5.83142 52.5182Z" fill="#0E81FF"/>
<path d="M8.4288 56.4254L6.8156 57.3356L6.7934 57.2912V53.384C6.8156 53.421 6.8378 53.458 6.86 53.495L8.4288 56.4254Z" fill="#0E81FF"/>
<path d="M6.16442 52.7106C6.04602 52.6588 5.93502 52.5922 5.83142 52.5182C5.94982 52.57 6.06082 52.6366 6.16442 52.7106Z" fill="#0E81FF"/>
<path d="M9.76081 51.8597L8.17721 52.681C7.73321 52.9104 7.24481 52.977 6.78601 52.903V50.7941L6.97841 51.1567L8.86541 50.1873L9.76081 51.8597Z" fill="#0E81FF"/>
<path d="M26.5292 25.708L24.916 26.6182L24.1021 25.1604C24.9012 25.2344 25.6856 25.3676 26.4404 25.56L26.5292 25.708Z" fill="#0E81FF"/>
<path d="M27.7354 64.077H25.5968L24.9012 62.8264L23.0364 63.8328L22.1114 62.1678L23.6876 61.3242C24.3462 60.969 25.101 60.9764 25.73 61.2724C25.8484 61.3242 25.9594 61.3908 26.063 61.4648C26.3442 61.6572 26.581 61.9236 26.7512 62.2418L27.7354 64.077Z" fill="#0E81FF"/>
<path d="M29.6594 60.6064L28.0758 61.4278C27.4246 61.7682 26.6772 61.7534 26.063 61.4574C25.9446 61.4056 25.8336 61.339 25.73 61.265C25.4414 61.0578 25.1972 60.7914 25.027 60.451L23.5248 57.5428L25.1528 56.6622L26.877 59.896L28.764 58.9266L29.6594 60.6064Z" fill="#0E81FF"/>
<path d="M32.427 50.128L32.0866 50.3204L30.8064 51.0382L30.4068 50.3204L29.0008 47.7822L27.136 48.7812L26.211 47.1162L26.5736 46.9238L27.7872 46.2726C28.4458 45.9174 29.2006 45.9248 29.8296 46.2208C29.948 46.2726 30.059 46.3392 30.1626 46.4132C30.355 46.5464 30.5326 46.7166 30.6806 46.9238C30.7398 47.0052 30.799 47.1014 30.8508 47.1976L32.427 50.128Z" fill="#0E81FF"/>
<path d="M33.759 45.5622L32.1754 46.3836C31.5242 46.724 30.7768 46.7092 30.1626 46.4132C30.0442 46.3614 29.9332 46.2948 29.8296 46.2208C29.541 46.021 29.2968 45.7472 29.1266 45.4068L27.6318 42.4986L29.2598 41.618L30.984 44.8518L32.871 43.875L33.759 45.5622Z" fill="#0E81FF"/>
<path d="M38.3174 60.7766L36.7042 61.6868L34.8986 58.4308L33.0338 59.4372L32.1088 57.7722L33.685 56.9286C34.3436 56.5734 35.0984 56.5808 35.7274 56.8768C35.8458 56.936 35.9568 56.9952 36.0678 57.0766C36.349 57.269 36.5858 57.5354 36.756 57.8536L38.3174 60.7766Z" fill="#0E81FF"/>
<path d="M38.4432 54.6864V56.8324L38.0658 57.0248C37.4146 57.3652 36.6746 57.3504 36.053 57.0618C35.9346 57.0026 35.8236 56.936 35.7126 56.862C35.424 56.6622 35.1798 56.3884 35.0096 56.0554L33.5148 53.1472L35.1428 52.2666L36.867 55.5004L38.4432 54.6864Z" fill="#0E81FF"/>
<path d="M22.2594 38.9984C22.1706 39.0946 22.0744 39.176 21.9708 39.2574C21.697 39.4646 21.3788 39.6126 21.0236 39.6792L17.7454 40.2934L17.368 38.4804L21.0162 37.7478L20.624 35.661L22.4962 35.2836L22.8292 37.0374C22.9698 37.77 22.733 38.4878 22.2594 38.9984Z" fill="#0E81FF"/>
<path d="M23.214 40.508L23.5692 42.5948L21.697 42.9426L21.3936 41.1814C21.2678 40.4562 21.5046 39.7532 21.9708 39.25C22.0596 39.1538 22.1558 39.0724 22.2594 38.991C22.5406 38.7764 22.8736 38.6284 23.2436 38.5618L26.47 38.0142L26.8178 39.8346L23.214 40.508Z" fill="#0E81FF"/>
<path d="M19.2402 64.077L19.6102 62.7524L16.4208 61.7904C16.073 61.6868 15.7252 61.672 15.3922 61.7238C15.259 61.746 15.1332 61.783 15.0074 61.8274C14.3562 62.0642 13.816 62.5896 13.6014 63.3074L13.372 64.077H15.3626L15.5328 63.5072L17.516 64.077H19.2402Z" fill="#0E81FF"/>
<path d="M17.331 58.5788L16.7908 60.2808C16.5688 60.9838 16.036 61.4944 15.3996 61.7238C15.2738 61.7682 15.148 61.8052 15.0148 61.8274C14.667 61.8866 14.3044 61.8644 13.9492 61.7534L10.8338 60.7544L11.3666 58.9784L14.8668 60.044L15.5106 58.0238L17.331 58.5788Z" fill="#0E81FF"/>
<path d="M7.51121 61.2058L6.78601 61.5758V59.859L7.51121 61.2058Z" fill="#0E81FF"/>
<path d="M38.0436 37.3778L35.1576 37.363L35.1354 35.513L37.4886 35.4908C37.7106 36.105 37.8956 36.734 38.0436 37.3778Z" fill="#0E81FF"/>
<path d="M33.1744 46.9237H12.1066V50.3203H33.1744V46.9237Z" fill="#021544"/>
</svg>
